<?xml version="1.0" standalone="no"?>
<!DOCTYPE svg PUBLIC "-//W3C//DTD SVG 1.1//EN" "http://www.w3.org/Graphics/SVG/1.1/DTD/svg11.dtd" >
<svg xmlns="http://www.w3.org/2000/svg" xmlns:xlink="http://www.w3.org/1999/xlink" version="1.1">
<metadata>
Created by FontForge 20170731 at Tue Dec 13 16:54:00 2022
 By Aleksey,,,
Copyright (c) 2020 by Paul Eslage, under exclusive license to TypeMates. All rights reserved.
</metadata>
<defs>
<font id="Sombra-Thin" horiz-adv-x="1816" >
  <font-face 
    font-family="Sombra Thin"
    font-weight="200"
    font-stretch="normal"
    units-per-em="2048"
    panose-1="0 0 3 0 0 0 0 0 0 0"
    ascent="1638"
    descent="-410"
    x-height="983"
    cap-height="1352"
    bbox="-1116 -434 3480 2138"
    underline-thickness="90"
    underline-position="-217"
    unicode-range="U+0020-1F318"
  />
<missing-glyph horiz-adv-x="1626" 
d="M215 -410v2048h1196v-2048h-1196zM297 -328h1032v1884h-1032v-1884zM475 903q-6 180 87 290t253 110q156 0 246 -98q90 -97 90 -265q0 -276 -274 -399v-164h-93v184q137 57 203 149t66 228q0 132 -63 205q-63 74 -173 74q-112 0 -178 -78t-66 -209q0 -29 2 -53zM879 -74
h-97v205h97v-205z" />
    <glyph glyph-name="fi" unicode="fi" horiz-adv-x="1064" 
d="M879 0h-91v905h-432v-905h-90v905h-246v78h261q-55 33 -87 86t-32 113q0 111 85 183q87 73 212 73q43 0 86 -12q46 -13 71 -31l-16 -90q-68 51 -143 51q-91 0 -146 -51t-55 -138q0 -61 27 -110q28 -51 71 -74h525v-983zM786 1167v205h95v-205h-95z" />
    <glyph glyph-name="fl" unicode="fl" horiz-adv-x="1062" 
d="M247 1365q87 73 212 73q43 0 86 -12q46 -13 71 -31l-16 -90q-68 51 -143 51q-91 0 -146 -51t-55 -138q0 -61 27 -110q28 -51 71 -74h246v-78h-244v-905h-90v905h-246v78h261q-55 33 -87 86t-32 113q0 111 85 183zM786 0v1434h91v-1434h-91z" />
    <glyph glyph-name="f_b" unicode="fb" horiz-adv-x="1626" 
d="M247 1365q87 73 212 73q43 0 86 -12q46 -13 71 -31l-16 -90q-68 51 -143 51q-91 0 -146 -51t-55 -138q0 -61 27 -110q28 -51 71 -74h246v-78h-244v-905h-90v905h-246v78h261q-55 33 -87 86t-32 113q0 111 85 183zM1351 944q76 -62 118 -180q42 -117 42 -272
q0 -156 -42 -273q-42 -118 -118 -180q-78 -64 -177 -64q-107 0 -185 67q-74 63 -112 191v-233h-91v1434h91v-680q38 127 112 189q77 65 185 65q99 0 177 -64zM1343 176q74 119 74 316q0 196 -74 315t-196 119q-126 0 -198 -116t-72 -318q0 -204 72 -319q72 -116 198 -116
q122 0 196 119z" />
    <glyph glyph-name="f_f" unicode="ff" horiz-adv-x="1122" 
d="M834 1305q-56 -51 -56 -138q0 -61 27 -110q27 -50 72 -74h245v-78h-243v-905h-91v905h-432v-905h-90v905h-246v78h261q-55 33 -87 86t-32 113q0 111 85 183q87 73 212 73q43 0 86 -12q46 -13 71 -31l-16 -90q-68 51 -143 51q-91 0 -146 -51t-55 -138q0 -61 27 -110
q28 -51 71 -74h449q-55 33 -87 86t-32 113q0 111 85 183q87 73 212 73q45 0 88 -12q47 -13 70 -31l-17 -90q-67 51 -143 51q-89 0 -145 -51z" />
    <glyph glyph-name="f_f_f" unicode="fff" horiz-adv-x="1646" 
d="M1358 1305q-55 -51 -55 -138q0 -62 26 -110q27 -50 72 -74h246v-78h-244v-905h-90v905h-432v-905h-90v905h-435v-905h-90v905h-246v78h261q-55 33 -87 86t-32 113q0 111 85 183q87 73 212 73q43 0 86 -12q46 -13 71 -31l-16 -90q-68 51 -143 51q-91 0 -146 -51t-55 -138
q0 -61 27 -110q28 -51 71 -74h451q-55 33 -87 86t-32 113q0 111 85 183q87 73 212 73q43 0 86 -12q48 -13 72 -31l-17 -90q-67 51 -143 51q-89 0 -145 -51t-56 -138q0 -61 27 -110q27 -50 72 -74h448q-55 33 -87 86t-32 113q0 111 85 183q87 73 212 73q45 0 88 -12
q47 -13 70 -31l-16 -90q-67 51 -144 51q-89 0 -145 -51z" />
    <glyph glyph-name="f_f_i" unicode="ffi" horiz-adv-x="1589" 
d="M1403 0h-90v905h-432v-905h-90v905h-435v-905h-90v905h-246v78h261q-55 33 -87 86t-32 113q0 111 85 183q87 73 212 73q43 0 86 -12q46 -13 71 -31l-16 -90q-68 51 -143 51q-91 0 -146 -51t-55 -138q0 -61 27 -110q28 -51 71 -74h451q-55 33 -87 86t-32 113q0 111 85 183
q87 73 212 73q43 0 86 -12q48 -13 72 -31l-17 -90q-67 51 -143 51q-89 0 -145 -51t-56 -138q0 -61 27 -110q27 -50 72 -74h524v-983zM1311 1167v205h94v-205h-94z" />
    <glyph glyph-name="f_h" unicode="fh" horiz-adv-x="1587" 
d="M247 1365q87 73 212 73q43 0 86 -12q46 -13 71 -31l-16 -90q-68 51 -143 51q-91 0 -146 -51t-55 -138q0 -61 27 -110q28 -51 71 -74h246v-78h-244v-905h-90v905h-246v78h261q-55 33 -87 86t-32 113q0 111 85 183zM1348 909q75 -97 75 -272v-637h-90v637q0 139 -60 214
t-169 75q-108 0 -168 -75q-59 -74 -59 -214v-637h-91v1434h91v-613q33 90 99 138q67 49 161 49q135 0 211 -99z" />
    <glyph glyph-name="f_j" unicode="fj" horiz-adv-x="1064" 
d="M879 -68q0 -159 -86 -248q-86 -90 -252 -94l-21 107q33 -4 51 -4q104 0 161 67q56 66 56 193v952h-432v-905h-90v905h-246v78h261q-55 33 -87 86t-32 113q0 111 85 183q87 73 212 73q43 0 86 -12q46 -13 71 -31l-16 -90q-68 51 -143 51q-91 0 -146 -51t-55 -138
q0 -61 27 -110q28 -51 71 -74h525v-1051zM786 1167v205h95v-205h-95z" />
    <glyph glyph-name="f_k" unicode="fk" horiz-adv-x="1503" 
d="M247 1365q87 73 212 73q43 0 86 -12q46 -13 71 -31l-16 -90q-68 51 -143 51q-91 0 -146 -51t-55 -138q0 -61 27 -110q28 -51 71 -74h246v-78h-244v-905h-90v905h-246v78h261q-55 33 -87 86t-32 113q0 111 85 183zM1481 0h-109l-358 492l-137 -154v-338h-91v1434h91v-967
l462 516h117l-383 -426z" />
    <glyph glyph-name="t_t" unicode="tt" horiz-adv-x="1202" 
d="M1145 20q-67 -45 -166 -45q-100 0 -153 56q-52 55 -52 162v712h-434v-712q0 -65 31 -101q30 -35 88 -35q41 0 81 15t64 39l17 -91q-67 -45 -166 -45q-100 0 -153 56q-52 55 -52 162v712h-227v78h57q108 0 150 36t42 130v135h86v-135q0 -78 -23 -114q-24 -37 -85 -52h354
q109 0 151 36t42 130v135h86v-135q0 -77 -24 -114t-85 -52h354v-78h-264v-712q0 -65 31 -101q30 -35 88 -35q41 0 81 15t64 39z" />
    <glyph glyph-name="f_t.liga" unicode="ft" horiz-adv-x="1220" 
d="M1163 20q-67 -45 -166 -45t-152 56q-52 55 -52 162v712h-437v-905h-90v905h-246v78h261q-55 33 -87 86t-32 113q0 111 85 183q87 73 212 73q43 0 86 -12q46 -13 71 -31l-16 -90q-68 51 -143 51q-91 0 -146 -51t-55 -138q0 -61 27 -110q28 -51 71 -74h269q108 0 150 36
t42 130v135h86v-135q0 -78 -23 -114q-24 -37 -85 -52h354v-78h-264v-712q0 -67 30 -101q30 -35 88 -35q41 0 81 15q41 15 65 39z" />
    <glyph glyph-name=".notdef" horiz-adv-x="1626" 
d="M215 -410v2048h1196v-2048h-1196zM297 -328h1032v1884h-1032v-1884zM475 903q-6 180 87 290t253 110q156 0 246 -98q90 -97 90 -265q0 -276 -274 -399v-164h-93v184q137 57 203 149t66 228q0 132 -63 205q-63 74 -173 74q-112 0 -178 -78t-66 -209q0 -29 2 -53zM879 -74
h-97v205h97v-205z" />
    <glyph glyph-name=".null" horiz-adv-x="0" 
 />
    <glyph glyph-name="nonmarkingreturn" horiz-adv-x="682" 
 />
    <glyph glyph-name="space" unicode=" " horiz-adv-x="462" 
 />
    <glyph glyph-name="exclam" unicode="!" horiz-adv-x="526" 
d="M217 1352h92l-4 -901h-84zM311 205v-205h-96v205h96z" />
    <glyph glyph-name="quotedbl" unicode="&#x22;" horiz-adv-x="745" 
d="M184 1352h105l-19 -365h-69zM457 1352h104l-18 -365h-70z" />
    <glyph glyph-name="numbersign" unicode="#" horiz-adv-x="1421" 
d="M1305 983v-86h-277l-76 -401h273v-86h-289l-78 -410h-94l78 410h-391l-78 -410h-94l77 410h-250v86h267l76 401h-263v86h279l70 369h94l-70 -369h391l70 369h94l-70 -369h261zM467 496h391l76 401h-391z" />
    <glyph glyph-name="dollar" unicode="$" horiz-adv-x="1071" 
d="M843 84q-99 -97 -259 -109v-200h-82v200q-165 12 -266 120q-102 109 -103 280l98 24q-2 -147 69 -236q72 -90 202 -102v605q-180 91 -251 175q-73 87 -73 208q0 135 90 225q89 89 234 100v203h82v-203q150 -16 235 -124q86 -109 82 -273l-98 -27q8 143 -50 233
q-57 90 -169 105v-553l6 -2q134 -66 208 -124q73 -57 108 -124q34 -65 34 -155q0 -150 -97 -246zM324 906q44 -54 178 -128v510q-103 -11 -164 -76q-62 -67 -62 -165q0 -82 48 -141zM584 61q119 12 188 84q70 73 70 185q0 63 -21 108t-76 88q-57 45 -161 99v-564z" />
    <glyph glyph-name="percent" unicode="%" horiz-adv-x="1775" 
d="M196 612q-77 113 -77 322q0 206 78 320t217 114q142 0 218 -114q77 -115 77 -320q0 -206 -77 -321q-76 -113 -218 -113t-218 112zM586 0h-97l703 1352h96zM565 668q53 92 53 266q0 172 -53 264t-151 92q-100 0 -152 -93q-53 -94 -53 -263q0 -171 53 -265t152 -94
q98 0 151 93zM1144 98q-77 113 -77 322q0 206 78 320t217 114q142 0 218 -114q77 -115 77 -320q0 -206 -77 -321q-76 -113 -218 -113t-218 112zM1513 154q54 94 54 266q0 170 -54 264q-53 92 -151 92q-99 0 -152 -93q-53 -94 -53 -263q0 -171 53 -265t152 -94q98 0 151 93z
" />
    <glyph glyph-name="ampersand" unicode="&#x26;" horiz-adv-x="1181" 
d="M1083 0q-52 -25 -108 -25q-87 0 -136 55q-48 54 -48 152v19q-28 -110 -100 -168t-181 -58q-104 0 -192 51q-86 50 -132 138q-47 89 -47 201q0 144 76 233q77 91 217 119q-260 47 -260 299q0 162 96 261t254 99q162 0 261 -105q99 -106 104 -282l-105 -26q5 150 -67 238
q-72 89 -195 89q-112 0 -181 -73t-69 -195q0 -127 81 -211t202 -84h514v-86h-184v-459q0 -63 26 -93q27 -32 78 -32q49 0 80 31zM715 147q76 82 76 218v276h-236q-155 0 -237 -71q-80 -70 -80 -205q0 -137 75 -218t201 -81t201 81z" />
    <glyph glyph-name="quotesingle" unicode="'" horiz-adv-x="473" 
d="M184 1352h105l-19 -365h-69z" />
    <glyph glyph-name="parenleft" unicode="(" horiz-adv-x="827" 
d="M739 1536q-149 -43 -263 -162q-112 -117 -176 -294q-62 -173 -62 -382t62 -382q63 -176 176 -293q114 -119 263 -162l-16 -90q-281 99 -430 338q-150 240 -150 589q0 350 150 590q149 239 430 338z" />
    <glyph glyph-name="parenright" unicode=")" horiz-adv-x="827" 
d="M104 1626q282 -100 431 -338t149 -590q0 -351 -149 -589t-431 -338l-16 90q149 43 263 162q113 117 176 293t63 382t-63 382q-64 177 -176 294q-114 119 -263 162z" />
    <glyph glyph-name="asterisk" unicode="*" horiz-adv-x="765" 
d="M502 997q46 -42 90 -100l-82 -61q-49 67 -73 119q-27 59 -54 135q-5 -13 -23 -61q-19 -53 -45 -100q-30 -54 -59 -93l-82 61q45 60 91 102q36 32 114 95q-158 0 -281 41l33 96q72 -23 127 -55q48 -27 123 -78q-24 81 -36 138q-13 61 -13 140h102q0 -77 -12 -137
q-9 -44 -37 -141l10.5 7t20 13.5t23.5 16.5q46 31 91 53q56 27 105 43l33 -96q-123 -41 -281 -41q68 -55 115 -97z" />
    <glyph glyph-name="plus" unicode="+" horiz-adv-x="1003" 
d="M549 721h377v-90h-377v-355h-94v355h-377v90h377v354h94v-354z" />
    <glyph glyph-name="comma" unicode="," horiz-adv-x="378" 
d="M223 205q49 -76 49 -166q0 -143 -110 -266l-88 16q104 122 104 250q0 87 -57 166h102z" />
    <glyph glyph-name="hyphen" unicode="-" horiz-adv-x="665" 
d="M80 487v91h506v-91h-506z" />
    <glyph glyph-name="period" unicode="." horiz-adv-x="397" 
d="M150 205h98v-205h-98v205z" />
    <glyph glyph-name="slash" unicode="/" horiz-adv-x="937" 
d="M205 -123h-99l627 1598h98z" />
    <glyph glyph-name="zero" unicode="0" horiz-adv-x="1056" 
d="M224 155q-105 179 -105 521t105 521t304 179q200 0 305 -179t105 -521t-105 -521q-106 -180 -305 -180q-198 0 -304 180zM760 220q80 160 80 456t-80 456q-79 158 -232 158q-152 0 -231 -158q-80 -160 -80 -456t80 -456q79 -159 231 -159t232 159z" />
    <glyph glyph-name="one" unicode="1" horiz-adv-x="763" 
d="M549 1352v-1352h-92v1198q-33 -161 -139 -255q-105 -93 -252 -93v104q146 0 250 105q105 107 145 293h88z" />
    <glyph glyph-name="two" unicode="2" horiz-adv-x="927" 
d="M728 664q-82 -168 -227 -316q-147 -150 -339 -258h647v-90h-715v90q298 226 457 458q160 234 160 441q0 137 -69 219t-183 82q-117 0 -185 -81q-67 -80 -67 -216q0 -47 8 -90l-104 27q-5 55 -5 69q0 166 98 272q98 105 255 105q158 0 254 -106t96 -283q0 -157 -81 -323z
" />
    <glyph glyph-name="three" unicode="3" horiz-adv-x="985" 
d="M791 589q75 -96 75 -245q0 -166 -100 -267q-100 -102 -268 -102q-176 0 -281 105q-104 104 -108 282l104 27q-2 -158 74 -242q77 -86 211 -86q125 0 197 77q73 78 73 206q0 138 -82 217q-83 80 -221 80h-113v86h113q118 0 195 83t77 212q0 118 -66 193t-173 75
q-116 0 -185 -90q-69 -89 -67 -237l-105 26q5 175 103 281q99 106 254 106q152 0 244 -98q94 -100 94 -256q0 -130 -64 -208q-63 -76 -192 -99q134 -28 211 -126z" />
    <glyph glyph-name="four" unicode="4" horiz-adv-x="978" 
d="M918 428v-90h-183v-338h-92v338h-573v90q169 211 241 421t72 503h94q0 -295 -85 -519q-86 -226 -265 -405h516v393h92v-393h183z" />
    <glyph glyph-name="five" unicode="5" horiz-adv-x="1017" 
d="M815 738q94 -118 94 -322q0 -211 -98 -325q-99 -116 -279 -116q-171 0 -275 107q-102 105 -107 280l104 27q-2 -150 73 -238q76 -90 205 -90q134 0 207 93q72 92 72 262t-71 262t-199 92q-91 0 -163 -45q-74 -47 -108 -121l-92 35l41 713h645v-90h-557l-33 -584
q40 84 115 131q74 47 168 47q164 0 258 -118z" />
    <glyph glyph-name="six" unicode="6" horiz-adv-x="987" 
d="M715 801q77 -55 121 -156q43 -99 43 -231q0 -201 -100 -321q-99 -118 -269 -118q-198 0 -295 175q-96 174 -96 530q0 696 385 696q139 0 232 -90t116 -244l-104 -26q-10 120 -77 197q-66 77 -167 77q-143 0 -215 -152q-72 -153 -72 -448q0 -63 4 -139q22 139 106 223
q82 82 208 82q103 0 180 -55zM709 156q71 93 71 260q0 170 -69 262t-197 92q-130 0 -199 -92t-69 -262q0 -160 72 -257q72 -98 192 -98q127 0 199 95z" />
    <glyph glyph-name="seven" unicode="7" horiz-adv-x="880" 
d="M10 1352h842v-90q-168 -160 -271 -335q-101 -171 -148 -385q-46 -209 -46 -497v-45h-94v45q0 306 49 521q50 218 158 385q109 168 291 311h-781v90z" />
    <glyph glyph-name="eight" unicode="8" horiz-adv-x="1032" 
d="M833 602q80 -99 80 -240q0 -110 -51 -198q-51 -89 -142 -138q-94 -51 -204 -51t-204 51q-91 49 -142 138q-51 88 -51 198q0 140 81 240q81 101 214 129q-117 23 -184 103q-66 80 -66 198q0 96 46 175t126 124t180 45t180 -45t126 -124t46 -175q0 -118 -66 -198
q-67 -80 -184 -103q134 -29 215 -129zM335 820q72 -79 181 -79t181 79q73 81 73 198t-73 195q-72 77 -181 77t-181 -77q-73 -78 -73 -195t73 -198zM730 146q85 85 85 216q0 128 -84 211q-83 82 -215 82t-215 -82q-84 -83 -84 -211q0 -131 85 -216t214 -85t214 85z" />
    <glyph glyph-name="nine" unicode="9" horiz-adv-x="987" 
d="M772 1212q96 -174 96 -530q0 -696 -385 -696q-139 0 -232 90q-94 91 -116 243l105 27q11 -122 76 -198q66 -76 167 -76q143 0 215 152q72 153 72 448q0 63 -4 139q-22 -139 -106 -223q-82 -82 -207 -82q-104 0 -181 55q-76 54 -120 156q-43 99 -43 231q0 202 99 321
q98 117 269 117q199 0 295 -174zM672 684q69 92 69 262q0 160 -72 257t-192 97q-126 0 -198 -94t-72 -260q0 -170 69 -262t197 -92q130 0 199 92z" />
    <glyph glyph-name="colon" unicode=":" horiz-adv-x="397" 
d="M150 983h98v-205h-98v205zM150 205h98v-205h-98v205z" />
    <glyph glyph-name="semicolon" unicode=";" horiz-adv-x="378" 
d="M223 205q49 -76 49 -166q0 -143 -110 -266l-88 16q104 122 104 250q0 87 -57 166h102zM139 983h99v-205h-99v205z" />
    <glyph glyph-name="less" unicode="&#x3c;" horiz-adv-x="1003" 
d="M141 743l719 279v-96l-649 -252l649 -250v-96l-719 276v139z" />
    <glyph glyph-name="equal" unicode="=" horiz-adv-x="1003" 
d="M100 788v91h803v-91h-803zM100 473v90h803v-90h-803z" />
    <glyph glyph-name="greater" unicode="&#x3e;" horiz-adv-x="1003" 
d="M143 926v96l719 -279v-139l-719 -276v96l650 250z" />
    <glyph glyph-name="question" unicode="?" horiz-adv-x="868" 
d="M651 1279q90 -97 90 -265q0 -277 -274 -400v-163h-92v184q138 58 203 148t65 229q0 133 -62 205q-63 73 -173 73q-113 0 -179 -78q-65 -77 -65 -208q0 -30 2 -54l-100 27q-6 180 87 290q93 109 253 109q155 0 245 -97zM469 0h-96v205h96v-205z" />
    <glyph glyph-name="at" unicode="@" 
d="M1306 1345q172 -114 270 -316q97 -200 97 -460q0 -214 -92 -339q-91 -124 -250 -124q-116 0 -187 71q-72 72 -79 192q-44 -98 -115 -151q-72 -54 -157 -54q-106 0 -166 83t-60 230q0 130 44 238q43 106 122 168q77 61 172 61q167 0 205 -192l25 174h94l-66 -424
q-8 -66 -8 -86q0 -103 48 -163t132 -60q111 0 175 100q65 101 65 274q0 234 -84 417q-84 184 -236 286t-344 102q-201 0 -352 -102t-234 -289t-83 -434q0 -243 84 -429t236 -287t356 -101q112 0 220 36t171 93l18 -107q-158 -108 -401 -108q-238 0 -413 110
q-177 111 -273 315q-97 206 -97 474t96 480q94 207 269 322q172 113 403 113q224 0 395 -113zM955 286q61 53 95 142q33 86 33 201q0 118 -41 180q-40 61 -118 61q-74 0 -134 -51t-95 -140q-33 -85 -33 -200q0 -121 41 -182q43 -64 120 -64q71 0 132 53z" />
    <glyph glyph-name="A" unicode="A" horiz-adv-x="1148" 
d="M1042 0h-96l-123 430h-495l-125 -430h-97l396 1352h145zM575 1284l-223 -768h445z" />
    <glyph glyph-name="B" unicode="B" horiz-adv-x="1196" 
d="M949 604q81 -91 81 -239q0 -169 -110 -267t-302 -98h-403v1352h367q193 0 299 -91t106 -255q0 -129 -68 -200q-69 -72 -200 -87q148 -22 230 -115zM307 1262v-535h275q307 0 307 266q0 137 -76 203q-77 66 -231 66h-275zM616 90q150 0 233 72t83 203q0 132 -81 204
t-235 72h-309v-551h309z" />
    <glyph glyph-name="C" unicode="C" horiz-adv-x="1181" 
d="M1038 471q-11 -235 -123 -365q-113 -131 -297 -131q-141 0 -250 86q-107 85 -166 244t-59 371t59 371q59 158 166 243q109 86 250 86q187 0 298 -131q112 -131 122 -364l-98 -25q-5 206 -90 320q-86 114 -232 114q-111 0 -197 -77q-85 -77 -132 -216q-47 -141 -47 -321
q0 -181 47 -322q47 -140 132 -216q86 -77 197 -77q146 0 232 117t90 318z" />
    <glyph glyph-name="D" unicode="D" horiz-adv-x="1202" 
d="M1059 676q0 -676 -555 -676h-289v1352h289q555 0 555 -676zM504 90q235 0 346 142t111 444q0 300 -111 443t-346 143h-197v-1172h197z" />
    <glyph glyph-name="E" unicode="E" horiz-adv-x="1062" 
d="M920 1352v-90h-613v-523h545v-86h-545v-563h613v-90h-705v1352h705z" />
    <glyph glyph-name="F" unicode="F" horiz-adv-x="1003" 
d="M911 1352v-90h-604v-539h535v-86h-535v-637h-92v1352h696z" />
    <glyph glyph-name="G" unicode="G" horiz-adv-x="1226" 
d="M618 705h414v-705h-92v272q-62 -297 -319 -297q-144 0 -253 86q-107 85 -166 244t-59 371t59 371q59 158 166 243q109 86 250 86q166 0 274 -105t138 -296l-100 -25q-21 160 -102 250t-210 90q-111 0 -197 -77q-85 -77 -132 -216q-47 -141 -47 -321q0 -181 47 -322
q47 -140 132 -216q86 -77 197 -77q96 0 169 55t113 153t40 231v114h-322v91z" />
    <glyph glyph-name="H" unicode="H" horiz-adv-x="1257" 
d="M950 721v631h92v-1352h-92v631h-643v-631h-92v1352h92v-631h643z" />
    <glyph glyph-name="I" unicode="I" horiz-adv-x="522" 
d="M307 0h-92v1352h92v-1352z" />
    <glyph glyph-name="J" unicode="J" horiz-adv-x="1028" 
d="M109 434l104 25q-29 -75 -29 -131q0 -122 74 -194q75 -73 197 -73q136 0 215 91q78 90 78 247v953h92v-953q0 -196 -102 -310t-275 -114q-107 0 -192 43t-133 120q-48 76 -48 171q0 59 19 125z" />
    <glyph glyph-name="K" unicode="K" horiz-adv-x="1067" 
d="M1024 0h-111l-467 672l-139 -172v-500h-92v1352h92v-705l574 705h118l-491 -607z" />
    <glyph glyph-name="L" unicode="L" horiz-adv-x="958" 
d="M307 1352v-1262h604v-90h-696v1352h92z" />
    <glyph glyph-name="M" unicode="M" horiz-adv-x="1554" 
d="M778 76l418 1276h143v-1352h-92v1200l-399 -1200h-141l-400 1206v-1206h-92v1352h143z" />
    <glyph glyph-name="N" unicode="N" horiz-adv-x="1251" 
d="M944 106v1246h92v-1352h-143l-586 1245v-1245h-92v1352h143z" />
    <glyph glyph-name="O" unicode="O" horiz-adv-x="1236" 
d="M368 61q-107 85 -166 245t-59 370t59 370q58 159 166 244q109 86 250 86q142 0 251 -86q108 -85 166 -244q59 -160 59 -370t-59 -370t-166 -245q-109 -86 -251 -86q-141 0 -250 86zM816 138q86 76 132 216q47 141 47 322q0 180 -47 321q-46 139 -132 216t-198 77
q-111 0 -197 -77q-85 -77 -132 -216q-47 -141 -47 -321q0 -181 47 -322q47 -140 132 -216q86 -77 197 -77q112 0 198 77z" />
    <glyph glyph-name="P" unicode="P" horiz-adv-x="1132" 
d="M901 1248q115 -106 115 -304q0 -197 -115 -303q-113 -104 -330 -104h-264v-537h-92v1352h356q215 2 330 -104zM571 623q178 0 262 78q85 79 85 241t-85 241t-262 79h-264v-639h264z" />
    <glyph glyph-name="Q" unicode="Q" horiz-adv-x="1236" 
d="M1182 -102q-102 41 -226 59t-297 18q-249 0 -383 182q-133 181 -133 519q0 210 59 370q58 159 166 244q109 86 250 86q142 0 251 -86q108 -85 166 -244q59 -160 59 -370q0 -176 -46 -315q-46 -141 -127 -220q-82 -80 -182 -80q225 0 422 -53zM289 354q47 -140 132 -216
q86 -77 197 -77q112 0 198 77q86 76 132 216q47 141 47 322q0 182 -47 323q-46 138 -132 215q-85 76 -198 76q-111 0 -197 -77q-85 -77 -132 -216q-47 -141 -47 -321q0 -181 47 -322z" />
    <glyph glyph-name="R" unicode="R" horiz-adv-x="1153" 
d="M968 137q15 -80 31 -137h-102q-25 92 -59 344q-12 83 -37 132q-24 46 -74 66q-48 19 -137 19h-283v-561h-92v1352h328q209 0 317 -94q107 -93 107 -275q0 -315 -269 -342q109 -17 162 -80q54 -65 72 -194q23 -158 36 -230zM307 1262v-615h238q174 0 249 72q74 71 74 237
q0 165 -74 235q-76 71 -249 71h-238z" />
    <glyph glyph-name="S" unicode="S" horiz-adv-x="1060" 
d="M225 399q-2 -160 80 -249q83 -91 230 -91q135 0 218 71t83 185q0 73 -29 126q-29 54 -100 104q-74 53 -207 119q-182 90 -255 179q-73 90 -73 220q0 87 47 160q46 71 130 112t186 41q168 0 266 -110q99 -110 94 -289l-98 -27q10 155 -61 248q-71 92 -201 92
q-115 0 -190 -63t-75 -164q0 -69 29 -121q28 -49 95 -100q62 -47 190 -109q138 -68 210 -125q74 -59 107 -128t33 -165q0 -97 -50 -176q-50 -78 -142 -122q-93 -44 -207 -44q-184 0 -295 111q-112 112 -113 291z" />
    <glyph glyph-name="T" unicode="T" horiz-adv-x="976" 
d="M70 1352h837v-90h-372v-1262h-93v1262h-372v90z" />
    <glyph glyph-name="U" unicode="U" horiz-adv-x="1196" 
d="M188 1352h93v-932q0 -168 84 -263q85 -96 233 -96t233 96q84 95 84 263v932h93v-932q0 -207 -110 -326t-300 -119t-300 119t-110 326v932z" />
    <glyph glyph-name="V" unicode="V" horiz-adv-x="1122" 
d="M561 74l346 1278h99l-373 -1352h-144l-372 1352h98z" />
    <glyph glyph-name="W" unicode="W" horiz-adv-x="1761" 
d="M1223 92l301 1260h96l-328 -1352h-143l-268 1255l-269 -1255h-143l-328 1352h97l301 -1260l270 1260h143z" />
    <glyph glyph-name="X" unicode="X" horiz-adv-x="1161" 
d="M645 686l399 -686h-106l-358 625l-357 -625h-106l397 686l-371 666h107l330 -602l329 602h107z" />
    <glyph glyph-name="Y" unicode="Y" horiz-adv-x="1099" 
d="M551 627l358 725h105l-418 -817v-535h-92v535l-418 817h104z" />
    <glyph glyph-name="Z" unicode="Z" horiz-adv-x="1169" 
d="M956 1210l-688 -1120h711v-90h-789v141l693 1121h-670v90h743v-142z" />
    <glyph glyph-name="bracketleft" unicode="[" horiz-adv-x="747" 
d="M659 1583v-80h-354v-1614h354v-79h-444v1773h444z" />
    <glyph glyph-name="backslash" unicode="\" horiz-adv-x="937" 
d="M205 1475l626 -1598h-98l-627 1598h99z" />
    <glyph glyph-name="bracketright" unicode="]" horiz-adv-x="747" 
d="M88 1583h444v-1773h-444v79h354v1614h-354v80z" />
    <glyph glyph-name="asciicircum" unicode="^" horiz-adv-x="839" 
d="M487 1352l271 -475h-96l-242 423l-242 -423h-96l270 475h135z" />
    <glyph glyph-name="underscore" unicode="_" horiz-adv-x="911" 
d="M80 -172v90h751v-90h-751z" />
    <glyph glyph-name="grave" unicode="`" horiz-adv-x="1302" 
d="M594 1393l227 -265l-100 -12l-242 262z" />
    <glyph glyph-name="a" unicode="a" horiz-adv-x="927" 
d="M682 922q82 -85 82 -236v-686h-90v150q-28 -88 -95 -132q-65 -43 -155 -43q-84 0 -154 41q-68 40 -108 112q-39 70 -39 159q0 87 39 158t107 111t153 40q89 0 156 -43q68 -44 96 -131v248q0 117 -58 187q-57 69 -159 69q-103 0 -161 -69t-54 -187l-97 24q5 146 87 230
q83 84 225 84t225 -86zM608 124q66 66 66 163q0 96 -66 162q-65 65 -162 65t-162 -65q-67 -67 -67 -162q0 -96 67 -163t162 -67t162 67z" />
    <glyph glyph-name="b" unicode="b" horiz-adv-x="1026" 
d="M751 944q76 -62 118 -180q42 -117 42 -272q0 -156 -42 -273q-42 -118 -118 -180q-78 -64 -178 -64q-106 0 -184 67q-75 65 -113 191v-233h-90v1434h90v-680q38 126 113 189q77 65 184 65q100 0 178 -64zM743 176q74 119 74 316q0 196 -74 315t-196 119q-126 0 -198 -116
q-73 -117 -73 -318q0 -202 73 -319q72 -116 198 -116q122 0 196 119z" />
    <glyph glyph-name="c" unicode="c" horiz-adv-x="925" 
d="M811 319q-1 -96 -45 -174q-42 -76 -118 -123t-167 -47q-168 0 -267 140q-99 139 -99 377q0 236 99 376t267 140q92 0 167 -45q74 -45 118 -123t45 -172l-96 -25q0 125 -66 204t-168 79q-125 0 -198 -118q-74 -119 -74 -316q0 -198 74 -317q73 -118 198 -118q102 0 168 81
t66 206z" />
    <glyph glyph-name="d" unicode="d" horiz-adv-x="1026" 
d="M750 1434h90v-1434h-90v233q-38 -126 -113 -191q-78 -67 -184 -67q-100 0 -178 64q-76 62 -118 180q-42 117 -42 273q0 155 42 272q42 118 118 180q78 64 178 64q107 0 184 -65q75 -63 113 -189v680zM677 173q73 117 73 319q0 201 -73 318q-72 116 -198 116
q-122 0 -196 -119t-74 -315q0 -197 74 -316t196 -119q126 0 198 116z" />
    <glyph glyph-name="e" unicode="e" horiz-adv-x="933" 
d="M209 483q1 -193 76 -310q74 -116 196 -116q103 0 169 81q67 82 67 206l96 -25q-1 -92 -46 -173q-42 -76 -119 -124q-76 -47 -167 -47q-168 0 -267 140q-99 139 -99 377q0 236 99 376t267 140q158 0 248 -114t90 -306q0 -50 -6 -105h-604zM719 561q8 170 -55 267
q-63 98 -183 98q-112 0 -184 -99q-71 -98 -86 -266h508z" />
    <glyph glyph-name="f" unicode="f" horiz-adv-x="600" 
d="M311 1305q-55 -51 -55 -138q0 -61 27 -110q28 -51 71 -74h246v-78h-244v-905h-90v905h-246v78h261q-55 33 -87 86t-32 113q0 111 85 183q87 73 212 73q45 0 88 -12q45 -12 69 -31l-16 -90q-68 51 -143 51q-91 0 -146 -51z" />
    <glyph glyph-name="g" unicode="g" horiz-adv-x="897" 
d="M524 100q142 0 221 -70q80 -71 80 -196q0 -131 -89 -200q-87 -68 -257 -68q-169 0 -263 67q-95 68 -95 181q0 45 16 96l105 27q-21 -60 -21 -113q0 -86 65 -131q64 -45 191 -45q130 0 192 46t62 140q0 88 -53 136q-52 48 -154 48h-112q-114 0 -182 43t-68 113
q0 113 157 141q-90 34 -138 122q-48 87 -48 212q0 182 92 271q91 88 285 88q101 0 178 8q74 8 135 28l-18 -102q-65 -14 -234 -16q95 -24 140 -92t45 -185q0 -166 -83 -261t-229 -95q-101 0 -149 -23q-47 -23 -47 -73q0 -46 43 -71q44 -26 121 -26h112zM285 447
q57 -72 159 -72q103 0 160 72q58 73 58 202q0 128 -58 201q-57 71 -160 76q-100 0 -158 -75q-59 -76 -59 -202q0 -129 58 -202z" />
    <glyph glyph-name="h" unicode="h" horiz-adv-x="987" 
d="M748 909q75 -97 75 -272v-637h-90v637q0 139 -60 214t-169 75q-108 0 -168 -75t-60 -214v-637h-90v1434h90v-613q33 89 100 138t161 49q135 0 211 -99z" />
    <glyph glyph-name="i" unicode="i" horiz-adv-x="462" 
d="M184 1372h95v-205h-95v205zM186 983h90v-983h-90v983z" />
    <glyph glyph-name="j" unicode="j" horiz-adv-x="462" 
d="M184 1372h95v-205h-95v205zM-82 -303q33 -4 51 -4q104 0 161 67q56 66 56 193v1030h90v-1051q0 -159 -86 -248q-87 -90 -251 -94z" />
    <glyph glyph-name="k" unicode="k" horiz-adv-x="903" 
d="M881 0h-109l-358 492l-138 -154v-338h-90v1434h90v-967l463 516h117l-383 -426z" />
    <glyph glyph-name="l" unicode="l" horiz-adv-x="462" 
d="M276 0h-90v1434h90v-1434z" />
    <glyph glyph-name="m" unicode="m" horiz-adv-x="1492" 
d="M1255 909q74 -100 74 -272v-637h-90v637q0 141 -57 215t-162 74q-104 0 -161 -74q-56 -72 -56 -215v-637h-90v637q0 140 -58 215q-57 74 -161 74t-161 -74t-57 -215v-637h-90v983h90v-160q32 87 97 136q64 49 153 49q98 0 165 -59t95 -165q28 106 98 165t169 59
q129 0 202 -99z" />
    <glyph glyph-name="n" unicode="n" horiz-adv-x="987" 
d="M748 909q75 -97 75 -272v-637h-90v637q0 139 -60 214t-169 75q-108 0 -168 -75t-60 -214v-637h-90v983h90v-162q33 89 100 138t161 49q135 0 211 -99z" />
    <glyph glyph-name="o" unicode="o" horiz-adv-x="962" 
d="M214 115q-99 139 -99 377q0 236 99 376t267 140q169 0 268 -140t99 -376q0 -238 -99 -377q-99 -140 -268 -140q-168 0 -267 140zM680 176q74 119 74 316q0 196 -74 315t-199 119q-124 0 -198 -119t-74 -315q0 -197 74 -316t198 -119q125 0 199 119z" />
    <glyph glyph-name="p" unicode="p" horiz-adv-x="1026" 
d="M751 944q76 -62 118 -180q42 -117 42 -272q0 -156 -42 -273q-42 -118 -118 -180q-78 -64 -178 -64q-106 0 -184 67q-75 65 -113 191v-643h-90v1393h90v-229q38 126 113 189q77 65 184 65q100 0 178 -64zM743 176q74 119 74 316q0 196 -74 315t-196 119q-126 0 -198 -116
q-73 -117 -73 -318q0 -202 73 -319q72 -116 198 -116q122 0 196 119z" />
    <glyph glyph-name="q" unicode="q" horiz-adv-x="1026" 
d="M750 983h90v-1393h-90v643q-38 -126 -113 -191q-78 -67 -184 -67q-100 0 -178 64q-76 62 -118 180q-42 117 -42 273q0 155 42 272q42 118 118 180q78 64 178 64q107 0 184 -65q75 -63 113 -189v229zM677 173q73 117 73 319q0 201 -73 318q-72 116 -198 116
q-122 0 -196 -119t-74 -315q0 -197 74 -316t196 -119q126 0 198 116z" />
    <glyph glyph-name="r" unicode="r" horiz-adv-x="788" 
d="M691 929q65 -80 65 -204q0 -60 -15 -117l-104 -26q18 74 18 135q0 95 -42 152t-119 57q-102 0 -159 -91q-57 -92 -59 -262v-573h-90v983h90v-186q29 100 93 156q63 55 149 55q109 0 173 -79z" />
    <glyph glyph-name="s" unicode="s" horiz-adv-x="860" 
d="M201 340q-4 -36 -4 -55q0 -105 62 -167q63 -63 171 -63q101 0 162 46t61 122q0 51 -21 87q-21 35 -75 71q-56 37 -158 82q-148 68 -204 133q-58 67 -58 168q0 108 81 176q82 68 212 68q136 0 215 -87q80 -87 72 -223l-94 -24q4 25 4 45q0 86 -56 147q-55 60 -141 60
q-89 0 -144 -44t-55 -118q0 -67 51 -116q47 -46 177 -107q110 -49 176 -96q61 -43 87 -96q26 -54 26 -126q0 -110 -90 -180t-228 -70q-159 0 -246 93q-86 92 -75 249z" />
    <glyph glyph-name="t" unicode="t" horiz-adv-x="677" 
d="M621 20q-67 -45 -166 -45q-100 0 -153 56q-52 55 -52 162v712h-227v78h57q108 0 150 36t42 130v135h86v-135q0 -78 -23 -114q-24 -37 -85 -52h354v-78h-264v-712q0 -65 31 -101q30 -35 88 -35q41 0 81 15t64 39z" />
    <glyph glyph-name="u" unicode="u" horiz-adv-x="966" 
d="M690 983h90v-983h-90v160q-33 -88 -96 -136q-64 -49 -154 -49q-128 0 -202 99q-74 100 -74 272v637h90v-637q0 -142 57 -215q57 -74 162 -74q104 0 161 74q56 72 56 215v637z" />
    <glyph glyph-name="v" unicode="v" horiz-adv-x="923" 
d="M463 57l285 926h94l-307 -983h-146l-307 983h94z" />
    <glyph glyph-name="w" unicode="w" horiz-adv-x="1409" 
d="M977 66l231 917h92l-251 -983h-144l-200 920l-201 -920h-144l-251 983h92l231 -917l201 917h143z" />
    <glyph glyph-name="x" unicode="x" horiz-adv-x="856" 
d="M489 492l299 -492h-102l-258 432l-258 -432h-102l299 492l-291 491h102l250 -432l250 432h102z" />
    <glyph glyph-name="y" unicode="y" horiz-adv-x="894" 
d="M729 983h96l-331 -983q-49 -140 -105 -232q-52 -85 -127 -126q-76 -42 -186 -52l-21 107q16 -2 37 -2q110 0 186 74q74 72 125 231l23 68h-47l-309 915h96l280 -850z" />
    <glyph glyph-name="z" unicode="z" horiz-adv-x="841" 
d="M715 850l-527 -760h543v-90h-620v133l526 760h-512v90h590v-133z" />
    <glyph glyph-name="braceleft" unicode="{" horiz-adv-x="827" 
d="M465 -26q104 -96 274 -113l-16 -90q-214 29 -335 145q-122 117 -122 291q0 57 19 127q1 8 8 43q6 30 6 63q0 103 -63 160t-177 57h-36v80h34h2q106 0 172 63t66 163q0 47 -14 100q-17 76 -17 127q0 174 122 291q121 116 335 145l16 -90q-168 -16 -274 -113
q-105 -96 -105 -237q0 -44 17 -115q16 -64 16 -106q0 -100 -59 -159q-61 -61 -174 -79q109 -24 171 -100q62 -75 62 -189q0 -47 -16 -114q-17 -68 -17 -109q0 -143 105 -241z" />
    <glyph glyph-name="bar" unicode="|" horiz-adv-x="522" 
d="M307 -190h-92v1773h92v-1773z" />
    <glyph glyph-name="braceright" unicode="}" horiz-adv-x="827" 
d="M805 739v-80h-35h-2q-107 0 -172 -62q-66 -63 -66 -163q0 -43 15 -100q16 -71 16 -127q0 -174 -122 -291q-121 -116 -335 -145l-16 90q170 17 274 112q105 96 105 238q0 48 -16 115q-17 68 -17 106q0 99 60 159q61 61 174 79q-109 24 -171 100q-63 76 -63 188
q0 44 17 115q16 64 16 109q0 142 -105 240t-274 114l16 90q214 -29 335 -145q122 -117 122 -291q0 -61 -18 -127q-1 -8 -8 -43t-7 -64q0 -101 64 -159t176 -58h37z" />
    <glyph glyph-name="asciitilde" unicode="~" horiz-adv-x="1003" 
d="M78 586q15 92 79 150q65 59 154 59q57 0 103 -20q47 -21 78 -40q22 -14 43 -26q65 -37 94 -50q32 -14 67 -14q54 0 92 38q39 39 46 101l94 -16q-12 -89 -79 -150q-65 -59 -159 -59q-56 0 -103 21t-76 40q-8 5 -16.5 10.5t-13 8.5t-6.5 4q-58 36 -93 50q-40 16 -71 16
q-55 0 -94 -39q-38 -38 -43 -99z" />
    <glyph glyph-name="uni00A0" unicode="&#xa0;" horiz-adv-x="462" 
 />
    <glyph glyph-name="exclamdown" unicode="&#xa1;" horiz-adv-x="526" 
d="M215 983h96v-205h-96v205zM305 532l4 -901h-92l4 901h84z" />
    <glyph glyph-name="cent" unicode="&#xa2;" horiz-adv-x="1003" 
d="M565 244q92 15 146 93q55 79 55 191l96 -24q-5 -136 -88 -233t-209 -109v-203h-82v203q-149 21 -234 157t-85 357q0 220 85 356q86 137 234 158v203h82v-203q126 -12 210 -108q82 -94 87 -230l-96 -25q0 114 -55 190t-146 91v-864zM318 383q60 -115 165 -137v860
q-105 -22 -165 -137q-60 -114 -60 -293t60 -293z" />
    <glyph glyph-name="sterling" unicode="&#xa3;" horiz-adv-x="995" 
d="M928 90v-90h-842v90q176 72 251 141t75 162q0 42 -19 94h-307v82h268q-8 13 -15.5 25.5t-11.5 18.5t-5 8l-43 59q-65 88 -97 176q-32 87 -32 174q0 100 46 179q47 80 128 123q83 44 184 44q162 0 259 -104q96 -104 101 -283l-104 -26q4 146 -68 237q-72 90 -192 90
q-113 0 -185 -75q-71 -74 -71 -191q0 -144 114 -301l54 -74q25 -36 49 -80h326v-82h-293q12 -44 12 -77q0 -235 -340 -320h758z" />
    <glyph glyph-name="currency" unicode="&#xa4;" horiz-adv-x="1003" 
d="M743 489l244 -243l-57 -58l-244 244q-81 -59 -182 -59q-108 0 -187 63l-243 -246l-58 58l244 246q-59 78 -59 182q0 100 57 180l-240 242l58 57l239 -242q81 64 189 64q105 0 186 -64l242 242l57 -57l-241 -242q57 -80 57 -180q0 -107 -62 -187zM662 518q63 63 63 158
q0 92 -63 155q-64 64 -158 64q-96 0 -160 -64q-63 -63 -63 -155q0 -95 63 -158t160 -63q95 0 158 63z" />
    <glyph glyph-name="yen" unicode="&#xa5;" horiz-adv-x="1189" 
d="M958 1352h101l-391 -705h350v-82h-377v-133h377v-82h-377v-350h-92v350h-375v82h375v133h-375v82h348l-391 705h100l365 -668z" />
    <glyph glyph-name="brokenbar" unicode="&#xa6;" horiz-adv-x="522" 
d="M215 905v678h92v-678h-92zM307 -190h-92v677h92v-677z" />
    <glyph glyph-name="section" unicode="&#xa7;" horiz-adv-x="962" 
d="M757 290q68 -74 68 -173q0 -124 -95 -201q-94 -76 -251 -76q-163 0 -261 87q-97 86 -89 227l98 24q-2 -16 -2 -39q0 -95 71 -154t187 -59q111 0 177 51q67 52 67 138q0 79 -70 137t-219 98q-164 44 -238 112q-73 67 -73 169q0 107 72 177q73 71 198 89q-122 37 -191 112
t-69 173q0 120 91 198q92 78 235 78q99 0 176 -40q78 -41 118 -111q41 -72 36 -162l-99 -25q2 16 2 37q0 95 -66 155t-171 60q-99 0 -161 -52t-62 -136q0 -80 69 -137q72 -59 219 -99q167 -45 239 -111q73 -67 73 -169q0 -108 -72 -178q-73 -71 -199 -89q125 -38 192 -111z
M299 485q72 -65 182 -65q111 0 183 65q73 66 73 164t-73 164q-74 66 -183 66t-182 -66q-74 -66 -74 -164t74 -164z" />
    <glyph glyph-name="dieresis" unicode="&#xa8;" horiz-adv-x="1302" 
d="M469 1372h100l2 -205h-98zM731 1372h100l3 -205h-99z" />
    <glyph glyph-name="copyright" unicode="&#xa9;" horiz-adv-x="2039" 
d="M1459 -83q201 119 320 320q117 198 117 441q0 238 -118 438t-320 319q-198 117 -436 117q-243 0 -441 -117q-202 -119 -320 -319t-118 -438q0 -241 118 -441q119 -201 320 -320q200 -118 441 -118q237 0 437 118zM624 -11q-183 108 -291 291t-108 398q0 212 108 395
q107 181 291 290q181 107 398 107q212 0 393 -107q184 -109 291 -290q109 -185 109 -395q0 -212 -109 -397q-108 -183 -291 -291q-185 -109 -393 -109q-215 0 -398 108zM1323 553q-17 -145 -93 -228q-77 -83 -202 -83q-99 0 -174 56q-77 57 -117 155q-41 100 -41 223t41 223
q40 98 117 155q75 56 174 56q126 0 202 -82q77 -83 93 -225l-90 -23q-7 118 -63 187q-54 67 -142 67q-106 0 -175 -102t-69 -256t69 -256q70 -103 175 -103q88 0 142 69q56 71 63 189z" />
    <glyph glyph-name="ordfeminine" unicode="&#xaa;" horiz-adv-x="802" 
d="M589 1294q73 -75 73 -204v-576h-84v133q-27 -73 -85 -110t-135 -37q-113 0 -188 75q-76 76 -76 189q0 112 76 187t186 75q79 0 137 -37q59 -38 85 -108v194q0 101 -51 160q-49 57 -138 57t-139 -57q-49 -56 -47 -158l-90 25q4 123 77 194q74 72 199 72q128 0 200 -74z
M520 629q58 56 58 135q0 80 -57 134t-140 54q-84 0 -141 -54q-58 -55 -58 -134t58 -135t141 -56q81 0 139 56z" />
    <glyph glyph-name="guillemotleft" unicode="&#xab;" horiz-adv-x="1130" 
d="M461 385q92 -95 131 -225l-92 -23q-38 137 -120 228t-196 118v68q116 29 198 120q84 93 118 226l92 -23q-39 -131 -131 -226q-91 -94 -219 -132q129 -38 219 -131zM815 385q92 -95 131 -225l-92 -23q-38 137 -120 228t-195 118v68q115 29 197 120q84 93 118 226l92 -23
q-39 -131 -131 -226q-91 -94 -219 -132q129 -38 219 -131z" />
    <glyph glyph-name="logicalnot" unicode="&#xac;" horiz-adv-x="1003" 
d="M111 631v90h782v-373h-94v283h-688z" />
    <glyph glyph-name="uni00AD" unicode="&#xad;" horiz-adv-x="665" 
d="M80 487v91h506v-91h-506z" />
    <glyph glyph-name="registered" unicode="&#xae;" horiz-adv-x="929" 
d="M641 1362q81 -47 127 -128q47 -82 47 -175q0 -96 -47 -176t-127 -127t-174 -47q-95 0 -177 47q-81 46 -128 127q-47 80 -47 176t47 176q47 81 128 127q82 47 177 47q94 0 174 -47zM609 809q68 40 106 105q39 66 39 145q0 78 -39 144q-39 67 -106 106q-66 39 -142 39
q-77 0 -145 -39q-67 -39 -107 -106q-39 -66 -39 -144q0 -79 39 -145t107 -105t145 -39q76 0 142 39zM578 1025q20 -23 26 -71q10 -77 21 -98h-72q-9 32 -14 82q-1 37 -18 52q-16 14 -48 14h-78v-148h-67v406h153q131 0 131 -109q0 -93 -96 -100q42 -5 62 -28zM395 1204v-149
h76q39 0 56 17q18 18 18 56q0 76 -74 76h-76z" />
    <glyph glyph-name="macron" unicode="&#xaf;" horiz-adv-x="1302" 
d="M408 1186v82h487v-82h-487z" />
    <glyph glyph-name="degree" unicode="&#xb0;" horiz-adv-x="776" 
d="M193 920q-78 78 -78 192q0 72 36 133q36 62 98 96q64 35 136 35q119 0 198 -76t79 -188q0 -117 -79 -193q-80 -77 -198 -77q-114 0 -192 78zM517 974q52 53 52 138q0 81 -52 133q-53 53 -132 53q-73 0 -126 -54q-52 -53 -52 -132q0 -84 51 -138t127 -54q79 0 132 54z" />
    <glyph glyph-name="plusminus" unicode="&#xb1;" horiz-adv-x="1003" 
d="M549 1020v-203h311v-90h-311v-203h-94v203h-312v90h312v203h94zM860 334h-717v90h717v-90z" />
    <glyph glyph-name="uni00B2" unicode="&#xb2;" horiz-adv-x="737" 
d="M509 1039q-129 -139 -366 -242h494v-78h-559v74q230 128 352 267q121 137 121 263q0 81 -52 127q-53 47 -134 47q-87 0 -136 -49t-49 -131q0 -35 4 -51l-98 24q-2 16 -2 35q0 111 78 180q79 70 203 70q121 0 197 -69q77 -69 77 -181q0 -146 -130 -286z" />
    <glyph glyph-name="uni00B3" unicode="&#xb3;" horiz-adv-x="737" 
d="M593 1098q58 -61 58 -158q0 -106 -77 -171q-76 -64 -203 -64q-135 0 -213 66q-77 66 -82 175l94 25q2 -92 56 -142q53 -49 145 -49q88 0 139 45t51 119t-58 119q-59 45 -155 45h-84v74h84q83 0 135 46q54 48 54 118q0 67 -47 109t-119 42q-78 0 -126 -51
q-49 -52 -50 -137l-95 24q5 109 79 175q76 67 192 67q111 0 184 -62q72 -62 72 -157q0 -81 -49 -124q-50 -44 -150 -56q106 -16 165 -78z" />
    <glyph glyph-name="acute" unicode="&#xb4;" horiz-adv-x="1302" 
d="M580 1116l-101 12l228 265l114 -15z" />
    <glyph glyph-name="uni00B5" unicode="&#xb5;" horiz-adv-x="989" 
d="M713 983h90v-983h-90v160q-32 -87 -97 -136q-64 -49 -149 -49q-130 0 -199 107v-492h-82v1393h90v-637q0 -139 57 -214t163 -75q103 0 160 75t57 214v637z" />
    <glyph glyph-name="paragraph" unicode="&#xb6;" horiz-adv-x="1204" 
d="M224 1255q107 98 308 97h213v-1352h-92v592h-121q-201 0 -308 97t-107 284q0 184 107 282zM897 0v1352h92v-1352h-92z" />
    <glyph glyph-name="periodcentered" unicode="&#xb7;" horiz-adv-x="397" 
d="M150 778h98v-205h-98v205z" />
    <glyph glyph-name="cedilla" unicode="&#xb8;" horiz-adv-x="1302" 
d="M672 -106q58 -7 93 -38q34 -30 34 -71q0 -51 -47 -84q-46 -33 -125 -33q-73 0 -125 29l16 94q53 -41 109 -41q37 0 57 14q21 15 21 41q0 31 -33 55q-32 24 -92 34l18 106h92z" />
    <glyph glyph-name="uni00B9" unicode="&#xb9;" horiz-adv-x="737" 
d="M428 797h252v-78h-623v78h285v665q-22 -122 -95 -186t-190 -64v99q223 0 289 248h82v-762z" />
    <glyph glyph-name="ordmasculine" unicode="&#xba;" horiz-adv-x="856" 
d="M193 617q-89 119 -89 315q0 198 89 317t235 119q147 0 236 -119q88 -118 88 -317q0 -200 -88 -316t-236 -116t-235 117zM600 674q66 99 66 260t-66 260q-65 98 -172 98t-171 -98t-64 -260t64 -260q65 -99 171 -99t172 99z" />
    <glyph glyph-name="guillemotright" unicode="&#xbb;" horiz-adv-x="1189" 
d="M276 897q34 -133 118 -226q82 -91 198 -120v-68q-114 -27 -196 -118t-120 -228l-92 23q39 130 131 225q90 93 220 131q-129 38 -220 132q-92 95 -131 226zM690 897q34 -133 118 -226q82 -91 198 -120v-68q-114 -27 -196 -118t-120 -228l-92 23q39 130 131 225
q90 93 219 131q-128 38 -219 132q-92 95 -131 226z" />
    <glyph glyph-name="onequarter" unicode="&#xbc;" horiz-adv-x="1449" 
d="M385 1352v-838h-86v741q-21 -118 -92 -183q-72 -66 -178 -66v98q103 0 174 65t100 183h82zM399 0h-96l703 1352h96zM1202 0v201h-395v73q118 119 167 248q50 130 50 316h94q0 -182 -67 -322t-197 -237h348v231h86v-231h123v-78h-123v-201h-86z" />
    <glyph glyph-name="onehalf" unicode="&#xbd;" horiz-adv-x="1511" 
d="M385 1352v-838h-86v741q-21 -118 -92 -183q-72 -66 -178 -66v98q103 0 174 65t100 183h82zM399 0h-96l703 1352h96zM1315 316q-115 -137 -332 -238h449v-78h-517v74q209 129 319 264q112 138 112 264q0 80 -47 127t-119 47q-76 0 -121 -49t-45 -131q0 -18 4 -51l-96 24
q-2 14 -2 33q0 111 71 181q73 71 189 71q115 0 184 -69q70 -70 70 -181q0 -146 -119 -288z" />
    <glyph glyph-name="threequarters" unicode="&#xbe;" horiz-adv-x="1581" 
d="M158 764q1 -91 52 -140t136 -49q80 0 130 45q48 44 48 117q0 77 -54 120q-55 44 -144 44h-80v74h80q77 0 126 46q50 47 50 118q0 67 -43 109t-113 42q-76 0 -121 -51t-45 -137l-94 24q6 110 77 176t183 66q109 0 177 -61q69 -61 69 -158q0 -156 -191 -180
q103 -17 158 -78t55 -158q0 -107 -73 -170t-195 -63q-126 0 -202 66t-81 173zM530 0h-96l703 1352h96zM1333 0v201h-395v73q118 119 167 248q50 130 50 316h94q0 -182 -67 -322t-197 -237h348v231h86v-231h123v-78h-123v-201h-86z" />
    <glyph glyph-name="questiondown" unicode="&#xbf;" horiz-adv-x="868" 
d="M399 983h97v-205h-97v205zM803 6q6 -180 -87 -290q-93 -109 -253 -109q-156 0 -246 97q-90 98 -90 265q0 277 274 400v163h93v-184q-138 -58 -203 -148q-66 -92 -66 -229q0 -131 63 -204q63 -74 173 -74q112 0 178 78t66 209q0 17 -3 53z" />
    <glyph glyph-name="Agrave" unicode="&#xc0;" horiz-adv-x="1148" 
d="M1042 0h-96l-123 430h-495l-125 -430h-97l396 1352h145zM575 1284l-223 -768h445zM442 1708l258 -229l-114 -15l-273 228z" />
    <glyph glyph-name="Aacute" unicode="&#xc1;" horiz-adv-x="1148" 
d="M1042 0h-96l-123 430h-495l-125 -430h-97l396 1352h145zM575 1284l-223 -768h445zM596 1464l-115 15l258 229l129 -16z" />
    <glyph glyph-name="Acircumflex" unicode="&#xc2;" horiz-adv-x="1148" 
d="M1042 0h-96l-123 430h-495l-125 -430h-97l396 1352h145zM575 1284l-223 -768h445zM641 1702l252 -223l-117 -15l-188 162l-189 -162l-116 15l249 223h109z" />
    <glyph glyph-name="Atilde" unicode="&#xc3;" horiz-adv-x="1148" 
d="M1042 0h-96l-123 430h-495l-125 -430h-97l396 1352h145zM575 1284l-223 -768h445zM248 1489q6 194 180 194q42 0 82 -18q34 -15 108 -66q44 -31 71 -43q23 -10 52 -10q48 0 69 32q21 31 19 99l91 -14q-6 -199 -181 -199q-39 0 -79 18q-42 19 -111 66q-52 35 -74 44
q-25 10 -49 10q-47 0 -68 -30q-20 -29 -20 -97z" />
    <glyph glyph-name="Adieresis" unicode="&#xc4;" horiz-adv-x="1148" 
d="M1042 0h-96l-123 430h-495l-125 -430h-97l396 1352h145zM575 1284l-223 -768h445zM389 1686h103l2 -185h-101zM678 1686h102l2 -185h-100z" />
    <glyph glyph-name="Aring" unicode="&#xc5;" horiz-adv-x="1148" 
d="M1042 0h-96l-123 430h-495l-125 -430h-97l396 1352h145zM575 1284l-223 -768h445zM450 1496q-55 50 -55 126t55 126t136 50t137 -50q55 -49 55 -126t-55 -126q-56 -50 -137 -50t-136 50zM665 1547q31 30 31 75t-31 75q-30 29 -79 29t-78 -29q-31 -31 -31 -75t31 -75
q29 -29 78 -29t79 29z" />
    <glyph glyph-name="AE" unicode="&#xc6;" horiz-adv-x="1585" 
d="M1442 1352v-90h-719l98 -523h553v-86h-536l106 -563h498v-90h-576l-80 430h-479l-164 -430h-98l518 1352h879zM631 1280l-291 -764h430z" />
    <glyph glyph-name="Ccedilla" unicode="&#xc7;" horiz-adv-x="1181" 
d="M850 178q86 117 90 318l98 -25q-11 -235 -123 -365q-113 -131 -297 -131l-14 -81q58 -7 93 -38q34 -30 34 -71q0 -51 -47 -84q-46 -33 -125 -33q-73 0 -125 29l17 94q53 -41 108 -41q37 0 57 14q21 15 21 41q0 31 -33 55q-31 22 -92 33l16 93q-177 39 -281 222
q-104 184 -104 468q0 212 59 371q59 158 166 243q109 86 250 86q187 0 298 -131q112 -131 122 -364l-98 -25q-5 206 -90 320q-86 114 -232 114q-111 0 -197 -77q-85 -77 -132 -216q-47 -141 -47 -321q0 -181 47 -322q47 -140 132 -216q86 -77 197 -77q146 0 232 117z" />
    <glyph glyph-name="Egrave" unicode="&#xc8;" horiz-adv-x="1062" 
d="M920 1352v-90h-613v-523h545v-86h-545v-563h613v-90h-705v1352h705zM424 1708l258 -229l-115 -15l-272 228z" />
    <glyph glyph-name="Eacute" unicode="&#xc9;" horiz-adv-x="1062" 
d="M920 1352v-90h-613v-523h545v-86h-545v-563h613v-90h-705v1352h705zM578 1464l-115 15l258 229l129 -16z" />
    <glyph glyph-name="Ecircumflex" unicode="&#xca;" horiz-adv-x="1062" 
d="M920 1352v-90h-613v-523h545v-86h-545v-563h613v-90h-705v1352h705zM623 1702l251 -223l-116 -15l-189 162l-188 -162l-117 15l250 223h109z" />
    <glyph glyph-name="Edieresis" unicode="&#xcb;" horiz-adv-x="1062" 
d="M920 1352v-90h-613v-523h545v-86h-545v-563h613v-90h-705v1352h705zM371 1686h102l2 -185h-100zM659 1686h103l2 -185h-100z" />
    <glyph glyph-name="Igrave" unicode="&#xcc;" horiz-adv-x="522" 
d="M307 0h-92v1352h92v-1352zM121 1708l258 -229l-115 -15l-272 228z" />
    <glyph glyph-name="Iacute" unicode="&#xcd;" horiz-adv-x="522" 
d="M307 0h-92v1352h92v-1352zM274 1464l-114 15l258 229l129 -16z" />
    <glyph glyph-name="Icircumflex" unicode="&#xce;" horiz-adv-x="522" 
d="M307 0h-92v1352h92v-1352zM319 1702l252 -223l-116 -15l-189 162l-188 -162l-117 15l250 223h108z" />
    <glyph glyph-name="Idieresis" unicode="&#xcf;" horiz-adv-x="522" 
d="M307 0h-92v1352h92v-1352zM68 1686h102l2 -185h-100zM356 1686h103l2 -185h-101z" />
    <glyph glyph-name="Eth" unicode="&#xd0;" horiz-adv-x="1202" 
d="M1059 676q0 -676 -555 -676h-289v655h-158v82h158v615h289q555 0 555 -676zM504 90q235 0 346 142t111 444q0 300 -111 443t-346 143h-197v-525h293v-82h-293v-565h197z" />
    <glyph glyph-name="Ntilde" unicode="&#xd1;" horiz-adv-x="1251" 
d="M944 106v1246h92v-1352h-143l-586 1245v-1245h-92v1352h143zM289 1489q6 194 180 194q41 0 82 -18q34 -15 108 -66q44 -31 71 -43q23 -10 52 -10q48 0 69 32q21 31 19 99l91 -14q-6 -199 -181 -199q-38 0 -79 18q-42 19 -111 66q-52 35 -74 44q-25 10 -49 10
q-47 0 -68 -30q-20 -29 -20 -97z" />
    <glyph glyph-name="Ograve" unicode="&#xd2;" horiz-adv-x="1236" 
d="M368 61q-107 85 -166 245t-59 370t59 370q58 159 166 244q109 86 250 86q142 0 251 -86q108 -85 166 -244q59 -160 59 -370t-59 -370t-166 -245q-109 -86 -251 -86q-141 0 -250 86zM816 138q86 76 132 216q47 141 47 322q0 180 -47 321q-46 139 -132 216t-198 77
q-111 0 -197 -77q-85 -77 -132 -216q-47 -141 -47 -321q0 -181 47 -322q47 -140 132 -216q86 -77 197 -77q112 0 198 77zM473 1708l258 -229l-115 -15l-272 228z" />
    <glyph glyph-name="Oacute" unicode="&#xd3;" horiz-adv-x="1236" 
d="M368 61q-107 85 -166 245t-59 370t59 370q58 159 166 244q109 86 250 86q142 0 251 -86q108 -85 166 -244q59 -160 59 -370t-59 -370t-166 -245q-109 -86 -251 -86q-141 0 -250 86zM816 138q86 76 132 216q47 141 47 322q0 180 -47 321q-46 139 -132 216t-198 77
q-111 0 -197 -77q-85 -77 -132 -216q-47 -141 -47 -321q0 -181 47 -322q47 -140 132 -216q86 -77 197 -77q112 0 198 77zM627 1464l-115 15l258 229l129 -16z" />
    <glyph glyph-name="Ocircumflex" unicode="&#xd4;" horiz-adv-x="1236" 
d="M368 61q-107 85 -166 245t-59 370t59 370q58 159 166 244q109 86 250 86q142 0 251 -86q108 -85 166 -244q59 -160 59 -370t-59 -370t-166 -245q-109 -86 -251 -86q-141 0 -250 86zM816 138q86 76 132 216q47 141 47 322q0 180 -47 321q-46 139 -132 216t-198 77
q-111 0 -197 -77q-85 -77 -132 -216q-47 -141 -47 -321q0 -181 47 -322q47 -140 132 -216q86 -77 197 -77q112 0 198 77zM672 1702l252 -223l-117 -15l-189 162l-188 -162l-117 15l250 223h109z" />
    <glyph glyph-name="Otilde" unicode="&#xd5;" horiz-adv-x="1236" 
d="M368 61q-107 85 -166 245t-59 370t59 370q58 159 166 244q109 86 250 86q142 0 251 -86q108 -85 166 -244q59 -160 59 -370t-59 -370t-166 -245q-109 -86 -251 -86q-141 0 -250 86zM816 138q86 76 132 216q47 141 47 322q0 180 -47 321q-46 139 -132 216t-198 77
q-111 0 -197 -77q-85 -77 -132 -216q-47 -141 -47 -321q0 -181 47 -322q47 -140 132 -216q86 -77 197 -77q112 0 198 77zM279 1489q6 194 180 194q41 0 82 -18q34 -15 108 -66q44 -31 71 -43q23 -10 52 -10q48 0 69 32q21 31 19 99l90 -14q-6 -199 -180 -199q-38 0 -79 18
q-42 19 -111 66q-52 35 -74 44q-25 10 -49 10q-47 0 -68 -30q-20 -29 -20 -97z" />
    <glyph glyph-name="Odieresis" unicode="&#xd6;" horiz-adv-x="1236" 
d="M368 61q-107 85 -166 245t-59 370t59 370q58 159 166 244q109 86 250 86q142 0 251 -86q108 -85 166 -244q59 -160 59 -370t-59 -370t-166 -245q-109 -86 -251 -86q-141 0 -250 86zM816 138q86 76 132 216q47 141 47 322q0 180 -47 321q-46 139 -132 216t-198 77
q-111 0 -197 -77q-85 -77 -132 -216q-47 -141 -47 -321q0 -181 47 -322q47 -140 132 -216q86 -77 197 -77q112 0 198 77zM420 1686h102l2 -185h-100zM709 1686h102l2 -185h-100z" />
    <glyph glyph-name="multiply" unicode="&#xd7;" horiz-adv-x="1003" 
d="M827 1065l64 -64l-326 -325l326 -326l-64 -63l-325 325l-326 -325l-63 63l325 326l-325 325l63 64l326 -326z" />
    <glyph glyph-name="Oslash" unicode="&#xd8;" horiz-adv-x="1236" 
d="M946 1210q72 -92 110 -229q38 -138 38 -305q0 -210 -59 -370t-166 -245q-109 -86 -251 -86q-161 0 -278 111l-90 -168h-94l127 234q-68 93 -104 225q-36 134 -36 299q0 210 59 370q58 159 166 244q109 86 250 86q157 0 269 -100l86 158h94zM334 250l508 940
q-96 100 -224 100q-111 0 -197 -77q-85 -77 -132 -216q-47 -141 -47 -321q0 -263 92 -426zM816 138q86 76 132 216q47 141 47 322q0 268 -100 440l-508 -944q95 -111 231 -111q112 0 198 77z" />
    <glyph glyph-name="Ugrave" unicode="&#xd9;" horiz-adv-x="1196" 
d="M188 1352h93v-932q0 -168 84 -263q85 -96 233 -96t233 96q84 95 84 263v932h93v-932q0 -207 -110 -326t-300 -119t-300 119t-110 326v932zM455 1708l258 -229l-115 -15l-272 228z" />
    <glyph glyph-name="Uacute" unicode="&#xda;" horiz-adv-x="1196" 
d="M188 1352h93v-932q0 -168 84 -263q85 -96 233 -96t233 96q84 95 84 263v932h93v-932q0 -207 -110 -326t-300 -119t-300 119t-110 326v932zM608 1464l-114 15l258 229l129 -16z" />
    <glyph glyph-name="Ucircumflex" unicode="&#xdb;" horiz-adv-x="1196" 
d="M188 1352h93v-932q0 -168 84 -263q85 -96 233 -96t233 96q84 95 84 263v932h93v-932q0 -207 -110 -326t-300 -119t-300 119t-110 326v932zM653 1702l252 -223l-117 -15l-188 162l-188 -162l-117 15l250 223h108z" />
    <glyph glyph-name="Udieresis" unicode="&#xdc;" horiz-adv-x="1196" 
d="M188 1352h93v-932q0 -168 84 -263q85 -96 233 -96t233 96q84 95 84 263v932h93v-932q0 -207 -110 -326t-300 -119t-300 119t-110 326v932zM401 1686h103l2 -185h-100zM690 1686h103l2 -185h-101z" />
    <glyph glyph-name="Yacute" unicode="&#xdd;" horiz-adv-x="1099" 
d="M551 627l358 725h105l-418 -817v-535h-92v535l-418 817h104zM561 1464l-115 15l259 229l129 -16z" />
    <glyph glyph-name="Thorn" unicode="&#xde;" horiz-adv-x="1112" 
d="M551 1087q218 2 330 -102q114 -105 114 -303q0 -196 -114 -301t-330 -105h-244v-276h-92v1352h92v-265h244zM551 362q176 0 261 79t85 241t-85 241q-84 78 -261 78h-244v-639h244z" />
    <glyph glyph-name="germandbls" unicode="&#xdf;" horiz-adv-x="1046" 
d="M846 640q86 -109 86 -280q0 -184 -93 -284q-93 -101 -264 -101q-121 0 -196 52l16 94q85 -64 189 -64q124 0 189 77t65 224q0 167 -86 253q-85 85 -254 85h-66v86h55q116 0 188 87q73 88 73 223q0 127 -65 206q-65 78 -173 78q-107 0 -170 -79q-64 -81 -64 -212v-1085
h-90v1085q0 170 87 272q86 101 235 101t241 -101q93 -102 93 -263q0 -124 -64 -208q-64 -83 -178 -112q162 -27 246 -134z" />
    <glyph glyph-name="agrave" unicode="&#xe0;" horiz-adv-x="927" 
d="M682 922q82 -85 82 -236v-686h-90v150q-28 -88 -95 -132q-65 -43 -155 -43q-84 0 -154 41q-68 40 -108 112q-39 70 -39 159q0 87 39 158t107 111t153 40q89 0 156 -43q68 -44 96 -131v248q0 117 -58 187q-57 69 -159 69q-103 0 -161 -69t-54 -187l-97 24q5 146 87 230
q83 84 225 84t225 -86zM608 124q66 66 66 163q0 96 -66 162q-65 65 -162 65t-162 -65q-67 -67 -67 -162q0 -96 67 -163t162 -67t162 67zM326 1393l227 -265l-100 -12l-242 262z" />
    <glyph glyph-name="aacute" unicode="&#xe1;" horiz-adv-x="927" 
d="M682 922q82 -85 82 -236v-686h-90v150q-28 -88 -95 -132q-65 -43 -155 -43q-84 0 -154 41q-68 40 -108 112q-39 70 -39 159q0 87 39 158t107 111t153 40q89 0 156 -43q68 -44 96 -131v248q0 117 -58 187q-57 69 -159 69q-103 0 -161 -69t-54 -187l-97 24q5 146 87 230
q83 84 225 84t225 -86zM608 124q66 66 66 163q0 96 -66 162q-65 65 -162 65t-162 -65q-67 -67 -67 -162q0 -96 67 -163t162 -67t162 67zM461 1116l-101 12l228 265l114 -15z" />
    <glyph glyph-name="acircumflex" unicode="&#xe2;" horiz-adv-x="927" 
d="M682 922q82 -85 82 -236v-686h-90v150q-28 -88 -95 -132q-65 -43 -155 -43q-84 0 -154 41q-68 40 -108 112q-39 70 -39 159q0 87 39 158t107 111t153 40q89 0 156 -43q68 -44 96 -131v248q0 117 -58 187q-57 69 -159 69q-103 0 -161 -69t-54 -187l-97 24q5 146 87 230
q83 84 225 84t225 -86zM608 124q66 66 66 163q0 96 -66 162q-65 65 -162 65t-162 -65q-67 -67 -67 -162q0 -96 67 -163t162 -67t162 67zM504 1391l223 -261l-102 -12l-170 191l-172 -191l-103 12l223 261h101z" />
    <glyph glyph-name="atilde" unicode="&#xe3;" horiz-adv-x="927" 
d="M682 922q82 -85 82 -236v-686h-90v150q-28 -88 -95 -132q-65 -43 -155 -43q-84 0 -154 41q-68 40 -108 112q-39 70 -39 159q0 87 39 158t107 111t153 40q89 0 156 -43q68 -44 96 -131v248q0 117 -58 187q-57 69 -159 69q-103 0 -161 -69t-54 -187l-97 24q5 146 87 230
q83 84 225 84t225 -86zM608 124q66 66 66 163q0 96 -66 162q-65 65 -162 65t-162 -65q-67 -67 -67 -162q0 -96 67 -163t162 -67t162 67zM156 1143q1 104 47 162q45 57 125 57q43 0 76 -19t79 -71q30 -33 55 -53q19 -15 37 -15q80 0 78 152l90 -15q-1 -104 -45 -161
q-44 -58 -120 -58q-50 0 -80 18q-34 20 -82 74q-33 37 -54 53q-17 13 -40 13q-78 0 -76 -152z" />
    <glyph glyph-name="adieresis" unicode="&#xe4;" horiz-adv-x="927" 
d="M682 922q82 -85 82 -236v-686h-90v150q-28 -88 -95 -132q-65 -43 -155 -43q-84 0 -154 41q-68 40 -108 112q-39 70 -39 159q0 87 39 158t107 111t153 40q89 0 156 -43q68 -44 96 -131v248q0 117 -58 187q-57 69 -159 69q-103 0 -161 -69t-54 -187l-97 24q5 146 87 230
q83 84 225 84t225 -86zM608 124q66 66 66 163q0 96 -66 162q-65 65 -162 65t-162 -65q-67 -67 -67 -162q0 -96 67 -163t162 -67t162 67zM270 1372h101l2 -205h-99zM532 1372h101l2 -205h-98z" />
    <glyph glyph-name="aring" unicode="&#xe5;" horiz-adv-x="927" 
d="M682 922q82 -85 82 -236v-686h-90v150q-28 -88 -95 -132q-65 -43 -155 -43q-84 0 -154 41q-68 40 -108 112q-39 70 -39 159q0 87 39 158t107 111t153 40q89 0 156 -43q68 -44 96 -131v248q0 117 -58 187q-57 69 -159 69q-103 0 -161 -69t-54 -187l-97 24q5 146 87 230
q83 84 225 84t225 -86zM608 124q66 66 66 163q0 96 -66 162q-65 65 -162 65t-162 -65q-67 -67 -67 -162q0 -96 67 -163t162 -67t162 67zM310 1148q-54 50 -54 126t54 126q55 50 136 50q82 0 138 -50q55 -49 55 -126t-55 -126q-56 -50 -138 -50q-81 0 -136 50zM525 1199
q32 30 32 75t-32 75q-30 29 -79 29q-48 0 -77 -29q-31 -31 -31 -75t31 -75q30 -30 77 -30q48 0 79 30z" />
    <glyph glyph-name="ae" unicode="&#xe6;" horiz-adv-x="1492" 
d="M768 483q1 -193 76 -310q74 -116 196 -116q104 0 170 82q66 83 66 205l96 -25q-1 -94 -46 -175q-43 -78 -121 -124q-77 -45 -169 -45q-116 0 -202 72q-87 73 -127 203q-11 -131 -82 -202q-73 -73 -193 -73q-135 0 -222 88q-87 89 -87 224q0 85 39 156q40 73 107 112
q70 41 153 41q92 0 158 -45t94 -127v246q0 117 -58 187q-57 69 -159 69q-103 0 -161 -69t-54 -187l-97 24q5 146 87 230q83 84 225 84q133 0 214 -75q80 -74 91 -206q62 281 293 281q146 0 235 -115q88 -113 88 -305q0 -50 -6 -105h-604zM1278 561q8 170 -55 267
q-63 98 -183 98q-112 0 -184 -99q-71 -98 -86 -266h508zM608 124q66 66 66 163q-1 97 -67 163q-64 64 -161 64t-162 -65q-67 -67 -67 -162q0 -96 67 -163t162 -67t162 67z" />
    <glyph glyph-name="ccedilla" unicode="&#xe7;" horiz-adv-x="925" 
d="M649 138q66 81 66 206l96 -25q-1 -132 -83 -229q-81 -97 -204 -113l-14 -83q58 -7 93 -38q34 -30 34 -71q0 -51 -47 -84q-46 -33 -125 -33q-73 0 -125 29l16 94q53 -41 109 -41q37 0 57 14q21 15 21 41q0 31 -33 55q-32 24 -92 34l14 86q-147 21 -232 156
q-85 136 -85 356q0 236 99 376t267 140q92 0 167 -45q74 -45 118 -123t45 -172l-96 -25q0 125 -66 204t-168 79q-125 0 -198 -118q-74 -119 -74 -316q0 -198 74 -317q73 -118 198 -118q102 0 168 81z" />
    <glyph glyph-name="egrave" unicode="&#xe8;" horiz-adv-x="933" 
d="M209 483q1 -193 76 -310q74 -116 196 -116q103 0 169 81q67 82 67 206l96 -25q-1 -92 -46 -173q-42 -76 -119 -124q-76 -47 -167 -47q-168 0 -267 140q-99 139 -99 377q0 236 99 376t267 140q158 0 248 -114t90 -306q0 -50 -6 -105h-604zM719 561q8 170 -55 267
q-63 98 -183 98q-112 0 -184 -99q-71 -98 -86 -266h508zM354 1393l228 -265l-101 -12l-241 262z" />
    <glyph glyph-name="eacute" unicode="&#xe9;" horiz-adv-x="933" 
d="M209 483q1 -193 76 -310q74 -116 196 -116q103 0 169 81q67 82 67 206l96 -25q-1 -92 -46 -173q-42 -76 -119 -124q-76 -47 -167 -47q-168 0 -267 140q-99 139 -99 377q0 236 99 376t267 140q158 0 248 -114t90 -306q0 -50 -6 -105h-604zM719 561q8 170 -55 267
q-63 98 -183 98q-112 0 -184 -99q-71 -98 -86 -266h508zM489 1116l-100 12l227 265l115 -15z" />
    <glyph glyph-name="ecircumflex" unicode="&#xea;" horiz-adv-x="933" 
d="M209 483q1 -193 76 -310q74 -116 196 -116q103 0 169 81q67 82 67 206l96 -25q-1 -92 -46 -173q-42 -76 -119 -124q-76 -47 -167 -47q-168 0 -267 140q-99 139 -99 377q0 236 99 376t267 140q158 0 248 -114t90 -306q0 -50 -6 -105h-604zM719 561q8 170 -55 267
q-63 98 -183 98q-112 0 -184 -99q-71 -98 -86 -266h508zM532 1391l224 -260l-103 -13l-170 191l-172 -191l-102 13l223 260h100z" />
    <glyph glyph-name="edieresis" unicode="&#xeb;" horiz-adv-x="933" 
d="M209 483q1 -193 76 -310q74 -116 196 -116q103 0 169 81q67 82 67 206l96 -25q-1 -92 -46 -173q-42 -76 -119 -124q-76 -47 -167 -47q-168 0 -267 140q-99 139 -99 377q0 236 99 376t267 140q158 0 248 -114t90 -306q0 -50 -6 -105h-604zM719 561q8 170 -55 267
q-63 98 -183 98q-112 0 -184 -99q-71 -98 -86 -266h508zM299 1372h100l2 -205h-98zM561 1372h101l2 -205h-99z" />
    <glyph glyph-name="igrave" unicode="&#xec;" horiz-adv-x="466" 
d="M188 983h91v-983h-91v983zM106 1393l228 -265l-101 -12l-241 262z" />
    <glyph glyph-name="iacute" unicode="&#xed;" horiz-adv-x="466" 
d="M188 983h91v-983h-91v983zM242 1116l-101 12l228 265l114 -15z" />
    <glyph glyph-name="icircumflex" unicode="&#xee;" horiz-adv-x="466" 
d="M188 983h91v-983h-91v983zM285 1391l223 -261l-102 -12l-170 191l-173 -191l-102 12l223 261h101z" />
    <glyph glyph-name="idieresis" unicode="&#xef;" horiz-adv-x="466" 
d="M188 983h91v-983h-91v983zM51 1372h101l2 -205h-99zM313 1372h101l2 -205h-99z" />
    <glyph glyph-name="eth" unicode="&#xf0;" horiz-adv-x="970" 
d="M866 1337v-86l-196 -67q36 -42 65 -86q72 -111 102 -229q29 -115 29 -281q0 -293 -104 -452q-105 -161 -293 -161q-165 0 -259 123q-95 124 -95 334q0 216 91 340q92 125 249 125q134 0 217 -89q81 -87 98 -251q2 30 2 76q0 312 -194 518l-320 -109v86l254 86
q-141 118 -352 203l112 41q209 -100 334 -211zM668 161q75 101 75 275q0 186 -68 282q-69 97 -200 97q-128 0 -196 -98q-70 -100 -70 -277q0 -178 69 -280q70 -103 189 -103q124 0 201 104z" />
    <glyph glyph-name="ntilde" unicode="&#xf1;" horiz-adv-x="987" 
d="M748 909q75 -97 75 -272v-637h-90v637q0 139 -60 214t-169 75q-108 0 -168 -75t-60 -214v-637h-90v983h90v-162q33 89 100 138t161 49q135 0 211 -99zM209 1143q1 104 47 162q45 57 125 57q44 0 77 -19t79 -71q32 -36 54 -53q20 -15 38 -15q80 0 78 152l90 -15
q-1 -104 -45 -161q-44 -58 -121 -58q-50 0 -80 18q-34 20 -82 74q-35 39 -53 53q-17 13 -41 13q-78 0 -76 -152z" />
    <glyph glyph-name="ograve" unicode="&#xf2;" horiz-adv-x="962" 
d="M214 115q-99 139 -99 377q0 236 99 376t267 140q169 0 268 -140t99 -376q0 -238 -99 -377q-99 -140 -268 -140q-168 0 -267 140zM680 176q74 119 74 316q0 196 -74 315t-199 119q-124 0 -198 -119t-74 -315q0 -197 74 -316t198 -119q125 0 199 119zM354 1393l228 -265
l-101 -12l-241 262z" />
    <glyph glyph-name="oacute" unicode="&#xf3;" horiz-adv-x="962" 
d="M214 115q-99 139 -99 377q0 236 99 376t267 140q169 0 268 -140t99 -376q0 -238 -99 -377q-99 -140 -268 -140q-168 0 -267 140zM680 176q74 119 74 316q0 196 -74 315t-199 119q-124 0 -198 -119t-74 -315q0 -197 74 -316t198 -119q125 0 199 119zM489 1116l-100 12
l227 265l115 -15z" />
    <glyph glyph-name="ocircumflex" unicode="&#xf4;" horiz-adv-x="962" 
d="M214 115q-99 139 -99 377q0 236 99 376t267 140q169 0 268 -140t99 -376q0 -238 -99 -377q-99 -140 -268 -140q-168 0 -267 140zM680 176q74 119 74 316q0 196 -74 315t-199 119q-124 0 -198 -119t-74 -315q0 -197 74 -316t198 -119q125 0 199 119zM532 1391l224 -261
l-103 -12l-170 191l-172 -191l-102 12l223 261h100z" />
    <glyph glyph-name="otilde" unicode="&#xf5;" horiz-adv-x="962" 
d="M214 115q-99 139 -99 377q0 236 99 376t267 140q169 0 268 -140t99 -376q0 -238 -99 -377q-99 -140 -268 -140q-168 0 -267 140zM680 176q74 119 74 316q0 196 -74 315t-199 119q-124 0 -198 -119t-74 -315q0 -197 74 -316t198 -119q125 0 199 119zM184 1143
q1 104 47 162q45 57 125 57q44 0 77 -19t79 -71q32 -36 54 -53q20 -15 38 -15q80 0 78 152l90 -15q-1 -104 -45 -161q-44 -58 -121 -58q-50 0 -80 18q-34 20 -82 74q-35 39 -53 53q-17 13 -41 13q-78 0 -76 -152z" />
    <glyph glyph-name="odieresis" unicode="&#xf6;" horiz-adv-x="962" 
d="M214 115q-99 139 -99 377q0 236 99 376t267 140q169 0 268 -140t99 -376q0 -238 -99 -377q-99 -140 -268 -140q-168 0 -267 140zM680 176q74 119 74 316q0 196 -74 315t-199 119q-124 0 -198 -119t-74 -315q0 -197 74 -316t198 -119q125 0 199 119zM299 1372h100l2 -205
h-98zM561 1372h101l2 -205h-99z" />
    <glyph glyph-name="divide" unicode="&#xf7;" horiz-adv-x="1003" 
d="M453 1049h98v-205h-98v205zM78 631v90h848v-90h-848zM453 508h98v-205h-98v205z" />
    <glyph glyph-name="oslash" unicode="&#xf8;" horiz-adv-x="962" 
d="M741 877q107 -137 107 -385q0 -238 -99 -377q-99 -140 -268 -140q-112 0 -192 62l-64 -119h-94l96 178q-56 68 -84 169q-28 100 -28 227q0 236 99 376t267 140q115 0 201 -68l68 125h94zM276 186l363 674q-66 66 -158 66q-124 0 -198 -119t-74 -315q0 -188 67 -306z
M680 176q74 119 74 316q0 174 -62 292l-360 -667q63 -60 149 -60q125 0 199 119z" />
    <glyph glyph-name="ugrave" unicode="&#xf9;" horiz-adv-x="966" 
d="M690 983h90v-983h-90v160q-33 -88 -96 -136q-64 -49 -154 -49q-128 0 -202 99q-74 100 -74 272v637h90v-637q0 -142 57 -215q57 -74 162 -74q104 0 161 74q56 72 56 215v637zM346 1393l227 -265l-100 -12l-242 262z" />
    <glyph glyph-name="uacute" unicode="&#xfa;" horiz-adv-x="966" 
d="M690 983h90v-983h-90v160q-33 -88 -96 -136q-64 -49 -154 -49q-128 0 -202 99q-74 100 -74 272v637h90v-637q0 -142 57 -215q57 -74 162 -74q104 0 161 74q56 72 56 215v637zM481 1116l-100 12l227 265l115 -15z" />
    <glyph glyph-name="ucircumflex" unicode="&#xfb;" horiz-adv-x="966" 
d="M690 983h90v-983h-90v160q-33 -88 -96 -136q-64 -49 -154 -49q-128 0 -202 99q-74 100 -74 272v637h90v-637q0 -142 57 -215q57 -74 162 -74q104 0 161 74q56 72 56 215v637zM524 1391l224 -261l-103 -12l-170 191l-172 -191l-102 12l223 261h100z" />
    <glyph glyph-name="udieresis" unicode="&#xfc;" horiz-adv-x="966" 
d="M690 983h90v-983h-90v160q-33 -88 -96 -136q-64 -49 -154 -49q-128 0 -202 99q-74 100 -74 272v637h90v-637q0 -142 57 -215q57 -74 162 -74q104 0 161 74q56 72 56 215v637zM291 1372h100l2 -205h-98zM553 1372h100l2 -205h-98z" />
    <glyph glyph-name="yacute" unicode="&#xfd;" horiz-adv-x="894" 
d="M729 983h96l-331 -983q-49 -140 -105 -232q-52 -85 -127 -126q-76 -42 -186 -52l-21 107q16 -2 37 -2q110 0 186 74q74 72 125 231l23 68h-47l-309 915h96l280 -850zM469 1116l-100 12l227 265l115 -15z" />
    <glyph glyph-name="thorn" unicode="&#xfe;" horiz-adv-x="1026" 
d="M751 944q76 -62 118 -180q42 -117 42 -272q0 -156 -42 -273q-42 -118 -118 -180q-78 -64 -178 -64q-106 0 -184 67q-75 65 -113 191v-643h-90v1850h90v-686q38 126 113 189q77 65 184 65q100 0 178 -64zM743 176q74 119 74 316q0 196 -74 315t-196 119q-126 0 -198 -116
q-73 -117 -73 -318q0 -202 73 -319q72 -116 198 -116q122 0 196 119z" />
    <glyph glyph-name="ydieresis" unicode="&#xff;" horiz-adv-x="894" 
d="M729 983h96l-331 -983q-49 -140 -105 -232q-52 -85 -127 -126q-76 -42 -186 -52l-21 107q16 -2 37 -2q110 0 186 74q74 72 125 231l23 68h-47l-309 915h96l280 -850zM279 1372h100l2 -205h-98zM541 1372h100l2 -205h-98z" />
    <glyph glyph-name="Amacron" unicode="&#x100;" horiz-adv-x="1148" 
d="M1042 0h-96l-123 430h-495l-125 -430h-97l396 1352h145zM575 1284l-223 -768h445zM311 1518v81h549v-81h-549z" />
    <glyph glyph-name="amacron" unicode="&#x101;" horiz-adv-x="927" 
d="M682 922q82 -85 82 -236v-686h-90v150q-28 -88 -95 -132q-65 -43 -155 -43q-84 0 -154 41q-68 40 -108 112q-39 70 -39 159q0 87 39 158t107 111t153 40q89 0 156 -43q68 -44 96 -131v248q0 117 -58 187q-57 69 -159 69q-103 0 -161 -69t-54 -187l-97 24q5 146 87 230
q83 84 225 84t225 -86zM608 124q66 66 66 163q0 96 -66 162q-65 65 -162 65t-162 -65q-67 -67 -67 -162q0 -96 67 -163t162 -67t162 67zM209 1186v82h487v-82h-487z" />
    <glyph glyph-name="Abreve" unicode="&#x102;" horiz-adv-x="1148" 
d="M1042 0h-96l-123 430h-495l-125 -430h-97l396 1352h145zM575 1284l-223 -768h445zM879 1694q-21 -224 -293 -224q-274 0 -295 224l94 10q8 -152 201 -152q192 0 200 152z" />
    <glyph glyph-name="abreve" unicode="&#x103;" horiz-adv-x="927" 
d="M682 922q82 -85 82 -236v-686h-90v150q-28 -88 -95 -132q-65 -43 -155 -43q-84 0 -154 41q-68 40 -108 112q-39 70 -39 159q0 87 39 158t107 111t153 40q89 0 156 -43q68 -44 96 -131v248q0 117 -58 187q-57 69 -159 69q-103 0 -161 -69t-54 -187l-97 24q5 146 87 230
q83 84 225 84t225 -86zM608 124q66 66 66 163q0 96 -66 162q-65 65 -162 65t-162 -65q-67 -67 -67 -162q0 -96 67 -163t162 -67t162 67zM713 1384q-4 -122 -72 -191q-67 -69 -188 -69q-120 0 -190 68q-68 67 -73 192l95 13q-2 -91 42 -141t126 -50t126 50t42 139z" />
    <glyph glyph-name="Aogonek" unicode="&#x104;" horiz-adv-x="1148" 
d="M1028 -215l14 -88q-46 -29 -112 -29q-76 0 -125 42t-49 106q0 66 54 119q53 52 136 67l-123 428h-495l-125 -430h-97l396 1352h145l395 -1352q-92 -17 -143 -59q-53 -44 -53 -101q0 -42 26 -65q28 -25 74 -25q42 0 82 35zM575 1284l-223 -768h445z" />
    <glyph glyph-name="aogonek" unicode="&#x105;" horiz-adv-x="927" 
d="M764 0q-92 -17 -143 -59q-54 -45 -54 -101q0 -41 27 -65q28 -25 74 -25q42 0 82 35l14 -88q-46 -29 -113 -29q-75 0 -125 42q-49 42 -49 106q0 70 57 123q58 53 140 65v146q-28 -88 -95 -132q-65 -43 -155 -43q-84 0 -154 41q-68 40 -108 112q-39 70 -39 159q0 87 39 158
t107 111t153 40q89 0 156 -43q68 -44 96 -131v248q0 117 -58 187q-57 69 -159 69q-103 0 -161 -69t-54 -187l-97 24q5 146 87 230q83 84 225 84t225 -86q82 -85 82 -236v-686zM608 124q66 66 66 163q0 96 -66 162q-65 65 -162 65t-162 -65q-67 -67 -67 -162q0 -96 67 -163
t162 -67t162 67z" />
    <glyph glyph-name="Cacute" unicode="&#x106;" horiz-adv-x="1181" 
d="M1038 471q-11 -235 -123 -365q-113 -131 -297 -131q-141 0 -250 86q-107 85 -166 244t-59 371t59 371q59 158 166 243q109 86 250 86q187 0 298 -131q112 -131 122 -364l-98 -25q-5 206 -90 320q-86 114 -232 114q-111 0 -197 -77q-85 -77 -132 -216q-47 -141 -47 -321
q0 -181 47 -322q47 -140 132 -216q86 -77 197 -77q146 0 232 117t90 318zM629 1464l-115 15l258 229l129 -16z" />
    <glyph glyph-name="cacute" unicode="&#x107;" horiz-adv-x="925" 
d="M811 319q-1 -96 -45 -174q-42 -76 -118 -123t-167 -47q-168 0 -267 140q-99 139 -99 377q0 236 99 376t267 140q92 0 167 -45q74 -45 118 -123t45 -172l-96 -25q0 125 -66 204t-168 79q-125 0 -198 -118q-74 -119 -74 -316q0 -198 74 -317q73 -118 198 -118q102 0 168 81
t66 206zM489 1116l-100 12l227 265l115 -15z" />
    <glyph glyph-name="Ccircumflex" unicode="&#x108;" horiz-adv-x="1181" 
d="M1038 471q-11 -235 -123 -365q-113 -131 -297 -131q-141 0 -250 86q-107 85 -166 244t-59 371t59 371q59 158 166 243q109 86 250 86q187 0 298 -131q112 -131 122 -364l-98 -25q-5 206 -90 320q-86 114 -232 114q-111 0 -197 -77q-85 -77 -132 -216q-47 -141 -47 -321
q0 -181 47 -322q47 -140 132 -216q86 -77 197 -77q146 0 232 117t90 318zM674 1702l252 -223l-117 -15l-188 162l-189 -162l-117 15l250 223h109z" />
    <glyph glyph-name="ccircumflex" unicode="&#x109;" horiz-adv-x="925" 
d="M811 319q-1 -96 -45 -174q-42 -76 -118 -123t-167 -47q-168 0 -267 140q-99 139 -99 377q0 236 99 376t267 140q92 0 167 -45q74 -45 118 -123t45 -172l-96 -25q0 125 -66 204t-168 79q-125 0 -198 -118q-74 -119 -74 -316q0 -198 74 -317q73 -118 198 -118q102 0 168 81
t66 206zM532 1391l224 -261l-103 -12l-170 191l-172 -191l-102 12l223 261h100z" />
    <glyph glyph-name="Cdotaccent" unicode="&#x10a;" horiz-adv-x="1181" 
d="M1038 471q-11 -235 -123 -365q-113 -131 -297 -131q-141 0 -250 86q-107 85 -166 244t-59 371t59 371q59 158 166 243q109 86 250 86q187 0 298 -131q112 -131 122 -364l-98 -25q-5 206 -90 320q-86 114 -232 114q-111 0 -197 -77q-85 -77 -132 -216q-47 -141 -47 -321
q0 -181 47 -322q47 -140 132 -216q86 -77 197 -77q146 0 232 117t90 318zM569 1686h97v-185h-97v185z" />
    <glyph glyph-name="cdotaccent" unicode="&#x10b;" horiz-adv-x="925" 
d="M811 319q-1 -96 -45 -174q-42 -76 -118 -123t-167 -47q-168 0 -267 140q-99 139 -99 377q0 236 99 376t267 140q92 0 167 -45q74 -45 118 -123t45 -172l-96 -25q0 125 -66 204t-168 79q-125 0 -198 -118q-74 -119 -74 -316q0 -198 74 -317q73 -118 198 -118q102 0 168 81
t66 206zM432 1372h96v-205h-96v205z" />
    <glyph glyph-name="Ccaron" unicode="&#x10c;" horiz-adv-x="1181" 
d="M1038 471q-11 -235 -123 -365q-113 -131 -297 -131q-141 0 -250 86q-107 85 -166 244t-59 371t59 371q59 158 166 243q109 86 250 86q187 0 298 -131q112 -131 122 -364l-98 -25q-5 206 -90 320q-86 114 -232 114q-111 0 -197 -77q-85 -77 -132 -216q-47 -141 -47 -321
q0 -181 47 -322q47 -140 132 -216q86 -77 197 -77q146 0 232 117t90 318zM621 1540l188 162l117 -14l-252 -224h-109l-250 224l117 14z" />
    <glyph glyph-name="ccaron" unicode="&#x10d;" horiz-adv-x="925" 
d="M811 319q-1 -96 -45 -174q-42 -76 -118 -123t-167 -47q-168 0 -267 140q-99 139 -99 377q0 236 99 376t267 140q92 0 167 -45q74 -45 118 -123t45 -172l-96 -25q0 125 -66 204t-168 79q-125 0 -198 -118q-74 -119 -74 -316q0 -198 74 -317q73 -118 198 -118q102 0 168 81
t66 206zM483 1200l170 191l103 -13l-224 -260h-100l-223 260l102 13z" />
    <glyph glyph-name="Dcaron" unicode="&#x10e;" horiz-adv-x="1202" 
d="M1059 676q0 -676 -555 -676h-289v1352h289q555 0 555 -676zM504 90q235 0 346 142t111 444q0 300 -111 443t-346 143h-197v-1172h197zM549 1540l188 162l117 -14l-252 -224h-108l-250 224l116 14z" />
    <glyph glyph-name="dcaron" unicode="&#x10f;" horiz-adv-x="1208" 
d="M750 1434h90v-1434h-90v233q-38 -126 -113 -191q-78 -67 -184 -67q-100 0 -178 64q-76 62 -118 180q-42 117 -42 273q0 155 42 272q42 118 118 180q78 64 178 64q107 0 184 -65q75 -63 113 -189v680zM677 173q73 117 73 319q0 201 -73 318q-72 116 -198 116
q-122 0 -196 -119t-74 -315q0 -197 74 -316t196 -119q126 0 198 116zM1020 1069q94 95 94 207q0 90 -49 158h98q45 -76 45 -154q0 -115 -100 -221z" />
    <glyph glyph-name="Dcroat" unicode="&#x110;" horiz-adv-x="1202" 
d="M1059 676q0 -676 -555 -676h-289v655h-158v82h158v615h289q555 0 555 -676zM504 90q235 0 346 142t111 444q0 300 -111 443t-346 143h-197v-525h293v-82h-293v-565h197z" />
    <glyph glyph-name="dcroat" unicode="&#x111;" horiz-adv-x="1024" 
d="M1008 1241v-82h-168v-1159h-90v233q-38 -126 -113 -191q-78 -67 -184 -67q-100 0 -178 64q-76 62 -118 180q-42 117 -42 273q0 155 42 272q42 118 118 180q78 64 178 64q107 0 184 -65q75 -63 113 -189v405h-285v82h285v193h90v-193h168zM677 173q73 117 73 319
q0 201 -73 318q-72 116 -198 116q-122 0 -196 -119t-74 -315q0 -197 74 -316t196 -119q126 0 198 116z" />
    <glyph glyph-name="Emacron" unicode="&#x112;" horiz-adv-x="1062" 
d="M920 1352v-90h-613v-523h545v-86h-545v-563h613v-90h-705v1352h705zM293 1518v81h549v-81h-549z" />
    <glyph glyph-name="emacron" unicode="&#x113;" horiz-adv-x="933" 
d="M209 483q1 -193 76 -310q74 -116 196 -116q103 0 169 81q67 82 67 206l96 -25q-1 -92 -46 -173q-42 -76 -119 -124q-76 -47 -167 -47q-168 0 -267 140q-99 139 -99 377q0 236 99 376t267 140q158 0 248 -114t90 -306q0 -50 -6 -105h-604zM719 561q8 170 -55 267
q-63 98 -183 98q-112 0 -184 -99q-71 -98 -86 -266h508zM238 1186v82h487v-82h-487z" />
    <glyph glyph-name="Ebreve" unicode="&#x114;" horiz-adv-x="1062" 
d="M920 1352v-90h-613v-523h545v-86h-545v-563h613v-90h-705v1352h705zM860 1694q-21 -224 -293 -224q-274 0 -295 224l95 10q8 -152 200 -152q193 0 201 152z" />
    <glyph glyph-name="ebreve" unicode="&#x115;" horiz-adv-x="933" 
d="M209 483q1 -193 76 -310q74 -116 196 -116q103 0 169 81q67 82 67 206l96 -25q-1 -92 -46 -173q-42 -76 -119 -124q-76 -47 -167 -47q-168 0 -267 140q-99 139 -99 377q0 236 99 376t267 140q158 0 248 -114t90 -306q0 -50 -6 -105h-604zM719 561q8 170 -55 267
q-63 98 -183 98q-112 0 -184 -99q-71 -98 -86 -266h508zM741 1384q-5 -123 -71 -191q-68 -69 -189 -69q-119 0 -189 68q-68 67 -73 192l94 13q-2 -91 42 -141t126 -50t126 50t42 139z" />
    <glyph glyph-name="Edotaccent" unicode="&#x116;" horiz-adv-x="1062" 
d="M920 1352v-90h-613v-523h545v-86h-545v-563h613v-90h-705v1352h705zM518 1686h96v-185h-96v185z" />
    <glyph glyph-name="edotaccent" unicode="&#x117;" horiz-adv-x="933" 
d="M209 483q1 -193 76 -310q74 -116 196 -116q103 0 169 81q67 82 67 206l96 -25q-1 -92 -46 -173q-42 -76 -119 -124q-76 -47 -167 -47q-168 0 -267 140q-99 139 -99 377q0 236 99 376t267 140q158 0 248 -114t90 -306q0 -50 -6 -105h-604zM719 561q8 170 -55 267
q-63 98 -183 98q-112 0 -184 -99q-71 -98 -86 -266h508zM432 1372h96v-205h-96v205z" />
    <glyph glyph-name="Eogonek" unicode="&#x118;" horiz-adv-x="1062" 
d="M920 1262h-613v-523h545v-86h-545v-563h613v-90q-93 -17 -144 -59q-53 -44 -53 -101q0 -41 27 -65q28 -25 73 -25q42 0 82 35l15 -88q-46 -29 -113 -29q-76 0 -125 42t-49 106q0 66 49 116q50 52 127 68h-594v1352h705v-90z" />
    <glyph glyph-name="eogonek" unicode="&#x119;" horiz-adv-x="933" 
d="M209 483q1 -193 76 -310q74 -116 196 -116q103 0 169 81q67 82 67 206l96 -25q-1 -89 -42 -166q-42 -79 -109 -124q-54 -39 -82 -84q-29 -47 -29 -92q0 -47 28 -75t74 -28q51 0 86 35l15 -88q-46 -29 -113 -29q-79 0 -129 43q-51 43 -51 111q0 95 98 162q-59 -9 -78 -9
q-168 0 -267 140q-99 139 -99 377q0 236 99 376t267 140q158 0 248 -114t90 -306q0 -50 -6 -105h-604zM719 561q8 170 -55 267q-63 98 -183 98q-112 0 -184 -99q-71 -98 -86 -266h508z" />
    <glyph glyph-name="Ecaron" unicode="&#x11a;" horiz-adv-x="1062" 
d="M920 1352v-90h-613v-523h545v-86h-545v-563h613v-90h-705v1352h705zM569 1540l189 162l116 -14l-251 -224h-109l-250 224l117 14z" />
    <glyph glyph-name="ecaron" unicode="&#x11b;" horiz-adv-x="933" 
d="M209 483q1 -193 76 -310q74 -116 196 -116q103 0 169 81q67 82 67 206l96 -25q-1 -92 -46 -173q-42 -76 -119 -124q-76 -47 -167 -47q-168 0 -267 140q-99 139 -99 377q0 236 99 376t267 140q158 0 248 -114t90 -306q0 -50 -6 -105h-604zM719 561q8 170 -55 267
q-63 98 -183 98q-112 0 -184 -99q-71 -98 -86 -266h508zM483 1200l170 191l103 -13l-224 -260h-100l-223 260l102 13z" />
    <glyph glyph-name="Gcircumflex" unicode="&#x11c;" horiz-adv-x="1226" 
d="M618 705h414v-705h-92v272q-62 -297 -319 -297q-144 0 -253 86q-107 85 -166 244t-59 371t59 371q59 158 166 243q109 86 250 86q166 0 274 -105t138 -296l-100 -25q-21 160 -102 250t-210 90q-111 0 -197 -77q-85 -77 -132 -216q-47 -141 -47 -321q0 -181 47 -322
q47 -140 132 -216q86 -77 197 -77q96 0 169 55t113 153t40 231v114h-322v91zM674 1702l252 -223l-117 -15l-188 162l-189 -162l-117 15l250 223h109z" />
    <glyph glyph-name="gcircumflex" unicode="&#x11d;" horiz-adv-x="897" 
d="M524 100q142 0 221 -70q80 -71 80 -196q0 -131 -89 -200q-87 -68 -257 -68q-169 0 -263 67q-95 68 -95 181q0 45 16 96l105 27q-21 -60 -21 -113q0 -86 65 -131q64 -45 191 -45q130 0 192 46t62 140q0 88 -53 136q-52 48 -154 48h-112q-114 0 -182 43t-68 113
q0 113 157 141q-90 34 -138 122q-48 87 -48 212q0 182 92 271q91 88 285 88q101 0 178 8q74 8 135 28l-18 -102q-65 -14 -234 -16q95 -24 140 -92t45 -185q0 -166 -83 -261t-229 -95q-101 0 -149 -23q-47 -23 -47 -73q0 -46 43 -71q44 -26 121 -26h112zM285 447
q57 -72 159 -72q103 0 160 72q58 73 58 202q0 128 -58 201q-57 71 -160 76q-100 0 -158 -75q-59 -76 -59 -202q0 -129 58 -202zM506 1391l223 -261l-102 -12l-170 191l-172 -191l-103 12l224 261h100z" />
    <glyph glyph-name="Gbreve" unicode="&#x11e;" horiz-adv-x="1226" 
d="M618 705h414v-705h-92v272q-62 -297 -319 -297q-144 0 -253 86q-107 85 -166 244t-59 371t59 371q59 158 166 243q109 86 250 86q166 0 274 -105t138 -296l-100 -25q-21 160 -102 250t-210 90q-111 0 -197 -77q-85 -77 -132 -216q-47 -141 -47 -321q0 -181 47 -322
q47 -140 132 -216q86 -77 197 -77q96 0 169 55t113 153t40 231v114h-322v91zM911 1694q-21 -224 -293 -224q-273 0 -294 224l94 10q8 -152 200 -152q193 0 201 152z" />
    <glyph glyph-name="gbreve" unicode="&#x11f;" horiz-adv-x="897" 
d="M524 100q142 0 221 -70q80 -71 80 -196q0 -131 -89 -200q-87 -68 -257 -68q-169 0 -263 67q-95 68 -95 181q0 45 16 96l105 27q-21 -60 -21 -113q0 -86 65 -131q64 -45 191 -45q130 0 192 46t62 140q0 88 -53 136q-52 48 -154 48h-112q-114 0 -182 43t-68 113
q0 113 157 141q-90 34 -138 122q-48 87 -48 212q0 182 92 271q91 88 285 88q101 0 178 8q74 8 135 28l-18 -102q-65 -14 -234 -16q95 -24 140 -92t45 -185q0 -166 -83 -261t-229 -95q-101 0 -149 -23q-47 -23 -47 -73q0 -46 43 -71q44 -26 121 -26h112zM285 447
q57 -72 159 -72q103 0 160 72q58 73 58 202q0 128 -58 201q-57 71 -160 76q-100 0 -158 -75q-59 -76 -59 -202q0 -129 58 -202zM715 1384q-4 -122 -72 -191q-67 -69 -188 -69q-120 0 -190 68q-67 66 -72 192l94 13q-2 -91 42 -141t126 -50t126 50t42 139z" />
    <glyph glyph-name="Gdotaccent" unicode="&#x120;" horiz-adv-x="1226" 
d="M618 705h414v-705h-92v272q-62 -297 -319 -297q-144 0 -253 86q-107 85 -166 244t-59 371t59 371q59 158 166 243q109 86 250 86q166 0 274 -105t138 -296l-100 -25q-21 160 -102 250t-210 90q-111 0 -197 -77q-85 -77 -132 -216q-47 -141 -47 -321q0 -181 47 -322
q47 -140 132 -216q86 -77 197 -77q96 0 169 55t113 153t40 231v114h-322v91zM569 1686h97v-185h-97v185z" />
    <glyph glyph-name="gdotaccent" unicode="&#x121;" horiz-adv-x="897" 
d="M524 100q142 0 221 -70q80 -71 80 -196q0 -131 -89 -200q-87 -68 -257 -68q-169 0 -263 67q-95 68 -95 181q0 45 16 96l105 27q-21 -60 -21 -113q0 -86 65 -131q64 -45 191 -45q130 0 192 46t62 140q0 88 -53 136q-52 48 -154 48h-112q-114 0 -182 43t-68 113
q0 113 157 141q-90 34 -138 122q-48 87 -48 212q0 182 92 271q91 88 285 88q101 0 178 8q74 8 135 28l-18 -102q-65 -14 -234 -16q95 -24 140 -92t45 -185q0 -166 -83 -261t-229 -95q-101 0 -149 -23q-47 -23 -47 -73q0 -46 43 -71q44 -26 121 -26h112zM285 447
q57 -72 159 -72q103 0 160 72q58 73 58 202q0 128 -58 201q-57 71 -160 76q-100 0 -158 -75q-59 -76 -59 -202q0 -129 58 -202zM406 1372h96v-205h-96v205z" />
    <glyph glyph-name="uni0122" unicode="&#x122;" horiz-adv-x="1226" 
d="M618 705h414v-705h-92v272q-62 -297 -319 -297q-144 0 -253 86q-107 85 -166 244t-59 371t59 371q59 158 166 243q109 86 250 86q166 0 274 -105t138 -296l-100 -25q-21 160 -102 250t-210 90q-111 0 -197 -77q-85 -77 -132 -216q-47 -141 -47 -321q0 -181 47 -322
q47 -140 132 -216q86 -77 197 -77q96 0 169 55t113 153t40 231v114h-322v91zM547 -389q61 73 61 143q0 64 -43 123h94q35 -53 35 -117q0 -88 -63 -161z" />
    <glyph glyph-name="uni0123" unicode="&#x123;" horiz-adv-x="897" 
d="M524 100q142 0 221 -70q80 -71 80 -196q0 -131 -89 -200q-87 -68 -257 -68q-169 0 -263 67q-95 68 -95 181q0 45 16 96l105 27q-21 -60 -21 -113q0 -86 65 -131q64 -45 191 -45q130 0 192 46t62 140q0 88 -53 136q-52 48 -154 48h-112q-114 0 -182 43t-68 113
q0 113 157 141q-90 34 -138 122q-48 87 -48 212q0 182 92 271q91 88 285 88q101 0 178 8q74 8 135 28l-18 -102q-65 -14 -234 -16q95 -24 140 -92t45 -185q0 -166 -83 -261t-229 -95q-101 0 -149 -23q-47 -23 -47 -73q0 -46 43 -71q44 -26 121 -26h112zM285 447
q57 -72 159 -72q103 0 160 72q58 73 58 202q0 128 -58 201q-57 71 -160 76q-100 0 -158 -75q-59 -76 -59 -202q0 -129 58 -202zM412 1116q-35 53 -35 117q0 98 76 192l84 -12q-74 -92 -74 -174q0 -64 43 -123h-94z" />
    <glyph glyph-name="Hcircumflex" unicode="&#x124;" horiz-adv-x="1257" 
d="M950 721v631h92v-1352h-92v631h-643v-631h-92v1352h92v-631h643zM684 1702l252 -223l-117 -15l-188 162l-189 -162l-116 15l249 223h109z" />
    <glyph glyph-name="hcircumflex" unicode="&#x125;" horiz-adv-x="987" 
d="M748 909q75 -97 75 -272v-637h-90v637q0 139 -60 214t-169 75q-108 0 -168 -75t-60 -214v-637h-90v1434h90v-613q33 89 100 138t161 49q135 0 211 -99zM287 1784l252 -223l-117 -15l-189 162l-188 -162l-117 15l250 223h109z" />
    <glyph glyph-name="Hbar" unicode="&#x126;" horiz-adv-x="1292" 
d="M1040 1063h170v-82h-170v-981h-92v631h-643v-631h-92v981h-131v82h131v289h92v-289h643v289h92v-289zM305 721h643v260h-643v-260z" />
    <glyph glyph-name="hbar" unicode="&#x127;" horiz-adv-x="985" 
d="M745 909q76 -98 76 -272v-637h-90v637q0 139 -60 214t-169 75q-108 0 -168 -75t-60 -214v-637h-90v1159h-168v82h168v193h90v-193h285v-82h-285v-338q33 89 100 138t161 49q133 0 210 -99z" />
    <glyph glyph-name="Itilde" unicode="&#x128;" horiz-adv-x="522" 
d="M307 0h-92v1352h92v-1352zM-74 1489q6 194 180 194q42 0 82 -18q37 -17 109 -66q44 -31 71 -43q23 -10 52 -10q47 0 68 32t20 99l90 -14q-6 -199 -180 -199q-38 0 -79 18q-45 20 -112 66q-54 36 -73 44q-25 10 -50 10q-46 0 -67 -30t-21 -97z" />
    <glyph glyph-name="itilde" unicode="&#x129;" horiz-adv-x="466" 
d="M188 983h91v-983h-91v983zM-63 1143q1 104 47 162q45 57 125 57q43 0 76 -19t79 -71q32 -36 54 -53q20 -15 38 -15q80 0 78 152l90 -15q-1 -104 -45 -161q-44 -58 -121 -58q-49 0 -79 18q-34 20 -82 74q-33 37 -54 53q-17 13 -41 13q-77 0 -75 -152z" />
    <glyph glyph-name="Imacron" unicode="&#x12a;" horiz-adv-x="522" 
d="M307 0h-92v1352h92v-1352zM-10 1518v81h549v-81h-549z" />
    <glyph glyph-name="imacron" unicode="&#x12b;" horiz-adv-x="466" 
d="M188 983h91v-983h-91v983zM-209 1186v82h488v-82h-488z" />
    <glyph glyph-name="Ibreve" unicode="&#x12c;" horiz-adv-x="522" 
d="M307 0h-92v1352h92v-1352zM557 1694q-21 -224 -293 -224q-274 0 -295 224l94 10q8 -152 201 -152t201 152z" />
    <glyph glyph-name="ibreve" unicode="&#x12d;" horiz-adv-x="466" 
d="M188 983h91v-983h-91v983zM494 1384q-4 -122 -72 -191t-189 -69q-119 0 -189 68q-68 67 -73 192l95 13q-2 -91 42 -141t125 -50q82 0 126 50t42 139z" />
    <glyph glyph-name="Iogonek" unicode="&#x12e;" horiz-adv-x="522" 
d="M307 0q-92 -17 -143 -59q-53 -44 -53 -101q0 -42 26 -65q28 -25 74 -25q42 0 82 35l14 -88q-46 -29 -112 -29q-75 0 -125 42t-50 106q0 70 56 123t139 65v1348h92v-1352z" />
    <glyph glyph-name="iogonek" unicode="&#x12f;" horiz-adv-x="466" 
d="M184 1167v205h97v-205h-97zM188 983h91v-983q-93 -17 -144 -59q-53 -44 -53 -101q0 -41 27 -65q28 -25 73 -25q42 0 82 35l15 -88q-46 -29 -113 -29q-76 0 -125 42t-49 106q0 71 56 123q58 53 140 65v979z" />
    <glyph glyph-name="Idotaccent" unicode="&#x130;" horiz-adv-x="522" 
d="M307 0h-92v1352h92v-1352zM215 1686h96v-185h-96v185z" />
    <glyph glyph-name="dotlessi" unicode="&#x131;" horiz-adv-x="466" 
d="M188 983h91v-983h-91v983z" />
    <glyph glyph-name="IJ" unicode="&#x132;" horiz-adv-x="1126" 
d="M207 434l104 25q-28 -72 -28 -131q0 -122 73 -194q75 -73 197 -73q136 0 215 91q78 90 78 247v953h92v-953q0 -197 -101 -310q-102 -114 -276 -114q-106 0 -191 43t-133 120q-49 78 -49 171q0 59 19 125zM289 659h-92v693h92v-693z" />
    <glyph glyph-name="ij" unicode="&#x133;" horiz-adv-x="925" 
d="M184 1372h95v-205h-95v205zM186 983h90v-983h-90v983zM647 1372h94v-205h-94v205zM381 -303q33 -4 51 -4q104 0 161 67q56 66 56 193v1030h90v-1051q0 -159 -86 -248q-86 -90 -252 -94z" />
    <glyph glyph-name="Jcircumflex" unicode="&#x134;" horiz-adv-x="1028" 
d="M109 434l104 25q-29 -75 -29 -131q0 -122 74 -194q75 -73 197 -73q136 0 215 91q78 90 78 247v953h92v-953q0 -196 -102 -310t-275 -114q-107 0 -192 43t-133 120q-48 76 -48 171q0 59 19 125zM848 1702l252 -223l-117 -15l-188 162l-189 -162l-117 15l250 223h109z" />
    <glyph glyph-name="jcircumflex" unicode="&#x135;" horiz-adv-x="462" 
d="M-82 -303q33 -4 51 -4q104 0 161 67q56 66 56 193v1030h90v-1051q0 -159 -86 -248q-87 -90 -251 -94zM283 1391l223 -261l-103 -12l-170 191l-172 -191l-102 12l223 261h101z" />
    <glyph glyph-name="uni0136" unicode="&#x136;" horiz-adv-x="1067" 
d="M1024 0h-111l-467 672l-139 -172v-500h-92v1352h92v-705l574 705h118l-491 -607zM537 -389q61 73 61 143q0 64 -43 123h94q35 -53 35 -117q0 -88 -63 -161z" />
    <glyph glyph-name="uni0137" unicode="&#x137;" horiz-adv-x="903" 
d="M881 0h-109l-358 492l-138 -154v-338h-90v1434h90v-967l463 516h117l-383 -426zM446 -389q62 74 62 143q0 64 -43 123h94q35 -53 35 -117q0 -86 -64 -161z" />
    <glyph glyph-name="kgreenlandic" unicode="&#x138;" horiz-adv-x="903" 
d="M881 0h-109l-358 492l-138 -154v-338h-90v983h90v-516l463 516h117l-383 -426z" />
    <glyph glyph-name="Lacute" unicode="&#x139;" horiz-adv-x="958" 
d="M307 1352v-1262h604v-90h-696v1352h92zM270 1464l-114 15l258 229l129 -16z" />
    <glyph glyph-name="lacute" unicode="&#x13a;" horiz-adv-x="462" 
d="M276 0h-90v1434h90v-1434zM242 1546l-115 15l258 229l129 -16z" />
    <glyph glyph-name="uni013B" unicode="&#x13b;" horiz-adv-x="958" 
d="M307 1352v-1262h604v-90h-696v1352h92zM446 -389q62 74 62 143q0 64 -43 123h94q35 -53 35 -117q0 -86 -64 -161z" />
    <glyph glyph-name="uni013C" unicode="&#x13c;" horiz-adv-x="462" 
d="M276 0h-90v1434h90v-1434zM156 -389q61 73 61 143q0 64 -43 123h94q35 -53 35 -117q0 -88 -63 -161z" />
    <glyph glyph-name="Lcaron" unicode="&#x13d;" horiz-adv-x="958" 
d="M307 1352v-1262h604v-90h-696v1352h92zM655 987q95 97 95 207q0 88 -50 158h99q45 -76 45 -154q0 -114 -101 -221z" />
    <glyph glyph-name="lcaron" unicode="&#x13e;" horiz-adv-x="638" 
d="M276 0h-90v1434h90v-1434zM451 1069q94 95 94 207q0 90 -49 158h98q45 -76 45 -154q0 -115 -100 -221z" />
    <glyph glyph-name="Ldot" unicode="&#x13f;" horiz-adv-x="958" 
d="M307 1352v-1262h604v-90h-696v1352h92zM719 778h98v-205h-98v205z" />
    <glyph glyph-name="ldot" unicode="&#x140;" horiz-adv-x="561" 
d="M276 0h-90v1434h90v-1434zM459 778h98v-205h-98v205z" />
    <glyph glyph-name="Lslash" unicode="&#x141;" horiz-adv-x="1030" 
d="M379 674v-584h604v-90h-696v635l-230 -103v91l230 102v627h92v-588l369 162v-90z" />
    <glyph glyph-name="lslash" unicode="&#x142;" horiz-adv-x="577" 
d="M334 786l221 97v-90l-221 -97v-696h-90v655l-221 -98v90l221 98v689h90v-648z" />
    <glyph glyph-name="Nacute" unicode="&#x143;" horiz-adv-x="1251" 
d="M944 106v1246h92v-1352h-143l-586 1245v-1245h-92v1352h143zM637 1464l-115 15l258 229l129 -16z" />
    <glyph glyph-name="nacute" unicode="&#x144;" horiz-adv-x="987" 
d="M748 909q75 -97 75 -272v-637h-90v637q0 139 -60 214t-169 75q-108 0 -168 -75t-60 -214v-637h-90v983h90v-162q33 89 100 138t161 49q135 0 211 -99zM514 1116l-100 12l227 265l115 -15z" />
    <glyph glyph-name="uni0145" unicode="&#x145;" horiz-adv-x="1251" 
d="M944 106v1246h92v-1352h-143l-586 1245v-1245h-92v1352h143zM553 -389q61 73 61 143q0 64 -43 123h95q34 -52 34 -117q0 -88 -63 -161z" />
    <glyph glyph-name="uni0146" unicode="&#x146;" horiz-adv-x="987" 
d="M748 909q75 -97 75 -272v-637h-90v637q0 139 -60 214t-169 75q-108 0 -168 -75t-60 -214v-637h-90v983h90v-162q33 89 100 138t161 49q135 0 211 -99zM432 -389q62 74 62 143q0 64 -43 123h94q35 -53 35 -117q0 -86 -64 -161z" />
    <glyph glyph-name="Ncaron" unicode="&#x147;" horiz-adv-x="1251" 
d="M944 106v1246h92v-1352h-143l-586 1245v-1245h-92v1352h143zM629 1540l188 162l117 -14l-252 -224h-109l-249 224l116 14z" />
    <glyph glyph-name="ncaron" unicode="&#x148;" horiz-adv-x="987" 
d="M748 909q75 -97 75 -272v-637h-90v637q0 139 -60 214t-169 75q-108 0 -168 -75t-60 -214v-637h-90v983h90v-162q33 89 100 138t161 49q135 0 211 -99zM508 1200l170 191l102 -13l-223 -260h-100l-224 260l103 13z" />
    <glyph glyph-name="Eng" unicode="&#x14a;" horiz-adv-x="1251" 
d="M944 1352h92v-1420q0 -159 -87 -248q-88 -90 -253 -94l-20 107q33 -4 51 -4q104 0 161 67q56 66 56 193v47h-51l-586 1245v-1245h-92v1352h143l586 -1243v1243z" />
    <glyph glyph-name="eng" unicode="&#x14b;" horiz-adv-x="987" 
d="M748 909q75 -97 75 -272v-705q0 -159 -86 -248q-86 -90 -252 -94l-20 107q33 -4 51 -4q104 0 161 67q56 66 56 193v684q0 139 -60 214t-169 75q-108 0 -168 -75t-60 -214v-637h-90v983h90v-162q33 89 100 138t161 49q135 0 211 -99z" />
    <glyph glyph-name="Omacron" unicode="&#x14c;" horiz-adv-x="1236" 
d="M368 61q-107 85 -166 245t-59 370t59 370q58 159 166 244q109 86 250 86q142 0 251 -86q108 -85 166 -244q59 -160 59 -370t-59 -370t-166 -245q-109 -86 -251 -86q-141 0 -250 86zM816 138q86 76 132 216q47 141 47 322q0 180 -47 321q-46 139 -132 216t-198 77
q-111 0 -197 -77q-85 -77 -132 -216q-47 -141 -47 -321q0 -181 47 -322q47 -140 132 -216q86 -77 197 -77q112 0 198 77zM342 1518v81h549v-81h-549z" />
    <glyph glyph-name="omacron" unicode="&#x14d;" horiz-adv-x="962" 
d="M214 115q-99 139 -99 377q0 236 99 376t267 140q169 0 268 -140t99 -376q0 -238 -99 -377q-99 -140 -268 -140q-168 0 -267 140zM680 176q74 119 74 316q0 196 -74 315t-199 119q-124 0 -198 -119t-74 -315q0 -197 74 -316t198 -119q125 0 199 119zM238 1186v82h487v-82
h-487z" />
    <glyph glyph-name="Obreve" unicode="&#x14e;" horiz-adv-x="1236" 
d="M368 61q-107 85 -166 245t-59 370t59 370q58 159 166 244q109 86 250 86q142 0 251 -86q108 -85 166 -244q59 -160 59 -370t-59 -370t-166 -245q-109 -86 -251 -86q-141 0 -250 86zM816 138q86 76 132 216q47 141 47 322q0 180 -47 321q-46 139 -132 216t-198 77
q-111 0 -197 -77q-85 -77 -132 -216q-47 -141 -47 -321q0 -181 47 -322q47 -140 132 -216q86 -77 197 -77q112 0 198 77zM909 1694q-21 -224 -293 -224q-273 0 -294 224l94 10q8 -152 200 -152q193 0 201 152z" />
    <glyph glyph-name="obreve" unicode="&#x14f;" horiz-adv-x="962" 
d="M214 115q-99 139 -99 377q0 236 99 376t267 140q169 0 268 -140t99 -376q0 -238 -99 -377q-99 -140 -268 -140q-168 0 -267 140zM680 176q74 119 74 316q0 196 -74 315t-199 119q-124 0 -198 -119t-74 -315q0 -197 74 -316t198 -119q125 0 199 119zM741 1384
q-5 -123 -71 -191q-68 -69 -189 -69q-119 0 -189 68q-68 67 -73 192l94 13q-2 -91 42 -141t126 -50t126 50t42 139z" />
    <glyph glyph-name="Ohungarumlaut" unicode="&#x150;" horiz-adv-x="1236" 
d="M368 61q-107 85 -166 245t-59 370t59 370q58 159 166 244q109 86 250 86q142 0 251 -86q108 -85 166 -244q59 -160 59 -370t-59 -370t-166 -245q-109 -86 -251 -86q-141 0 -250 86zM816 138q86 76 132 216q47 141 47 322q0 180 -47 321q-46 139 -132 216t-198 77
q-111 0 -197 -77q-85 -77 -132 -216q-47 -141 -47 -321q0 -181 47 -322q47 -140 132 -216q86 -77 197 -77q112 0 198 77zM471 1464l-115 15l258 229l129 -16zM799 1464l-115 15l258 229l129 -16z" />
    <glyph glyph-name="ohungarumlaut" unicode="&#x151;" horiz-adv-x="962" 
d="M214 115q-99 139 -99 377q0 236 99 376t267 140q169 0 268 -140t99 -376q0 -238 -99 -377q-99 -140 -268 -140q-168 0 -267 140zM680 176q74 119 74 316q0 196 -74 315t-199 119q-124 0 -198 -119t-74 -315q0 -197 74 -316t198 -119q125 0 199 119zM352 1116l-100 12
l227 265l115 -15zM645 1116l-100 12l227 265l115 -15z" />
    <glyph glyph-name="OE" unicode="&#x152;" horiz-adv-x="1781" 
d="M1638 1352v-90h-737q83 -82 133 -216q51 -136 58 -307h479v-86h-477q-1 -179 -53 -331q-50 -146 -140 -232h737v-90h-878q-69 -25 -142 -25q-141 0 -250 86q-107 85 -166 245t-59 370t59 370q58 159 166 244q109 86 250 86q76 0 142 -24h878zM948 997q-46 139 -132 216
t-198 77q-111 0 -197 -77q-85 -77 -132 -216q-47 -141 -47 -321q0 -181 47 -322q47 -140 132 -216q86 -77 197 -77q112 0 198 77q86 76 132 216q47 141 47 322q0 180 -47 321z" />
    <glyph glyph-name="oe" unicode="&#x153;" horiz-adv-x="1572" 
d="M848 483q1 -193 76 -310q74 -116 196 -116q104 0 170 82q66 83 66 205l96 -25q-1 -94 -46 -175q-43 -79 -120 -124q-76 -45 -166 -45q-118 0 -201 74t-118 211q-35 -137 -118 -211t-202 -74q-168 0 -267 140q-99 139 -99 377q0 236 99 376t267 140q119 0 202 -74
t118 -211q35 137 118 211t201 74q158 0 248 -114t90 -306q0 -50 -6 -105h-604zM680 175q74 119 74 317q0 197 -74 316q-73 118 -199 118q-125 0 -198 -118q-74 -119 -74 -316q0 -198 74 -317q73 -118 198 -118q126 0 199 118zM1358 561q8 170 -55 267q-63 98 -183 98
q-112 0 -184 -99q-71 -98 -86 -266h508z" />
    <glyph glyph-name="Racute" unicode="&#x154;" horiz-adv-x="1153" 
d="M968 137q15 -80 31 -137h-102q-25 92 -59 344q-12 83 -37 132q-24 46 -74 66q-48 19 -137 19h-283v-561h-92v1352h328q209 0 317 -94q107 -93 107 -275q0 -315 -269 -342q109 -17 162 -80q54 -65 72 -194q23 -158 36 -230zM307 1262v-615h238q174 0 249 72q74 71 74 237
q0 165 -74 235q-76 71 -249 71h-238zM567 1464l-114 15l258 229l129 -16z" />
    <glyph glyph-name="racute" unicode="&#x155;" horiz-adv-x="788" 
d="M691 929q65 -80 65 -204q0 -60 -15 -117l-104 -26q18 74 18 135q0 95 -42 152t-119 57q-102 0 -159 -91q-57 -92 -59 -262v-573h-90v983h90v-186q29 100 93 156q63 55 149 55q109 0 173 -79zM502 1116l-101 12l228 265l114 -15z" />
    <glyph glyph-name="uni0156" unicode="&#x156;" horiz-adv-x="1153" 
d="M968 137q15 -80 31 -137h-102q-25 92 -59 344q-12 83 -37 132q-24 46 -74 66q-48 19 -137 19h-283v-561h-92v1352h328q209 0 317 -94q107 -93 107 -275q0 -315 -269 -342q109 -17 162 -80q54 -65 72 -194q23 -158 36 -230zM307 1262v-615h238q174 0 249 72q74 71 74 237
q0 165 -74 235q-76 71 -249 71h-238zM530 -389q62 74 62 143q0 64 -43 123h94q35 -53 35 -117q0 -86 -64 -161z" />
    <glyph glyph-name="uni0157" unicode="&#x157;" horiz-adv-x="788" 
d="M691 929q65 -80 65 -204q0 -60 -15 -117l-104 -26q18 74 18 135q0 95 -42 152t-119 57q-102 0 -159 -91q-57 -92 -59 -262v-573h-90v983h90v-186q29 100 93 156q63 55 149 55q109 0 173 -79zM158 -389q61 73 61 143q0 64 -43 123h94q35 -53 35 -117q0 -88 -63 -161z" />
    <glyph glyph-name="Rcaron" unicode="&#x158;" horiz-adv-x="1153" 
d="M968 137q15 -80 31 -137h-102q-25 92 -59 344q-12 83 -37 132q-24 46 -74 66q-48 19 -137 19h-283v-561h-92v1352h328q209 0 317 -94q107 -93 107 -275q0 -315 -269 -342q109 -17 162 -80q54 -65 72 -194q23 -158 36 -230zM307 1262v-615h238q174 0 249 72q74 71 74 237
q0 165 -74 235q-76 71 -249 71h-238zM559 1540l189 162l116 -14l-252 -224h-108l-250 224l117 14z" />
    <glyph glyph-name="rcaron" unicode="&#x159;" horiz-adv-x="788" 
d="M691 929q65 -80 65 -204q0 -60 -15 -117l-104 -26q18 74 18 135q0 95 -42 152t-119 57q-102 0 -159 -91q-57 -92 -59 -262v-573h-90v983h90v-186q29 100 93 156q63 55 149 55q109 0 173 -79zM496 1200l170 191l102 -13l-223 -260h-101l-223 260l103 13z" />
    <glyph glyph-name="Sacute" unicode="&#x15a;" horiz-adv-x="1060" 
d="M225 399q-2 -160 80 -249q83 -91 230 -91q135 0 218 71t83 185q0 73 -29 126q-29 54 -100 104q-74 53 -207 119q-182 90 -255 179q-73 90 -73 220q0 87 47 160q46 71 130 112t186 41q168 0 266 -110q99 -110 94 -289l-98 -27q10 155 -61 248q-71 92 -201 92
q-115 0 -190 -63t-75 -164q0 -69 29 -121q28 -49 95 -100q62 -47 190 -109q138 -68 210 -125q74 -59 107 -128t33 -165q0 -97 -50 -176q-50 -78 -142 -122q-93 -44 -207 -44q-184 0 -295 111q-112 112 -113 291zM545 1464l-115 15l258 229l129 -16z" />
    <glyph glyph-name="sacute" unicode="&#x15b;" horiz-adv-x="860" 
d="M201 340q-4 -36 -4 -55q0 -105 62 -167q63 -63 171 -63q101 0 162 46t61 122q0 51 -21 87q-21 35 -75 71q-56 37 -158 82q-148 68 -204 133q-58 67 -58 168q0 108 81 176q82 68 212 68q136 0 215 -87q80 -87 72 -223l-94 -24q4 25 4 45q0 86 -56 147q-55 60 -141 60
q-89 0 -144 -44t-55 -118q0 -67 51 -116q47 -46 177 -107q110 -49 176 -96q61 -43 87 -96q26 -54 26 -126q0 -110 -90 -180t-228 -70q-159 0 -246 93q-86 92 -75 249zM438 1116l-100 12l227 265l115 -15z" />
    <glyph glyph-name="Scircumflex" unicode="&#x15c;" horiz-adv-x="1060" 
d="M225 399q-2 -160 80 -249q83 -91 230 -91q135 0 218 71t83 185q0 73 -29 126q-29 54 -100 104q-74 53 -207 119q-182 90 -255 179q-73 90 -73 220q0 87 47 160q46 71 130 112t186 41q168 0 266 -110q99 -110 94 -289l-98 -27q10 155 -61 248q-71 92 -201 92
q-115 0 -190 -63t-75 -164q0 -69 29 -121q28 -49 95 -100q62 -47 190 -109q138 -68 210 -125q74 -59 107 -128t33 -165q0 -97 -50 -176q-50 -78 -142 -122q-93 -44 -207 -44q-184 0 -295 111q-112 112 -113 291zM590 1702l252 -223l-117 -15l-188 162l-189 -162l-117 15
l250 223h109z" />
    <glyph glyph-name="scircumflex" unicode="&#x15d;" horiz-adv-x="860" 
d="M201 340q-4 -36 -4 -55q0 -105 62 -167q63 -63 171 -63q101 0 162 46t61 122q0 51 -21 87q-21 35 -75 71q-56 37 -158 82q-148 68 -204 133q-58 67 -58 168q0 108 81 176q82 68 212 68q136 0 215 -87q80 -87 72 -223l-94 -24q4 25 4 45q0 86 -56 147q-55 60 -141 60
q-89 0 -144 -44t-55 -118q0 -67 51 -116q47 -46 177 -107q110 -49 176 -96q61 -43 87 -96q26 -54 26 -126q0 -110 -90 -180t-228 -70q-159 0 -246 93q-86 92 -75 249zM481 1391l224 -261l-103 -12l-170 191l-172 -191l-102 12l223 261h100z" />
    <glyph glyph-name="Scedilla" unicode="&#x15e;" horiz-adv-x="1060" 
d="M836 81q-100 -94 -258 -106l-15 -81q58 -7 93 -38q34 -30 34 -71q0 -51 -47 -84t-125 -33q-73 0 -125 29l17 94q53 -41 108 -41q37 0 57 14q21 15 21 41q0 31 -33 55q-32 24 -92 34l14 81q-161 15 -259 123q-97 108 -99 277l98 24q-2 -160 80 -249q83 -91 230 -91
q135 0 218 71t83 185q0 73 -29 126q-29 54 -100 104q-74 53 -207 119q-182 90 -255 179q-73 90 -73 220q0 87 47 160q46 71 130 112t186 41q168 0 266 -110q99 -110 94 -289l-98 -27q10 155 -61 248q-71 92 -201 92q-115 0 -190 -63t-75 -164q0 -69 29 -121q28 -49 95 -100
q62 -47 190 -109q138 -68 210 -125q74 -59 107 -128t33 -165q0 -142 -98 -234z" />
    <glyph glyph-name="scedilla" unicode="&#x15f;" horiz-adv-x="860" 
d="M672 54q-76 -68 -199 -79l-14 -81q58 -7 93 -38q34 -30 34 -71q0 -51 -47 -84t-125 -33q-73 0 -125 29l16 94q53 -41 109 -41q37 0 57 14q21 15 21 41q0 31 -33 55q-32 24 -92 34l14 81q-137 17 -209 107q-71 88 -63 233l92 25q-4 -36 -4 -55q0 -105 62 -167
q63 -63 171 -63q101 0 162 46t61 122q0 51 -21 87q-21 35 -75 71q-56 37 -158 82q-148 68 -204 133q-58 67 -58 168q0 108 81 176q82 68 212 68q136 0 215 -87q80 -87 72 -223l-94 -24q4 25 4 45q0 86 -56 147q-55 60 -141 60q-89 0 -144 -44t-55 -118q0 -67 51 -116
q47 -46 177 -107q110 -49 176 -96q61 -43 87 -96q26 -54 26 -126q0 -100 -76 -169z" />
    <glyph glyph-name="Scaron" unicode="&#x160;" horiz-adv-x="1060" 
d="M225 399q-2 -160 80 -249q83 -91 230 -91q135 0 218 71t83 185q0 73 -29 126q-29 54 -100 104q-74 53 -207 119q-182 90 -255 179q-73 90 -73 220q0 87 47 160q46 71 130 112t186 41q168 0 266 -110q99 -110 94 -289l-98 -27q10 155 -61 248q-71 92 -201 92
q-115 0 -190 -63t-75 -164q0 -69 29 -121q28 -49 95 -100q62 -47 190 -109q138 -68 210 -125q74 -59 107 -128t33 -165q0 -97 -50 -176q-50 -78 -142 -122q-93 -44 -207 -44q-184 0 -295 111q-112 112 -113 291zM537 1540l188 162l117 -14l-252 -224h-109l-250 224l117 14z
" />
    <glyph glyph-name="scaron" unicode="&#x161;" horiz-adv-x="860" 
d="M201 340q-4 -36 -4 -55q0 -105 62 -167q63 -63 171 -63q101 0 162 46t61 122q0 51 -21 87q-21 35 -75 71q-56 37 -158 82q-148 68 -204 133q-58 67 -58 168q0 108 81 176q82 68 212 68q136 0 215 -87q80 -87 72 -223l-94 -24q4 25 4 45q0 86 -56 147q-55 60 -141 60
q-89 0 -144 -44t-55 -118q0 -67 51 -116q47 -46 177 -107q110 -49 176 -96q61 -43 87 -96q26 -54 26 -126q0 -110 -90 -180t-228 -70q-159 0 -246 93q-86 92 -75 249zM432 1200l170 191l103 -13l-224 -260h-100l-223 260l102 13z" />
    <glyph glyph-name="uni0162" unicode="&#x162;" horiz-adv-x="976" 
d="M70 1352h837v-90h-372v-1262h-93v1262h-372v90zM516 -106q58 -7 93 -38q34 -30 34 -71q0 -51 -47 -84q-46 -33 -125 -33q-73 0 -125 29l16 94q53 -41 109 -41q37 0 57 14q21 15 21 41q0 31 -33 55q-32 24 -92 34l18 106h93z" />
    <glyph glyph-name="uni0163" unicode="&#x163;" horiz-adv-x="677" 
d="M442 -106q59 -7 94 -38q33 -29 33 -71q0 -51 -47 -84q-46 -33 -125 -33q-73 0 -125 29l17 94q53 -41 108 -41q38 0 58 14t20 41q0 31 -33 55q-31 22 -92 33l17 97q-58 21 -87 71q-30 51 -30 132v712h-227v78h57q108 0 150 36t42 130v135h86v-135q0 -78 -23 -114
q-24 -37 -85 -52h354v-78h-264v-712q0 -65 31 -101q30 -35 88 -35q41 0 81 15t64 39l17 -91q-67 -45 -164 -45z" />
    <glyph glyph-name="Tcaron" unicode="&#x164;" horiz-adv-x="976" 
d="M70 1352h837v-90h-372v-1262h-93v1262h-372v90zM492 1540l188 162l117 -14l-252 -224h-109l-250 224l117 14z" />
    <glyph glyph-name="tcaron" unicode="&#x165;" horiz-adv-x="653" 
d="M621 20q-67 -45 -166 -45q-100 0 -153 56q-52 55 -52 162v712h-227v78h57q108 0 150 36t42 130v135h86v-135q0 -78 -23 -114q-24 -37 -85 -52h354v-78h-264v-712q0 -65 31 -101q30 -35 88 -35q41 0 81 15t64 39zM475 1130q94 95 94 207q0 90 -49 158h98q46 -78 46 -154
q0 -114 -101 -221z" />
    <glyph glyph-name="Tbar" unicode="&#x166;" horiz-adv-x="976" 
d="M907 1352v-90h-372v-543h270v-82h-270v-637h-93v637h-258v82h258v543h-372v90h837z" />
    <glyph glyph-name="tbar" unicode="&#x167;" horiz-adv-x="677" 
d="M621 20q-67 -45 -166 -45q-100 0 -153 56q-52 55 -52 162v321h-227v82h227v309h-227v78h57q108 0 150 36t42 130v135h86v-135q0 -78 -23 -114q-24 -37 -85 -52h354v-78h-264v-309h264v-82h-264v-321q0 -65 31 -101q30 -35 88 -35q41 0 81 15t64 39z" />
    <glyph glyph-name="Utilde" unicode="&#x168;" horiz-adv-x="1196" 
d="M188 1352h93v-932q0 -168 84 -263q85 -96 233 -96t233 96q84 95 84 263v932h93v-932q0 -207 -110 -326t-300 -119t-300 119t-110 326v932zM260 1489q6 194 180 194q42 0 82 -18q37 -17 109 -66q45 -32 70 -43q23 -10 53 -10q47 0 68 32t20 99l90 -14q-6 -199 -180 -199
q-38 0 -79 18q-45 20 -112 66q-52 35 -74 44q-25 10 -49 10q-46 0 -67 -30t-21 -97z" />
    <glyph glyph-name="utilde" unicode="&#x169;" horiz-adv-x="966" 
d="M690 983h90v-983h-90v160q-33 -88 -96 -136q-64 -49 -154 -49q-128 0 -202 99q-74 100 -74 272v637h90v-637q0 -142 57 -215q57 -74 162 -74q104 0 161 74q56 72 56 215v637zM176 1143q1 104 47 162q45 57 125 57q44 0 77 -19t79 -71q32 -36 54 -53q20 -15 38 -15
q80 0 78 152l90 -15q-1 -104 -45 -161q-44 -58 -121 -58q-50 0 -80 18q-34 20 -82 74q-35 39 -53 53q-17 13 -41 13q-78 0 -76 -152z" />
    <glyph glyph-name="Umacron" unicode="&#x16a;" horiz-adv-x="1196" 
d="M188 1352h93v-932q0 -168 84 -263q85 -96 233 -96t233 96q84 95 84 263v932h93v-932q0 -207 -110 -326t-300 -119t-300 119t-110 326v932zM324 1518v81h548v-81h-548z" />
    <glyph glyph-name="umacron" unicode="&#x16b;" horiz-adv-x="966" 
d="M690 983h90v-983h-90v160q-33 -88 -96 -136q-64 -49 -154 -49q-128 0 -202 99q-74 100 -74 272v637h90v-637q0 -142 57 -215q57 -74 162 -74q104 0 161 74q56 72 56 215v637zM229 1186v82h488v-82h-488z" />
    <glyph glyph-name="Ubreve" unicode="&#x16c;" horiz-adv-x="1196" 
d="M188 1352h93v-932q0 -168 84 -263q85 -96 233 -96t233 96q84 95 84 263v932h93v-932q0 -207 -110 -326t-300 -119t-300 119t-110 326v932zM891 1694q-21 -224 -293 -224q-274 0 -295 224l94 10q8 -152 201 -152t201 152z" />
    <glyph glyph-name="ubreve" unicode="&#x16d;" horiz-adv-x="966" 
d="M690 983h90v-983h-90v160q-33 -88 -96 -136q-64 -49 -154 -49q-128 0 -202 99q-74 100 -74 272v637h90v-637q0 -142 57 -215q57 -74 162 -74q104 0 161 74q56 72 56 215v637zM733 1384q-5 -123 -71 -191q-68 -69 -189 -69q-119 0 -189 68q-68 67 -73 192l94 13
q-2 -91 42 -141t126 -50t126 50t42 139z" />
    <glyph glyph-name="Uring" unicode="&#x16e;" horiz-adv-x="1196" 
d="M188 1352h93v-932q0 -168 84 -263q85 -96 233 -96t233 96q84 95 84 263v932h93v-932q0 -207 -110 -326t-300 -119t-300 119t-110 326v932zM462 1496q-54 50 -54 126t54 126q55 50 136 50t137 -50t56 -126t-56 -126t-137 -50t-136 50zM677 1547q32 30 32 75t-32 75
q-30 29 -79 29t-78 -29q-31 -31 -31 -75t31 -75q29 -29 78 -29t79 29z" />
    <glyph glyph-name="uring" unicode="&#x16f;" horiz-adv-x="966" 
d="M690 983h90v-983h-90v160q-33 -88 -96 -136q-64 -49 -154 -49q-128 0 -202 99q-74 100 -74 272v637h90v-637q0 -142 57 -215q57 -74 162 -74q104 0 161 74q56 72 56 215v637zM331 1148q-55 50 -55 126t55 126t136 50t137 -50q55 -49 55 -126t-55 -126q-56 -50 -137 -50
t-136 50zM546 1199q32 30 32 75t-32 75q-30 29 -79 29t-78 -29q-31 -31 -31 -75t31 -75q30 -30 78 -30q47 0 79 30z" />
    <glyph glyph-name="Uhungarumlaut" unicode="&#x170;" horiz-adv-x="1196" 
d="M188 1352h93v-932q0 -168 84 -263q85 -96 233 -96t233 96q84 95 84 263v932h93v-932q0 -207 -110 -326t-300 -119t-300 119t-110 326v932zM453 1464l-115 15l258 229l129 -16zM780 1464l-114 15l258 229l129 -16z" />
    <glyph glyph-name="uhungarumlaut" unicode="&#x171;" horiz-adv-x="966" 
d="M690 983h90v-983h-90v160q-33 -88 -96 -136q-64 -49 -154 -49q-128 0 -202 99q-74 100 -74 272v637h90v-637q0 -142 57 -215q57 -74 162 -74q104 0 161 74q56 72 56 215v637zM344 1116l-100 12l227 265l115 -15zM637 1116l-100 12l227 265l115 -15z" />
    <glyph glyph-name="Uogonek" unicode="&#x172;" horiz-adv-x="1196" 
d="M737 -127q0 -47 28 -75q27 -27 75 -27q52 0 86 34l14 -88q-44 -28 -113 -28q-79 0 -129 43q-51 44 -51 110q0 87 80 150q-63 -17 -129 -17q-190 0 -300 119t-110 326v932h93v-932q0 -168 84 -263q85 -96 233 -96t233 96q84 95 84 263v932h93v-932q0 -130 -44 -229
q-43 -97 -128 -150q-99 -79 -99 -168z" />
    <glyph glyph-name="uogonek" unicode="&#x173;" horiz-adv-x="966" 
d="M780 0l-63 6l-27 -2v156q-33 -88 -96 -136q-64 -49 -154 -49q-128 0 -202 99q-74 100 -74 272v637h90v-637q0 -142 57 -215q57 -74 162 -74q104 0 161 74q56 72 56 215v637h90v-983zM780 0q-92 -17 -143 -59q-53 -44 -53 -101q0 -42 26 -65q28 -25 74 -25q42 0 82 35
l14 -88q-46 -29 -112 -29q-76 0 -125 42t-49 106q0 71 56 123q58 53 140 65v-4h90z" />
    <glyph glyph-name="Wcircumflex" unicode="&#x174;" horiz-adv-x="1761" 
d="M1223 92l301 1260h96l-328 -1352h-143l-268 1255l-269 -1255h-143l-328 1352h97l301 -1260l270 1260h143zM932 1702l252 -223l-117 -15l-188 162l-189 -162l-117 15l250 223h109z" />
    <glyph glyph-name="wcircumflex" unicode="&#x175;" horiz-adv-x="1409" 
d="M977 66l231 917h92l-251 -983h-144l-200 920l-201 -920h-144l-251 983h92l231 -917l201 917h143zM729 1391l223 -261l-102 -12l-170 191l-172 -191l-102 12l223 261h100z" />
    <glyph glyph-name="Ycircumflex" unicode="&#x176;" horiz-adv-x="1099" 
d="M551 627l358 725h105l-418 -817v-535h-92v535l-418 817h104zM606 1702l252 -223l-117 -15l-188 162l-188 -162l-117 15l250 223h108z" />
    <glyph glyph-name="ycircumflex" unicode="&#x177;" horiz-adv-x="894" 
d="M729 983h96l-331 -983q-49 -140 -105 -232q-52 -85 -127 -126q-76 -42 -186 -52l-21 107q16 -2 37 -2q110 0 186 74q74 72 125 231l23 68h-47l-309 915h96l280 -850zM512 1391l223 -261l-102 -12l-170 191l-172 -191l-103 12l224 261h100z" />
    <glyph glyph-name="Ydieresis" unicode="&#x178;" horiz-adv-x="1099" 
d="M551 627l358 725h105l-418 -817v-535h-92v535l-418 817h104zM354 1686h103l2 -185h-101zM643 1686h102l3 -185h-101z" />
    <glyph glyph-name="Zacute" unicode="&#x179;" horiz-adv-x="1169" 
d="M956 1210l-688 -1120h711v-90h-789v141l693 1121h-670v90h743v-142zM596 1464l-115 15l258 229l129 -16z" />
    <glyph glyph-name="zacute" unicode="&#x17a;" horiz-adv-x="841" 
d="M715 850l-527 -760h543v-90h-620v133l526 760h-512v90h590v-133zM428 1116l-100 12l227 265l115 -15z" />
    <glyph glyph-name="Zdotaccent" unicode="&#x17b;" horiz-adv-x="1169" 
d="M956 1210l-688 -1120h711v-90h-789v141l693 1121h-670v90h743v-142zM537 1686h96v-185h-96v185z" />
    <glyph glyph-name="zdotaccent" unicode="&#x17c;" horiz-adv-x="841" 
d="M715 850l-527 -760h543v-90h-620v133l526 760h-512v90h590v-133zM371 1372h96v-205h-96v205z" />
    <glyph glyph-name="Zcaron" unicode="&#x17d;" horiz-adv-x="1169" 
d="M956 1210l-688 -1120h711v-90h-789v141l693 1121h-670v90h743v-142zM588 1540l188 162l117 -14l-252 -224h-109l-249 224l116 14z" />
    <glyph glyph-name="zcaron" unicode="&#x17e;" horiz-adv-x="841" 
d="M715 850l-527 -760h543v-90h-620v133l526 760h-512v90h590v-133zM422 1200l170 191l102 -13l-223 -260h-100l-224 260l103 13z" />
    <glyph glyph-name="uni018F" unicode="&#x18f;" horiz-adv-x="1183" 
d="M815 1291q109 -87 167 -243q58 -158 58 -372q0 -211 -57 -370t-164 -245t-248 -86q-199 0 -314 160q-114 159 -114 443q0 54 7 127h792q-5 177 -52 309q-48 133 -133 205q-84 71 -196 71q-125 0 -206 -90q-80 -89 -101 -250l-100 25q30 191 138 296t269 105
q147 0 254 -85zM756 130q80 70 128 195q49 128 56 289h-696q-8 -258 81 -405q89 -148 248 -148q103 0 183 69z" />
    <glyph glyph-name="florin" unicode="&#x192;" horiz-adv-x="980" 
d="M956 1333l-18 -96q-50 53 -137 53q-79 0 -123 -42q-43 -42 -60 -95q-15 -49 -28 -131l-41 -264h297v-82h-309l-58 -365q-51 -336 -293 -336q-88 0 -161 41l16 99q51 -54 139 -54q86 0 137 66t72 205l53 344h-305v82h318l45 284q29 176 97 255q69 79 196 79q90 0 163 -43z
" />
    <glyph glyph-name="uni01CD" unicode="&#x1cd;" horiz-adv-x="1148" 
d="M1042 0h-96l-123 430h-495l-125 -430h-97l396 1352h145zM575 1284l-223 -768h445zM588 1540l188 162l117 -14l-252 -224h-109l-249 224l116 14z" />
    <glyph glyph-name="uni01CE" unicode="&#x1ce;" horiz-adv-x="927" 
d="M682 922q82 -85 82 -236v-686h-90v150q-28 -88 -95 -132q-65 -43 -155 -43q-84 0 -154 41q-68 40 -108 112q-39 70 -39 159q0 87 39 158t107 111t153 40q89 0 156 -43q68 -44 96 -131v248q0 117 -58 187q-57 69 -159 69q-103 0 -161 -69t-54 -187l-97 24q5 146 87 230
q83 84 225 84t225 -86zM608 124q66 66 66 163q0 96 -66 162q-65 65 -162 65t-162 -65q-67 -67 -67 -162q0 -96 67 -163t162 -67t162 67zM455 1200l170 191l102 -13l-223 -260h-101l-223 260l103 13z" />
    <glyph glyph-name="Gcaron" unicode="&#x1e6;" horiz-adv-x="1226" 
d="M618 705h414v-705h-92v272q-62 -297 -319 -297q-144 0 -253 86q-107 85 -166 244t-59 371t59 371q59 158 166 243q109 86 250 86q166 0 274 -105t138 -296l-100 -25q-21 160 -102 250t-210 90q-111 0 -197 -77q-85 -77 -132 -216q-47 -141 -47 -321q0 -181 47 -322
q47 -140 132 -216q86 -77 197 -77q96 0 169 55t113 153t40 231v114h-322v91zM621 1540l188 162l117 -14l-252 -224h-109l-250 224l117 14z" />
    <glyph glyph-name="gcaron" unicode="&#x1e7;" horiz-adv-x="897" 
d="M524 100q142 0 221 -70q80 -71 80 -196q0 -131 -89 -200q-87 -68 -257 -68q-169 0 -263 67q-95 68 -95 181q0 45 16 96l105 27q-21 -60 -21 -113q0 -86 65 -131q64 -45 191 -45q130 0 192 46t62 140q0 88 -53 136q-52 48 -154 48h-112q-114 0 -182 43t-68 113
q0 113 157 141q-90 34 -138 122q-48 87 -48 212q0 182 92 271q91 88 285 88q101 0 178 8q74 8 135 28l-18 -102q-65 -14 -234 -16q95 -24 140 -92t45 -185q0 -166 -83 -261t-229 -95q-101 0 -149 -23q-47 -23 -47 -73q0 -46 43 -71q44 -26 121 -26h112zM285 447
q57 -72 159 -72q103 0 160 72q58 73 58 202q0 128 -58 201q-57 71 -160 76q-100 0 -158 -75q-59 -76 -59 -202q0 -129 58 -202zM457 1200l170 191l102 -13l-223 -260h-100l-224 260l103 13z" />
    <glyph glyph-name="uni01F4" unicode="&#x1f4;" horiz-adv-x="1226" 
d="M618 705h414v-705h-92v272q-62 -297 -319 -297q-144 0 -253 86q-107 85 -166 244t-59 371t59 371q59 158 166 243q109 86 250 86q166 0 274 -105t138 -296l-100 -25q-21 160 -102 250t-210 90q-111 0 -197 -77q-85 -77 -132 -216q-47 -141 -47 -321q0 -181 47 -322
q47 -140 132 -216q86 -77 197 -77q96 0 169 55t113 153t40 231v114h-322v91zM629 1464l-115 15l258 229l129 -16z" />
    <glyph glyph-name="uni01F5" unicode="&#x1f5;" horiz-adv-x="897" 
d="M524 100q142 0 221 -70q80 -71 80 -196q0 -131 -89 -200q-87 -68 -257 -68q-169 0 -263 67q-95 68 -95 181q0 45 16 96l105 27q-21 -60 -21 -113q0 -86 65 -131q64 -45 191 -45q130 0 192 46t62 140q0 88 -53 136q-52 48 -154 48h-112q-114 0 -182 43t-68 113
q0 113 157 141q-90 34 -138 122q-48 87 -48 212q0 182 92 271q91 88 285 88q101 0 178 8q74 8 135 28l-18 -102q-65 -14 -234 -16q95 -24 140 -92t45 -185q0 -166 -83 -261t-229 -95q-101 0 -149 -23q-47 -23 -47 -73q0 -46 43 -71q44 -26 121 -26h112zM285 447
q57 -72 159 -72q103 0 160 72q58 73 58 202q0 128 -58 201q-57 71 -160 76q-100 0 -158 -75q-59 -76 -59 -202q0 -129 58 -202zM463 1116l-101 12l228 265l115 -15z" />
    <glyph glyph-name="Aringacute" unicode="&#x1fa;" horiz-adv-x="1148" 
d="M1042 0h-96l-123 430h-495l-125 -430h-97l396 1352h145zM575 1284l-223 -768h445zM450 1496q-55 50 -55 126t55 126t136 50t137 -50q55 -49 55 -126t-55 -126q-56 -50 -137 -50t-136 50zM665 1547q31 30 31 75t-31 75q-30 29 -79 29t-78 -29q-31 -31 -31 -75t31 -75
q29 -29 78 -29t79 29zM596 1894l-115 15l258 229l129 -16z" />
    <glyph glyph-name="aringacute" unicode="&#x1fb;" horiz-adv-x="927" 
d="M682 922q82 -85 82 -236v-686h-90v150q-28 -88 -95 -132q-65 -43 -155 -43q-84 0 -154 41q-68 40 -108 112q-39 70 -39 159q0 87 39 158t107 111t153 40q89 0 156 -43q68 -44 96 -131v248q0 117 -58 187q-57 69 -159 69q-103 0 -161 -69t-54 -187l-97 24q5 146 87 230
q83 84 225 84t225 -86zM608 124q66 66 66 163q0 96 -66 162q-65 65 -162 65t-162 -65q-67 -67 -67 -162q0 -96 67 -163t162 -67t162 67zM310 1148q-54 50 -54 126t54 126q55 50 136 50q82 0 138 -50q55 -49 55 -126t-55 -126q-56 -50 -138 -50q-81 0 -136 50zM525 1199
q32 30 32 75t-32 75q-30 29 -79 29q-48 0 -77 -29q-31 -31 -31 -75t31 -75q30 -30 77 -30q48 0 79 30zM461 1567l-101 12l228 264l114 -14z" />
    <glyph glyph-name="AEacute" unicode="&#x1fc;" horiz-adv-x="1585" 
d="M1442 1352v-90h-719l98 -523h553v-86h-536l106 -563h498v-90h-576l-80 430h-479l-164 -430h-98l518 1352h879zM631 1280l-291 -764h430zM932 1464l-115 15l258 229l129 -16z" />
    <glyph glyph-name="aeacute" unicode="&#x1fd;" horiz-adv-x="1492" 
d="M768 483q1 -193 76 -310q74 -116 196 -116q104 0 170 82q66 83 66 205l96 -25q-1 -94 -46 -175q-43 -78 -121 -124q-77 -45 -169 -45q-116 0 -202 72q-87 73 -127 203q-11 -131 -82 -202q-73 -73 -193 -73q-135 0 -222 88q-87 89 -87 224q0 85 39 156q40 73 107 112
q70 41 153 41q92 0 158 -45t94 -127v246q0 117 -58 187q-57 69 -159 69q-103 0 -161 -69t-54 -187l-97 24q5 146 87 230q83 84 225 84q133 0 214 -75q80 -74 91 -206q62 281 293 281q146 0 235 -115q88 -113 88 -305q0 -50 -6 -105h-604zM1278 561q8 170 -55 267
q-63 98 -183 98q-112 0 -184 -99q-71 -98 -86 -266h508zM608 124q66 66 66 163q-1 97 -67 163q-64 64 -161 64t-162 -65q-67 -67 -67 -162q0 -96 67 -163t162 -67t162 67zM750 1116l-101 12l228 265l114 -15z" />
    <glyph glyph-name="Oslashacute" unicode="&#x1fe;" horiz-adv-x="1236" 
d="M946 1210q72 -92 110 -229q38 -138 38 -305q0 -210 -59 -370t-166 -245q-109 -86 -251 -86q-161 0 -278 111l-90 -168h-94l127 234q-68 93 -104 225q-36 134 -36 299q0 210 59 370q58 159 166 244q109 86 250 86q157 0 269 -100l86 158h94zM334 250l508 940
q-96 100 -224 100q-111 0 -197 -77q-85 -77 -132 -216q-47 -141 -47 -321q0 -263 92 -426zM816 138q86 76 132 216q47 141 47 322q0 268 -100 440l-508 -944q95 -111 231 -111q112 0 198 77zM623 1464l-115 15l258 229l129 -16z" />
    <glyph glyph-name="oslashacute" unicode="&#x1ff;" horiz-adv-x="962" 
d="M741 877q107 -137 107 -385q0 -238 -99 -377q-99 -140 -268 -140q-112 0 -192 62l-64 -119h-94l96 178q-56 68 -84 169q-28 100 -28 227q0 236 99 376t267 140q115 0 201 -68l68 125h94zM276 186l363 674q-66 66 -158 66q-124 0 -198 -119t-74 -315q0 -188 67 -306z
M680 176q74 119 74 316q0 174 -62 292l-360 -667q63 -60 149 -60q125 0 199 119zM496 1116l-101 12l228 265l114 -15z" />
    <glyph glyph-name="uni0218" unicode="&#x218;" horiz-adv-x="1060" 
d="M225 399q-2 -160 80 -249q83 -91 230 -91q135 0 218 71t83 185q0 73 -29 126q-29 54 -100 104q-74 53 -207 119q-182 90 -255 179q-73 90 -73 220q0 87 47 160q46 71 130 112t186 41q168 0 266 -110q99 -110 94 -289l-98 -27q10 155 -61 248q-71 92 -201 92
q-115 0 -190 -63t-75 -164q0 -69 29 -121q28 -49 95 -100q62 -47 190 -109q138 -68 210 -125q74 -59 107 -128t33 -165q0 -97 -50 -176q-50 -78 -142 -122q-93 -44 -207 -44q-184 0 -295 111q-112 112 -113 291zM461 -389q61 73 61 143q0 64 -43 123h94q35 -53 35 -117
q0 -88 -63 -161z" />
    <glyph glyph-name="uni0219" unicode="&#x219;" horiz-adv-x="860" 
d="M201 340q-4 -36 -4 -55q0 -105 62 -167q63 -63 171 -63q101 0 162 46t61 122q0 51 -21 87q-21 35 -75 71q-56 37 -158 82q-148 68 -204 133q-58 67 -58 168q0 108 81 176q82 68 212 68q136 0 215 -87q80 -87 72 -223l-94 -24q4 25 4 45q0 86 -56 147q-55 60 -141 60
q-89 0 -144 -44t-55 -118q0 -67 51 -116q47 -46 177 -107q110 -49 176 -96q61 -43 87 -96q26 -54 26 -126q0 -110 -90 -180t-228 -70q-159 0 -246 93q-86 92 -75 249zM356 -389q62 74 62 143q0 64 -43 123h94q35 -53 35 -117q0 -86 -64 -161z" />
    <glyph glyph-name="uni021A" unicode="&#x21a;" horiz-adv-x="976" 
d="M70 1352h837v-90h-372v-1262h-93v1262h-372v90zM414 -389q61 73 61 143q0 64 -43 123h94q35 -53 35 -117q0 -88 -63 -161z" />
    <glyph glyph-name="uni021B" unicode="&#x21b;" horiz-adv-x="677" 
d="M621 20q-67 -45 -166 -45q-100 0 -153 56q-52 55 -52 162v712h-227v78h57q108 0 150 36t42 130v135h86v-135q0 -78 -23 -114q-24 -37 -85 -52h354v-78h-264v-712q0 -65 31 -101q30 -35 88 -35q41 0 81 15t64 39zM340 -389q61 73 61 143q0 64 -43 123h95q34 -52 34 -117
q0 -88 -63 -161z" />
    <glyph glyph-name="uni0232" unicode="&#x232;" horiz-adv-x="1099" 
d="M551 627l358 725h105l-418 -817v-535h-92v535l-418 817h104zM276 1518v81h549v-81h-549z" />
    <glyph glyph-name="uni0233" unicode="&#x233;" horiz-adv-x="894" 
d="M729 983h96l-331 -983q-49 -140 -105 -232q-52 -85 -127 -126q-76 -42 -186 -52l-21 107q16 -2 37 -2q110 0 186 74q74 72 125 231l23 68h-47l-309 915h96l280 -850zM217 1186v82h488v-82h-488z" />
    <glyph glyph-name="uni0237" unicode="&#x237;" horiz-adv-x="462" 
d="M-82 -303q33 -4 51 -4q104 0 161 67q56 66 56 193v1030h90v-1051q0 -159 -86 -248q-87 -90 -251 -94z" />
    <glyph glyph-name="uni0259" unicode="&#x259;" horiz-adv-x="933" 
d="M720 868q99 -140 99 -376q0 -238 -99 -377q-99 -140 -267 -140q-158 0 -248 114t-90 306q0 49 6 105h604q-1 193 -76 310q-74 116 -196 116q-103 0 -169 -81q-67 -82 -67 -206l-96 25q1 92 46 173q42 78 119 125q74 46 167 46q168 0 267 -140zM637 156q71 98 86 266h-508
q-8 -170 55 -267q63 -98 183 -98q112 0 184 99z" />
    <glyph glyph-name="circumflex" unicode="&#x2c6;" horiz-adv-x="1302" 
d="M700 1391l224 -261l-103 -12l-170 191l-172 -191l-102 12l223 261h100z" />
    <glyph glyph-name="caron" unicode="&#x2c7;" horiz-adv-x="1302" 
d="M651 1200l170 191l103 -13l-224 -260h-100l-223 260l102 13z" />
    <glyph glyph-name="breve" unicode="&#x2d8;" horiz-adv-x="1302" 
d="M911 1384q-5 -123 -71 -191q-68 -69 -189 -69q-119 0 -189 68q-68 67 -73 192l94 13q-2 -91 42 -141t126 -50t126 50t42 139z" />
    <glyph glyph-name="dotaccent" unicode="&#x2d9;" horiz-adv-x="1302" 
d="M602 1372h96v-205h-96v205z" />
    <glyph glyph-name="ring" unicode="&#x2da;" horiz-adv-x="1302" 
d="M513 1148q-54 50 -54 126t54 126q55 50 136 50t137 -50t56 -126t-56 -126t-137 -50t-136 50zM728 1199q32 30 32 75t-32 75q-30 29 -79 29t-78 -29q-30 -30 -30 -75t30 -75t78 -30q47 0 79 30z" />
    <glyph glyph-name="ogonek" unicode="&#x2db;" horiz-adv-x="1302" 
d="M557 -290q-49 42 -49 106q0 76 64 131q63 54 159 59l64 -6q-93 -17 -144 -59q-53 -44 -53 -101q0 -41 27 -65q28 -25 73 -25q42 0 82 35l15 -88q-46 -29 -113 -29q-76 0 -125 42z" />
    <glyph glyph-name="tilde" unicode="&#x2dc;" horiz-adv-x="1302" 
d="M356 1143q1 104 47 162q45 57 125 57q44 0 77 -19t79 -71q32 -36 54 -53q19 -15 38 -15q80 0 78 152l90 -15q-1 -104 -45 -161q-44 -58 -121 -58q-50 0 -80 18q-34 20 -82 74q-35 39 -53 53q-17 13 -41 13q-78 0 -76 -152z" />
    <glyph glyph-name="hungarumlaut" unicode="&#x2dd;" horiz-adv-x="1302" 
d="M434 1116l-100 12l227 265l115 -15zM727 1116l-100 12l227 265l115 -15z" />
    <glyph glyph-name="gravecomb" unicode="&#x300;" horiz-adv-x="0" 
d="M-127 1393l227 -265l-100 -12l-242 262z" />
    <glyph glyph-name="acutecomb" unicode="&#x301;" horiz-adv-x="0" 
d="M8 1116l-100 12l227 265l115 -15z" />
    <glyph glyph-name="uni0302" unicode="&#x302;" horiz-adv-x="0" 
d="M51 1391l223 -261l-102 -12l-170 191l-172 -191l-102 12l223 261h100z" />
    <glyph glyph-name="tildecomb" unicode="&#x303;" horiz-adv-x="0" 
d="M-295 1143q1 104 47 162q45 57 125 57q44 0 77 -19t79 -71q32 -36 54 -53q19 -15 38 -15q80 0 78 152l90 -15q-1 -104 -45 -161q-44 -58 -121 -58q-50 0 -80 18q-34 20 -82 74q-35 39 -53 53q-17 13 -41 13q-78 0 -76 -152z" />
    <glyph glyph-name="uni0304" unicode="&#x304;" horiz-adv-x="0" 
d="M-244 1186v82h488v-82h-488z" />
    <glyph glyph-name="uni0306" unicode="&#x306;" horiz-adv-x="0" 
d="M260 1384q-4 -122 -72 -191t-188 -69q-119 0 -189 68q-68 67 -73 192l94 13q-2 -91 42 -141t126 -50t126 50t42 139z" />
    <glyph glyph-name="uni0307" unicode="&#x307;" horiz-adv-x="0" 
d="M-49 1372h96v-205h-96v205z" />
    <glyph glyph-name="uni0308" unicode="&#x308;" horiz-adv-x="0" 
d="M-182 1372h100l2 -205h-98zM80 1372h100l2 -205h-98z" />
    <glyph glyph-name="uni030A" unicode="&#x30a;" horiz-adv-x="0" 
d="M-136 1148q-54 50 -54 126t54 126q55 50 136 50t137 -50t56 -126t-56 -126t-137 -50t-136 50zM79 1199q32 30 32 75t-32 75q-30 29 -79 29t-78 -29q-31 -31 -31 -75t31 -75q30 -30 78 -30t79 30z" />
    <glyph glyph-name="uni030B" unicode="&#x30b;" horiz-adv-x="0" 
d="M-127 1116l-100 12l227 265l115 -15zM166 1116l-100 12l227 265l115 -15z" />
    <glyph glyph-name="uni030C" unicode="&#x30c;" horiz-adv-x="0" 
d="M2 1200l170 191l102 -13l-223 -260h-100l-223 260l102 13z" />
    <glyph glyph-name="uni0312" unicode="&#x312;" horiz-adv-x="0" 
d="M-39 1116q-35 53 -35 117q0 98 76 192l84 -12q-74 -92 -74 -174q0 -64 43 -123h-94z" />
    <glyph glyph-name="uni0326" unicode="&#x326;" horiz-adv-x="0" 
d="M-76 -389q62 74 62 143q0 64 -43 123h94q35 -53 35 -117q0 -86 -64 -161z" />
    <glyph glyph-name="uni0327" unicode="&#x327;" horiz-adv-x="0" 
d="M35 -106q58 -7 93 -38q34 -30 34 -71q0 -51 -47 -84q-46 -33 -125 -33q-73 0 -125 29l16 94q53 -41 109 -41q37 0 57 14q21 15 21 41q0 31 -33 55q-32 24 -92 34l18 106h92z" />
    <glyph glyph-name="uni0328" unicode="&#x328;" horiz-adv-x="0" 
d="M-231 -290q-50 42 -50 106q0 75 65 131q63 54 159 59l63 -6q-92 -17 -143 -59q-53 -44 -53 -101q0 -42 26 -65q28 -25 74 -25q42 0 82 35l14 -88q-46 -29 -112 -29q-76 0 -125 42z" />
    <glyph glyph-name="uni0394" unicode="&#x394;" horiz-adv-x="1083" 
d="M471 1352h143l363 -1262v-90h-871v90zM881 90l-338 1176l-340 -1176h678z" />
    <glyph glyph-name="uni03A9" unicode="&#x3a9;" horiz-adv-x="1245" 
d="M1030 319q-72 -161 -201 -229h250v-90h-379v70q89 18 159 101t107 216q38 135 38 299q0 178 -48 319q-45 133 -133 210q-85 75 -200 75t-201 -75q-88 -77 -133 -210q-47 -138 -47 -319q0 -162 38 -297q38 -134 106 -217q69 -84 161 -102v-70h-381v90h250
q-129 68 -201 229q-72 162 -72 388q0 196 61 350q59 150 169 235q108 84 250 84q141 0 249 -84q110 -85 169 -235q61 -154 61 -350q0 -226 -72 -388z" />
    <glyph glyph-name="uni03BC" unicode="&#x3bc;" horiz-adv-x="989" 
d="M713 983h90v-983h-90v160q-32 -87 -97 -136q-64 -49 -149 -49q-130 0 -199 107v-492h-82v1393h90v-637q0 -139 57 -214t163 -75q103 0 160 75t57 214v637z" />
    <glyph glyph-name="pi" unicode="&#x3c0;" horiz-adv-x="1056" 
d="M999 20q-66 -45 -147 -45q-92 0 -133 52t-41 166v712h-352v-905h-90v905h-216v78h963v-78h-215v-712q0 -71 22 -104q21 -32 68 -32q71 0 125 54z" />
    <glyph glyph-name="Wgrave" unicode="&#x1e80;" horiz-adv-x="1761" 
d="M1223 92l301 1260h96l-328 -1352h-143l-268 1255l-269 -1255h-143l-328 1352h97l301 -1260l270 1260h143zM733 1708l258 -229l-114 -15l-273 228z" />
    <glyph glyph-name="wgrave" unicode="&#x1e81;" horiz-adv-x="1409" 
d="M977 66l231 917h92l-251 -983h-144l-200 920l-201 -920h-144l-251 983h92l231 -917l201 917h143zM551 1393l227 -265l-100 -12l-242 262z" />
    <glyph glyph-name="Wacute" unicode="&#x1e82;" horiz-adv-x="1761" 
d="M1223 92l301 1260h96l-328 -1352h-143l-268 1255l-269 -1255h-143l-328 1352h97l301 -1260l270 1260h143zM887 1464l-115 15l258 229l129 -16z" />
    <glyph glyph-name="wacute" unicode="&#x1e83;" horiz-adv-x="1409" 
d="M977 66l231 917h92l-251 -983h-144l-200 920l-201 -920h-144l-251 983h92l231 -917l201 917h143zM686 1116l-100 12l227 265l115 -15z" />
    <glyph glyph-name="Wdieresis" unicode="&#x1e84;" horiz-adv-x="1761" 
d="M1223 92l301 1260h96l-328 -1352h-143l-268 1255l-269 -1255h-143l-328 1352h97l301 -1260l270 1260h143zM680 1686h102l2 -185h-100zM969 1686h102l2 -185h-100z" />
    <glyph glyph-name="wdieresis" unicode="&#x1e85;" horiz-adv-x="1409" 
d="M977 66l231 917h92l-251 -983h-144l-200 920l-201 -920h-144l-251 983h92l231 -917l201 917h143zM496 1372h100l2 -205h-98zM758 1372h100l2 -205h-98z" />
    <glyph glyph-name="uni1E9E" unicode="&#x1e9e;" horiz-adv-x="1236" 
d="M1078 409q38 -76 38 -151q0 -133 -90 -208t-248 -75q-171 0 -289 103l21 106q62 -65 128 -94t144 -29q112 0 174 53t62 148q0 56 -32 114q-30 54 -134 181t-146 213q-40 81 -40 172q0 120 77 206q78 87 209 114h-452q-94 0 -144 -47q-49 -46 -49 -136v-1079h-92v1079
q0 128 76 200q78 73 207 73h534v-90q-139 -40 -204 -116q-64 -74 -64 -198q0 -83 34 -148q37 -70 142 -196q102 -124 138 -195z" />
    <glyph glyph-name="uni1EBC" unicode="&#x1ebc;" horiz-adv-x="1062" 
d="M920 1352v-90h-613v-523h545v-86h-545v-563h613v-90h-705v1352h705zM229 1489q6 194 181 194q42 0 82 -18q34 -15 108 -66q44 -31 71 -43q23 -10 52 -10q48 0 69 32q21 31 19 99l90 -14q-6 -199 -180 -199q-39 0 -79 18q-45 20 -112 66q-54 36 -73 44q-25 10 -49 10
q-47 0 -68 -30t-21 -97z" />
    <glyph glyph-name="uni1EBD" unicode="&#x1ebd;" horiz-adv-x="933" 
d="M209 483q1 -193 76 -310q74 -116 196 -116q103 0 169 81q67 82 67 206l96 -25q-1 -92 -46 -173q-42 -76 -119 -124q-76 -47 -167 -47q-168 0 -267 140q-99 139 -99 377q0 236 99 376t267 140q158 0 248 -114t90 -306q0 -50 -6 -105h-604zM719 561q8 170 -55 267
q-63 98 -183 98q-112 0 -184 -99q-71 -98 -86 -266h508zM184 1143q1 104 47 162q45 57 125 57q44 0 77 -19t79 -71q32 -36 54 -53q20 -15 38 -15q80 0 78 152l90 -15q-1 -104 -45 -161q-44 -58 -121 -58q-50 0 -80 18q-34 20 -82 74q-35 39 -53 53q-17 13 -41 13
q-78 0 -76 -152z" />
    <glyph glyph-name="Ygrave" unicode="&#x1ef2;" horiz-adv-x="1099" 
d="M551 627l358 725h105l-418 -817v-535h-92v535l-418 817h104zM408 1708l258 -229l-115 -15l-272 228z" />
    <glyph glyph-name="ygrave" unicode="&#x1ef3;" horiz-adv-x="894" 
d="M729 983h96l-331 -983q-49 -140 -105 -232q-52 -85 -127 -126q-76 -42 -186 -52l-21 107q16 -2 37 -2q110 0 186 74q74 72 125 231l23 68h-47l-309 915h96l280 -850zM334 1393l227 -265l-100 -12l-242 262z" />
    <glyph glyph-name="uni1EF8" unicode="&#x1ef8;" horiz-adv-x="1099" 
d="M551 627l358 725h105l-418 -817v-535h-92v535l-418 817h104zM213 1489q6 194 180 194q41 0 82 -18q37 -17 109 -66q45 -32 70 -43q23 -10 53 -10q47 0 68 32t20 99l90 -14q-6 -199 -180 -199q-39 0 -79 18q-45 20 -112 66q-52 35 -74 44q-25 10 -49 10q-46 0 -67 -30
t-21 -97z" />
    <glyph glyph-name="uni1EF9" unicode="&#x1ef9;" horiz-adv-x="894" 
d="M729 983h96l-331 -983q-49 -140 -105 -232q-52 -85 -127 -126q-76 -42 -186 -52l-21 107q16 -2 37 -2q110 0 186 74q74 72 125 231l23 68h-47l-309 915h96l280 -850zM164 1143q1 104 47 162q45 57 125 57q44 0 77 -19t79 -71q32 -36 54 -53q20 -15 38 -15q80 0 78 152
l90 -15q-1 -104 -45 -161q-44 -58 -121 -58q-50 0 -80 18q-34 20 -82 74q-35 39 -53 53q-17 13 -41 13q-78 0 -76 -152z" />
    <glyph glyph-name="uni2009" unicode="&#x2009;" horiz-adv-x="231" 
 />
    <glyph glyph-name="uni2011" unicode="&#x2011;" horiz-adv-x="665" 
d="M80 487v91h506v-91h-506z" />
    <glyph glyph-name="endash" unicode="&#x2013;" horiz-adv-x="909" 
d="M80 487v91h749v-91h-749z" />
    <glyph glyph-name="emdash" unicode="&#x2014;" horiz-adv-x="1220" 
d="M80 487v91h1061v-91h-1061z" />
    <glyph glyph-name="quoteleft" unicode="&#x2018;" horiz-adv-x="374" 
d="M152 967q-46 84 -46 153q0 129 107 248l88 -16q-52 -57 -77 -111q-23 -50 -23 -117q0 -84 53 -157h-102z" />
    <glyph glyph-name="quoteright" unicode="&#x2019;" horiz-adv-x="374" 
d="M223 1352q45 -82 45 -154q0 -130 -106 -248l-88 17q53 58 77 110q23 50 23 117q0 85 -53 158h102z" />
    <glyph glyph-name="quotesinglbase" unicode="&#x201a;" horiz-adv-x="374" 
d="M223 205q45 -83 45 -154q0 -130 -106 -248l-88 17q53 58 77 110q23 50 23 117q0 85 -53 158h102z" />
    <glyph glyph-name="quotedblleft" unicode="&#x201c;" horiz-adv-x="649" 
d="M152 967q-46 84 -46 153q0 129 107 248l88 -16q-52 -57 -77 -111q-23 -50 -23 -117q0 -84 53 -157h-102zM426 967q-45 83 -45 153q0 130 106 248l88 -16q-50 -54 -76 -111q-24 -53 -24 -117q0 -84 53 -157h-102z" />
    <glyph glyph-name="quotedblright" unicode="&#x201d;" horiz-adv-x="626" 
d="M223 1352q45 -82 45 -154q0 -130 -106 -248l-88 17q53 58 77 110q23 50 23 117q0 85 -53 158h102zM475 1352q45 -82 45 -154q0 -130 -106 -248l-88 17q51 55 76 110q24 53 24 117q0 85 -53 158h102z" />
    <glyph glyph-name="quotedblbase" unicode="&#x201e;" horiz-adv-x="626" 
d="M223 205q45 -83 45 -154q0 -130 -106 -248l-88 17q53 58 77 110q23 50 23 117q0 85 -53 158h102zM475 205q45 -83 45 -154q0 -130 -106 -248l-88 17q51 55 76 110q24 52 24 117q0 85 -53 158h102z" />
    <glyph glyph-name="dagger" unicode="&#x2020;" horiz-adv-x="778" 
d="M434 1188h264v-90h-264v-537h-90v537h-264v90h264v246h90v-246z" />
    <glyph glyph-name="daggerdbl" unicode="&#x2021;" horiz-adv-x="778" 
d="M698 1208v-90h-264v-241h264v-91h-264v-225h-90v225h-264v91h264v241h-264v90h264v226h90v-226h264z" />
    <glyph glyph-name="bullet" unicode="&#x2022;" horiz-adv-x="1126" 
d="M436 549v254h254v-254h-254z" />
    <glyph glyph-name="ellipsis" unicode="&#x2026;" horiz-adv-x="958" 
d="M150 205h98v-205h-98v205zM418 205h98v-205h-98v205zM711 205h98v-205h-98v205z" />
    <glyph glyph-name="perthousand" unicode="&#x2030;" horiz-adv-x="2516" 
d="M196 612q-77 113 -77 322q0 206 78 320t217 114q142 0 218 -114q77 -115 77 -320q0 -206 -77 -321q-76 -113 -218 -113t-218 112zM586 0h-97l703 1352h96zM565 668q53 92 53 266q0 172 -53 264t-151 92q-100 0 -152 -93q-53 -94 -53 -263q0 -171 53 -265t152 -94
q98 0 151 93zM1144 98q-77 113 -77 322q0 206 78 320t217 114q142 0 218 -114q77 -115 77 -320q0 -206 -77 -321q-76 -113 -218 -113t-218 112zM1885 98q-77 113 -77 322q0 206 78 320t217 114q141 0 218 -114q77 -115 77 -320q0 -206 -77 -321q-76 -113 -218 -113t-218 112
zM1513 154q54 94 54 266q0 170 -54 264q-53 92 -151 92q-99 0 -152 -93q-53 -94 -53 -263q0 -171 53 -265t152 -94q98 0 151 93zM2255 154q53 92 53 266q0 172 -53 264t-152 92t-151 -93q-53 -94 -53 -263q0 -171 53 -265t151 -94q99 0 152 93z" />
    <glyph glyph-name="minute" unicode="&#x2032;" horiz-adv-x="440" 
d="M199 1352h104l-96 -486h-70z" />
    <glyph glyph-name="second" unicode="&#x2033;" horiz-adv-x="712" 
d="M199 1352h104l-96 -486h-70zM471 1352h104l-96 -486h-69z" />
    <glyph glyph-name="guilsinglleft" unicode="&#x2039;" horiz-adv-x="776" 
d="M461 385q92 -95 131 -225l-92 -23q-38 137 -120 228t-196 118v68q116 29 198 120q84 93 118 226l92 -23q-39 -131 -131 -226q-91 -94 -219 -132q129 -38 219 -131z" />
    <glyph glyph-name="guilsinglright" unicode="&#x203a;" horiz-adv-x="776" 
d="M276 897q34 -133 118 -226q82 -91 198 -120v-68q-114 -27 -196 -118t-120 -228l-92 23q39 130 131 225q90 93 220 131q-129 38 -220 132q-92 95 -131 226z" />
    <glyph glyph-name="fraction" unicode="&#x2044;" horiz-adv-x="206" 
d="M-199 0h-96l703 1352h96z" />
    <glyph glyph-name="uni2070" unicode="&#x2070;" horiz-adv-x="737" 
d="M152 818q-78 114 -78 323q0 206 78 320t217 114t216 -114q77 -115 77 -320q0 -207 -77 -322q-77 -114 -216 -114q-140 0 -217 113zM518 873q53 94 53 268q0 172 -53 264t-149 92q-99 0 -152 -93q-53 -94 -53 -263q0 -172 53 -267q52 -94 152 -94q96 0 149 93z" />
    <glyph glyph-name="uni2074" unicode="&#x2074;" horiz-adv-x="737" 
d="M684 999v-77h-129v-203h-86v203h-414v73q122 117 175 248q53 130 53 316h94q0 -180 -70 -323q-68 -140 -205 -237h367v232h86v-232h129z" />
    <glyph glyph-name="uni2075" unicode="&#x2075;" horiz-adv-x="737" 
d="M594 1187q68 -76 68 -200q0 -130 -74 -207q-72 -75 -203 -75q-123 0 -202 67q-79 68 -81 180l97 25q-4 -85 47 -141t139 -56q87 0 137 55q49 53 49 152q0 95 -48 148t-134 53q-61 0 -109 -27q-50 -28 -73 -67l-84 32l27 433h479v-78h-396l-24 -344q30 61 85 93t120 32
q112 0 180 -75z" />
    <glyph glyph-name="uni2076" unicode="&#x2076;" horiz-adv-x="737" 
d="M589 1185q68 -75 68 -202q0 -128 -74 -203t-202 -75q-295 0 -295 438q0 211 75 322q76 112 216 112q104 0 173 -56q70 -57 91 -147l-96 -24q-7 66 -56 108q-47 41 -112 41q-99 0 -150 -90t-51 -262q0 -37 4 -88q15 91 75 147q61 56 153 56q112 0 181 -77zM517 836
q50 56 50 149q0 95 -48 148t-136 53q-85 0 -135 -53q-49 -52 -49 -148q0 -90 50 -148q49 -57 132 -57q86 0 136 56z" />
    <glyph glyph-name="uni2077" unicode="&#x2077;" horiz-adv-x="737" 
d="M37 1559h653v-74q-187 -135 -269 -307q-81 -170 -81 -426v-33h-92v33q0 267 91 437t300 292h-602v78z" />
    <glyph glyph-name="uni2078" unicode="&#x2078;" horiz-adv-x="737" 
d="M600 1101q57 -63 57 -151q0 -107 -82 -176q-83 -69 -206 -69q-127 0 -209 69t-82 176q0 89 58 151q59 63 157 81q-88 15 -137 61q-50 47 -50 121q0 92 76 152q75 59 187 59q114 0 186 -59q74 -60 74 -152q0 -74 -48 -121q-47 -46 -137 -61q99 -18 156 -81zM246 1232
q50 -44 123 -44q70 0 120 44t50 111t-49 111q-47 43 -121 43t-123 -43t-49 -111t49 -111zM512 828q57 48 57 122q0 72 -56 118t-144 46q-89 0 -145 -46t-56 -118q0 -75 56 -122q57 -48 145 -48q86 0 143 48z" />
    <glyph glyph-name="uni2079" unicode="&#x2079;" horiz-adv-x="737" 
d="M651 1141q0 -215 -74 -325q-75 -111 -217 -111q-106 0 -174 56q-69 57 -90 148l97 25q11 -69 56 -110q47 -42 111 -42q99 0 150 91t51 264q0 33 -4 88q-15 -93 -75 -148q-59 -55 -152 -55q-113 0 -182 77q-68 75 -68 201q0 127 76 202q77 75 200 75q295 0 295 -436z
M490 1151q49 54 49 147q0 88 -51 147q-49 56 -132 56q-87 0 -136 -55q-50 -56 -50 -148q0 -94 48 -147t136 -53t136 53z" />
    <glyph glyph-name="uni2080" unicode="&#x2080;" horiz-adv-x="737" 
d="M152 -97q-78 114 -78 322q0 207 78 321q77 113 217 113t216 -113q77 -115 77 -321t-77 -321t-216 -115t-217 114zM518 -42q53 94 53 267q0 172 -53 264q-53 93 -149 93q-99 0 -152 -94t-53 -263q0 -171 53 -266q52 -94 152 -94q96 0 149 93z" />
    <glyph glyph-name="uni2081" unicode="&#x2081;" horiz-adv-x="737" 
d="M428 -119h252v-78h-623v78h285v666q-23 -124 -95 -187t-190 -63v98q223 0 289 248h82v-762z" />
    <glyph glyph-name="uni2082" unicode="&#x2082;" horiz-adv-x="737" 
d="M509 124q-131 -141 -366 -243h494v-78h-559v74q230 128 352 267q121 137 121 264q0 81 -52 127q-53 47 -134 47q-86 0 -136 -50q-49 -49 -49 -131q0 -35 4 -51l-98 25q-2 16 -2 35q0 111 78 180t203 69q122 0 197 -68q77 -69 77 -181q0 -146 -130 -286z" />
    <glyph glyph-name="uni2083" unicode="&#x2083;" horiz-adv-x="737" 
d="M593 182q58 -61 58 -157q0 -106 -77 -171t-203 -65q-134 0 -213 67q-77 66 -82 175l94 24q1 -91 56 -141q53 -49 145 -49q88 0 139 45t51 119q0 73 -58 118q-60 46 -155 46h-84v73h84q83 0 135 46q54 48 54 118q0 68 -47 110t-119 42q-77 0 -126 -52t-50 -137l-95 25
q5 109 79 175q75 66 192 66q113 0 184 -61q72 -62 72 -158q0 -81 -49 -124q-50 -44 -150 -56q106 -16 165 -78z" />
    <glyph glyph-name="uni2084" unicode="&#x2084;" horiz-adv-x="737" 
d="M684 84v-78h-129v-203h-86v203h-414v74q122 117 175 248q53 130 53 315h94q0 -179 -70 -322q-68 -140 -205 -237h367v231h86v-231h129z" />
    <glyph glyph-name="uni2085" unicode="&#x2085;" horiz-adv-x="737" 
d="M594 271q68 -76 68 -199q0 -130 -74 -207q-73 -76 -203 -76q-122 0 -202 68q-79 67 -81 180l97 24q-4 -85 47 -141q51 -55 139 -55q87 0 137 54q49 53 49 153q0 94 -48 147t-134 53q-63 0 -109 -26q-49 -28 -73 -68l-84 33l27 432h479v-78h-396l-24 -344q30 61 85 93
t120 32q112 0 180 -75z" />
    <glyph glyph-name="uni2086" unicode="&#x2086;" horiz-adv-x="737" 
d="M589 269q68 -75 68 -201q0 -128 -74 -203q-75 -76 -202 -76q-295 0 -295 438q0 212 75 323q76 112 216 112q103 0 173 -57t91 -146l-96 -25q-7 67 -56 109q-47 41 -112 41q-99 0 -150 -90t-51 -263q0 -37 4 -88q15 93 75 148q59 55 153 55q112 0 181 -77zM517 -80
q50 56 50 150t-48 147t-136 53q-85 0 -135 -53q-49 -52 -49 -147q0 -91 50 -149q49 -56 132 -56q87 0 136 55z" />
    <glyph glyph-name="uni2087" unicode="&#x2087;" horiz-adv-x="737" 
d="M37 643h653v-74q-187 -135 -269 -307q-81 -170 -81 -426v-33h-92v33q0 267 91 437t300 292h-602v78z" />
    <glyph glyph-name="uni2088" unicode="&#x2088;" horiz-adv-x="737" 
d="M600 185q57 -63 57 -150q0 -107 -82 -176q-84 -70 -206 -70q-125 0 -209 70q-82 69 -82 176q0 88 58 150q59 63 157 81q-87 15 -137 62t-50 121q0 91 76 151q75 59 187 59q114 0 186 -59q74 -60 74 -151q0 -75 -48 -121q-49 -47 -137 -62q99 -18 156 -81zM246 316
q50 -44 123 -44q70 0 120 44t50 112q0 67 -49 111q-47 43 -121 43t-123 -43t-49 -111q0 -69 49 -112zM512 -87q57 48 57 122q0 72 -56 118t-144 46q-89 0 -145 -46t-56 -118q0 -75 56 -122q57 -48 145 -48q86 0 143 48z" />
    <glyph glyph-name="uni2089" unicode="&#x2089;" horiz-adv-x="737" 
d="M651 225q0 -214 -74 -324q-76 -112 -217 -112q-106 0 -174 56q-69 57 -90 149l97 24q11 -68 56 -109q47 -42 111 -42q99 0 150 91t51 263q0 33 -4 88q-15 -91 -75 -147q-61 -56 -152 -56q-113 0 -182 77q-68 75 -68 202t76 202t200 75q295 0 295 -437zM490 236
q49 54 49 147q0 87 -51 146q-50 57 -132 57q-86 0 -136 -56t-50 -147q0 -95 48 -147q49 -54 136 -54t136 54z" />
    <glyph glyph-name="Euro" unicode="&#x20ac;" horiz-adv-x="1181" 
d="M858 176q73 114 78 320l98 -25q-11 -236 -110 -365q-101 -131 -269 -131q-177 0 -290 148q-114 149 -138 409h-161v82h157q-2 28 -2 62q0 42 2 72h-157v81h163q27 258 139 403q111 144 287 144q171 0 270 -130t109 -365l-98 -25q-4 205 -77 320q-72 114 -200 114
q-133 0 -221 -123q-87 -121 -110 -338h395v-81h-401q-3 -45 -3 -72q0 -20 3 -62h401v-82h-397q23 -220 109 -345q87 -126 220 -126q129 0 203 115z" />
    <glyph glyph-name="uni20BA" unicode="&#x20ba;" horiz-adv-x="1103" 
d="M1016 383q-34 -181 -157 -283q-121 -100 -308 -100h-270v582l-215 -95v88l215 95v137l-215 -94v88l215 94v457h92v-416l465 203v-88l-465 -203v-137l465 202v-88l-465 -202v-533h178q152 0 252 83q99 82 123 235z" />
    <glyph glyph-name="uni20BD" unicode="&#x20bd;" horiz-adv-x="1128" 
d="M330 541v-133h413v-82h-413v-326h-92v326h-172v82h172v133h-172v82h172v729h315q217 2 330 -103q114 -105 114 -301q0 -198 -114 -303q-113 -104 -330 -104h-223zM330 1262v-639h223q177 0 261 78q85 79 85 241t-85 241t-261 79h-223z" />
    <glyph glyph-name="uni20BF" unicode="&#x20bf;" horiz-adv-x="1208" 
d="M976 117q-92 -96 -251 -113v-188h-82v184h-145v-184h-82v184h-164v1352h164v184h82v-184h120h25v184h82v-193q144 -22 221 -110q78 -89 78 -227q0 -128 -69 -200t-199 -87q148 -22 230 -115q81 -91 81 -239q0 -153 -91 -248zM344 1262v-535h274q308 0 308 266
q0 137 -76 203t-232 66h-274zM653 90q151 0 233 72q83 72 83 203q0 132 -81 204t-235 72h-309v-551h309z" />
    <glyph glyph-name="uni2113" unicode="&#x2113;" horiz-adv-x="931" 
d="M659 77q42 16 70 42l19 -101q-25 -17 -78 -31q-46 -12 -97 -12q-148 0 -240 116t-116 339l-147 -94l-47 70l188 118q-2 32 -2 74q0 229 52 404q52 176 146 276q92 98 214 98q96 0 154 -64q59 -65 59 -171q0 -151 -125 -315q-123 -161 -353 -308l-47 -31q15 -205 82 -315
q67 -111 182 -111q43 0 86 16zM460 1197q-72 -95 -112 -255q-41 -164 -41 -356l2 2q199 126 312 272q114 147 114 275q0 71 -33 113t-88 42q-84 0 -154 -93z" />
    <glyph glyph-name="uni2116" unicode="&#x2116;" horiz-adv-x="1796" 
d="M1214 721q-67 100 -67 278q0 177 67 277t199 100q134 0 201 -100t67 -277q0 -178 -67 -278t-201 -100q-132 0 -199 100zM358 1352l586 -1246v1246h92v-1352h-143l-586 1245v-1245h-92v1352h143zM1283 1219q-46 -79 -46 -218t46 -221t132 -82q84 0 130 82t46 221
q0 140 -46 219q-46 78 -130 78q-86 0 -132 -79zM1655 461h-481v78h481v-78z" />
    <glyph glyph-name="trademark" unicode="&#x2122;" horiz-adv-x="946" 
d="M147 1294h-135v58h336v-58h-135v-368h-66v368zM641 989l137 363h90v-426h-63v313l-119 -313h-90l-117 309v-309h-65v426h90z" />
    <glyph glyph-name="uni2126" unicode="&#x2126;" horiz-adv-x="1245" 
d="M1030 319q-72 -161 -201 -229h250v-90h-379v70q89 18 159 101t107 216q38 135 38 299q0 178 -48 319q-45 133 -133 210q-85 75 -200 75t-201 -75q-88 -77 -133 -210q-47 -138 -47 -319q0 -162 38 -297q38 -134 106 -217q69 -84 161 -102v-70h-381v90h250
q-129 68 -201 229q-72 162 -72 388q0 196 61 350q59 150 169 235q108 84 250 84q141 0 249 -84q110 -85 169 -235q61 -154 61 -350q0 -226 -72 -388z" />
    <glyph glyph-name="estimated" unicode="&#x212e;" 
d="M467 248q83 -86 201 -137q115 -50 241 -50q170 0 318 90q145 88 225 236h96q-83 -183 -257 -298q-173 -114 -382 -114q-189 0 -352 95q-161 94 -256 255q-94 160 -94 351t94 351q95 161 256 255t352 94q192 0 352 -94q161 -94 255 -255q94 -160 94 -351v-37h-1143v-391z
M668 1241q-118 -51 -201 -137v-379h883v379q-83 86 -200 137q-113 49 -241 49t-241 -49z" />
    <glyph glyph-name="arrowleft" unicode="&#x2190;" horiz-adv-x="1810" 
d="M1577 721v-90h-1245q188 -57 316 -177q128 -121 214 -319l-104 -18q-82 196 -202 314q-118 116 -323 206v78q209 95 327 211q117 115 200 309l102 -18q-80 -193 -209 -313t-321 -183h1245z" />
    <glyph glyph-name="arrowup" unicode="&#x2191;" horiz-adv-x="1810" 
d="M944 1348q90 -205 206 -323q118 -120 314 -202l-18 -104q-198 86 -319 214q-120 128 -177 316v-1245h-90v1245q-63 -192 -183 -321q-121 -130 -312 -209l-19 102q194 83 309 200q116 118 211 327h78z" />
    <glyph glyph-name="arrowright" unicode="&#x2192;" horiz-adv-x="1810" 
d="M1051 1235q84 -195 199 -309q118 -116 327 -211v-78q-205 -90 -323 -206q-118 -117 -201 -314l-105 18q86 198 214 319q127 120 317 177h-1246v90h1246q-194 64 -322 183q-129 120 -209 313z" />
    <glyph glyph-name="arrowdown" unicode="&#x2193;" horiz-adv-x="1810" 
d="M1464 532q-195 -84 -309 -199q-116 -118 -211 -327h-78q-90 205 -206 323q-117 118 -314 201l19 105q196 -85 318 -214q120 -127 177 -317v1246h90v-1246q63 192 184 322t312 209z" />
    <glyph glyph-name="arrowboth" unicode="&#x2194;" horiz-adv-x="2627" 
d="M1868 1235q84 -195 199 -309q118 -116 327 -211v-78q-203 -89 -322 -206q-120 -118 -202 -314l-105 18q86 198 214 319q127 120 317 177h-1964q188 -57 316 -177q128 -121 214 -319l-104 -18q-82 196 -202 314q-118 116 -323 206v78q209 95 327 211q117 115 200 309
l102 -18q-80 -193 -209 -313t-321 -183h1964q-194 64 -322 183q-129 120 -209 313z" />
    <glyph glyph-name="arrowupdn" unicode="&#x2195;" horiz-adv-x="1810" 
d="M1134 115q121 130 312 209l18 -103q-195 -84 -309 -199q-116 -118 -211 -327h-78q-89 203 -206 322q-118 120 -314 202l19 105q196 -85 318 -214q120 -127 177 -317v1768q-57 -190 -177 -317q-122 -129 -318 -214l-19 105q197 83 314 201q116 118 206 323h78
q95 -209 211 -327q114 -115 309 -199l-18 -103q-191 79 -312 209t-184 322v-1768q63 192 184 322z" />
    <glyph glyph-name="uni2196" unicode="&#x2196;" horiz-adv-x="1810" 
d="M1411 236l-63 -66l-881 881q100 -188 100 -373q0 -171 -75 -352l-86 61q79 194 79 358q0 167 -84 379l56 56q222 -82 387 -82q166 0 352 78l61 -86q-181 -74 -344 -74q-188 0 -383 98z" />
    <glyph glyph-name="uni2197" unicode="&#x2197;" horiz-adv-x="1810" 
d="M1411 1124q-84 -212 -84 -379q0 -162 80 -358l-86 -61q-76 183 -76 352q0 183 101 373l-881 -881l-64 66l881 878q-195 -98 -383 -98q-164 0 -344 74l61 86q186 -78 353 -78q165 0 387 82z" />
    <glyph glyph-name="uni2198" unicode="&#x2198;" horiz-adv-x="1810" 
d="M1405 965q-78 -186 -78 -353q0 -165 82 -387l-55 -55q-212 84 -379 84q-163 0 -359 -80l-61 86q183 76 352 76q185 0 373 -100l-881 880l66 64l878 -881q-98 195 -98 383q0 164 74 344z" />
    <glyph glyph-name="uni2199" unicode="&#x2199;" horiz-adv-x="1810" 
d="M530 236q188 100 373 100q169 0 352 -76l-61 -86q-196 80 -358 80q-167 0 -379 -84l-56 55q82 222 82 387q0 169 -77 353l86 61q73 -179 73 -344q0 -188 -98 -383l879 881l65 -64z" />
    <glyph glyph-name="partialdiff" unicode="&#x2202;" horiz-adv-x="987" 
d="M770 1207q98 -168 98 -527q0 -356 -96 -530q-97 -175 -295 -175q-170 0 -269 118q-99 119 -99 321q0 132 43 231q44 102 120 156q77 55 181 55q123 0 206 -80t105 -219q6 67 6 143q0 306 -76 448t-237 142q-119 0 -250 -84l18 111q111 59 238 59q208 0 307 -169zM668 158
q73 95 73 258q0 170 -69 262t-199 92q-128 0 -197 -91t-69 -259t69 -263q70 -96 193 -96q125 0 199 97z" />
    <glyph glyph-name="uni2206" unicode="&#x2206;" horiz-adv-x="1083" 
d="M471 1352h143l363 -1262v-90h-871v90zM881 90l-338 1176l-340 -1176h678z" />
    <glyph glyph-name="product" unicode="&#x220f;" horiz-adv-x="1234" 
d="M1165 1434v-91h-262v-1609h-92v1609h-385v-1609h-92v1609h-264v91h1095z" />
    <glyph glyph-name="summation" unicode="&#x2211;" horiz-adv-x="1050" 
d="M190 1434h670v-91h-565l385 -679v-140l-385 -680h565v-90h-670v90l424 750l-424 749v91z" />
    <glyph glyph-name="minus" unicode="&#x2212;" horiz-adv-x="1003" 
d="M78 631v90h848v-90h-848z" />
    <glyph glyph-name="uni2219" unicode="&#x2219;" horiz-adv-x="1003" 
d="M453 778h98v-205h-98v205z" />
    <glyph glyph-name="radical" unicode="&#x221a;" horiz-adv-x="1402" 
d="M899 1434h434v-91h-362l-500 -1630h-143l-246 787h98l219 -717z" />
    <glyph glyph-name="infinity" unicode="&#x221e;" horiz-adv-x="1419" 
d="M1229 996q76 -110 76 -320q0 -212 -76 -324t-217 -112q-120 0 -199 84t-102 231q-24 -145 -105 -231q-80 -84 -196 -84q-143 0 -219 112t-76 324q0 207 76 319q77 113 219 113q117 0 197 -83q79 -82 102 -230q24 147 104 230t199 83q140 0 217 -112zM575 401
q62 80 119 275q-57 193 -117 272q-60 78 -155 78q-213 0 -213 -350q0 -354 213 -354q92 0 153 79zM1210 676q0 350 -213 350q-93 0 -153 -78q-60 -79 -117 -272q57 -194 118 -275q60 -79 152 -79q213 0 213 354z" />
    <glyph glyph-name="integral" unicode="&#x222b;" horiz-adv-x="1048" 
d="M37 -295q50 -53 139 -53q87 0 137 65q51 66 72 205l186 1202q28 175 98 255q69 79 195 79q91 0 164 -43l-18 -96q-50 53 -138 53q-78 0 -122 -42q-43 -42 -60 -95q-15 -49 -28 -131l-187 -1202q-51 -336 -293 -336q-89 0 -162 41z" />
    <glyph glyph-name="approxequal" unicode="&#x2248;" horiz-adv-x="1003" 
d="M78 762q15 92 79 150q65 59 154 59q57 0 103 -20q47 -21 78 -40q22 -14 43 -26q58 -33 94 -49q35 -15 67 -15q54 0 92 38t46 102l94 -17q-12 -88 -79 -149q-66 -60 -159 -60q-56 0 -103 21t-76 40q-8 5 -16.5 10.5t-13 8.5t-6.5 4q-58 36 -93 50q-40 16 -71 16
q-55 0 -94 -39t-43 -98zM78 412q15 92 79 150q65 59 154 59q57 0 103 -20q47 -21 78 -40q22 -14 43 -26q65 -37 94 -50q32 -14 67 -14q54 0 92 38q39 39 46 101l94 -16q-12 -89 -79 -150q-65 -59 -159 -59q-56 0 -103 21q-52 24 -76 39q-30 19 -36 24q-58 36 -93 50
q-40 16 -71 16q-55 0 -94 -39q-38 -38 -43 -99z" />
    <glyph glyph-name="notequal" unicode="&#x2260;" horiz-adv-x="1003" 
d="M903 879v-91h-291l-127 -225h418v-90h-469l-117 -205h-94l117 205h-240v90h289l129 225h-418v91h467l117 204h96l-116 -204h239z" />
    <glyph glyph-name="lessequal" unicode="&#x2264;" horiz-adv-x="1003" 
d="M143 834l717 188v-90l-600 -158l600 -158v-90l-717 189v119zM860 328h-717v90h717v-90z" />
    <glyph glyph-name="greaterequal" unicode="&#x2265;" horiz-adv-x="1003" 
d="M143 932v90l717 -188v-119l-717 -189v90l600 158zM860 328h-717v90h717v-90z" />
    <glyph glyph-name="uni2460" unicode="&#x2460;" horiz-adv-x="1957" 
d="M1417 1435q202 -119 320 -319t118 -438q0 -243 -117 -441q-119 -201 -320 -320q-200 -118 -437 -118q-241 0 -441 118q-201 119 -320 320q-118 200 -118 441q0 238 118 438t320 319q198 117 441 117q238 0 436 -117zM1374 -10q183 108 291 291q109 185 109 397
q0 210 -109 395q-107 181 -291 290q-181 107 -393 107q-217 0 -398 -107q-184 -109 -291 -290q-108 -183 -108 -395q0 -215 108 -398t291 -291t398 -108q208 0 393 109zM709 846q103 0 174 65t100 183h82v-838h-86v741q-21 -118 -92 -183q-72 -66 -178 -66v98z" />
    <glyph glyph-name="uni2461" unicode="&#x2461;" horiz-adv-x="1957" 
d="M1417 1435q202 -119 320 -319t118 -438q0 -243 -117 -441q-119 -201 -320 -320q-200 -118 -437 -118q-241 0 -441 118q-201 119 -320 320q-118 200 -118 441q0 238 118 438t320 319q198 117 441 117q238 0 436 -117zM1374 -10q183 108 291 291q109 185 109 397
q0 210 -109 395q-107 181 -291 290q-181 107 -393 107q-217 0 -398 -107q-184 -109 -291 -290q-108 -183 -108 -395q0 -215 108 -398t291 -291t398 -108q208 0 393 109zM1087 572q-116 -138 -331 -238h448v-78h-516v74q209 129 319 264q111 136 111 264q0 81 -46 127
q-47 47 -120 47q-76 0 -121 -49t-45 -131q0 -9 5 -51l-97 24q-2 14 -2 33q0 110 72 181q73 71 188 71q116 0 185 -69t69 -181q0 -146 -119 -288z" />
    <glyph glyph-name="uni2462" unicode="&#x2462;" horiz-adv-x="1957" 
d="M1418 -83q201 119 320 320q117 198 117 441q0 238 -118 438t-320 319q-198 117 -436 117q-243 0 -441 -117q-202 -119 -320 -319t-118 -438q0 -241 118 -441q119 -201 320 -320q200 -118 441 -118q237 0 437 118zM583 -11q-183 108 -291 291t-108 398q0 212 108 395
q107 181 291 290q181 107 398 107q212 0 393 -107q184 -109 291 -290q109 -185 109 -395q0 -212 -109 -397q-108 -183 -291 -291q-185 -109 -393 -109q-215 0 -398 108zM774 506q1 -91 52 -140t137 -49q81 0 130 44q48 44 48 118q0 76 -55 120t-144 44h-80v74h80
q77 0 126 46q50 47 50 118q0 67 -43 109t-112 42q-76 0 -121 -51t-45 -137l-95 24q6 109 77 175q72 67 184 67q109 0 177 -61t68 -158q0 -156 -190 -180q103 -17 158 -78t55 -158q0 -107 -74 -170q-73 -63 -194 -63q-125 0 -202 66q-76 66 -81 173z" />
    <glyph glyph-name="uni2463" unicode="&#x2463;" horiz-adv-x="1957" 
d="M1418 -83q201 119 320 320q117 198 117 441q0 238 -118 438t-320 319q-198 117 -436 117q-243 0 -441 -117q-202 -119 -320 -319t-118 -438q0 -241 118 -441q119 -201 320 -320q200 -118 441 -118q237 0 437 118zM583 -11q-183 108 -291 291t-108 398q0 212 108 395
q107 181 291 290q181 107 398 107q212 0 393 -107q184 -109 291 -290q109 -185 109 -395q0 -212 -109 -397q-108 -183 -291 -291q-185 -109 -393 -109q-215 0 -398 108zM1065 256v201h-395v73q118 119 167 248q50 130 50 316h94q0 -180 -68 -322t-196 -237h348v231h86v-231
h123v-78h-123v-201h-86z" />
    <glyph glyph-name="uni2464" unicode="&#x2464;" horiz-adv-x="1957" 
d="M1418 -83q201 119 320 320q117 198 117 441q0 238 -118 438t-320 319q-198 117 -436 117q-243 0 -441 -117q-202 -119 -320 -319t-118 -438q0 -241 118 -441q119 -201 320 -320q200 -118 441 -118q237 0 437 118zM583 -11q-183 108 -291 291t-108 398q0 212 108 395
q107 181 291 290q181 107 398 107q212 0 393 -107q184 -109 291 -290q109 -185 109 -395q0 -212 -109 -397q-108 -183 -291 -291q-185 -109 -393 -109q-215 0 -398 108zM772 309q-75 67 -80 178l96 25q-4 -85 46 -140t135 -55q86 0 133 55t47 150q0 96 -46 148
q-47 53 -130 53q-61 0 -108 -27q-45 -26 -68 -67l-84 33l24 432h469v-78h-385l-22 -342q29 57 81 90t117 33q109 0 175 -75q67 -76 67 -200q0 -130 -73 -206q-71 -74 -197 -74q-121 0 -197 67z" />
    <glyph glyph-name="uni2465" unicode="&#x2465;" horiz-adv-x="1957" 
d="M1418 -83q201 119 320 320q117 198 117 441q0 238 -118 438t-320 319q-198 117 -436 117q-243 0 -441 -117q-202 -119 -320 -319t-118 -438q0 -241 118 -441q119 -201 320 -320q200 -118 441 -118q237 0 437 118zM583 -11q-183 108 -291 291t-108 398q0 212 108 395
q107 181 291 290q181 107 398 107q212 0 393 -107q184 -109 291 -290q109 -185 109 -395q0 -212 -109 -397q-108 -183 -291 -291q-185 -109 -393 -109q-215 0 -398 108zM692 676q0 211 72 322q73 112 209 112q99 0 166 -55t88 -148l-94 -24q-7 65 -53 108q-44 41 -107 41
q-95 0 -143 -90t-48 -262q0 -41 4 -88q12 91 71 147t147 56q108 0 174 -77q65 -75 65 -202q0 -126 -73 -202q-71 -74 -193 -74q-285 0 -285 436zM1106 371q47 56 47 147q0 96 -46 148q-47 53 -128 53q-83 0 -130 -53q-46 -52 -46 -148q0 -89 48 -146t126 -57q82 0 129 56z
" />
    <glyph glyph-name="uni2466" unicode="&#x2466;" horiz-adv-x="1957" 
d="M1417 1435q202 -119 320 -319t118 -438q0 -243 -117 -441q-119 -201 -320 -320q-200 -118 -437 -118q-241 0 -441 118q-201 119 -320 320q-118 200 -118 441q0 238 118 438t320 319q198 117 441 117q238 0 436 -117zM1374 -10q183 108 291 291q109 185 109 397
q0 210 -109 395q-107 181 -291 290q-181 107 -393 107q-217 0 -398 -107q-184 -109 -291 -290q-108 -183 -108 -395q0 -215 108 -398t291 -291t398 -108q208 0 393 109zM651 1016v78h592v-74q-166 -135 -239 -306q-72 -169 -72 -425v-33h-94v33q0 264 84 435t272 292h-543z
" />
    <glyph glyph-name="uni2467" unicode="&#x2467;" horiz-adv-x="1957" 
d="M1418 -83q201 119 320 320q117 198 117 441q0 238 -118 438t-320 319q-198 117 -436 117q-243 0 -441 -117q-202 -119 -320 -319t-118 -438q0 -241 118 -441q119 -201 320 -320q200 -118 441 -118q237 0 437 118zM583 -11q-183 108 -291 291t-108 398q0 212 108 395
q107 181 291 290q181 107 398 107q212 0 393 -107q184 -109 291 -290q109 -185 109 -395q0 -212 -109 -397q-108 -183 -291 -291q-185 -109 -393 -109q-215 0 -398 108zM737 636q57 63 156 81q-89 15 -136 61q-48 46 -48 121q0 92 73 152q72 59 185 59q112 0 183 -59
q73 -61 73 -152q0 -74 -47 -121q-46 -46 -136 -61q97 -18 154 -81t57 -151q0 -106 -80 -175q-78 -68 -204 -68t-206 68q-81 69 -81 175q0 88 57 151zM847 767q49 -44 120 -44t118 44q48 45 48 112q0 65 -48 110q-46 43 -118 43q-75 0 -121 -43q-47 -44 -47 -110
q0 -69 48 -112zM825 365q57 -48 142 -48q81 0 140 48q56 46 56 120q0 72 -55 118t-141 46q-90 0 -143 -46q-54 -47 -54 -118q0 -74 55 -120z" />
    <glyph glyph-name="uni2468" unicode="&#x2468;" horiz-adv-x="1957" 
d="M1418 -83q201 119 320 320q117 198 117 441q0 238 -118 438t-320 319q-198 117 -436 117q-243 0 -441 -117q-202 -119 -320 -319t-118 -438q0 -241 118 -441q119 -201 320 -320q200 -118 441 -118q237 0 437 118zM583 -11q-183 108 -291 291t-108 398q0 212 108 395
q107 181 291 290q181 107 398 107q212 0 393 -107q184 -109 291 -290q109 -185 109 -395q0 -212 -109 -397q-108 -183 -291 -291q-185 -109 -393 -109q-215 0 -398 108zM1237 674q0 -212 -72 -323t-209 -111q-98 0 -165 55q-68 56 -89 147l95 25q8 -68 52 -109t107 -41
q94 0 143 91q48 90 48 262q0 41 -4 88q-12 -92 -71 -148q-58 -55 -146 -55q-108 0 -174 77q-66 76 -66 202q0 125 73 201q72 75 193 75q285 0 285 -436zM823 979q-47 -56 -47 -148q0 -95 46 -147q47 -53 128 -53q83 0 130 53q46 52 46 147q0 90 -48 147q-47 56 -126 56
q-83 0 -129 -55z" />
    <glyph glyph-name="uni24EA" unicode="&#x24ea;" horiz-adv-x="1957" 
d="M1418 -83q201 119 320 320q117 198 117 441q0 238 -118 438t-320 319q-198 117 -436 117q-243 0 -441 -117q-202 -119 -320 -319t-118 -438q0 -241 118 -441q119 -201 320 -320q200 -118 441 -118q237 0 437 118zM583 -11q-183 108 -291 291t-108 398q0 212 108 395
q107 181 291 290q181 107 398 107q212 0 393 -107q184 -109 291 -290q109 -185 109 -395q0 -212 -109 -397q-108 -183 -291 -291q-185 -109 -393 -109q-215 0 -398 108zM761 354q-77 113 -77 322q0 206 78 320t217 114q141 0 218 -114q77 -115 77 -320q0 -206 -77 -321
q-76 -113 -218 -113t-218 112zM1130 410q54 94 54 266q0 170 -54 264q-53 92 -151 92q-99 0 -152 -93q-53 -94 -53 -263q0 -171 53 -265t152 -94q98 0 151 93z" />
    <glyph glyph-name="uni24FF" unicode="&#x24ff;" horiz-adv-x="1957" 
d="M1418 -83q201 119 320 320q117 198 117 441q0 238 -118 438t-320 319q-198 117 -436 117q-243 0 -441 -117q-202 -119 -320 -319t-118 -438q0 -241 118 -441q119 -201 320 -320q200 -118 441 -118q237 0 437 118zM761 354q-77 113 -77 322q0 206 78 320t217 114
q141 0 218 -114q77 -115 77 -320q0 -206 -77 -321q-76 -113 -218 -113t-218 112zM1130 410q54 94 54 266q0 170 -54 264q-53 92 -151 92q-99 0 -152 -93q-53 -94 -53 -263q0 -171 53 -265t152 -94q98 0 151 93z" />
    <glyph glyph-name="triagup" unicode="&#x25b2;" 
d="M909 1370l836 -1370h-1671z" />
    <glyph glyph-name="uni25B3" unicode="&#x25b3;" 
d="M909 1372l836 -1372h-1671zM221 84h1376l-688 1130z" />
    <glyph glyph-name="uni25B6" unicode="&#x25b6;" 
d="M285 -160v1671l1370 -835z" />
    <glyph glyph-name="uni25B7" unicode="&#x25b7;" 
d="M285 -160v1671l1372 -835zM1499 676l-1130 688v-1376z" />
    <glyph glyph-name="triagdn" unicode="&#x25bc;" 
d="M74 1352h1671l-836 -1370z" />
    <glyph glyph-name="uni25BD" unicode="&#x25bd;" 
d="M74 1352h1671l-836 -1372zM909 137l688 1131h-1376z" />
    <glyph glyph-name="uni25C0" unicode="&#x25c0;" 
d="M1532 1513v-1671l-1370 836z" />
    <glyph glyph-name="uni25C1" unicode="&#x25c1;" 
d="M1534 1513v-1671l-1372 836zM319 678l1131 -688v1376z" />
    <glyph glyph-name="lozenge" unicode="&#x25ca;" 
d="M907 -160l-833 836l835 835l834 -835zM909 1395l-721 -719l719 -719l721 719z" />
    <glyph glyph-name="uni25E7" unicode="&#x25e7;" 
d="M174 -57v1466h1468v-1466h-1468zM909 25h652v1302h-652v-1302z" />
    <glyph glyph-name="uni25E8" unicode="&#x25e8;" 
d="M174 -57v1466h1468v-1466h-1468zM907 1327h-651v-1302h651v1302z" />
    <glyph glyph-name="uni25E9" unicode="&#x25e9;" 
d="M1642 -57h-1468v1466h1468v-1466zM1561 1327l-1305 -1302h1305v1302z" />
    <glyph glyph-name="uni25EA" unicode="&#x25ea;" 
d="M174 1409h1468v-1466h-1468v1466zM256 25l1305 1302h-1305v-1302z" />
    <glyph glyph-name="uni2600" unicode="&#x2600;" 
d="M565 649q29 -1 47 -20q19 -19 19 -45q0 -35 -33 -56l-434 -280l463 233q16 8 32 8q28 0 46 -19q18 -20 18 -46q0 -17 -8 -33l-236 -459l283 433q20 32 57 32q25 0 43 -18q20 -20 21 -47l26 -516l29 514q2 28 20 47q18 18 43 18q37 0 58 -33l280 -432l-235 461
q-8 16 -8 33q0 27 18 45t45 18q17 0 33 -8l463 -233l-434 282q-33 21 -33 56q0 27 18 45q18 19 47 20l516 27l-516 26q-27 1 -47 21q-18 18 -18 45q0 34 33 55l434 283l-461 -234q-16 -8 -33 -8q-26 0 -45 19q-18 18 -18 45q0 17 8 33l233 460l-280 -432q-21 -33 -58 -33
q-24 0 -43 19q-18 19 -20 47l-29 514l-26 -514q-1 -27 -21 -47q-19 -19 -43 -19q-36 0 -57 33l-281 434l234 -462q8 -16 8 -33q0 -27 -20 -45q-21 -19 -46 -19q-16 0 -32 8l-459 236l432 -283q33 -21 33 -55q0 -26 -19 -45q-18 -19 -47 -20l-516 -27z" />
    <glyph glyph-name="sun" unicode="&#x263c;" 
d="M565 649q29 -1 47 -20q19 -19 19 -45q0 -35 -33 -56l-434 -280l463 233q16 8 32 8q28 0 46 -19q18 -20 18 -46q0 -17 -8 -33l-236 -459l283 433q20 32 57 32q25 0 43 -18q20 -20 21 -47l26 -516l29 514q2 28 20 47q18 18 43 18q37 0 58 -33l280 -432l-235 461
q-8 16 -8 33q0 27 18 45t45 18q17 0 33 -8l463 -233l-434 282q-33 21 -33 56q0 27 18 45q18 19 47 20l516 27l-516 26q-27 1 -47 21q-18 18 -18 45q0 34 33 55l434 283l-461 -234q-16 -8 -33 -8q-26 0 -45 19q-18 18 -18 45q0 17 8 33l233 460l-280 -432q-21 -33 -58 -33
q-24 0 -43 19q-18 19 -20 47l-29 514l-26 -514q-1 -27 -21 -47q-19 -19 -43 -19q-36 0 -57 33l-281 434l234 -462q8 -16 8 -33q0 -27 -20 -45q-21 -19 -46 -19q-16 0 -32 8l-459 236l432 -283q33 -21 33 -55q0 -26 -19 -45q-18 -19 -47 -20l-516 -27zM759 525
q-63 63 -63 151q0 87 63 150t150 63q88 0 151 -63q62 -62 62 -150q0 -89 -62 -151t-151 -62q-88 0 -150 62z" />
    <glyph glyph-name="uni263D" unicode="&#x263d;" 
d="M399 172q157 -98 351 -98q184 0 341 92q154 90 247 249q92 157 92 341q0 172 -83 323q-82 149 -227 244q-143 94 -313 109q28 2 61 2q203 0 379 -103q175 -103 277 -275t102 -378q0 -205 -102 -380t-277 -278q-174 -102 -379 -102q-164 0 -309 66q-147 67 -252 182
q-106 117 -157 266q89 -160 249 -260z" />
    <glyph glyph-name="uni2661" unicode="&#x2661;" 
d="M1544 1376q97 -57 149 -162q52 -104 52 -241q0 -157 -78 -300q-77 -141 -257 -307q-178 -165 -501 -391q-319 223 -500 391q-180 166 -257 307q-78 143 -78 300q0 137 52 241q53 105 148 162q98 58 222 58q191 0 302 -126t111 -341q0 214 112 341q111 126 302 126
q123 0 221 -58zM1365 435q158 146 229 274q69 125 69 264q0 173 -92 276t-248 103q-178 0 -271 -138q-91 -136 -91 -409v-31h-103v31q0 273 -91 409q-93 138 -271 138q-156 0 -248 -103t-92 -276q0 -141 68 -264q70 -126 230 -274q159 -147 455 -359q300 215 456 359z" />
    <glyph glyph-name="heart" unicode="&#x2665;" 
d="M126 1214q53 105 148 162q98 58 222 58q191 0 302 -126t111 -341q0 214 112 341q111 126 302 126q123 0 221 -58q97 -57 149 -162q52 -104 52 -241q0 -157 -78 -300q-77 -141 -257 -307q-178 -165 -501 -391q-319 223 -500 391q-180 166 -257 307q-78 143 -78 300
q0 137 52 241z" />
    <glyph glyph-name="uni267B" unicode="&#x267b;" 
d="M920 1264l-265 -449l-77 41l290 496h103l336 -586q-29 78 -29 137q0 82 51 160l64 -51q-40 -52 -58 -105t-18 -119q0 -25 4 -69l-61 -35q-62 48 -116 68t-124 20q-23 0 -45 -2l-17 82q84 4 150 -27q64 -30 123 -106zM229 88h527v-88h-578l-53 88l350 594
q-60 -72 -123 -102q-66 -31 -145 -27l12 80q33 -4 53 -4q64 0 120 22q53 21 116 68l61 -37q-6 -38 -6 -70q0 -113 74 -219l-62 -55q-53 80 -53 162q0 59 31 141zM1694 88l-54 -88h-673q95 -16 149 -54q57 -40 96 -114l-75 -29q-32 75 -83 124q-50 49 -134 83v70
q79 33 131 80t86 123l77 -27q-39 -78 -97 -117q-59 -39 -154 -51h630l-260 455l76 47z" />
    <glyph glyph-name="uni2713" unicode="&#x2713;" 
d="M784 127l856 1225l78 -52l-909 -1300l-711 496l54 75z" />
    <glyph glyph-name="uni2726" unicode="&#x2726;" 
d="M1667 676l-715 -43l-45 -715l-43 715l-714 43l714 45l43 713l45 -713z" />
    <glyph glyph-name="uni2728" unicode="&#x2728;" 
d="M188 1176q41 0 67 -26t26 -67v-196h28v196q0 41 26 67t64 26h199v28h-199q-38 0 -64 26t-26 64v199h-28v-199q0 -38 -26 -64t-67 -26h-196v-28h196zM997 866q83 0 142 -59t59 -141v-396h29v396q0 84 57 142t139 58h402v29h-402q-82 0 -139 58q-57 59 -57 141v399h-29
v-399q0 -83 -59 -141t-142 -58h-397v-29h397zM451 246q53 0 90 -37t37 -88v-262h28v262q0 53 36 89t89 36h264v28h-264q-53 0 -89 37t-36 90v265h-28v-265q0 -53 -37 -90t-90 -37h-263v-28h263z" />
    <glyph glyph-name="uni2734" unicode="&#x2734;" 
d="M1667 676l-663 -39l440 -498l-496 441l-41 -662l-39 664l-495 -443l438 498l-661 39l661 41l-438 493l495 -438l39 662l41 -660l496 438l-440 -495z" />
    <glyph glyph-name="uni2736" unicode="&#x2736;" 
d="M1565 1055l-576 -379l576 -379l-615 307l-43 -686l-41 686l-614 -307l575 379l-575 379l614 -307l41 686l43 -689z" />
    <glyph glyph-name="uni2747" unicode="&#x2747;" 
d="M672 659q90 0 155 -65q66 -66 66 -156v-438h29v438q0 91 65 156t156 65h442v29h-442q-90 0 -156 66q-65 65 -65 155v443h-29v-443q0 -89 -66 -155t-155 -66h-439v-29h439z" />
    <glyph glyph-name="uni274C" unicode="&#x274c;" 
d="M1516 1350l67 -66l-608 -608l608 -610l-63 -66l-611 610l-606 -606l-70 64l609 608l-611 608l66 68l610 -611z" />
    <glyph glyph-name="uni2776" unicode="&#x2776;" horiz-adv-x="1957" 
d="M1417 1435q202 -119 320 -319t118 -438q0 -243 -117 -441q-119 -201 -320 -320q-200 -118 -437 -118q-241 0 -441 118q-201 119 -320 320q-118 200 -118 441q0 238 118 438t320 319q198 117 441 117q238 0 436 -117zM1065 256v838h-82q-29 -118 -100 -183t-174 -65v-98
q106 0 178 66q71 65 92 183v-741h86z" />
    <glyph glyph-name="uni2777" unicode="&#x2777;" horiz-adv-x="1957" 
d="M1417 1435q202 -119 320 -319t118 -438q0 -243 -117 -441q-119 -201 -320 -320q-200 -118 -437 -118q-241 0 -441 118q-201 119 -320 320q-118 200 -118 441q0 238 118 438t320 319q198 117 441 117q238 0 436 -117zM1190 334h-449q217 101 332 238q119 142 119 288
q0 111 -70 181q-69 69 -184 69q-126 0 -198 -80t-60 -205l96 -24q-4 33 -4 51q0 82 45 131t121 49q73 0 120 -47q46 -46 46 -127q0 -126 -112 -264q-111 -136 -318 -264v-74h516v78z" />
    <glyph glyph-name="uni2778" unicode="&#x2778;" horiz-adv-x="1957" 
d="M1418 -83q201 119 320 320q117 198 117 441q0 238 -118 438t-320 319q-198 117 -436 117q-243 0 -441 -117q-202 -119 -320 -319t-118 -438q0 -241 118 -441q119 -201 320 -320q200 -118 441 -118q237 0 437 118zM774 506q1 -91 52 -140t137 -49q81 0 130 44
q48 44 48 118q0 76 -55 120t-144 44h-80v74h80q77 0 126 46q50 47 50 118q0 67 -43 109t-112 42q-76 0 -121 -51t-45 -137l-95 24q6 109 77 175q72 67 184 67q109 0 177 -61t68 -158q0 -156 -190 -180q103 -17 158 -78t55 -158q0 -107 -74 -170q-73 -63 -194 -63
q-125 0 -202 66q-76 66 -81 173z" />
    <glyph glyph-name="uni2779" unicode="&#x2779;" horiz-adv-x="1957" 
d="M1418 -83q201 119 320 320q117 198 117 441q0 238 -118 438t-320 319q-198 117 -436 117q-243 0 -441 -117q-202 -119 -320 -319t-118 -438q0 -241 118 -441q119 -201 320 -320q200 -118 441 -118q237 0 437 118zM1065 256v201h-395v73q118 119 167 248q50 130 50 316h94
q0 -180 -68 -322t-196 -237h348v231h86v-231h123v-78h-123v-201h-86z" />
    <glyph glyph-name="uni277A" unicode="&#x277a;" horiz-adv-x="1957" 
d="M1418 -83q201 119 320 320q117 198 117 441q0 238 -118 438t-320 319q-198 117 -436 117q-243 0 -441 -117q-202 -119 -320 -319t-118 -438q0 -241 118 -441q119 -201 320 -320q200 -118 441 -118q237 0 437 118zM772 309q-75 67 -80 178l96 25q-4 -85 46 -140t135 -55
q86 0 133 55t47 150q0 96 -46 148q-47 53 -130 53q-61 0 -108 -27q-45 -26 -68 -67l-84 33l24 432h469v-78h-385l-22 -342q29 57 81 90t117 33q109 0 175 -75q67 -76 67 -200q0 -130 -73 -206q-71 -74 -197 -74q-121 0 -197 67z" />
    <glyph glyph-name="uni277B" unicode="&#x277b;" horiz-adv-x="1957" 
d="M1418 -83q201 119 320 320q117 198 117 441q0 238 -118 438t-320 319q-198 117 -436 117q-243 0 -441 -117q-202 -119 -320 -319t-118 -438q0 -241 118 -441q119 -201 320 -320q200 -118 441 -118q237 0 437 118zM692 676q0 211 72 322q73 112 209 112q99 0 166 -55
t88 -148l-94 -24q-7 65 -53 108q-44 41 -107 41q-95 0 -143 -90t-48 -262q0 -41 4 -88q12 91 71 147t147 56q108 0 174 -77q65 -75 65 -202q0 -126 -73 -202q-71 -74 -193 -74q-285 0 -285 436zM1106 371q47 56 47 147q0 96 -46 148q-47 53 -128 53q-83 0 -130 -53
q-46 -52 -46 -148q0 -89 48 -146t126 -57q82 0 129 56z" />
    <glyph glyph-name="uni277C" unicode="&#x277c;" horiz-adv-x="1957" 
d="M1417 1435q202 -119 320 -319t118 -438q0 -243 -117 -441q-119 -201 -320 -320q-200 -118 -437 -118q-241 0 -441 118q-201 119 -320 320q-118 200 -118 441q0 238 118 438t320 319q198 117 441 117q238 0 436 -117zM1243 1094h-592v-78h543q-188 -121 -272 -292
t-84 -435v-33h94v33q0 255 72 425q73 171 239 306v74z" />
    <glyph glyph-name="uni277D" unicode="&#x277d;" horiz-adv-x="1957" 
d="M1418 -83q201 119 320 320q117 198 117 441q0 238 -118 438t-320 319q-198 117 -436 117q-243 0 -441 -117q-202 -119 -320 -319t-118 -438q0 -241 118 -441q119 -201 320 -320q200 -118 441 -118q237 0 437 118zM737 636q57 63 156 81q-89 15 -136 61q-48 46 -48 121
q0 92 73 152q72 59 185 59q112 0 183 -59q73 -61 73 -152q0 -74 -47 -121q-46 -46 -136 -61q97 -18 154 -81t57 -151q0 -106 -80 -175q-78 -68 -204 -68t-206 68q-81 69 -81 175q0 88 57 151zM847 767q49 -44 120 -44t118 44q48 45 48 112q0 65 -48 110q-46 43 -118 43
q-75 0 -121 -43q-47 -44 -47 -110q0 -69 48 -112zM825 365q57 -48 142 -48q81 0 140 48q56 46 56 120q0 72 -55 118t-141 46q-90 0 -143 -46q-54 -47 -54 -118q0 -74 55 -120z" />
    <glyph glyph-name="uni277E" unicode="&#x277e;" horiz-adv-x="1957" 
d="M1418 -83q201 119 320 320q117 198 117 441q0 238 -118 438t-320 319q-198 117 -436 117q-243 0 -441 -117q-202 -119 -320 -319t-118 -438q0 -241 118 -441q119 -201 320 -320q200 -118 441 -118q237 0 437 118zM1237 674q0 -212 -72 -323t-209 -111q-98 0 -165 55
q-68 56 -89 147l95 25q8 -68 52 -109t107 -41q94 0 143 91q48 90 48 262q0 41 -4 88q-12 -92 -71 -148q-58 -55 -146 -55q-108 0 -174 77q-66 76 -66 202q0 125 73 201q72 75 193 75q285 0 285 -436zM823 979q-47 -56 -47 -148q0 -95 46 -147q47 -53 128 -53q83 0 130 53
q46 52 46 147q0 90 -48 147q-47 56 -126 56q-83 0 -129 -55z" />
    <glyph glyph-name="uni27F5" unicode="&#x27f5;" horiz-adv-x="2816" 
d="M2583 631h-2251q188 -57 316 -177q128 -121 214 -319l-104 -18q-82 196 -202 314q-118 116 -323 206v78q209 95 327 211q117 115 200 309l102 -18q-80 -193 -209 -313t-321 -183h2251v-90z" />
    <glyph glyph-name="uni27F6" unicode="&#x27f6;" horiz-adv-x="2816" 
d="M2056 1235q83 -194 200 -309q118 -116 327 -211v-78q-205 -90 -323 -206q-120 -118 -202 -314l-104 18q86 198 214 319q128 120 316 177h-2251v90h2251q-192 63 -321 183t-209 313z" />
    <glyph glyph-name="uni27F7" unicode="&#x27f7;" horiz-adv-x="3364" 
d="M2605 1235q83 -194 200 -309q118 -117 326 -211v-78q-203 -89 -322 -206q-120 -118 -202 -314l-104 18q86 198 214 319q128 120 316 177h-2701q188 -57 316 -177q128 -121 214 -319l-104 -18q-82 196 -202 314q-118 116 -323 206v78q209 95 327 211q117 115 200 309
l102 -18q-80 -193 -209 -313t-321 -183h2701q-192 63 -321 183t-209 313z" />
    <glyph glyph-name="uni2B12" unicode="&#x2b12;" 
d="M176 -57v1468h1466v-1468h-1466zM258 676v-651h1303v651h-1303z" />
    <glyph glyph-name="uni2B13" unicode="&#x2b13;" 
d="M176 -59v1468h1466v-1468h-1466zM1561 676v651h-1303v-651h1303z" />
    <glyph glyph-name="uni2B14" unicode="&#x2b14;" 
d="M1642 1409v-1466h-1468v1466h1468zM256 25h1305l-1305 1302v-1302z" />
    <glyph glyph-name="uni2B15" unicode="&#x2b15;" 
d="M174 -57v1466h1468v-1466h-1468zM1561 1327h-1305l1305 -1302v1302z" />
    <glyph glyph-name="uni2B1B" unicode="&#x2b1b;" 
d="M174 -57v1466h1468v-1466h-1468z" />
    <glyph glyph-name="uni2B1C" unicode="&#x2b1c;" 
d="M174 -57v1466h1468v-1466h-1468zM1561 1327h-1305v-1302h1305v1302z" />
    <glyph glyph-name="uniF8FF" unicode="&#xf8ff;" horiz-adv-x="1492" 
d="M473 0h-301v1352h485l50 -588l14 -293h41l14 293l49 588h498v-1352h-324v735h-41l-12 -221l-78 -514h-264l-76 514l-16 221h-39v-735zM1329 -346h-1165v266h1165v-266z" />
    <glyph glyph-name="u1F310" unicode="&#x1f310;" 
d="M1288 1331q175 -103 277 -275t102 -378q0 -207 -102 -381q-102 -175 -277 -277q-174 -102 -377 -102q-207 0 -381 102q-173 101 -276 277q-102 174 -102 381q0 206 102 378q102 173 276 275q176 103 381 103q201 0 377 -103zM690 1187q-51 -104 -78 -247h258v410
q-28 0 -63 -7q-66 -51 -117 -156zM1206 940q-27 141 -77 247t-115 156q-35 7 -62 7v-410h254zM1530 940q-52 124 -155 222t-230 147q99 -138 143 -369h242zM443 1163q-100 -94 -156 -223h243q44 230 144 369q-128 -49 -231 -146zM258 858q-25 -89 -25 -180t25 -180h260
q-10 91 -10 180t10 180h-260zM600 498h270v360h-270q-10 -91 -10 -180t10 -180zM952 498h267q10 91 10 180t-10 180h-267v-360zM1300 858q11 -101 11 -180t-11 -180h261q24 86 24 180t-24 180h-261zM287 416q52 -127 154 -226q99 -97 231 -147q-103 149 -142 373h-243z
M612 416q27 -143 78 -250t117 -158q30 -6 63 -6v414h-258zM1129 166q50 109 77 250h-254v-414q32 0 62 6q65 50 115 158zM1377 189q102 98 155 227h-244q-39 -229 -143 -373q131 50 232 146z" />
    <glyph glyph-name="u1F311" unicode="&#x1f311;" 
d="M529 19q-174 101 -276 277q-101 174 -101 382q0 207 101 379q102 174 276 275q175 102 382 102q203 0 377 -102q176 -103 277 -275q102 -174 102 -379q0 -207 -102 -381t-276 -277q-173 -102 -378 -102q-208 0 -382 101zM1246 91q156 92 247 248q92 157 92 339
q0 179 -92 336q-91 154 -247 247q-154 91 -335 91q-184 0 -339 -91t-247 -246t-92 -337t92 -339t247 -248t339 -91q181 0 335 91z" />
    <glyph glyph-name="u1F312" unicode="&#x1f312;" 
d="M1289 1331q174 -103 276 -275t102 -378v-27q-6 -201 -109 -368q-103 -168 -275 -267q-169 -98 -372 -98h-2q-205 0 -379 102q-173 101 -276 277q-102 174 -102 381q0 206 102 378q102 173 276 275q176 103 379 103h2q204 0 378 -103zM325 337q92 -155 245 -246
q154 -91 339 -91q34 0 78 4q116 64 189 251q73 186 73 423q0 156 -34 291q-35 138 -94 237q-61 102 -134 142q-44 4 -78 4q-185 0 -339 -91q-153 -91 -245 -246t-92 -339t92 -339z" />
    <glyph glyph-name="u1F313" unicode="&#x1f313;" 
d="M1288 1331q175 -103 277 -275t102 -378q0 -207 -102 -381q-102 -175 -277 -277q-174 -102 -377 -102q-207 0 -381 102q-173 101 -276 277q-102 174 -102 381q0 206 102 378q102 173 276 275q176 103 381 103q201 0 377 -103zM325 338q92 -157 246 -247q155 -91 340 -91
v1352q-185 0 -340 -91q-154 -90 -246 -246q-92 -155 -92 -337q0 -183 92 -340z" />
    <glyph glyph-name="u1F314" unicode="&#x1f314;" 
d="M1288 1331q175 -103 277 -275t102 -378q0 -207 -102 -381q-102 -175 -277 -277q-174 -102 -381 -102q-205 0 -378 102t-275 278q-102 175 -102 380q0 206 102 378q102 173 275 275q174 103 378 103q205 0 381 -103zM312 360q80 -148 216 -242q139 -96 303 -114
q-112 63 -186 251q-74 189 -74 423q0 233 74 420t186 250q-164 -18 -302 -113q-136 -94 -216 -242t-80 -315q0 -172 79 -318z" />
    <glyph glyph-name="u1F315" unicode="&#x1f315;" 
d="M529 19q-174 101 -276 277q-101 174 -101 382q0 207 101 379q102 174 276 275q175 102 382 102q203 0 377 -102q176 -103 277 -275q102 -174 102 -379q0 -207 -102 -381t-276 -277q-173 -102 -378 -102q-208 0 -382 101z" />
    <glyph glyph-name="u1F316" unicode="&#x1f316;" 
d="M1289 1331q174 -103 276 -275t102 -378q0 -205 -102 -380t-276 -278q-173 -102 -378 -102q-207 0 -381 102q-173 101 -276 277q-102 174 -102 381q0 206 102 378q102 173 276 275q176 103 381 103q204 0 378 -103zM1290 118q136 94 216 242q79 146 79 318q0 167 -80 315
t-216 242q-138 95 -302 113q113 -63 187 -250q73 -185 73 -420q0 -237 -73 -423q-73 -187 -187 -251q164 18 303 114z" />
    <glyph glyph-name="u1F317" unicode="&#x1f317;" 
d="M1288 1331q175 -103 277 -275t102 -378q0 -207 -102 -381q-102 -175 -277 -277q-174 -102 -381 -102q-203 0 -377 102q-173 101 -276 277q-102 174 -102 381q0 206 102 378q102 173 276 275q176 103 377 103q205 0 381 -103zM907 0q185 0 340 91q156 91 247 247
q91 155 91 340q0 183 -91 337q-92 155 -247 246t-340 91v-1352z" />
    <glyph glyph-name="u1F318" unicode="&#x1f318;" 
d="M1288 1331q175 -103 277 -275t102 -378q0 -207 -102 -381q-102 -175 -277 -277q-174 -102 -379 -102h-2q-200 0 -371 99t-275 269q-103 169 -109 369v7v4v4v6v2q0 206 102 378q102 173 275 275q174 103 378 103h2q203 0 379 -103zM1248 91q154 91 246 246q91 154 91 339
t-91 339q-92 155 -246 246t-339 91q-34 0 -78 -4q-73 -40 -134 -142q-59 -99 -94 -237q-34 -135 -34 -291q0 -234 74 -423q74 -188 188 -251q44 -4 78 -4q185 0 339 91z" />
    <glyph glyph-name="Iacute_J.loclNLD" horiz-adv-x="1126" 
d="M207 434l104 25q-28 -72 -28 -131q0 -122 73 -194q75 -73 197 -73q136 0 215 91q78 90 78 247v953h92v-953q0 -197 -101 -310q-102 -114 -276 -114q-106 0 -191 43t-133 120q-49 78 -49 171q0 59 19 125zM289 659h-92v693h92v-693zM254 1464l-115 15l258 229l129 -16z
M891 1464l-115 15l258 229l129 -16z" />
    <glyph glyph-name="i.loclTRK" horiz-adv-x="466" 
d="M188 983h91v-983h-91v983zM184 1372h97v-205h-97v205z" />
    <glyph glyph-name="e.gender" horiz-adv-x="1024" 
d="M299 483q1 -193 76 -310q74 -116 196 -116q103 0 169 81q67 82 67 206l96 -25q-1 -92 -46 -173q-42 -76 -119 -124q-76 -47 -167 -47q-168 0 -267 140q-99 139 -99 377q0 236 99 376t267 140q158 0 248 -114t90 -306q0 -50 -6 -105h-604zM809 561q8 170 -55 267
q-63 98 -183 98q-112 0 -184 -99q-71 -98 -86 -266h508zM620 1240q32 -24 65 -55q33 -32 56 -63l-75 -57q-32 43 -49 80q-9 20 -28 74q-11 31 -18 49q-3 -9 -18 -55q-9 -28 -31 -74q-17 -35 -45 -74l-76 57q28 38 61 68q34 31 61 51q7 5 17 13t16.5 12.5t10.5 7.5
q-28 0 -56 -1q-40 -1 -83 5q-47 7 -82 20l29 88q56 -18 89 -38q41 -25 66 -43q9 -7 22 -17t17 -12q-9 29 -17 53q-13 38 -21 80q-7 38 -7 86h94q0 -53 -9 -95q-10 -48 -20 -76q-12 -33 -16 -48q17 14 42 31q43 30 73 46q43 23 80 34l29 -89q-49 -17 -95 -22q-43 -4 -78 -3
q-24 1 -49 1q3 -2 17.5 -13.5t27.5 -20.5z" />
    <glyph glyph-name="i.gender" horiz-adv-x="552" 
d="M276 983h91v-983h-91v983zM370 1240q32 -24 65 -55q36 -35 57 -63l-76 -57q-29 40 -48 80q-13 29 -29 74q-3 9 -7 20t-6 18t-4 11q-12 -32 -19 -55q-9 -28 -31 -74q-17 -35 -45 -74l-75 57q30 40 60 68q34 31 61 51q7 5 17 13t16.5 12.5t10.5 7.5q-28 0 -56 -1
q-40 -1 -83 5q-47 7 -82 20l29 88q56 -18 89 -38q47 -28 67 -43q11 -8 23 -17.5t15 -11.5q-9 29 -17 53q-11 32 -20 80q-8 43 -8 86h95q0 -48 -10 -95q-10 -48 -20 -76q-4 -13 -15 -48q17 14 42 31q46 32 72 46q38 21 80 33l29 -88q-49 -17 -94 -22q-43 -4 -79 -3
q-24 1 -48 1q2 -2 16.5 -13t27.5 -21z" />
    <glyph glyph-name="n.gender" horiz-adv-x="1077" 
d="M838 909q75 -97 75 -272v-637h-90v637q0 139 -60 214t-169 75q-108 0 -168 -75q-59 -74 -59 -214v-637h-91v983h91v-162q33 90 99 138q67 49 161 49q135 0 211 -99zM370 1240q32 -24 65 -55q36 -35 57 -63l-76 -57q-29 40 -48 80q-13 29 -29 74q-3 9 -7 20t-6 18t-4 11
q-12 -32 -19 -55q-9 -28 -31 -74q-17 -35 -45 -74l-75 57q30 40 60 68q34 31 61 51q7 5 17 13t16.5 12.5t10.5 7.5q-28 0 -56 -1q-40 -1 -83 5q-47 7 -82 20l29 88q56 -18 89 -38q47 -28 67 -43q11 -8 23 -17.5t15 -11.5q-9 29 -17 53q-11 32 -20 80q-8 43 -8 86h95
q0 -48 -10 -95q-10 -48 -20 -76q-4 -13 -15 -48q17 14 42 31q46 32 72 46q38 21 80 33l29 -88q-49 -17 -94 -22q-43 -4 -79 -3q-24 1 -48 1q2 -2 16.5 -13t27.5 -21z" />
    <glyph glyph-name="r.gender" horiz-adv-x="878" 
d="M781 929q65 -80 65 -204q0 -60 -15 -117l-104 -26q18 74 18 135q0 95 -42 152t-119 57q-102 0 -159 -91q-56 -91 -58 -262v-573h-91v983h91v-186q30 101 92 156q63 55 149 55q109 0 173 -79zM370 1240q32 -24 65 -55q36 -35 57 -63l-76 -57q-29 40 -48 80q-13 29 -29 74
q-3 9 -7 20t-6 18t-4 11q-12 -32 -19 -55q-9 -28 -31 -74q-17 -35 -45 -74l-75 57q30 40 60 68q34 31 61 51q7 5 17 13t16.5 12.5t10.5 7.5q-28 0 -56 -1q-40 -1 -83 5q-47 7 -82 20l29 88q56 -18 89 -38q47 -28 67 -43q11 -8 23 -17.5t15 -11.5q-9 29 -17 53q-11 32 -20 80
q-8 43 -8 86h95q0 -48 -10 -95q-10 -48 -20 -76q-4 -13 -15 -48q17 14 42 31q46 32 72 46q38 21 80 33l29 -88q-49 -17 -94 -22q-43 -4 -79 -3q-24 1 -48 1q2 -2 16.5 -13t27.5 -21z" />
    <glyph glyph-name="r.ss04.gender" horiz-adv-x="776" 
d="M776 969l-20 -109q-51 55 -156 55q-119 0 -176 -91t-57 -279v-545h-91v983h91v-197q33 109 101 165q69 57 169 57q87 0 139 -39zM370 1240q32 -24 65 -55q36 -35 57 -63l-76 -57q-29 40 -48 80q-13 29 -29 74q-3 9 -7 20t-6 18t-4 11q-12 -32 -19 -55q-9 -28 -31 -74
q-17 -35 -45 -74l-75 57q30 40 60 68q34 31 61 51q7 5 17 13t16.5 12.5t10.5 7.5q-28 0 -56 -1q-40 -1 -83 5q-47 7 -82 20l29 88q56 -18 89 -38q47 -28 67 -43q11 -8 23 -17.5t15 -11.5q-9 29 -17 53q-11 32 -20 80q-8 43 -8 86h95q0 -48 -10 -95q-10 -48 -20 -76
q-4 -13 -15 -48q17 14 42 31q46 32 72 46q38 21 80 33l29 -88q-49 -17 -94 -22q-43 -4 -79 -3q-24 1 -48 1q2 -2 16.5 -13t27.5 -21z" />
    <glyph glyph-name="iacute_j.loclNLD" horiz-adv-x="929" 
d="M188 983h91v-983h-91v983zM242 1116l-101 12l228 265l114 -15zM385 -303q33 -4 51 -4q104 0 161 67q56 66 56 193v1030h90v-1051q0 -159 -86 -248q-87 -90 -251 -94zM707 1116l-101 12l228 265l114 -15z" />
    <glyph glyph-name="a.ss02" horiz-adv-x="1026" 
d="M750 983h90v-983h-90v233q-38 -126 -113 -191q-78 -67 -184 -67q-100 0 -178 64q-76 62 -118 180q-42 117 -42 273q0 155 42 272q42 118 118 180q78 64 178 64q107 0 184 -65q75 -63 113 -189v229zM677 173q73 117 73 319q0 201 -73 318q-72 116 -198 116
q-122 0 -196 -119t-74 -315q0 -197 74 -316t196 -119q126 0 198 116z" />
    <glyph glyph-name="aacute.ss02" horiz-adv-x="1026" 
d="M750 983h90v-983h-90v233q-38 -126 -113 -191q-78 -67 -184 -67q-100 0 -178 64q-76 62 -118 180q-42 117 -42 273q0 155 42 272q42 118 118 180q78 64 178 64q107 0 184 -65q75 -63 113 -189v229zM677 173q73 117 73 319q0 201 -73 318q-72 116 -198 116
q-122 0 -196 -119t-74 -315q0 -197 74 -316t196 -119q126 0 198 116zM487 1116l-100 12l227 265l115 -15z" />
    <glyph glyph-name="abreve.ss02" horiz-adv-x="1026" 
d="M750 983h90v-983h-90v233q-38 -126 -113 -191q-78 -67 -184 -67q-100 0 -178 64q-76 62 -118 180q-42 117 -42 273q0 155 42 272q42 118 118 180q78 64 178 64q107 0 184 -65q75 -63 113 -189v229zM677 173q73 117 73 319q0 201 -73 318q-72 116 -198 116
q-122 0 -196 -119t-74 -315q0 -197 74 -316t196 -119q126 0 198 116zM739 1384q-5 -123 -71 -191q-68 -69 -189 -69q-119 0 -189 68q-68 67 -73 192l94 13q-2 -91 42 -141t126 -50t126 50t42 139z" />
    <glyph glyph-name="uni01CE.ss02" horiz-adv-x="1026" 
d="M750 983h90v-983h-90v233q-38 -126 -113 -191q-78 -67 -184 -67q-100 0 -178 64q-76 62 -118 180q-42 117 -42 273q0 155 42 272q42 118 118 180q78 64 178 64q107 0 184 -65q75 -63 113 -189v229zM677 173q73 117 73 319q0 201 -73 318q-72 116 -198 116
q-122 0 -196 -119t-74 -315q0 -197 74 -316t196 -119q126 0 198 116zM481 1200l170 191l103 -13l-224 -260h-100l-223 260l102 13z" />
    <glyph glyph-name="acircumflex.ss02" horiz-adv-x="1026" 
d="M750 983h90v-983h-90v233q-38 -126 -113 -191q-78 -67 -184 -67q-100 0 -178 64q-76 62 -118 180q-42 117 -42 273q0 155 42 272q42 118 118 180q78 64 178 64q107 0 184 -65q75 -63 113 -189v229zM677 173q73 117 73 319q0 201 -73 318q-72 116 -198 116
q-122 0 -196 -119t-74 -315q0 -197 74 -316t196 -119q126 0 198 116zM530 1391l224 -261l-103 -12l-170 191l-172 -191l-102 12l223 261h100z" />
    <glyph glyph-name="adieresis.ss02" horiz-adv-x="1026" 
d="M750 983h90v-983h-90v233q-38 -126 -113 -191q-78 -67 -184 -67q-100 0 -178 64q-76 62 -118 180q-42 117 -42 273q0 155 42 272q42 118 118 180q78 64 178 64q107 0 184 -65q75 -63 113 -189v229zM677 173q73 117 73 319q0 201 -73 318q-72 116 -198 116
q-122 0 -196 -119t-74 -315q0 -197 74 -316t196 -119q126 0 198 116zM297 1372h100l2 -205h-98zM559 1372h100l3 -205h-99z" />
    <glyph glyph-name="agrave.ss02" horiz-adv-x="1026" 
d="M750 983h90v-983h-90v233q-38 -126 -113 -191q-78 -67 -184 -67q-100 0 -178 64q-76 62 -118 180q-42 117 -42 273q0 155 42 272q42 118 118 180q78 64 178 64q107 0 184 -65q75 -63 113 -189v229zM677 173q73 117 73 319q0 201 -73 318q-72 116 -198 116
q-122 0 -196 -119t-74 -315q0 -197 74 -316t196 -119q126 0 198 116zM352 1393l228 -265l-101 -12l-241 262z" />
    <glyph glyph-name="amacron.ss02" horiz-adv-x="1026" 
d="M750 983h90v-983h-90v233q-38 -126 -113 -191q-78 -67 -184 -67q-100 0 -178 64q-76 62 -118 180q-42 117 -42 273q0 155 42 272q42 118 118 180q78 64 178 64q107 0 184 -65q75 -63 113 -189v229zM677 173q73 117 73 319q0 201 -73 318q-72 116 -198 116
q-122 0 -196 -119t-74 -315q0 -197 74 -316t196 -119q126 0 198 116zM236 1186v82h487v-82h-487z" />
    <glyph glyph-name="aogonek.ss02" horiz-adv-x="1026" 
d="M840 0q-93 -17 -144 -59q-53 -44 -53 -101q0 -41 27 -65q28 -25 73 -25q42 0 82 35l15 -88q-46 -29 -113 -29q-76 0 -125 42t-49 106q0 71 56 123q58 53 141 65v229q-38 -126 -113 -191q-78 -67 -184 -67q-100 0 -178 64q-76 62 -118 180q-42 117 -42 273q0 155 42 272
q42 118 118 180q78 64 178 64q107 0 184 -65q75 -63 113 -189v229h90v-983zM677 173q73 117 73 319q0 201 -73 318q-72 116 -198 116q-122 0 -196 -119t-74 -315q0 -197 74 -316t196 -119q126 0 198 116z" />
    <glyph glyph-name="aring.ss02" horiz-adv-x="1026" 
d="M750 983h90v-983h-90v233q-38 -126 -113 -191q-78 -67 -184 -67q-100 0 -178 64q-76 62 -118 180q-42 117 -42 273q0 155 42 272q42 118 118 180q78 64 178 64q107 0 184 -65q75 -63 113 -189v229zM677 173q73 117 73 319q0 201 -73 318q-72 116 -198 116
q-122 0 -196 -119t-74 -315q0 -197 74 -316t196 -119q126 0 198 116zM337 1148q-54 50 -54 126t54 126q55 50 136 50t137 -50t56 -126t-56 -126t-137 -50t-136 50zM552 1199q32 30 32 75t-32 75q-30 29 -79 29t-78 -29q-30 -30 -30 -75t30 -75t78 -30q47 0 79 30z" />
    <glyph glyph-name="aringacute.ss02" horiz-adv-x="1026" 
d="M750 983h90v-983h-90v233q-38 -126 -113 -191q-78 -67 -184 -67q-100 0 -178 64q-76 62 -118 180q-42 117 -42 273q0 155 42 272q42 118 118 180q78 64 178 64q107 0 184 -65q75 -63 113 -189v229zM677 173q73 117 73 319q0 201 -73 318q-72 116 -198 116
q-122 0 -196 -119t-74 -315q0 -197 74 -316t196 -119q126 0 198 116zM337 1148q-54 50 -54 126t54 126q55 50 136 50t137 -50t56 -126t-56 -126t-137 -50t-136 50zM552 1199q32 30 32 75t-32 75q-30 29 -79 29t-78 -29q-30 -30 -30 -75t30 -75t78 -30q47 0 79 30zM487 1567
l-100 12l227 264l115 -14z" />
    <glyph glyph-name="atilde.ss02" horiz-adv-x="1026" 
d="M750 983h90v-983h-90v233q-38 -126 -113 -191q-78 -67 -184 -67q-100 0 -178 64q-76 62 -118 180q-42 117 -42 273q0 155 42 272q42 118 118 180q78 64 178 64q107 0 184 -65q75 -63 113 -189v229zM677 173q73 117 73 319q0 201 -73 318q-72 116 -198 116
q-122 0 -196 -119t-74 -315q0 -197 74 -316t196 -119q126 0 198 116zM182 1143q1 104 47 162q45 57 125 57q44 0 77 -19t79 -71q32 -36 54 -53q19 -15 38 -15q80 0 78 152l90 -15q-1 -104 -45 -161q-44 -58 -121 -58q-50 0 -80 18q-34 20 -82 74q-35 39 -53 53
q-17 13 -41 13q-78 0 -76 -152z" />
    <glyph glyph-name="g.ss03" horiz-adv-x="1026" 
d="M750 983h90v-1059q-1 -159 -96 -260q-92 -98 -246 -98q-149 0 -246 89q-95 88 -100 228l96 25q-4 -111 66 -186q70 -74 184 -74t183 81t69 214v290q-38 -126 -113 -191q-78 -67 -184 -67q-100 0 -178 64q-76 62 -118 180q-42 117 -42 273q0 155 42 272q42 118 118 180
q78 64 178 64q107 0 184 -65q75 -63 113 -189v229zM677 173q73 117 73 319q0 201 -73 318q-72 116 -198 116q-122 0 -196 -119t-74 -315q0 -197 74 -316t196 -119q126 0 198 116z" />
    <glyph glyph-name="uni01F5.ss03" horiz-adv-x="1026" 
d="M750 983h90v-1059q-1 -159 -96 -260q-92 -98 -246 -98q-149 0 -246 89q-95 88 -100 228l96 25q-4 -111 66 -186q70 -74 184 -74t183 81t69 214v290q-38 -126 -113 -191q-78 -67 -184 -67q-100 0 -178 64q-76 62 -118 180q-42 117 -42 273q0 155 42 272q42 118 118 180
q78 64 178 64q107 0 184 -65q75 -63 113 -189v229zM677 173q73 117 73 319q0 201 -73 318q-72 116 -198 116q-122 0 -196 -119t-74 -315q0 -197 74 -316t196 -119q126 0 198 116zM487 1116l-100 12l227 265l115 -15z" />
    <glyph glyph-name="gbreve.ss03" horiz-adv-x="1026" 
d="M750 983h90v-1059q-1 -159 -96 -260q-92 -98 -246 -98q-149 0 -246 89q-95 88 -100 228l96 25q-4 -111 66 -186q70 -74 184 -74t183 81t69 214v290q-38 -126 -113 -191q-78 -67 -184 -67q-100 0 -178 64q-76 62 -118 180q-42 117 -42 273q0 155 42 272q42 118 118 180
q78 64 178 64q107 0 184 -65q75 -63 113 -189v229zM677 173q73 117 73 319q0 201 -73 318q-72 116 -198 116q-122 0 -196 -119t-74 -315q0 -197 74 -316t196 -119q126 0 198 116zM739 1384q-5 -123 -71 -191q-68 -69 -189 -69q-119 0 -189 68q-68 67 -73 192l94 13
q-2 -91 42 -141t126 -50t126 50t42 139z" />
    <glyph glyph-name="gcaron.ss03" horiz-adv-x="1026" 
d="M750 983h90v-1059q-1 -159 -96 -260q-92 -98 -246 -98q-149 0 -246 89q-95 88 -100 228l96 25q-4 -111 66 -186q70 -74 184 -74t183 81t69 214v290q-38 -126 -113 -191q-78 -67 -184 -67q-100 0 -178 64q-76 62 -118 180q-42 117 -42 273q0 155 42 272q42 118 118 180
q78 64 178 64q107 0 184 -65q75 -63 113 -189v229zM677 173q73 117 73 319q0 201 -73 318q-72 116 -198 116q-122 0 -196 -119t-74 -315q0 -197 74 -316t196 -119q126 0 198 116zM481 1200l170 191l103 -13l-224 -260h-100l-223 260l102 13z" />
    <glyph glyph-name="gcircumflex.ss03" horiz-adv-x="1026" 
d="M750 983h90v-1059q-1 -159 -96 -260q-92 -98 -246 -98q-149 0 -246 89q-95 88 -100 228l96 25q-4 -111 66 -186q70 -74 184 -74t183 81t69 214v290q-38 -126 -113 -191q-78 -67 -184 -67q-100 0 -178 64q-76 62 -118 180q-42 117 -42 273q0 155 42 272q42 118 118 180
q78 64 178 64q107 0 184 -65q75 -63 113 -189v229zM677 173q73 117 73 319q0 201 -73 318q-72 116 -198 116q-122 0 -196 -119t-74 -315q0 -197 74 -316t196 -119q126 0 198 116zM530 1391l224 -261l-103 -12l-170 191l-172 -191l-102 12l223 261h100z" />
    <glyph glyph-name="uni0123.ss03" horiz-adv-x="1026" 
d="M750 983h90v-1059q-1 -159 -96 -260q-92 -98 -246 -98q-149 0 -246 89q-95 88 -100 228l96 25q-4 -111 66 -186q70 -74 184 -74t183 81t69 214v290q-38 -126 -113 -191q-78 -67 -184 -67q-100 0 -178 64q-76 62 -118 180q-42 117 -42 273q0 155 42 272q42 118 118 180
q78 64 178 64q107 0 184 -65q75 -63 113 -189v229zM677 173q73 117 73 319q0 201 -73 318q-72 116 -198 116q-122 0 -196 -119t-74 -315q0 -197 74 -316t196 -119q126 0 198 116zM436 1116q-35 53 -35 117q0 98 76 192l84 -12q-74 -92 -74 -174q0 -64 43 -123h-94z" />
    <glyph glyph-name="gdotaccent.ss03" horiz-adv-x="1026" 
d="M750 983h90v-1059q-1 -159 -96 -260q-92 -98 -246 -98q-149 0 -246 89q-95 88 -100 228l96 25q-4 -111 66 -186q70 -74 184 -74t183 81t69 214v290q-38 -126 -113 -191q-78 -67 -184 -67q-100 0 -178 64q-76 62 -118 180q-42 117 -42 273q0 155 42 272q42 118 118 180
q78 64 178 64q107 0 184 -65q75 -63 113 -189v229zM677 173q73 117 73 319q0 201 -73 318q-72 116 -198 116q-122 0 -196 -119t-74 -315q0 -197 74 -316t196 -119q126 0 198 116zM430 1372h96v-205h-96v205z" />
    <glyph glyph-name="r.ss04" horiz-adv-x="686" 
d="M686 969l-20 -109q-51 55 -156 55q-119 0 -176 -91q-58 -93 -58 -279v-545h-90v983h90v-197q33 108 102 165t169 57q87 0 139 -39z" />
    <glyph glyph-name="racute.ss04" horiz-adv-x="686" 
d="M686 969l-20 -109q-51 55 -156 55q-119 0 -176 -91q-58 -93 -58 -279v-545h-90v983h90v-197q33 108 102 165t169 57q87 0 139 -39zM444 1116l-100 12l227 265l115 -15z" />
    <glyph glyph-name="rcaron.ss04" horiz-adv-x="686" 
d="M686 969l-20 -109q-51 55 -156 55q-119 0 -176 -91q-58 -93 -58 -279v-545h-90v983h90v-197q33 108 102 165t169 57q87 0 139 -39zM438 1200l170 191l103 -13l-224 -260h-100l-223 260l102 13z" />
    <glyph glyph-name="uni0157.ss04" horiz-adv-x="686" 
d="M686 969l-20 -109q-51 55 -156 55q-119 0 -176 -91q-58 -93 -58 -279v-545h-90v983h90v-197q33 108 102 165t169 57q87 0 139 -39zM158 -389q61 73 61 143q0 64 -43 123h94q35 -53 35 -117q0 -88 -63 -161z" />
    <glyph glyph-name="y.ss05" horiz-adv-x="966" 
d="M690 983h90v-1096q0 -150 -85 -235q-86 -86 -234 -86q-149 0 -234 84q-86 84 -90 229l96 25q-4 -117 57 -188q59 -68 171 -68q109 0 169 67t60 189v256q-33 -88 -96 -136q-64 -49 -154 -49q-128 0 -202 99q-74 100 -74 272v637h90v-637q0 -140 56 -214q57 -75 163 -75
q104 0 161 75q56 74 56 214v637z" />
    <glyph glyph-name="yacute.ss05" horiz-adv-x="966" 
d="M690 983h90v-1096q0 -150 -85 -235q-86 -86 -234 -86q-149 0 -234 84q-86 84 -90 229l96 25q-4 -117 57 -188q59 -68 171 -68q109 0 169 67t60 189v256q-33 -88 -96 -136q-64 -49 -154 -49q-128 0 -202 99q-74 100 -74 272v637h90v-637q0 -140 56 -214q57 -75 163 -75
q104 0 161 75q56 74 56 214v637zM481 1116l-100 12l227 265l115 -15z" />
    <glyph glyph-name="ycircumflex.ss05" horiz-adv-x="966" 
d="M690 983h90v-1096q0 -150 -85 -235q-86 -86 -234 -86q-149 0 -234 84q-86 84 -90 229l96 25q-4 -117 57 -188q59 -68 171 -68q109 0 169 67t60 189v256q-33 -88 -96 -136q-64 -49 -154 -49q-128 0 -202 99q-74 100 -74 272v637h90v-637q0 -140 56 -214q57 -75 163 -75
q104 0 161 75q56 74 56 214v637zM524 1391l224 -261l-103 -12l-170 191l-172 -191l-102 12l223 261h100z" />
    <glyph glyph-name="ydieresis.ss05" horiz-adv-x="966" 
d="M690 983h90v-1096q0 -150 -85 -235q-86 -86 -234 -86q-149 0 -234 84q-86 84 -90 229l96 25q-4 -117 57 -188q59 -68 171 -68q109 0 169 67t60 189v256q-33 -88 -96 -136q-64 -49 -154 -49q-128 0 -202 99q-74 100 -74 272v637h90v-637q0 -140 56 -214q57 -75 163 -75
q104 0 161 75q56 74 56 214v637zM291 1372h100l2 -205h-98zM553 1372h100l2 -205h-98z" />
    <glyph glyph-name="ygrave.ss05" horiz-adv-x="966" 
d="M690 983h90v-1096q0 -150 -85 -235q-86 -86 -234 -86q-149 0 -234 84q-86 84 -90 229l96 25q-4 -117 57 -188q59 -68 171 -68q109 0 169 67t60 189v256q-33 -88 -96 -136q-64 -49 -154 -49q-128 0 -202 99q-74 100 -74 272v637h90v-637q0 -140 56 -214q57 -75 163 -75
q104 0 161 75q56 74 56 214v637zM346 1393l227 -265l-100 -12l-242 262z" />
    <glyph glyph-name="uni0233.ss05" horiz-adv-x="966" 
d="M690 983h90v-1096q0 -150 -85 -235q-86 -86 -234 -86q-149 0 -234 84q-86 84 -90 229l96 25q-4 -117 57 -188q59 -68 171 -68q109 0 169 67t60 189v256q-33 -88 -96 -136q-64 -49 -154 -49q-128 0 -202 99q-74 100 -74 272v637h90v-637q0 -140 56 -214q57 -75 163 -75
q104 0 161 75q56 74 56 214v637zM229 1186v82h488v-82h-488z" />
    <glyph glyph-name="uni1EF9.ss05" horiz-adv-x="966" 
d="M690 983h90v-1096q0 -150 -85 -235q-86 -86 -234 -86q-149 0 -234 84q-86 84 -90 229l96 25q-4 -117 57 -188q59 -68 171 -68q109 0 169 67t60 189v256q-33 -88 -96 -136q-64 -49 -154 -49q-128 0 -202 99q-74 100 -74 272v637h90v-637q0 -140 56 -214q57 -75 163 -75
q104 0 161 75q56 74 56 214v637zM176 1143q1 104 47 162q45 57 125 57q44 0 77 -19t79 -71q32 -36 54 -53q20 -15 38 -15q80 0 78 152l90 -15q-1 -104 -45 -161q-44 -58 -121 -58q-50 0 -80 18q-34 20 -82 74q-35 39 -53 53q-17 13 -41 13q-78 0 -76 -152z" />
    <glyph glyph-name="iacute_j.loclNLD.ss13" horiz-adv-x="929" 
d="M188 983h91v-983h-91v983zM242 1116l-101 12l228 265l114 -15zM537 -406q69 44 92 119q24 77 24 236v1034h90v-1055q0 -142 -22 -226t-74 -136zM707 1116l-101 12l228 265l114 -15z" />
    <glyph glyph-name="ij.ss13" horiz-adv-x="925" 
d="M184 1372h95v-205h-95v205zM186 983h90v-983h-90v983zM647 1372h94v-205h-94v205zM532 -406q70 45 93 119q24 77 24 236v1034h90v-1055q0 -142 -22 -226t-74 -136z" />
    <glyph glyph-name="j.ss13" horiz-adv-x="462" 
d="M184 1372h95v-205h-95v205zM70 -406q69 44 92 119q24 77 24 236v1034h90v-1055q0 -142 -22 -226t-74 -136z" />
    <glyph glyph-name="uni0237.ss13" horiz-adv-x="462" 
d="M70 -406q69 44 92 119q24 77 24 236v1034h90v-1055q0 -142 -22 -226t-74 -136z" />
    <glyph glyph-name="jcircumflex.ss13" horiz-adv-x="462" 
d="M70 -406q69 44 92 119q24 77 24 236v1034h90v-1055q0 -142 -22 -226t-74 -136zM283 1391l223 -261l-103 -12l-170 191l-172 -191l-102 12l223 261h101z" />
    <glyph glyph-name="eng.ss13" horiz-adv-x="987" 
d="M748 909q75 -97 75 -272v-709q0 -142 -22 -226t-74 -136l-111 28q70 45 93 119q24 77 24 236v688q0 139 -60 214t-169 75q-108 0 -168 -75t-60 -214v-637h-90v983h90v-162q33 89 100 138t161 49q135 0 211 -99z" />
    <glyph glyph-name="c_t" horiz-adv-x="1603" 
d="M1546 20q-68 -45 -166 -45q-99 0 -152 56q-52 55 -52 162v712h-228v78h58q84 0 139 54t55 136q0 95 -75 153q-74 58 -195 58q-131 0 -212 -69t-81 -180q0 -59 25 -121q23 -58 81 -137q64 -86 68 -209l-96 -25q0 125 -66 204t-168 79q-125 0 -198 -118q-74 -119 -74 -316
q0 -198 74 -317q73 -118 198 -118q102 0 168 81t66 206l96 -25q-1 -96 -45 -174q-42 -76 -118 -123t-167 -47q-168 0 -267 140q-99 139 -99 377q0 236 99 376t267 140q95 0 168 -45q-42 49 -62 99q-20 49 -20 101q0 130 101 213q100 82 260 82q155 0 256 -80
q100 -79 100 -207q0 -74 -38 -123t-111 -65h395v-78h-264v-712q0 -67 30 -101q30 -35 88 -35q40 0 81 15t65 39z" />
    <glyph glyph-name="r_t" horiz-adv-x="1466" 
d="M1409 20q-67 -45 -166 -45t-152 56t-53 162v712h-227v78h57q88 0 140 51q53 51 53 135q0 92 -70 154q-68 61 -174 61q-108 0 -183 -66t-75 -167q0 -50 26 -97q24 -44 89 -106q82 -78 82 -227q0 -48 -13 -113l-106 -26q18 74 18 135q0 95 -42 152t-119 57q-102 0 -159 -91
q-57 -92 -59 -262v-573h-90v983h90v-186q29 100 93 156q63 55 149 55q34 0 66 -9q-95 77 -95 187q0 73 45 138q43 62 119 98t166 36q91 0 167 -38q75 -37 117 -104q42 -66 42 -151q0 -71 -35 -118q-36 -48 -100 -64h383v-78h-265v-712q0 -65 31 -101q30 -35 88 -35
q41 0 81 15q41 15 65 39z" />
    <glyph glyph-name="s_t" horiz-adv-x="1533" 
d="M1477 20q-67 -45 -166 -45q-100 0 -153 56q-52 55 -52 162v712h-227v78h57q86 0 139 51t53 135q0 96 -73 156q-72 59 -193 59q-126 0 -205 -72t-79 -192q0 -47 18 -92q16 -39 80 -149q47 -79 41 -181l-94 -24q4 25 4 45q0 86 -56 147q-55 60 -141 60q-89 0 -144 -44
t-55 -118q0 -67 51 -116q47 -46 177 -107q110 -49 176 -96q61 -43 87 -96q26 -54 26 -126q0 -110 -90 -180t-228 -70q-159 0 -246 93q-86 92 -75 249l92 25q-4 -36 -4 -55q0 -105 62 -167q63 -63 171 -63q101 0 162 46t61 122q0 51 -21 87q-21 35 -75 71q-56 37 -158 82
q-148 68 -204 133q-58 67 -58 168q0 108 81 176q82 68 212 68q88 0 156 -39q-43 49 -60 94q-18 47 -18 100q0 84 47 152q46 67 128 105t181 38q154 0 252 -82t98 -209q0 -75 -35 -120q-37 -48 -102 -64h383v-78h-264v-712q0 -65 31 -101q30 -35 88 -35q41 0 81 15t64 39z
" />
    <glyph glyph-name="w_w_w" horiz-adv-x="3588" 
d="M3156 61l233 922h91l-252 -983h-144l-200 920l-201 -920h-143l-201 920l-201 -920h-143l-201 920l-201 -920h-143l-201 920l-200 -920h-144l-200 920l-201 -920h-144l-251 983h90l233 -922l201 922h143l201 -920l201 920h143l201 -920l200 920h144l200 -920l201 920h143
l201 -920l201 920h143z" />
    <glyph glyph-name="f_j.ss13" horiz-adv-x="1064" 
d="M879 -72q0 -139 -23 -226q-22 -84 -74 -136l-110 28q69 44 92 119q24 77 24 236v956h-432v-905h-90v905h-246v78h261q-55 33 -87 86t-32 113q0 111 85 183q87 73 212 73q43 0 86 -12q46 -13 71 -31l-16 -90q-68 51 -143 51q-91 0 -146 -51t-55 -138q0 -61 27 -110
q28 -51 71 -74h525v-1055zM786 1167v205h95v-205h-95z" />
    <glyph glyph-name="ordfeminine.case" horiz-adv-x="833" 
d="M758 514h-90l-80 248h-340l-82 -248h-90l278 838h127zM418 1284l-146 -446h291z" />
    <glyph glyph-name="ordfeminine.ss02" horiz-adv-x="905" 
d="M662 1352h83v-838h-83v203q-32 -103 -101 -161q-66 -56 -164 -56q-135 0 -213 117q-80 119 -80 315q0 198 80 317t213 119q97 0 164 -55q68 -56 101 -162v201zM598 671q64 99 64 261q0 164 -64 263q-63 97 -172 97q-108 0 -170 -98q-63 -99 -63 -262q0 -161 64 -259
q65 -100 169 -100q109 0 172 98z" />
    <glyph glyph-name="zero.zero" horiz-adv-x="1056" 
d="M833 1197q105 -179 105 -521t-105 -521q-106 -180 -305 -180q-198 0 -304 180q-105 179 -105 521t105 521t304 179q200 0 305 -179zM297 1132q-80 -160 -80 -456q0 -307 86 -465l393 1010q-68 69 -168 69q-152 0 -231 -158zM760 220q80 160 80 456q0 292 -80 457
l-398 -1006q69 -66 166 -66q152 0 232 159z" />
    <glyph glyph-name="zero.tf" horiz-adv-x="1003" 
d="M210 156q-101 178 -101 520q0 344 101 522q102 180 292 180q192 0 293 -180q100 -179 100 -522q0 -341 -100 -520q-101 -181 -293 -181q-189 0 -292 181zM722 220q77 160 77 456q0 298 -77 458q-76 158 -220 158q-143 0 -219 -158t-76 -458q0 -298 76 -456
q77 -159 219 -159q144 0 220 159z" />
    <glyph glyph-name="one.tf" horiz-adv-x="1003" 
d="M569 90h361v-90h-854v90h401v1108q-34 -161 -143 -255q-108 -93 -258 -93v104q149 0 258 106q108 105 147 292h88v-1262z" />
    <glyph glyph-name="two.tf" horiz-adv-x="1003" 
d="M781 665q-88 -168 -244 -317q-157 -149 -365 -258h696v-90h-762v90q318 224 491 458q173 235 173 443q0 137 -75 219t-199 82q-128 0 -201 -82q-74 -83 -74 -215q0 -47 8 -90l-106 27q-4 40 -4 67q0 111 47 197t132 134q86 48 198 48q168 0 270 -106t102 -283
q0 -157 -87 -324z" />
    <glyph glyph-name="three.tf" horiz-adv-x="1003" 
d="M806 589q75 -97 75 -245q0 -164 -103 -267q-102 -102 -270 -102q-178 0 -284 106q-104 104 -109 281l104 27q-2 -156 75 -242t214 -86q125 0 200 77q74 75 74 206q0 138 -84 217q-85 80 -223 80h-115v88h115q119 0 197 84t78 211q0 118 -68 194q-67 74 -174 74
q-114 0 -186 -90q-72 -89 -70 -237l-105 26q4 174 104 281q99 106 257 106q152 0 246 -98t94 -256q0 -262 -252 -307q135 -30 210 -128z" />
    <glyph glyph-name="four.tf" horiz-adv-x="1003" 
d="M936 428v-90h-186v-338h-93v338h-583v90q170 206 245 418q74 210 74 506h94q0 -291 -86 -517q-85 -223 -270 -407h526v395h93v-395h186z" />
    <glyph glyph-name="five.tf" horiz-adv-x="1003" 
d="M806 739q93 -118 93 -323q0 -211 -98 -325q-99 -116 -275 -116q-169 0 -273 107t-108 280l105 27q-2 -150 73 -238q76 -90 203 -90q130 0 203 93q72 92 72 262q0 169 -70 263q-69 93 -196 93q-92 0 -163 -46q-74 -48 -106 -122l-92 35l41 713h639v-90h-551l-33 -584
q40 83 114 132q72 48 167 48q162 0 255 -119z" />
    <glyph glyph-name="six.tf" horiz-adv-x="1003" 
d="M724 803q78 -55 122 -157q43 -101 43 -232q0 -202 -101 -321q-100 -118 -270 -118q-200 0 -298 175q-97 173 -97 530q0 698 389 698q138 0 233 -90q94 -90 117 -244l-104 -26q-10 120 -78 197t-168 77q-144 0 -217 -152q-74 -154 -74 -448q0 -61 4 -141q22 142 107 225
q83 82 211 82q102 0 181 -55zM718 156q73 96 73 260q0 169 -70 263q-69 93 -199 93t-201 -93q-71 -94 -71 -263q0 -159 74 -257t194 -98q128 0 200 95z" />
    <glyph glyph-name="seven.tf" horiz-adv-x="1003" 
d="M47 1352h891v-90q-194 -173 -303 -358q-110 -186 -151 -388q-42 -206 -42 -471v-45h-92v45q0 281 43 490t158 392q114 182 323 335h-827v90z" />
    <glyph glyph-name="eight.tf" horiz-adv-x="1003" 
d="M813 602q80 -101 80 -240q0 -110 -51 -198q-50 -87 -141 -138t-199 -51q-109 0 -200 51q-89 50 -140 138t-51 198q0 140 79 240q80 101 211 131q-113 22 -180 103q-65 78 -65 198q0 96 45 175t124 124t177 45t178 -45q81 -46 125 -124q45 -80 45 -175q0 -118 -66 -198
q-67 -81 -182 -103q131 -30 211 -131zM325 822q70 -79 177 -79q106 0 178 79q72 80 72 198q0 116 -72 194t-178 78t-177 -77t-71 -195t71 -198zM712 146q83 86 83 216t-82 212q-83 83 -211 83q-127 0 -210 -83t-83 -212q0 -130 83 -216q82 -85 210 -85t210 85z" />
    <glyph glyph-name="nine.tf" horiz-adv-x="1003" 
d="M783 1213q98 -176 98 -531q0 -696 -387 -696q-140 0 -235 90q-96 91 -118 243l105 27q11 -122 79 -198q69 -76 169 -76q144 0 216 152q72 153 72 448q0 65 -4 141q-22 -143 -106 -225q-83 -82 -209 -82q-104 0 -183 55q-78 54 -122 156q-43 99 -43 233q0 203 100 321
t270 118q200 0 298 -176zM683 685q71 94 71 263q0 159 -74 257t-195 98q-127 0 -199 -95q-73 -96 -73 -260q0 -166 70 -262q69 -94 198 -94q131 0 202 93z" />
    <glyph glyph-name="zero.tf.zero" horiz-adv-x="1003" 
d="M795 1198q100 -179 100 -522q0 -341 -100 -520q-101 -181 -293 -181q-189 0 -292 181q-101 178 -101 520q0 344 101 522q102 180 292 180q192 0 293 -180zM283 1134q-76 -158 -76 -458q0 -292 74 -451l387 992q-68 75 -166 75q-143 0 -219 -158zM722 220q77 160 77 456
q0 288 -72 444l-387 -985q66 -74 162 -74q144 0 220 159z" />
    <glyph glyph-name="zero.tf.zero.numr" horiz-adv-x="737" 
d="M585 1256q77 -115 77 -320q0 -207 -77 -322q-77 -114 -216 -114q-140 0 -217 113q-78 114 -78 323q0 206 78 320t217 114t216 -114zM217 670l236 600q-38 22 -84 22q-99 0 -152 -93q-53 -94 -53 -263q0 -171 53 -266zM518 669q53 94 53 267q0 178 -55 266l-235 -602
q39 -25 88 -25q96 0 149 94z" />
    <glyph glyph-name="zero.tf.zero.numr.ulined" horiz-adv-x="737" 
d="M152 613q-78 114 -78 323q0 206 78 320t217 114t216 -114q77 -115 77 -320q0 -207 -77 -322q-77 -114 -216 -114q-140 0 -217 113zM217 1199q-53 -94 -53 -263q0 -171 53 -266l236 600q-38 22 -84 22q-99 0 -152 -93zM516 1202l-235 -602q39 -25 88 -25q96 0 149 94
t53 267q0 178 -55 266zM-10 334v78h758v-78h-758z" />
    <glyph glyph-name="zero.dnom" horiz-adv-x="741" 
d="M153 98q-77 113 -77 322q0 206 78 320t217 114q141 0 218 -114q77 -115 77 -320q0 -206 -77 -321q-76 -113 -218 -113t-218 112zM522 154q53 92 53 266q0 172 -53 264t-151 92q-99 0 -152 -93q-53 -94 -53 -263q0 -171 53 -265t152 -94q98 0 151 93z" />
    <glyph glyph-name="one.dnom" horiz-adv-x="516" 
d="M385 838v-838h-86v741q-21 -118 -92 -183q-72 -66 -178 -66v98q103 0 174 65t100 183h82z" />
    <glyph glyph-name="two.dnom" horiz-adv-x="655" 
d="M459 316q-115 -137 -332 -238h448v-78h-516v74q209 129 319 264q111 136 111 264q0 81 -46 127q-47 47 -119 47q-76 0 -121 -49t-45 -131q0 -18 4 -51l-96 24q-3 21 -3 33q0 110 72 181q73 71 189 71q115 0 184 -69q70 -70 70 -181q0 -146 -119 -288z" />
    <glyph glyph-name="three.dnom" horiz-adv-x="688" 
d="M158 250q1 -91 52 -140t136 -49q81 0 130 44q48 43 48 118q0 77 -54 120q-55 44 -144 44h-80v74h80q77 0 126 46q50 47 50 118q0 67 -43 109t-113 42q-76 0 -121 -51t-45 -137l-94 24q6 109 77 175q72 67 183 67q109 0 177 -61q69 -61 69 -158q0 -156 -191 -180
q103 -17 158 -78t55 -158q0 -107 -73 -170t-195 -63q-126 0 -202 66t-81 173z" />
    <glyph glyph-name="four.dnom" horiz-adv-x="686" 
d="M438 0v201h-395v73q118 119 167 248q50 130 50 316h94q0 -182 -67 -322t-197 -237h348v231h86v-231h123v-78h-123v-201h-86z" />
    <glyph glyph-name="five.dnom" horiz-adv-x="710" 
d="M174 53q-75 67 -80 178l96 25q-4 -85 46 -140t135 -55q86 0 133 55t47 150q0 96 -46 148q-47 53 -130 53q-61 0 -108 -27q-45 -26 -68 -67l-84 33l24 432h469v-78h-385l-22 -342q29 57 81 90t117 33q109 0 175 -75q67 -76 67 -200q0 -130 -73 -206q-71 -74 -197 -74
q-121 0 -197 67z" />
    <glyph glyph-name="six.dnom" horiz-adv-x="696" 
d="M76 422q0 213 71 322q73 112 209 112q99 0 166 -55t88 -148l-94 -24q-7 66 -52 108q-44 41 -108 41q-94 0 -142 -90t-48 -262q0 -41 4 -88q12 91 71 147t146 56q108 0 174 -77t66 -202q0 -126 -73 -202q-71 -74 -194 -74q-284 0 -284 436zM489 117q48 57 48 147
q0 95 -47 148t-128 53q-83 0 -130 -53q-46 -52 -46 -148q0 -89 48 -146t126 -57q82 0 129 56z" />
    <glyph glyph-name="seven.dnom" horiz-adv-x="614" 
d="M6 838h592v-74q-168 -136 -240 -306q-71 -167 -71 -425v-33h-94v33q0 266 83 435q84 170 273 292h-543v78z" />
    <glyph glyph-name="eight.dnom" horiz-adv-x="718" 
d="M131 380q57 63 156 81q-89 15 -136 61q-49 47 -49 121q0 92 74 152q72 59 184 59q113 0 184 -59q72 -60 72 -152q0 -74 -47 -121q-46 -46 -135 -61q97 -18 154 -81t57 -151q0 -106 -80 -175q-78 -68 -205 -68q-125 0 -205 68q-81 69 -81 175q0 88 57 151zM241 511
q49 -44 119 -44q72 0 119 44t47 112q0 66 -47 110q-46 43 -119 43q-74 0 -120 -43q-47 -44 -47 -110q0 -69 48 -112zM219 109q57 -48 141 -48q82 0 141 48q56 46 56 120q0 72 -55 118t-142 46q-89 0 -142 -46q-54 -47 -54 -118q0 -74 55 -120z" />
    <glyph glyph-name="nine.dnom" horiz-adv-x="696" 
d="M621 422q0 -212 -72 -323t-209 -111q-99 0 -166 55t-88 147l94 25q8 -68 52 -109q43 -40 108 -40q94 0 142 90t48 262q0 41 -4 88q-12 -93 -70 -148t-147 -55q-108 0 -174 77q-65 75 -65 202q0 126 72 201t194 75q285 0 285 -436zM207 727q-47 -56 -47 -147
q0 -96 46 -148q47 -53 128 -53q83 0 130 53q46 52 46 148q0 89 -48 146q-47 56 -126 56q-83 0 -129 -55z" />
    <glyph glyph-name="zero.numr" horiz-adv-x="741" 
d="M153 612q-77 113 -77 322q0 206 78 320t217 114q141 0 218 -114q77 -115 77 -320q0 -206 -77 -321q-76 -113 -218 -113t-218 112zM522 668q53 92 53 266q0 172 -53 264t-151 92q-99 0 -152 -93q-53 -94 -53 -263q0 -171 53 -265t152 -94q98 0 151 93z" />
    <glyph glyph-name="one.numr" horiz-adv-x="516" 
d="M385 1352v-838h-86v741q-21 -118 -92 -183q-72 -66 -178 -66v98q103 0 174 65t100 183h82z" />
    <glyph glyph-name="two.numr" horiz-adv-x="655" 
d="M459 830q-115 -137 -332 -238h448v-78h-516v74q209 129 319 264q111 136 111 264q0 81 -46 127q-47 47 -119 47q-76 0 -121 -49t-45 -131q0 -18 4 -51l-96 24q-3 21 -3 33q0 110 72 181q73 71 189 71q115 0 184 -69q70 -70 70 -181q0 -146 -119 -288z" />
    <glyph glyph-name="three.numr" horiz-adv-x="688" 
d="M158 764q1 -91 52 -140t136 -49q80 0 130 45q48 44 48 117q0 77 -54 120q-55 44 -144 44h-80v74h80q77 0 126 46q50 47 50 118q0 67 -43 109t-113 42q-76 0 -121 -51t-45 -137l-94 24q6 110 77 176t183 66q109 0 177 -61q69 -61 69 -158q0 -156 -191 -180
q103 -17 158 -78t55 -158q0 -107 -73 -170t-195 -63q-126 0 -202 66t-81 173z" />
    <glyph glyph-name="four.numr" horiz-adv-x="686" 
d="M438 514v201h-395v73q118 119 167 248q50 130 50 316h94q0 -182 -67 -322t-197 -237h348v231h86v-231h123v-78h-123v-201h-86z" />
    <glyph glyph-name="five.numr" horiz-adv-x="710" 
d="M174 567q-75 67 -80 178l96 25q-4 -85 46 -140t135 -55q86 0 133 55t47 150q0 96 -46 148q-47 53 -130 53q-61 0 -108 -27q-45 -26 -68 -67l-84 33l24 432h469v-78h-385l-22 -342q29 57 81 90t117 33q109 0 175 -75q67 -76 67 -200q0 -130 -73 -206q-71 -74 -197 -74
q-121 0 -197 67z" />
    <glyph glyph-name="six.numr" horiz-adv-x="696" 
d="M76 936q0 213 71 322q73 112 209 112q99 0 166 -55t88 -148l-94 -24q-7 66 -52 108q-44 41 -108 41q-94 0 -142 -90t-48 -262q0 -41 4 -88q12 91 71 147t146 56q108 0 174 -77t66 -202q0 -126 -73 -202q-71 -74 -194 -74q-284 0 -284 436zM489 631q48 57 48 147
q0 95 -47 148t-128 53q-83 0 -130 -53q-46 -52 -46 -148q0 -89 48 -146t126 -57q82 0 129 56z" />
    <glyph glyph-name="seven.numr" horiz-adv-x="614" 
d="M6 1352h592v-74q-168 -136 -240 -306q-71 -167 -71 -425v-33h-94v33q0 266 83 435q84 170 273 292h-543v78z" />
    <glyph glyph-name="eight.numr" horiz-adv-x="718" 
d="M131 894q57 63 156 81q-89 15 -136 61q-49 47 -49 121q0 92 74 152q72 59 184 59q113 0 184 -59q72 -60 72 -152q0 -74 -47 -121q-46 -46 -135 -61q97 -18 154 -81t57 -151q0 -106 -80 -175q-78 -68 -205 -68q-125 0 -205 68q-81 69 -81 175q0 88 57 151zM241 1025
q49 -44 119 -44q72 0 119 44t47 112q0 66 -47 110q-46 43 -119 43q-74 0 -120 -43q-47 -44 -47 -110q0 -69 48 -112zM219 623q57 -48 141 -48q82 0 141 48q56 46 56 120q0 72 -55 118t-142 46q-89 0 -142 -46q-54 -47 -54 -118q0 -74 55 -120z" />
    <glyph glyph-name="nine.numr" horiz-adv-x="696" 
d="M621 936q0 -212 -72 -323t-209 -111q-99 0 -166 55t-88 148l94 24q7 -66 52 -108q44 -41 108 -41q94 0 142 90t48 262q0 41 -4 88q-12 -93 -70 -148t-147 -55q-108 0 -174 77q-65 75 -65 202q0 126 72 201t194 75q285 0 285 -436zM207 1241q-47 -56 -47 -147
q0 -96 46 -148q47 -53 128 -53q83 0 130 53q46 52 46 148q0 89 -48 146q-47 56 -126 56q-83 0 -129 -55z" />
    <glyph glyph-name="zero.numr.tf" horiz-adv-x="737" 
d="M152 613q-78 114 -78 323q0 206 78 320t217 114t216 -114q77 -115 77 -320q0 -207 -77 -322q-77 -114 -216 -114q-140 0 -217 113zM518 669q53 94 53 267q0 172 -53 264t-149 92q-99 0 -152 -93q-53 -94 -53 -263q0 -171 53 -266t152 -95q96 0 149 94z" />
    <glyph glyph-name="one.numr.tf" horiz-adv-x="737" 
d="M428 592h252v-78h-623v78h285v665q-22 -122 -95 -186q-72 -63 -190 -63v98q223 0 289 248h82v-762z" />
    <glyph glyph-name="two.numr.tf" horiz-adv-x="737" 
d="M509 835q-131 -141 -366 -243h494v-78h-559v74q230 128 352 267q121 137 121 263q0 81 -52 127q-53 47 -134 47q-87 0 -136 -49t-49 -131q0 -35 4 -51l-98 24q-2 16 -2 35q0 111 78 180q79 70 203 70q122 0 197 -68q77 -69 77 -182q0 -145 -130 -285z" />
    <glyph glyph-name="three.numr.tf" horiz-adv-x="737" 
d="M593 893q58 -61 58 -158q0 -106 -77 -171q-76 -64 -203 -64q-135 0 -213 66q-77 66 -82 175l94 25q1 -91 56 -141t145 -50q87 0 139 46q51 45 51 118q0 74 -58 119q-59 45 -155 45h-84v74h84q83 0 135 46q54 48 54 118q0 67 -47 109t-119 42q-78 0 -126 -51
q-49 -52 -50 -137l-95 24q5 111 79 176q75 66 192 66q113 0 184 -61q72 -61 72 -158q0 -81 -49 -124q-50 -44 -150 -56q106 -17 165 -78z" />
    <glyph glyph-name="four.numr.tf" horiz-adv-x="737" 
d="M684 795v-78h-129v-203h-86v203h-414v74q123 118 175 247q53 130 53 316h94q0 -180 -70 -323q-68 -138 -205 -236h367v231h86v-231h129z" />
    </font>
</defs>
</svg>
