<?xml version="1.0" standalone="no"?>
<!DOCTYPE svg PUBLIC "-//W3C//DTD SVG 1.1//EN" "http://www.w3.org/Graphics/SVG/1.1/DTD/svg11.dtd" >
<svg xmlns="http://www.w3.org/2000/svg" xmlns:xlink="http://www.w3.org/1999/xlink" version="1.1">
<metadata>
Created by FontForge 20170731 at Tue Dec 13 16:53:57 2022
 By Aleksey,,,
Copyright (c) 2020 by Paul Eslage, under exclusive license to TypeMates. All rights reserved.
</metadata>
<defs>
<font id="Sombra-Light" horiz-adv-x="776" >
  <font-face 
    font-family="Sombra Light"
    font-weight="300"
    font-stretch="normal"
    units-per-em="2048"
    panose-1="0 0 4 0 0 0 0 0 0 0"
    ascent="1638"
    descent="-410"
    x-height="987"
    cap-height="1352"
    bbox="-1114 -434 3729 2167"
    underline-thickness="116"
    underline-position="-255"
    unicode-range="U+0020-1F318"
  />
<missing-glyph horiz-adv-x="1677" 
d="M207 -410v2048h1266v-2048h-1266zM303 -313h1071v1855h-1071v-1855zM669 1114q-65 -74 -65 -199q0 -25 2 -47l-139 41q1 177 104 286q102 108 271 108q167 0 267 -100q99 -99 99 -269q0 -279 -288 -391v-170h-125v188q144 49 212 137q68 87 68 222q0 127 -61 197
q-62 71 -170 71q-110 0 -175 -74zM924 -74h-133v213h133v-213z" />
    <glyph glyph-name="fi" unicode="fi" horiz-adv-x="1116" 
d="M940 0h-123v891h-426v-891h-123v891h-248v96h277q-63 27 -99 80t-36 119q0 110 88 182t225 72q46 0 100 -13q50 -12 82 -34l-20 -115q-33 27 -75 42t-83 15q-88 0 -141 -47t-53 -127q0 -59 27 -106q27 -46 75 -68h553v-987zM813 1167v213h131v-213h-131z" />
    <glyph glyph-name="fl" unicode="fl" horiz-adv-x="1116" 
d="M250 1368q88 72 225 72q46 0 100 -13q50 -12 82 -34l-20 -115q-33 27 -75 42t-83 15q-88 0 -141 -47t-53 -127q0 -59 27 -106q27 -46 75 -68h250v-96h-246v-891h-123v891h-248v96h277q-63 27 -99 80t-36 119q0 110 88 182zM817 0v1434h123v-1434h-123z" />
    <glyph glyph-name="f_b" unicode="fb" horiz-adv-x="1712" 
d="M250 1368q88 72 225 72q46 0 100 -13q50 -12 82 -34l-20 -115q-33 27 -75 42t-83 15q-88 0 -141 -47t-53 -127q0 -59 27 -106q27 -46 75 -68h250v-96h-246v-891h-123v891h-248v96h277q-63 27 -99 80t-36 119q0 110 88 182zM1435 948q82 -64 125 -181q44 -120 44 -273
q0 -154 -44 -274q-43 -117 -125 -181t-188 -64q-110 0 -191 70q-78 68 -116 199v-244h-123v1434h123v-689q38 130 116 198q80 69 191 69q106 0 188 -64zM1403 194q74 115 74 300t-74 300q-73 113 -195 113q-124 0 -195 -110q-73 -113 -73 -303q0 -191 73 -304
q71 -110 195 -110q122 0 195 114z" />
    <glyph glyph-name="f_f" unicode="ff" horiz-adv-x="1191" 
d="M891 1288q-53 -47 -53 -127q0 -59 27 -106q27 -46 75 -68h250v-96h-246v-891h-123v891h-430v-891h-123v891h-248v96h277q-63 27 -99 80t-36 119q0 110 88 182t225 72q46 0 100 -13q50 -12 82 -34l-20 -115q-33 27 -75 42t-83 15q-88 0 -141 -47t-53 -127q0 -59 27 -106
q27 -46 75 -68h463q-59 27 -98 82q-37 52 -37 117q0 110 88 182q89 72 225 72q112 0 182 -47l-20 -115q-33 27 -74 42q-40 15 -84 15q-88 0 -141 -47z" />
    <glyph glyph-name="f_f_f" unicode="fff" horiz-adv-x="1744" 
d="M1444 1288q-53 -47 -53 -127q0 -59 27 -106q27 -46 75 -68h250v-96h-246v-891h-123v891h-430v-891h-123v891h-430v-891h-123v891h-248v96h277q-63 27 -99 80t-36 119q0 110 88 182t225 72q46 0 100 -13q50 -12 82 -34l-20 -115q-33 27 -75 42t-83 15q-88 0 -141 -47
t-53 -127q0 -59 27 -106q27 -46 75 -68h463q-63 27 -99 80t-36 119q0 110 88 182q89 72 225 72q46 0 100 -13q51 -12 80 -34l-18 -115q-33 27 -75 42t-83 15q-89 0 -142 -47q-52 -46 -52 -127q0 -59 27 -106q27 -46 75 -68h463q-63 27 -99 80t-36 119q0 110 88 182t225 72
q112 0 182 -47l-20 -115q-30 27 -74 42q-43 15 -84 15q-88 0 -141 -47z" />
    <glyph glyph-name="f_f_i" unicode="ffi" horiz-adv-x="1669" 
d="M1493 0h-123v891h-426v-891h-123v891h-430v-891h-123v891h-248v96h277q-63 27 -99 80t-36 119q0 110 88 182t225 72q46 0 100 -13q50 -12 82 -34l-20 -115q-33 27 -75 42t-83 15q-88 0 -141 -47t-53 -127q0 -59 27 -106q27 -46 75 -68h463q-63 27 -99 80t-36 119
q0 110 88 182q89 72 225 72q46 0 100 -13q51 -12 80 -34l-18 -115q-33 27 -75 42t-83 15q-89 0 -142 -47q-52 -46 -52 -127q0 -59 27 -106q27 -46 75 -68h553v-987zM1364 1167v213h133v-213h-133z" />
    <glyph glyph-name="f_h" unicode="fh" horiz-adv-x="1671" 
d="M250 1368q88 72 225 72q46 0 100 -13q50 -12 82 -34l-20 -115q-33 27 -75 42t-83 15q-88 0 -141 -47t-53 -127q0 -59 27 -106q27 -46 75 -68h250v-96h-246v-891h-123v891h-248v96h277q-63 27 -99 80t-36 119q0 110 88 182zM1436 909q80 -103 80 -282v-627h-123v618
q0 137 -60 212t-168 75q-109 0 -167 -75q-58 -74 -58 -212v-618h-123v1434h123v-625q33 97 103 150q71 53 171 53q142 0 222 -103z" />
    <glyph glyph-name="f_j" unicode="fj" horiz-adv-x="1116" 
d="M940 -49q0 -172 -93 -265q-94 -94 -272 -100l-32 138q23 -5 59 -5q104 0 160 67q55 65 55 191v914h-426v-891h-123v891h-248v96h277q-63 27 -99 80t-36 119q0 110 88 182t225 72q46 0 100 -13q50 -12 82 -34l-20 -115q-33 27 -75 42t-83 15q-88 0 -141 -47t-53 -127
q0 -59 27 -106q27 -46 75 -68h553v-1036zM813 1167v213h131v-213h-131z" />
    <glyph glyph-name="f_k" unicode="fk" horiz-adv-x="1595" 
d="M250 1368q88 72 225 72q46 0 100 -13q50 -12 82 -34l-20 -115q-33 27 -75 42t-83 15q-88 0 -141 -47t-53 -127q0 -59 27 -106q27 -46 75 -68h250v-96h-246v-891h-123v891h-248v96h277q-63 27 -99 80t-36 119q0 110 88 182zM1573 0h-148l-348 475l-137 -149v-326h-123
v1434h123v-940l451 493h157l-389 -424z" />
    <glyph glyph-name="t_t" unicode="tt" horiz-adv-x="1267" 
d="M1212 23q-74 -48 -182 -48q-114 0 -173 61q-58 59 -58 179v676h-430v-666q0 -143 120 -143q44 0 83 16q40 17 67 43l20 -118q-79 -48 -182 -48q-114 0 -173 61q-58 59 -58 179v676h-226v96h56q110 0 153 39t43 135v129h115v-129q0 -81 -29 -122q-28 -40 -102 -52h373
q109 0 153 39q43 39 43 135v129h115v-129q0 -81 -29 -122q-28 -40 -102 -52h383v-96h-270v-666q0 -143 120 -143q43 0 82 15t68 44z" />
    <glyph glyph-name="f_t.liga" unicode="ft" horiz-adv-x="1290" 
d="M1237 23q-79 -48 -182 -48q-232 0 -232 240v676h-432v-891h-123v891h-248v96h277q-63 27 -99 80t-36 119q0 110 88 182t225 72q46 0 100 -13q50 -12 82 -34l-20 -115q-33 27 -75 42t-83 15q-88 0 -141 -47t-53 -127q0 -59 27 -106q27 -46 75 -68h264q113 0 156 39t43 135
v129h115v-129q0 -81 -30 -122q-30 -40 -104 -52h383v-96h-268v-666q0 -143 121 -143q42 0 81 16t66 43z" />
    <glyph glyph-name=".notdef" horiz-adv-x="1677" 
d="M207 -410v2048h1266v-2048h-1266zM303 -313h1071v1855h-1071v-1855zM669 1114q-65 -74 -65 -199q0 -25 2 -47l-139 41q1 177 104 286q102 108 271 108q167 0 267 -100q99 -99 99 -269q0 -279 -288 -391v-170h-125v188q144 49 212 137q68 87 68 222q0 127 -61 197
q-62 71 -170 71q-110 0 -175 -74zM924 -74h-133v213h133v-213z" />
    <glyph glyph-name=".null" horiz-adv-x="0" 
 />
    <glyph glyph-name="nonmarkingreturn" horiz-adv-x="682" 
 />
    <glyph glyph-name="space" unicode=" " horiz-adv-x="477" 
 />
    <glyph glyph-name="exclam" unicode="!" horiz-adv-x="544" 
d="M211 1352h123l-6 -906h-111zM338 213v-213h-131v213h131z" />
    <glyph glyph-name="quotedbl" unicode="&#x22;" horiz-adv-x="772" 
d="M172 1352h133l-20 -396h-92zM467 1352h133l-20 -396h-93z" />
    <glyph glyph-name="numbersign" unicode="#" horiz-adv-x="1423" 
d="M1315 997v-110h-277l-71 -379h268v-111h-289l-76 -397h-106l74 397h-389l-74 -397h-109l76 397h-246v111h266l72 379h-258v110h279l67 355h107l-68 -355h389l68 355h108l-67 -355h256zM471 508h389l70 379h-389z" />
    <glyph glyph-name="dollar" unicode="$" horiz-adv-x="1136" 
d="M900 84q-105 -97 -275 -109v-206h-99v206q-174 15 -278 119t-115 273l135 39q2 -137 69 -221q66 -82 189 -97v559q-186 84 -267 176q-79 89 -79 221q0 136 96 227q95 91 250 103v207h99v-207q153 -17 246 -121q94 -106 98 -266l-135 -41q6 131 -50 214q-56 84 -159 100
v-510q2 0 10 -5q143 -64 219 -122q81 -61 115 -129q35 -70 35 -164q0 -150 -104 -246zM358 912q44 -53 168 -115v465q-97 -12 -155 -71q-58 -60 -58 -147q0 -78 45 -132zM625 88q115 12 181 77t66 165q0 59 -20 99q-20 41 -74 82q-49 38 -153 89v-512z" />
    <glyph glyph-name="percent" unicode="%" horiz-adv-x="1918" 
d="M205 614q-88 113 -88 320q0 203 88 318q89 116 241 116q156 0 243 -116t87 -318q0 -203 -87 -319q-87 -115 -243 -115q-152 0 -241 114zM662 0h-127l725 1352h126zM597 692q54 86 54 242t-54 241t-151 85q-96 0 -150 -85t-54 -241t54 -242t150 -86q97 0 151 86zM1231 100
q-88 113 -88 320q0 203 88 318q89 116 242 116q154 0 243 -116q88 -115 88 -318q0 -204 -88 -319t-243 -115q-153 0 -242 114zM1624 177q53 86 53 243q0 154 -53 240q-52 85 -151 85q-97 0 -151 -85t-54 -240q0 -156 54 -242t151 -86q99 0 151 85z" />
    <glyph glyph-name="ampersand" unicode="&#x26;" horiz-adv-x="1251" 
d="M1157 2q-53 -27 -125 -27q-106 0 -163 60q-56 59 -56 170v22q-60 -252 -297 -252q-108 0 -198 51q-86 49 -136 140q-49 89 -49 205q0 146 80 238q79 91 231 120q-137 23 -206 95q-70 73 -70 194q0 160 105 259t274 99q173 0 280 -104q109 -106 119 -279l-141 -41
q1 141 -68 227q-69 85 -192 85q-111 0 -177 -69q-67 -70 -67 -179q0 -119 79 -198t198 -79h559v-110h-197v-414q0 -133 109 -133q53 0 88 35zM738 177q75 86 75 235v217h-246q-147 0 -225 -67q-76 -66 -76 -195q0 -127 72 -201t194 -74q131 0 206 85z" />
    <glyph glyph-name="quotesingle" unicode="'" horiz-adv-x="477" 
d="M172 1352h133l-20 -396h-92z" />
    <glyph glyph-name="parenleft" unicode="(" horiz-adv-x="847" 
d="M774 1518q-154 -38 -271 -154q-114 -113 -178 -286q-63 -171 -63 -380t63 -380q63 -172 178 -285q117 -116 271 -154l-24 -121q-293 90 -454 335t-161 605t160 606q158 244 455 334z" />
    <glyph glyph-name="parenright" unicode=")" horiz-adv-x="847" 
d="M98 1638q297 -90 455 -334q160 -246 160 -606t-161 -605t-454 -335l-22 121q152 39 269 154q116 115 179 285q64 174 64 380t-64 380q-63 172 -179 286q-117 115 -269 154z" />
    <glyph glyph-name="asterisk" unicode="*" horiz-adv-x="788" 
d="M456 1042q54 -41 85 -72q42 -42 73 -83l-94 -72q-38 50 -66 111q-19 41 -38 97q-14 40 -21 58q-2 -4 -9 -26t-14 -41q-20 -58 -43 -103q-24 -49 -59 -96l-96 72q42 56 89 98q41 37 80 66q32 24 48 34q-77 0 -157 6q-59 4 -134 29l37 113q70 -23 118 -51q44 -25 88 -57
q39 -28 50 -35q-32 98 -44 148q-13 55 -13 138h119q0 -64 -13 -126q-13 -61 -32 -117l-13 -43q34 23 37 26q54 38 105 68q45 26 112 49l39 -113q-79 -25 -135 -29q-80 -6 -156 -6q4 -3 11 -8.5t21 -15.5t25 -19z" />
    <glyph glyph-name="plus" unicode="+" horiz-adv-x="1060" 
d="M590 733h375v-115h-375v-354h-121v354h-373v115h373v354h121v-354z" />
    <glyph glyph-name="comma" unicode="," horiz-adv-x="409" 
d="M252 217q51 -78 51 -172q0 -153 -127 -287l-106 25q112 128 112 258q0 91 -63 176h133z" />
    <glyph glyph-name="hyphen" unicode="-" horiz-adv-x="698" 
d="M80 475v115h538v-115h-538z" />
    <glyph glyph-name="period" unicode="." horiz-adv-x="425" 
d="M150 217h129v-217h-129v217z" />
    <glyph glyph-name="slash" unicode="/" horiz-adv-x="962" 
d="M229 -123h-133l637 1598h133z" />
    <glyph glyph-name="zero" unicode="0" horiz-adv-x="1116" 
d="M231 158q-114 183 -114 518t114 518q113 182 328 182t328 -182q114 -183 114 -518t-114 -518t-328 -183t-328 183zM790 241q80 151 80 435t-80 435q-81 153 -231 153q-149 0 -230 -153t-81 -435t81 -435t230 -153q150 0 231 153z" />
    <glyph glyph-name="one" unicode="1" horiz-adv-x="798" 
d="M594 1352v-1352h-125v1196q-33 -184 -140 -285q-108 -102 -270 -102v143q156 0 265 106q107 104 151 294h119z" />
    <glyph glyph-name="two" unicode="2" horiz-adv-x="993" 
d="M794 655q-83 -160 -239 -298q-157 -139 -367 -240h686v-117h-776v111q314 213 480 435q167 224 167 429q0 132 -68 210q-69 79 -183 79q-118 0 -185 -81q-67 -80 -67 -216q0 -38 6 -82l-139 43q-3 36 -3 51q0 115 49 207q49 91 136 140q89 50 203 50q173 0 278 -109
t105 -292q0 -160 -83 -320z" />
    <glyph glyph-name="three" unicode="3" horiz-adv-x="1038" 
d="M845 600q81 -99 81 -250q0 -170 -111 -272q-112 -103 -291 -103q-187 0 -301 105q-116 106 -123 278l140 41q0 -148 74 -229q75 -82 210 -82q124 0 197 73q72 72 72 193q0 128 -81 201q-82 74 -220 74h-119v110h119q118 0 194 76t76 195q0 111 -67 183q-66 71 -171 71
q-114 0 -183 -85t-69 -227l-139 41q11 173 117 278t274 105q107 0 191 -45q85 -45 131 -126q47 -82 47 -183q0 -251 -275 -295q147 -29 227 -127z" />
    <glyph glyph-name="four" unicode="4" horiz-adv-x="1032" 
d="M975 444v-116h-187v-328h-126v328h-596v112q174 194 250 404q75 208 75 508h137q0 -578 -393 -908h527v377h126v-377h187z" />
    <glyph glyph-name="five" unicode="5" horiz-adv-x="1071" 
d="M864 749q99 -120 99 -325q0 -212 -108 -330q-108 -119 -298 -119q-182 0 -296 108q-113 108 -118 282l142 43q-5 -146 69 -233t203 -87q131 0 203 88q71 87 71 248q0 160 -69 247t-197 87q-87 0 -159 -42q-71 -42 -109 -114l-123 47l39 703h702v-117h-583l-31 -563
q43 94 120 145t177 51q168 0 266 -119z" />
    <glyph glyph-name="six" unicode="6" horiz-adv-x="1048" 
d="M844 744q98 -120 98 -324q0 -203 -109 -324t-292 -121q-424 0 -424 705q0 345 106 521q106 177 314 177q144 0 246 -87t132 -234l-137 -41q-12 110 -79 180t-162 70q-144 0 -216 -148q-73 -149 -73 -430q0 -79 6 -145q21 150 107 236q87 87 221 87q163 0 262 -122z
M738 177q73 90 73 245q0 156 -70 246q-69 88 -196 88q-128 0 -197 -88t-69 -246q0 -150 72 -242t190 -92q125 0 197 89z" />
    <glyph glyph-name="seven" unicode="7" horiz-adv-x="927" 
d="M10 1352h891v-111q-171 -152 -275 -322q-105 -172 -151 -378q-47 -211 -47 -492v-49h-135v49q0 293 55 507q56 218 172 380q118 165 307 299h-817v117z" />
    <glyph glyph-name="eight" unicode="8" horiz-adv-x="1085" 
d="M885 611q88 -98 88 -242q0 -114 -55 -203q-56 -91 -154 -140q-102 -51 -221 -51t-221 51q-98 49 -154 140q-55 89 -55 203q0 144 88 242q89 100 235 128q-134 23 -206 101t-72 196q0 97 49 174q50 79 137 122q90 44 199 44q108 0 198 -44q88 -43 138 -122q49 -77 49 -174
q0 -117 -73 -196q-72 -78 -206 -101q147 -29 236 -128zM360 823q72 -73 183 -73q108 0 180 73t72 185q0 111 -71 184q-70 72 -181 72t-183 -72q-71 -71 -71 -184t71 -185zM756 167q84 79 84 202q0 118 -83 195t-214 77t-214 -77t-83 -195q0 -122 83 -202q82 -79 214 -79
q130 0 213 79z" />
    <glyph glyph-name="nine" unicode="9" horiz-adv-x="1048" 
d="M934 682q0 -344 -108 -522t-314 -178q-146 0 -247 88q-102 89 -132 235l137 39q12 -109 79 -179q66 -69 163 -69q144 0 216 148q73 149 73 430q0 62 -4 135q-23 -147 -111 -231t-219 -84q-163 0 -262 121t-99 325t110 325q109 119 292 119q426 0 426 -702zM700 692
q70 90 70 246q0 152 -72 243t-190 91q-125 0 -197 -89q-71 -87 -71 -245t69 -246t195 -88q127 0 196 88z" />
    <glyph glyph-name="colon" unicode=":" horiz-adv-x="425" 
d="M150 987h129v-217h-129v217zM150 217h129v-217h-129v217z" />
    <glyph glyph-name="semicolon" unicode=";" horiz-adv-x="409" 
d="M252 217q51 -78 51 -172q0 -153 -127 -287l-106 25q112 128 112 258q0 91 -63 176h133zM139 987h129v-217h-129v217z" />
    <glyph glyph-name="less" unicode="&#x3c;" horiz-adv-x="1060" 
d="M160 760l739 287v-125l-639 -248l639 -246v-125l-739 285v172z" />
    <glyph glyph-name="equal" unicode="=" horiz-adv-x="1060" 
d="M119 782v117h823v-117h-823zM119 453v116h823v-116h-823z" />
    <glyph glyph-name="greater" unicode="&#x3e;" horiz-adv-x="1060" 
d="M162 922v125l739 -287v-172l-739 -285v125l639 246z" />
    <glyph glyph-name="question" unicode="?" horiz-adv-x="917" 
d="M699 1277q100 -100 100 -269q0 -280 -289 -392v-170h-125v189q144 49 212 137q69 88 69 221q0 127 -62 198t-170 71q-110 0 -175 -74q-64 -73 -64 -199q0 -25 2 -47l-140 41q1 176 105 286q101 107 270 107q168 0 267 -99zM514 0h-133v213h133v-213z" />
    <glyph glyph-name="at" unicode="@" horiz-adv-x="1837" 
d="M1324 1345q177 -114 278 -317q100 -201 100 -459q0 -217 -94 -341t-258 -124q-122 0 -197 73q-74 72 -80 198q-44 -97 -119 -155q-72 -56 -161 -56q-108 0 -171 85t-63 234q0 130 45 235q46 106 123 166q78 60 174 60q177 0 215 -201l27 183h114l-65 -424q-6 -43 -6 -82
q0 -99 45 -156t125 -57q106 0 168 95q61 94 61 263q0 229 -85 408q-85 180 -235 280q-151 101 -343 101q-199 0 -350 -101q-150 -101 -234 -283q-84 -183 -84 -423q0 -235 84 -417t237 -282q152 -100 353 -100q108 0 215 35q102 34 170 92l20 -127q-155 -104 -397 -104
q-237 0 -420 111q-182 111 -282 316q-99 204 -99 472q0 272 98 478q98 207 278 322t411 115q227 0 402 -113zM967 299q57 49 91 134q34 84 34 188q0 115 -42 175t-120 60q-72 0 -130 -48q-57 -47 -92 -133q-34 -84 -34 -188q0 -115 43 -176t123 -61q71 0 127 49z" />
    <glyph glyph-name="A" unicode="A" horiz-adv-x="1196" 
d="M1100 0h-133l-121 406h-496l-121 -406h-133l410 1352h184zM600 1239l-217 -723h430z" />
    <glyph glyph-name="B" unicode="B" horiz-adv-x="1239" 
d="M996 616q85 -94 85 -245q0 -173 -114 -272t-314 -99h-446v1352h416q201 0 308 -88t107 -248q0 -128 -72 -200t-210 -83q154 -22 240 -117zM332 1235v-496h282q149 0 222 62q71 61 71 186q0 129 -71 188q-72 60 -222 60h-282zM651 117q143 0 221 66t78 190t-77 190
t-222 66h-319v-512h319z" />
    <glyph glyph-name="C" unicode="C" horiz-adv-x="1243" 
d="M1108 467q-21 -232 -142 -362t-319 -130q-153 0 -269 86t-179 245q-64 162 -64 370t64 370q63 158 179 244t269 86q199 0 320 -129q120 -127 141 -362l-135 -39q-6 195 -93 306q-88 112 -233 112q-112 0 -198 -74q-88 -76 -134 -207q-47 -135 -47 -307t47 -307
q46 -131 134 -207q86 -74 198 -74q146 0 233 113q87 112 93 305z" />
    <glyph glyph-name="D" unicode="D" horiz-adv-x="1247" 
d="M968 1182q144 -169 144 -506q0 -336 -144 -506t-431 -170h-330v1352h330q287 0 431 -170zM537 117q227 0 335 136q109 138 109 423t-109 423q-108 136 -335 136h-205v-1118h205z" />
    <glyph glyph-name="E" unicode="E" horiz-adv-x="1103" 
d="M965 1352v-117h-633v-485h561v-111h-561v-522h633v-117h-758v1352h758z" />
    <glyph glyph-name="F" unicode="F" horiz-adv-x="1044" 
d="M954 1352v-117h-622v-510h549v-109h-549v-616h-125v1352h747z" />
    <glyph glyph-name="G" unicode="G" horiz-adv-x="1284" 
d="M649 717h449v-717h-125v295q-57 -320 -338 -320q-149 0 -263 87q-113 86 -175 245t-62 369q0 208 64 370q63 158 179 244t271 86q175 0 290 -102q116 -102 155 -289l-138 -39q-18 148 -100 233t-209 85q-112 0 -198 -74q-88 -76 -134 -207q-47 -135 -47 -307t47 -307
q46 -131 134 -207q86 -74 198 -74q146 0 235 115q90 115 91 303v96h-324v115z" />
    <glyph glyph-name="H" unicode="H" horiz-adv-x="1302" 
d="M971 737v615h125v-1352h-125v616h-639v-616h-125v1352h125v-615h639z" />
    <glyph glyph-name="I" unicode="I" horiz-adv-x="536" 
d="M332 0h-125v1352h125v-1352z" />
    <glyph glyph-name="J" unicode="J" horiz-adv-x="1062" 
d="M102 440l138 39q-29 -75 -29 -131q0 -115 73 -188q72 -72 191 -72q131 0 207 88t76 242v934h127v-934q0 -206 -108 -324q-108 -119 -296 -119q-115 0 -206 45t-142 124q-51 80 -51 178q0 65 20 118z" />
    <glyph glyph-name="K" unicode="K" horiz-adv-x="1122" 
d="M1083 0h-151l-459 651l-141 -170v-481h-125v1352h125v-682l565 682h162l-502 -600z" />
    <glyph glyph-name="L" unicode="L" horiz-adv-x="997" 
d="M332 1352v-1235h622v-117h-747v1352h125z" />
    <glyph glyph-name="M" unicode="M" horiz-adv-x="1611" 
d="M807 102l416 1250h182v-1352h-123v1151l-387 -1151h-178l-387 1155v-1155h-123v1352h182z" />
    <glyph glyph-name="N" unicode="N" horiz-adv-x="1302" 
d="M971 150v1202h125v-1352h-185l-579 1198v-1198h-125v1352h182z" />
    <glyph glyph-name="O" unicode="O" horiz-adv-x="1296" 
d="M376 63q-115 88 -178 246t-63 367q0 208 63 366t178 246t271 88q157 0 272 -88t178 -246q62 -155 62 -366q0 -212 -62 -367q-63 -158 -178 -246t-272 -88q-156 0 -271 88zM847 162q87 74 134 208q47 135 47 306t-47 306q-47 134 -134 208q-88 74 -200 74t-198 -74
q-88 -76 -134 -208q-47 -135 -47 -306t47 -306q46 -132 134 -208q86 -74 198 -74t200 74z" />
    <glyph glyph-name="P" unicode="P" horiz-adv-x="1181" 
d="M949 1246q118 -108 118 -310q0 -200 -118 -308q-119 -108 -339 -108h-278v-520h-125v1352h403q221 2 339 -106zM602 631q170 0 252 75t82 228q0 151 -82 226t-252 75h-270v-604h270z" />
    <glyph glyph-name="Q" unicode="Q" horiz-adv-x="1296" 
d="M1243 -104q-107 40 -237 60q-127 19 -318 19q-264 0 -408 183q-145 184 -145 518q0 205 64 367q63 158 179 246q116 87 269 87q150 0 268 -86t181 -242t63 -362q0 -171 -49 -306q-50 -137 -137 -214q-89 -78 -199 -78h-2q136 0 239 -12q104 -12 206 -39zM315 369
q46 -131 134 -207q86 -74 198 -74q113 0 199 74t134 207t48 307t-48 307t-134 207t-199 74q-110 0 -196 -74q-88 -75 -135 -207q-48 -133 -48 -307q0 -172 47 -307z" />
    <glyph glyph-name="R" unicode="R" horiz-adv-x="1206" 
d="M1023 131q13 -66 34 -131h-139q-28 99 -56 319q-12 91 -38 138t-75 66q-51 20 -137 20h-280v-543h-125v1352h377q438 0 438 -367q0 -157 -71 -242q-70 -83 -216 -98q115 -18 176 -88q60 -69 78 -209q16 -130 34 -217zM332 1235v-582h246q168 0 240 69q73 70 73 224
q0 155 -73 222t-240 67h-246z" />
    <glyph glyph-name="S" unicode="S" horiz-adv-x="1099" 
d="M246 406q5 -156 83 -237q80 -83 226 -83q133 0 214 66t81 170q0 66 -30 116q-31 51 -103 98q-73 48 -213 111q-186 84 -266 178q-78 92 -78 230q0 92 50 166q50 73 138 114q90 41 201 41q179 0 286 -106q106 -105 111 -283l-135 -41q8 149 -62 233q-70 85 -200 85
q-113 0 -186 -59q-72 -59 -72 -150q0 -67 28 -114t98 -93q77 -50 195 -103q152 -71 222 -124q78 -59 113 -131q34 -69 34 -168q0 -102 -53 -182q-52 -79 -151 -123t-222 -44q-194 0 -314 108t-130 286z" />
    <glyph glyph-name="T" unicode="T" horiz-adv-x="1019" 
d="M63 1352h891v-117h-381v-1235h-127v1235h-383v117z" />
    <glyph glyph-name="U" unicode="U" horiz-adv-x="1239" 
d="M180 1352h125v-908q0 -168 84 -262t229 -94q148 0 232 94q84 95 84 262v908h125v-908q0 -218 -118 -343q-119 -126 -323 -126q-202 0 -320 126q-118 125 -118 343v908z" />
    <glyph glyph-name="V" unicode="V" horiz-adv-x="1167" 
d="M584 119l342 1233h133l-385 -1352h-182l-383 1352h133z" />
    <glyph glyph-name="W" unicode="W" horiz-adv-x="1841" 
d="M1280 129l297 1223h129l-334 -1352h-184l-268 1219l-269 -1219h-182l-334 1352h129l297 -1223l268 1223h183z" />
    <glyph glyph-name="X" unicode="X" horiz-adv-x="1200" 
d="M690 686l406 -686h-146l-350 606l-350 -606h-144l404 686l-379 666h145l324 -582l324 582h143z" />
    <glyph glyph-name="Y" unicode="Y" horiz-adv-x="1146" 
d="M575 659l353 693h143l-434 -826v-526h-125v526l-434 826h143z" />
    <glyph glyph-name="Z" unicode="Z" horiz-adv-x="1200" 
d="M999 1171l-708 -1054h729v-117h-840v180l711 1055h-690v117h798v-181z" />
    <glyph glyph-name="bracketleft" unicode="[" horiz-adv-x="765" 
d="M690 1595v-100h-360v-1597h360v-101h-483v1798h483z" />
    <glyph glyph-name="backslash" unicode="\" horiz-adv-x="962" 
d="M229 1475l637 -1598h-133l-637 1598h133z" />
    <glyph glyph-name="bracketright" unicode="]" horiz-adv-x="765" 
d="M76 1595h483v-1798h-483v101h360v1597h-360v100z" />
    <glyph glyph-name="asciicircum" unicode="^" horiz-adv-x="868" 
d="M518 1352l277 -490h-125l-236 418l-235 -418h-125l276 490h168z" />
    <glyph glyph-name="underscore" unicode="_" horiz-adv-x="958" 
d="M80 -199v117h799v-117h-799z" />
    <glyph glyph-name="grave" unicode="`" horiz-adv-x="1294" 
d="M592 1409l242 -274l-121 -17l-254 273z" />
    <glyph glyph-name="a" unicode="a" horiz-adv-x="972" 
d="M727 922q90 -90 90 -252v-670h-123v160q-29 -91 -99 -137q-73 -48 -169 -48q-135 0 -222 87t-87 221q0 135 90 223q89 88 227 88q95 0 163 -46q69 -46 97 -134v241q0 120 -57 186t-158 66t-158 -66q-57 -65 -55 -179l-129 36q11 146 102 230q92 84 240 84q158 0 248 -90z
M631 138q63 59 63 149q0 88 -63 145t-160 57q-99 0 -163 -57t-64 -145q0 -91 64 -149t163 -58q98 0 160 58z" />
    <glyph glyph-name="b" unicode="b" horiz-adv-x="1073" 
d="M796 948q82 -64 125 -181q44 -120 44 -273q0 -154 -44 -274q-43 -117 -125 -181t-188 -64q-110 0 -191 70q-78 68 -116 199v-244h-123v1434h123v-689q38 130 116 198q79 69 191 69q106 0 188 -64zM764 194q74 115 74 300t-74 300q-73 113 -195 113q-124 0 -195 -110
q-73 -113 -73 -303q0 -191 73 -304q71 -110 195 -110q121 0 195 114z" />
    <glyph glyph-name="c" unicode="c" horiz-adv-x="974" 
d="M868 319q-6 -99 -55 -176q-49 -78 -129 -123t-178 -45q-120 0 -211 64q-90 63 -138 181t-48 274q0 237 107 377q108 141 290 141q148 0 251 -97q100 -94 111 -243l-129 -37q0 121 -65 196q-66 76 -168 76q-124 0 -197 -112t-73 -301t73 -301q74 -113 197 -113
q102 0 168 78q65 77 65 198z" />
    <glyph glyph-name="d" unicode="d" horiz-adv-x="1073" 
d="M772 1434h123v-1434h-123v244q-38 -131 -116 -199q-81 -70 -191 -70q-105 0 -187 64t-125 181q-44 120 -44 274q0 153 44 273q43 117 125 181t187 64q111 0 191 -69q78 -68 116 -198v689zM699 190q73 113 73 304q0 190 -73 303q-71 110 -195 110q-122 0 -195 -113
t-73 -300t73 -300q73 -114 195 -114q124 0 195 110z" />
    <glyph glyph-name="e" unicode="e" horiz-adv-x="985" 
d="M236 475q5 -184 77 -289q73 -106 193 -106q100 0 166 77q66 76 67 197l127 -37q-6 -96 -54 -174t-129 -123t-177 -45q-182 0 -290 141q-107 140 -107 378q0 237 107 377q108 141 290 141q170 0 270 -117q101 -118 101 -313q0 -19 -9 -107h-632zM743 571q5 158 -59 247
q-63 89 -178 89q-108 0 -180 -90q-71 -89 -86 -246h503z" />
    <glyph glyph-name="f" unicode="f" horiz-adv-x="638" 
d="M338 1288q-53 -47 -53 -127q0 -59 27 -106q27 -46 75 -68h250v-96h-246v-891h-123v891h-248v96h277q-63 27 -99 80t-36 119q0 110 88 182t225 72q112 0 182 -47l-20 -115q-30 27 -74 42q-43 15 -84 15q-88 0 -141 -47z" />
    <glyph glyph-name="g" unicode="g" horiz-adv-x="935" 
d="M553 115q151 0 238 -73q86 -72 86 -200q0 -135 -100 -206q-98 -70 -285 -70q-183 0 -284 67q-102 67 -102 187q0 29 11 76l139 38q-16 -48 -16 -96q0 -168 256 -168q254 0 254 170q0 79 -52 123q-50 43 -145 43h-129q-126 0 -202 44q-75 44 -75 118q0 116 179 145
q-100 35 -152 123q-53 89 -53 215q0 184 100 272q101 89 307 89q119 0 197 9q76 9 149 30l-22 -123q-123 -20 -246 -21q104 -23 150 -87q47 -65 47 -179q0 -165 -91 -257q-92 -93 -249 -93q-103 0 -153 -22q-48 -21 -48 -66q0 -41 42 -65q40 -23 120 -23h129zM305 463
q57 -68 158 -68q100 0 157 68q56 66 56 188q0 121 -56 187q-57 68 -157 69q-99 0 -157 -68t-58 -188q0 -121 57 -188z" />
    <glyph glyph-name="h" unicode="h" horiz-adv-x="1032" 
d="M797 909q80 -103 80 -282v-627h-123v618q0 137 -60 212t-168 75t-167 -75q-58 -74 -58 -212v-618h-123v1434h123v-625q33 97 103 150q71 53 171 53q142 0 222 -103z" />
    <glyph glyph-name="i" unicode="i" horiz-adv-x="477" 
d="M172 1380h133v-213h-133v213zM178 987h123v-987h-123v987z" />
    <glyph glyph-name="j" unicode="j" horiz-adv-x="477" 
d="M174 1380h131v-213h-131v213zM-96 -276q23 -5 59 -5q101 0 159 67q56 65 56 191v1010h123v-1036q0 -172 -93 -265q-94 -94 -271 -100z" />
    <glyph glyph-name="k" unicode="k" horiz-adv-x="956" 
d="M934 0h-148l-348 475l-137 -149v-326h-123v1434h123v-940l451 493h157l-389 -424z" />
    <glyph glyph-name="l" unicode="l" horiz-adv-x="477" 
d="M301 0h-123v1434h123v-1434z" />
    <glyph glyph-name="m" unicode="m" horiz-adv-x="1566" 
d="M1334 909q77 -103 77 -282v-627h-123v618q0 144 -56 215q-57 72 -161 72q-102 0 -159 -74q-56 -72 -56 -213v-618h-123v618q0 141 -56 213q-57 74 -161 74q-102 0 -159 -74q-56 -72 -56 -213v-618h-123v987h123v-178q33 97 100 150q68 53 164 53q105 0 175 -63
q72 -64 100 -177q28 114 102 177t180 63q135 0 212 -103z" />
    <glyph glyph-name="n" unicode="n" horiz-adv-x="1032" 
d="M797 909q80 -103 80 -282v-627h-123v618q0 137 -60 212t-168 75t-167 -75q-58 -74 -58 -212v-618h-123v987h123v-178q33 97 103 150q71 53 171 53q142 0 222 -103z" />
    <glyph glyph-name="o" unicode="o" horiz-adv-x="1013" 
d="M216 116q-107 140 -107 378q0 237 107 377q108 141 290 141q184 0 292 -141q107 -140 107 -377q0 -238 -107 -378q-108 -141 -292 -141q-182 0 -290 141zM703 194q75 114 75 300t-75 300q-74 113 -197 113q-124 0 -197 -112t-73 -301t73 -301q74 -113 197 -113
q122 0 197 114z" />
    <glyph glyph-name="p" unicode="p" horiz-adv-x="1073" 
d="M796 948q82 -64 125 -181q44 -120 44 -273q0 -154 -44 -274q-43 -117 -125 -181t-188 -64q-110 0 -191 70q-78 68 -116 199v-654h-123v1397h123v-242q38 130 116 198q79 69 191 69q106 0 188 -64zM764 194q74 115 74 300t-74 300q-73 113 -195 113q-124 0 -195 -110
q-73 -113 -73 -303q0 -191 73 -304q71 -110 195 -110q121 0 195 114z" />
    <glyph glyph-name="q" unicode="q" horiz-adv-x="1073" 
d="M772 987h123v-1397h-123v654q-38 -131 -116 -199q-81 -70 -191 -70q-105 0 -187 64t-125 181q-44 120 -44 274q0 153 44 273q43 117 125 181t187 64q111 0 191 -69q78 -68 116 -198v242zM699 190q73 113 73 304q0 190 -73 303q-71 110 -195 110q-122 0 -195 -113
t-73 -300t73 -300q73 -114 195 -114q124 0 195 110z" />
    <glyph glyph-name="r" unicode="r" horiz-adv-x="835" 
d="M737 931q68 -82 68 -210q0 -50 -14 -117l-138 -41q21 74 21 139q0 95 -42 149t-116 54q-103 0 -158 -91q-56 -92 -57 -265v-549h-123v987h123v-207q30 115 96 173q67 59 162 59q111 0 178 -81z" />
    <glyph glyph-name="s" unicode="s" horiz-adv-x="892" 
d="M219 346q-4 -29 -4 -49q0 -103 61 -161t173 -58q95 0 154 42t59 111q0 43 -22 78q-20 31 -76 67q-49 31 -156 77q-161 69 -223 136q-62 68 -62 175q0 110 88 179t229 69q146 0 234 -84t88 -219l-125 -37q2 16 2 35q0 89 -53 145q-52 55 -146 55q-86 0 -138 -39t-52 -104
q0 -64 51 -109q49 -44 182 -100q123 -51 185 -95q65 -46 93 -100q27 -52 27 -129q0 -114 -95 -186t-247 -72q-166 0 -260 90q-94 89 -92 246z" />
    <glyph glyph-name="t" unicode="t" horiz-adv-x="714" 
d="M662 23q-79 -48 -185 -48q-114 0 -173 61q-58 59 -58 179v676h-226v96h56q110 0 153 39t43 135v129h117v-129q0 -81 -30 -122q-30 -40 -103 -52h383v-96h-270v-666q0 -143 120 -143q43 0 82 15t68 44z" />
    <glyph glyph-name="u" unicode="u" horiz-adv-x="1011" 
d="M711 987h123v-987h-123v178q-33 -97 -102 -149q-71 -54 -165 -54q-133 0 -211 104q-77 102 -77 283v625h123v-618q0 -141 56 -213q57 -74 161 -74q101 0 158 74t57 213v618z" />
    <glyph glyph-name="v" unicode="v" horiz-adv-x="964" 
d="M483 98l279 889h127l-316 -987h-182l-317 987h129z" />
    <glyph glyph-name="w" unicode="w" horiz-adv-x="1488" 
d="M1036 106l226 881h122l-258 -987h-180l-203 879l-202 -879h-181l-258 987h125l226 -881l200 881h181z" />
    <glyph glyph-name="x" unicode="x" horiz-adv-x="915" 
d="M545 494l305 -494h-139l-252 418l-254 -418h-139l305 494l-295 493h139l244 -416l241 416h140z" />
    <glyph glyph-name="y" unicode="y" horiz-adv-x="940" 
d="M748 987h131l-338 -975q-51 -149 -112 -241q-58 -87 -139 -131q-83 -45 -204 -52l-33 133q22 -2 47 -2q114 0 190 72q78 73 128 221l20 60h-59l-318 915h132l276 -821z" />
    <glyph glyph-name="z" unicode="z" horiz-adv-x="872" 
d="M752 819l-537 -704h553v-115h-664v168l537 706h-522v113h633v-168z" />
    <glyph glyph-name="braceleft" unicode="{" horiz-adv-x="847" 
d="M496 -16q100 -88 276 -105l-22 -121q-222 27 -351 146t-129 295q0 59 19 129q0 1 1.5 7.5t3 15t3.5 17.5q6 32 6 66q0 101 -62 157t-175 56h-46v101h46q106 0 171 60q64 60 64 161q0 49 -14 102q-17 76 -17 127q0 175 128 294q126 117 350 146l24 -120
q-172 -15 -275 -104q-102 -88 -102 -224q0 -41 17 -109l8 -40q6 -32 6 -64q0 -100 -64 -161t-188 -77q121 -24 187 -102q67 -79 67 -197q0 -52 -16 -123q-17 -68 -17 -108q0 -136 101 -225z" />
    <glyph glyph-name="bar" unicode="|" horiz-adv-x="522" 
d="M317 -203h-110v1798h110v-1798z" />
    <glyph glyph-name="braceright" unicode="}" horiz-adv-x="847" 
d="M827 750v-103h-47q-104 0 -169 -60q-64 -60 -64 -161q0 -47 14 -100q17 -76 17 -127q0 -177 -129 -295q-129 -119 -351 -146l-22 121q172 15 275 104q102 89 102 222q0 41 -17 112q-14 67 -14 103q0 100 62 159q63 60 182 78q-117 24 -182 104q-64 79 -64 195
q0 52 16 119q17 71 17 113q0 136 -102 225q-101 88 -275 103l22 120q227 -27 352 -144q128 -119 128 -294q0 -59 -19 -129q0 -1 -1.5 -7.5t-3 -15t-3.5 -17.5q-6 -31 -6 -66q0 -101 62 -157t173 -56h47z" />
    <glyph glyph-name="asciitilde" unicode="~" horiz-adv-x="1060" 
d="M88 582q16 101 84 163t164 62q58 0 106 -20q55 -23 80 -39q37 -24 43 -27q61 -38 93 -52q37 -16 67 -16q55 0 90 38t41 104l119 -21q-15 -102 -84 -165q-68 -62 -170 -62q-63 0 -109 21q-43 19 -112 65q-54 35 -92 52q-34 15 -70 15q-53 0 -90 -37q-36 -36 -41 -102z" />
    <glyph glyph-name="uni00A0" unicode="&#xa0;" horiz-adv-x="477" 
 />
    <glyph glyph-name="exclamdown" unicode="&#xa1;" horiz-adv-x="544" 
d="M207 987h131v-211h-131v211zM328 541l6 -906h-123l6 906h111z" />
    <glyph glyph-name="cent" unicode="&#xa2;" horiz-adv-x="1050" 
d="M598 266q86 17 138 91t52 182l127 -37q-11 -140 -98 -233q-88 -94 -219 -109v-209h-100v211q-157 22 -249 160q-91 136 -91 354t91 354q92 138 249 160v211h100v-209q133 -15 220 -109q86 -94 97 -229l-127 -37q0 104 -53 178q-52 73 -137 90v-819zM340 403
q57 -108 158 -135v815q-102 -27 -158 -134q-57 -108 -57 -273t57 -273z" />
    <glyph glyph-name="sterling" unicode="&#xa3;" horiz-adv-x="1046" 
d="M979 117v-117h-895v111q175 69 247 137t72 158q0 37 -16 81h-303v101h254l-25 37l-45 61q-58 81 -88 166q-30 86 -30 168q0 105 49 185q50 82 137 126q88 45 201 45q173 0 277 -103q105 -104 116 -280l-139 -41q5 140 -68 226q-72 86 -191 86q-110 0 -181 -71
q-70 -70 -70 -179q0 -132 114 -289l54 -74q20 -29 38 -63h342v-101h-303q9 -36 9 -61q0 -112 -90 -193q-87 -78 -255 -116h789z" />
    <glyph glyph-name="currency" unicode="&#xa4;" horiz-adv-x="1060" 
d="M795 477l239 -235l-69 -70l-240 238q-85 -62 -193 -62q-111 0 -198 64l-236 -240l-69 70l237 239q-61 88 -61 195q0 106 59 190l-235 236l69 69l236 -235q84 65 198 65q113 0 197 -65l236 235l69 -69l-237 -236q61 -83 61 -190q0 -109 -63 -199zM690 518q64 64 64 158
q0 91 -64 155t-158 64q-95 0 -159 -64t-64 -155q0 -94 64 -158q63 -63 159 -63q95 0 158 63z" />
    <glyph glyph-name="yen" unicode="&#xa5;" horiz-adv-x="1236" 
d="M979 1352h137l-399 -697h342v-98h-377v-121h377v-98h-377v-338h-125v338h-377v98h377v121h-377v98h342l-399 697h137l361 -643z" />
    <glyph glyph-name="brokenbar" unicode="&#xa6;" horiz-adv-x="522" 
d="M207 907v688h110v-688h-110zM317 -203h-110v688h110v-688z" />
    <glyph glyph-name="section" unicode="&#xa7;" horiz-adv-x="993" 
d="M790 306q72 -76 72 -181q0 -130 -101 -207q-102 -78 -269 -78q-172 0 -276 85q-105 85 -103 222l127 37q-2 -14 -2 -28q0 -95 70 -152t188 -57q108 0 173 47q64 46 64 129q0 78 -69 130q-67 51 -220 91q-172 45 -253 110q-78 63 -78 167q0 110 75 176q77 68 215 86
q-133 34 -206 110q-74 77 -74 181q0 126 97 205t253 79q157 0 257 -86q99 -86 99 -221l-127 -37q3 21 3 31q0 91 -65 150t-171 59q-96 0 -158 -50q-61 -49 -61 -128q0 -76 71 -129q74 -55 220 -93q176 -45 255 -109q78 -63 78 -167q0 -106 -76 -175q-76 -68 -214 -85
q133 -34 206 -112zM311 496q73 -62 183 -62q107 0 180 62q71 61 71 153q0 96 -71 155q-72 60 -180 60q-111 0 -183 -60q-71 -59 -71 -155q0 -92 71 -153z" />
    <glyph glyph-name="dieresis" unicode="&#xa8;" horiz-adv-x="1294" 
d="M432 1376h133l2 -209h-131zM725 1376h133l2 -209h-133z" />
    <glyph glyph-name="copyright" unicode="&#xa9;" horiz-adv-x="2025" 
d="M1451 -83q200 118 319 320q118 200 118 441q0 236 -119 438q-118 201 -319 319q-198 117 -436 117q-244 0 -442 -117q-201 -118 -319 -319q-118 -200 -118 -438q0 -241 118 -441q119 -202 319 -320t442 -118q237 0 437 118zM624 3q-179 106 -285 285q-106 180 -106 390
q0 207 106 387q105 178 285 284q178 105 390 105q208 0 386 -105q179 -105 284 -284q106 -180 106 -387q0 -210 -106 -390t-284 -285t-386 -105q-212 0 -390 105zM1333 549q-18 -143 -100 -225t-213 -82q-104 0 -183 55q-80 56 -123 154q-44 100 -44 225t44 225
q43 98 123 154q79 55 183 55q130 0 213 -81q82 -81 100 -226l-104 -31q-11 114 -66 180t-143 66q-107 0 -174 -97q-68 -98 -68 -245t68 -245q67 -97 174 -97q88 0 143 64t66 182z" />
    <glyph glyph-name="ordfeminine" unicode="&#xaa;" horiz-adv-x="847" 
d="M637 1288q82 -79 82 -219v-555h-121v143q-27 -77 -89 -117t-149 -40q-120 0 -196 72t-76 186t80 189t201 75q82 0 143 -38q58 -37 86 -110v183q0 97 -48 154t-136 57q-85 0 -135 -55t-50 -148l-125 39q10 122 94 193q83 71 216 71q140 0 223 -80zM543 644q55 48 55 120
q0 74 -54 121q-55 47 -138 47q-84 0 -140 -47q-55 -46 -55 -121q0 -72 55 -120q56 -48 140 -48q82 0 137 48z" />
    <glyph glyph-name="guillemotleft" unicode="&#xab;" horiz-adv-x="1169" 
d="M475 387q99 -94 139 -229l-125 -35q-38 137 -119 225q-83 91 -198 121v96q116 30 200 121q83 90 120 223l120 -32q-42 -140 -139 -233q-100 -95 -235 -128q137 -34 237 -129zM858 387q99 -94 139 -229l-125 -35q-38 137 -119 225q-83 91 -198 121v96q116 30 200 121
q81 89 119 223l121 -32q-42 -140 -139 -233q-100 -95 -235 -128q137 -34 237 -129z" />
    <glyph glyph-name="logicalnot" unicode="&#xac;" horiz-adv-x="1060" 
d="M129 618v115h803v-397h-117v282h-686z" />
    <glyph glyph-name="uni00AD" unicode="&#xad;" horiz-adv-x="698" 
d="M80 475v115h538v-115h-538z" />
    <glyph glyph-name="registered" unicode="&#xae;" horiz-adv-x="937" 
d="M650 1371q83 -48 131 -131q48 -82 48 -181t-48 -181q-49 -84 -131 -132t-179 -48q-98 0 -182 48q-83 47 -132 132q-48 82 -48 181t49 181q50 83 132 131q83 48 181 48q97 0 179 -48zM615 807q67 40 107 106q40 67 40 146q0 78 -40 145q-41 68 -107 107t-144 39
q-79 0 -147 -39t-107 -107t-39 -145q0 -79 39 -146q38 -66 107 -106q68 -39 147 -39q78 0 144 39zM589 1024q21 -22 27 -68q6 -53 21 -100h-78q-8 33 -14 82q-1 32 -18 49q-14 14 -48 14h-78v-145h-73v406h161q136 0 136 -109q0 -94 -101 -102q44 -5 65 -27zM401 1196v-143
h78q72 0 72 71q0 72 -72 72h-78z" />
    <glyph glyph-name="macron" unicode="&#xaf;" horiz-adv-x="1294" 
d="M387 1184v98h518v-98h-518z" />
    <glyph glyph-name="degree" unicode="&#xb0;" horiz-adv-x="792" 
d="M190 903q-81 78 -81 199q0 77 37 139q37 63 104 99q66 36 143 36q126 0 208 -79q83 -80 83 -195q0 -119 -83 -199t-208 -80q-120 0 -203 80zM523 967q52 52 52 135q0 79 -52 131q-53 53 -130 53q-74 0 -125 -53t-51 -131q0 -82 50 -135q51 -54 126 -54q76 0 130 54z" />
    <glyph glyph-name="plusminus" unicode="&#xb1;" horiz-adv-x="1060" 
d="M590 1047v-205h313v-117h-313v-207h-119v207h-313v117h313v205h119zM903 307h-745v117h745v-117z" />
    <glyph glyph-name="uni00B2" unicode="&#xb2;" 
d="M556 1035q-131 -126 -382 -210h508v-106h-606v96q234 113 361 242q126 127 126 248q0 74 -49 117q-50 44 -129 44q-82 0 -129 -47t-47 -131q0 -21 2 -41l-135 39q-8 130 79 209q88 80 230 80q134 0 218 -73q83 -72 83 -191q0 -150 -130 -276z" />
    <glyph glyph-name="uni00B3" unicode="&#xb3;" 
d="M637 1106q63 -62 63 -160q0 -109 -85 -175t-224 -66q-144 0 -230 64q-88 65 -98 171l134 41q1 -83 53 -127q50 -43 141 -43q84 0 133 40t49 105q0 66 -55 105q-56 39 -147 39h-88v90h88q77 0 129 41q51 41 51 102q0 59 -45 97q-43 36 -115 36q-77 0 -124 -45
q-46 -45 -48 -125l-131 39q7 108 92 174q84 66 211 66q125 0 205 -62t80 -157q0 -151 -217 -172q115 -17 178 -78z" />
    <glyph glyph-name="acute" unicode="&#xb4;" horiz-adv-x="1294" 
d="M578 1118l-121 17l241 274l133 -18z" />
    <glyph glyph-name="uni00B5" unicode="&#xb5;" horiz-adv-x="1032" 
d="M733 987h123v-987h-123v178q-33 -97 -99 -149q-68 -54 -159 -54q-119 0 -188 88v-473h-109v1397h121v-618q0 -138 56 -212q57 -75 161 -75t161 75q56 74 56 212v618z" />
    <glyph glyph-name="paragraph" unicode="&#xb6;" horiz-adv-x="1265" 
d="M224 1253q110 101 319 99h241v-1352h-127v575h-114q-208 0 -319 100q-109 99 -109 290q0 188 109 288zM934 0v1352h125v-1352h-125z" />
    <glyph glyph-name="periodcentered" unicode="&#xb7;" horiz-adv-x="425" 
d="M150 784h129v-217h-129v217z" />
    <glyph glyph-name="cedilla" unicode="&#xb8;" horiz-adv-x="1294" 
d="M670 -106q60 -6 96 -37q35 -30 35 -76q0 -56 -50 -91q-49 -34 -133 -34q-78 0 -131 31l17 108q28 -22 53 -33q23 -10 55 -10q39 0 60 15q20 14 20 40q0 32 -34 54q-35 23 -95 33h-2l21 106h106z" />
    <glyph glyph-name="uni00B9" unicode="&#xb9;" 
d="M469 825h252v-106h-666v106h293v635q-39 -291 -293 -291v140q232 0 299 250h115v-734z" />
    <glyph glyph-name="ordmasculine" unicode="&#xba;" horiz-adv-x="903" 
d="M194 617q-98 119 -98 315q0 197 97 317q96 119 260 119q162 0 258 -119t96 -317q0 -199 -96 -316q-95 -116 -258 -116t-259 117zM621 692q65 90 65 242q0 151 -64 243q-65 93 -169 93t-170 -93t-66 -243t66 -242t170 -92q102 0 168 92z" />
    <glyph glyph-name="guillemotright" unicode="&#xbb;" horiz-adv-x="1216" 
d="M417 348q-83 -90 -120 -225l-123 35q39 136 137 229q99 95 238 129q-136 33 -236 128q-97 93 -139 233l121 32q37 -133 120 -223q84 -91 199 -121v-96q-113 -30 -197 -121zM725 909q38 -134 121 -223q85 -91 198 -121v-96q-112 -30 -196 -121q-82 -89 -121 -225l-123 35
q39 136 137 229q99 95 238 129q-136 33 -236 128q-97 93 -139 233z" />
    <glyph glyph-name="onequarter" unicode="&#xbc;" horiz-adv-x="1579" 
d="M440 1352v-838h-123v739q-17 -142 -92 -216t-196 -74v139q110 0 188 66t107 184h116zM463 0h-127l725 1352h127zM1292 0v190h-420v97q124 103 178 230q54 128 54 321h139q0 -180 -84 -323q-83 -141 -225 -218h358v213h123v-213h127v-107h-127v-190h-123z" />
    <glyph glyph-name="onehalf" unicode="&#xbd;" horiz-adv-x="1650" 
d="M440 1352v-838h-123v739q-17 -142 -92 -216t-196 -74v139q110 0 188 66t107 184h116zM463 0h-127l725 1352h127zM1450 315q-123 -123 -363 -208h482v-107h-580v96q218 112 340 240q121 127 121 248q0 74 -45 117q-46 44 -119 44q-78 0 -122 -48q-44 -49 -44 -130
q0 -21 2 -41l-135 39q-6 129 77 209t222 80q128 0 209 -73q80 -72 80 -191q0 -150 -125 -275z" />
    <glyph glyph-name="threequarters" unicode="&#xbe;" horiz-adv-x="1718" 
d="M188 774q1 -80 53 -125q49 -43 136 -43q81 0 127 39q47 39 47 105q0 65 -52 104q-53 39 -143 39h-86v90h86q75 0 124 41q48 40 48 102q0 60 -43 97t-108 37q-76 0 -120 -46q-45 -46 -46 -124l-133 38q12 109 93 175q80 65 206 65q121 0 200 -61q78 -60 78 -158
q0 -151 -213 -172q112 -17 174 -78q62 -62 62 -160q0 -108 -83 -174q-81 -65 -218 -65t-224 63t-98 170zM602 0h-127l725 1352h127zM1432 0v190h-420v97q123 102 177 230t54 321h139q0 -180 -84 -323q-83 -141 -225 -218h359v213h122v-213h127v-107h-127v-190h-122z" />
    <glyph glyph-name="questiondown" unicode="&#xbf;" horiz-adv-x="917" 
d="M403 987h134v-211h-134v211zM858 4q0 -178 -102 -286q-101 -107 -273 -107q-167 0 -266 99q-98 98 -98 270q0 279 289 393v168h124v-187q-142 -50 -211 -139t-69 -221q0 -128 61 -198t170 -70q122 0 186 88t52 231z" />
    <glyph glyph-name="Agrave" unicode="&#xc0;" horiz-adv-x="1196" 
d="M1100 0h-133l-121 406h-496l-121 -406h-133l410 1352h184zM600 1239l-217 -723h430zM477 1722l271 -237l-136 -19l-284 236z" />
    <glyph glyph-name="Aacute" unicode="&#xc1;" horiz-adv-x="1196" 
d="M1100 0h-133l-121 406h-496l-121 -406h-133l410 1352h184zM600 1239l-217 -723h430zM621 1466l-138 19l273 237l149 -20z" />
    <glyph glyph-name="Acircumflex" unicode="&#xc2;" horiz-adv-x="1196" 
d="M1100 0h-133l-121 406h-496l-121 -406h-133l410 1352h184zM600 1239l-217 -723h430zM676 1712l264 -229l-137 -19l-189 160l-188 -160l-139 19l264 229h125z" />
    <glyph glyph-name="Atilde" unicode="&#xc3;" horiz-adv-x="1196" 
d="M1100 0h-133l-121 406h-496l-121 -406h-133l410 1352h184zM600 1239l-217 -723h430zM256 1493q7 205 195 205q41 0 85 -19q40 -17 111 -65q42 -28 70 -42q22 -11 51 -11q48 0 69 30t21 101l107 -19q-4 -104 -54 -155q-50 -52 -143 -52q-41 0 -83 18q-47 20 -112 64
q-50 32 -73 43q-24 11 -49 11q-46 0 -67 -30q-22 -31 -22 -97z" />
    <glyph glyph-name="Adieresis" unicode="&#xc4;" horiz-adv-x="1196" 
d="M1100 0h-133l-121 406h-496l-121 -406h-133l410 1352h184zM600 1239l-217 -723h430zM383 1692h135l2 -193h-133zM702 1692h136l2 -193h-133z" />
    <glyph glyph-name="Aring" unicode="&#xc5;" horiz-adv-x="1196" 
d="M1100 0h-133l-121 406h-496l-121 -406h-133l410 1352h184zM600 1239l-217 -723h430zM467 1497q-57 53 -57 133t57 132q58 53 145 53t147 -54q58 -52 58 -131q0 -81 -58 -133q-59 -53 -147 -53q-87 0 -145 53zM690 1555q31 31 31 75t-31 75q-30 30 -78 30q-47 0 -77 -30
q-31 -31 -31 -75t31 -75q29 -29 77 -29q49 0 78 29z" />
    <glyph glyph-name="AE" unicode="&#xc6;" horiz-adv-x="1636" 
d="M1497 1352v-117h-719l88 -485h559v-111h-538l96 -522h514v-117h-618l-76 410h-473l-156 -410h-133l522 1352h934zM651 1249l-280 -731h413z" />
    <glyph glyph-name="Ccedilla" unicode="&#xc7;" horiz-adv-x="1243" 
d="M880 201q87 112 93 305l135 -39q-21 -231 -138 -358q-119 -129 -311 -134l-14 -81q60 -6 96 -37q35 -30 35 -76q0 -56 -50 -91q-49 -34 -132 -34q-77 0 -131 31l16 108q28 -22 53 -33q23 -10 56 -10q38 0 59 15t21 40q0 32 -34 54q-35 23 -95 33h-2l18 90
q-195 39 -307 223q-113 185 -113 469q0 208 64 370q63 158 179 244t269 86q199 0 320 -129q120 -127 141 -362l-135 -39q-6 195 -93 306q-88 112 -233 112q-112 0 -198 -74q-88 -76 -134 -207q-47 -135 -47 -307t47 -307q46 -131 134 -207q86 -74 198 -74q146 0 233 113z
" />
    <glyph glyph-name="Egrave" unicode="&#xc8;" horiz-adv-x="1103" 
d="M965 1352v-117h-633v-485h561v-111h-561v-522h633v-117h-758v1352h758zM451 1722l270 -237l-135 -19l-285 236z" />
    <glyph glyph-name="Eacute" unicode="&#xc9;" horiz-adv-x="1103" 
d="M965 1352v-117h-633v-485h561v-111h-561v-522h633v-117h-758v1352h758zM594 1466l-137 19l272 237l150 -20z" />
    <glyph glyph-name="Ecircumflex" unicode="&#xca;" horiz-adv-x="1103" 
d="M965 1352v-117h-633v-485h561v-111h-561v-522h633v-117h-758v1352h758zM649 1712l264 -229l-137 -19l-188 160l-189 -160l-139 19l264 229h125z" />
    <glyph glyph-name="Edieresis" unicode="&#xcb;" horiz-adv-x="1103" 
d="M965 1352v-117h-633v-485h561v-111h-561v-522h633v-117h-758v1352h758zM356 1692h136l2 -193h-134zM676 1692h135l2 -193h-133z" />
    <glyph glyph-name="Igrave" unicode="&#xcc;" horiz-adv-x="536" 
d="M332 0h-125v1352h125v-1352zM137 1722l271 -237l-136 -19l-284 236z" />
    <glyph glyph-name="Iacute" unicode="&#xcd;" horiz-adv-x="536" 
d="M332 0h-125v1352h125v-1352zM281 1466l-138 19l273 237l149 -20z" />
    <glyph glyph-name="Icircumflex" unicode="&#xce;" horiz-adv-x="536" 
d="M332 0h-125v1352h125v-1352zM336 1712l264 -229l-137 -19l-189 160l-188 -160l-139 19l264 229h125z" />
    <glyph glyph-name="Idieresis" unicode="&#xcf;" horiz-adv-x="536" 
d="M332 0h-125v1352h125v-1352zM43 1692h135l2 -193h-133zM362 1692h136l2 -193h-133z" />
    <glyph glyph-name="Eth" unicode="&#xd0;" horiz-adv-x="1259" 
d="M978 1182q144 -169 144 -506q0 -336 -144 -506t-429 -170h-332v647h-164v98h164v607h332q285 0 429 -170zM549 117q226 0 334 136q108 137 108 423t-108 423q-108 136 -334 136h-207v-490h291v-98h-291v-530h207z" />
    <glyph glyph-name="Ntilde" unicode="&#xd1;" horiz-adv-x="1302" 
d="M971 150v1202h125v-1352h-185l-579 1198v-1198h-125v1352h182zM297 1493q7 205 195 205q41 0 85 -19q40 -17 111 -65q42 -28 70 -42q22 -11 51 -11q48 0 69 30t21 101l107 -19q-4 -104 -54 -155q-50 -52 -143 -52q-41 0 -83 18q-47 20 -112 64q-50 32 -73 43
q-24 11 -49 11q-46 0 -67 -30q-22 -31 -22 -97z" />
    <glyph glyph-name="Ograve" unicode="&#xd2;" horiz-adv-x="1296" 
d="M376 63q-115 88 -178 246t-63 367q0 208 63 366t178 246t271 88q157 0 272 -88t178 -246q62 -155 62 -366q0 -212 -62 -367q-63 -158 -178 -246t-272 -88q-156 0 -271 88zM847 162q87 74 134 208q47 135 47 306t-47 306q-47 134 -134 208q-88 74 -200 74t-198 -74
q-88 -76 -134 -208q-47 -135 -47 -306t47 -306q46 -132 134 -208q86 -74 198 -74t200 74zM512 1722l270 -237l-135 -19l-285 236z" />
    <glyph glyph-name="Oacute" unicode="&#xd3;" horiz-adv-x="1296" 
d="M376 63q-115 88 -178 246t-63 367q0 208 63 366t178 246t271 88q157 0 272 -88t178 -246q62 -155 62 -366q0 -212 -62 -367q-63 -158 -178 -246t-272 -88q-156 0 -271 88zM847 162q87 74 134 208q47 135 47 306t-47 306q-47 134 -134 208q-88 74 -200 74t-198 -74
q-88 -76 -134 -208q-47 -135 -47 -306t47 -306q46 -132 134 -208q86 -74 198 -74t200 74zM655 1466l-137 19l273 237l149 -20z" />
    <glyph glyph-name="Ocircumflex" unicode="&#xd4;" horiz-adv-x="1296" 
d="M376 63q-115 88 -178 246t-63 367q0 208 63 366t178 246t271 88q157 0 272 -88t178 -246q62 -155 62 -366q0 -212 -62 -367q-63 -158 -178 -246t-272 -88q-156 0 -271 88zM847 162q87 74 134 208q47 135 47 306t-47 306q-47 134 -134 208q-88 74 -200 74t-198 -74
q-88 -76 -134 -208q-47 -135 -47 -306t47 -306q46 -132 134 -208q86 -74 198 -74t200 74zM711 1712l264 -229l-137 -19l-189 160l-188 -160l-139 19l264 229h125z" />
    <glyph glyph-name="Otilde" unicode="&#xd5;" horiz-adv-x="1296" 
d="M376 63q-115 88 -178 246t-63 367q0 208 63 366t178 246t271 88q157 0 272 -88t178 -246q62 -155 62 -366q0 -212 -62 -367q-63 -158 -178 -246t-272 -88q-156 0 -271 88zM847 162q87 74 134 208q47 135 47 306t-47 306q-47 134 -134 208q-88 74 -200 74t-198 -74
q-88 -76 -134 -208q-47 -135 -47 -306t47 -306q46 -132 134 -208q86 -74 198 -74t200 74zM291 1493q7 205 194 205q41 0 85 -19q43 -18 112 -65q42 -28 70 -42q22 -11 51 -11q47 0 68 30q22 31 22 101l106 -19q-5 -105 -53 -155q-50 -52 -143 -52q-41 0 -83 18
q-47 20 -112 64q-50 32 -73 43q-24 11 -50 11q-45 0 -66 -30q-22 -31 -22 -97z" />
    <glyph glyph-name="Odieresis" unicode="&#xd6;" horiz-adv-x="1296" 
d="M376 63q-115 88 -178 246t-63 367q0 208 63 366t178 246t271 88q157 0 272 -88t178 -246q62 -155 62 -366q0 -212 -62 -367q-63 -158 -178 -246t-272 -88q-156 0 -271 88zM847 162q87 74 134 208q47 135 47 306t-47 306q-47 134 -134 208q-88 74 -200 74t-198 -74
q-88 -76 -134 -208q-47 -135 -47 -306t47 -306q46 -132 134 -208q86 -74 198 -74t200 74zM418 1692h135l2 -193h-133zM737 1692h135l2 -193h-133z" />
    <glyph glyph-name="multiply" unicode="&#xd7;" horiz-adv-x="1060" 
d="M852 1079l82 -82l-322 -321l322 -322l-82 -82l-322 322l-321 -322l-82 82l322 322l-322 321l82 82l321 -321z" />
    <glyph glyph-name="Oslash" unicode="&#xd8;" horiz-adv-x="1296" 
d="M1001 1208q77 -94 118 -229q40 -133 40 -303q0 -212 -62 -367q-63 -158 -178 -246t-272 -88q-164 0 -287 99l-88 -156h-112l129 229q-73 91 -114 229q-40 135 -40 300q0 208 63 366t178 246t271 88q160 0 283 -96l86 154h114zM360 272l506 899q-93 93 -219 93
q-112 0 -198 -74q-88 -76 -134 -208q-47 -135 -47 -306q0 -247 92 -404zM847 162q87 74 134 208q47 135 47 306q0 248 -94 409l-510 -901q92 -96 223 -96q112 0 200 74z" />
    <glyph glyph-name="Ugrave" unicode="&#xd9;" horiz-adv-x="1239" 
d="M180 1352h125v-908q0 -168 84 -262t229 -94q148 0 232 94q84 95 84 262v908h125v-908q0 -218 -118 -343q-119 -126 -323 -126q-202 0 -320 126q-118 125 -118 343v908zM485 1722l271 -237l-135 -19l-285 236z" />
    <glyph glyph-name="Uacute" unicode="&#xda;" horiz-adv-x="1239" 
d="M180 1352h125v-908q0 -168 84 -262t229 -94q148 0 232 94q84 95 84 262v908h125v-908q0 -218 -118 -343q-119 -126 -323 -126q-202 0 -320 126q-118 125 -118 343v908zM629 1466l-137 19l272 237l149 -20z" />
    <glyph glyph-name="Ucircumflex" unicode="&#xdb;" horiz-adv-x="1239" 
d="M180 1352h125v-908q0 -168 84 -262t229 -94q148 0 232 94q84 95 84 262v908h125v-908q0 -218 -118 -343q-119 -126 -323 -126q-202 0 -320 126q-118 125 -118 343v908zM684 1712l264 -229l-137 -19l-188 160l-189 -160l-139 19l264 229h125z" />
    <glyph glyph-name="Udieresis" unicode="&#xdc;" horiz-adv-x="1239" 
d="M180 1352h125v-908q0 -168 84 -262t229 -94q148 0 232 94q84 95 84 262v908h125v-908q0 -218 -118 -343q-119 -126 -323 -126q-202 0 -320 126q-118 125 -118 343v908zM391 1692h135l2 -193h-133zM711 1692h135l2 -193h-133z" />
    <glyph glyph-name="Yacute" unicode="&#xdd;" horiz-adv-x="1146" 
d="M575 659l353 693h143l-434 -826v-526h-125v526l-434 826h143zM584 1466l-138 19l273 237l149 -20z" />
    <glyph glyph-name="Thorn" unicode="&#xde;" horiz-adv-x="1157" 
d="M588 1096q222 2 338 -106q116 -107 116 -308q0 -202 -116 -306q-118 -106 -338 -106h-256v-270h-125v1352h125v-256h256zM580 381q166 0 249 75q82 75 82 226q0 153 -82 228q-83 75 -249 75h-248v-604h248z" />
    <glyph glyph-name="germandbls" unicode="&#xdf;" horiz-adv-x="1093" 
d="M894 649q91 -107 91 -280q0 -187 -100 -290q-101 -104 -279 -104q-130 0 -205 52l21 123q87 -70 190 -70q120 0 183 74t63 213q0 155 -84 235q-85 80 -248 80h-71v111h55q113 0 184 80q72 81 72 208q0 122 -64 198q-63 75 -170 75q-105 0 -168 -77t-63 -208v-1069h-123
v1069q0 183 93 286t259 103q163 0 263 -100t100 -262q0 -121 -67 -205q-67 -83 -187 -107q163 -27 255 -135z" />
    <glyph glyph-name="agrave" unicode="&#xe0;" horiz-adv-x="972" 
d="M727 922q90 -90 90 -252v-670h-123v160q-29 -91 -99 -137q-73 -48 -169 -48q-135 0 -222 87t-87 221q0 135 90 223q89 88 227 88q95 0 163 -46q69 -46 97 -134v241q0 120 -57 186t-158 66t-158 -66q-57 -65 -55 -179l-129 36q11 146 102 230q92 84 240 84q158 0 248 -90z
M631 138q63 59 63 149q0 88 -63 145t-160 57q-99 0 -163 -57t-64 -145q0 -91 64 -149t163 -58q98 0 160 58zM356 1409l242 -274l-121 -17l-254 273z" />
    <glyph glyph-name="aacute" unicode="&#xe1;" horiz-adv-x="972" 
d="M727 922q90 -90 90 -252v-670h-123v160q-29 -91 -99 -137q-73 -48 -169 -48q-135 0 -222 87t-87 221q0 135 90 223q89 88 227 88q95 0 163 -46q69 -46 97 -134v241q0 120 -57 186t-158 66t-158 -66q-57 -65 -55 -179l-129 36q11 146 102 230q92 84 240 84q158 0 248 -90z
M631 138q63 59 63 149q0 88 -63 145t-160 57q-99 0 -163 -57t-64 -145q0 -91 64 -149t163 -58q98 0 160 58zM481 1118l-121 17l242 274l133 -18z" />
    <glyph glyph-name="acircumflex" unicode="&#xe2;" horiz-adv-x="972" 
d="M727 922q90 -90 90 -252v-670h-123v160q-29 -91 -99 -137q-73 -48 -169 -48q-135 0 -222 87t-87 221q0 135 90 223q89 88 227 88q95 0 163 -46q69 -46 97 -134v241q0 120 -57 186t-158 66t-158 -66q-57 -65 -55 -179l-129 36q11 146 102 230q92 84 240 84q158 0 248 -90z
M631 138q63 59 63 149q0 88 -63 145t-160 57q-99 0 -163 -57t-64 -145q0 -91 64 -149t163 -58q98 0 160 58zM537 1403l237 -268l-121 -17l-174 191l-176 -191l-123 17l240 268h117z" />
    <glyph glyph-name="atilde" unicode="&#xe3;" horiz-adv-x="972" 
d="M727 922q90 -90 90 -252v-670h-123v160q-29 -91 -99 -137q-73 -48 -169 -48q-135 0 -222 87t-87 221q0 135 90 223q89 88 227 88q95 0 163 -46q69 -46 97 -134v241q0 120 -57 186t-158 66t-158 -66q-57 -65 -55 -179l-129 36q11 146 102 230q92 84 240 84q158 0 248 -90z
M631 138q63 59 63 149q0 88 -63 145t-160 57q-99 0 -163 -57t-64 -145q0 -91 64 -149t163 -58q98 0 160 58zM162 1149q4 111 52 170q47 59 134 59q47 0 81 -19t81 -71q33 -37 55 -53q20 -14 39 -14q78 0 78 153l104 -18q-5 -112 -49 -171q-46 -61 -129 -61q-51 0 -84 18
q-34 19 -86 75q-33 38 -54 52q-19 13 -42 13q-74 0 -74 -152z" />
    <glyph glyph-name="adieresis" unicode="&#xe4;" horiz-adv-x="972" 
d="M727 922q90 -90 90 -252v-670h-123v160q-29 -91 -99 -137q-73 -48 -169 -48q-135 0 -222 87t-87 221q0 135 90 223q89 88 227 88q95 0 163 -46q69 -46 97 -134v241q0 120 -57 186t-158 66t-158 -66q-57 -65 -55 -179l-129 36q11 146 102 230q92 84 240 84q158 0 248 -90z
M631 138q63 59 63 149q0 88 -63 145t-160 57q-99 0 -163 -57t-64 -145q0 -91 64 -149t163 -58q98 0 160 58zM262 1376h133l2 -209h-131zM555 1376h133l2 -209h-133z" />
    <glyph glyph-name="aring" unicode="&#xe5;" horiz-adv-x="972" 
d="M727 922q90 -90 90 -252v-670h-123v160q-29 -91 -99 -137q-73 -48 -169 -48q-135 0 -222 87t-87 221q0 135 90 223q89 88 227 88q95 0 163 -46q69 -46 97 -134v241q0 120 -57 186t-158 66t-158 -66q-57 -65 -55 -179l-129 36q11 146 102 230q92 84 240 84q158 0 248 -90z
M631 138q63 59 63 149q0 88 -63 145t-160 57q-99 0 -163 -57t-64 -145q0 -91 64 -149t163 -58q98 0 160 58zM326 1153q-58 53 -58 133q0 79 58 132q56 52 145 52q87 0 146 -53t59 -131q0 -80 -59 -133t-146 -53t-145 53zM549 1211q31 31 31 75t-31 75q-30 30 -78 30t-78 -30
q-31 -31 -31 -75t31 -75q29 -29 78 -29t78 29z" />
    <glyph glyph-name="ae" unicode="&#xe6;" horiz-adv-x="1570" 
d="M821 475q4 -182 78 -289q73 -106 193 -106q102 0 168 78q65 77 65 196l127 -37q-6 -96 -55 -175q-50 -80 -130 -123q-82 -44 -180 -44q-126 0 -220 74q-93 73 -138 205q-8 -131 -89 -205q-82 -74 -210 -74q-136 0 -225 87q-88 87 -88 221q0 135 90 223q89 88 227 88
q97 0 164 -46q68 -46 96 -132v239q0 120 -57 186t-158 66t-158 -66q-57 -65 -55 -179l-129 36q11 146 102 230q92 84 240 84q146 0 234 -76q87 -75 102 -215q61 291 305 291q157 0 248 -118q92 -119 92 -312q0 -52 -6 -107h-633zM1329 571q5 158 -59 247q-63 89 -178 89
q-109 0 -181 -90q-71 -89 -86 -246h504zM631 138q63 59 63 149q-1 88 -64 145t-159 57q-99 0 -163 -57t-64 -145q0 -91 64 -149t163 -58q98 0 160 58z" />
    <glyph glyph-name="ccedilla" unicode="&#xe7;" horiz-adv-x="974" 
d="M674 158q65 77 65 198l129 -37q-11 -136 -95 -229t-216 -110l-14 -86q60 -6 96 -37q35 -30 35 -76q0 -56 -50 -91q-49 -34 -132 -34q-78 0 -132 31l17 108q28 -22 53 -33q23 -10 55 -10q39 0 60 15q20 14 20 40q0 32 -34 54q-35 23 -95 33h-2l17 86q-159 23 -250 159
q-92 137 -92 355q0 237 107 377q108 141 290 141q148 0 251 -97q100 -94 111 -243l-129 -37q0 121 -65 196q-66 76 -168 76q-124 0 -197 -112t-73 -301t73 -301q74 -113 197 -113q102 0 168 78z" />
    <glyph glyph-name="egrave" unicode="&#xe8;" horiz-adv-x="985" 
d="M236 475q5 -184 77 -289q73 -106 193 -106q100 0 166 77q66 76 67 197l127 -37q-6 -96 -54 -174t-129 -123t-177 -45q-182 0 -290 141q-107 140 -107 378q0 237 107 377q108 141 290 141q170 0 270 -117q101 -118 101 -313q0 -19 -9 -107h-632zM743 571q5 158 -59 247
q-63 89 -178 89q-108 0 -180 -90q-71 -89 -86 -246h503zM385 1409l242 -274l-121 -17l-254 273z" />
    <glyph glyph-name="eacute" unicode="&#xe9;" horiz-adv-x="985" 
d="M236 475q5 -184 77 -289q73 -106 193 -106q100 0 166 77q66 76 67 197l127 -37q-6 -96 -54 -174t-129 -123t-177 -45q-182 0 -290 141q-107 140 -107 378q0 237 107 377q108 141 290 141q170 0 270 -117q101 -118 101 -313q0 -19 -9 -107h-632zM743 571q5 158 -59 247
q-63 89 -178 89q-108 0 -180 -90q-71 -89 -86 -246h503zM510 1118l-121 17l242 274l133 -18z" />
    <glyph glyph-name="ecircumflex" unicode="&#xea;" horiz-adv-x="985" 
d="M236 475q5 -184 77 -289q73 -106 193 -106q100 0 166 77q66 76 67 197l127 -37q-6 -96 -54 -174t-129 -123t-177 -45q-182 0 -290 141q-107 140 -107 378q0 237 107 377q108 141 290 141q170 0 270 -117q101 -118 101 -313q0 -19 -9 -107h-632zM743 571q5 158 -59 247
q-63 89 -178 89q-108 0 -180 -90q-71 -89 -86 -246h503zM565 1403l238 -268l-121 -17l-174 191l-176 -191l-123 17l240 268h116z" />
    <glyph glyph-name="edieresis" unicode="&#xeb;" horiz-adv-x="985" 
d="M236 475q5 -184 77 -289q73 -106 193 -106q100 0 166 77q66 76 67 197l127 -37q-6 -96 -54 -174t-129 -123t-177 -45q-182 0 -290 141q-107 140 -107 378q0 237 107 377q108 141 290 141q170 0 270 -117q101 -118 101 -313q0 -19 -9 -107h-632zM743 571q5 158 -59 247
q-63 89 -178 89q-108 0 -180 -90q-71 -89 -86 -246h503zM291 1376h133l2 -209h-131zM584 1376h133l2 -209h-133z" />
    <glyph glyph-name="igrave" unicode="&#xec;" horiz-adv-x="485" 
d="M182 987h123v-987h-123v987zM123 1409l242 -274l-121 -17l-254 273z" />
    <glyph glyph-name="iacute" unicode="&#xed;" horiz-adv-x="485" 
d="M182 987h123v-987h-123v987zM246 1118l-121 17l242 274l133 -18z" />
    <glyph glyph-name="icircumflex" unicode="&#xee;" horiz-adv-x="485" 
d="M182 987h123v-987h-123v987zM303 1403l238 -268l-121 -17l-174 191l-176 -191l-123 17l239 268h117z" />
    <glyph glyph-name="idieresis" unicode="&#xef;" horiz-adv-x="485" 
d="M182 987h123v-987h-123v987zM29 1376h133l2 -209h-131zM322 1376h133l2 -209h-133z" />
    <glyph glyph-name="eth" unicode="&#xf0;" horiz-adv-x="1034" 
d="M893 877q31 -121 31 -277q0 -298 -113 -462q-112 -163 -317 -163q-178 0 -282 123q-103 122 -103 334q0 139 44 245t125 163t187 57q135 0 223 -90q89 -91 107 -248q2 32 2 80q0 301 -191 498l-327 -113v104l241 84q-143 112 -358 191l155 55q205 -92 330 -198l271 92
v-103l-191 -67q43 -48 64 -80q72 -108 102 -225zM692 177q74 98 74 261q0 170 -69 262q-70 93 -197 93q-125 0 -195 -93q-69 -92 -69 -260q0 -169 68 -264q69 -96 190 -96q125 0 198 97z" />
    <glyph glyph-name="ntilde" unicode="&#xf1;" horiz-adv-x="1032" 
d="M797 909q80 -103 80 -282v-627h-123v618q0 137 -60 212t-168 75t-167 -75q-58 -74 -58 -212v-618h-123v987h123v-178q33 97 103 150q71 53 171 53q142 0 222 -103zM213 1149q4 111 52 170q47 59 134 59q47 0 81 -19t81 -71q33 -37 55 -53q20 -14 39 -14q78 0 78 153
l105 -18q-4 -110 -50 -171t-129 -61q-51 0 -84 18q-34 19 -86 75q-33 38 -54 52q-19 13 -42 13q-74 0 -74 -152z" />
    <glyph glyph-name="ograve" unicode="&#xf2;" horiz-adv-x="1013" 
d="M216 116q-107 140 -107 378q0 237 107 377q108 141 290 141q184 0 292 -141q107 -140 107 -377q0 -238 -107 -378q-108 -141 -292 -141q-182 0 -290 141zM703 194q75 114 75 300t-75 300q-74 113 -197 113q-124 0 -197 -112t-73 -301t73 -301q74 -113 197 -113
q122 0 197 114zM387 1409l242 -274l-121 -17l-254 273z" />
    <glyph glyph-name="oacute" unicode="&#xf3;" horiz-adv-x="1013" 
d="M216 116q-107 140 -107 378q0 237 107 377q108 141 290 141q184 0 292 -141q107 -140 107 -377q0 -238 -107 -378q-108 -141 -292 -141q-182 0 -290 141zM703 194q75 114 75 300t-75 300q-74 113 -197 113q-124 0 -197 -112t-73 -301t73 -301q74 -113 197 -113
q122 0 197 114zM512 1118l-121 17l242 274l133 -18z" />
    <glyph glyph-name="ocircumflex" unicode="&#xf4;" horiz-adv-x="1013" 
d="M216 116q-107 140 -107 378q0 237 107 377q108 141 290 141q184 0 292 -141q107 -140 107 -377q0 -238 -107 -378q-108 -141 -292 -141q-182 0 -290 141zM703 194q75 114 75 300t-75 300q-74 113 -197 113q-124 0 -197 -112t-73 -301t73 -301q74 -113 197 -113
q122 0 197 114zM567 1403l238 -268l-121 -17l-174 191l-176 -191l-123 17l240 268h116z" />
    <glyph glyph-name="otilde" unicode="&#xf5;" horiz-adv-x="1013" 
d="M216 116q-107 140 -107 378q0 237 107 377q108 141 290 141q184 0 292 -141q107 -140 107 -377q0 -238 -107 -378q-108 -141 -292 -141q-182 0 -290 141zM703 194q75 114 75 300t-75 300q-74 113 -197 113q-124 0 -197 -112t-73 -301t73 -301q74 -113 197 -113
q122 0 197 114zM193 1149q4 111 52 170q47 59 134 59q47 0 81 -19t81 -71q33 -37 55 -53q20 -14 39 -14q78 0 78 153l104 -18q-5 -112 -49 -171q-46 -61 -129 -61q-51 0 -84 18q-34 19 -86 75q-33 38 -54 52q-19 13 -42 13q-74 0 -74 -152z" />
    <glyph glyph-name="odieresis" unicode="&#xf6;" horiz-adv-x="1013" 
d="M216 116q-107 140 -107 378q0 237 107 377q108 141 290 141q184 0 292 -141q107 -140 107 -377q0 -238 -107 -378q-108 -141 -292 -141q-182 0 -290 141zM703 194q75 114 75 300t-75 300q-74 113 -197 113q-124 0 -197 -112t-73 -301t73 -301q74 -113 197 -113
q122 0 197 114zM293 1376h133l2 -209h-131zM586 1376h133l2 -209h-133z" />
    <glyph glyph-name="divide" unicode="&#xf7;" horiz-adv-x="1060" 
d="M467 1063h127v-211h-127v211zM96 618v115h869v-115h-869zM467 500h127v-211h-127v211z" />
    <glyph glyph-name="oslash" unicode="&#xf8;" horiz-adv-x="1013" 
d="M788 883q117 -140 117 -389q0 -238 -107 -378q-108 -141 -292 -141q-113 0 -199 56l-63 -113h-115l102 180q-122 138 -122 396q0 237 107 377q108 141 290 141q118 0 207 -60l67 117h115zM297 215l358 635q-63 57 -149 57q-124 0 -197 -112t-73 -301q0 -169 61 -279z
M703 194q75 114 75 300q0 162 -57 270l-356 -633q61 -51 141 -51q122 0 197 114z" />
    <glyph glyph-name="ugrave" unicode="&#xf9;" horiz-adv-x="1011" 
d="M711 987h123v-987h-123v178q-33 -97 -102 -149q-71 -54 -165 -54q-133 0 -211 104q-77 102 -77 283v625h123v-618q0 -141 56 -213q57 -74 161 -74q101 0 158 74t57 213v618zM375 1409l241 -274l-120 -17l-254 273z" />
    <glyph glyph-name="uacute" unicode="&#xfa;" horiz-adv-x="1011" 
d="M711 987h123v-987h-123v178q-33 -97 -102 -149q-71 -54 -165 -54q-133 0 -211 104q-77 102 -77 283v625h123v-618q0 -141 56 -213q57 -74 161 -74q101 0 158 74t57 213v618zM500 1118l-121 17l242 274l133 -18z" />
    <glyph glyph-name="ucircumflex" unicode="&#xfb;" horiz-adv-x="1011" 
d="M711 987h123v-987h-123v178q-33 -97 -102 -149q-71 -54 -165 -54q-133 0 -211 104q-77 102 -77 283v625h123v-618q0 -141 56 -213q57 -74 161 -74q101 0 158 74t57 213v618zM555 1403l238 -268l-121 -17l-174 191l-176 -191l-123 17l239 268h117z" />
    <glyph glyph-name="udieresis" unicode="&#xfc;" horiz-adv-x="1011" 
d="M711 987h123v-987h-123v178q-33 -97 -102 -149q-71 -54 -165 -54q-133 0 -211 104q-77 102 -77 283v625h123v-618q0 -141 56 -213q57 -74 161 -74q101 0 158 74t57 213v618zM281 1376h133l2 -209h-131zM573 1376h134l2 -209h-134z" />
    <glyph glyph-name="yacute" unicode="&#xfd;" horiz-adv-x="940" 
d="M748 987h131l-338 -975q-51 -149 -112 -241q-58 -87 -139 -131q-83 -45 -204 -52l-33 133q22 -2 47 -2q114 0 190 72q78 73 128 221l20 60h-59l-318 915h132l276 -821zM489 1118l-120 17l241 274l133 -18z" />
    <glyph glyph-name="thorn" unicode="&#xfe;" horiz-adv-x="1073" 
d="M796 948q82 -64 125 -181q44 -120 44 -273q0 -154 -44 -274q-43 -117 -125 -181t-188 -64q-110 0 -191 70q-78 68 -116 199v-654h-123v1850h123v-695q38 130 116 198q79 69 191 69q106 0 188 -64zM764 194q74 115 74 300t-74 300q-73 113 -195 113q-124 0 -195 -110
q-73 -113 -73 -303q0 -191 73 -304q71 -110 195 -110q121 0 195 114z" />
    <glyph glyph-name="ydieresis" unicode="&#xff;" horiz-adv-x="940" 
d="M748 987h131l-338 -975q-51 -149 -112 -241q-58 -87 -139 -131q-83 -45 -204 -52l-33 133q22 -2 47 -2q114 0 190 72q78 73 128 221l20 60h-59l-318 915h132l276 -821zM270 1376h133l3 -209h-132zM563 1376h133l2 -209h-133z" />
    <glyph glyph-name="Amacron" unicode="&#x100;" horiz-adv-x="1196" 
d="M1100 0h-133l-121 406h-496l-121 -406h-133l410 1352h184zM600 1239l-217 -723h430zM322 1513v99h579v-99h-579z" />
    <glyph glyph-name="amacron" unicode="&#x101;" horiz-adv-x="972" 
d="M727 922q90 -90 90 -252v-670h-123v160q-29 -91 -99 -137q-73 -48 -169 -48q-135 0 -222 87t-87 221q0 135 90 223q89 88 227 88q95 0 163 -46q69 -46 97 -134v241q0 120 -57 186t-158 66t-158 -66q-57 -65 -55 -179l-129 36q11 146 102 230q92 84 240 84q158 0 248 -90z
M631 138q63 59 63 149q0 88 -63 145t-160 57q-99 0 -163 -57t-64 -145q0 -91 64 -149t163 -58q98 0 160 58zM217 1184v98h518v-98h-518z" />
    <glyph glyph-name="Abreve" unicode="&#x102;" horiz-adv-x="1196" 
d="M1100 0h-133l-121 406h-496l-121 -406h-133l410 1352h184zM600 1239l-217 -723h430zM924 1702q-27 -229 -312 -229q-286 0 -313 229l115 14q7 -149 198 -149q187 0 199 149z" />
    <glyph glyph-name="abreve" unicode="&#x103;" horiz-adv-x="972" 
d="M727 922q90 -90 90 -252v-670h-123v160q-29 -91 -99 -137q-73 -48 -169 -48q-135 0 -222 87t-87 221q0 135 90 223q89 88 227 88q95 0 163 -46q69 -46 97 -134v241q0 120 -57 186t-158 66t-158 -66q-57 -65 -55 -179l-129 36q11 146 102 230q92 84 240 84q158 0 248 -90z
M631 138q63 59 63 149q0 88 -63 145t-160 57q-99 0 -163 -57t-64 -145q0 -91 64 -149t163 -58q98 0 160 58zM754 1395q-5 -131 -76 -199q-73 -70 -201 -70q-131 0 -204 71q-71 70 -76 198l110 14q-2 -89 43 -138q45 -50 127 -50t126 50q43 49 42 138z" />
    <glyph glyph-name="Aogonek" unicode="&#x104;" horiz-adv-x="1196" 
d="M1081 -209l17 -104q-45 -31 -121 -31q-82 0 -134 43t-52 111q0 67 53 120q54 54 137 70h-14l-121 406h-496l-121 -406h-133l410 1352h184l410 -1352q-96 -18 -148 -60q-53 -42 -53 -98q0 -40 26 -64q25 -24 72 -24q51 0 84 37zM600 1239l-217 -723h430z" />
    <glyph glyph-name="aogonek" unicode="&#x105;" horiz-adv-x="972" 
d="M817 0q-95 -18 -147 -60q-54 -43 -54 -98q0 -40 26 -64t73 -24q51 0 84 37l16 -104q-45 -31 -121 -31q-82 0 -134 43t-52 111q0 67 53 120q54 54 137 70h-4v160q-29 -91 -99 -137q-73 -48 -169 -48q-135 0 -222 87t-87 221q0 135 90 223q89 88 227 88q95 0 163 -46
q69 -46 97 -134v241q0 120 -57 186t-158 66t-158 -66q-57 -65 -55 -179l-129 36q11 146 102 230q92 84 240 84q158 0 248 -90t90 -252v-670zM631 138q63 59 63 149q0 88 -63 145t-160 57q-99 0 -163 -57t-64 -145q0 -91 64 -149t163 -58q98 0 160 58z" />
    <glyph glyph-name="Cacute" unicode="&#x106;" horiz-adv-x="1243" 
d="M1108 467q-21 -232 -142 -362t-319 -130q-153 0 -269 86t-179 245q-64 162 -64 370t64 370q63 158 179 244t269 86q199 0 320 -129q120 -127 141 -362l-135 -39q-6 195 -93 306q-88 112 -233 112q-112 0 -198 -74q-88 -76 -134 -207q-47 -135 -47 -307t47 -307
q46 -131 134 -207q86 -74 198 -74q146 0 233 113q87 112 93 305zM657 1466l-137 19l273 237l149 -20z" />
    <glyph glyph-name="cacute" unicode="&#x107;" horiz-adv-x="974" 
d="M868 319q-6 -99 -55 -176q-49 -78 -129 -123t-178 -45q-120 0 -211 64q-90 63 -138 181t-48 274q0 237 107 377q108 141 290 141q148 0 251 -97q100 -94 111 -243l-129 -37q0 121 -65 196q-66 76 -168 76q-124 0 -197 -112t-73 -301t73 -301q74 -113 197 -113
q102 0 168 78q65 77 65 198zM512 1118l-121 17l242 274l133 -18z" />
    <glyph glyph-name="Ccircumflex" unicode="&#x108;" horiz-adv-x="1243" 
d="M1108 467q-21 -232 -142 -362t-319 -130q-153 0 -269 86t-179 245q-64 162 -64 370t64 370q63 158 179 244t269 86q199 0 320 -129q120 -127 141 -362l-135 -39q-6 195 -93 306q-88 112 -233 112q-112 0 -198 -74q-88 -76 -134 -207q-47 -135 -47 -307t47 -307
q46 -131 134 -207q86 -74 198 -74q146 0 233 113q87 112 93 305zM713 1712l264 -229l-137 -19l-189 160l-188 -160l-139 19l264 229h125z" />
    <glyph glyph-name="ccircumflex" unicode="&#x109;" horiz-adv-x="974" 
d="M868 319q-6 -99 -55 -176q-49 -78 -129 -123t-178 -45q-120 0 -211 64q-90 63 -138 181t-48 274q0 237 107 377q108 141 290 141q148 0 251 -97q100 -94 111 -243l-129 -37q0 121 -65 196q-66 76 -168 76q-124 0 -197 -112t-73 -301t73 -301q74 -113 197 -113
q102 0 168 78q65 77 65 198zM567 1403l238 -268l-121 -17l-174 191l-176 -191l-123 17l240 268h116z" />
    <glyph glyph-name="Cdotaccent" unicode="&#x10a;" horiz-adv-x="1243" 
d="M1108 467q-21 -232 -142 -362t-319 -130q-153 0 -269 86t-179 245q-64 162 -64 370t64 370q63 158 179 244t269 86q199 0 320 -129q120 -127 141 -362l-135 -39q-6 195 -93 306q-88 112 -233 112q-112 0 -198 -74q-88 -76 -134 -207q-47 -135 -47 -307t47 -307
q46 -131 134 -207q86 -74 198 -74q146 0 233 113q87 112 93 305zM584 1692h129v-193h-129v193z" />
    <glyph glyph-name="cdotaccent" unicode="&#x10b;" horiz-adv-x="974" 
d="M868 319q-6 -99 -55 -176q-49 -78 -129 -123t-178 -45q-120 0 -211 64q-90 63 -138 181t-48 274q0 237 107 377q108 141 290 141q148 0 251 -97q100 -94 111 -243l-129 -37q0 121 -65 196q-66 76 -168 76q-124 0 -197 -112t-73 -301t73 -301q74 -113 197 -113
q102 0 168 78q65 77 65 198zM440 1376h131v-209h-131v209z" />
    <glyph glyph-name="Ccaron" unicode="&#x10c;" horiz-adv-x="1243" 
d="M1108 467q-21 -232 -142 -362t-319 -130q-153 0 -269 86t-179 245q-64 162 -64 370t64 370q63 158 179 244t269 86q199 0 320 -129q120 -127 141 -362l-135 -39q-6 195 -93 306q-88 112 -233 112q-112 0 -198 -74q-88 -76 -134 -207q-47 -135 -47 -307t47 -307
q46 -131 134 -207q86 -74 198 -74q146 0 233 113q87 112 93 305zM651 1552l189 160l137 -18l-264 -230h-125l-264 230l139 18z" />
    <glyph glyph-name="ccaron" unicode="&#x10d;" horiz-adv-x="974" 
d="M868 319q-6 -99 -55 -176q-49 -78 -129 -123t-178 -45q-120 0 -211 64q-90 63 -138 181t-48 274q0 237 107 377q108 141 290 141q148 0 251 -97q100 -94 111 -243l-129 -37q0 121 -65 196q-66 76 -168 76q-124 0 -197 -112t-73 -301t73 -301q74 -113 197 -113
q102 0 168 78q65 77 65 198zM510 1212l174 191l121 -17l-238 -268h-116l-240 268l123 17z" />
    <glyph glyph-name="Dcaron" unicode="&#x10e;" horiz-adv-x="1247" 
d="M968 1182q144 -169 144 -506q0 -336 -144 -506t-431 -170h-330v1352h330q287 0 431 -170zM537 117q227 0 335 136q109 138 109 423t-109 423q-108 136 -335 136h-205v-1118h205zM580 1552l188 160l137 -18l-264 -230h-125l-264 230l139 18z" />
    <glyph glyph-name="dcaron" unicode="&#x10f;" horiz-adv-x="1288" 
d="M772 1434h123v-1434h-123v244q-38 -131 -116 -199q-81 -70 -191 -70q-105 0 -187 64t-125 181q-44 120 -44 274q0 153 44 273q43 117 125 181t187 64q111 0 191 -69q78 -68 116 -198v689zM699 190q73 113 73 304q0 190 -73 303q-71 110 -195 110q-122 0 -195 -113
t-73 -300t73 -300q73 -114 195 -114q124 0 195 110zM1077 1075q94 94 94 203q0 82 -51 156h121q43 -73 43 -150q0 -117 -100 -223z" />
    <glyph glyph-name="Dcroat" unicode="&#x110;" horiz-adv-x="1259" 
d="M978 1182q144 -169 144 -506q0 -336 -144 -506t-429 -170h-332v647h-164v98h164v607h332q285 0 429 -170zM549 117q226 0 334 136q108 137 108 423t-108 423q-108 136 -334 136h-207v-490h291v-98h-291v-530h207z" />
    <glyph glyph-name="dcroat" unicode="&#x111;" horiz-adv-x="1069" 
d="M1069 1249v-98h-174v-1151h-123v244q-38 -131 -116 -199q-81 -70 -191 -70q-105 0 -187 64t-125 181q-44 120 -44 274q0 153 44 273q43 117 125 181t187 64q111 0 191 -69q78 -68 116 -198v406h-283v98h283v185h123v-185h174zM699 190q73 113 73 304q0 190 -73 303
q-71 110 -195 110q-122 0 -195 -113t-73 -300t73 -300q73 -114 195 -114q124 0 195 110z" />
    <glyph glyph-name="Emacron" unicode="&#x112;" horiz-adv-x="1103" 
d="M965 1352v-117h-633v-485h561v-111h-561v-522h633v-117h-758v1352h758zM295 1513v99h579v-99h-579z" />
    <glyph glyph-name="emacron" unicode="&#x113;" horiz-adv-x="985" 
d="M236 475q5 -184 77 -289q73 -106 193 -106q100 0 166 77q66 76 67 197l127 -37q-6 -96 -54 -174t-129 -123t-177 -45q-182 0 -290 141q-107 140 -107 378q0 237 107 377q108 141 290 141q170 0 270 -117q101 -118 101 -313q0 -19 -9 -107h-632zM743 571q5 158 -59 247
q-63 89 -178 89q-108 0 -180 -90q-71 -89 -86 -246h503zM246 1184v98h518v-98h-518z" />
    <glyph glyph-name="Ebreve" unicode="&#x114;" horiz-adv-x="1103" 
d="M965 1352v-117h-633v-485h561v-111h-561v-522h633v-117h-758v1352h758zM897 1702q-27 -229 -311 -229q-287 0 -314 229l115 14q7 -149 199 -149q186 0 198 149z" />
    <glyph glyph-name="ebreve" unicode="&#x115;" horiz-adv-x="985" 
d="M236 475q5 -184 77 -289q73 -106 193 -106q100 0 166 77q66 76 67 197l127 -37q-6 -96 -54 -174t-129 -123t-177 -45q-182 0 -290 141q-107 140 -107 378q0 237 107 377q108 141 290 141q170 0 270 -117q101 -118 101 -313q0 -19 -9 -107h-632zM743 571q5 158 -59 247
q-63 89 -178 89q-108 0 -180 -90q-71 -89 -86 -246h503zM782 1395q-5 -132 -75 -199q-73 -70 -201 -70q-131 0 -204 71t-77 198l111 14q-2 -89 43 -138q45 -50 127 -50t126 50q44 49 42 138z" />
    <glyph glyph-name="Edotaccent" unicode="&#x116;" horiz-adv-x="1103" 
d="M965 1352v-117h-633v-485h561v-111h-561v-522h633v-117h-758v1352h758zM520 1692h129v-193h-129v193z" />
    <glyph glyph-name="edotaccent" unicode="&#x117;" horiz-adv-x="985" 
d="M236 475q5 -184 77 -289q73 -106 193 -106q100 0 166 77q66 76 67 197l127 -37q-6 -96 -54 -174t-129 -123t-177 -45q-182 0 -290 141q-107 140 -107 378q0 237 107 377q108 141 290 141q170 0 270 -117q101 -118 101 -313q0 -19 -9 -107h-632zM743 571q5 158 -59 247
q-63 89 -178 89q-108 0 -180 -90q-71 -89 -86 -246h503zM438 1376h131v-209h-131v209z" />
    <glyph glyph-name="Eogonek" unicode="&#x118;" horiz-adv-x="1103" 
d="M965 1235h-633v-485h561v-111h-561v-522h633v-117q-96 -18 -148 -60q-53 -42 -53 -98q0 -40 26 -64t72 -24q51 0 84 37l17 -104q-45 -31 -121 -31q-82 0 -134 43q-53 44 -53 111q0 66 54 120t137 70h-639v1352h758v-117z" />
    <glyph glyph-name="eogonek" unicode="&#x119;" horiz-adv-x="985" 
d="M236 475q5 -184 77 -289q73 -106 193 -106q100 0 166 77q66 76 67 197l127 -37q-6 -95 -52 -171t-122 -119q-52 -40 -80 -84t-28 -90q0 -48 26 -73q28 -26 74 -26q53 0 86 37l18 -104q-53 -31 -122 -31q-85 0 -139 45t-54 115q0 100 105 166q-38 -7 -72 -7
q-182 0 -290 141q-107 140 -107 378q0 237 107 377q108 141 290 141q170 0 270 -117q101 -118 101 -313q0 -19 -9 -107h-632zM743 571q5 158 -59 247q-63 89 -178 89q-108 0 -180 -90q-71 -89 -86 -246h503z" />
    <glyph glyph-name="Ecaron" unicode="&#x11a;" horiz-adv-x="1103" 
d="M965 1352v-117h-633v-485h561v-111h-561v-522h633v-117h-758v1352h758zM588 1552l188 160l137 -18l-264 -230h-125l-264 230l139 18z" />
    <glyph glyph-name="ecaron" unicode="&#x11b;" horiz-adv-x="985" 
d="M236 475q5 -184 77 -289q73 -106 193 -106q100 0 166 77q66 76 67 197l127 -37q-6 -96 -54 -174t-129 -123t-177 -45q-182 0 -290 141q-107 140 -107 378q0 237 107 377q108 141 290 141q170 0 270 -117q101 -118 101 -313q0 -19 -9 -107h-632zM743 571q5 158 -59 247
q-63 89 -178 89q-108 0 -180 -90q-71 -89 -86 -246h503zM508 1212l174 191l121 -17l-238 -268h-116l-240 268l123 17z" />
    <glyph glyph-name="Gcircumflex" unicode="&#x11c;" horiz-adv-x="1284" 
d="M649 717h449v-717h-125v295q-57 -320 -338 -320q-149 0 -263 87q-113 86 -175 245t-62 369q0 208 64 370q63 158 179 244t271 86q175 0 290 -102q116 -102 155 -289l-138 -39q-18 148 -100 233t-209 85q-112 0 -198 -74q-88 -76 -134 -207q-47 -135 -47 -307t47 -307
q46 -131 134 -207q86 -74 198 -74q146 0 235 115q90 115 91 303v96h-324v115zM713 1712l264 -229l-137 -19l-189 160l-188 -160l-139 19l264 229h125z" />
    <glyph glyph-name="gcircumflex" unicode="&#x11d;" horiz-adv-x="935" 
d="M553 115q151 0 238 -73q86 -72 86 -200q0 -135 -100 -206q-98 -70 -285 -70q-183 0 -284 67q-102 67 -102 187q0 29 11 76l139 38q-16 -48 -16 -96q0 -168 256 -168q254 0 254 170q0 79 -52 123q-50 43 -145 43h-129q-126 0 -202 44q-75 44 -75 118q0 116 179 145
q-100 35 -152 123q-53 89 -53 215q0 184 100 272q101 89 307 89q119 0 197 9q76 9 149 30l-22 -123q-123 -20 -246 -21q104 -23 150 -87q47 -65 47 -179q0 -165 -91 -257q-92 -93 -249 -93q-103 0 -153 -22q-48 -21 -48 -66q0 -41 42 -65q40 -23 120 -23h129zM305 463
q57 -68 158 -68q100 0 157 68q56 66 56 188q0 121 -56 187q-57 68 -157 69q-99 0 -157 -68t-58 -188q0 -121 57 -188zM530 1403l238 -268l-121 -17l-174 191l-176 -191l-123 17l240 268h116z" />
    <glyph glyph-name="Gbreve" unicode="&#x11e;" horiz-adv-x="1284" 
d="M649 717h449v-717h-125v295q-57 -320 -338 -320q-149 0 -263 87q-113 86 -175 245t-62 369q0 208 64 370q63 158 179 244t271 86q175 0 290 -102q116 -102 155 -289l-138 -39q-18 148 -100 233t-209 85q-112 0 -198 -74q-88 -76 -134 -207q-47 -135 -47 -307t47 -307
q46 -131 134 -207q86 -74 198 -74q146 0 235 115q90 115 91 303v96h-324v115zM961 1702q-27 -229 -312 -229q-286 0 -313 229l115 14q7 -149 198 -149q187 0 199 149z" />
    <glyph glyph-name="gbreve" unicode="&#x11f;" horiz-adv-x="935" 
d="M553 115q151 0 238 -73q86 -72 86 -200q0 -135 -100 -206q-98 -70 -285 -70q-183 0 -284 67q-102 67 -102 187q0 29 11 76l139 38q-16 -48 -16 -96q0 -168 256 -168q254 0 254 170q0 79 -52 123q-50 43 -145 43h-129q-126 0 -202 44q-75 44 -75 118q0 116 179 145
q-100 35 -152 123q-53 89 -53 215q0 184 100 272q101 89 307 89q119 0 197 9q76 9 149 30l-22 -123q-123 -20 -246 -21q104 -23 150 -87q47 -65 47 -179q0 -165 -91 -257q-92 -93 -249 -93q-103 0 -153 -22q-48 -21 -48 -66q0 -41 42 -65q40 -23 120 -23h129zM305 463
q57 -68 158 -68q100 0 157 68q56 66 56 188q0 121 -56 187q-57 68 -157 69q-99 0 -157 -68t-58 -188q0 -121 57 -188zM748 1395q-5 -131 -76 -199q-73 -70 -201 -70q-131 0 -204 71t-77 198l111 14q-2 -89 43 -138q45 -50 127 -50t126 50q43 49 42 138z" />
    <glyph glyph-name="Gdotaccent" unicode="&#x120;" horiz-adv-x="1284" 
d="M649 717h449v-717h-125v295q-57 -320 -338 -320q-149 0 -263 87q-113 86 -175 245t-62 369q0 208 64 370q63 158 179 244t271 86q175 0 290 -102q116 -102 155 -289l-138 -39q-18 148 -100 233t-209 85q-112 0 -198 -74q-88 -76 -134 -207q-47 -135 -47 -307t47 -307
q46 -131 134 -207q86 -74 198 -74q146 0 235 115q90 115 91 303v96h-324v115zM584 1692h129v-193h-129v193z" />
    <glyph glyph-name="gdotaccent" unicode="&#x121;" horiz-adv-x="935" 
d="M553 115q151 0 238 -73q86 -72 86 -200q0 -135 -100 -206q-98 -70 -285 -70q-183 0 -284 67q-102 67 -102 187q0 29 11 76l139 38q-16 -48 -16 -96q0 -168 256 -168q254 0 254 170q0 79 -52 123q-50 43 -145 43h-129q-126 0 -202 44q-75 44 -75 118q0 116 179 145
q-100 35 -152 123q-53 89 -53 215q0 184 100 272q101 89 307 89q119 0 197 9q76 9 149 30l-22 -123q-123 -20 -246 -21q104 -23 150 -87q47 -65 47 -179q0 -165 -91 -257q-92 -93 -249 -93q-103 0 -153 -22q-48 -21 -48 -66q0 -41 42 -65q40 -23 120 -23h129zM305 463
q57 -68 158 -68q100 0 157 68q56 66 56 188q0 121 -56 187q-57 68 -157 69q-99 0 -157 -68t-58 -188q0 -121 57 -188zM403 1376h132v-209h-132v209z" />
    <glyph glyph-name="uni0122" unicode="&#x122;" horiz-adv-x="1284" 
d="M649 717h449v-717h-125v295q-57 -320 -338 -320q-149 0 -263 87q-113 86 -175 245t-62 369q0 208 64 370q63 158 179 244t271 86q175 0 290 -102q116 -102 155 -289l-138 -39q-18 148 -100 233t-209 85q-112 0 -198 -74q-88 -76 -134 -207q-47 -135 -47 -307t47 -307
q46 -131 134 -207q86 -74 198 -74q146 0 235 115q90 115 91 303v96h-324v115zM569 -395q62 74 62 145q0 63 -47 127h121q34 -52 34 -119q0 -91 -65 -172z" />
    <glyph glyph-name="uni0123" unicode="&#x123;" horiz-adv-x="935" 
d="M553 115q151 0 238 -73q86 -72 86 -200q0 -135 -100 -206q-98 -70 -285 -70q-183 0 -284 67q-102 67 -102 187q0 29 11 76l139 38q-16 -48 -16 -96q0 -168 256 -168q254 0 254 170q0 79 -52 123q-50 43 -145 43h-129q-126 0 -202 44q-75 44 -75 118q0 116 179 145
q-100 35 -152 123q-53 89 -53 215q0 184 100 272q101 89 307 89q119 0 197 9q76 9 149 30l-22 -123q-123 -20 -246 -21q104 -23 150 -87q47 -65 47 -179q0 -165 -91 -257q-92 -93 -249 -93q-103 0 -153 -22q-48 -21 -48 -66q0 -41 42 -65q40 -23 120 -23h129zM305 463
q57 -68 158 -68q100 0 157 68q56 66 56 188q0 121 -56 187q-57 68 -157 69q-99 0 -157 -68t-58 -188q0 -121 57 -188zM414 1120q-35 53 -35 119q0 101 80 201l106 -15q-78 -95 -78 -178q0 -62 48 -127h-121z" />
    <glyph glyph-name="Hcircumflex" unicode="&#x124;" horiz-adv-x="1302" 
d="M971 737v615h125v-1352h-125v616h-639v-616h-125v1352h125v-615h639zM715 1712l264 -229l-137 -19l-189 160l-188 -160l-139 19l264 229h125z" />
    <glyph glyph-name="hcircumflex" unicode="&#x125;" horiz-adv-x="1032" 
d="M797 909q80 -103 80 -282v-627h-123v618q0 137 -60 212t-168 75t-167 -75q-58 -74 -58 -212v-618h-123v1434h123v-625q33 97 103 150q71 53 171 53q142 0 222 -103zM303 1794l264 -229l-137 -19l-188 160l-189 -160l-139 19l264 229h125z" />
    <glyph glyph-name="Hbar" unicode="&#x126;" horiz-adv-x="1343" 
d="M1100 1079h176v-98h-176v-981h-125v616h-639v-616h-125v981h-143v98h143v273h125v-273h639v273h125v-273zM336 737h639v244h-639v-244z" />
    <glyph glyph-name="hbar" unicode="&#x127;" horiz-adv-x="1026" 
d="M793 909q79 -101 79 -282v-627h-122v618q0 137 -60 212t-168 75t-168 -75q-59 -74 -59 -212v-618h-123v1151h-172v98h172v185h123v-185h285v-98h-285v-348q33 100 103 154q72 55 173 55q142 0 222 -103z" />
    <glyph glyph-name="Itilde" unicode="&#x128;" horiz-adv-x="536" 
d="M332 0h-125v1352h125v-1352zM-84 1493q7 205 195 205q41 0 85 -19q40 -17 111 -65q42 -28 70 -42q22 -11 51 -11q48 0 69 30t21 101l107 -19q-4 -104 -54 -155q-50 -52 -143 -52q-41 0 -83 18q-47 20 -112 64q-50 32 -73 43q-24 11 -49 11q-46 0 -67 -30t-21 -97z" />
    <glyph glyph-name="itilde" unicode="&#x129;" horiz-adv-x="485" 
d="M182 987h123v-987h-123v987zM-72 1149q4 109 53 170q47 59 134 59q47 0 81 -19q31 -18 80 -71q31 -35 56 -53q20 -14 39 -14q78 0 78 153l104 -18q-5 -112 -49 -171q-46 -61 -129 -61q-51 0 -84 18q-34 19 -86 75q-33 38 -54 52q-19 13 -42 13q-74 0 -74 -152z" />
    <glyph glyph-name="Imacron" unicode="&#x12a;" horiz-adv-x="536" 
d="M332 0h-125v1352h125v-1352zM-18 1513v99h579v-99h-579z" />
    <glyph glyph-name="imacron" unicode="&#x12b;" horiz-adv-x="485" 
d="M182 987h123v-987h-123v987zM-141 1188v96h518v-96h-518z" />
    <glyph glyph-name="Ibreve" unicode="&#x12c;" horiz-adv-x="536" 
d="M332 0h-125v1352h125v-1352zM584 1702q-27 -229 -312 -229q-286 0 -313 229l115 14q7 -149 198 -149q187 0 199 149z" />
    <glyph glyph-name="ibreve" unicode="&#x12d;" horiz-adv-x="485" 
d="M182 987h123v-987h-123v987zM520 1395q-5 -131 -76 -199q-73 -70 -200 -70q-131 0 -204 71t-77 198l111 14q-2 -89 43 -138q45 -50 127 -50t126 50q44 49 42 138z" />
    <glyph glyph-name="Iogonek" unicode="&#x12e;" horiz-adv-x="536" 
d="M332 0q-96 -18 -148 -60q-53 -42 -53 -98q0 -40 26 -64q25 -24 72 -24q50 0 84 37l17 -104q-45 -31 -121 -31q-82 0 -134 43t-52 111q0 67 53 120q54 54 137 70h-6v1352h125v-1352z" />
    <glyph glyph-name="iogonek" unicode="&#x12f;" horiz-adv-x="485" 
d="M176 1167v209h131v-209h-131zM182 0v987h123v-987q-95 -18 -147 -60q-54 -43 -54 -98q0 -40 26 -64t73 -24q51 0 84 37l16 -104q-45 -31 -121 -31q-82 0 -134 43t-52 111q0 67 53 120q54 54 137 70h-4z" />
    <glyph glyph-name="Idotaccent" unicode="&#x130;" horiz-adv-x="536" 
d="M332 0h-125v1352h125v-1352zM207 1692h129v-193h-129v193z" />
    <glyph glyph-name="dotlessi" unicode="&#x131;" horiz-adv-x="485" 
d="M182 987h123v-987h-123v987z" />
    <glyph glyph-name="IJ" unicode="&#x132;" horiz-adv-x="1159" 
d="M199 440l137 39q-29 -75 -29 -131q0 -115 73 -188q72 -72 191 -72q131 0 207 88t76 242v934h127v-934q0 -206 -108 -324q-108 -119 -295 -119q-112 0 -204 45q-93 46 -143 124q-51 80 -51 178q0 66 19 118zM313 668h-127v684h127v-684z" />
    <glyph glyph-name="ij" unicode="&#x133;" horiz-adv-x="954" 
d="M172 1380h133v-213h-133v213zM178 987h123v-987h-123v987zM651 1380h131v-213h-131v213zM381 -276q23 -5 59 -5q101 0 159 67q56 65 56 191v1010h123v-1036q0 -172 -93 -265q-94 -94 -271 -100z" />
    <glyph glyph-name="Jcircumflex" unicode="&#x134;" horiz-adv-x="1062" 
d="M102 440l138 39q-29 -75 -29 -131q0 -115 73 -188q72 -72 191 -72q131 0 207 88t76 242v934h127v-934q0 -206 -108 -324q-108 -119 -296 -119q-115 0 -206 45t-142 124q-51 80 -51 178q0 65 20 118zM885 1712l264 -229l-137 -19l-189 160l-188 -160l-139 19l264 229h125z
" />
    <glyph glyph-name="jcircumflex" unicode="&#x135;" horiz-adv-x="477" 
d="M-96 -276q23 -5 59 -5q101 0 159 67q56 65 56 191v1010h123v-1036q0 -172 -93 -265q-94 -94 -271 -100zM299 1403l238 -268l-121 -17l-174 191l-176 -191l-123 17l239 268h117z" />
    <glyph glyph-name="uni0136" unicode="&#x136;" horiz-adv-x="1122" 
d="M1083 0h-151l-459 651l-141 -170v-481h-125v1352h125v-682l565 682h162l-502 -600zM553 -395q61 73 61 145q0 63 -47 127h121q35 -53 35 -119q0 -90 -66 -172z" />
    <glyph glyph-name="uni0137" unicode="&#x137;" horiz-adv-x="956" 
d="M934 0h-148l-348 475l-137 -149v-326h-123v1434h123v-940l451 493h157l-389 -424zM463 -395q61 73 61 145q0 63 -47 127h121q35 -53 35 -119q0 -90 -66 -172z" />
    <glyph glyph-name="kgreenlandic" unicode="&#x138;" horiz-adv-x="956" 
d="M934 0h-148l-348 475l-137 -149v-326h-123v987h123v-493l451 493h157l-389 -424z" />
    <glyph glyph-name="Lacute" unicode="&#x139;" horiz-adv-x="997" 
d="M332 1352v-1235h622v-117h-747v1352h125zM276 1466l-137 19l273 237l149 -20z" />
    <glyph glyph-name="lacute" unicode="&#x13a;" horiz-adv-x="477" 
d="M301 0h-123v1434h123v-1434zM248 1548l-137 19l272 237l149 -20z" />
    <glyph glyph-name="uni013B" unicode="&#x13b;" horiz-adv-x="997" 
d="M332 1352v-1235h622v-117h-747v1352h125zM463 -395q61 73 61 145q0 63 -47 127h121q35 -53 35 -119q0 -90 -66 -172z" />
    <glyph glyph-name="uni013C" unicode="&#x13c;" horiz-adv-x="477" 
d="M301 0h-123v1434h123v-1434zM158 -395q61 73 61 145q0 63 -47 127h121q35 -53 35 -119q0 -90 -66 -172z" />
    <glyph glyph-name="Lcaron" unicode="&#x13d;" horiz-adv-x="997" 
d="M332 1352v-1235h622v-117h-747v1352h125zM668 993q94 94 94 203q0 82 -51 156h120q43 -73 43 -150q0 -117 -100 -223z" />
    <glyph glyph-name="lcaron" unicode="&#x13e;" horiz-adv-x="688" 
d="M301 0h-123v1434h123v-1434zM477 1075q94 94 94 203q0 82 -51 156h121q43 -73 43 -150q0 -117 -100 -223z" />
    <glyph glyph-name="Ldot" unicode="&#x13f;" horiz-adv-x="997" 
d="M332 1352v-1235h622v-117h-747v1352h125zM727 803h129v-217h-129v217z" />
    <glyph glyph-name="ldot" unicode="&#x140;" horiz-adv-x="595" 
d="M301 0h-123v1434h123v-1434zM469 784h129v-217h-129v217z" />
    <glyph glyph-name="Lslash" unicode="&#x141;" horiz-adv-x="1069" 
d="M406 670v-553h622v-117h-749v616l-226 -100v109l226 100v627h127v-574l370 164v-108z" />
    <glyph glyph-name="lslash" unicode="&#x142;" horiz-adv-x="604" 
d="M362 801l222 98v-108l-222 -99v-692h-122v641l-220 -98v106l220 99v686h122v-633z" />
    <glyph glyph-name="Nacute" unicode="&#x143;" horiz-adv-x="1302" 
d="M971 150v1202h125v-1352h-185l-579 1198v-1198h-125v1352h182zM662 1466l-138 19l273 237l149 -20z" />
    <glyph glyph-name="nacute" unicode="&#x144;" horiz-adv-x="1032" 
d="M797 909q80 -103 80 -282v-627h-123v618q0 137 -60 212t-168 75t-167 -75q-58 -74 -58 -212v-618h-123v987h123v-178q33 97 103 150q71 53 171 53q142 0 222 -103zM532 1118l-120 17l241 274l133 -18z" />
    <glyph glyph-name="uni0145" unicode="&#x145;" horiz-adv-x="1302" 
d="M971 150v1202h125v-1352h-185l-579 1198v-1198h-125v1352h182zM573 -395q62 74 62 145q0 63 -47 127h121q34 -52 34 -119q0 -91 -65 -172z" />
    <glyph glyph-name="uni0146" unicode="&#x146;" horiz-adv-x="1032" 
d="M797 909q80 -103 80 -282v-627h-123v618q0 137 -60 212t-168 75t-167 -75q-58 -74 -58 -212v-618h-123v987h123v-178q33 97 103 150q71 53 171 53q142 0 222 -103zM449 -395q61 73 61 145q0 63 -47 127h121q34 -52 34 -119q0 -91 -65 -172z" />
    <glyph glyph-name="Ncaron" unicode="&#x147;" horiz-adv-x="1302" 
d="M971 150v1202h125v-1352h-185l-579 1198v-1198h-125v1352h182zM655 1552l189 160l137 -18l-264 -230h-125l-264 230l139 18z" />
    <glyph glyph-name="ncaron" unicode="&#x148;" horiz-adv-x="1032" 
d="M797 909q80 -103 80 -282v-627h-123v618q0 137 -60 212t-168 75t-167 -75q-58 -74 -58 -212v-618h-123v987h123v-178q33 97 103 150q71 53 171 53q142 0 222 -103zM530 1212l175 191l120 -17l-237 -268h-117l-240 268l123 17z" />
    <glyph glyph-name="Eng" unicode="&#x14a;" horiz-adv-x="1300" 
d="M971 1352h123v-1401q0 -171 -94 -265t-271 -100l-33 138q23 -5 60 -5q103 0 159 67t56 191v23h-60l-581 1190v-1190h-123v1352h182l582 -1188v1188z" />
    <glyph glyph-name="eng" unicode="&#x14b;" horiz-adv-x="1032" 
d="M797 909q80 -103 80 -282v-676q0 -170 -93 -265q-93 -94 -270 -100l-35 138q23 -5 60 -5q103 0 159 67t56 191v641q0 137 -60 212t-168 75t-167 -75q-58 -74 -58 -212v-618h-123v987h123v-178q33 97 103 150q71 53 171 53q142 0 222 -103z" />
    <glyph glyph-name="Omacron" unicode="&#x14c;" horiz-adv-x="1296" 
d="M376 63q-115 88 -178 246t-63 367q0 208 63 366t178 246t271 88q157 0 272 -88t178 -246q62 -155 62 -366q0 -212 -62 -367q-63 -158 -178 -246t-272 -88q-156 0 -271 88zM847 162q87 74 134 208q47 135 47 306t-47 306q-47 134 -134 208q-88 74 -200 74t-198 -74
q-88 -76 -134 -208q-47 -135 -47 -306t47 -306q46 -132 134 -208q86 -74 198 -74t200 74zM356 1513v99h580v-99h-580z" />
    <glyph glyph-name="omacron" unicode="&#x14d;" horiz-adv-x="1013" 
d="M216 116q-107 140 -107 378q0 237 107 377q108 141 290 141q184 0 292 -141q107 -140 107 -377q0 -238 -107 -378q-108 -141 -292 -141q-182 0 -290 141zM703 194q75 114 75 300t-75 300q-74 113 -197 113q-124 0 -197 -112t-73 -301t73 -301q74 -113 197 -113
q122 0 197 114zM248 1184v98h518v-98h-518z" />
    <glyph glyph-name="Obreve" unicode="&#x14e;" horiz-adv-x="1296" 
d="M376 63q-115 88 -178 246t-63 367q0 208 63 366t178 246t271 88q157 0 272 -88t178 -246q62 -155 62 -366q0 -212 -62 -367q-63 -158 -178 -246t-272 -88q-156 0 -271 88zM847 162q87 74 134 208q47 135 47 306t-47 306q-47 134 -134 208q-88 74 -200 74t-198 -74
q-88 -76 -134 -208q-47 -135 -47 -306t47 -306q46 -132 134 -208q86 -74 198 -74t200 74zM958 1702q-27 -229 -311 -229q-286 0 -313 229l115 14q7 -149 198 -149q187 0 199 149z" />
    <glyph glyph-name="obreve" unicode="&#x14f;" horiz-adv-x="1013" 
d="M216 116q-107 140 -107 378q0 237 107 377q108 141 290 141q184 0 292 -141q107 -140 107 -377q0 -238 -107 -378q-108 -141 -292 -141q-182 0 -290 141zM703 194q75 114 75 300t-75 300q-74 113 -197 113q-124 0 -197 -112t-73 -301t73 -301q74 -113 197 -113
q122 0 197 114zM784 1395q-5 -132 -75 -199q-73 -70 -201 -70q-131 0 -204 71t-77 198l111 14q-2 -89 43 -138q45 -50 127 -50t126 50q44 49 42 138z" />
    <glyph glyph-name="Ohungarumlaut" unicode="&#x150;" horiz-adv-x="1296" 
d="M376 63q-115 88 -178 246t-63 367q0 208 63 366t178 246t271 88q157 0 272 -88t178 -246q62 -155 62 -366q0 -212 -62 -367q-63 -158 -178 -246t-272 -88q-156 0 -271 88zM847 162q87 74 134 208q47 135 47 306t-47 306q-47 134 -134 208q-88 74 -200 74t-198 -74
q-88 -76 -134 -208q-47 -135 -47 -306t47 -306q46 -132 134 -208q86 -74 198 -74t200 74zM496 1466l-136 19l271 237l149 -20zM846 1466l-135 19l270 237l149 -20z" />
    <glyph glyph-name="ohungarumlaut" unicode="&#x151;" horiz-adv-x="1013" 
d="M216 116q-107 140 -107 378q0 237 107 377q108 141 290 141q184 0 292 -141q107 -140 107 -377q0 -238 -107 -378q-108 -141 -292 -141q-182 0 -290 141zM703 194q75 114 75 300t-75 300q-74 113 -197 113q-124 0 -197 -112t-73 -301t73 -301q74 -113 197 -113
q122 0 197 114zM371 1118l-123 17l241 274l136 -18zM686 1118l-121 17l240 274l135 -18z" />
    <glyph glyph-name="OE" unicode="&#x152;" horiz-adv-x="1861" 
d="M1722 1235h-743q77 -83 124 -208t54 -277h494v-111h-492q-5 -167 -51 -300t-129 -222h743v-117h-923q-70 -25 -152 -25q-156 0 -271 88t-178 246t-63 367q0 208 63 366t178 246t271 88q85 0 152 -24h923v-117zM847 162q87 74 134 208q47 135 47 306t-47 306
q-47 134 -134 208q-88 74 -200 74t-198 -74q-88 -76 -134 -208q-47 -135 -47 -306t47 -306q46 -132 134 -208q86 -74 198 -74t200 74z" />
    <glyph glyph-name="oe" unicode="&#x153;" horiz-adv-x="1652" 
d="M905 475q4 -182 77 -289q72 -106 192 -106q101 0 167 78q67 79 68 196l127 -37q-6 -96 -55 -175q-50 -80 -130 -123q-82 -44 -177 -44q-121 0 -208 67q-85 66 -126 194q-41 -128 -126 -194q-87 -67 -208 -67q-182 0 -290 141q-107 140 -107 378q0 237 107 377
q108 141 290 141q121 0 208 -67q86 -66 126 -193q40 127 126 193q87 67 208 67q172 0 272 -117q100 -116 100 -313q0 -29 -8 -107h-633zM703 194q75 114 75 300t-75 300q-74 113 -197 113q-124 0 -197 -112t-73 -301t73 -301q74 -113 197 -113q122 0 197 114zM1411 571
q5 158 -59 247q-63 89 -178 89q-110 0 -180 -90q-70 -89 -85 -246h502z" />
    <glyph glyph-name="Racute" unicode="&#x154;" horiz-adv-x="1206" 
d="M1023 131q13 -66 34 -131h-139q-28 99 -56 319q-12 91 -38 138t-75 66q-51 20 -137 20h-280v-543h-125v1352h377q438 0 438 -367q0 -157 -71 -242q-70 -83 -216 -98q115 -18 176 -88q60 -69 78 -209q16 -130 34 -217zM332 1235v-582h246q168 0 240 69q73 70 73 224
q0 155 -73 222t-240 67h-246zM590 1466l-137 19l272 237l149 -20z" />
    <glyph glyph-name="racute" unicode="&#x155;" horiz-adv-x="835" 
d="M737 931q68 -82 68 -210q0 -50 -14 -117l-138 -41q21 74 21 139q0 95 -42 149t-116 54q-103 0 -158 -91q-56 -92 -57 -265v-549h-123v987h123v-207q30 115 96 173q67 59 162 59q111 0 178 -81zM520 1118l-121 17l242 274l133 -18z" />
    <glyph glyph-name="uni0156" unicode="&#x156;" horiz-adv-x="1206" 
d="M1023 131q13 -66 34 -131h-139q-28 99 -56 319q-12 91 -38 138t-75 66q-51 20 -137 20h-280v-543h-125v1352h377q438 0 438 -367q0 -157 -71 -242q-70 -83 -216 -98q115 -18 176 -88q60 -69 78 -209q16 -130 34 -217zM332 1235v-582h246q168 0 240 69q73 70 73 224
q0 155 -73 222t-240 67h-246zM549 -395q61 73 61 145q0 63 -47 127h121q35 -53 35 -119q0 -90 -66 -172z" />
    <glyph glyph-name="uni0157" unicode="&#x157;" horiz-adv-x="835" 
d="M737 931q68 -82 68 -210q0 -50 -14 -117l-138 -41q21 74 21 139q0 95 -42 149t-116 54q-103 0 -158 -91q-56 -92 -57 -265v-549h-123v987h123v-207q30 115 96 173q67 59 162 59q111 0 178 -81zM160 -395q61 73 61 145q0 63 -47 127h121q35 -53 35 -119q0 -90 -66 -172z
" />
    <glyph glyph-name="Rcaron" unicode="&#x158;" horiz-adv-x="1206" 
d="M1023 131q13 -66 34 -131h-139q-28 99 -56 319q-12 91 -38 138t-75 66q-51 20 -137 20h-280v-543h-125v1352h377q438 0 438 -367q0 -157 -71 -242q-70 -83 -216 -98q115 -18 176 -88q60 -69 78 -209q16 -130 34 -217zM332 1235v-582h246q168 0 240 69q73 70 73 224
q0 155 -73 222t-240 67h-246zM584 1552l188 160l137 -18l-264 -230h-125l-264 230l139 18z" />
    <glyph glyph-name="rcaron" unicode="&#x159;" horiz-adv-x="835" 
d="M737 931q68 -82 68 -210q0 -50 -14 -117l-138 -41q21 74 21 139q0 95 -42 149t-116 54q-103 0 -158 -91q-56 -92 -57 -265v-549h-123v987h123v-207q30 115 96 173q67 59 162 59q111 0 178 -81zM518 1212l174 191l121 -17l-238 -268h-116l-240 268l123 17z" />
    <glyph glyph-name="Sacute" unicode="&#x15a;" horiz-adv-x="1099" 
d="M246 406q5 -156 83 -237q80 -83 226 -83q133 0 214 66t81 170q0 66 -30 116q-31 51 -103 98q-73 48 -213 111q-186 84 -266 178q-78 92 -78 230q0 92 50 166q50 73 138 114q90 41 201 41q179 0 286 -106q106 -105 111 -283l-135 -41q8 149 -62 233q-70 85 -200 85
q-113 0 -186 -59q-72 -59 -72 -150q0 -67 28 -114t98 -93q77 -50 195 -103q152 -71 222 -124q78 -59 113 -131q34 -69 34 -168q0 -102 -53 -182q-52 -79 -151 -123t-222 -44q-194 0 -314 108t-130 286zM557 1466l-137 19l272 237l150 -20z" />
    <glyph glyph-name="sacute" unicode="&#x15b;" horiz-adv-x="892" 
d="M219 346q-4 -29 -4 -49q0 -103 61 -161t173 -58q95 0 154 42t59 111q0 43 -22 78q-20 31 -76 67q-49 31 -156 77q-161 69 -223 136q-62 68 -62 175q0 110 88 179t229 69q146 0 234 -84t88 -219l-125 -37q2 16 2 35q0 89 -53 145q-52 55 -146 55q-86 0 -138 -39t-52 -104
q0 -64 51 -109q49 -44 182 -100q123 -51 185 -95q65 -46 93 -100q27 -52 27 -129q0 -114 -95 -186t-247 -72q-166 0 -260 90q-94 89 -92 246zM449 1118l-121 17l241 274l133 -18z" />
    <glyph glyph-name="Scircumflex" unicode="&#x15c;" horiz-adv-x="1099" 
d="M246 406q5 -156 83 -237q80 -83 226 -83q133 0 214 66t81 170q0 66 -30 116q-31 51 -103 98q-73 48 -213 111q-186 84 -266 178q-78 92 -78 230q0 92 50 166q50 73 138 114q90 41 201 41q179 0 286 -106q106 -105 111 -283l-135 -41q8 149 -62 233q-70 85 -200 85
q-113 0 -186 -59q-72 -59 -72 -150q0 -67 28 -114t98 -93q77 -50 195 -103q152 -71 222 -124q78 -59 113 -131q34 -69 34 -168q0 -102 -53 -182q-52 -79 -151 -123t-222 -44q-194 0 -314 108t-130 286zM612 1712l265 -229l-138 -19l-188 160l-189 -160l-139 19l264 229h125z
" />
    <glyph glyph-name="scircumflex" unicode="&#x15d;" horiz-adv-x="892" 
d="M219 346q-4 -29 -4 -49q0 -103 61 -161t173 -58q95 0 154 42t59 111q0 43 -22 78q-20 31 -76 67q-49 31 -156 77q-161 69 -223 136q-62 68 -62 175q0 110 88 179t229 69q146 0 234 -84t88 -219l-125 -37q2 16 2 35q0 89 -53 145q-52 55 -146 55q-86 0 -138 -39t-52 -104
q0 -64 51 -109q49 -44 182 -100q123 -51 185 -95q65 -46 93 -100q27 -52 27 -129q0 -114 -95 -186t-247 -72q-166 0 -260 90q-94 89 -92 246zM504 1403l237 -268l-120 -17l-175 191l-176 -191l-123 17l240 268h117z" />
    <glyph glyph-name="Scedilla" unicode="&#x15e;" horiz-adv-x="1099" 
d="M878 83q-105 -96 -274 -108l-14 -81q60 -6 96 -37q35 -30 35 -76q0 -56 -50 -91q-49 -34 -132 -34q-77 0 -131 31l16 108q28 -22 53 -33q23 -10 55 -10q39 0 60 15q20 14 20 40q0 32 -33 54q-35 23 -96 33h-2l17 81q-173 17 -275 122q-101 104 -112 270l135 39
q5 -156 83 -237q80 -83 226 -83q133 0 214 66t81 170q0 66 -30 116q-31 51 -103 98q-73 48 -213 111q-186 84 -266 178q-78 92 -78 230q0 92 50 166q50 73 138 114q90 41 201 41q179 0 286 -106q106 -105 111 -283l-135 -41q8 149 -62 233q-70 85 -200 85q-114 0 -187 -59
q-71 -58 -71 -150q0 -67 28 -114t98 -93q77 -50 195 -103q152 -71 222 -124q78 -59 113 -131q34 -69 34 -168q0 -145 -103 -239z" />
    <glyph glyph-name="scedilla" unicode="&#x15f;" horiz-adv-x="892" 
d="M708 55q-82 -70 -214 -80l-15 -81q60 -6 96 -37q35 -30 35 -76q0 -56 -50 -91q-49 -34 -132 -34q-77 0 -131 31l16 108q27 -21 54 -33q23 -10 55 -10q38 0 59 15t21 40q0 32 -34 54q-35 23 -95 33h-2l16 83q-138 16 -217 104q-78 86 -76 228l125 37q-4 -29 -4 -49
q0 -103 61 -161t173 -58q95 0 154 42t59 111q0 43 -22 78q-20 31 -76 67q-49 31 -156 77q-161 69 -223 136q-62 68 -62 175q0 110 88 179t229 69q146 0 234 -84t88 -219l-125 -37q2 16 2 35q0 89 -53 145q-52 55 -146 55q-86 0 -138 -39t-52 -104q0 -64 51 -109
q49 -44 182 -100q123 -51 185 -95q65 -46 93 -100q27 -52 27 -129q0 -108 -80 -176z" />
    <glyph glyph-name="Scaron" unicode="&#x160;" horiz-adv-x="1099" 
d="M246 406q5 -156 83 -237q80 -83 226 -83q133 0 214 66t81 170q0 66 -30 116q-31 51 -103 98q-73 48 -213 111q-186 84 -266 178q-78 92 -78 230q0 92 50 166q50 73 138 114q90 41 201 41q179 0 286 -106q106 -105 111 -283l-135 -41q8 149 -62 233q-70 85 -200 85
q-113 0 -186 -59q-72 -59 -72 -150q0 -67 28 -114t98 -93q77 -50 195 -103q152 -71 222 -124q78 -59 113 -131q34 -69 34 -168q0 -102 -53 -182q-52 -79 -151 -123t-222 -44q-194 0 -314 108t-130 286zM551 1552l188 160l138 -18l-265 -230h-125l-264 230l139 18z" />
    <glyph glyph-name="scaron" unicode="&#x161;" horiz-adv-x="892" 
d="M219 346q-4 -29 -4 -49q0 -103 61 -161t173 -58q95 0 154 42t59 111q0 43 -22 78q-20 31 -76 67q-49 31 -156 77q-161 69 -223 136q-62 68 -62 175q0 110 88 179t229 69q146 0 234 -84t88 -219l-125 -37q2 16 2 35q0 89 -53 145q-52 55 -146 55q-86 0 -138 -39t-52 -104
q0 -64 51 -109q49 -44 182 -100q123 -51 185 -95q65 -46 93 -100q27 -52 27 -129q0 -114 -95 -186t-247 -72q-166 0 -260 90q-94 89 -92 246zM446 1212l175 191l120 -17l-237 -268h-117l-240 268l123 17z" />
    <glyph glyph-name="uni0162" unicode="&#x162;" horiz-adv-x="1019" 
d="M63 1352h891v-117h-381v-1235h-127v1235h-383v117zM545 -106q60 -6 96 -37q35 -30 35 -76q0 -56 -50 -91q-49 -34 -132 -34q-79 0 -132 31l17 108q28 -22 53 -33q23 -10 55 -10q39 0 60 15q20 14 20 40q0 32 -33 54q-34 23 -96 33h-2l21 106h106z" />
    <glyph glyph-name="uni0163" unicode="&#x163;" horiz-adv-x="714" 
d="M467 -106q60 -6 96 -37q35 -30 35 -76q0 -56 -50 -91q-49 -34 -132 -34q-77 0 -131 31l16 108q28 -22 53 -33q23 -10 56 -10q38 0 59 15q20 14 20 40q0 32 -33 54q-34 23 -96 33h-2l19 96q-131 47 -131 225v676h-226v96h56q110 0 153 39t43 135v129h117v-129
q0 -81 -30 -122q-30 -40 -103 -52h383v-96h-270v-666q0 -143 120 -143q43 0 82 15t68 44l23 -118q-79 -48 -181 -48z" />
    <glyph glyph-name="Tcaron" unicode="&#x164;" horiz-adv-x="1019" 
d="M63 1352h891v-117h-381v-1235h-127v1235h-383v117zM514 1552l188 160l138 -18l-265 -230h-124l-265 230l140 18z" />
    <glyph glyph-name="tcaron" unicode="&#x165;" horiz-adv-x="694" 
d="M662 23q-79 -48 -185 -48q-114 0 -173 61q-58 59 -58 179v676h-226v96h56q110 0 153 39t43 135v129h117v-129q0 -81 -30 -122q-30 -40 -103 -52h383v-96h-270v-666q0 -143 120 -143q43 0 82 15t68 44zM496 1137q94 94 94 202q0 83 -51 156h120q43 -73 43 -149
q0 -118 -100 -224z" />
    <glyph glyph-name="Tbar" unicode="&#x166;" horiz-adv-x="1019" 
d="M954 1352v-117h-381v-510h269v-98h-269v-627h-127v627h-260v98h260v510h-383v117h891z" />
    <glyph glyph-name="tbar" unicode="&#x167;" horiz-adv-x="714" 
d="M662 23q-79 -48 -185 -48q-114 0 -173 61q-58 59 -58 179v291h-226v98h226v287h-226v96h56q110 0 153 39t43 135v129h117v-129q0 -81 -30 -122q-30 -40 -103 -52h383v-96h-270v-287h270v-98h-270v-281q0 -143 120 -143q43 0 82 15t68 44z" />
    <glyph glyph-name="Utilde" unicode="&#x168;" horiz-adv-x="1239" 
d="M180 1352h125v-908q0 -168 84 -262t229 -94q148 0 232 94q84 95 84 262v908h125v-908q0 -218 -118 -343q-119 -126 -323 -126q-202 0 -320 126q-118 125 -118 343v908zM264 1493q7 205 195 205q41 0 85 -19q40 -17 111 -65q42 -28 70 -42q22 -11 51 -11q48 0 69 30
t21 101l107 -19q-5 -105 -53 -155q-50 -52 -144 -52q-41 0 -83 18q-44 19 -111 64q-47 30 -74 43q-24 11 -49 11q-46 0 -67 -30t-21 -97z" />
    <glyph glyph-name="utilde" unicode="&#x169;" horiz-adv-x="1011" 
d="M711 987h123v-987h-123v178q-33 -97 -102 -149q-71 -54 -165 -54q-133 0 -211 104q-77 102 -77 283v625h123v-618q0 -141 56 -213q57 -74 161 -74q101 0 158 74t57 213v618zM180 1149q4 111 52 170q47 59 135 59q46 0 80 -19t81 -71q31 -35 56 -53q20 -14 39 -14
q77 0 77 153l105 -18q-5 -112 -49 -171q-46 -61 -129 -61q-51 0 -84 18q-34 19 -86 75q-32 36 -55 52q-19 13 -42 13q-73 0 -73 -152z" />
    <glyph glyph-name="Umacron" unicode="&#x16a;" horiz-adv-x="1239" 
d="M180 1352h125v-908q0 -168 84 -262t229 -94q148 0 232 94q84 95 84 262v908h125v-908q0 -218 -118 -343q-119 -126 -323 -126q-202 0 -320 126q-118 125 -118 343v908zM330 1513v99h579v-99h-579z" />
    <glyph glyph-name="umacron" unicode="&#x16b;" horiz-adv-x="1011" 
d="M711 987h123v-987h-123v178q-33 -97 -102 -149q-71 -54 -165 -54q-133 0 -211 104q-77 102 -77 283v625h123v-618q0 -141 56 -213q57 -74 161 -74q101 0 158 74t57 213v618zM236 1184v98h518v-98h-518z" />
    <glyph glyph-name="Ubreve" unicode="&#x16c;" horiz-adv-x="1239" 
d="M180 1352h125v-908q0 -168 84 -262t229 -94q148 0 232 94q84 95 84 262v908h125v-908q0 -218 -118 -343q-119 -126 -323 -126q-202 0 -320 126q-118 125 -118 343v908zM932 1702q-27 -229 -311 -229q-287 0 -314 229l115 14q7 -149 199 -149q186 0 198 149z" />
    <glyph glyph-name="ubreve" unicode="&#x16d;" horiz-adv-x="1011" 
d="M711 987h123v-987h-123v178q-33 -97 -102 -149q-71 -54 -165 -54q-133 0 -211 104q-77 102 -77 283v625h123v-618q0 -141 56 -213q57 -74 161 -74q101 0 158 74t57 213v618zM772 1395q-5 -131 -76 -199q-73 -70 -200 -70q-131 0 -204 71t-77 198l111 14q-2 -89 43 -138
q45 -50 127 -50t126 50q44 49 42 138z" />
    <glyph glyph-name="Uring" unicode="&#x16e;" horiz-adv-x="1239" 
d="M180 1352h125v-908q0 -168 84 -262t229 -94q148 0 232 94q84 95 84 262v908h125v-908q0 -218 -118 -343q-119 -126 -323 -126q-202 0 -320 126q-118 125 -118 343v908zM475 1497q-57 53 -57 133t57 132q58 53 146 53q86 0 146 -54q58 -52 58 -131q0 -81 -58 -133
q-59 -53 -146 -53q-88 0 -146 53zM698 1555q31 31 31 75t-31 75q-30 30 -77 30q-48 0 -78 -30q-31 -31 -31 -75t31 -75q29 -29 78 -29q48 0 77 29z" />
    <glyph glyph-name="uring" unicode="&#x16f;" horiz-adv-x="1011" 
d="M711 987h123v-987h-123v178q-33 -97 -102 -149q-71 -54 -165 -54q-133 0 -211 104q-77 102 -77 283v625h123v-618q0 -141 56 -213q57 -74 161 -74q101 0 158 74t57 213v618zM344 1153q-57 53 -57 133t57 132q56 52 145 52q88 0 147 -53q58 -52 58 -131q0 -81 -58 -133
q-59 -53 -147 -53q-87 0 -145 53zM567 1211q31 31 31 75t-31 75q-30 30 -78 30q-47 0 -77 -30q-31 -31 -31 -75t31 -75q29 -29 77 -29q49 0 78 29z" />
    <glyph glyph-name="Uhungarumlaut" unicode="&#x170;" horiz-adv-x="1239" 
d="M180 1352h125v-908q0 -168 84 -262t229 -94q148 0 232 94q84 95 84 262v908h125v-908q0 -218 -118 -343q-119 -126 -323 -126q-202 0 -320 126q-118 125 -118 343v908zM469 1466l-135 19l270 237l150 -20zM819 1466l-135 19l270 237l150 -20z" />
    <glyph glyph-name="uhungarumlaut" unicode="&#x171;" horiz-adv-x="1011" 
d="M711 987h123v-987h-123v178q-33 -97 -102 -149q-71 -54 -165 -54q-133 0 -211 104q-77 102 -77 283v625h123v-618q0 -141 56 -213q57 -74 161 -74q101 0 158 74t57 213v618zM358 1118l-122 17l241 274l135 -18zM674 1118l-121 17l240 274l135 -18z" />
    <glyph glyph-name="Uogonek" unicode="&#x172;" horiz-adv-x="1239" 
d="M788 -44q-26 -42 -26 -85q0 -48 26 -73t74 -25q52 0 86 37l19 -105q-53 -31 -123 -31q-84 0 -138 45q-55 46 -55 115q0 91 86 154q-60 -13 -119 -13q-202 0 -320 126q-118 125 -118 343v908h125v-908q0 -168 84 -262t229 -94q148 0 232 94q84 95 84 262v908h125v-908
q0 -140 -51 -245t-146 -162q-48 -38 -74 -81z" />
    <glyph glyph-name="uogonek" unicode="&#x173;" horiz-adv-x="1011" 
d="M834 0l-68 6q-26 0 -49 -6h-6v178q-33 -97 -102 -149q-71 -54 -165 -54q-133 0 -211 104q-77 102 -77 283v625h123v-618q0 -141 56 -213q57 -74 161 -74q101 0 158 74t57 213v618h123v-987zM817 -209l17 -104q-45 -31 -121 -31q-82 0 -134 43q-53 44 -53 111q0 66 54 120
t137 70h119q-96 -18 -148 -60q-53 -42 -53 -98q0 -40 25 -64q26 -24 73 -24q51 0 84 37z" />
    <glyph glyph-name="Wcircumflex" unicode="&#x174;" horiz-adv-x="1841" 
d="M1280 129l297 1223h129l-334 -1352h-184l-268 1219l-269 -1219h-182l-334 1352h129l297 -1223l268 1223h183zM979 1712l264 -229l-137 -19l-188 160l-189 -160l-139 19l264 229h125z" />
    <glyph glyph-name="wcircumflex" unicode="&#x175;" horiz-adv-x="1488" 
d="M1036 106l226 881h122l-258 -987h-180l-203 879l-202 -879h-181l-258 987h125l226 -881l200 881h181zM776 1403l238 -268l-121 -17l-174 191l-176 -191l-123 17l239 268h117z" />
    <glyph glyph-name="Ycircumflex" unicode="&#x176;" horiz-adv-x="1146" 
d="M575 659l353 693h143l-434 -826v-526h-125v526l-434 826h143zM639 1712l264 -229l-137 -19l-188 160l-189 -160l-139 19l264 229h125z" />
    <glyph glyph-name="ycircumflex" unicode="&#x177;" horiz-adv-x="940" 
d="M748 987h131l-338 -975q-51 -149 -112 -241q-58 -87 -139 -131q-83 -45 -204 -52l-33 133q22 -2 47 -2q114 0 190 72q78 73 128 221l20 60h-59l-318 915h132l276 -821zM545 1403l237 -268l-120 -17l-175 191l-176 -191l-123 17l240 268h117z" />
    <glyph glyph-name="Ydieresis" unicode="&#x178;" horiz-adv-x="1146" 
d="M575 659l353 693h143l-434 -826v-526h-125v526l-434 826h143zM346 1692h135l2 -193h-133zM666 1692h135l2 -193h-133z" />
    <glyph glyph-name="Zacute" unicode="&#x179;" horiz-adv-x="1200" 
d="M999 1171l-708 -1054h729v-117h-840v180l711 1055h-690v117h798v-181zM610 1466l-137 19l272 237l150 -20z" />
    <glyph glyph-name="zacute" unicode="&#x17a;" horiz-adv-x="872" 
d="M752 819l-537 -704h553v-115h-664v168l537 706h-522v113h633v-168zM440 1118l-121 17l242 274l133 -18z" />
    <glyph glyph-name="Zdotaccent" unicode="&#x17b;" horiz-adv-x="1200" 
d="M999 1171l-708 -1054h729v-117h-840v180l711 1055h-690v117h798v-181zM537 1692h129v-193h-129v193z" />
    <glyph glyph-name="zdotaccent" unicode="&#x17c;" horiz-adv-x="872" 
d="M752 819l-537 -704h553v-115h-664v168l537 706h-522v113h633v-168zM369 1376h131v-209h-131v209z" />
    <glyph glyph-name="Zcaron" unicode="&#x17d;" horiz-adv-x="1200" 
d="M999 1171l-708 -1054h729v-117h-840v180l711 1055h-690v117h798v-181zM604 1552l189 160l137 -18l-264 -230h-125l-265 230l140 18z" />
    <glyph glyph-name="zcaron" unicode="&#x17e;" horiz-adv-x="872" 
d="M752 819l-537 -704h553v-115h-664v168l537 706h-522v113h633v-168zM438 1212l174 191l121 -17l-237 -268h-117l-240 268l123 17z" />
    <glyph glyph-name="uni018F" unicode="&#x18f;" horiz-adv-x="1247" 
d="M868 1290q118 -87 181 -243q63 -158 63 -371q0 -212 -62 -368q-63 -158 -178 -246q-114 -87 -266 -87q-145 0 -251 74q-105 73 -162 212q-58 140 -58 329q0 56 6 117h840q-5 167 -53 292q-49 127 -135 196q-85 69 -197 69q-126 0 -205 -84q-79 -83 -100 -234l-137 39
q39 188 154 289q116 102 288 102q154 0 272 -86zM788 152q82 65 131 178q49 114 60 264h-703q-4 -235 85 -371q89 -135 247 -135q99 0 180 64z" />
    <glyph glyph-name="florin" unicode="&#x192;" horiz-adv-x="1017" 
d="M993 1331l-22 -127q-55 60 -148 60q-101 0 -141 -69q-40 -68 -61 -202l-35 -229h301v-98h-316l-51 -328q-56 -363 -319 -363q-100 0 -176 43l22 129q52 -59 146 -59q86 0 133 64q47 63 69 208l47 306h-305v98h322l39 252q28 186 105 273t212 87q94 0 178 -45z" />
    <glyph glyph-name="uni01CD" unicode="&#x1cd;" horiz-adv-x="1196" 
d="M1100 0h-133l-121 406h-496l-121 -406h-133l410 1352h184zM600 1239l-217 -723h430zM614 1552l189 160l137 -18l-264 -230h-125l-264 230l139 18z" />
    <glyph glyph-name="uni01CE" unicode="&#x1ce;" horiz-adv-x="972" 
d="M727 922q90 -90 90 -252v-670h-123v160q-29 -91 -99 -137q-73 -48 -169 -48q-135 0 -222 87t-87 221q0 135 90 223q89 88 227 88q95 0 163 -46q69 -46 97 -134v241q0 120 -57 186t-158 66t-158 -66q-57 -65 -55 -179l-129 36q11 146 102 230q92 84 240 84q158 0 248 -90z
M631 138q63 59 63 149q0 88 -63 145t-160 57q-99 0 -163 -57t-64 -145q0 -91 64 -149t163 -58q98 0 160 58zM479 1212l174 191l121 -17l-237 -268h-117l-240 268l123 17z" />
    <glyph glyph-name="Gcaron" unicode="&#x1e6;" horiz-adv-x="1284" 
d="M649 717h449v-717h-125v295q-57 -320 -338 -320q-149 0 -263 87q-113 86 -175 245t-62 369q0 208 64 370q63 158 179 244t271 86q175 0 290 -102q116 -102 155 -289l-138 -39q-18 148 -100 233t-209 85q-112 0 -198 -74q-88 -76 -134 -207q-47 -135 -47 -307t47 -307
q46 -131 134 -207q86 -74 198 -74q146 0 235 115q90 115 91 303v96h-324v115zM651 1552l189 160l137 -18l-264 -230h-125l-264 230l139 18z" />
    <glyph glyph-name="gcaron" unicode="&#x1e7;" horiz-adv-x="935" 
d="M553 115q151 0 238 -73q86 -72 86 -200q0 -135 -100 -206q-98 -70 -285 -70q-183 0 -284 67q-102 67 -102 187q0 29 11 76l139 38q-16 -48 -16 -96q0 -168 256 -168q254 0 254 170q0 79 -52 123q-50 43 -145 43h-129q-126 0 -202 44q-75 44 -75 118q0 116 179 145
q-100 35 -152 123q-53 89 -53 215q0 184 100 272q101 89 307 89q119 0 197 9q76 9 149 30l-22 -123q-123 -20 -246 -21q104 -23 150 -87q47 -65 47 -179q0 -165 -91 -257q-92 -93 -249 -93q-103 0 -153 -22q-48 -21 -48 -66q0 -41 42 -65q40 -23 120 -23h129zM305 463
q57 -68 158 -68q100 0 157 68q56 66 56 188q0 121 -56 187q-57 68 -157 69q-99 0 -157 -68t-58 -188q0 -121 57 -188zM473 1212l174 191l121 -17l-238 -268h-116l-240 268l123 17z" />
    <glyph glyph-name="uni01F4" unicode="&#x1f4;" horiz-adv-x="1284" 
d="M649 717h449v-717h-125v295q-57 -320 -338 -320q-149 0 -263 87q-113 86 -175 245t-62 369q0 208 64 370q63 158 179 244t271 86q175 0 290 -102q116 -102 155 -289l-138 -39q-18 148 -100 233t-209 85q-112 0 -198 -74q-88 -76 -134 -207q-47 -135 -47 -307t47 -307
q46 -131 134 -207q86 -74 198 -74q146 0 235 115q90 115 91 303v96h-324v115zM657 1466l-137 19l273 237l149 -20z" />
    <glyph glyph-name="uni01F5" unicode="&#x1f5;" horiz-adv-x="935" 
d="M553 115q151 0 238 -73q86 -72 86 -200q0 -135 -100 -206q-98 -70 -285 -70q-183 0 -284 67q-102 67 -102 187q0 29 11 76l139 38q-16 -48 -16 -96q0 -168 256 -168q254 0 254 170q0 79 -52 123q-50 43 -145 43h-129q-126 0 -202 44q-75 44 -75 118q0 116 179 145
q-100 35 -152 123q-53 89 -53 215q0 184 100 272q101 89 307 89q119 0 197 9q76 9 149 30l-22 -123q-123 -20 -246 -21q104 -23 150 -87q47 -65 47 -179q0 -165 -91 -257q-92 -93 -249 -93q-103 0 -153 -22q-48 -21 -48 -66q0 -41 42 -65q40 -23 120 -23h129zM305 463
q57 -68 158 -68q100 0 157 68q56 66 56 188q0 121 -56 187q-57 68 -157 69q-99 0 -157 -68t-58 -188q0 -121 57 -188zM475 1118l-121 17l242 274l133 -18z" />
    <glyph glyph-name="Aringacute" unicode="&#x1fa;" horiz-adv-x="1196" 
d="M1100 0h-133l-121 406h-496l-121 -406h-133l410 1352h184zM600 1239l-217 -723h430zM467 1497q-57 53 -57 133t57 132q58 53 145 53t147 -54q58 -52 58 -131q0 -81 -58 -133q-59 -53 -147 -53q-87 0 -145 53zM690 1555q31 31 31 75t-31 75q-30 30 -78 30q-47 0 -77 -30
q-31 -31 -31 -75t31 -75q29 -29 77 -29q49 0 78 29zM621 1911l-138 18l273 238l149 -21z" />
    <glyph glyph-name="aringacute" unicode="&#x1fb;" horiz-adv-x="972" 
d="M727 922q90 -90 90 -252v-670h-123v160q-29 -91 -99 -137q-73 -48 -169 -48q-135 0 -222 87t-87 221q0 135 90 223q89 88 227 88q95 0 163 -46q69 -46 97 -134v241q0 120 -57 186t-158 66t-158 -66q-57 -65 -55 -179l-129 36q11 146 102 230q92 84 240 84q158 0 248 -90z
M631 138q63 59 63 149q0 88 -63 145t-160 57q-99 0 -163 -57t-64 -145q0 -91 64 -149t163 -58q98 0 160 58zM326 1153q-58 53 -58 133q0 79 58 132q56 52 145 52q87 0 146 -53t59 -131q0 -80 -59 -133t-146 -53t-145 53zM549 1211q31 31 31 75t-31 75q-30 30 -78 30t-78 -30
q-31 -31 -31 -75t31 -75q29 -29 78 -29t78 29zM481 1577l-121 16l242 275l133 -19z" />
    <glyph glyph-name="AEacute" unicode="&#x1fc;" horiz-adv-x="1636" 
d="M1497 1352v-117h-719l88 -485h559v-111h-538l96 -522h514v-117h-618l-76 410h-473l-156 -410h-133l522 1352h934zM651 1249l-280 -731h413zM979 1466l-137 19l272 237l150 -20z" />
    <glyph glyph-name="aeacute" unicode="&#x1fd;" horiz-adv-x="1570" 
d="M821 475q4 -182 78 -289q73 -106 193 -106q102 0 168 78q65 77 65 196l127 -37q-6 -96 -55 -175q-50 -80 -130 -123q-82 -44 -180 -44q-126 0 -220 74q-93 73 -138 205q-8 -131 -89 -205q-82 -74 -210 -74q-136 0 -225 87q-88 87 -88 221q0 135 90 223q89 88 227 88
q97 0 164 -46q68 -46 96 -132v239q0 120 -57 186t-158 66t-158 -66q-57 -65 -55 -179l-129 36q11 146 102 230q92 84 240 84q146 0 234 -76q87 -75 102 -215q61 291 305 291q157 0 248 -118q92 -119 92 -312q0 -52 -6 -107h-633zM1329 571q5 158 -59 247q-63 89 -178 89
q-109 0 -181 -90q-71 -89 -86 -246h504zM631 138q63 59 63 149q-1 88 -64 145t-159 57q-99 0 -163 -57t-64 -145q0 -91 64 -149t163 -58q98 0 160 58zM782 1118l-121 17l242 274l133 -18z" />
    <glyph glyph-name="Oslashacute" unicode="&#x1fe;" horiz-adv-x="1296" 
d="M1001 1208q77 -94 118 -229q40 -133 40 -303q0 -212 -62 -367q-63 -158 -178 -246t-272 -88q-164 0 -287 99l-88 -156h-112l129 229q-73 91 -114 229q-40 135 -40 300q0 208 63 366t178 246t271 88q160 0 283 -96l86 154h114zM360 272l506 899q-93 93 -219 93
q-112 0 -198 -74q-88 -76 -134 -208q-47 -135 -47 -306q0 -247 92 -404zM847 162q87 74 134 208q47 135 47 306q0 248 -94 409l-510 -901q92 -96 223 -96q112 0 200 74zM657 1466l-137 19l273 237l149 -20z" />
    <glyph glyph-name="oslashacute" unicode="&#x1ff;" horiz-adv-x="1013" 
d="M788 883q117 -140 117 -389q0 -238 -107 -378q-108 -141 -292 -141q-113 0 -199 56l-63 -113h-115l102 180q-122 138 -122 396q0 237 107 377q108 141 290 141q118 0 207 -60l67 117h115zM297 215l358 635q-63 57 -149 57q-124 0 -197 -112t-73 -301q0 -169 61 -279z
M703 194q75 114 75 300q0 162 -57 270l-356 -633q61 -51 141 -51q122 0 197 114zM514 1118l-121 17l242 274l133 -18z" />
    <glyph glyph-name="uni0218" unicode="&#x218;" horiz-adv-x="1099" 
d="M246 406q5 -156 83 -237q80 -83 226 -83q133 0 214 66t81 170q0 66 -30 116q-31 51 -103 98q-73 48 -213 111q-186 84 -266 178q-78 92 -78 230q0 92 50 166q50 73 138 114q90 41 201 41q179 0 286 -106q106 -105 111 -283l-135 -41q8 149 -62 233q-70 85 -200 85
q-113 0 -186 -59q-72 -59 -72 -150q0 -67 28 -114t98 -93q77 -50 195 -103q152 -71 222 -124q78 -59 113 -131q34 -69 34 -168q0 -102 -53 -182q-52 -79 -151 -123t-222 -44q-194 0 -314 108t-130 286zM475 -395q62 74 62 145q0 62 -48 127h121q35 -53 35 -119
q0 -91 -65 -172z" />
    <glyph glyph-name="uni0219" unicode="&#x219;" horiz-adv-x="892" 
d="M219 346q-4 -29 -4 -49q0 -103 61 -161t173 -58q95 0 154 42t59 111q0 43 -22 78q-20 31 -76 67q-49 31 -156 77q-161 69 -223 136q-62 68 -62 175q0 110 88 179t229 69q146 0 234 -84t88 -219l-125 -37q2 16 2 35q0 89 -53 145q-52 55 -146 55q-86 0 -138 -39t-52 -104
q0 -64 51 -109q49 -44 182 -100q123 -51 185 -95q65 -46 93 -100q27 -52 27 -129q0 -114 -95 -186t-247 -72q-166 0 -260 90q-94 89 -92 246zM365 -395q61 73 61 145q0 63 -47 127h121q35 -53 35 -119q0 -90 -66 -172z" />
    <glyph glyph-name="uni021A" unicode="&#x21a;" horiz-adv-x="1019" 
d="M63 1352h891v-117h-381v-1235h-127v1235h-383v117zM430 -395q62 74 62 145q0 62 -48 127h121q35 -53 35 -119q0 -91 -65 -172z" />
    <glyph glyph-name="uni021B" unicode="&#x21b;" horiz-adv-x="714" 
d="M662 23q-79 -48 -185 -48q-114 0 -173 61q-58 59 -58 179v676h-226v96h56q110 0 153 39t43 135v129h117v-129q0 -81 -30 -122q-30 -40 -103 -52h383v-96h-270v-666q0 -143 120 -143q43 0 82 15t68 44zM352 -395q62 74 62 145q0 63 -47 127h120q35 -53 35 -119
q0 -91 -65 -172z" />
    <glyph glyph-name="uni0232" unicode="&#x232;" horiz-adv-x="1146" 
d="M575 659l353 693h143l-434 -826v-526h-125v526l-434 826h143zM285 1513v99h579v-99h-579z" />
    <glyph glyph-name="uni0233" unicode="&#x233;" horiz-adv-x="940" 
d="M748 987h131l-338 -975q-51 -149 -112 -241q-58 -87 -139 -131q-83 -45 -204 -52l-33 133q22 -2 47 -2q114 0 190 72q78 73 128 221l20 60h-59l-318 915h132l276 -821zM225 1184v98h518v-98h-518z" />
    <glyph glyph-name="uni0237" unicode="&#x237;" horiz-adv-x="477" 
d="M-96 -276q23 -5 59 -5q101 0 159 67q56 65 56 191v1010h123v-1036q0 -172 -93 -265q-94 -94 -271 -100z" />
    <glyph glyph-name="uni0259" unicode="&#x259;" horiz-adv-x="985" 
d="M769 871q108 -141 108 -377q0 -237 -108 -378t-290 -141q-169 0 -270 117q-100 116 -100 314q0 28 8 106h633q-4 182 -78 289q-73 106 -193 106q-100 0 -166 -77q-66 -76 -67 -197l-127 37q6 96 54 174t129 123t177 45q182 0 290 -141zM659 170q71 89 86 246h-503
q-5 -158 59 -247q63 -89 178 -89q108 0 180 90z" />
    <glyph glyph-name="circumflex" unicode="&#x2c6;" horiz-adv-x="1294" 
d="M705 1403l237 -268l-121 -17l-174 191l-176 -191l-123 17l240 268h117z" />
    <glyph glyph-name="caron" unicode="&#x2c7;" horiz-adv-x="1294" 
d="M647 1212l174 191l121 -17l-237 -268h-117l-240 268l123 17z" />
    <glyph glyph-name="breve" unicode="&#x2d8;" horiz-adv-x="1294" 
d="M924 1395q-5 -131 -76 -199q-73 -70 -201 -70q-131 0 -204 71q-71 70 -76 198l110 14q-2 -89 43 -138q45 -50 127 -50t126 50q43 49 42 138z" />
    <glyph glyph-name="dotaccent" unicode="&#x2d9;" horiz-adv-x="1294" 
d="M580 1376h131v-209h-131v209z" />
    <glyph glyph-name="ring" unicode="&#x2da;" horiz-adv-x="1294" 
d="M500 1153q-58 53 -58 133q0 79 58 132q56 52 145 52q88 0 147 -53q58 -52 58 -131q0 -81 -58 -133q-59 -53 -147 -53q-87 0 -145 53zM723 1211q31 31 31 75t-31 75q-30 30 -78 30t-78 -30t-30 -75t30 -75q29 -29 78 -29t78 29z" />
    <glyph glyph-name="ogonek" unicode="&#x2db;" horiz-adv-x="1294" 
d="M544 -301q-52 43 -52 111q0 78 69 135q68 56 170 61l70 -6q-96 -18 -148 -60q-53 -42 -53 -98q0 -40 26 -64t72 -24q50 0 84 37l17 -104q-45 -31 -121 -31q-82 0 -134 43z" />
    <glyph glyph-name="tilde" unicode="&#x2dc;" horiz-adv-x="1294" 
d="M332 1149q4 111 52 170q47 59 134 59q47 0 81 -19t81 -71q33 -37 55 -53q20 -14 39 -14q78 0 78 153l104 -18q-5 -112 -49 -171q-46 -61 -129 -61q-51 0 -84 18q-34 19 -86 75q-33 38 -54 52q-19 13 -42 13q-74 0 -74 -152z" />
    <glyph glyph-name="hungarumlaut" unicode="&#x2dd;" horiz-adv-x="1294" 
d="M424 1118l-123 17l242 274l135 -18zM739 1118l-121 17l240 274l135 -18z" />
    <glyph glyph-name="gravecomb" unicode="&#x300;" horiz-adv-x="0" 
d="M-121 1409l242 -274l-121 -17l-254 273z" />
    <glyph glyph-name="acutecomb" unicode="&#x301;" horiz-adv-x="0" 
d="M4 1118l-121 17l242 274l133 -18z" />
    <glyph glyph-name="uni0302" unicode="&#x302;" horiz-adv-x="0" 
d="M59 1403l238 -268l-121 -17l-174 191l-176 -191l-123 17l240 268h116z" />
    <glyph glyph-name="tildecomb" unicode="&#x303;" horiz-adv-x="0" 
d="M-313 1149q4 111 52 170q47 59 134 59q47 0 81 -19t81 -71q33 -37 55 -53q20 -14 39 -14q78 0 78 153l104 -18q-5 -112 -49 -171q-46 -61 -129 -61q-51 0 -84 18q-34 19 -86 75q-33 38 -54 52q-19 13 -42 13q-74 0 -74 -152z" />
    <glyph glyph-name="uni0304" unicode="&#x304;" horiz-adv-x="0" 
d="M-260 1184v98h518v-98h-518z" />
    <glyph glyph-name="uni0306" unicode="&#x306;" horiz-adv-x="0" 
d="M276 1395q-5 -132 -75 -199q-73 -70 -201 -70q-131 0 -204 71t-77 198l111 14q-2 -89 43 -138q45 -50 127 -50t126 50q44 49 42 138z" />
    <glyph glyph-name="uni0307" unicode="&#x307;" horiz-adv-x="0" 
d="M-68 1376h131v-209h-131v209z" />
    <glyph glyph-name="uni0308" unicode="&#x308;" horiz-adv-x="0" 
d="M-215 1376h133l2 -209h-131zM78 1376h133l2 -209h-133z" />
    <glyph glyph-name="uni030A" unicode="&#x30a;" horiz-adv-x="0" 
d="M-145 1153q-58 53 -58 133q0 79 58 132q56 52 145 52q87 0 146 -53t59 -131q0 -80 -59 -133t-146 -53t-145 53zM78 1211q31 31 31 75t-31 75q-30 30 -78 30t-78 -30q-31 -31 -31 -75t31 -75q29 -29 78 -29t78 29z" />
    <glyph glyph-name="uni030B" unicode="&#x30b;" horiz-adv-x="0" 
d="M-135 1118l-123 17l242 274l135 -18zM180 1118l-121 17l240 274l135 -18z" />
    <glyph glyph-name="uni030C" unicode="&#x30c;" horiz-adv-x="0" 
d="M2 1212l174 191l121 -17l-238 -268h-116l-240 268l123 17z" />
    <glyph glyph-name="uni0312" unicode="&#x312;" horiz-adv-x="0" 
d="M-53 1120q-35 53 -35 119q0 101 80 201l106 -15q-78 -95 -78 -178q0 -62 48 -127h-121z" />
    <glyph glyph-name="uni0326" unicode="&#x326;" horiz-adv-x="0" 
d="M-82 -395q62 74 62 145q0 62 -48 127h121q35 -53 35 -119q0 -91 -65 -172z" />
    <glyph glyph-name="uni0327" unicode="&#x327;" horiz-adv-x="0" 
d="M41 -106q60 -6 96 -37q35 -30 35 -76q0 -56 -50 -91q-49 -34 -132 -34q-78 0 -131 31l16 108q28 -22 53 -33q23 -10 56 -10q38 0 59 15q20 14 20 40q0 32 -33 54q-34 23 -96 33h-2l21 106h106z" />
    <glyph glyph-name="uni0328" unicode="&#x328;" horiz-adv-x="0" 
d="M-251 -301q-52 43 -52 111q0 77 70 135q68 56 170 61l69 -6q-94 -18 -147 -60q-54 -43 -54 -98q0 -40 26 -64q25 -24 73 -24q50 0 84 37l16 -104q-45 -31 -121 -31q-82 0 -134 43z" />
    <glyph glyph-name="uni0394" unicode="&#x394;" horiz-adv-x="1110" 
d="M465 1352h182l367 -1235v-117h-918v117zM887 117l-330 1114l-334 -1114h664z" />
    <glyph glyph-name="uni03A9" unicode="&#x3a9;" horiz-adv-x="1302" 
d="M1091 338q-76 -154 -217 -221h269v-117h-414v96q136 28 221 190q84 161 84 398q0 171 -47 304q-46 131 -134 204q-87 72 -202 72q-114 0 -201 -72q-89 -74 -135 -204q-47 -133 -47 -304q0 -235 84 -397q84 -163 223 -191v-96h-415v117h268q-140 66 -216 221
q-77 157 -77 377q0 194 65 345q65 152 182 233q119 83 269 83q151 0 270 -83q117 -81 182 -233q64 -149 64 -345q0 -222 -76 -377z" />
    <glyph glyph-name="uni03BC" unicode="&#x3bc;" horiz-adv-x="1032" 
d="M733 987h123v-987h-123v178q-33 -97 -99 -149q-68 -54 -159 -54q-119 0 -188 88v-473h-109v1397h121v-618q0 -138 56 -212q57 -75 161 -75t161 75q56 74 56 212v618z" />
    <glyph glyph-name="pi" unicode="&#x3c0;" horiz-adv-x="1134" 
d="M1079 23q-81 -48 -166 -48q-105 0 -154 58q-48 57 -48 182v666h-344v-881h-123v881h-224v106h1037v-106h-223v-658q0 -76 22 -108q22 -33 72 -33q74 0 129 59z" />
    <glyph glyph-name="Wgrave" unicode="&#x1e80;" horiz-adv-x="1841" 
d="M1280 129l297 1223h129l-334 -1352h-184l-268 1219l-269 -1219h-182l-334 1352h129l297 -1223l268 1223h183zM780 1722l271 -237l-136 -19l-284 236z" />
    <glyph glyph-name="wgrave" unicode="&#x1e81;" horiz-adv-x="1488" 
d="M1036 106l226 881h122l-258 -987h-180l-203 879l-202 -879h-181l-258 987h125l226 -881l200 881h181zM596 1409l242 -274l-121 -17l-254 273z" />
    <glyph glyph-name="Wacute" unicode="&#x1e82;" horiz-adv-x="1841" 
d="M1280 129l297 1223h129l-334 -1352h-184l-268 1219l-269 -1219h-182l-334 1352h129l297 -1223l268 1223h183zM924 1466l-138 19l273 237l149 -20z" />
    <glyph glyph-name="wacute" unicode="&#x1e83;" horiz-adv-x="1488" 
d="M1036 106l226 881h122l-258 -987h-180l-203 879l-202 -879h-181l-258 987h125l226 -881l200 881h181zM721 1118l-121 17l242 274l133 -18z" />
    <glyph glyph-name="Wdieresis" unicode="&#x1e84;" horiz-adv-x="1841" 
d="M1280 129l297 1223h129l-334 -1352h-184l-268 1219l-269 -1219h-182l-334 1352h129l297 -1223l268 1223h183zM686 1692h135l2 -193h-133zM1006 1692h135l2 -193h-133z" />
    <glyph glyph-name="wdieresis" unicode="&#x1e85;" horiz-adv-x="1488" 
d="M1036 106l226 881h122l-258 -987h-180l-203 879l-202 -879h-181l-258 987h125l226 -881l200 881h181zM502 1376h133l2 -209h-131zM795 1376h133l2 -209h-133z" />
    <glyph glyph-name="uni1E9E" unicode="&#x1e9e;" horiz-adv-x="1284" 
d="M1128 430q41 -77 41 -158q0 -138 -95 -218q-94 -79 -265 -79t-301 97l27 139q63 -63 129 -93t147 -30q111 0 169 48t58 138q0 57 -31 110q-30 51 -135 167q-115 129 -156 206q-42 79 -42 167q0 116 81 200t222 111h-453q-94 0 -143 -48t-49 -138v-1049h-125v1049
q0 144 83 224q82 79 232 79h553v-113q-140 -40 -207 -112q-65 -69 -65 -185q0 -76 35 -140q33 -60 143 -181q106 -113 147 -191z" />
    <glyph glyph-name="uni1EBC" unicode="&#x1ebc;" horiz-adv-x="1103" 
d="M965 1352v-117h-633v-485h561v-111h-561v-522h633v-117h-758v1352h758zM229 1493q7 205 195 205q41 0 85 -19q43 -18 112 -65q45 -30 69 -42q22 -11 51 -11q48 0 69 30t21 101l107 -19q-5 -105 -53 -155q-50 -52 -144 -52q-41 0 -83 18q-44 19 -111 64q-47 30 -74 43
q-24 11 -49 11q-46 0 -67 -30t-21 -97z" />
    <glyph glyph-name="uni1EBD" unicode="&#x1ebd;" horiz-adv-x="985" 
d="M236 475q5 -184 77 -289q73 -106 193 -106q100 0 166 77q66 76 67 197l127 -37q-6 -96 -54 -174t-129 -123t-177 -45q-182 0 -290 141q-107 140 -107 378q0 237 107 377q108 141 290 141q170 0 270 -117q101 -118 101 -313q0 -19 -9 -107h-632zM743 571q5 158 -59 247
q-63 89 -178 89q-108 0 -180 -90q-71 -89 -86 -246h503zM190 1149q4 109 53 170q47 59 134 59q47 0 81 -19t81 -71q33 -37 55 -53q20 -14 39 -14q78 0 78 153l104 -18q-5 -112 -49 -171q-46 -61 -129 -61q-51 0 -84 18q-34 19 -86 75q-33 38 -54 52q-19 13 -42 13
q-74 0 -74 -152z" />
    <glyph glyph-name="Ygrave" unicode="&#x1ef2;" horiz-adv-x="1146" 
d="M575 659l353 693h143l-434 -826v-526h-125v526l-434 826h143zM440 1722l271 -237l-136 -19l-284 236z" />
    <glyph glyph-name="ygrave" unicode="&#x1ef3;" horiz-adv-x="940" 
d="M748 987h131l-338 -975q-51 -149 -112 -241q-58 -87 -139 -131q-83 -45 -204 -52l-33 133q22 -2 47 -2q114 0 190 72q78 73 128 221l20 60h-59l-318 915h132l276 -821zM365 1409l241 -274l-121 -17l-254 273z" />
    <glyph glyph-name="uni1EF8" unicode="&#x1ef8;" horiz-adv-x="1146" 
d="M575 659l353 693h143l-434 -826v-526h-125v526l-434 826h143zM219 1493q7 205 195 205q41 0 85 -19q40 -17 111 -65q42 -28 70 -42q22 -11 51 -11q48 0 69 30t21 101l107 -19q-4 -104 -54 -155q-50 -52 -143 -52q-41 0 -83 18q-44 19 -111 64q-47 30 -74 43
q-24 11 -49 11q-46 0 -67 -30t-21 -97z" />
    <glyph glyph-name="uni1EF9" unicode="&#x1ef9;" horiz-adv-x="940" 
d="M748 987h131l-338 -975q-51 -149 -112 -241q-58 -87 -139 -131q-83 -45 -204 -52l-33 133q22 -2 47 -2q114 0 190 72q78 73 128 221l20 60h-59l-318 915h132l276 -821zM170 1149q4 111 52 170q47 59 134 59q47 0 81 -19t81 -71q33 -37 55 -53q20 -14 39 -14q78 0 78 153
l105 -18q-4 -110 -50 -171t-129 -61q-51 0 -84 18q-34 19 -86 75q-33 38 -54 52q-19 13 -42 13q-74 0 -74 -152z" />
    <glyph glyph-name="uni2009" unicode="&#x2009;" horiz-adv-x="239" 
 />
    <glyph glyph-name="uni2011" unicode="&#x2011;" horiz-adv-x="698" 
d="M80 475v115h538v-115h-538z" />
    <glyph glyph-name="endash" unicode="&#x2013;" horiz-adv-x="980" 
d="M80 475v115h821v-115h-821z" />
    <glyph glyph-name="emdash" unicode="&#x2014;" horiz-adv-x="1316" 
d="M80 475v115h1157v-115h-1157z" />
    <glyph glyph-name="quoteleft" unicode="&#x2018;" horiz-adv-x="407" 
d="M156 946q-50 85 -50 162q0 140 123 270l109 -26q-59 -62 -83 -116q-26 -58 -26 -122q0 -92 60 -168h-133z" />
    <glyph glyph-name="quoteright" unicode="&#x2019;" horiz-adv-x="407" 
d="M252 1352q49 -85 49 -162q0 -141 -123 -270l-108 26q59 62 83 116q25 56 25 122q0 91 -59 168h133z" />
    <glyph glyph-name="quotesinglbase" unicode="&#x201a;" horiz-adv-x="407" 
d="M252 217q49 -85 49 -162q0 -141 -123 -270l-108 27q60 63 83 115q25 56 25 122q0 91 -59 168h133z" />
    <glyph glyph-name="quotedblleft" unicode="&#x201c;" horiz-adv-x="710" 
d="M156 946q-50 85 -50 162q0 140 123 270l109 -26q-59 -62 -83 -116q-26 -58 -26 -122q0 -92 60 -168h-133zM459 946q-49 83 -49 162q0 141 122 270l109 -26q-59 -62 -83 -116q-26 -58 -26 -122q0 -92 60 -168h-133z" />
    <glyph glyph-name="quotedblright" unicode="&#x201d;" horiz-adv-x="690" 
d="M252 1352q49 -85 49 -162q0 -141 -123 -270l-108 26q59 62 83 116q25 56 25 122q0 91 -59 168h133zM535 1352q49 -85 49 -162q0 -141 -123 -270l-109 26q59 62 83 116q26 58 26 122q0 90 -60 168h134z" />
    <glyph glyph-name="quotedblbase" unicode="&#x201e;" horiz-adv-x="690" 
d="M252 217q49 -85 49 -162q0 -141 -123 -270l-108 27q60 63 83 115q25 56 25 122q0 91 -59 168h133zM535 217q49 -85 49 -162q0 -141 -123 -270l-109 27q60 63 83 115q26 58 26 122q0 90 -60 168h134z" />
    <glyph glyph-name="dagger" unicode="&#x2020;" horiz-adv-x="788" 
d="M453 1196h256v-117h-256v-528h-117v528h-256v117h256v238h117v-238z" />
    <glyph glyph-name="daggerdbl" unicode="&#x2021;" horiz-adv-x="788" 
d="M709 1217v-117h-256v-215h256v-117h-256v-217h-117v217h-256v117h256v215h-256v117h256v217h117v-217h256z" />
    <glyph glyph-name="bullet" unicode="&#x2022;" horiz-adv-x="1126" 
d="M418 530v291h291v-291h-291z" />
    <glyph glyph-name="ellipsis" unicode="&#x2026;" horiz-adv-x="1038" 
d="M150 217h129v-217h-129v217zM444 217h129v-217h-129v217zM762 217h129v-217h-129v217z" />
    <glyph glyph-name="perthousand" unicode="&#x2030;" horiz-adv-x="2725" 
d="M205 614q-88 113 -88 320q0 203 88 318q89 116 241 116q156 0 243 -116t87 -318q0 -203 -87 -319q-87 -115 -243 -115q-152 0 -241 114zM662 0h-127l725 1352h126zM597 692q54 86 54 242t-54 241t-151 85q-96 0 -150 -85t-54 -241t54 -242t150 -86q97 0 151 86zM1231 100
q-88 113 -88 320q0 203 88 318q89 116 242 116q154 0 243 -116q88 -115 88 -318q0 -204 -88 -319t-243 -115q-153 0 -242 114zM2038 100q-88 113 -88 320q0 203 88 318q89 116 241 116q155 0 244 -116q88 -115 88 -318q0 -204 -88 -319t-244 -115q-153 0 -241 114zM1624 177
q53 86 53 243q0 154 -53 240q-52 85 -151 85q-97 0 -151 -85t-54 -240q0 -156 54 -242t151 -86q99 0 151 85zM2431 177q53 86 53 243q0 154 -53 240q-52 85 -152 85q-96 0 -150 -85t-54 -240q0 -156 54 -242t150 -86q100 0 152 85z" />
    <glyph glyph-name="minute" unicode="&#x2032;" horiz-adv-x="454" 
d="M193 1352h131l-103 -502h-90z" />
    <glyph glyph-name="second" unicode="&#x2033;" horiz-adv-x="747" 
d="M193 1352h131l-103 -502h-90zM487 1352h131l-102 -502h-90z" />
    <glyph glyph-name="guilsinglleft" unicode="&#x2039;" horiz-adv-x="786" 
d="M475 387q99 -94 139 -229l-125 -35q-38 137 -119 225q-83 91 -198 121v96q116 30 200 121q83 90 120 223l120 -32q-42 -140 -139 -233q-100 -95 -235 -128q137 -34 237 -129z" />
    <glyph glyph-name="guilsinglright" unicode="&#x203a;" horiz-adv-x="786" 
d="M295 909q37 -133 120 -223q84 -91 199 -121v-96q-113 -30 -197 -121q-83 -90 -120 -225l-123 35q39 136 137 229q99 95 238 129q-136 33 -236 128q-97 93 -139 233z" />
    <glyph glyph-name="fraction" unicode="&#x2044;" horiz-adv-x="219" 
d="M-188 0h-127l725 1352h127z" />
    <glyph glyph-name="uni2070" unicode="&#x2070;" 
d="M152 820q-86 116 -86 321q0 202 86 318t237 116q149 0 235 -116q85 -115 85 -318q0 -204 -85 -320t-235 -116q-152 0 -237 115zM534 898q52 86 52 243q0 154 -52 239q-53 86 -145 86q-93 0 -146 -86t-53 -239q0 -158 53 -244t146 -86t145 87z" />
    <glyph glyph-name="uni2074" unicode="&#x2074;" 
d="M731 1018v-107h-131v-192h-123v192h-430v97q126 99 182 228t56 323h139q0 -181 -85 -324q-86 -144 -230 -217h368v213h123v-213h131z" />
    <glyph glyph-name="uni2075" unicode="&#x2075;" 
d="M635 1196q72 -76 72 -201q0 -132 -83 -212q-81 -78 -221 -78q-134 0 -220 68q-86 69 -91 183l133 39q-2 -83 46 -133q48 -51 132 -51q83 0 129 49q48 51 48 135t-46 133q-47 50 -126 50q-60 0 -106 -24q-48 -25 -71 -62l-116 45l22 422h535v-107h-418l-21 -317
q29 63 89 101q57 36 127 36q114 0 186 -76z" />
    <glyph glyph-name="uni2076" unicode="&#x2076;" 
d="M631 1188q71 -75 71 -197q0 -128 -82 -207t-221 -79q-157 0 -240 111q-83 112 -83 327q0 204 86 319t237 115q110 0 187 -55t104 -150l-131 -39q-7 61 -52 99q-42 36 -108 36q-96 0 -147 -85t-51 -240q0 -39 4 -90q15 97 77 153q64 58 160 58q117 0 189 -76zM530 860
q50 50 50 131q0 83 -49 132q-48 48 -130 48q-83 0 -129 -48q-47 -49 -47 -132q0 -81 48 -130q48 -50 126 -50q82 0 131 49z" />
    <glyph glyph-name="uni2077" unicode="&#x2077;" 
d="M31 1559h704v-95q-191 -128 -273 -290q-83 -164 -83 -416v-39h-137v39q0 254 104 420q104 167 326 274h-641v107z" />
    <glyph glyph-name="uni2078" unicode="&#x2078;" 
d="M644 1107q63 -63 63 -153q0 -110 -90 -180q-89 -69 -230 -69q-142 0 -230 70q-89 71 -89 179q0 91 62 153q63 63 171 81q-98 12 -151 57q-54 46 -54 119q0 92 82 152q81 59 209 59q129 0 211 -58t82 -153q0 -74 -53 -119q-52 -45 -154 -57q108 -18 171 -81zM268 1233
q46 -39 119 -39t120 39q46 39 46 98q0 62 -46 99q-45 36 -120 36t-120 -36q-46 -37 -46 -99q0 -59 47 -98zM528 852q56 41 56 106q0 63 -55 104q-53 40 -142 40t-141 -40q-53 -41 -53 -104q0 -66 54 -106q55 -41 140 -41t141 41z" />
    <glyph glyph-name="uni2079" unicode="&#x2079;" 
d="M617 1464q83 -112 83 -323q0 -210 -85 -323t-236 -113q-111 0 -190 55t-103 149l131 39q7 -61 52 -99q44 -38 110 -38q94 0 145 85q51 86 51 243q0 37 -4 92q-15 -101 -76 -156q-63 -57 -161 -57q-117 0 -189 75q-71 74 -71 199q0 127 84 205t219 78q157 0 240 -111z
M559 1286l-6 4q0 81 -49 130q-50 50 -127 50q-82 0 -130 -49t-48 -131q0 -84 47 -131t129 -47q84 0 131 48q47 49 47 130z" />
    <glyph glyph-name="uni2080" unicode="&#x2080;" 
d="M152 -95q-86 116 -86 320q0 203 86 319q85 115 237 115q150 0 235 -115t85 -319q0 -203 -85 -319q-86 -117 -235 -117q-151 0 -237 116zM534 -17q52 86 52 242q0 155 -52 240q-53 86 -145 86q-93 0 -146 -86t-53 -240q0 -157 53 -243t146 -86t145 87z" />
    <glyph glyph-name="uni2081" unicode="&#x2081;" 
d="M469 -90h252v-107h-666v107h293v635q-39 -291 -293 -291v139q232 0 299 250h115v-733z" />
    <glyph glyph-name="uni2082" unicode="&#x2082;" 
d="M556 120q-131 -126 -382 -210h508v-107h-606v97q235 114 361 241t126 248q0 75 -49 118q-50 44 -129 44q-82 0 -129 -47t-47 -131q0 -21 2 -41l-135 39q-8 130 79 209q86 79 230 79q135 0 218 -72t83 -192q0 -149 -130 -275z" />
    <glyph glyph-name="uni2083" unicode="&#x2083;" 
d="M637 190q63 -62 63 -159q0 -109 -85 -175q-87 -67 -224 -67q-142 0 -230 65t-98 171l134 41q1 -83 53 -127q50 -43 141 -43q85 0 133 39q49 40 49 106q0 65 -55 104q-56 39 -147 39h-88v90h88q77 0 129 41q51 41 51 103q0 58 -45 96q-44 37 -115 37q-77 0 -124 -45
q-46 -45 -48 -125l-131 39q7 108 92 174q83 65 211 65q126 0 205 -61q80 -62 80 -158q0 -151 -217 -172q115 -17 178 -78z" />
    <glyph glyph-name="uni2084" unicode="&#x2084;" 
d="M731 102v-106h-131v-193h-123v193h-430v96q125 99 182 229q56 129 56 322h139q0 -181 -85 -324q-86 -144 -230 -217h368v213h123v-213h131z" />
    <glyph glyph-name="uni2085" unicode="&#x2085;" 
d="M635 281q72 -77 72 -201q0 -132 -83 -212q-82 -79 -221 -79q-133 0 -220 69q-86 69 -91 183l133 39q-2 -83 46 -133q48 -51 132 -51q83 0 129 49q48 51 48 135t-46 133t-126 49q-61 0 -106 -23q-47 -24 -71 -63l-116 45l22 422h535v-106h-418l-21 -318q29 64 89 102
q55 35 127 35q115 0 186 -75z" />
    <glyph glyph-name="uni2086" unicode="&#x2086;" 
d="M631 272q71 -75 71 -196q0 -128 -82 -207q-83 -80 -221 -80q-157 0 -240 112t-83 326q0 205 86 320t237 115q108 0 187 -56q77 -55 104 -149l-131 -39q-7 59 -52 98q-43 37 -108 37q-96 0 -147 -85q-51 -86 -51 -241q0 -39 4 -90q15 98 77 154q63 57 160 57
q117 0 189 -76zM530 -55q50 50 50 131q0 83 -49 132q-48 48 -130 48q-83 0 -129 -48q-47 -49 -47 -132q0 -81 48 -130q48 -50 126 -50q82 0 131 49z" />
    <glyph glyph-name="uni2087" unicode="&#x2087;" 
d="M31 643h704v-94q-191 -127 -273 -291q-83 -164 -83 -416v-39h-137v39q0 254 104 420q105 168 326 275h-641v106z" />
    <glyph glyph-name="uni2088" unicode="&#x2088;" 
d="M644 191q63 -63 63 -152q0 -110 -90 -180t-230 -70q-141 0 -230 71t-89 179q0 90 62 152q63 63 171 81q-97 12 -151 58t-54 119q0 91 82 151q81 59 209 59q129 0 211 -58t82 -152q0 -74 -53 -119q-54 -46 -154 -58q108 -18 171 -81zM268 317q45 -38 119 -38q75 0 120 38
q46 39 46 99q0 61 -46 98t-120 37t-120 -37t-46 -98q0 -60 47 -99zM528 -63q56 41 56 106q0 62 -55 103q-53 40 -142 40t-141 -40q-53 -41 -53 -103q0 -65 54 -106q55 -41 140 -41t141 41z" />
    <glyph glyph-name="uni2089" unicode="&#x2089;" 
d="M617 549q83 -112 83 -324q0 -209 -85 -322q-85 -114 -236 -114q-111 0 -190 55t-103 150l131 39q8 -62 52 -100q43 -37 110 -37q94 0 145 85t51 242q0 37 -4 92q-15 -100 -76 -155q-64 -58 -161 -58q-117 0 -189 75q-71 74 -71 200q0 127 84 205q83 77 219 77
q158 0 240 -110zM559 371l-6 4q0 81 -49 130q-50 50 -127 50q-82 0 -130 -49q-48 -50 -48 -131q0 -84 47 -131t129 -47q84 0 131 48q47 49 47 130z" />
    <glyph glyph-name="Euro" unicode="&#x20ac;" horiz-adv-x="1249" 
d="M892 200q74 110 79 306l137 -41q-18 -232 -129 -361t-291 -129q-188 0 -311 146q-124 146 -152 401h-162v99h156q-2 24 -2 55q0 37 2 65h-156v99h164q30 249 153 394q121 142 308 142q180 0 291 -129t129 -360l-137 -41q-4 196 -78 307q-73 111 -203 111
q-129 0 -216 -113q-87 -112 -114 -311h394v-99h-402q-2 -28 -2 -65q0 -31 2 -55h402v-99h-396q27 -200 114 -317t214 -117q130 0 206 112z" />
    <glyph glyph-name="uni20BA" unicode="&#x20ba;" horiz-adv-x="1148" 
d="M1069 389q-40 -184 -172 -287q-131 -102 -324 -102h-294v565l-216 -96v109l216 94v121l-216 -95v109l216 94v451h124v-396l457 203v-108l-457 -203v-121l457 203v-107l-457 -202v-504h170q153 0 251 81q98 82 122 230z" />
    <glyph glyph-name="uni20BD" unicode="&#x20bd;" horiz-adv-x="1187" 
d="M365 526v-123h436v-98h-436v-305h-125v305h-177v98h177v123h-177v99h177v727h362q220 2 339 -105q118 -106 118 -307q0 -203 -118 -308q-120 -106 -339 -106h-237zM365 1235v-610h229q169 0 250 75q82 76 82 230q0 153 -82 229t-250 76h-229z" />
    <glyph glyph-name="uni20BF" unicode="&#x20bf;" horiz-adv-x="1261" 
d="M1024 117q-95 -98 -266 -115v-197h-99v195h-131v-195h-98v195h-184v1352h184v194h98v-194h131v194h99v-200q155 -21 237 -106t82 -224q0 -128 -72 -200t-210 -83q154 -22 240 -117q85 -94 85 -245q0 -155 -96 -254zM371 1235v-496h282q148 0 221 62q72 61 72 186
q0 128 -72 188t-221 60h-282zM690 117q143 0 221 66t78 190t-77 190q-76 66 -222 66h-319v-512h319z" />
    <glyph glyph-name="uni2113" unicode="&#x2113;" horiz-adv-x="978" 
d="M697 105q44 18 75 49l25 -129q-38 -23 -89 -36q-54 -14 -106 -14q-159 0 -258 111q-98 110 -131 322l-143 -82l-50 86l183 106q-2 38 -2 88q0 227 55 401q55 173 155 272q98 97 228 97q111 0 178 -69q68 -70 68 -185q0 -158 -130 -318q-131 -161 -370 -300l-47 -27
q17 -189 85 -289q69 -100 181 -100q52 0 93 17zM482 1175q-66 -85 -108 -244q-40 -153 -40 -339v-2l2 2q192 114 305 254t113 264q0 70 -33 112t-88 42q-82 0 -151 -89z" />
    <glyph glyph-name="uni2116" unicode="&#x2116;" horiz-adv-x="1921" 
d="M1290 716q-78 102 -78 279t78 279t221 102q144 0 223 -101q78 -100 78 -278q0 -180 -77 -281q-78 -102 -224 -102q-143 0 -221 102zM389 1352l582 -1192v1192h123v-1352h-183l-581 1190v-1190h-123v1352h182zM1384 1196q-45 -72 -45 -199t46 -201q46 -75 128 -75
q79 0 126 75q47 76 47 201t-46 199q-45 72 -127 72q-84 0 -129 -72zM1786 436h-547v96h547v-96z" />
    <glyph glyph-name="trademark" unicode="&#x2122;" horiz-adv-x="987" 
d="M150 1286h-138v66h353v-66h-138v-360h-77v360zM670 999l137 353h102v-426h-71v303l-119 -303h-98l-115 297v-297h-76v426h102z" />
    <glyph glyph-name="uni2126" unicode="&#x2126;" horiz-adv-x="1302" 
d="M1091 338q-76 -154 -217 -221h269v-117h-414v96q136 28 221 190q84 161 84 398q0 171 -47 304q-46 131 -134 204q-87 72 -202 72q-114 0 -201 -72q-89 -74 -135 -204q-47 -133 -47 -304q0 -235 84 -397q84 -163 223 -191v-96h-415v117h268q-140 66 -216 221
q-77 157 -77 377q0 194 65 345q65 152 182 233q119 83 269 83q151 0 270 -83q117 -81 182 -233q64 -149 64 -345q0 -222 -76 -377z" />
    <glyph glyph-name="estimated" unicode="&#x212e;" horiz-adv-x="1816" 
d="M467 254q83 -88 199 -138q115 -50 243 -50q174 0 317 88q144 89 222 235h100q-84 -186 -257 -300t-382 -114q-189 0 -352 95q-161 94 -256 255q-94 160 -94 351t94 351q95 161 256 255t352 94q192 0 352 -94q161 -94 255 -255q94 -160 94 -351v-37h-1143v-385zM666 1236
q-116 -50 -199 -138v-369h883v369q-83 88 -199 138q-115 50 -242 50q-128 0 -243 -50z" />
    <glyph glyph-name="arrowleft" unicode="&#x2190;" horiz-adv-x="1810" 
d="M1583 731v-110h-1245q204 -50 337 -168q134 -119 218 -328l-133 -25q-79 199 -202 322q-121 121 -331 207v94q212 90 334 210q121 119 199 318l135 -26q-79 -200 -214 -320q-133 -118 -343 -174h1245z" />
    <glyph glyph-name="arrowup" unicode="&#x2191;" horiz-adv-x="1810" 
d="M952 1354q85 -208 206 -330q118 -119 323 -203l-25 -133q-209 84 -328 218q-117 132 -167 339v-1247h-111v1247q-56 -211 -174 -345q-119 -134 -320 -212l-26 133q199 78 318 199q120 122 210 334h94z" />
    <glyph glyph-name="arrowright" unicode="&#x2192;" horiz-adv-x="1810" 
d="M1051 1251q79 -200 198 -318q122 -120 334 -210v-94q-210 -86 -331 -207q-122 -122 -201 -322l-133 25q84 209 218 328q133 118 337 168h-1246v110h1246q-211 56 -344 174q-135 120 -214 320z" />
    <glyph glyph-name="arrowdown" unicode="&#x2193;" horiz-adv-x="1810" 
d="M1481 532q-202 -80 -319 -198q-120 -122 -210 -334h-94q-85 208 -206 330q-117 118 -322 202l24 134q208 -84 328 -219q119 -134 168 -338v1247h111v-1247q55 211 174 345q119 135 319 212z" />
    <glyph glyph-name="arrowboth" unicode="&#x2194;" horiz-adv-x="2631" 
d="M1872 1251q78 -199 199 -318q123 -121 333 -210v-94q-206 -84 -329 -206q-119 -118 -203 -323l-133 25q84 209 218 328q133 119 339 168h-1960q206 -49 339 -168q134 -119 218 -328l-133 -25q-84 205 -203 323q-122 121 -330 206v94q212 90 334 210q121 119 199 318
l133 -26q-78 -201 -212 -320q-133 -119 -345 -174h1960q-209 56 -344 174q-135 119 -215 320z" />
    <glyph glyph-name="arrowupdn" unicode="&#x2195;" horiz-adv-x="1810" 
d="M1135 148q119 135 319 212l27 -133q-202 -80 -319 -198q-120 -122 -210 -334h-94q-85 208 -206 330q-117 118 -322 202l24 133q209 -84 328 -218q118 -134 168 -339v1745q-50 -204 -168 -337q-119 -134 -328 -218l-24 133q197 78 321 202q121 121 207 331h94
q90 -212 210 -334q119 -120 319 -199l-27 -135q-199 79 -319 214q-118 133 -174 343v-1745q55 211 174 345z" />
    <glyph glyph-name="uni2196" unicode="&#x2196;" horiz-adv-x="1810" 
d="M1421 238l-78 -78l-880 880q121 -197 121 -397q0 -160 -78 -346l-113 78q86 198 86 366q0 171 -88 383l68 66q216 -86 387 -86q173 0 362 84l76 -113q-180 -78 -338 -78q-199 0 -405 121z" />
    <glyph glyph-name="uni2197" unicode="&#x2197;" horiz-adv-x="1810" 
d="M1421 1124q-88 -216 -88 -385q0 -172 84 -364l-110 -78q-78 186 -78 346q0 200 121 397l-881 -880l-78 78l881 880q-211 -121 -408 -121q-158 0 -338 78l78 113q189 -84 363 -84q171 0 387 86z" />
    <glyph glyph-name="uni2198" unicode="&#x2198;" horiz-adv-x="1810" 
d="M1417 977q-84 -189 -84 -363q0 -171 86 -387l-65 -67q-216 88 -385 88q-173 0 -365 -84l-78 110q186 78 346 78q201 0 398 -121l-881 881l78 78l881 -881q-121 211 -121 408q0 158 78 338z" />
    <glyph glyph-name="uni2199" unicode="&#x2199;" horiz-adv-x="1810" 
d="M541 233q200 121 399 121q158 0 344 -78l-78 -112q-198 86 -368 86q-169 0 -381 -88l-66 65q86 220 86 389q0 172 -84 361l113 78q78 -180 78 -338q0 -200 -121 -406l880 881l78 -78z" />
    <glyph glyph-name="partialdiff" unicode="&#x2202;" horiz-adv-x="1048" 
d="M823 1203q109 -174 109 -525q0 -703 -424 -703q-185 0 -293 121q-109 123 -109 328q0 128 46 231q45 101 126 156q80 55 187 55q134 0 220 -85q88 -86 110 -232q6 72 6 147q0 291 -78 429q-79 139 -242 139q-132 0 -272 -95l24 144q124 63 259 63q223 0 331 -173z
M696 179q74 92 74 243q0 156 -70 246q-69 88 -196 88q-126 0 -195 -86q-69 -85 -69 -244q0 -158 69 -248t191 -90q123 0 196 91z" />
    <glyph glyph-name="uni2206" unicode="&#x2206;" horiz-adv-x="1110" 
d="M465 1352h182l367 -1235v-117h-918v117zM887 117l-330 1114l-334 -1114h664z" />
    <glyph glyph-name="product" unicode="&#x220f;" horiz-adv-x="1300" 
d="M1235 1434v-117h-268v-1583h-127v1583h-377v-1583h-127v1583h-273v117h1172z" />
    <glyph glyph-name="summation" unicode="&#x2211;" horiz-adv-x="1071" 
d="M700 508l-374 -637h567v-117h-713v117l430 723l-430 723v117h711v-117h-565l374 -639v-170z" />
    <glyph glyph-name="minus" unicode="&#x2212;" horiz-adv-x="1060" 
d="M96 618v115h869v-115h-869z" />
    <glyph glyph-name="uni2219" unicode="&#x2219;" horiz-adv-x="1060" 
d="M467 784h129v-217h-129v217z" />
    <glyph glyph-name="radical" unicode="&#x221a;" horiz-adv-x="1427" 
d="M911 1434h451v-117h-356l-500 -1604h-180l-252 787h131l211 -680z" />
    <glyph glyph-name="infinity" unicode="&#x221e;" horiz-adv-x="1447" 
d="M1258 994q81 -114 81 -318q0 -206 -81 -321t-226 -115q-119 0 -201 85t-106 232q-24 -146 -105 -232q-81 -85 -202 -85q-146 0 -228 115q-81 113 -81 321q0 205 81 317q83 115 228 115q121 0 202 -84t105 -229q23 146 104 229q83 84 203 84q145 0 226 -114zM593 420
q61 78 116 256q-55 180 -116 254q-60 74 -151 74q-206 0 -206 -328q0 -332 206 -332q91 0 151 76zM1212 676q0 328 -206 328q-90 0 -150 -74q-59 -72 -115 -254q55 -182 115 -257t150 -75q206 0 206 332z" />
    <glyph glyph-name="integral" unicode="&#x222b;" horiz-adv-x="1085" 
d="M43 -262q53 -60 145 -60q87 0 134 64q46 63 69 209l178 1147q28 185 106 273q77 87 212 87q94 0 178 -45l-23 -127q-56 60 -147 60q-101 0 -141 -69q-41 -70 -62 -202l-176 -1147q-55 -362 -319 -362q-101 0 -177 43z" />
    <glyph glyph-name="approxequal" unicode="&#x2248;" horiz-adv-x="1060" 
d="M88 764q17 103 84 164t164 61q61 0 106 -19q50 -21 80 -40q37 -24 43 -27q61 -38 93 -52q34 -15 67 -15q56 0 90 37q35 38 41 104l119 -21q-15 -101 -84 -164t-170 -63q-60 0 -109 22q-47 21 -112 64q-54 35 -92 52q-37 16 -70 16q-52 0 -90 -38q-36 -36 -41 -102z
M88 401q17 103 84 164q68 62 164 62q58 0 106 -20q50 -21 80 -40q22 -14 43 -26q66 -41 93 -53q34 -15 67 -15q55 0 90 38t41 103l119 -20q-15 -102 -84 -165q-68 -62 -170 -62q-63 0 -109 21q-43 19 -112 65q-54 35 -92 52q-34 15 -70 15q-52 0 -90 -38q-36 -36 -41 -101z
" />
    <glyph glyph-name="notequal" unicode="&#x2260;" horiz-adv-x="1060" 
d="M942 899v-117h-295l-119 -213h414v-116h-479l-113 -199h-112l110 199h-229v116h295l121 213h-416v117h481l111 199h114l-112 -199h229z" />
    <glyph glyph-name="lessequal" unicode="&#x2264;" horiz-adv-x="1060" 
d="M158 854l745 195v-117l-581 -152l581 -151v-117l-745 195v147zM903 297h-745v117h745v-117z" />
    <glyph glyph-name="greaterequal" unicode="&#x2265;" horiz-adv-x="1060" 
d="M158 932v117l745 -195v-147l-745 -195v117l581 151zM903 297h-745v117h745v-117z" />
    <glyph glyph-name="uni2460" unicode="&#x2460;" horiz-adv-x="1957" 
d="M1417 1435q202 -119 320 -319t118 -438q0 -243 -117 -441q-119 -201 -320 -320q-200 -118 -437 -118q-241 0 -441 118q-201 119 -320 320q-118 200 -118 441q0 238 118 438t320 319q198 117 441 117q238 0 436 -117zM1367 3q179 106 285 285q105 178 105 390
q0 208 -105 387q-105 178 -285 284q-179 105 -386 105q-211 0 -390 -105q-180 -106 -285 -284q-105 -179 -105 -387q0 -212 105 -390q106 -179 285 -285q179 -105 390 -105q207 0 386 105zM684 844q110 0 189 66t108 184h115v-838h-121v739q-18 -142 -94 -216
q-75 -74 -197 -74v139z" />
    <glyph glyph-name="uni2461" unicode="&#x2461;" horiz-adv-x="1957" 
d="M1417 1435q202 -119 320 -319t118 -438q0 -243 -117 -441q-119 -201 -320 -320q-200 -118 -437 -118q-241 0 -441 118q-201 119 -320 320q-118 200 -118 441q0 238 118 438t320 319q198 117 441 117q238 0 436 -117zM1367 3q179 106 285 285q105 178 105 390
q0 208 -105 387q-105 178 -285 284q-179 105 -386 105q-211 0 -390 -105q-180 -106 -285 -284q-105 -179 -105 -387q0 -212 105 -390q106 -179 285 -285q179 -105 390 -105q207 0 386 105zM1124 571q-123 -123 -362 -208h481v-107h-579v96q221 113 341 240q119 126 119 248
q0 74 -45 117q-46 44 -118 44q-79 0 -122 -48q-44 -49 -44 -130q0 -21 2 -41l-135 39q-6 130 76 209q83 80 223 80q128 0 209 -73q79 -72 79 -191q0 -150 -125 -275z" />
    <glyph glyph-name="uni2462" unicode="&#x2462;" horiz-adv-x="1957" 
d="M1418 -83q201 119 320 320q117 198 117 441q0 238 -118 438t-320 319q-198 117 -436 117q-243 0 -441 -117q-202 -119 -320 -319t-118 -438q0 -241 118 -441q119 -201 320 -320q200 -118 441 -118q237 0 437 118zM591 3q-179 106 -285 285q-105 178 -105 390
q0 208 105 387q105 178 285 284q179 105 390 105q207 0 386 -105q180 -106 285 -284q105 -179 105 -387q0 -212 -105 -390q-106 -179 -285 -285q-179 -105 -386 -105q-211 0 -390 105zM774 516q1 -81 52 -125q49 -43 137 -43q83 0 129 39q47 39 47 105q0 64 -54 104
q-53 39 -143 39h-86v90h86q75 0 125 41q49 40 49 102q0 60 -43 97q-42 36 -110 36q-74 0 -119 -45q-46 -46 -47 -125l-131 39q11 108 91 174q81 66 206 66q120 0 199 -61t79 -158q0 -151 -211 -172q112 -17 174 -78q62 -62 62 -160q0 -108 -84 -174q-83 -65 -219 -65
q-139 0 -224 64q-86 65 -96 169z" />
    <glyph glyph-name="uni2463" unicode="&#x2463;" horiz-adv-x="1957" 
d="M1418 -83q201 119 320 320q117 198 117 441q0 238 -118 438t-320 319q-198 117 -436 117q-243 0 -441 -117q-202 -119 -320 -319t-118 -438q0 -241 118 -441q119 -201 320 -320q200 -118 441 -118q237 0 437 118zM591 3q-179 106 -285 285q-105 178 -105 390
q0 208 105 387q105 178 285 284q179 105 390 105q207 0 386 -105q180 -106 285 -284q105 -179 105 -387q0 -212 -105 -390q-106 -179 -285 -285q-179 -105 -386 -105q-211 0 -390 105zM1061 256v190h-420v97q123 102 177 230q54 127 54 321h140q0 -180 -84 -323
q-83 -140 -226 -218h359v213h123v-213h127v-107h-127v-190h-123z" />
    <glyph glyph-name="uni2464" unicode="&#x2464;" horiz-adv-x="1957" 
d="M1418 -83q201 119 320 320q117 198 117 441q0 238 -118 438t-320 319q-198 117 -436 117q-243 0 -441 -117q-202 -119 -320 -319t-118 -438q0 -241 118 -441q119 -201 320 -320q200 -118 441 -118q237 0 437 118zM591 3q-179 106 -285 285q-105 178 -105 390
q0 208 105 387q105 178 285 284q179 105 390 105q207 0 386 -105q180 -106 285 -284q105 -179 105 -387q0 -212 -105 -390q-106 -179 -285 -285q-179 -105 -386 -105q-211 0 -390 105zM750 310q-87 70 -91 182l136 38q-4 -79 44 -131q48 -51 130 -51q83 0 129 49
q47 50 47 133q0 88 -46 135q-47 48 -126 48q-61 0 -104 -24q-45 -25 -68 -62l-119 45l23 422h532v-107h-414l-20 -315q29 63 85 99q57 36 128 36q115 0 185 -76q71 -77 71 -201q0 -129 -83 -209q-82 -79 -220 -79q-135 0 -219 68z" />
    <glyph glyph-name="uni2465" unicode="&#x2465;" horiz-adv-x="1957" 
d="M1418 -83q201 119 320 320q117 198 117 441q0 238 -118 438t-320 319q-198 117 -436 117q-243 0 -441 -117q-202 -119 -320 -319t-118 -438q0 -241 118 -441q119 -201 320 -320q200 -118 441 -118q237 0 437 118zM591 3q-179 106 -285 285q-105 178 -105 390
q0 208 105 387q105 178 285 284q179 105 390 105q207 0 386 -105q180 -106 285 -284q105 -179 105 -387q0 -212 -105 -390q-106 -179 -285 -285q-179 -105 -386 -105q-211 0 -390 105zM741 351q-82 110 -82 325q0 206 84 320t236 114q109 0 186 -55q79 -56 103 -148
l-131 -39q-7 60 -52 98q-44 38 -106 38q-95 0 -144 -84q-51 -87 -51 -242q0 -41 7 -92q10 98 73 155q64 58 160 58q114 0 186 -75t72 -200q0 -126 -84 -206q-82 -78 -217 -78q-157 0 -240 111zM1108 395q47 50 47 131q0 83 -46 130q-47 49 -126 49q-80 0 -128 -48
q-46 -46 -46 -131q0 -80 48 -130t124 -50q81 0 127 49z" />
    <glyph glyph-name="uni2466" unicode="&#x2466;" horiz-adv-x="1957" 
d="M1417 1435q202 -119 320 -319t118 -438q0 -243 -117 -441q-119 -201 -320 -320q-200 -118 -437 -118q-241 0 -441 118q-201 119 -320 320q-118 200 -118 441q0 238 118 438t320 319q198 117 441 117q238 0 436 -117zM1367 3q179 106 285 285q105 178 105 390
q0 208 -105 387q-105 178 -285 284q-179 105 -386 105q-211 0 -390 -105q-180 -106 -285 -284q-105 -179 -105 -387q0 -212 105 -390q106 -179 285 -285q179 -105 390 -105q207 0 386 105zM631 987v107h645v-95q-173 -128 -246 -290q-74 -165 -74 -414v-39h-139v39
q0 251 97 418q97 168 298 274h-581z" />
    <glyph glyph-name="uni2467" unicode="&#x2467;" horiz-adv-x="1957" 
d="M1418 -83q201 119 320 320q117 198 117 441q0 238 -118 438t-320 319q-198 117 -436 117q-243 0 -441 -117q-202 -119 -320 -319t-118 -438q0 -241 118 -441q119 -201 320 -320q200 -118 441 -118q237 0 437 118zM591 3q-179 106 -285 285q-105 178 -105 390
q0 208 105 387q105 178 285 284q179 105 390 105q207 0 386 -105q180 -106 285 -284q105 -179 105 -387q0 -212 -105 -390q-106 -179 -285 -285q-179 -105 -386 -105q-211 0 -390 105zM709 643q64 62 174 80q-104 12 -156 57q-53 45 -53 119q0 95 82 153t211 58
q130 0 210 -58t80 -153q0 -74 -53 -119q-52 -45 -155 -57q110 -18 174 -80q63 -61 63 -154q0 -109 -89 -178t-230 -69q-145 0 -233 69q-89 69 -89 178q0 92 64 154zM846 768q46 -39 121 -39q71 0 117 39t46 98q0 62 -45 99q-43 36 -118 36q-77 0 -122 -36q-46 -37 -46 -99
q0 -59 47 -98zM824 388q53 -40 143 -40q85 0 140 41q54 41 54 105q0 62 -54 103q-53 40 -140 40q-90 0 -143 -40q-54 -41 -54 -103q0 -66 54 -106z" />
    <glyph glyph-name="uni2468" unicode="&#x2468;" horiz-adv-x="1957" 
d="M1418 -83q201 119 320 320q117 198 117 441q0 238 -118 438t-320 319q-198 117 -436 117q-243 0 -441 -117q-202 -119 -320 -319t-118 -438q0 -241 118 -441q119 -201 320 -320q200 -118 441 -118q237 0 437 118zM591 3q-179 106 -285 285q-105 178 -105 390
q0 208 105 387q105 178 285 284q179 105 390 105q207 0 386 -105q180 -106 285 -284q105 -179 105 -387q0 -212 -105 -390q-106 -179 -285 -285q-179 -105 -386 -105q-211 0 -390 105zM1194 999q82 -110 82 -325q0 -206 -84 -320t-236 -114q-109 0 -186 55q-78 55 -102 147
l131 39q7 -58 51 -96q43 -37 106 -37q94 0 144 84q49 83 49 242q0 43 -4 90q-12 -97 -75 -154t-159 -57q-114 0 -186 75t-72 197q0 127 84 206q83 79 217 79q158 0 240 -111zM827 955q-47 -49 -47 -130q0 -85 46 -132q46 -48 126 -48q82 0 128 48q46 47 46 132q0 79 -47 129
t-125 50q-80 0 -127 -49z" />
    <glyph glyph-name="uni24EA" unicode="&#x24ea;" horiz-adv-x="1957" 
d="M1418 -83q201 119 320 320q117 198 117 441q0 238 -118 438t-320 319q-198 117 -436 117q-243 0 -441 -117q-202 -119 -320 -319t-118 -438q0 -241 118 -441q119 -201 320 -320q200 -118 441 -118q237 0 437 118zM591 3q-179 106 -285 285q-105 178 -105 390
q0 208 105 387q105 178 285 284q179 105 390 105q207 0 386 -105q180 -106 285 -284q105 -179 105 -387q0 -212 -105 -390q-106 -179 -285 -285q-179 -105 -386 -105q-211 0 -390 105zM737 356q-88 113 -88 320q0 203 88 318q89 116 242 116q156 0 243 -116t87 -318
q0 -204 -87 -319t-243 -115q-153 0 -242 114zM1129 434q55 87 55 242q0 153 -55 240q-54 85 -150 85q-97 0 -151 -85q-54 -86 -54 -240q0 -156 54 -242t151 -86q96 0 150 86z" />
    <glyph glyph-name="uni24FF" unicode="&#x24ff;" horiz-adv-x="1957" 
d="M1418 -83q201 119 320 320q117 198 117 441q0 238 -118 438t-320 319q-198 117 -436 117q-243 0 -441 -117q-202 -119 -320 -319t-118 -438q0 -241 118 -441q119 -201 320 -320q200 -118 441 -118q237 0 437 118zM737 356q-88 113 -88 320q0 203 88 318q89 116 242 116
q156 0 243 -116t87 -318q0 -204 -87 -319t-243 -115q-153 0 -242 114zM1129 434q55 87 55 242q0 153 -55 240q-54 85 -150 85q-97 0 -151 -85q-54 -86 -54 -240q0 -156 54 -242t151 -86q96 0 150 86z" />
    <glyph glyph-name="triagup" unicode="&#x25b2;" horiz-adv-x="1816" 
d="M909 1370l836 -1370h-1671z" />
    <glyph glyph-name="uni25B3" unicode="&#x25b3;" horiz-adv-x="1816" 
d="M909 1372l836 -1372h-1671zM248 98h1323l-662 1088z" />
    <glyph glyph-name="uni25B6" unicode="&#x25b6;" horiz-adv-x="1816" 
d="M285 -160v1671l1370 -835z" />
    <glyph glyph-name="uni25B7" unicode="&#x25b7;" horiz-adv-x="1816" 
d="M285 -160v1671l1372 -835zM1470 676l-1087 661v-1323z" />
    <glyph glyph-name="triagdn" unicode="&#x25bc;" horiz-adv-x="1816" 
d="M74 1352h1671l-836 -1370z" />
    <glyph glyph-name="uni25BD" unicode="&#x25bd;" horiz-adv-x="1816" 
d="M74 1352h1671l-836 -1372zM909 166l662 1087h-1323z" />
    <glyph glyph-name="uni25C0" unicode="&#x25c0;" horiz-adv-x="1816" 
d="M1532 1513v-1671l-1370 836z" />
    <glyph glyph-name="uni25C1" unicode="&#x25c1;" horiz-adv-x="1816" 
d="M1534 1513v-1671l-1372 836zM348 678l1088 -662v1323z" />
    <glyph glyph-name="lozenge" unicode="&#x25ca;" horiz-adv-x="1816" 
d="M907 -160l-833 836l835 835l834 -835zM909 1374l-700 -698l698 -699l701 699z" />
    <glyph glyph-name="uni25E7" unicode="&#x25e7;" horiz-adv-x="1816" 
d="M174 -57v1466h1468v-1466h-1468zM909 39h637v1274h-637v-1274z" />
    <glyph glyph-name="uni25E8" unicode="&#x25e8;" horiz-adv-x="1816" 
d="M174 -57v1466h1468v-1466h-1468zM907 1313h-637v-1274h637v1274z" />
    <glyph glyph-name="uni25E9" unicode="&#x25e9;" horiz-adv-x="1816" 
d="M1642 -57h-1468v1466h1468v-1466zM1546 1313l-1276 -1274h1276v1274z" />
    <glyph glyph-name="uni25EA" unicode="&#x25ea;" horiz-adv-x="1816" 
d="M174 1409h1468v-1466h-1468v1466zM270 39l1276 1274h-1276v-1274z" />
    <glyph glyph-name="uni2600" unicode="&#x2600;" horiz-adv-x="1816" 
d="M537 647q31 -2 50 -22t19 -47q0 -39 -35 -62l-407 -268l438 217q18 8 35 8q29 0 49 -20q21 -21 21 -50q0 -14 -9 -34l-219 -437l271 408q24 33 61 33q25 0 47 -19q22 -18 23 -51l28 -487l31 485q1 32 23 52t47 20q37 0 61 -35l268 -408l-219 439q-8 18 -8 34q0 29 21 49
q20 19 47 19q16 0 34 -8l441 -217l-410 270q-35 24 -35 62q0 25 20 47q19 20 50 22l489 29l-489 29q-31 2 -49 23q-19 22 -19 48q0 36 33 60l410 270l-438 -217q-18 -8 -35 -8q-27 0 -47 20q-21 21 -21 47q0 17 8 35l217 438l-268 -407q-24 -35 -61 -35q-27 0 -47 19
q-21 20 -23 53l-31 485l-28 -485q-2 -34 -23 -52t-47 -18q-38 0 -61 35l-269 407l217 -440q9 -20 9 -33q0 -28 -21 -49q-20 -20 -49 -20q-17 0 -35 8l-436 219l405 -270q35 -23 35 -62q0 -27 -19 -47t-50 -22l-488 -29z" />
    <glyph glyph-name="sun" unicode="&#x263c;" horiz-adv-x="1816" 
d="M537 647q31 -2 50 -22t19 -47q0 -39 -35 -62l-407 -268l440 217q18 8 35 8q29 0 48 -20q20 -22 20 -50q0 -14 -9 -34l-219 -437l271 408q24 35 61 35q25 0 47 -20t23 -52l28 -487l31 485q1 32 23 52t47 20q38 0 61 -35l268 -408l-219 439q-8 18 -8 34q0 29 21 49
q20 19 47 19q16 0 34 -8l441 -217l-410 270q-35 23 -35 62q0 25 20 47q19 20 50 22l489 29l-487 29q-32 1 -52 23t-20 48q0 37 35 60l410 270l-438 -217q-18 -8 -35 -8q-27 0 -47 20q-21 21 -21 47q0 17 8 35l217 438l-268 -407q-23 -35 -61 -35q-27 0 -47 19q-21 20 -23 53
l-31 485l-28 -485q-2 -34 -23 -52t-47 -18q-38 0 -61 35l-269 407l217 -440q9 -20 9 -35q0 -28 -21 -48q-20 -19 -49 -19q-17 0 -35 8l-436 219l405 -270q35 -23 35 -62q0 -27 -19 -47t-50 -22l-488 -29zM749 515q-67 67 -67 161t67 161q66 66 160 66q95 0 161 -66
q67 -67 67 -161t-67 -161q-66 -66 -161 -66q-94 0 -160 66z" />
    <glyph glyph-name="uni263D" unicode="&#x263d;" horiz-adv-x="1816" 
d="M398 176q147 -84 321 -84q183 0 337 91q153 91 244 245q91 155 91 336q0 168 -79 313q-80 147 -215 240q-137 95 -300 113q40 4 71 4q203 0 379 -103q175 -103 277 -275t102 -378q0 -205 -102 -380t-277 -278q-174 -102 -379 -102q-157 0 -299 62t-246 172
q-107 113 -161 251q90 -143 236 -227z" />
    <glyph glyph-name="uni2661" unicode="&#x2661;" horiz-adv-x="1816" 
d="M1544 1376q97 -57 149 -162q52 -104 52 -241q0 -157 -78 -300q-77 -141 -257 -307q-178 -165 -501 -391q-319 223 -500 391q-180 166 -257 307q-78 143 -78 300q0 137 52 241q53 105 148 162q98 58 222 58q191 0 302 -126t111 -341q0 214 112 341q111 126 302 126
q123 0 221 -58zM1355 446q158 145 225 269q67 125 67 258q0 167 -87 266q-86 98 -237 98q-176 0 -266 -137q-90 -136 -90 -403v-31h-115v31q0 267 -90 403q-90 137 -266 137q-151 0 -237 -98q-87 -99 -87 -266q0 -133 67 -258q67 -124 225 -269t445 -352q291 211 446 352z
" />
    <glyph glyph-name="heart" unicode="&#x2665;" horiz-adv-x="1816" 
d="M126 1214q53 105 148 162q98 58 222 58q191 0 302 -126t111 -341q0 214 112 341q111 126 302 126q123 0 221 -58q97 -57 149 -162q52 -104 52 -241q0 -157 -78 -300q-77 -141 -257 -307q-178 -165 -501 -391q-319 223 -500 391q-180 166 -257 307q-78 143 -78 300
q0 137 52 241z" />
    <glyph glyph-name="uni267B" unicode="&#x267b;" horiz-adv-x="1816" 
d="M918 1245l-256 -434l-91 49l289 492h115l334 -580q-35 87 -35 150q0 81 53 155l76 -61q-42 -50 -64 -106q-20 -50 -20 -115q0 -33 6 -74l-74 -43q-56 46 -107 66q-55 22 -114 22q-32 0 -69 -6l-19 98q16 2 35 2q75 0 132 -33q58 -34 112 -108zM248 102h508v-102h-572
l-59 100l342 580q-55 -68 -111 -99q-56 -32 -123 -32q-18 0 -38 2l16 94q37 -6 70 -6q59 0 113 21q53 21 112 67l74 -43q-7 -46 -7 -74q0 -113 80 -219l-73 -65q-58 79 -58 159q0 64 39 154zM1694 100l-60 -100h-667q101 -15 159 -53q61 -39 95 -117l-91 -33q-29 80 -79 129
q-50 48 -138 84v84q82 30 134 80q49 48 83 129l93 -31q-33 -77 -97 -119q-62 -41 -163 -51h612l-254 441l90 53z" />
    <glyph glyph-name="uni2713" unicode="&#x2713;" horiz-adv-x="1816" 
d="M788 162l832 1190l98 -66l-899 -1286l-721 502l68 96z" />
    <glyph glyph-name="uni2726" unicode="&#x2726;" horiz-adv-x="1816" 
d="M1667 676l-698 -58l-62 -700l-57 700l-698 58l698 61l57 697l60 -697z" />
    <glyph glyph-name="uni2728" unicode="&#x2728;" horiz-adv-x="1816" 
d="M166 1176q48 0 82 -32q33 -32 33 -83v-174h28v174q0 50 31 83q30 32 82 32h176v28h-176q-52 0 -82 32q-31 33 -31 81v176h-28v-176q0 -49 -32 -81t-83 -32h-174v-28h174zM952 866q103 0 174 -71q72 -72 72 -174v-351h29v351q0 103 70 174t171 71h357v29h-357
q-100 0 -171 71q-70 70 -70 173v354h-29v-354q0 -100 -72 -172t-174 -72h-352v-29h352zM420 246q64 0 111 -45t47 -111v-231h28v231q0 65 44 111q44 45 112 45h233v28h-233q-68 0 -112 45q-44 46 -44 113v234h-28v-234q0 -68 -47 -113t-111 -45h-232v-28h232z" />
    <glyph glyph-name="uni2734" unicode="&#x2734;" horiz-adv-x="1816" 
d="M1667 676l-633 -51l410 -486l-481 410l-56 -631l-51 633l-483 -412l409 486l-630 51l628 55l-407 479l483 -407l51 631l56 -629l483 407l-410 -481z" />
    <glyph glyph-name="uni2736" unicode="&#x2736;" horiz-adv-x="1816" 
d="M1567 1055l-549 -379l549 -379l-602 285l-58 -664l-53 664l-600 -285l545 379l-545 379l600 -285l53 664l58 -662z" />
    <glyph glyph-name="uni2747" unicode="&#x2747;" horiz-adv-x="1816" 
d="M621 659q76 0 136 -36q61 -36 99 -100q37 -62 37 -136v-387h29v387q0 76 36 136q37 63 100 100q60 36 136 36h391v29h-391q-74 0 -136 37q-64 38 -100 99q-36 60 -36 137v391h-29v-391q0 -75 -37 -137t-99 -99t-136 -37h-388v-29h388z" />
    <glyph glyph-name="uni274C" unicode="&#x274c;" horiz-adv-x="1816" 
d="M1497 1350l86 -84l-590 -590l590 -592l-82 -84l-592 592l-587 -588l-89 82l590 590l-592 590l84 86l592 -592z" />
    <glyph glyph-name="uni2776" unicode="&#x2776;" horiz-adv-x="1957" 
d="M1417 1435q202 -119 320 -319t118 -438q0 -243 -117 -441q-119 -201 -320 -320q-200 -118 -437 -118q-241 0 -441 118q-201 119 -320 320q-118 200 -118 441q0 238 118 438t320 319q198 117 441 117q238 0 436 -117zM1096 256v838h-115q-29 -118 -108 -184t-189 -66v-139
q122 0 197 74q76 74 94 216v-739h121z" />
    <glyph glyph-name="uni2777" unicode="&#x2777;" horiz-adv-x="1957" 
d="M1417 1435q202 -119 320 -319t118 -438q0 -243 -117 -441q-119 -201 -320 -320q-200 -118 -437 -118q-241 0 -441 118q-201 119 -320 320q-118 200 -118 441q0 238 118 438t320 319q198 117 441 117q238 0 436 -117zM1235 362h-481q235 83 361 209q124 124 124 275
q0 119 -79 191q-81 73 -210 73q-138 0 -221 -80q-82 -79 -76 -209l133 -39q-2 20 -2 39q0 84 45 132t121 48q73 0 120 -44q46 -43 46 -117q0 -121 -121 -248q-121 -128 -342 -240v-96h582v106z" />
    <glyph glyph-name="uni2778" unicode="&#x2778;" horiz-adv-x="1957" 
d="M1418 -83q201 119 320 320q117 198 117 441q0 238 -118 438t-320 319q-198 117 -436 117q-243 0 -441 -117q-202 -119 -320 -319t-118 -438q0 -241 118 -441q119 -201 320 -320q200 -118 441 -118q237 0 437 118zM774 516q1 -81 52 -125q49 -43 137 -43q83 0 129 39
q47 39 47 105q0 64 -54 104q-53 39 -143 39h-86v90h86q75 0 125 41q49 40 49 102q0 60 -43 97q-42 36 -110 36q-74 0 -119 -45q-46 -46 -47 -125l-131 39q11 108 91 174q81 66 206 66q120 0 199 -61t79 -158q0 -151 -211 -172q112 -17 174 -78q62 -62 62 -160
q0 -108 -84 -174q-83 -65 -219 -65q-139 0 -224 64q-86 65 -96 169z" />
    <glyph glyph-name="uni2779" unicode="&#x2779;" horiz-adv-x="1957" 
d="M1418 -83q201 119 320 320q117 198 117 441q0 238 -118 438t-320 319q-198 117 -436 117q-243 0 -441 -117q-202 -119 -320 -319t-118 -438q0 -241 118 -441q119 -201 320 -320q200 -118 441 -118q237 0 437 118zM1061 256v190h-420v97q123 102 177 230q54 127 54 321
h140q0 -180 -84 -323q-83 -140 -226 -218h359v213h123v-213h127v-107h-127v-190h-123z" />
    <glyph glyph-name="uni277A" unicode="&#x277a;" horiz-adv-x="1957" 
d="M1418 -83q201 119 320 320q117 198 117 441q0 238 -118 438t-320 319q-198 117 -436 117q-243 0 -441 -117q-202 -119 -320 -319t-118 -438q0 -241 118 -441q119 -201 320 -320q200 -118 441 -118q237 0 437 118zM750 310q-87 70 -91 182l136 38q-4 -79 44 -131
q48 -51 130 -51q83 0 129 49q47 50 47 133q0 88 -46 135q-47 48 -126 48q-61 0 -104 -24q-45 -25 -68 -62l-119 45l23 422h532v-107h-414l-20 -315q29 63 85 99q57 36 128 36q115 0 185 -76q71 -77 71 -201q0 -129 -83 -209q-82 -79 -220 -79q-135 0 -219 68z" />
    <glyph glyph-name="uni277B" unicode="&#x277b;" horiz-adv-x="1957" 
d="M1418 -83q201 119 320 320q117 198 117 441q0 238 -118 438t-320 319q-198 117 -436 117q-243 0 -441 -117q-202 -119 -320 -319t-118 -438q0 -241 118 -441q119 -201 320 -320q200 -118 441 -118q237 0 437 118zM741 351q-82 110 -82 325q0 206 84 320t236 114
q109 0 186 -55q79 -56 103 -148l-131 -39q-7 60 -52 98q-44 38 -106 38q-95 0 -144 -84q-51 -87 -51 -242q0 -41 7 -92q10 98 73 155q64 58 160 58q114 0 186 -75t72 -200q0 -126 -84 -206q-82 -78 -217 -78q-157 0 -240 111zM1108 395q47 50 47 131q0 83 -46 130
q-47 49 -126 49q-80 0 -128 -48q-46 -46 -46 -131q0 -80 48 -130t124 -50q81 0 127 49z" />
    <glyph glyph-name="uni277C" unicode="&#x277c;" horiz-adv-x="1957" 
d="M1417 1435q202 -119 320 -319t118 -438q0 -243 -117 -441q-119 -201 -320 -320q-200 -118 -437 -118q-241 0 -441 118q-201 119 -320 320q-118 200 -118 441q0 238 118 438t320 319q198 117 441 117q238 0 436 -117zM1276 1094h-645v-107h581q-201 -106 -298 -274
q-97 -167 -97 -418v-39h139v39q0 249 74 414q73 162 246 290v95z" />
    <glyph glyph-name="uni277D" unicode="&#x277d;" horiz-adv-x="1957" 
d="M1418 -83q201 119 320 320q117 198 117 441q0 238 -118 438t-320 319q-198 117 -436 117q-243 0 -441 -117q-202 -119 -320 -319t-118 -438q0 -241 118 -441q119 -201 320 -320q200 -118 441 -118q237 0 437 118zM709 643q64 62 174 80q-104 12 -156 57q-53 45 -53 119
q0 95 82 153t211 58q130 0 210 -58t80 -153q0 -74 -53 -119q-52 -45 -155 -57q110 -18 174 -80q63 -61 63 -154q0 -109 -89 -178t-230 -69q-145 0 -233 69q-89 69 -89 178q0 92 64 154zM846 768q46 -39 121 -39q71 0 117 39t46 98q0 62 -45 99q-43 36 -118 36
q-77 0 -122 -36q-46 -37 -46 -99q0 -59 47 -98zM824 388q53 -40 143 -40q85 0 140 41q54 41 54 105q0 62 -54 103q-53 40 -140 40q-90 0 -143 -40q-54 -41 -54 -103q0 -66 54 -106z" />
    <glyph glyph-name="uni277E" unicode="&#x277e;" horiz-adv-x="1957" 
d="M1418 -83q201 119 320 320q117 198 117 441q0 238 -118 438t-320 319q-198 117 -436 117q-243 0 -441 -117q-202 -119 -320 -319t-118 -438q0 -241 118 -441q119 -201 320 -320q200 -118 441 -118q237 0 437 118zM1194 999q82 -110 82 -325q0 -206 -84 -320t-236 -114
q-109 0 -186 55q-78 55 -102 147l131 39q7 -58 51 -96q43 -37 106 -37q94 0 144 84q49 83 49 242q0 43 -4 90q-12 -97 -75 -154t-159 -57q-114 0 -186 75t-72 197q0 127 84 206q83 79 217 79q158 0 240 -111zM827 955q-47 -49 -47 -130q0 -85 46 -132q46 -48 126 -48
q82 0 128 48q46 47 46 132q0 79 -47 129t-125 50q-80 0 -127 -49z" />
    <glyph glyph-name="uni27F5" unicode="&#x27f5;" horiz-adv-x="2816" 
d="M2589 621h-2253q206 -49 339 -168q134 -119 218 -328l-133 -25q-84 205 -203 323q-122 121 -330 206v94q212 90 334 210q121 119 199 318l133 -26q-78 -201 -212 -320q-133 -119 -345 -174h2253v-110z" />
    <glyph glyph-name="uni27F6" unicode="&#x27f6;" horiz-adv-x="2816" 
d="M2056 1251q78 -199 199 -318q122 -120 334 -210v-94q-208 -85 -330 -206q-119 -118 -203 -323l-133 25q84 209 218 328q133 119 339 168h-2253v110h2253q-212 55 -345 174q-134 119 -212 320z" />
    <glyph glyph-name="uni27F7" unicode="&#x27f7;" horiz-adv-x="3364" 
d="M2605 1251q78 -199 199 -318q122 -120 334 -210v-94q-208 -85 -330 -206q-119 -118 -203 -323l-133 25q84 209 218 328t339 168h-2693q206 -49 339 -168q134 -119 218 -328l-133 -25q-84 205 -203 323q-122 121 -330 206v94q212 90 334 210q121 119 199 318l133 -26
q-78 -201 -212 -320q-133 -119 -345 -174h2693q-211 55 -345 174t-212 320z" />
    <glyph glyph-name="uni2B12" unicode="&#x2b12;" horiz-adv-x="1816" 
d="M176 -55v1468h1466v-1468h-1466zM272 678v-635h1274v635h-1274z" />
    <glyph glyph-name="uni2B13" unicode="&#x2b13;" horiz-adv-x="1816" 
d="M176 -61v1468h1466v-1468h-1466zM1546 674v635h-1274v-635h1274z" />
    <glyph glyph-name="uni2B14" unicode="&#x2b14;" horiz-adv-x="1816" 
d="M1640 1409v-1466h-1468v1466h1468zM268 39h1274l-1274 1274v-1274z" />
    <glyph glyph-name="uni2B15" unicode="&#x2b15;" horiz-adv-x="1816" 
d="M174 -57v1466h1468v-1466h-1468zM1546 1313h-1276l1276 -1274v1274z" />
    <glyph glyph-name="uni2B1B" unicode="&#x2b1b;" horiz-adv-x="1816" 
d="M174 -57v1466h1468v-1466h-1468z" />
    <glyph glyph-name="uni2B1C" unicode="&#x2b1c;" horiz-adv-x="1816" 
d="M174 -57v1466h1468v-1466h-1468zM1546 1313h-1276v-1274h1276v1274z" />
    <glyph glyph-name="uniF8FF" unicode="&#xf8ff;" horiz-adv-x="1492" 
d="M473 0h-301v1352h485l50 -588l14 -293h41l14 293l49 588h498v-1352h-324v735h-41l-12 -221l-78 -514h-264l-76 514l-16 221h-39v-735zM1329 -346h-1165v266h1165v-266z" />
    <glyph glyph-name="u1F310" unicode="&#x1f310;" horiz-adv-x="1816" 
d="M1288 1331q175 -103 277 -275t102 -378q0 -207 -102 -381q-102 -175 -277 -277q-174 -102 -377 -102q-207 0 -381 102q-173 101 -276 277q-102 174 -102 381q0 206 102 378q102 173 276 275q176 103 381 103q201 0 377 -103zM695 1175q-46 -97 -70 -233h243v391
q-19 0 -67 -8q-59 -50 -106 -150zM1194 942q-24 128 -70 232q-46 102 -104 153q-3 0 -12.5 1.5t-15.5 2.5q-20 2 -38 2v-391h240zM1511 942q-52 119 -142 206q-91 88 -210 138q91 -135 129 -344h223zM449 1148q-94 -91 -144 -206h225q38 209 129 344q-119 -50 -210 -138z
M272 844q-22 -82 -22 -166q0 -86 22 -168h244q-10 84 -10 168q0 82 10 166h-244zM610 510h258v334h-258q-8 -114 -8 -166q0 -54 8 -168zM954 510h254q9 128 9 168q0 38 -9 166h-254v-334zM1303 844q10 -84 10 -166q0 -84 -10 -168h243q23 86 23 168q0 80 -23 166h-243z
M305 414q49 -113 144 -208q90 -90 210 -140q-91 140 -129 348h-225zM625 414q24 -138 70 -236q46 -100 106 -151q54 -9 67 -9v396h-243zM1124 179q47 106 70 235h-240v-396q18 0 38 2l15 3t13 2q59 51 104 154zM1369 205q91 90 144 209h-225q-38 -208 -129 -348
q119 50 210 139z" />
    <glyph glyph-name="u1F311" unicode="&#x1f311;" horiz-adv-x="1816" 
d="M529 19q-174 101 -276 277q-101 174 -101 382q0 207 101 379q102 174 276 275q175 102 382 102q203 0 377 -102q176 -103 277 -275q102 -174 102 -379q0 -207 -102 -381t-276 -277q-173 -102 -378 -102q-208 0 -382 101zM1239 105q153 89 241 242q89 154 89 331
q0 176 -89 328q-88 151 -241 240q-152 89 -328 89t-330 -89q-153 -89 -242 -239q-89 -151 -89 -329q0 -180 89 -332t241 -241t331 -89q176 0 328 89z" />
    <glyph glyph-name="u1F312" unicode="&#x1f312;" horiz-adv-x="1816" 
d="M1289 1331q174 -103 276 -275t102 -378v-27q-6 -201 -109 -368q-103 -168 -275 -267q-169 -98 -372 -98h-2q-205 0 -379 102q-173 101 -276 277q-102 174 -102 381q0 206 102 378q102 173 276 275q176 103 379 103h2q204 0 378 -103zM339 345q89 -151 240 -240t330 -89
q34 0 78 4q109 61 182 245q72 183 72 413q0 226 -72 409t-182 244q-47 4 -78 4q-179 0 -330 -89q-152 -90 -240 -239q-89 -151 -89 -331t89 -331z" />
    <glyph glyph-name="u1F313" unicode="&#x1f313;" horiz-adv-x="1816" 
d="M1288 1331q175 -103 277 -275t102 -378q0 -207 -102 -381q-102 -175 -277 -277q-174 -102 -377 -102q-207 0 -381 102q-173 101 -276 277q-102 174 -102 381q0 206 102 378q102 173 276 275q176 103 381 103q201 0 377 -103zM339 346q89 -152 241 -241t331 -89v1319
q-180 0 -331 -88q-154 -90 -241 -239q-89 -152 -89 -330q0 -180 89 -332z" />
    <glyph glyph-name="u1F314" unicode="&#x1f314;" horiz-adv-x="1816" 
d="M1288 1331q175 -103 277 -275t102 -378q0 -207 -102 -381q-102 -175 -277 -277q-174 -102 -381 -102q-205 0 -378 102t-275 278q-102 175 -102 380q0 206 102 378q102 173 275 275q174 103 378 103q205 0 381 -103zM327 367q76 -144 211 -236q136 -93 296 -111
q-111 61 -183 245q-71 180 -71 413q0 232 71 411q71 180 183 242q-163 -18 -296 -109q-135 -93 -211 -235q-77 -145 -77 -309q0 -166 77 -311z" />
    <glyph glyph-name="u1F315" unicode="&#x1f315;" horiz-adv-x="1816" 
d="M529 19q-174 101 -276 277q-101 174 -101 382q0 207 101 379q102 174 276 275q175 102 382 102q203 0 377 -102q176 -103 277 -275q102 -174 102 -379q0 -207 -102 -381t-276 -277q-173 -102 -378 -102q-208 0 -382 101z" />
    <glyph glyph-name="u1F316" unicode="&#x1f316;" horiz-adv-x="1816" 
d="M1289 1331q174 -103 276 -275t102 -378q0 -205 -102 -380t-276 -278q-173 -102 -378 -102q-207 0 -381 102q-173 101 -276 277q-102 174 -102 381q0 206 102 378q102 173 276 275q176 103 381 103q204 0 378 -103zM1281 131q135 92 211 236q77 145 77 311q0 164 -77 309
q-76 142 -211 235q-133 91 -296 109q110 -61 182 -242t72 -411t-72 -413q-73 -184 -182 -245q160 18 296 111z" />
    <glyph glyph-name="u1F317" unicode="&#x1f317;" horiz-adv-x="1816" 
d="M1288 1331q175 -103 277 -275t102 -378q0 -207 -102 -381q-102 -175 -277 -277q-174 -102 -381 -102q-203 0 -377 102q-173 101 -276 277q-102 174 -102 381q0 206 102 378q102 173 276 275q176 103 377 103q205 0 381 -103zM907 16q180 0 332 89t241 241t89 332
q0 178 -89 330q-87 149 -241 239q-151 88 -332 88v-1319z" />
    <glyph glyph-name="u1F318" unicode="&#x1f318;" horiz-adv-x="1816" 
d="M1288 1331q175 -103 277 -275t102 -378q0 -207 -102 -381q-102 -175 -277 -277q-174 -102 -379 -102h-2q-200 0 -371 99t-275 269q-103 169 -109 369v7v4v4v6v2q0 206 102 378q102 173 275 275q174 103 378 103h2q203 0 379 -103zM1240 105q151 89 240 240t89 331
t-89 331q-88 149 -240 239q-151 89 -331 89q-31 0 -78 -4q-110 -61 -182 -244q-71 -180 -71 -409q0 -233 71 -413q73 -184 182 -245q44 -4 78 -4q180 0 331 89z" />
    <glyph glyph-name="Iacute_J.loclNLD" horiz-adv-x="1159" 
d="M199 440l137 39q-29 -75 -29 -131q0 -115 73 -188q72 -72 191 -72q131 0 207 88t76 242v934h127v-934q0 -206 -108 -324q-108 -119 -295 -119q-112 0 -204 45q-93 46 -143 124q-51 80 -51 178q0 66 19 118zM313 668h-127v684h127v-684zM260 1466l-137 19l272 237l150 -20
zM915 1466l-137 19l273 237l149 -20z" />
    <glyph glyph-name="i.loclTRK" horiz-adv-x="485" 
d="M182 987h123v-987h-123v987zM176 1376h131v-209h-131v209z" />
    <glyph glyph-name="e.gender" horiz-adv-x="1071" 
d="M324 475q5 -184 77 -289q73 -106 193 -106q100 0 166 77q66 76 67 197l127 -37q-6 -96 -54 -174t-129 -123t-177 -45q-182 0 -290 141q-107 140 -107 378q0 237 107 377q108 141 290 141q170 0 270 -117q101 -118 101 -313q0 -19 -9 -107h-632zM831 571q5 158 -59 247
q-63 89 -178 89q-108 0 -180 -90q-71 -89 -86 -246h503zM646 1253q36 -24 68 -53q34 -31 60 -65l-88 -68q-31 46 -47 81q-18 42 -35 93l-12 41q-16 -49 -19 -58q-13 -45 -29 -79q-19 -41 -46 -78l-88 68q28 38 61 66q34 29 80 61l37 26l-88 -2q-77 0 -146 23l35 104
q52 -18 89 -42q48 -31 79 -56l33 -25q-2 5 -5 13.5t-8 22t-9 23.5q-16 44 -23 82q-8 45 -8 89h110q0 -58 -10 -98q-10 -39 -24 -77q-6 -16 -19 -55q3 2 9 6.5t16 13t19 15.5q32 25 74 50q38 22 83 38l34 -104q-69 -23 -145 -23l-88 2q3 -2 11.5 -8t18 -13t20.5 -14z" />
    <glyph glyph-name="i.gender" horiz-adv-x="565" 
d="M266 987h123v-987h-123v987zM382 1253q36 -24 68 -53q34 -31 60 -65l-88 -68q-31 46 -47 81q-18 42 -35 93l-12 41q-16 -49 -19 -58q-13 -45 -29 -79q-17 -37 -47 -78l-88 68q27 36 62 66q34 29 80 61l37 26l-88 -2q-77 0 -146 23l35 104q52 -18 89 -42q48 -31 79 -56
l33 -25q-2 5 -5 13.5t-8 22t-9 23.5q-16 44 -23 82q-9 50 -9 89h111q0 -58 -10 -98q-10 -39 -24 -77q-6 -16 -19 -55q3 2 9 6.5t16 13t19 15.5q35 28 73 50t83 38l35 -104q-69 -23 -145 -23l-88 2q3 -2 11.5 -8t18 -13t20.5 -14z" />
    <glyph glyph-name="n.gender" horiz-adv-x="1120" 
d="M885 909q80 -103 80 -282v-627h-123v618q0 137 -60 212t-168 75q-109 0 -167 -75q-58 -74 -58 -212v-618h-123v987h123v-178q32 97 104 150q71 53 171 53q141 0 221 -103zM382 1253q36 -24 68 -53q34 -31 60 -65l-88 -68q-31 46 -47 81q-18 42 -35 93l-12 41
q-16 -49 -19 -58q-13 -45 -29 -79q-17 -37 -47 -78l-88 68q27 36 62 66q34 29 80 61l37 26l-88 -2q-77 0 -146 23l35 104q52 -18 89 -42q48 -31 79 -56l33 -25q-2 5 -5 13.5t-8 22t-9 23.5q-16 44 -23 82q-9 50 -9 89h111q0 -58 -10 -98q-10 -39 -24 -77q-6 -16 -19 -55
q3 2 9 6.5t16 13t19 15.5q35 28 73 50t83 38l35 -104q-69 -23 -145 -23l-88 2q3 -2 11.5 -8t18 -13t20.5 -14z" />
    <glyph glyph-name="r.gender" horiz-adv-x="923" 
d="M825 931q68 -82 68 -210q0 -50 -14 -117l-138 -41q21 74 21 139q0 95 -42 149t-116 54q-103 0 -158 -91q-56 -92 -57 -265v-549h-123v987h123v-207q30 115 96 173q67 59 162 59q111 0 178 -81zM382 1253q36 -24 68 -53q34 -31 60 -65l-88 -68q-31 46 -47 81
q-18 42 -35 93l-12 41q-16 -49 -19 -58q-13 -45 -29 -79q-17 -37 -47 -78l-88 68q27 36 62 66q34 29 80 61l37 26l-88 -2q-77 0 -146 23l35 104q52 -18 89 -42q48 -31 79 -56l33 -25q-2 5 -5 13.5t-8 22t-9 23.5q-16 44 -23 82q-9 50 -9 89h111q0 -58 -10 -98
q-10 -39 -24 -77q-6 -16 -19 -55q3 2 9 6.5t16 13t19 15.5q35 28 73 50t83 38l35 -104q-69 -23 -145 -23l-88 2q3 -2 11.5 -8t18 -13t20.5 -14z" />
    <glyph glyph-name="r.ss04.gender" horiz-adv-x="806" 
d="M807 975l-29 -148q-52 60 -160 60q-115 0 -172 -89q-57 -88 -57 -270v-528h-123v987h123v-215q33 116 104 178t177 62q87 0 137 -37zM382 1253q36 -24 68 -53q34 -31 60 -65l-88 -68q-31 46 -47 81q-18 42 -35 93l-12 41q-16 -49 -19 -58q-13 -45 -29 -79
q-17 -37 -47 -78l-88 68q27 36 62 66q34 29 80 61l37 26l-88 -2q-77 0 -146 23l35 104q52 -18 89 -42q48 -31 79 -56l33 -25q-2 5 -5 13.5t-8 22t-9 23.5q-16 44 -23 82q-9 50 -9 89h111q0 -58 -10 -98q-10 -39 -24 -77q-6 -16 -19 -55q3 2 9 6.5t16 13t19 15.5q35 28 73 50
t83 38l35 -104q-69 -23 -145 -23l-88 2q3 -2 11.5 -8t18 -13t20.5 -14z" />
    <glyph glyph-name="iacute_j.loclNLD" horiz-adv-x="962" 
d="M182 987h123v-987h-123v987zM246 1118l-121 17l242 274l133 -18zM389 -276q23 -5 60 -5q100 0 158 67q57 66 57 191v1010h122v-1036q0 -172 -93 -265q-94 -94 -271 -100zM727 1118l-121 17l242 274l133 -18z" />
    <glyph glyph-name="a.ss02" horiz-adv-x="1073" 
d="M772 987h123v-987h-123v250q-34 -134 -114 -204q-80 -71 -193 -71q-105 0 -187 64t-125 181q-44 120 -44 274q0 153 44 273q43 117 125 181t187 64q112 0 193 -70q79 -69 114 -203v248zM699 190q73 113 73 304q0 190 -73 303q-71 110 -195 110q-122 0 -195 -113t-73 -300
t73 -300q73 -114 195 -114q124 0 195 110z" />
    <glyph glyph-name="aacute.ss02" horiz-adv-x="1073" 
d="M772 987h123v-987h-123v250q-34 -134 -114 -204q-80 -71 -193 -71q-105 0 -187 64t-125 181q-44 120 -44 274q0 153 44 273q43 117 125 181t187 64q112 0 193 -70q79 -69 114 -203v248zM699 190q73 113 73 304q0 190 -73 303q-71 110 -195 110q-122 0 -195 -113t-73 -300
t73 -300q73 -114 195 -114q124 0 195 110zM508 1118l-121 17l242 274l133 -18z" />
    <glyph glyph-name="abreve.ss02" horiz-adv-x="1073" 
d="M772 987h123v-987h-123v250q-34 -134 -114 -204q-80 -71 -193 -71q-105 0 -187 64t-125 181q-44 120 -44 274q0 153 44 273q43 117 125 181t187 64q112 0 193 -70q79 -69 114 -203v248zM699 190q73 113 73 304q0 190 -73 303q-71 110 -195 110q-122 0 -195 -113t-73 -300
t73 -300q73 -114 195 -114q124 0 195 110zM780 1395q-5 -132 -75 -199q-73 -70 -201 -70q-131 0 -204 71t-77 198l111 14q-2 -89 43 -138q45 -50 127 -50t126 50q44 49 42 138z" />
    <glyph glyph-name="uni01CE.ss02" horiz-adv-x="1073" 
d="M772 987h123v-987h-123v250q-34 -134 -114 -204q-80 -71 -193 -71q-105 0 -187 64t-125 181q-44 120 -44 274q0 153 44 273q43 117 125 181t187 64q112 0 193 -70q79 -69 114 -203v248zM699 190q73 113 73 304q0 190 -73 303q-71 110 -195 110q-122 0 -195 -113t-73 -300
t73 -300q73 -114 195 -114q124 0 195 110zM506 1212l174 191l121 -17l-238 -268h-117l-239 268l123 17z" />
    <glyph glyph-name="acircumflex.ss02" horiz-adv-x="1073" 
d="M772 987h123v-987h-123v250q-34 -134 -114 -204q-80 -71 -193 -71q-105 0 -187 64t-125 181q-44 120 -44 274q0 153 44 273q43 117 125 181t187 64q112 0 193 -70q79 -69 114 -203v248zM699 190q73 113 73 304q0 190 -73 303q-71 110 -195 110q-122 0 -195 -113t-73 -300
t73 -300q73 -114 195 -114q124 0 195 110zM563 1403l238 -268l-121 -17l-174 191l-176 -191l-123 17l239 268h117z" />
    <glyph glyph-name="adieresis.ss02" horiz-adv-x="1073" 
d="M772 987h123v-987h-123v250q-34 -134 -114 -204q-80 -71 -193 -71q-105 0 -187 64t-125 181q-44 120 -44 274q0 153 44 273q43 117 125 181t187 64q112 0 193 -70q79 -69 114 -203v248zM699 190q73 113 73 304q0 190 -73 303q-71 110 -195 110q-122 0 -195 -113t-73 -300
t73 -300q73 -114 195 -114q124 0 195 110zM289 1376h133l2 -209h-131zM582 1376h133l2 -209h-133z" />
    <glyph glyph-name="agrave.ss02" horiz-adv-x="1073" 
d="M772 987h123v-987h-123v250q-34 -134 -114 -204q-80 -71 -193 -71q-105 0 -187 64t-125 181q-44 120 -44 274q0 153 44 273q43 117 125 181t187 64q112 0 193 -70q79 -69 114 -203v248zM699 190q73 113 73 304q0 190 -73 303q-71 110 -195 110q-122 0 -195 -113t-73 -300
t73 -300q73 -114 195 -114q124 0 195 110zM383 1409l242 -274l-121 -17l-254 273z" />
    <glyph glyph-name="amacron.ss02" horiz-adv-x="1073" 
d="M772 987h123v-987h-123v250q-34 -134 -114 -204q-80 -71 -193 -71q-105 0 -187 64t-125 181q-44 120 -44 274q0 153 44 273q43 117 125 181t187 64q112 0 193 -70q79 -69 114 -203v248zM699 190q73 113 73 304q0 190 -73 303q-71 110 -195 110q-122 0 -195 -113t-73 -300
t73 -300q73 -114 195 -114q124 0 195 110zM244 1184v98h518v-98h-518z" />
    <glyph glyph-name="aogonek.ss02" horiz-adv-x="1073" 
d="M895 0q-95 -18 -147 -60q-54 -43 -54 -98q0 -40 26 -64t73 -24q51 0 84 37l16 -104q-45 -31 -121 -31q-82 0 -134 43t-52 111q0 67 53 120q54 54 137 70h-4v250q-34 -134 -114 -204q-80 -71 -193 -71q-105 0 -187 64t-125 181q-44 120 -44 274q0 153 44 273
q43 117 125 181t187 64q112 0 193 -70q79 -69 114 -203v248h123v-987zM699 190q73 113 73 304q0 190 -73 303q-71 110 -195 110q-122 0 -195 -113t-73 -300t73 -300q73 -114 195 -114q124 0 195 110z" />
    <glyph glyph-name="aring.ss02" horiz-adv-x="1073" 
d="M772 987h123v-987h-123v250q-34 -134 -114 -204q-80 -71 -193 -71q-105 0 -187 64t-125 181q-44 120 -44 274q0 153 44 273q43 117 125 181t187 64q112 0 193 -70q79 -69 114 -203v248zM699 190q73 113 73 304q0 190 -73 303q-71 110 -195 110q-122 0 -195 -113t-73 -300
t73 -300q73 -114 195 -114q124 0 195 110zM352 1153q-57 53 -57 133t57 132q56 52 146 52q87 0 146 -53q58 -52 58 -131q0 -81 -58 -133q-59 -53 -146 -53q-88 0 -146 53zM575 1211q31 31 31 75t-31 75q-30 30 -77 30q-48 0 -78 -30q-31 -31 -31 -75t31 -75q29 -29 78 -29
q48 0 77 29z" />
    <glyph glyph-name="aringacute.ss02" horiz-adv-x="1073" 
d="M772 987h123v-987h-123v250q-34 -134 -114 -204q-80 -71 -193 -71q-105 0 -187 64t-125 181q-44 120 -44 274q0 153 44 273q43 117 125 181t187 64q112 0 193 -70q79 -69 114 -203v248zM699 190q73 113 73 304q0 190 -73 303q-71 110 -195 110q-122 0 -195 -113t-73 -300
t73 -300q73 -114 195 -114q124 0 195 110zM352 1153q-57 53 -57 133t57 132q56 52 146 52q87 0 146 -53q58 -52 58 -131q0 -81 -58 -133q-59 -53 -146 -53q-88 0 -146 53zM575 1211q31 31 31 75t-31 75q-30 30 -77 30q-48 0 -78 -30q-31 -31 -31 -75t31 -75q29 -29 78 -29
q48 0 77 29zM508 1577l-121 16l242 275l133 -19z" />
    <glyph glyph-name="atilde.ss02" horiz-adv-x="1073" 
d="M772 987h123v-987h-123v250q-34 -134 -114 -204q-80 -71 -193 -71q-105 0 -187 64t-125 181q-44 120 -44 274q0 153 44 273q43 117 125 181t187 64q112 0 193 -70q79 -69 114 -203v248zM699 190q73 113 73 304q0 190 -73 303q-71 110 -195 110q-122 0 -195 -113t-73 -300
t73 -300q73 -114 195 -114q124 0 195 110zM188 1149q4 109 53 170q47 59 134 59q47 0 81 -19t81 -71q33 -37 55 -53q20 -14 39 -14q78 0 78 153l104 -18q-5 -112 -49 -171q-46 -61 -129 -61q-51 0 -84 18q-34 19 -86 75q-33 38 -54 52q-19 13 -42 13q-74 0 -74 -152z" />
    <glyph glyph-name="g.ss03" horiz-adv-x="1071" 
d="M772 987h123v-1042q-2 -175 -102 -277q-101 -102 -269 -102q-160 0 -264 88q-105 88 -115 229l131 39q-4 -107 67 -180q71 -72 181 -72q113 0 181 80q67 79 67 211v289q-34 -134 -114 -204q-80 -71 -193 -71q-105 0 -187 64t-125 181q-44 120 -44 274q0 153 44 273
q43 117 125 181t187 64q112 0 193 -70q79 -69 114 -203v248zM699 190q73 113 73 304q0 190 -73 303q-71 110 -195 110q-122 0 -195 -113t-73 -300t73 -300q73 -114 195 -114q124 0 195 110z" />
    <glyph glyph-name="uni01F5.ss03" horiz-adv-x="1071" 
d="M772 987h123v-1042q-2 -175 -102 -277q-101 -102 -269 -102q-160 0 -264 88q-105 88 -115 229l131 39q-4 -107 67 -180q71 -72 181 -72q113 0 181 80q67 79 67 211v289q-34 -134 -114 -204q-80 -71 -193 -71q-105 0 -187 64t-125 181q-44 120 -44 274q0 153 44 273
q43 117 125 181t187 64q112 0 193 -70q79 -69 114 -203v248zM699 190q73 113 73 304q0 190 -73 303q-71 110 -195 110q-122 0 -195 -113t-73 -300t73 -300q73 -114 195 -114q124 0 195 110zM508 1118l-121 17l242 274l133 -18z" />
    <glyph glyph-name="gbreve.ss03" horiz-adv-x="1071" 
d="M772 987h123v-1042q-2 -175 -102 -277q-101 -102 -269 -102q-160 0 -264 88q-105 88 -115 229l131 39q-4 -107 67 -180q71 -72 181 -72q113 0 181 80q67 79 67 211v289q-34 -134 -114 -204q-80 -71 -193 -71q-105 0 -187 64t-125 181q-44 120 -44 274q0 153 44 273
q43 117 125 181t187 64q112 0 193 -70q79 -69 114 -203v248zM699 190q73 113 73 304q0 190 -73 303q-71 110 -195 110q-122 0 -195 -113t-73 -300t73 -300q73 -114 195 -114q124 0 195 110zM780 1395q-5 -132 -75 -199q-73 -70 -201 -70q-131 0 -204 71t-77 198l111 14
q-2 -89 43 -138q45 -50 127 -50t126 50q44 49 42 138z" />
    <glyph glyph-name="gcaron.ss03" horiz-adv-x="1071" 
d="M772 987h123v-1042q-2 -175 -102 -277q-101 -102 -269 -102q-160 0 -264 88q-105 88 -115 229l131 39q-4 -107 67 -180q71 -72 181 -72q113 0 181 80q67 79 67 211v289q-34 -134 -114 -204q-80 -71 -193 -71q-105 0 -187 64t-125 181q-44 120 -44 274q0 153 44 273
q43 117 125 181t187 64q112 0 193 -70q79 -69 114 -203v248zM699 190q73 113 73 304q0 190 -73 303q-71 110 -195 110q-122 0 -195 -113t-73 -300t73 -300q73 -114 195 -114q124 0 195 110zM506 1212l174 191l121 -17l-238 -268h-117l-239 268l123 17z" />
    <glyph glyph-name="gcircumflex.ss03" horiz-adv-x="1071" 
d="M772 987h123v-1042q-2 -175 -102 -277q-101 -102 -269 -102q-160 0 -264 88q-105 88 -115 229l131 39q-4 -107 67 -180q71 -72 181 -72q113 0 181 80q67 79 67 211v289q-34 -134 -114 -204q-80 -71 -193 -71q-105 0 -187 64t-125 181q-44 120 -44 274q0 153 44 273
q43 117 125 181t187 64q112 0 193 -70q79 -69 114 -203v248zM699 190q73 113 73 304q0 190 -73 303q-71 110 -195 110q-122 0 -195 -113t-73 -300t73 -300q73 -114 195 -114q124 0 195 110zM563 1403l238 -268l-121 -17l-174 191l-176 -191l-123 17l239 268h117z" />
    <glyph glyph-name="uni0123.ss03" horiz-adv-x="1071" 
d="M772 987h123v-1042q-2 -175 -102 -277q-101 -102 -269 -102q-160 0 -264 88q-105 88 -115 229l131 39q-4 -107 67 -180q71 -72 181 -72q113 0 181 80q67 79 67 211v289q-34 -134 -114 -204q-80 -71 -193 -71q-105 0 -187 64t-125 181q-44 120 -44 274q0 153 44 273
q43 117 125 181t187 64q112 0 193 -70q79 -69 114 -203v248zM699 190q73 113 73 304q0 190 -73 303q-71 110 -195 110q-122 0 -195 -113t-73 -300t73 -300q73 -114 195 -114q124 0 195 110zM446 1120q-34 52 -34 119q0 101 80 201l106 -15q-78 -95 -78 -178q0 -63 47 -127
h-121z" />
    <glyph glyph-name="gdotaccent.ss03" horiz-adv-x="1071" 
d="M772 987h123v-1042q-2 -175 -102 -277q-101 -102 -269 -102q-160 0 -264 88q-105 88 -115 229l131 39q-4 -107 67 -180q71 -72 181 -72q113 0 181 80q67 79 67 211v289q-34 -134 -114 -204q-80 -71 -193 -71q-105 0 -187 64t-125 181q-44 120 -44 274q0 153 44 273
q43 117 125 181t187 64q112 0 193 -70q79 -69 114 -203v248zM699 190q73 113 73 304q0 190 -73 303q-71 110 -195 110q-122 0 -195 -113t-73 -300t73 -300q73 -114 195 -114q124 0 195 110zM436 1376h131v-209h-131v209z" />
    <glyph glyph-name="r.ss04" horiz-adv-x="718" 
d="M719 975l-29 -148q-53 60 -160 60q-115 0 -172 -89q-57 -88 -57 -270v-528h-123v987h123v-215q33 117 103 178q71 62 178 62q87 0 137 -37z" />
    <glyph glyph-name="racute.ss04" horiz-adv-x="718" 
d="M719 975l-29 -148q-53 60 -160 60q-115 0 -172 -89q-57 -88 -57 -270v-528h-123v987h123v-215q33 117 103 178q71 62 178 62q87 0 137 -37zM459 1118l-121 17l242 274l133 -18z" />
    <glyph glyph-name="rcaron.ss04" horiz-adv-x="718" 
d="M719 975l-29 -148q-53 60 -160 60q-115 0 -172 -89q-57 -88 -57 -270v-528h-123v987h123v-215q33 117 103 178q71 62 178 62q87 0 137 -37zM457 1212l174 191l121 -17l-238 -268h-117l-239 268l123 17z" />
    <glyph glyph-name="uni0157.ss04" horiz-adv-x="718" 
d="M719 975l-29 -148q-53 60 -160 60q-115 0 -172 -89q-57 -88 -57 -270v-528h-123v987h123v-215q33 117 103 178q71 62 178 62q87 0 137 -37zM160 -395q61 73 61 145q0 63 -47 127h121q35 -53 35 -119q0 -90 -66 -172z" />
    <glyph glyph-name="y.ss05" horiz-adv-x="1011" 
d="M711 987h123v-1079q0 -159 -94 -251q-92 -91 -257 -91q-157 0 -251 83q-92 82 -103 230l131 39q-5 -115 55 -181q61 -67 168 -67t168 67q60 66 60 185v256q-33 -97 -102 -149q-71 -54 -165 -54q-133 0 -211 104q-77 102 -77 283v625h123v-618q0 -138 56 -212
q57 -75 161 -75q101 0 158 75t57 212v618z" />
    <glyph glyph-name="yacute.ss05" horiz-adv-x="1011" 
d="M711 987h123v-1079q0 -159 -94 -251q-92 -91 -257 -91q-157 0 -251 83q-92 82 -103 230l131 39q-5 -115 55 -181q61 -67 168 -67t168 67q60 66 60 185v256q-33 -97 -102 -149q-71 -54 -165 -54q-133 0 -211 104q-77 102 -77 283v625h123v-618q0 -138 56 -212
q57 -75 161 -75q101 0 158 75t57 212v618zM500 1118l-121 17l242 274l133 -18z" />
    <glyph glyph-name="ycircumflex.ss05" horiz-adv-x="1011" 
d="M711 987h123v-1079q0 -159 -94 -251q-92 -91 -257 -91q-157 0 -251 83q-92 82 -103 230l131 39q-5 -115 55 -181q61 -67 168 -67t168 67q60 66 60 185v256q-33 -97 -102 -149q-71 -54 -165 -54q-133 0 -211 104q-77 102 -77 283v625h123v-618q0 -138 56 -212
q57 -75 161 -75q101 0 158 75t57 212v618zM555 1403l238 -268l-121 -17l-174 191l-176 -191l-123 17l239 268h117z" />
    <glyph glyph-name="ydieresis.ss05" horiz-adv-x="1011" 
d="M711 987h123v-1079q0 -159 -94 -251q-92 -91 -257 -91q-157 0 -251 83q-92 82 -103 230l131 39q-5 -115 55 -181q61 -67 168 -67t168 67q60 66 60 185v256q-33 -97 -102 -149q-71 -54 -165 -54q-133 0 -211 104q-77 102 -77 283v625h123v-618q0 -138 56 -212
q57 -75 161 -75q101 0 158 75t57 212v618zM281 1376h133l2 -209h-131zM573 1376h134l2 -209h-134z" />
    <glyph glyph-name="ygrave.ss05" horiz-adv-x="1011" 
d="M711 987h123v-1079q0 -159 -94 -251q-92 -91 -257 -91q-157 0 -251 83q-92 82 -103 230l131 39q-5 -115 55 -181q61 -67 168 -67t168 67q60 66 60 185v256q-33 -97 -102 -149q-71 -54 -165 -54q-133 0 -211 104q-77 102 -77 283v625h123v-618q0 -138 56 -212
q57 -75 161 -75q101 0 158 75t57 212v618zM375 1409l241 -274l-120 -17l-254 273z" />
    <glyph glyph-name="uni0233.ss05" horiz-adv-x="1011" 
d="M711 987h123v-1079q0 -159 -94 -251q-92 -91 -257 -91q-157 0 -251 83q-92 82 -103 230l131 39q-5 -115 55 -181q61 -67 168 -67t168 67q60 66 60 185v256q-33 -97 -102 -149q-71 -54 -165 -54q-133 0 -211 104q-77 102 -77 283v625h123v-618q0 -138 56 -212
q57 -75 161 -75q101 0 158 75t57 212v618zM236 1184v98h518v-98h-518z" />
    <glyph glyph-name="uni1EF9.ss05" horiz-adv-x="1011" 
d="M711 987h123v-1079q0 -159 -94 -251q-92 -91 -257 -91q-157 0 -251 83q-92 82 -103 230l131 39q-5 -115 55 -181q61 -67 168 -67t168 67q60 66 60 185v256q-33 -97 -102 -149q-71 -54 -165 -54q-133 0 -211 104q-77 102 -77 283v625h123v-618q0 -138 56 -212
q57 -75 161 -75q101 0 158 75t57 212v618zM180 1149q4 111 52 170q47 59 135 59q46 0 80 -19t81 -71q31 -35 56 -53q20 -14 39 -14q77 0 77 153l105 -18q-5 -112 -49 -171q-46 -61 -129 -61q-51 0 -84 18q-34 19 -86 75q-32 36 -55 52q-19 13 -42 13q-73 0 -73 -152z" />
    <glyph glyph-name="iacute_j.loclNLD.ss13" horiz-adv-x="962" 
d="M182 987h123v-987h-123v987zM246 1118l-121 17l242 274l133 -18zM530 -391q76 41 105 120q29 81 29 236v1022h122v-1050q0 -144 -24 -231q-24 -86 -82 -140zM727 1118l-121 17l242 274l133 -18z" />
    <glyph glyph-name="ij.ss13" horiz-adv-x="954" 
d="M172 1380h133v-213h-133v213zM178 987h123v-987h-123v987zM649 1380h133v-213h-133v213zM522 -391q76 41 105 120q28 78 28 236v1022h123v-1050q0 -144 -24 -231q-24 -86 -82 -140z" />
    <glyph glyph-name="j.ss13" horiz-adv-x="477" 
d="M172 1380h133v-213h-133v213zM45 -391q77 41 105 120q28 78 28 236v1022h123v-1050q0 -140 -25 -231q-24 -88 -81 -140z" />
    <glyph glyph-name="uni0237.ss13" horiz-adv-x="477" 
d="M45 -391q77 41 105 120q28 78 28 236v1022h123v-1050q0 -140 -25 -231q-24 -88 -81 -140z" />
    <glyph glyph-name="jcircumflex.ss13" horiz-adv-x="477" 
d="M45 -391q77 41 105 120q28 78 28 236v1022h123v-1050q0 -140 -25 -231q-24 -88 -81 -140zM299 1403l238 -268l-121 -17l-174 191l-176 -191l-123 17l239 268h117z" />
    <glyph glyph-name="eng.ss13" horiz-adv-x="1032" 
d="M797 909q80 -103 80 -282v-690q0 -143 -25 -232q-24 -86 -82 -139l-149 43q75 40 104 120q29 81 29 236v653q0 137 -60 212t-168 75t-167 -75q-58 -74 -58 -212v-618h-123v987h123v-178q33 97 103 150q71 53 171 53q142 0 222 -103z" />
    <glyph glyph-name="c_t" horiz-adv-x="1689" 
d="M1636 23q-79 -48 -184 -48q-114 0 -173 61q-58 59 -58 179v676h-226v96h58q88 0 143 52t55 135q0 93 -75 150q-76 58 -195 58q-131 0 -212 -69t-81 -183q0 -60 26 -121q27 -63 81 -135q63 -82 73 -202l-129 -37q0 121 -65 196q-66 76 -168 76q-124 0 -197 -112t-73 -301
t73 -301q74 -113 197 -113q102 0 168 78q65 77 65 198l129 -37q-6 -99 -55 -176q-49 -78 -129 -123t-178 -45q-120 0 -211 64q-90 63 -138 181t-48 274q0 237 107 377q108 141 290 141q108 0 192 -51q-46 53 -69 102q-23 51 -23 106q0 88 48 157q48 68 136 108q87 39 197 39
q107 0 194 -38q84 -37 133 -106q48 -68 48 -151q0 -81 -43 -128q-44 -48 -125 -63h420v-96h-271v-666q0 -143 121 -143q43 0 82 15t68 44z" />
    <glyph glyph-name="r_t" horiz-adv-x="1550" 
d="M1497 23q-79 -48 -184 -48q-114 0 -173 61t-59 179v676h-225v96h57q88 0 143 50q54 49 54 132q0 91 -69 152q-68 61 -173 61q-108 0 -182 -66t-74 -167q0 -51 24 -95q26 -47 79 -100l6 -6q80 -85 80 -229q0 -50 -13 -115l-135 -39q21 69 21 137q0 95 -42 149t-116 54
q-103 0 -158 -91q-56 -92 -57 -265v-549h-123v987h123v-207q30 115 96 173q67 59 162 59q33 0 72 -11q-101 83 -101 193q0 77 47 141q48 65 124 101q78 37 176 37q97 0 177 -39q79 -39 124 -108t45 -152q0 -78 -41 -125t-117 -62h410v-96h-271v-666q0 -143 121 -143
q44 0 83 16q40 16 67 45z" />
    <glyph glyph-name="s_t" horiz-adv-x="1605" 
d="M1552 23q-79 -48 -184 -48q-114 0 -173 61q-58 59 -58 179v676h-226v96h66q83 0 135 50q51 49 51 132q0 94 -72 154q-71 59 -190 59q-127 0 -206 -72t-79 -190q0 -50 20 -99t79 -142q47 -79 47 -170l-125 -37q2 16 2 35q0 89 -53 145q-52 55 -146 55q-86 0 -138 -39
t-52 -104q0 -62 51 -107q49 -44 182 -100q123 -51 185 -95q65 -46 93 -100q27 -52 27 -131q0 -114 -95 -186t-247 -72q-166 0 -260 90q-94 89 -92 246l125 37q-4 -29 -4 -49q0 -103 61 -161t173 -58q95 0 154 42t59 111q0 64 -53 109q-54 46 -201 111q-161 69 -223 136
q-62 68 -62 177q0 110 88 179t229 69q102 0 181 -43q-86 92 -86 200q0 88 49 156q51 70 135 109q86 39 190 39q106 0 191 -38q84 -38 131 -107q47 -70 47 -154q0 -77 -40 -123q-42 -48 -114 -64h406v-96h-270v-666q0 -143 120 -143q43 0 82 15t68 44z" />
    <glyph glyph-name="w_w_w" horiz-adv-x="3831" 
d="M3379 102l228 885h122l-258 -987h-180l-203 879l-202 -879h-181l-202 879l-203 -879h-180l-203 879l-205 -879h-178l-203 879l-205 -879h-180l-203 879l-202 -879h-181l-258 987h123l228 -881l200 881h181l204 -878l203 878h178l205 -878l203 878h178l205 -878l203 878
h180l203 -878l202 878h180z" />
    <glyph glyph-name="f_j.ss13" horiz-adv-x="1116" 
d="M940 -63q0 -140 -25 -231q-24 -88 -81 -140l-150 43q75 40 104 120q29 81 29 236v926h-426v-891h-123v891h-248v96h277q-63 27 -99 80t-36 119q0 110 88 182t225 72q46 0 100 -13q50 -12 82 -34l-20 -115q-33 27 -75 42t-83 15q-88 0 -141 -47t-53 -127q0 -59 27 -106
q27 -46 75 -68h553v-1050zM813 1167v213h131v-213h-131z" />
    <glyph glyph-name="ordfeminine.case" horiz-adv-x="884" 
d="M819 514h-125l-78 227h-346l-77 -227h-127l292 838h170zM442 1249l-139 -411h281z" />
    <glyph glyph-name="ordfeminine.ss02" horiz-adv-x="950" 
d="M682 1352h119v-838h-119v223q-34 -116 -104 -176q-71 -61 -177 -61q-141 0 -222 117q-83 119 -83 315q0 198 83 317t222 119q106 0 177 -61q70 -60 104 -177v222zM618 689q64 93 64 243q0 152 -64 245q-63 91 -169 91q-103 0 -166 -92q-64 -93 -64 -244q0 -147 65 -241
q64 -93 165 -93q106 0 169 91z" />
    <glyph glyph-name="zero.zero" horiz-adv-x="1116" 
d="M887 1194q114 -183 114 -518t-114 -518t-328 -183t-328 183t-114 518t114 518q113 182 328 182t328 -182zM329 1111q-81 -153 -81 -435q0 -260 69 -416l408 938q-72 66 -166 66q-149 0 -230 -153zM790 241q80 151 80 435q0 253 -67 409l-408 -935q68 -62 164 -62
q150 0 231 153z" />
    <glyph glyph-name="zero.tf" horiz-adv-x="1060" 
d="M216 158q-112 185 -112 518q0 335 112 520q110 182 314 182q205 0 315 -182q111 -183 111 -520t-110 -518q-111 -183 -316 -183q-203 0 -314 183zM749 241q76 152 76 435q0 285 -76 437q-77 153 -219 153q-140 0 -217 -153q-75 -150 -75 -437q0 -285 75 -435
q77 -153 217 -153q142 0 219 153z" />
    <glyph glyph-name="one.tf" horiz-adv-x="1060" 
d="M621 117h364v-117h-907v117h418v1079q-33 -179 -145 -284q-110 -103 -273 -103v143q154 0 269 107q114 107 155 293h119v-1235z" />
    <glyph glyph-name="two.tf" horiz-adv-x="1060" 
d="M839 657q-88 -158 -253 -299q-162 -138 -387 -241h727v-117h-817v111q329 208 508 435q180 228 180 431q0 130 -74 210q-73 79 -197 79q-127 0 -199 -82q-73 -84 -73 -217q0 -37 6 -78l-139 41q-2 24 -2 53q0 114 50 205q49 90 142 140q92 50 215 50q183 0 292 -109
q110 -110 110 -292q0 -160 -89 -320z" />
    <glyph glyph-name="three.tf" horiz-adv-x="1060" 
d="M862 599q80 -100 80 -249q0 -109 -50 -195q-49 -85 -142 -132q-94 -48 -213 -48q-191 0 -307 105q-117 106 -124 278l140 41q0 -146 77 -229q76 -82 214 -82q123 0 198 73q74 72 74 193q0 127 -83 201t-222 74h-121v112h121q118 0 195 77t77 194q0 113 -67 183
q-68 71 -172 71q-116 0 -186 -85t-72 -227l-140 41q11 173 120 278q110 105 278 105q105 0 191 -45t132 -126q47 -82 47 -183q0 -252 -270 -295q145 -30 225 -130z" />
    <glyph glyph-name="four.tf" horiz-adv-x="1060" 
d="M995 444v-116h-190v-328h-127v328h-606v112q179 195 255 403q76 207 76 509h138q0 -580 -400 -908h537v379h127v-379h190z" />
    <glyph glyph-name="five.tf" horiz-adv-x="1060" 
d="M859 750q97 -121 97 -326q0 -213 -107 -330q-108 -119 -296 -119q-180 0 -294 108q-113 108 -118 282l140 43q-5 -147 70 -233q75 -87 202 -87q132 0 202 88t70 248t-69 248t-195 88q-91 0 -161 -43q-71 -44 -105 -115l-123 47l39 703h698v-117h-579l-31 -561
q40 91 119 144q77 52 178 52q167 0 263 -120z" />
    <glyph glyph-name="six.tf" horiz-adv-x="1060" 
d="M851 745q99 -123 99 -325q0 -204 -110 -324q-111 -121 -293 -121q-428 0 -428 705q0 346 107 520q108 176 317 176q145 0 248 -86t131 -231l-136 -41q-12 111 -79 178q-68 68 -164 68q-143 0 -217 -147q-74 -148 -74 -427q0 -64 4 -137q22 147 111 231t221 84
q164 0 263 -123zM744 177q73 90 73 245q0 160 -69 248t-197 88q-127 0 -198 -89q-70 -88 -70 -247q0 -150 72 -242t192 -92q125 0 197 89z" />
    <glyph glyph-name="seven.tf" horiz-adv-x="1060" 
d="M49 1352h946v-111q-198 -163 -308 -343q-109 -178 -153 -382q-45 -209 -45 -467v-49h-135v49q0 273 53 487q53 215 176 385q126 174 337 314h-871v117z" />
    <glyph glyph-name="eight.tf" horiz-adv-x="1060" 
d="M868 612q86 -101 86 -243q0 -113 -54 -203q-55 -91 -151 -140q-100 -51 -219 -51q-118 0 -218 51q-96 49 -151 140q-55 92 -55 203q0 141 88 243q87 101 230 129q-131 23 -203 101q-71 77 -71 196q0 97 49 174q50 79 136 122q88 44 195 44q108 0 196 -44q86 -43 136 -122
q49 -77 49 -174q0 -119 -71 -196q-72 -78 -203 -101q145 -29 231 -129zM353 825q70 -73 177 -73q108 0 178 73t70 185q0 111 -69 183q-70 73 -179 73t-178 -72t-69 -184t70 -185zM739 167q82 79 82 202q0 120 -81 197q-82 77 -210 77t-211 -77q-81 -75 -81 -197t83 -202
q82 -79 209 -79t209 79z" />
    <glyph glyph-name="nine.tf" horiz-adv-x="1060" 
d="M942 682q0 -345 -107 -522q-108 -178 -317 -178q-147 0 -248 88q-103 90 -133 235l137 39q12 -109 80 -179q67 -69 164 -69q143 0 217 148t74 430q0 61 -4 137q-22 -146 -111 -232q-88 -85 -219 -85q-109 0 -191 55q-83 56 -128 158t-45 235q0 203 109 324
q108 120 292 120q430 0 430 -704zM708 692q70 88 70 248q0 150 -72 242t-194 92q-125 0 -197 -89q-71 -87 -71 -245t69 -247t195 -89q130 0 200 88z" />
    <glyph glyph-name="zero.tf.zero" horiz-adv-x="1060" 
d="M845 1196q111 -183 111 -520t-110 -518q-111 -183 -316 -183q-203 0 -314 183q-112 185 -112 518q0 335 112 520q110 182 314 182q205 0 315 -182zM313 1113q-75 -150 -75 -437q0 -252 59 -400l397 916q-66 74 -164 74q-140 0 -217 -153zM749 241q76 152 76 435
q0 242 -57 395l-397 -913q67 -70 159 -70q142 0 219 153z" />
    <glyph glyph-name="zero.tf.zero.numr" 
d="M624 1254q85 -115 85 -318q0 -204 -85 -320t-235 -116q-152 0 -237 115q-86 116 -86 321q0 202 86 318t237 116q149 0 235 -116zM243 1176q-53 -86 -53 -240q0 -144 43 -227l232 534q-36 19 -76 19q-93 0 -146 -86zM534 693q52 86 52 243q0 142 -45 227l-232 -538
q40 -19 80 -19q93 0 145 87z" />
    <glyph glyph-name="zero.tf.zero.numr.ulined" 
d="M152 615q-86 116 -86 321q0 202 86 318t237 116q149 0 235 -116q85 -115 85 -318q0 -204 -85 -320t-235 -116q-152 0 -237 115zM243 1176q-53 -86 -53 -240q0 -144 43 -227l232 534q-36 19 -76 19q-93 0 -146 -86zM534 693q52 86 52 243q0 142 -45 227l-232 -538
q40 -19 80 -19q93 0 145 87zM-10 315v97h796v-97h-796z" />
    <glyph glyph-name="zero.dnom" horiz-adv-x="806" 
d="M162 100q-88 113 -88 320q0 203 88 318q89 116 241 116q156 0 243 -116t87 -318q0 -203 -87 -319q-87 -115 -243 -115q-153 0 -241 114zM554 178q54 86 54 242q0 154 -54 240q-54 85 -151 85q-96 0 -150 -85q-54 -86 -54 -240q0 -156 54 -242t150 -86q97 0 151 86z" />
    <glyph glyph-name="one.dnom" horiz-adv-x="563" 
d="M440 838v-838h-123v739q-17 -142 -92 -216t-196 -74v139q110 0 188 66t107 184h116z" />
    <glyph glyph-name="two.dnom" horiz-adv-x="727" 
d="M526 315q-123 -123 -362 -208h481v-107h-579v96q218 112 340 240q120 126 120 248q0 74 -45 117q-46 44 -119 44q-78 0 -121 -48q-44 -49 -44 -130q0 -21 2 -41l-136 39q-6 129 77 209t222 80q128 0 209 -73q80 -72 80 -191q0 -150 -125 -275z" />
    <glyph glyph-name="three.dnom" horiz-adv-x="745" 
d="M188 260q1 -80 53 -125q49 -43 136 -43q81 0 127 39q47 39 47 105q0 65 -52 104q-53 39 -143 39h-86v90h86q75 0 124 41q48 40 48 102q0 60 -43 97q-42 36 -108 36q-77 0 -120 -45q-45 -46 -46 -125l-133 39q12 108 93 174t206 66q121 0 200 -61q78 -60 78 -158
q0 -151 -213 -172q112 -17 174 -78q62 -62 62 -160q0 -108 -83 -174q-81 -65 -218 -65t-224 63t-98 170z" />
    <glyph glyph-name="four.dnom" horiz-adv-x="745" 
d="M459 0v190h-420v97q123 102 177 230t54 321h140q0 -180 -84 -323q-83 -140 -226 -218h359v213h123v-213h127v-107h-127v-190h-123z" />
    <glyph glyph-name="five.dnom" horiz-adv-x="768" 
d="M179 54q-85 69 -91 182l135 38q-4 -79 44 -131q48 -51 130 -51q83 0 129 49q47 50 47 133q0 88 -46 135q-47 48 -126 48q-59 0 -103 -24q-47 -26 -69 -62l-118 45l22 422h533v-107h-414l-21 -315q29 63 85 99q57 36 128 36q116 0 186 -76t70 -201q0 -129 -83 -209
q-82 -79 -220 -79q-134 0 -218 68z" />
    <glyph glyph-name="six.dnom" horiz-adv-x="763" 
d="M155 96q-81 111 -81 326q0 206 84 320t235 114q110 0 186 -55q75 -55 103 -148l-133 -39q-7 59 -51 97q-43 37 -105 37q-95 0 -144 -84q-50 -85 -50 -242q0 -50 6 -90q10 95 74 153t159 58q116 0 186 -75q70 -74 70 -198q0 -125 -83 -205q-82 -79 -218 -79
q-158 0 -238 110zM522 140q47 49 47 130q0 85 -46 132q-47 49 -128 49t-128 -49q-46 -47 -46 -132q0 -79 47 -129q46 -49 125 -49q83 0 129 48z" />
    <glyph glyph-name="seven.dnom" horiz-adv-x="665" 
d="M6 838h645v-95q-172 -127 -245 -290q-74 -165 -74 -414v-39h-139v39q0 251 97 418t300 274h-584v107z" />
    <glyph glyph-name="eight.dnom" 
d="M131 387q64 62 174 80q-103 12 -155 57q-54 46 -54 119q0 95 82 153t211 58q130 0 210 -58q81 -58 81 -153q0 -74 -53 -119q-52 -45 -154 -57q109 -18 172 -80q64 -62 64 -154q0 -109 -89 -178q-88 -69 -231 -69t-232 69t-89 178q0 93 63 154zM269 512q47 -39 120 -39
q71 0 118 39q46 39 46 98q0 62 -45 99q-43 36 -119 36q-78 0 -121 -36q-45 -37 -45 -99q0 -59 46 -98zM248 132q52 -40 141 -40q85 0 140 41t55 105q0 62 -55 103q-53 40 -140 40q-89 0 -141 -39q-53 -39 -53 -104t53 -106z" />
    <glyph glyph-name="nine.dnom" horiz-adv-x="763" 
d="M609 745q81 -111 81 -325q0 -207 -84 -321q-83 -113 -235 -113q-110 0 -186 55t-103 147l133 39q7 -58 51 -96q43 -37 105 -37q95 0 144 84q50 85 50 242q0 51 -6 90q-11 -97 -74 -154t-159 -57q-116 0 -186 75q-70 74 -70 197q0 126 83 206q82 79 218 79q157 0 238 -111
zM242 701q-47 -49 -47 -130q0 -85 46 -132q47 -48 128 -48t128 48q46 47 46 132q0 79 -47 129t-125 50q-82 0 -129 -49z" />
    <glyph glyph-name="zero.numr" horiz-adv-x="806" 
d="M162 614q-88 113 -88 320q0 203 88 318q89 116 241 116q156 0 243 -116t87 -318q0 -203 -87 -319q-87 -115 -243 -115q-153 0 -241 114zM554 692q54 86 54 242t-54 241t-151 85q-96 0 -150 -85t-54 -241t54 -242t150 -86q97 0 151 86z" />
    <glyph glyph-name="one.numr" horiz-adv-x="563" 
d="M440 1352v-838h-123v739q-17 -142 -92 -216t-196 -74v139q110 0 188 66t107 184h116z" />
    <glyph glyph-name="two.numr" horiz-adv-x="727" 
d="M526 829q-123 -123 -362 -208h481v-107h-579v96q218 112 340 240q120 126 120 248q0 74 -45 117q-47 45 -119 45q-77 0 -121 -49t-44 -130q0 -21 2 -41l-136 39q-6 129 77 209t222 80q128 0 209 -73q80 -72 80 -191q0 -150 -125 -275z" />
    <glyph glyph-name="three.numr" horiz-adv-x="745" 
d="M188 774q1 -80 53 -125q49 -43 136 -43q81 0 127 39q47 39 47 105q0 65 -52 104q-53 39 -143 39h-86v90h86q75 0 124 41q48 40 48 102q0 60 -43 97t-108 37q-76 0 -120 -46q-45 -46 -46 -124l-133 38q12 109 93 175q80 65 206 65q121 0 200 -61q78 -60 78 -158
q0 -151 -213 -172q112 -17 174 -78q62 -62 62 -160q0 -108 -83 -174q-81 -65 -218 -65t-224 63t-98 170z" />
    <glyph glyph-name="four.numr" horiz-adv-x="745" 
d="M459 514v191h-420v96q123 102 177 230q54 127 54 321h140q0 -180 -84 -323q-83 -140 -226 -218h359v213h123v-213h127v-106h-127v-191h-123z" />
    <glyph glyph-name="five.numr" horiz-adv-x="768" 
d="M179 568q-85 69 -91 182l135 38q-4 -79 44 -131q48 -51 130 -51q83 0 129 49q47 50 47 133q0 88 -46 135q-47 48 -126 48q-59 0 -103 -24q-47 -26 -69 -62l-118 45l22 422h533v-107h-414l-21 -315q29 63 85 99q57 36 128 36q116 0 186 -76t70 -201q0 -129 -83 -209
q-82 -79 -220 -79q-134 0 -218 68z" />
    <glyph glyph-name="six.numr" horiz-adv-x="763" 
d="M155 610q-81 111 -81 326q0 206 84 320t235 114q110 0 186 -55q75 -55 103 -148l-133 -39q-7 59 -51 97q-43 37 -105 37q-95 0 -144 -84q-50 -85 -50 -242q0 -50 6 -90q10 95 74 153t159 58q116 0 186 -75q70 -74 70 -198q0 -125 -83 -205q-82 -79 -218 -79
q-158 0 -238 110zM522 654q47 49 47 130q0 85 -46 132q-47 49 -128 49t-128 -49q-46 -47 -46 -132q0 -79 47 -129q46 -49 125 -49q83 0 129 48z" />
    <glyph glyph-name="seven.numr" horiz-adv-x="665" 
d="M6 1352h645v-95q-172 -127 -245 -290q-74 -165 -74 -414v-39h-139v39q0 251 97 418t300 274h-584v107z" />
    </font>
</defs>
</svg>
