<?xml version="1.0" standalone="no"?>
<!DOCTYPE svg PUBLIC "-//W3C//DTD SVG 1.1//EN" "http://www.w3.org/Graphics/SVG/1.1/DTD/svg11.dtd" >
<svg xmlns="http://www.w3.org/2000/svg" xmlns:xlink="http://www.w3.org/1999/xlink" version="1.1">
<metadata>
Created by FontForge 20170731 at Tue Dec 13 16:53:59 2022
 By Aleksey,,,
Copyright (c) 2020 by Paul Eslage, under exclusive license to TypeMates. All rights reserved.
</metadata>
<defs>
<font id="Sombra-Regular" horiz-adv-x="1816" >
  <font-face 
    font-family="Sombra Thin"
    font-weight="400"
    font-stretch="normal"
    units-per-em="2048"
    panose-1="0 0 5 0 0 0 0 0 0 0"
    ascent="1638"
    descent="-410"
    x-height="995"
    cap-height="1352"
    bbox="-1112 -434 4149 2218"
    underline-thickness="159"
    underline-position="-320"
    unicode-range="U+0020-1F318"
  />
<missing-glyph horiz-adv-x="1765" 
d="M190 -410v2048h1385v-2048h-1385zM313 -287h1139v1803h-1139v-1803zM711 1062q-64 -81 -54 -208l-200 66q15 174 131 278q117 105 301 105q187 0 302 -104q114 -103 114 -273q0 -286 -314 -385v-176h-180v194q303 78 303 330q0 119 -60 185q-61 67 -167 67
q-113 0 -176 -79zM999 -74h-196v226h196v-226z" />
    <glyph glyph-name="fi" unicode="fi" horiz-adv-x="1204" 
d="M1042 0h-178v868h-415v-868h-177v868h-252v127h306q-75 22 -120 76q-44 53 -44 123q0 111 95 180q96 70 247 70q136 0 221 -53l-27 -160q-32 32 -83 52t-99 20q-84 0 -134 -42t-50 -112q0 -54 29 -95q30 -43 81 -59h600v-995zM856 1167v226h195v-226h-195z" />
    <glyph glyph-name="fl" unicode="fl" horiz-adv-x="1206" 
d="M257 1374q96 70 247 70q136 0 221 -53l-27 -160q-32 32 -83 52t-99 20q-84 0 -134 -42t-50 -112q0 -54 29 -95q30 -43 81 -59h256v-127h-249v-868h-177v868h-252v127h306q-75 22 -120 76q-44 53 -44 123q0 111 95 180zM866 0v1434h178v-1434h-178z" />
    <glyph glyph-name="f_b" unicode="fb" horiz-adv-x="1855" 
d="M257 1374q96 70 247 70q136 0 221 -53l-27 -160q-32 32 -83 52t-99 20q-84 0 -134 -42t-50 -112q0 -54 29 -95q30 -43 81 -59h256v-127h-249v-868h-177v868h-252v127h306q-75 22 -120 76q-44 53 -44 123q0 111 95 180zM1573 955q88 -64 136 -183q48 -118 48 -274
t-48 -275t-136 -183q-89 -65 -203 -65q-126 0 -208 79q-84 81 -118 225v-279h-178v1434h178v-717q34 143 118 224q82 79 208 79q114 0 203 -65zM1501 222q74 106 74 276q0 169 -74 275t-190 106q-119 0 -193 -104t-74 -277q0 -174 74 -278q73 -103 193 -103q117 0 190 105z
" />
    <glyph glyph-name="f_f" unicode="ff" horiz-adv-x="1308" 
d="M988 1261q-50 -42 -50 -112q0 -53 30 -95q30 -43 81 -59h256v-127h-250v-868h-176v868h-430v-868h-177v868h-252v127h306q-75 22 -120 76q-44 53 -44 123q0 111 95 180q96 70 247 70q136 0 221 -53l-27 -160q-32 32 -83 52t-99 20q-84 0 -134 -42t-50 -112q0 -54 29 -95
q30 -43 81 -59h490q-75 22 -120 76q-44 53 -44 123q0 111 95 180q96 70 247 70q136 0 221 -53l-26 -160q-32 32 -83 52t-100 20q-84 0 -134 -42z" />
    <glyph glyph-name="f_f_f" unicode="fff" horiz-adv-x="1908" 
d="M1588 1261q-50 -42 -50 -112q0 -53 30 -95q30 -43 81 -59h256v-127h-250v-868h-176v868h-430v-868h-177v868h-423v-868h-177v868h-252v127h306q-75 22 -120 76q-44 53 -44 123q0 111 95 180q96 70 247 70q136 0 221 -53l-27 -160q-32 32 -83 52t-99 20q-84 0 -134 -42
t-50 -112q0 -54 29 -95q30 -43 81 -59h484q-75 22 -120 76q-44 53 -44 123q0 111 95 180q96 70 247 70q136 0 221 -53l-27 -160q-32 32 -83 52t-99 20q-84 0 -134 -42t-50 -112q0 -53 30 -95q31 -43 80 -59h490q-75 22 -120 76q-44 53 -44 123q0 111 95 180q96 70 247 70
q136 0 221 -53l-26 -160q-32 32 -83 52t-100 20q-84 0 -134 -42z" />
    <glyph glyph-name="f_f_i" unicode="ffi" horiz-adv-x="1804" 
d="M1642 0h-178v868h-415v-868h-177v868h-423v-868h-177v868h-252v127h306q-75 22 -120 76q-44 53 -44 123q0 111 95 180q96 70 247 70q136 0 221 -53l-27 -160q-32 32 -83 52t-99 20q-84 0 -134 -42t-50 -112q0 -54 29 -95q30 -43 81 -59h484q-75 22 -120 76
q-44 53 -44 123q0 111 95 180q96 70 247 70q136 0 221 -53l-27 -160q-32 32 -83 52t-99 20q-84 0 -134 -42t-50 -112q0 -53 30 -95q31 -43 80 -59h600v-995zM1456 1167v226h195v-226h-195z" />
    <glyph glyph-name="f_h" unicode="fh" horiz-adv-x="1810" 
d="M257 1374q96 70 247 70q136 0 221 -53l-27 -160q-32 32 -83 52t-99 20q-84 0 -134 -42t-50 -112q0 -54 29 -95q30 -43 81 -59h256v-127h-249v-868h-177v868h-252v127h306q-75 22 -120 76q-44 53 -44 123q0 111 95 180zM1585 910q86 -110 86 -302v-608h-178v588
q0 139 -58 210q-59 72 -167 72q-107 0 -165 -73q-59 -74 -59 -209v-588h-178v1434h178v-658q33 117 111 180q79 64 193 64q151 0 237 -110z" />
    <glyph glyph-name="f_j" unicode="fj" horiz-adv-x="1204" 
d="M1042 -20q0 -190 -103 -292q-103 -101 -304 -106l-53 185q44 -7 71 -7q102 0 157 67q54 66 54 193v848h-415v-868h-177v868h-252v127h306q-75 22 -120 76q-44 53 -44 123q0 111 95 180q96 70 247 70q136 0 221 -53l-27 -160q-32 32 -83 52t-99 20q-84 0 -134 -42
t-50 -112q0 -54 29 -95q30 -43 81 -59h600v-1015zM858 1167v226h193v-226h-193z" />
    <glyph glyph-name="f_k" unicode="fk" horiz-adv-x="1751" 
d="M257 1374q96 70 247 70q136 0 221 -53l-27 -160q-32 32 -83 52t-99 20q-84 0 -134 -42t-50 -112q0 -54 29 -95q30 -43 81 -59h256v-127h-249v-868h-177v868h-252v127h306q-75 22 -120 76q-44 53 -44 123q0 111 95 180zM1731 0h-215l-332 451l-140 -146v-305h-178v1434
h178v-895l431 456h231l-403 -422z" />
    <glyph glyph-name="t_t" unicode="tt" horiz-adv-x="1376" 
d="M1327 25q-86 -50 -211 -50q-276 0 -276 279v614h-424v-587q0 -156 127 -156q92 0 153 70l31 -170q-89 -50 -213 -50q-274 0 -274 279v614h-226v127h54q114 0 160 42t46 147v114h162v-114q0 -92 -37 -135t-129 -54h398q114 0 160 42t46 147v114h164v-114q0 -95 -37 -136
q-38 -43 -131 -53h428v-127h-280v-585q0 -158 125 -158q91 0 155 70z" />
    <glyph glyph-name="f_t.liga" unicode="ft" horiz-adv-x="1409" 
d="M1360 25q-86 -50 -211 -50q-277 0 -277 279v614h-423v-868h-177v868h-252v127h306q-75 22 -120 76q-44 53 -44 123q0 111 95 180q96 70 247 70q136 0 221 -53l-27 -160q-32 32 -83 52t-99 20q-84 0 -134 -42t-50 -112q0 -54 29 -95q30 -43 81 -59h258q114 0 161 42
q46 42 46 147v114h164v-114q0 -95 -37 -136q-38 -43 -131 -53h428v-127h-280v-585q0 -158 125 -158q91 0 155 70z" />
    <glyph glyph-name=".notdef" horiz-adv-x="1765" 
d="M190 -410v2048h1385v-2048h-1385zM313 -287h1139v1803h-1139v-1803zM711 1062q-64 -81 -54 -208l-200 66q15 174 131 278q117 105 301 105q187 0 302 -104q114 -103 114 -273q0 -286 -314 -385v-176h-180v194q303 78 303 330q0 119 -60 185q-61 67 -167 67
q-113 0 -176 -79zM999 -74h-196v226h196v-226z" />
    <glyph glyph-name=".null" horiz-adv-x="0" 
 />
    <glyph glyph-name="nonmarkingreturn" horiz-adv-x="682" 
 />
    <glyph glyph-name="space" unicode=" " horiz-adv-x="501" 
 />
    <glyph glyph-name="exclam" unicode="!" horiz-adv-x="575" 
d="M199 1352h178l-10 -914h-158zM385 225v-225h-195v225h195z" />
    <glyph glyph-name="quotedbl" unicode="&#x22;" horiz-adv-x="817" 
d="M154 1352h178l-25 -449h-129zM485 1352h179l-25 -449h-129z" />
    <glyph glyph-name="numbersign" unicode="#" horiz-adv-x="1425" 
d="M1331 1020v-152h-276l-64 -342h260v-151h-288l-70 -375h-131l69 375h-382l-70 -375h-131l69 375h-237v151h266l64 342h-250v152h278l62 332h131l-62 -332h383l62 332h131l-62 -332h248zM477 526h383l64 342h-383z" />
    <glyph glyph-name="dollar" unicode="$" horiz-adv-x="1249" 
d="M998 84q-115 -97 -306 -109v-215h-127v217q-185 15 -298 115q-114 101 -132 262l197 66q5 -125 63 -195q59 -71 170 -86v477l-4 2q-200 79 -288 178q-87 98 -87 242q0 138 105 230q104 91 274 106v215h127v-217q163 -18 266 -116q103 -99 121 -252l-196 -66
q4 111 -45 181t-146 91v-440l17 -6q153 -60 240 -120q88 -61 125 -135q38 -76 38 -177q0 -152 -114 -248zM417 925q44 -50 148 -100v387q-88 -10 -139 -57t-51 -117q0 -65 42 -113zM692 135q105 12 169 65q63 52 63 132q0 72 -50 122q-49 49 -182 109v-428z" />
    <glyph glyph-name="percent" unicode="%" horiz-adv-x="2162" 
d="M218 618q-107 117 -107 316q0 129 49 227q50 100 137 153q89 54 205 54q175 0 283 -119t108 -315q0 -198 -108 -316t-283 -118q-176 0 -284 118zM793 0h-181l758 1352h180zM651 730q56 76 56 204q0 126 -56 202q-55 74 -149 74q-95 0 -150 -74t-55 -202q0 -130 55 -204
q56 -75 150 -75t149 75zM1377 104q-107 117 -107 316q0 129 49 227q50 100 137 153q88 54 205 54q176 0 284 -119q107 -117 107 -315q0 -199 -107 -316q-108 -118 -284 -118t-284 118zM1810 216q56 76 56 204q0 126 -56 202q-55 74 -149 74q-95 0 -150 -74t-55 -202
q0 -130 55 -204q55 -75 150 -75q93 0 149 75z" />
    <glyph glyph-name="ampersand" unicode="&#x26;" horiz-adv-x="1370" 
d="M1280 4q-70 -29 -152 -29q-276 0 -276 269v30q-30 -150 -112 -225q-82 -74 -214 -74q-115 0 -208 52q-90 50 -142 143q-51 92 -51 209q0 155 89 250q88 94 259 121q-311 40 -311 274q0 101 53 183q53 81 151 125q99 44 222 44q193 0 315 -103q123 -103 141 -276l-198 -63
q-1 130 -71 207q-69 76 -187 76q-105 0 -172 -59q-66 -58 -66 -154q0 -106 77 -175q76 -69 191 -69h635v-152h-219v-336q0 -147 119 -147q61 0 100 41zM778 225q74 91 74 264v119h-262q-277 0 -277 -235q0 -114 65 -176t185 -62q141 0 215 90z" />
    <glyph glyph-name="quotesingle" unicode="'" horiz-adv-x="485" 
d="M154 1352h178l-25 -449h-129z" />
    <glyph glyph-name="parenleft" unicode="(" horiz-adv-x="884" 
d="M829 1487q-161 -30 -280 -137t-182 -274q-64 -169 -64 -378q0 -208 64 -377q63 -167 182 -274t280 -137l-32 -174q-318 78 -496 331t-178 631q0 381 177 633q176 251 497 328z" />
    <glyph glyph-name="parenright" unicode=")" horiz-adv-x="884" 
d="M88 1659q321 -77 497 -328q177 -252 177 -633q0 -378 -178 -631t-496 -331l-33 174q162 30 281 137t182 274q64 169 64 377q0 209 -64 378q-63 167 -182 274t-281 137z" />
    <glyph glyph-name="asterisk" unicode="*" horiz-adv-x="827" 
d="M467 1038q68 -46 101 -75q46 -40 85 -93l-116 -88q-43 60 -63 107q-24 58 -40 117q-9 29 -20 61q-1 -4 -3.5 -13.5t-4.5 -14.5q-3 -9 -9 -25q-16 -63 -40 -122q-22 -55 -64 -110l-119 88q46 59 87 94q43 38 99 72l50 35l-117 -2q-104 0 -191 29l45 139q63 -22 109 -50
q21 -13 109 -75q45 -34 47 -35l-19 53q-26 66 -38 118q-13 55 -13 128h145q0 -73 -13 -128q-12 -52 -38 -118l-18 -53q31 22 49 37q70 53 103 73q45 28 110 50l47 -139q-87 -29 -190 -29l-117 2z" />
    <glyph glyph-name="plus" unicode="+" horiz-adv-x="1157" 
d="M659 756h369v-160h-369v-352h-163v352h-367v160h367v352h163v-352z" />
    <glyph glyph-name="comma" unicode="," horiz-adv-x="462" 
d="M299 238q57 -90 57 -185q0 -168 -153 -321l-142 43q127 130 127 270q0 102 -73 193h184z" />
    <glyph glyph-name="hyphen" unicode="-" horiz-adv-x="755" 
d="M80 453v159h596v-159h-596z" />
    <glyph glyph-name="period" unicode="." horiz-adv-x="475" 
d="M147 238h181v-238h-181v238z" />
    <glyph glyph-name="slash" unicode="/" horiz-adv-x="1003" 
d="M272 -123h-192l651 1598h193z" />
    <glyph glyph-name="zero" unicode="0" horiz-adv-x="1218" 
d="M342 58q-111 82 -172 241q-59 155 -59 377t59 377q60 158 172 240q113 83 266 83q156 0 268 -83q112 -84 172 -240q60 -157 60 -377t-60 -377q-60 -158 -172 -241t-268 -83q-153 0 -266 83zM839 276q81 141 81 400q0 258 -81 399q-82 142 -231 142q-146 0 -228 -142
q-81 -141 -81 -399q0 -259 81 -400t228 -141q150 0 231 141z" />
    <glyph glyph-name="one" unicode="1" horiz-adv-x="860" 
d="M670 1352v-1352h-183v1192q-27 -216 -140 -333q-114 -118 -296 -118v209q167 0 285 106q117 105 162 296h172z" />
    <glyph glyph-name="two" unicode="2" horiz-adv-x="1105" 
d="M795 503q-194 -203 -562 -343h750v-160h-877v147q333 184 516 394q181 208 181 407q0 123 -68 196t-182 73q-117 0 -183 -79q-67 -81 -67 -214q0 -28 4 -68l-201 66q-6 131 49 236t157 161q104 57 241 57q131 0 229 -52q99 -53 153 -148q54 -96 54 -222q0 -248 -194 -451
z" />
    <glyph glyph-name="three" unicode="3" horiz-adv-x="1128" 
d="M933 620q91 -101 91 -257q0 -116 -56 -203q-57 -88 -160 -136q-106 -49 -239 -49q-204 0 -336 103q-130 102 -147 272l199 66q2 -136 76 -208q76 -73 208 -73q122 0 195 65q72 64 72 173t-80 172q-79 63 -217 63h-129v152h129q115 0 188 64q74 65 74 167q0 100 -65 163
q-64 63 -167 63q-115 0 -182 -76q-69 -78 -70 -207l-198 65q18 171 141 274q122 103 309 103q121 0 217 -45q98 -46 150 -126q53 -82 53 -181q0 -237 -313 -274q166 -28 257 -130z" />
    <glyph glyph-name="four" unicode="4" horiz-adv-x="1124" 
d="M1071 471v-160h-194v-311h-183v311h-635v148q187 171 268 377q81 207 81 516h208q0 -291 -123 -519q-125 -233 -341 -362h542v350h183v-350h194z" />
    <glyph glyph-name="five" unicode="5" horiz-adv-x="1159" 
d="M871 834q88 -56 136 -158t48 -236q0 -214 -124 -339q-125 -126 -331 -126q-130 0 -238 51q-103 49 -164 140q-60 91 -65 205l201 65q-4 -136 68 -219q72 -82 198 -82q128 0 197 81t69 224q0 142 -68 219q-69 78 -192 78q-87 0 -156 -36t-106 -101l-178 66l37 686h801
v-160h-625l-31 -518q45 102 129 159q83 56 193 56q115 0 201 -55z" />
    <glyph glyph-name="six" unicode="6" horiz-adv-x="1153" 
d="M942 760q107 -124 107 -328q0 -134 -57 -238q-58 -105 -159 -161q-105 -58 -239 -58q-238 0 -361 179q-122 177 -122 524q0 338 126 521t357 183q156 0 269 -82q115 -83 155 -223l-191 -63q-16 94 -79 151q-64 58 -154 58q-142 0 -219 -140q-76 -139 -76 -401
q0 -77 6 -143q21 158 116 251t238 93q177 0 283 -123zM788 216q72 81 72 218q0 139 -69 218t-193 79q-126 0 -195 -79t-69 -218l-10 8l10 -8q0 -134 72 -216q72 -83 188 -83q122 0 194 81z" />
    <glyph glyph-name="seven" unicode="7" horiz-adv-x="1005" 
d="M10 1352h973v-146q-176 -141 -280 -300t-154 -366q-49 -203 -49 -483v-57h-207v57q0 408 146 679q147 273 452 456h-881v160z" />
    <glyph glyph-name="eight" unicode="8" horiz-adv-x="1175" 
d="M973 627q98 -99 98 -248q0 -118 -61 -209q-62 -92 -171 -143q-112 -52 -251 -52t-251 52q-109 51 -171 143t-62 209q0 149 99 250q99 100 266 127q-158 21 -240 94t-82 194q0 96 56 173q54 75 155 117t230 42q126 0 227 -42q102 -43 156 -117q55 -76 55 -173
q0 -121 -82 -194t-237 -94q167 -28 266 -129zM406 828q68 -62 182 -62q112 0 180 62q70 64 70 163q0 100 -69 163t-181 63q-113 0 -182 -63q-70 -64 -70 -163t70 -163zM801 203q82 67 82 174q0 106 -81 172q-80 65 -214 65t-214 -65q-81 -66 -81 -172q0 -109 82 -175
q84 -67 213 -67q130 0 213 68z" />
    <glyph glyph-name="nine" unicode="9" horiz-adv-x="1153" 
d="M920 1204q122 -177 122 -524q0 -338 -126 -521q-127 -184 -357 -184q-156 0 -269 82q-114 83 -155 224l191 63q16 -93 80 -151t153 -58q143 0 219 139t76 402q0 80 -6 143q-21 -158 -116 -251q-94 -93 -238 -93q-176 0 -283 123q-107 124 -107 328q0 134 57 238
q58 105 160 161q104 57 238 57q238 0 361 -178zM829 915l-10 9q0 135 -71 216q-72 83 -189 83q-122 0 -194 -81t-72 -218q0 -138 69 -218q69 -79 193 -79q126 0 195 79q69 80 69 218z" />
    <glyph glyph-name="colon" unicode=":" horiz-adv-x="475" 
d="M147 995h181v-237h-181v237zM147 238h181v-238h-181v238z" />
    <glyph glyph-name="semicolon" unicode=";" horiz-adv-x="462" 
d="M299 238q57 -90 57 -185q0 -168 -153 -321l-142 43q127 130 127 270q0 102 -73 193h184zM135 995h180v-237h-180v237z" />
    <glyph glyph-name="less" unicode="&#x3c;" horiz-adv-x="1157" 
d="M193 786l772 301v-174l-627 -239l627 -238v-172l-772 297v225z" />
    <glyph glyph-name="equal" unicode="=" horiz-adv-x="1157" 
d="M152 774v160h856v-160h-856zM152 418v160h856v-160h-856z" />
    <glyph glyph-name="greater" unicode="&#x3e;" horiz-adv-x="1157" 
d="M193 913v174l772 -301v-225l-772 -297v172l626 238z" />
    <glyph glyph-name="question" unicode="?" horiz-adv-x="999" 
d="M781 1273q114 -103 114 -274q0 -286 -313 -385v-176h-181v195q304 78 304 330q0 118 -61 185q-60 66 -167 66q-114 0 -176 -78q-63 -80 -53 -208l-201 65q15 175 131 279t301 104q189 0 302 -103zM590 0h-197v225h197v-225z" />
    <glyph glyph-name="at" unicode="@" horiz-adv-x="1873" 
d="M1355 1343q186 -114 291 -317q105 -202 105 -455q0 -224 -97 -346q-97 -123 -274 -123q-136 0 -213 76t-82 207q-44 -104 -119 -161q-76 -58 -171 -58q-116 0 -182 87t-66 239q0 128 45 232q45 103 124 163q78 59 177 59q98 0 157 -58t76 -167l29 205h150l-64 -424
q-6 -44 -6 -78q0 -89 41 -141t115 -52q99 0 156 87t57 243q0 216 -86 390q-85 172 -238 272q-150 98 -340 98q-195 0 -346 -97t-237 -274q-85 -174 -85 -401q0 -224 85 -398q85 -175 239 -273q152 -97 348 -97q110 0 208 34q100 35 165 91l26 -166q-156 -96 -389 -96
q-246 0 -433 113q-189 114 -294 318q-104 202 -104 470q0 267 103 474q103 208 289 323q187 116 423 116q229 0 417 -115zM986 323q55 45 86 119q32 78 32 166q0 104 -44 163q-43 58 -122 58q-68 0 -123 -43q-56 -44 -87 -117q-32 -76 -32 -167q0 -104 45 -164
q44 -59 125 -59q65 0 120 44z" />
    <glyph glyph-name="A" unicode="A" horiz-adv-x="1275" 
d="M1196 0h-192l-115 365h-500l-115 -365h-194l432 1352h252zM639 1169l-203 -653h406z" />
    <glyph glyph-name="B" unicode="B" horiz-adv-x="1312" 
d="M1078 637q91 -98 91 -258q0 -179 -121 -279t-337 -100h-521v1352h504q209 0 321 -83q111 -83 111 -237q0 -126 -78 -195q-79 -70 -227 -81q166 -21 257 -119zM373 1192v-432h299q135 0 202 53q66 53 66 162q0 111 -66 164q-67 53 -202 53h-299zM709 160q131 0 201 58
q71 59 71 167q0 109 -69 166t-203 57h-336v-448h336z" />
    <glyph glyph-name="C" unicode="C" horiz-adv-x="1347" 
d="M1225 459q-33 -230 -172 -357t-357 -127q-170 0 -300 87q-128 85 -201 247q-72 159 -72 369q0 208 72 366q73 160 201 245q130 87 300 87q221 0 357 -127q138 -129 172 -356l-197 -66q-7 179 -97 285q-88 105 -235 105q-111 0 -200 -68t-137 -191t-48 -282
q0 -160 48 -283q48 -122 137 -190t200 -68q146 0 235 106q90 106 97 283z" />
    <glyph glyph-name="D" unicode="D" horiz-adv-x="1325" 
d="M1048 1180q154 -172 154 -504t-154 -504t-454 -172h-404v1352h404q300 0 454 -172zM594 160q213 0 316 127q104 128 104 389t-104 389q-103 127 -316 127h-221v-1032h221z" />
    <glyph glyph-name="E" unicode="E" horiz-adv-x="1171" 
d="M1040 1352v-160h-667v-426h588v-152h-588v-454h667v-160h-850v1352h850z" />
    <glyph glyph-name="F" unicode="F" horiz-adv-x="1114" 
d="M1028 1352v-160h-655v-461h573v-151h-573v-580h-183v1352h838z" />
    <glyph glyph-name="G" unicode="G" horiz-adv-x="1382" 
d="M698 735h510v-735h-182v326q-57 -351 -367 -351q-158 0 -279 88q-123 90 -190 247q-67 158 -67 364q0 210 72 369t202 246t305 87q188 0 316 -97q129 -98 180 -275l-197 -66q-16 127 -97 203q-80 76 -208 76q-111 0 -200 -68t-137 -191t-48 -282t49 -281
q49 -121 137 -191q87 -69 199 -69q144 0 235 105q90 104 95 274v70h-328v151z" />
    <glyph glyph-name="H" unicode="H" horiz-adv-x="1376" 
d="M1004 764v588h182v-1352h-182v590h-631v-590h-183v1352h183v-588h631z" />
    <glyph glyph-name="I" unicode="I" horiz-adv-x="563" 
d="M373 0h-183v1352h183v-1352z" />
    <glyph glyph-name="J" unicode="J" horiz-adv-x="1122" 
d="M88 451l197 63q-29 -67 -29 -129q0 -115 69 -182q70 -68 183 -68q125 0 197 83q71 81 71 228v906h182v-906q0 -220 -118 -345q-118 -126 -328 -126q-123 0 -227 48q-100 46 -158 130q-57 82 -57 187q0 68 18 111z" />
    <glyph glyph-name="K" unicode="K" horiz-adv-x="1216" 
d="M1182 0h-217l-445 621l-147 -168v-453h-183v1352h183v-643l551 643h233l-518 -594z" />
    <glyph glyph-name="L" unicode="L" horiz-adv-x="1060" 
d="M373 1352v-1192h655v-160h-838v1352h183z" />
    <glyph glyph-name="M" unicode="M" horiz-adv-x="1708" 
d="M854 143l412 1209h252v-1352h-177v1075l-368 -1075h-238l-368 1079v-1079h-177v1352h252z" />
    <glyph glyph-name="N" unicode="N" horiz-adv-x="1386" 
d="M1016 221v1131h180v-1352h-252l-573 1130v-1130h-181v1352h252z" />
    <glyph glyph-name="O" unicode="O" horiz-adv-x="1394" 
d="M392 65q-130 88 -199 247q-70 161 -70 364q0 202 70 363q70 160 199 248q131 89 304 89q175 0 306 -89t200 -248q70 -161 70 -363q0 -203 -70 -364q-68 -158 -200 -247q-133 -90 -306 -90q-171 0 -304 90zM899 205q88 68 136 192q48 123 48 279q0 155 -48 278
q-49 125 -136 193q-90 70 -203 70t-201 -70t-136 -193t-48 -278q0 -156 48 -279q48 -122 136 -192t201 -70t203 70z" />
    <glyph glyph-name="P" unicode="P" horiz-adv-x="1263" 
d="M1032 1242q123 -111 123 -320q0 -207 -123 -318q-122 -110 -354 -110h-305v-494h-183v1352h488q230 1 354 -110zM655 645q157 0 235 67q77 66 77 206q0 138 -77 206t-235 68h-282v-547h282z" />
    <glyph glyph-name="Q" unicode="Q" horiz-adv-x="1398" 
d="M1343 -111q-113 45 -252 66q-134 20 -354 20q-287 0 -451 185q-163 184 -163 516q0 207 72 366q73 162 201 247q130 87 300 87q168 0 298 -85q131 -86 204 -238q74 -154 74 -351q0 -163 -57 -292q-58 -132 -155 -202q-100 -73 -226 -73h-7q157 0 268 -12t216 -39z
M360 395q49 -121 137 -191q87 -69 199 -69t201 69q88 68 137 191q49 122 49 281q0 158 -49 280q-50 124 -137 192q-89 69 -201 69q-110 0 -198 -69t-138 -192q-49 -122 -49 -280q0 -159 49 -281z" />
    <glyph glyph-name="R" unicode="R" horiz-adv-x="1294" 
d="M1155 0h-203q-10 36 -24 109q-8 45 -25 172q-12 94 -41 145q-28 49 -77 67q-45 17 -134 17h-278v-510h-183v1352h465q461 0 461 -361q0 -157 -81 -241q-82 -85 -244 -95q134 -21 203 -100q68 -79 91 -240q28 -222 70 -315zM373 1192v-531h260q156 0 225 63q70 64 70 204
t-69 202q-70 62 -226 62h-260z" />
    <glyph glyph-name="S" unicode="S" horiz-adv-x="1167" 
d="M283 420q6 -142 84 -214q79 -73 221 -73q131 0 209 54q77 53 77 145q0 59 -30 101q-28 40 -108 85q-73 41 -224 100q-200 79 -288 178q-87 98 -87 242q0 98 56 175t153 120q98 43 225 43q194 0 316 -100t143 -272l-196 -66q5 131 -65 205q-69 74 -198 74q-110 0 -178 -50
q-67 -49 -67 -129q0 -58 29 -99t102 -82t202 -93q155 -61 241 -120q88 -61 125 -135q38 -76 38 -177q0 -108 -59 -189q-60 -83 -167 -126q-109 -44 -249 -44q-214 0 -348 102q-133 102 -154 279z" />
    <glyph glyph-name="T" unicode="T" horiz-adv-x="1091" 
d="M55 1352h981v-160h-399v-1192h-182v1192h-400v160z" />
    <glyph glyph-name="U" unicode="U" horiz-adv-x="1310" 
d="M164 1352h182v-867q0 -163 83 -257q82 -93 226 -93q143 0 226 93q81 92 86 257v867h180v-867q0 -152 -61 -269q-59 -114 -172 -178q-111 -63 -259 -63t-259 63q-113 64 -172 178q-60 116 -60 269v867z" />
    <glyph glyph-name="V" unicode="V" horiz-adv-x="1241" 
d="M621 199l333 1153h193l-402 -1352h-249l-402 1352h193z" />
    <glyph glyph-name="W" unicode="W" horiz-adv-x="1974" 
d="M1378 197l287 1155h186l-346 -1352h-250l-268 1165l-268 -1165h-250l-346 1352h186l287 -1159l266 1159h250z" />
    <glyph glyph-name="X" unicode="X" horiz-adv-x="1267" 
d="M768 686l412 -686h-209l-336 575l-338 -575h-209l412 686l-387 666h209l313 -551l311 551h209z" />
    <glyph glyph-name="Y" unicode="Y" horiz-adv-x="1228" 
d="M614 715l344 637h207l-458 -838v-514h-183v514l-461 838h207z" />
    <glyph glyph-name="Z" unicode="Z" horiz-adv-x="1253" 
d="M1073 1104l-743 -944h762v-160h-930v248l743 944h-725v160h893v-248z" />
    <glyph glyph-name="bracketleft" unicode="[" horiz-adv-x="796" 
d="M741 1616v-137h-372v-1565h372v-137h-551v1839h551z" />
    <glyph glyph-name="backslash" unicode="\" horiz-adv-x="1003" 
d="M272 1475l652 -1598h-193l-651 1598h192z" />
    <glyph glyph-name="bracketright" unicode="]" horiz-adv-x="796" 
d="M55 1616h551v-1839h-551v137h373v1565h-373v137z" />
    <glyph glyph-name="asciicircum" unicode="^" horiz-adv-x="917" 
d="M567 1352l289 -512h-174l-223 405l-223 -405h-175l287 512h219z" />
    <glyph glyph-name="underscore" unicode="_" horiz-adv-x="1040" 
d="M80 -242v160h881v-160h-881z" />
    <glyph glyph-name="grave" unicode="`" horiz-adv-x="1277" 
d="M590 1438l264 -291l-158 -23l-274 287z" />
    <glyph glyph-name="a" unicode="a" horiz-adv-x="1046" 
d="M804 921q103 -99 103 -278v-643h-178v168q-29 -93 -106 -142q-80 -51 -195 -51q-143 0 -232 84q-90 85 -90 217q0 137 98 226q97 88 249 88q107 0 177 -48t99 -139v228q0 117 -55 182q-56 66 -156 66q-95 0 -152 -63t-57 -171l-184 62q16 145 122 229q105 84 271 84
q182 0 286 -99zM669 163q60 47 60 122q0 73 -60 118q-61 46 -159 46t-160 -47q-61 -46 -61 -117q0 -76 61 -122t160 -46q100 0 159 46z" />
    <glyph glyph-name="b" unicode="b" horiz-adv-x="1150" 
d="M868 955q89 -65 137 -183t48 -274t-48 -275q-48 -118 -137 -183t-202 -65q-126 0 -208 79q-84 81 -118 225v-279h-178v1434h178v-717q34 143 118 224q82 79 208 79q113 0 202 -65zM797 222q73 104 73 276q0 171 -73 275q-74 106 -191 106q-118 0 -192 -104t-74 -277
q0 -174 74 -278q73 -103 192 -103q118 0 191 105z" />
    <glyph glyph-name="c" unicode="c" horiz-adv-x="1058" 
d="M961 319q-21 -151 -135 -247q-115 -97 -277 -97q-135 0 -238 65q-102 64 -157 182q-56 120 -56 276t56 276t157 182q104 64 238 64q166 0 278 -94q113 -95 134 -246l-179 -59q-2 115 -67 186q-66 72 -166 72q-121 0 -195 -105q-73 -104 -73 -276q0 -171 73 -275t195 -104
q103 0 167 72t66 188z" />
    <glyph glyph-name="d" unicode="d" horiz-adv-x="1150" 
d="M811 1434h178v-1434h-178v279q-34 -144 -118 -225q-82 -79 -208 -79q-113 0 -202 65t-137 183q-48 119 -48 275t48 274t137 183t202 65q126 0 208 -79q84 -81 118 -224v717zM737 220q74 104 74 278q0 173 -74 277t-192 104q-117 0 -191 -106q-73 -104 -73 -275
q0 -172 73 -276q74 -105 191 -105q119 0 192 103z" />
    <glyph glyph-name="e" unicode="e" horiz-adv-x="1069" 
d="M281 463q8 -158 79 -252q72 -94 187 -94q98 0 164 70q64 69 69 184l176 -58q-21 -149 -134 -243q-115 -95 -275 -95q-133 0 -237 64q-100 61 -156 182q-56 120 -56 277q0 156 56 276q56 121 156 182q104 64 237 64q195 0 309 -123q115 -124 115 -326q0 -54 -8 -108h-682z
M784 590q-6 137 -68 212q-63 77 -169 77q-104 0 -173 -78t-87 -211h497z" />
    <glyph glyph-name="f" unicode="f" horiz-adv-x="702" 
d="M382 1261q-50 -42 -50 -112q0 -54 29 -95q30 -43 81 -59h256v-127h-249v-868h-177v868h-252v127h306q-75 22 -120 76q-44 53 -44 123q0 111 95 180q96 70 247 70q136 0 221 -53l-27 -160q-32 32 -83 52t-99 20q-84 0 -134 -42z" />
    <glyph glyph-name="g" unicode="g" horiz-adv-x="1003" 
d="M600 141q170 0 264 -75q97 -77 97 -209q0 -141 -116 -216q-115 -75 -333 -75q-207 0 -317 67q-111 67 -111 191q0 16 4 45l191 63q-9 -36 -9 -63q0 -81 63 -122q62 -40 191 -40q254 0 254 143q0 64 -47 99t-131 35h-156q-148 0 -234 47q-85 46 -85 129q0 121 215 151
q-113 34 -177 124q-63 89 -63 220q0 181 116 273t341 92q139 0 227 9q85 9 174 32l-26 -156q-153 -21 -283 -26q126 -21 180 -80q56 -61 56 -170q0 -157 -105 -249q-104 -91 -286 -91q-108 0 -158 -18q-49 -18 -49 -56q0 -74 157 -74h156zM340 818q-57 -60 -57 -163t56 -163
q57 -62 155 -62q95 0 152 60q56 59 56 165q0 102 -55 161q-57 62 -153 63q-96 0 -154 -61z" />
    <glyph glyph-name="h" unicode="h" horiz-adv-x="1105" 
d="M881 910q86 -110 86 -302v-608h-179v588q0 139 -58 210q-58 72 -167 72q-107 0 -165 -73t-58 -209v-588h-178v1434h178v-658q33 117 111 180q79 64 192 64q152 0 238 -110z" />
    <glyph glyph-name="i" unicode="i" horiz-adv-x="501" 
d="M154 1393h194v-226h-194v226zM162 995h178v-995h-178v995z" />
    <glyph glyph-name="j" unicode="j" horiz-adv-x="501" 
d="M156 1393h192v-226h-192v226zM-121 -233q44 -7 72 -7q102 0 157 67q54 66 54 193v975h178v-1015q0 -190 -103 -292q-103 -101 -305 -106z" />
    <glyph glyph-name="k" unicode="k" horiz-adv-x="1046" 
d="M1026 0h-215l-332 451l-139 -146v-305h-178v1434h178v-895l430 456h231l-403 -422z" />
    <glyph glyph-name="l" unicode="l" horiz-adv-x="501" 
d="M340 0h-178v1434h178v-1434z" />
    <glyph glyph-name="m" unicode="m" horiz-adv-x="1689" 
d="M1467 910q83 -110 83 -302v-608h-178v588q0 136 -55 209t-158 73t-158 -73t-55 -209v-588h-178v588q0 137 -56 209q-57 73 -159 73q-100 0 -157 -73q-56 -72 -56 -209v-588h-178v995h178v-217q30 116 106 178q78 64 187 64q116 0 193 -71q78 -72 106 -199q28 129 109 199
q82 71 198 71q145 0 228 -110z" />
    <glyph glyph-name="n" unicode="n" horiz-adv-x="1105" 
d="M881 910q86 -110 86 -302v-608h-179v588q0 139 -58 210q-58 72 -167 72q-107 0 -165 -73t-58 -209v-588h-178v995h178v-219q33 117 111 180q79 64 192 64q152 0 238 -110z" />
    <glyph glyph-name="o" unicode="o" horiz-adv-x="1097" 
d="M310 39q-100 61 -156 182q-56 120 -56 277q0 156 56 276q56 121 156 182q104 64 239 64q134 0 238 -64q101 -62 157 -182q55 -117 55 -276q0 -160 -55 -277q-56 -120 -157 -182q-104 -64 -238 -64q-135 0 -239 64zM743 223q74 106 74 275t-74 275t-194 106
q-121 0 -195 -106q-73 -104 -73 -275t73 -275t195 -104q121 0 194 104z" />
    <glyph glyph-name="p" unicode="p" horiz-adv-x="1150" 
d="M868 955q89 -65 137 -183t48 -274t-48 -275q-48 -118 -137 -183t-202 -65q-126 0 -208 79q-84 81 -118 225v-689h-178v1405h178v-278q34 143 118 224q82 79 208 79q113 0 202 -65zM797 222q73 104 73 276q0 171 -73 275q-74 106 -191 106q-118 0 -192 -104t-74 -277
q0 -174 74 -278q73 -103 192 -103q118 0 191 105z" />
    <glyph glyph-name="q" unicode="q" horiz-adv-x="1150" 
d="M811 995h178v-1405h-178v689q-34 -144 -118 -225q-82 -79 -208 -79q-113 0 -202 65t-137 183q-48 119 -48 275t48 274t137 183t202 65q126 0 208 -79q84 -81 118 -224v278zM737 220q74 104 74 278q0 173 -74 277t-192 104q-117 0 -191 -106q-73 -104 -73 -275
q0 -172 73 -276q74 -105 191 -105q119 0 192 103z" />
    <glyph glyph-name="r" unicode="r" horiz-adv-x="915" 
d="M816 937q69 -83 69 -220q0 -47 -13 -119l-190 -63q20 73 20 143q0 91 -38 141q-39 51 -111 51q-103 0 -157 -93q-55 -94 -56 -269v-508h-178v995h178v-247q30 132 104 202q75 70 185 70q118 0 187 -83z" />
    <glyph glyph-name="s" unicode="s" horiz-adv-x="950" 
d="M248 356q-2 -16 -2 -34q0 -101 59 -153t172 -52q95 0 148 35t53 94q0 53 -55 93q-52 38 -203 95q-182 70 -250 141q-70 73 -70 187q0 113 100 186q99 72 259 72q161 0 262 -80t113 -215l-172 -55q6 97 -47 153t-156 56q-79 0 -128 -32q-48 -31 -48 -85q0 -53 53 -92
q51 -38 190 -90q122 -44 201 -95q72 -47 102 -103q31 -59 31 -136q0 -121 -105 -196t-280 -75q-182 0 -287 84q-103 83 -114 238z" />
    <glyph glyph-name="t" unicode="t" horiz-adv-x="776" 
d="M727 25q-86 -50 -211 -50q-276 0 -276 279v614h-226v127h54q114 0 160 42t46 147v114h164v-114q0 -95 -37 -136q-38 -43 -131 -53h428v-127h-280v-585q0 -158 125 -158q91 0 155 70z" />
    <glyph glyph-name="u" unicode="u" horiz-adv-x="1085" 
d="M745 995h179v-995h-179v211q-33 -114 -108 -174q-77 -62 -184 -62q-146 0 -230 111t-84 303v606h178v-587q0 -138 57 -210q58 -73 158 -73q102 0 158 73q55 71 55 210v587z" />
    <glyph glyph-name="v" unicode="v" horiz-adv-x="1032" 
d="M516 162l268 833h187l-332 -995h-244l-334 995h187z" />
    <glyph glyph-name="w" unicode="w" horiz-adv-x="1622" 
d="M1137 174l213 821h178l-268 -995h-242l-207 819l-207 -819h-242l-268 995h178l213 -821l205 821h242z" />
    <glyph glyph-name="x" unicode="x" horiz-adv-x="1013" 
d="M637 498l315 -498h-202l-242 393l-244 -393h-203l316 498l-303 497h202l232 -389l229 389h203z" />
    <glyph glyph-name="y" unicode="y" horiz-adv-x="1013" 
d="M778 995h189l-349 -964q-63 -170 -124 -257q-67 -94 -158 -139q-93 -46 -232 -53l-53 185q44 -7 72 -7q110 0 191 67q79 65 126 204l17 47h-76l-334 917h189l272 -772z" />
    <glyph glyph-name="z" unicode="z" horiz-adv-x="923" 
d="M815 770l-551 -616h565v-154h-735v225l551 617h-539v153h709v-225z" />
    <glyph glyph-name="braceleft" unicode="{" horiz-adv-x="880" 
d="M548 -4q95 -74 277 -86l-32 -172q-240 24 -378 144q-139 121 -139 302q0 59 19 129q0 3 1.5 8.5t3 15.5t3.5 19q6 33 6 66q0 98 -60 152q-61 55 -171 55h-64v137h64q105 0 167 58t62 157q0 49 -14 102q-17 76 -17 127q0 181 139 302q138 120 378 147l32 -172
q-176 -11 -274 -86q-98 -76 -98 -203q0 -34 6 -64q2 -12 5 -24.5t3 -13.5q14 -49 14 -101q0 -200 -272 -237q134 -23 206 -105q72 -83 72 -211q0 -44 -8 -87q-4 -23 -10 -46q-16 -71 -16 -110q0 -129 95 -203z" />
    <glyph glyph-name="bar" unicode="|" horiz-adv-x="524" 
d="M334 -223h-144v1839h144v-1839z" />
    <glyph glyph-name="braceright" unicode="}" horiz-adv-x="880" 
d="M866 766v-137h-63q-103 0 -167 -59q-63 -58 -63 -156q0 -46 15 -103q16 -71 16 -127q0 -182 -138 -302q-137 -119 -378 -146l-33 172q177 11 275 86q98 76 98 203q0 34 -6 64q-2 12 -5 24.5t-3 13.5q-15 53 -15 100q0 201 273 238q-135 23 -206 104q-73 84 -73 211
q0 44 8 87q1 8 11 46q16 71 16 111q0 129 -95 203t-278 86l33 172q239 -24 378 -145q138 -120 138 -302q0 -63 -18 -129q0 -3 -1.5 -8.5t-3 -15.5t-3.5 -19q-7 -38 -7 -65q0 -98 61 -153q60 -54 171 -54h63z" />
    <glyph glyph-name="asciitilde" unicode="~" horiz-adv-x="1157" 
d="M104 573q18 117 94 187q75 69 181 69q68 0 117 -23q54 -25 120 -67q58 -37 94 -54q32 -15 64 -15q54 0 85 37q32 38 38 104l156 -29q-15 -117 -91 -187q-77 -71 -188 -71q-62 0 -117 25q-54 25 -114 67q-58 39 -89 54q-33 16 -69 16q-53 0 -86 -38q-32 -37 -37 -101z" />
    <glyph glyph-name="uni00A0" unicode="&#xa0;" horiz-adv-x="501" 
 />
    <glyph glyph-name="exclamdown" unicode="&#xa1;" horiz-adv-x="575" 
d="M190 995h195v-225h-195v225zM367 557l10 -913h-178l10 913h158z" />
    <glyph glyph-name="cent" unicode="&#xa2;" horiz-adv-x="1130" 
d="M651 303q81 21 127 88q48 69 49 166l179 -59q-18 -137 -115 -231q-95 -92 -240 -109v-219h-127v219q-174 24 -277 163q-102 138 -102 355t102 355q103 139 277 163v219h127v-219q143 -15 240 -107t115 -229l-179 -59q-1 95 -49 164q-46 67 -127 88v-748zM378 434
q54 -98 146 -127v740q-92 -29 -146 -127q-54 -99 -54 -244q0 -143 54 -242z" />
    <glyph glyph-name="sterling" unicode="&#xa3;" horiz-adv-x="1132" 
d="M1067 160v-160h-989v147q166 60 237 122q72 63 72 149q0 42 -12 71h-297v127h233l-12 17l-47 65q-50 68 -77 148q-28 82 -28 155q0 109 55 196q54 85 153 132q100 47 229 47q188 0 311 -102q122 -101 137 -277l-196 -63q0 128 -70 206q-69 77 -186 77q-107 0 -176 -63
q-68 -62 -68 -159q0 -108 115 -268l53 -74q13 -19 22 -37h369v-127h-322q2 -16 2 -36q0 -106 -95 -186q-93 -78 -257 -107h844z" />
    <glyph glyph-name="currency" unicode="&#xa4;" horiz-adv-x="1157" 
d="M879 461l231 -230l-90 -88l-229 230q-93 -64 -211 -64t-213 66l-230 -232l-90 88l229 232q-65 93 -65 213q0 118 63 209l-227 227l90 88l228 -227q94 67 215 67q118 0 215 -65l225 225l90 -88l-227 -227q63 -91 63 -209q0 -121 -67 -215zM420 518q63 -63 160 -63
q94 0 157 63q64 64 64 158q0 91 -64 155t-157 64q-96 0 -160 -64t-64 -155q0 -94 64 -158z" />
    <glyph glyph-name="yen" unicode="&#xa5;" horiz-adv-x="1318" 
d="M1014 1352h196l-407 -682h325v-127h-376v-101h376v-127h-376v-315h-183v315h-376v127h376v101h-376v127h325l-409 682h198l352 -604z" />
    <glyph glyph-name="brokenbar" unicode="&#xa6;" horiz-adv-x="524" 
d="M190 913v703h144v-703h-144zM334 -223h-144v702h144v-702z" />
    <glyph glyph-name="section" unicode="&#xa7;" horiz-adv-x="1042" 
d="M844 334q80 -78 80 -195q0 -137 -112 -217t-300 -80q-184 0 -300 81t-126 216l176 58q-8 -101 60 -159q67 -58 192 -58q108 0 170 42q61 42 61 115t-68 119q-71 48 -224 80q-189 40 -279 104q-88 63 -88 164q0 107 82 171q82 65 240 81q-149 33 -228 111q-80 78 -80 194
q0 133 108 215q107 82 281 82q170 0 280 -82q112 -83 122 -215l-176 -57q8 96 -56 157q-63 60 -174 60q-95 0 -151 -43q-58 -44 -58 -115q0 -73 69 -119q68 -46 224 -79q190 -40 281 -105q88 -63 88 -164q0 -107 -82 -171q-82 -65 -240 -81q150 -34 228 -110zM333 513
q68 -52 179 -52q109 0 179 53q69 52 69 137q0 83 -69 136q-70 53 -179 53q-108 0 -179 -54q-69 -52 -69 -137q0 -83 69 -136z" />
    <glyph glyph-name="dieresis" unicode="&#xa8;" horiz-adv-x="1277" 
d="M371 1384h188l2 -217h-188zM715 1384h188l2 -217h-188z" />
    <glyph glyph-name="copyright" unicode="&#xa9;" horiz-adv-x="1998" 
d="M1439 -83q200 118 319 320q118 200 118 441q0 236 -119 438q-118 201 -319 319q-198 117 -437 117q-243 0 -441 -117q-201 -118 -319 -319q-118 -200 -118 -438q0 -241 118 -441q119 -202 319 -320t441 -118q238 0 438 118zM626 27q-174 103 -276 275t-102 376
q0 202 102 374q101 170 276 274q171 101 375 101q202 0 373 -101q174 -103 275 -274q102 -172 102 -374q0 -204 -102 -376q-102 -173 -275 -275q-174 -103 -373 -103q-201 0 -375 103zM1352 545q-27 -144 -116 -224q-88 -79 -228 -79q-114 0 -199 54q-86 54 -134 153
t-48 227t48 227t134 153q85 54 199 54q141 0 229 -79t115 -226l-133 -45q-11 109 -66 170t-145 61q-104 0 -173 -89q-69 -88 -69 -226t69 -226q70 -90 173 -90q88 0 142 60t69 168z" />
    <glyph glyph-name="ordfeminine" unicode="&#xaa;" horiz-adv-x="925" 
d="M718 1280q95 -89 95 -246v-520h-178v164q-24 -84 -95 -131t-175 -47q-129 0 -208 67t-79 181q0 118 86 192t223 74q100 0 162 -40q64 -41 86 -116v168q0 95 -48 149t-132 54q-80 0 -128 -50q-49 -51 -51 -137l-184 64q22 122 118 192t245 70q169 0 263 -88zM583 670
q52 37 52 96q0 61 -51 97t-138 36q-86 0 -137 -36t-51 -97q0 -59 52 -96t136 -37q85 0 137 37z" />
    <glyph glyph-name="guillemotleft" unicode="&#xab;" horiz-adv-x="1236" 
d="M500 392q108 -94 151 -238l-176 -54q-41 134 -123 222q-81 87 -198 120v148q118 34 202 123q83 88 121 219l174 -53q-45 -145 -153 -239q-109 -96 -265 -124q158 -29 267 -124zM932 392q108 -94 151 -238l-176 -54q-41 134 -123 222q-81 87 -198 120v148q118 34 202 123
q83 88 121 219l174 -53q-45 -145 -153 -239q-109 -96 -264 -124q157 -28 266 -124z" />
    <glyph glyph-name="logicalnot" unicode="&#xac;" horiz-adv-x="1157" 
d="M162 596v160h835v-441h-153v281h-682z" />
    <glyph glyph-name="uni00AD" unicode="&#xad;" horiz-adv-x="755" 
d="M80 453v159h596v-159h-596z" />
    <glyph glyph-name="registered" unicode="&#xae;" horiz-adv-x="954" 
d="M668 1384q86 -51 137 -137t51 -188q0 -103 -51 -190t-138 -138t-188 -51q-103 0 -191 50q-87 49 -138 137q-52 89 -52 192q0 100 52 189q52 88 139 137q91 51 190 51q102 0 189 -52zM626 802q68 40 108 108t40 149q0 80 -40 148q-41 70 -108 109q-68 40 -147 40
q-80 0 -148 -40q-70 -41 -110 -109q-41 -70 -41 -148q0 -79 41 -149q39 -66 110 -108q68 -40 148 -40q79 0 147 40zM609 1024q23 -21 28 -66q6 -48 12 -71q7 -27 8 -31h-88q-9 33 -14 84q-6 55 -63 55h-82v-139h-82v406h176q68 0 105 -28q36 -27 36 -81q0 -92 -104 -104
q45 -4 68 -25zM410 1184v-133h82q67 0 67 67q0 66 -67 66h-82z" />
    <glyph glyph-name="macron" unicode="&#xaf;" horiz-adv-x="1277" 
d="M354 1178v127h570v-127h-570z" />
    <glyph glyph-name="degree" unicode="&#xb0;" horiz-adv-x="821" 
d="M249 829q-70 38 -111 106q-40 65 -40 150q0 82 41 149q40 66 112 104q71 38 157 38q87 0 160 -38q74 -38 114 -104q41 -67 41 -149q0 -83 -41 -151t-114 -106q-71 -37 -160 -37q-90 0 -159 38zM535 955q51 53 51 130q0 78 -50 128q-51 51 -128 51q-72 0 -122 -52
t-50 -127q0 -78 49 -130t123 -52q76 0 127 52z" />
    <glyph glyph-name="plusminus" unicode="&#xb1;" horiz-adv-x="1157" 
d="M657 1090v-209h320v-160h-320v-211h-159v211h-318v160h318v209h159zM977 262h-797v160h797v-160z" />
    <glyph glyph-name="uni00B2" unicode="&#xb2;" horiz-adv-x="841" 
d="M637 1033q-128 -100 -414 -161h535v-153h-686v135q235 85 373 197q137 111 137 223q0 65 -44 104q-43 39 -116 39q-86 0 -128 -54t-36 -149l-199 66q4 133 104 214q99 81 259 81q156 0 251 -80t95 -211q0 -149 -131 -251z" />
    <glyph glyph-name="uni00B3" unicode="&#xb3;" horiz-adv-x="841" 
d="M713 1117q71 -62 71 -159q0 -116 -98 -184q-99 -69 -260 -69q-158 0 -261 61q-104 62 -122 166l197 65q5 -68 52 -102q49 -35 134 -35q78 0 125 31q45 30 45 84q0 52 -49 80t-139 28h-97v121h97q71 0 119 31q46 30 46 78q0 47 -42 76q-41 28 -105 28q-75 0 -118 -37
q-45 -38 -46 -104l-196 65q21 108 117 170q99 64 243 64q91 0 169 -29t121 -78q44 -50 44 -110q0 -71 -62 -112t-188 -48q131 -18 203 -81z" />
    <glyph glyph-name="acute" unicode="&#xb4;" horiz-adv-x="1277" 
d="M580 1124l-158 23l266 291l166 -27z" />
    <glyph glyph-name="uni00B5" unicode="&#xb5;" horiz-adv-x="1105" 
d="M766 995h178v-995h-178v213q-32 -111 -106 -175q-72 -63 -173 -63q-102 0 -168 66v-451h-157v1405h176v-587q0 -137 56 -209q57 -74 159 -74t158 74q55 73 55 209v587z" />
    <glyph glyph-name="paragraph" unicode="&#xb6;" horiz-adv-x="1368" 
d="M224 1250q116 104 335 102h289v-1352h-182v547h-107q-219 0 -335 102q-115 102 -115 301q0 197 115 300zM997 0v1352h181v-1352h-181z" />
    <glyph glyph-name="periodcentered" unicode="&#xb7;" horiz-adv-x="475" 
d="M147 795h181v-238h-181v238z" />
    <glyph glyph-name="cedilla" unicode="&#xb8;" horiz-adv-x="1277" 
d="M670 -109q62 0 98 -33q37 -34 37 -85q0 -63 -54 -101q-53 -37 -145 -37q-91 0 -143 35l20 129q27 -24 52 -35q23 -10 57 -10q38 0 61 15t23 41q0 32 -36 53q-35 20 -103 28h-2l20 109h133z" />
    <glyph glyph-name="uni00B9" unicode="&#xb9;" horiz-adv-x="841" 
d="M539 872h249v-153h-737v153h305v584q-12 -182 -87 -271t-218 -89v211q249 0 316 252h172v-687z" />
    <glyph glyph-name="ordmasculine" unicode="&#xba;" horiz-adv-x="983" 
d="M194 617q-112 120 -112 317q0 196 112 316q111 118 298 118t298 -118t111 -316t-111 -317q-110 -117 -298 -117t-298 117zM656 723q65 83 65 211q0 131 -65 214t-164 83q-102 0 -167 -83t-65 -214q0 -128 65 -211q64 -82 167 -82q100 0 164 82z" />
    <glyph glyph-name="guillemotright" unicode="&#xbb;" horiz-adv-x="1263" 
d="M453 322q-83 -88 -123 -222l-176 54q43 144 151 238q109 96 266 124q-155 28 -264 124q-108 94 -153 239l174 53q38 -131 121 -219q84 -89 202 -123v-148q-117 -33 -198 -120zM786 932q38 -131 121 -219q84 -88 203 -123v-148q-118 -33 -199 -120q-83 -88 -123 -222
l-176 54q43 143 152 238q109 96 266 124q-155 28 -264 124t-154 239z" />
    <glyph glyph-name="onequarter" unicode="&#xbc;" horiz-adv-x="1794" 
d="M532 1352v-838h-182v735q-15 -179 -96 -269q-82 -91 -225 -91v211q125 0 212 66q85 65 119 186h172zM573 0h-180l758 1352h180zM1444 0v172h-461v137q134 72 194 198t60 331h215q0 -118 -50 -227q-48 -106 -138 -183q-86 -74 -195 -102h375v184h184v-184h135v-154h-135
v-172h-184z" />
    <glyph glyph-name="onehalf" unicode="&#xbd;" horiz-adv-x="1884" 
d="M532 1352v-838h-182v735q-15 -179 -96 -269q-82 -91 -225 -91v211q125 0 212 66q85 65 119 186h172zM573 0h-180l758 1352h180zM1675 311q-133 -100 -415 -157h538v-154h-690v135q242 84 378 195t136 223q0 65 -44 104t-118 39q-84 0 -128 -54q-44 -55 -38 -148l-198 65
q4 133 103 214t261 81q158 0 253 -80t95 -211q0 -152 -133 -252z" />
    <glyph glyph-name="threequarters" unicode="&#xbe;" horiz-adv-x="1947" 
d="M240 791q5 -67 52 -101q49 -35 134 -35q80 0 126 30t46 83q0 51 -50 80t-140 29h-97v120h97q71 0 119 31q46 30 46 78q0 47 -41 76q-40 28 -106 28q-76 0 -118 -36q-45 -38 -46 -105l-196 66q21 108 117 170q97 63 243 63q93 0 171 -29q79 -30 121 -77q44 -50 44 -111
q0 -142 -250 -160q130 -18 203 -80q71 -61 71 -159q0 -114 -99 -183t-261 -69q-156 0 -260 61q-105 61 -123 164zM727 0h-180l758 1352h180zM1597 0v172h-460v137q133 72 193 198q61 128 61 331h215q0 -116 -51 -227q-48 -106 -138 -183q-86 -75 -194 -102h374v184h185v-184
h135v-154h-135v-172h-185z" />
    <glyph glyph-name="questiondown" unicode="&#xbf;" horiz-adv-x="999" 
d="M410 995h196v-225h-196v225zM952 2q-15 -174 -131 -278q-117 -105 -301 -105q-189 0 -302 103q-114 104 -114 274q0 286 314 385v176h180v-195q-303 -78 -303 -329q0 -120 60 -186t167 -66q113 0 176 79q64 81 54 208z" />
    <glyph glyph-name="Agrave" unicode="&#xc0;" horiz-adv-x="1275" 
d="M1196 0h-192l-115 365h-500l-115 -365h-194l432 1352h252zM639 1169l-203 -653h406zM535 1747l294 -250l-174 -27l-305 248z" />
    <glyph glyph-name="Aacute" unicode="&#xc1;" horiz-adv-x="1275" 
d="M1196 0h-192l-115 365h-500l-115 -365h-194l432 1352h252zM639 1169l-203 -653h406zM664 1470l-175 27l295 250l185 -29z" />
    <glyph glyph-name="Acircumflex" unicode="&#xc2;" horiz-adv-x="1275" 
d="M1196 0h-192l-115 365h-500l-115 -365h-194l432 1352h252zM639 1169l-203 -653h406zM737 1731l283 -240l-174 -25l-187 158l-190 -158l-174 25l289 240h153z" />
    <glyph glyph-name="Atilde" unicode="&#xc3;" horiz-adv-x="1275" 
d="M1196 0h-192l-115 365h-500l-115 -365h-194l432 1352h252zM639 1169l-203 -653h406zM272 1499q7 111 62 167q52 54 155 54q48 0 93 -18q40 -16 112 -64q48 -31 71 -41t50 -10q48 0 69 30q22 31 23 99l131 -24q-7 -114 -61 -169q-53 -55 -158 -55q-47 0 -92 18
q-50 20 -113 62q-47 31 -69 41q-23 10 -51 10q-46 0 -67 -28q-23 -31 -24 -96z" />
    <glyph glyph-name="Adieresis" unicode="&#xc4;" horiz-adv-x="1275" 
d="M1196 0h-192l-115 365h-500l-115 -365h-194l432 1352h252zM639 1169l-203 -653h406zM375 1702h190l2 -205h-190zM745 1702h191l2 -205h-190z" />
    <glyph glyph-name="Aring" unicode="&#xc5;" horiz-adv-x="1275" 
d="M1196 0h-192l-115 365h-500l-115 -365h-194l432 1352h252zM639 1169l-203 -653h406zM492 1498q-62 57 -62 144t63 144t162 57q100 0 163 -57t63 -144q0 -86 -63 -143t-163 -57q-103 0 -163 56zM731 1568q31 31 31 74q0 45 -31 74t-76 29t-76 -29q-30 -28 -30 -74
q0 -43 31 -74q30 -30 75 -30q46 0 76 30z" />
    <glyph glyph-name="AE" unicode="&#xc6;" horiz-adv-x="1720" 
d="M1589 1352v-160h-721l76 -426h565v-152h-538l82 -454h536v-160h-692l-68 373h-458l-144 -373h-194l528 1352h1028zM684 1192l-256 -668h375z" />
    <glyph glyph-name="Ccedilla" unicode="&#xc7;" horiz-adv-x="1347" 
d="M931 241q90 106 97 283l197 -65q-30 -217 -160 -346q-129 -128 -334 -138l-14 -84q62 0 98 -33q37 -34 37 -85q0 -63 -54 -101q-53 -37 -145 -37q-90 0 -143 35l20 129q27 -24 52 -35q23 -10 57 -10q39 0 61 15q23 15 23 41q0 32 -36 53q-35 20 -103 28h-2l16 93
q-143 22 -251 114q-107 91 -166 242q-58 149 -58 338q0 208 72 366q73 160 201 245q130 87 300 87q221 0 357 -127q138 -129 172 -356l-197 -66q-7 179 -97 285q-88 105 -235 105q-111 0 -200 -68t-137 -191t-48 -282q0 -160 48 -283q48 -122 137 -190t200 -68
q146 0 235 106z" />
    <glyph glyph-name="Egrave" unicode="&#xc8;" horiz-adv-x="1171" 
d="M1040 1352v-160h-667v-426h588v-152h-588v-454h667v-160h-850v1352h850zM496 1747l295 -250l-175 -27l-305 248z" />
    <glyph glyph-name="Eacute" unicode="&#xc9;" horiz-adv-x="1171" 
d="M1040 1352v-160h-667v-426h588v-152h-588v-454h667v-160h-850v1352h850zM625 1470l-174 27l294 250l185 -29z" />
    <glyph glyph-name="Ecircumflex" unicode="&#xca;" horiz-adv-x="1171" 
d="M1040 1352v-160h-667v-426h588v-152h-588v-454h667v-160h-850v1352h850zM698 1731l283 -240l-174 -25l-186 158l-191 -158l-174 25l289 240h153z" />
    <glyph glyph-name="Edieresis" unicode="&#xcb;" horiz-adv-x="1171" 
d="M1040 1352v-160h-667v-426h588v-152h-588v-454h667v-160h-850v1352h850zM336 1702h190l2 -205h-190zM707 1702h190l2 -205h-190z" />
    <glyph glyph-name="Igrave" unicode="&#xcc;" horiz-adv-x="563" 
d="M373 0h-183v1352h183v-1352zM162 1747l295 -250l-174 -27l-306 248z" />
    <glyph glyph-name="Iacute" unicode="&#xcd;" horiz-adv-x="563" 
d="M373 0h-183v1352h183v-1352zM291 1470l-174 27l295 250l184 -29z" />
    <glyph glyph-name="Icircumflex" unicode="&#xce;" horiz-adv-x="563" 
d="M373 0h-183v1352h183v-1352zM365 1731l282 -240l-174 -25l-186 158l-191 -158l-174 25l289 240h154z" />
    <glyph glyph-name="Idieresis" unicode="&#xcf;" horiz-adv-x="563" 
d="M373 0h-183v1352h183v-1352zM2 1702h191l2 -205h-191zM373 1702h190l2 -205h-190z" />
    <glyph glyph-name="Eth" unicode="&#xd0;" horiz-adv-x="1353" 
d="M1076 1180q155 -173 155 -504t-155 -504q-154 -172 -453 -172h-404v633h-174v127h174v592h404q299 0 453 -172zM623 160q213 0 316 127t103 389t-103 389t-316 127h-222v-432h289v-127h-289v-473h222z" />
    <glyph glyph-name="Ntilde" unicode="&#xd1;" horiz-adv-x="1386" 
d="M1016 221v1131h180v-1352h-252l-573 1130v-1130h-181v1352h252zM311 1499q7 111 62 167q53 54 155 54q48 0 93 -18q40 -16 112 -64q48 -31 71 -41t50 -10q48 0 69 30q22 31 23 99l131 -24q-7 -114 -61 -169q-53 -55 -158 -55q-47 0 -92 18q-50 20 -113 62q-47 31 -69 41
q-23 10 -52 10q-45 0 -66 -28q-23 -31 -24 -96z" />
    <glyph glyph-name="Ograve" unicode="&#xd2;" horiz-adv-x="1394" 
d="M392 65q-130 88 -199 247q-70 161 -70 364q0 202 70 363q70 160 199 248q131 89 304 89q175 0 306 -89t200 -248q70 -161 70 -363q0 -203 -70 -364q-68 -158 -200 -247q-133 -90 -306 -90q-171 0 -304 90zM899 205q88 68 136 192q48 123 48 279q0 155 -48 278
q-49 125 -136 193q-90 70 -203 70t-201 -70t-136 -193t-48 -278q0 -156 48 -279q48 -122 136 -192t201 -70t203 70zM575 1747l295 -250l-174 -27l-305 248z" />
    <glyph glyph-name="Oacute" unicode="&#xd3;" horiz-adv-x="1394" 
d="M392 65q-130 88 -199 247q-70 161 -70 364q0 202 70 363q70 160 199 248q131 89 304 89q175 0 306 -89t200 -248q70 -161 70 -363q0 -203 -70 -364q-68 -158 -200 -247q-133 -90 -306 -90q-171 0 -304 90zM899 205q88 68 136 192q48 123 48 279q0 155 -48 278
q-49 125 -136 193q-90 70 -203 70t-201 -70t-136 -193t-48 -278q0 -156 48 -279q48 -122 136 -192t201 -70t203 70zM705 1470l-175 27l295 250l185 -29z" />
    <glyph glyph-name="Ocircumflex" unicode="&#xd4;" horiz-adv-x="1394" 
d="M392 65q-130 88 -199 247q-70 161 -70 364q0 202 70 363q70 160 199 248q131 89 304 89q175 0 306 -89t200 -248q70 -161 70 -363q0 -203 -70 -364q-68 -158 -200 -247q-133 -90 -306 -90q-171 0 -304 90zM899 205q88 68 136 192q48 123 48 279q0 155 -48 278
q-49 125 -136 193q-90 70 -203 70t-201 -70t-136 -193t-48 -278q0 -156 48 -279q48 -122 136 -192t201 -70t203 70zM778 1731l283 -240l-174 -25l-187 158l-190 -158l-174 25l289 240h153z" />
    <glyph glyph-name="Otilde" unicode="&#xd5;" horiz-adv-x="1394" 
d="M392 65q-130 88 -199 247q-70 161 -70 364q0 202 70 363q70 160 199 248q131 89 304 89q175 0 306 -89t200 -248q70 -161 70 -363q0 -203 -70 -364q-68 -158 -200 -247q-133 -90 -306 -90q-171 0 -304 90zM899 205q88 68 136 192q48 123 48 279q0 155 -48 278
q-49 125 -136 193q-90 70 -203 70t-201 -70t-136 -193t-48 -278q0 -156 48 -279q48 -122 136 -192t201 -70t203 70zM313 1499q7 111 62 167q53 54 155 54q48 0 93 -18q40 -16 112 -64q48 -31 71 -41t50 -10q48 0 69 30q22 31 23 99l131 -24q-7 -114 -61 -169
q-53 -55 -158 -55q-47 0 -92 18q-50 20 -113 62q-47 31 -69 41q-23 10 -51 10q-46 0 -67 -28q-23 -31 -24 -96z" />
    <glyph glyph-name="Odieresis" unicode="&#xd6;" horiz-adv-x="1394" 
d="M392 65q-130 88 -199 247q-70 161 -70 364q0 202 70 363q70 160 199 248q131 89 304 89q175 0 306 -89t200 -248q70 -161 70 -363q0 -203 -70 -364q-68 -158 -200 -247q-133 -90 -306 -90q-171 0 -304 90zM899 205q88 68 136 192q48 123 48 279q0 155 -48 278
q-49 125 -136 193q-90 70 -203 70t-201 -70t-136 -193t-48 -278q0 -156 48 -279q48 -122 136 -192t201 -70t203 70zM416 1702h190l2 -205h-190zM786 1702h191l2 -205h-191z" />
    <glyph glyph-name="multiply" unicode="&#xd7;" horiz-adv-x="1157" 
d="M895 1102l111 -111l-316 -315l316 -316l-111 -110l-315 315l-316 -315l-110 110l315 316l-315 315l110 111l316 -316z" />
    <glyph glyph-name="Oslash" unicode="&#xd8;" horiz-adv-x="1394" 
d="M1096 1204q87 -96 131 -229q45 -135 45 -299q0 -203 -70 -364q-68 -158 -200 -247q-133 -90 -306 -90q-164 0 -297 84l-86 -141h-149l137 225q-85 95 -132 231q-46 135 -46 302q0 202 70 363q70 160 199 248q131 89 304 89q170 0 301 -86l88 144h150zM401 311l506 830
q-91 76 -211 76q-113 0 -201 -70t-136 -193t-48 -278q0 -220 90 -365zM899 205q88 68 136 192q48 123 48 279q0 215 -90 362l-504 -829q91 -74 207 -74q113 0 203 70z" />
    <glyph glyph-name="Ugrave" unicode="&#xd9;" horiz-adv-x="1310" 
d="M164 1352h182v-867q0 -163 83 -257q82 -93 226 -93q143 0 226 93q81 92 86 257v867h180v-867q0 -152 -61 -269q-59 -114 -172 -178q-111 -63 -259 -63t-259 63q-113 64 -172 178q-60 116 -60 269v867zM535 1747l294 -250l-174 -27l-305 248z" />
    <glyph glyph-name="Uacute" unicode="&#xda;" horiz-adv-x="1310" 
d="M164 1352h182v-867q0 -163 83 -257q82 -93 226 -93q143 0 226 93q81 92 86 257v867h180v-867q0 -152 -61 -269q-59 -114 -172 -178q-111 -63 -259 -63t-259 63q-113 64 -172 178q-60 116 -60 269v867zM664 1470l-175 27l295 250l185 -29z" />
    <glyph glyph-name="Ucircumflex" unicode="&#xdb;" horiz-adv-x="1310" 
d="M164 1352h182v-867q0 -163 83 -257q82 -93 226 -93q143 0 226 93q81 92 86 257v867h180v-867q0 -152 -61 -269q-59 -114 -172 -178q-111 -63 -259 -63t-259 63q-113 64 -172 178q-60 116 -60 269v867zM737 1731l283 -240l-174 -25l-187 158l-190 -158l-174 25l289 240
h153z" />
    <glyph glyph-name="Udieresis" unicode="&#xdc;" horiz-adv-x="1310" 
d="M164 1352h182v-867q0 -163 83 -257q82 -93 226 -93q143 0 226 93q81 92 86 257v867h180v-867q0 -152 -61 -269q-59 -114 -172 -178q-111 -63 -259 -63t-259 63q-113 64 -172 178q-60 116 -60 269v867zM375 1702h190l2 -205h-190zM745 1702h191l2 -205h-190z" />
    <glyph glyph-name="Yacute" unicode="&#xdd;" horiz-adv-x="1228" 
d="M614 715l344 637h207l-458 -838v-514h-183v514l-461 838h207zM625 1470l-174 27l294 250l185 -29z" />
    <glyph glyph-name="Thorn" unicode="&#xde;" horiz-adv-x="1232" 
d="M649 1108q231 2 353 -108t122 -318q0 -207 -122 -315q-123 -109 -353 -109h-276v-258h-183v1352h183v-244h276zM627 410q157 0 234 66t77 206q0 139 -77 207q-76 67 -234 67h-254v-546h254z" />
    <glyph glyph-name="germandbls" unicode="&#xdf;" horiz-adv-x="1173" 
d="M972 668q103 -112 103 -285q0 -189 -111 -298q-112 -110 -305 -110q-138 0 -221 50l29 170q41 -38 89 -57q52 -21 106 -21q111 0 171 69t60 197q0 136 -81 205t-237 69h-81v152h55q106 0 177 73t71 181q0 114 -62 184t-164 70q-106 0 -169 -75q-62 -74 -62 -202v-1040
h-178v1040q0 202 105 310t300 108q185 0 298 -98q114 -99 114 -260q0 -121 -75 -199q-74 -77 -210 -98q175 -23 278 -135z" />
    <glyph glyph-name="agrave" unicode="&#xe0;" horiz-adv-x="1046" 
d="M804 921q103 -99 103 -278v-643h-178v168q-29 -93 -106 -142q-80 -51 -195 -51q-143 0 -232 84q-90 85 -90 217q0 137 98 226q97 88 249 88q107 0 177 -48t99 -139v228q0 117 -55 182q-56 66 -156 66q-95 0 -152 -63t-57 -171l-184 62q16 145 122 229q105 84 271 84
q182 0 286 -99zM669 163q60 47 60 122q0 73 -60 118q-61 46 -159 46t-160 -47q-61 -46 -61 -117q0 -76 61 -122t160 -46q100 0 159 46zM408 1438l264 -291l-158 -23l-274 287z" />
    <glyph glyph-name="aacute" unicode="&#xe1;" horiz-adv-x="1046" 
d="M804 921q103 -99 103 -278v-643h-178v168q-29 -93 -106 -142q-80 -51 -195 -51q-143 0 -232 84q-90 85 -90 217q0 137 98 226q97 88 249 88q107 0 177 -48t99 -139v228q0 117 -55 182q-56 66 -156 66q-95 0 -152 -63t-57 -171l-184 62q16 145 122 229q105 84 271 84
q182 0 286 -99zM669 163q60 47 60 122q0 73 -60 118q-61 46 -159 46t-160 -47q-61 -46 -61 -117q0 -76 61 -122t160 -46q100 0 159 46zM514 1124l-158 23l267 291l165 -27z" />
    <glyph glyph-name="acircumflex" unicode="&#xe2;" horiz-adv-x="1046" 
d="M804 921q103 -99 103 -278v-643h-178v168q-29 -93 -106 -142q-80 -51 -195 -51q-143 0 -232 84q-90 85 -90 217q0 137 98 226q97 88 249 88q107 0 177 -48t99 -139v228q0 117 -55 182q-56 66 -156 66q-95 0 -152 -63t-57 -171l-184 62q16 145 122 229q105 84 271 84
q182 0 286 -99zM669 163q60 47 60 122q0 73 -60 118q-61 46 -159 46t-160 -47q-61 -46 -61 -117q0 -76 61 -122t160 -46q100 0 159 46zM592 1425l260 -282l-154 -23l-180 189l-184 -189l-156 23l268 282h146z" />
    <glyph glyph-name="atilde" unicode="&#xe3;" horiz-adv-x="1046" 
d="M804 921q103 -99 103 -278v-643h-178v168q-29 -93 -106 -142q-80 -51 -195 -51q-143 0 -232 84q-90 85 -90 217q0 137 98 226q97 88 249 88q107 0 177 -48t99 -139v228q0 117 -55 182q-56 66 -156 66q-95 0 -152 -63t-57 -171l-184 62q16 145 122 229q105 84 271 84
q182 0 286 -99zM669 163q60 47 60 122q0 73 -60 118q-61 46 -159 46t-160 -47q-61 -46 -61 -117q0 -76 61 -122t160 -46q100 0 159 46zM174 1157q5 124 56 186q53 64 149 64q51 0 88 -19q35 -18 88 -71q34 -38 53 -52q22 -16 43 -16q74 0 74 154l131 -23q-5 -123 -55 -187
q-51 -65 -146 -65q-50 0 -90 19q-36 17 -90 76q-30 32 -54 51q-18 14 -44 14q-36 0 -54 -37t-18 -116z" />
    <glyph glyph-name="adieresis" unicode="&#xe4;" horiz-adv-x="1046" 
d="M804 921q103 -99 103 -278v-643h-178v168q-29 -93 -106 -142q-80 -51 -195 -51q-143 0 -232 84q-90 85 -90 217q0 137 98 226q97 88 249 88q107 0 177 -48t99 -139v228q0 117 -55 182q-56 66 -156 66q-95 0 -152 -63t-57 -171l-184 62q16 145 122 229q105 84 271 84
q182 0 286 -99zM669 163q60 47 60 122q0 73 -60 118q-61 46 -159 46t-160 -47q-61 -46 -61 -117q0 -76 61 -122t160 -46q100 0 159 46zM246 1384h188l2 -217h-188zM590 1384h188l2 -217h-188z" />
    <glyph glyph-name="aring" unicode="&#xe5;" horiz-adv-x="1046" 
d="M804 921q103 -99 103 -278v-643h-178v168q-29 -93 -106 -142q-80 -51 -195 -51q-143 0 -232 84q-90 85 -90 217q0 137 98 226q97 88 249 88q107 0 177 -48t99 -139v228q0 117 -55 182q-56 66 -156 66q-95 0 -152 -63t-57 -171l-184 62q16 145 122 229q105 84 271 84
q182 0 286 -99zM669 163q60 47 60 122q0 73 -60 118q-61 46 -159 46t-160 -47q-61 -46 -61 -117q0 -76 61 -122t160 -46q100 0 159 46zM346 1162q-61 57 -61 145q0 87 62 143q63 57 163 57t163 -57q62 -56 62 -143q0 -88 -62 -144q-63 -57 -163 -57q-104 0 -164 56z
M586 1232q30 30 30 75t-30 73q-31 29 -76 29q-46 0 -77 -29q-30 -28 -30 -73q0 -44 31 -75q30 -30 76 -30t76 30z" />
    <glyph glyph-name="ae" unicode="&#xe6;" horiz-adv-x="1699" 
d="M911 463q7 -157 80 -252q72 -94 187 -94q100 0 164 70t69 184l176 -58q-21 -151 -135 -244q-115 -94 -281 -94q-142 0 -247 75t-156 208q-7 -133 -101 -208q-93 -75 -239 -75q-143 0 -232 84q-90 85 -90 217q0 137 98 226q97 88 249 88q107 0 178 -49q70 -48 98 -142v232
q0 117 -55 182q-56 66 -156 66q-95 0 -152 -63t-57 -171l-184 62q16 145 122 229q105 84 271 84t266 -82q101 -83 119 -229q33 153 115 232t211 79q111 0 195 -56q85 -56 131 -158q47 -103 47 -235q0 -49 -9 -108h-682zM1415 590q-6 137 -68 212q-63 77 -169 77
q-104 0 -173 -77q-69 -76 -87 -212h497zM669 163q60 47 60 122q0 73 -60 118q-61 46 -159 46t-160 -47q-61 -46 -61 -117q0 -76 61 -122t160 -46q100 0 159 46z" />
    <glyph glyph-name="ccedilla" unicode="&#xe7;" horiz-adv-x="1058" 
d="M716 191q64 72 66 188l179 -60q-18 -134 -113 -228q-94 -93 -236 -111l-14 -89q62 0 98 -33q37 -34 37 -85q0 -63 -54 -101q-53 -37 -144 -37q-92 0 -144 35l21 129q28 -25 51 -35t57 -10q40 0 62 15t22 41q0 32 -36 53q-35 20 -103 28h-2l16 89q-176 24 -278 162
q-103 139 -103 356q0 156 56 276t157 182q104 64 238 64q166 0 278 -94q113 -95 134 -246l-179 -59q-2 115 -67 186q-66 72 -166 72q-121 0 -195 -105q-73 -104 -73 -276q0 -171 73 -275t195 -104q103 0 167 72z" />
    <glyph glyph-name="egrave" unicode="&#xe8;" horiz-adv-x="1069" 
d="M281 463q8 -158 79 -252q72 -94 187 -94q98 0 164 70q64 69 69 184l176 -58q-21 -149 -134 -243q-115 -95 -275 -95q-133 0 -237 64q-100 61 -156 182q-56 120 -56 277q0 156 56 276q56 121 156 182q104 64 237 64q195 0 309 -123q115 -124 115 -326q0 -54 -8 -108h-682z
M784 590q-6 137 -68 212q-63 77 -169 77q-104 0 -173 -78t-87 -211h497zM440 1438l265 -291l-158 -23l-275 287z" />
    <glyph glyph-name="eacute" unicode="&#xe9;" horiz-adv-x="1069" 
d="M281 463q8 -158 79 -252q72 -94 187 -94q98 0 164 70q64 69 69 184l176 -58q-21 -149 -134 -243q-115 -95 -275 -95q-133 0 -237 64q-100 61 -156 182q-56 120 -56 277q0 156 56 276q56 121 156 182q104 64 237 64q195 0 309 -123q115 -124 115 -326q0 -54 -8 -108h-682z
M784 590q-6 137 -68 212q-63 77 -169 77q-104 0 -173 -78t-87 -211h497zM547 1124l-158 23l266 291l166 -27z" />
    <glyph glyph-name="ecircumflex" unicode="&#xea;" horiz-adv-x="1069" 
d="M281 463q8 -158 79 -252q72 -94 187 -94q98 0 164 70q64 69 69 184l176 -58q-21 -149 -134 -243q-115 -95 -275 -95q-133 0 -237 64q-100 61 -156 182q-56 120 -56 277q0 156 56 276q56 121 156 182q104 64 237 64q195 0 309 -123q115 -124 115 -326q0 -54 -8 -108h-682z
M784 590q-6 137 -68 212q-63 77 -169 77q-104 0 -173 -78t-87 -211h497zM625 1425l260 -282l-154 -23l-180 189l-184 -189l-156 23l268 282h146z" />
    <glyph glyph-name="edieresis" unicode="&#xeb;" horiz-adv-x="1069" 
d="M281 463q8 -158 79 -252q72 -94 187 -94q98 0 164 70q64 69 69 184l176 -58q-21 -149 -134 -243q-115 -95 -275 -95q-133 0 -237 64q-100 61 -156 182q-56 120 -56 277q0 156 56 276q56 121 156 182q104 64 237 64q195 0 309 -123q115 -124 115 -326q0 -54 -8 -108h-682z
M784 590q-6 137 -68 212q-63 77 -169 77q-104 0 -173 -78t-87 -211h497zM279 1384h188l2 -217h-188zM623 1384h188l2 -217h-188z" />
    <glyph glyph-name="igrave" unicode="&#xec;" horiz-adv-x="518" 
d="M170 995h178v-995h-178v995zM154 1438l264 -291l-158 -23l-274 287z" />
    <glyph glyph-name="iacute" unicode="&#xed;" horiz-adv-x="518" 
d="M170 995h178v-995h-178v995zM260 1124l-158 23l267 291l166 -27z" />
    <glyph glyph-name="icircumflex" unicode="&#xee;" horiz-adv-x="518" 
d="M170 995h178v-995h-178v995zM338 1425l260 -282l-154 -23l-180 189l-184 -189l-156 23l269 282h145z" />
    <glyph glyph-name="idieresis" unicode="&#xef;" horiz-adv-x="518" 
d="M170 995h178v-995h-178v995zM-8 1384h188l2 -217h-188zM336 1384h188l2 -217h-188z" />
    <glyph glyph-name="eth" unicode="&#xf0;" horiz-adv-x="1140" 
d="M988 890q34 -117 34 -272q0 -310 -128 -477q-127 -166 -362 -166q-198 0 -316 124t-118 333q0 137 49 241q50 106 138 164t198 58q145 0 239 -94q96 -96 112 -252q6 47 6 100q0 278 -187 463l-342 -121v135l228 80q-143 97 -375 170l227 82q193 -78 326 -180l284 100
v-135l-176 -63q40 -46 58 -70q70 -99 105 -220zM817 449v2l-12 -11q0 150 -69 232t-193 82t-193 -83t-69 -229q0 -148 69 -237q69 -88 189 -88q124 0 195 86t71 237z" />
    <glyph glyph-name="ntilde" unicode="&#xf1;" horiz-adv-x="1105" 
d="M881 910q86 -110 86 -302v-608h-179v588q0 139 -58 210q-58 72 -167 72q-107 0 -165 -73t-58 -209v-588h-178v995h178v-219q33 117 111 180q79 64 192 64q152 0 238 -110zM223 1157q5 123 57 186q53 64 148 64q51 0 88 -19q35 -18 88 -71q34 -38 53 -52q22 -16 43 -16
q74 0 74 154l131 -23q-5 -123 -55 -187q-51 -65 -145 -65q-51 0 -91 19q-36 17 -90 76q-30 32 -54 51q-18 14 -44 14q-36 0 -54 -37t-18 -116z" />
    <glyph glyph-name="ograve" unicode="&#xf2;" horiz-adv-x="1097" 
d="M310 39q-100 61 -156 182q-56 120 -56 277q0 156 56 276q56 121 156 182q104 64 239 64q134 0 238 -64q101 -62 157 -182q55 -117 55 -276q0 -160 -55 -277q-56 -120 -157 -182q-104 -64 -238 -64q-135 0 -239 64zM743 223q74 106 74 275t-74 275t-194 106
q-121 0 -195 -106q-73 -104 -73 -275t73 -275t195 -104q121 0 194 104zM442 1438l265 -291l-158 -23l-275 287z" />
    <glyph glyph-name="oacute" unicode="&#xf3;" horiz-adv-x="1097" 
d="M310 39q-100 61 -156 182q-56 120 -56 277q0 156 56 276q56 121 156 182q104 64 239 64q134 0 238 -64q101 -62 157 -182q55 -117 55 -276q0 -160 -55 -277q-56 -120 -157 -182q-104 -64 -238 -64q-135 0 -239 64zM743 223q74 106 74 275t-74 275t-194 106
q-121 0 -195 -106q-73 -104 -73 -275t73 -275t195 -104q121 0 194 104zM549 1124l-158 23l266 291l166 -27z" />
    <glyph glyph-name="ocircumflex" unicode="&#xf4;" horiz-adv-x="1097" 
d="M310 39q-100 61 -156 182q-56 120 -56 277q0 156 56 276q56 121 156 182q104 64 239 64q134 0 238 -64q101 -62 157 -182q55 -117 55 -276q0 -160 -55 -277q-56 -120 -157 -182q-104 -64 -238 -64q-135 0 -239 64zM743 223q74 106 74 275t-74 275t-194 106
q-121 0 -195 -106q-73 -104 -73 -275t73 -275t195 -104q121 0 194 104zM627 1425l260 -282l-154 -23l-180 189l-184 -189l-156 23l268 282h146z" />
    <glyph glyph-name="otilde" unicode="&#xf5;" horiz-adv-x="1097" 
d="M310 39q-100 61 -156 182q-56 120 -56 277q0 156 56 276q56 121 156 182q104 64 239 64q134 0 238 -64q101 -62 157 -182q55 -117 55 -276q0 -160 -55 -277q-56 -120 -157 -182q-104 -64 -238 -64q-135 0 -239 64zM743 223q74 106 74 275t-74 275t-194 106
q-121 0 -195 -106q-73 -104 -73 -275t73 -275t195 -104q121 0 194 104zM209 1157q5 124 56 186q53 64 149 64q51 0 88 -19q35 -18 88 -71q34 -38 53 -52q22 -16 43 -16q74 0 74 154l131 -23q-5 -123 -55 -187q-51 -65 -146 -65q-50 0 -90 19q-36 17 -90 76q-30 32 -54 51
q-18 14 -44 14q-37 0 -55 -37q-17 -35 -17 -116z" />
    <glyph glyph-name="odieresis" unicode="&#xf6;" horiz-adv-x="1097" 
d="M310 39q-100 61 -156 182q-56 120 -56 277q0 156 56 276q56 121 156 182q104 64 239 64q134 0 238 -64q101 -62 157 -182q55 -117 55 -276q0 -160 -55 -277q-56 -120 -157 -182q-104 -64 -238 -64q-135 0 -239 64zM743 223q74 106 74 275t-74 275t-194 106
q-121 0 -195 -106q-73 -104 -73 -275t73 -275t195 -104q121 0 194 104zM281 1384h188l2 -217h-188zM625 1384h188l2 -217h-188z" />
    <glyph glyph-name="divide" unicode="&#xf7;" horiz-adv-x="1157" 
d="M494 1090h172v-226h-172v226zM129 596v160h899v-160h-899zM494 487h172v-225h-172v225z" />
    <glyph glyph-name="oslash" unicode="&#xf8;" horiz-adv-x="1097" 
d="M866 891q65 -68 100 -170q33 -96 33 -223q0 -160 -55 -277q-56 -120 -157 -182q-104 -64 -238 -64q-113 0 -211 48l-64 -105h-151l113 182q-138 146 -138 398q0 156 56 276q56 121 156 182q104 64 239 64q118 0 217 -51l65 108h150zM332 260l352 576q-62 43 -135 43
q-121 0 -195 -106q-73 -104 -73 -275q0 -139 51 -238zM743 223q74 106 74 275q0 140 -49 231l-348 -571q60 -39 129 -39q121 0 194 104z" />
    <glyph glyph-name="ugrave" unicode="&#xf9;" horiz-adv-x="1085" 
d="M745 995h179v-995h-179v211q-33 -114 -108 -174q-77 -62 -184 -62q-146 0 -230 111t-84 303v606h178v-587q0 -138 57 -210q58 -73 158 -73q102 0 158 73q55 71 55 210v587zM426 1438l264 -291l-158 -23l-274 287z" />
    <glyph glyph-name="uacute" unicode="&#xfa;" horiz-adv-x="1085" 
d="M745 995h179v-995h-179v211q-33 -114 -108 -174q-77 -62 -184 -62q-146 0 -230 111t-84 303v606h178v-587q0 -138 57 -210q58 -73 158 -73q102 0 158 73q55 71 55 210v587zM532 1124l-157 23l266 291l166 -27z" />
    <glyph glyph-name="ucircumflex" unicode="&#xfb;" horiz-adv-x="1085" 
d="M745 995h179v-995h-179v211q-33 -114 -108 -174q-77 -62 -184 -62q-146 0 -230 111t-84 303v606h178v-587q0 -138 57 -210q58 -73 158 -73q102 0 158 73q55 71 55 210v587zM610 1425l260 -282l-153 -23l-180 189l-185 -189l-155 23l268 282h145z" />
    <glyph glyph-name="udieresis" unicode="&#xfc;" horiz-adv-x="1085" 
d="M745 995h179v-995h-179v211q-33 -114 -108 -174q-77 -62 -184 -62q-146 0 -230 111t-84 303v606h178v-587q0 -138 57 -210q58 -73 158 -73q102 0 158 73q55 71 55 210v587zM264 1384h189l2 -217h-189zM608 1384h189l2 -217h-189z" />
    <glyph glyph-name="yacute" unicode="&#xfd;" horiz-adv-x="1013" 
d="M778 995h189l-349 -964q-63 -170 -124 -257q-67 -94 -158 -139q-93 -46 -232 -53l-53 185q44 -7 72 -7q110 0 191 67q79 65 126 204l17 47h-76l-334 917h189l272 -772zM524 1124l-157 23l266 291l166 -27z" />
    <glyph glyph-name="thorn" unicode="&#xfe;" horiz-adv-x="1150" 
d="M868 955q89 -65 137 -183t48 -274t-48 -275q-48 -118 -137 -183t-202 -65q-126 0 -208 79q-84 81 -118 225v-689h-178v1848h178v-721q34 143 118 224q82 79 208 79q113 0 202 -65zM797 222q73 104 73 276q0 171 -73 275q-74 106 -191 106q-118 0 -192 -104t-74 -277
q0 -174 74 -278q73 -103 192 -103q118 0 191 105z" />
    <glyph glyph-name="ydieresis" unicode="&#xff;" horiz-adv-x="1013" 
d="M778 995h189l-349 -964q-63 -170 -124 -257q-67 -94 -158 -139q-93 -46 -232 -53l-53 185q44 -7 72 -7q110 0 191 67q79 65 126 204l17 47h-76l-334 917h189l272 -772zM256 1384h188l2 -217h-188zM600 1384h188l3 -217h-189z" />
    <glyph glyph-name="Amacron" unicode="&#x100;" horiz-adv-x="1275" 
d="M1196 0h-192l-115 365h-500l-115 -365h-194l432 1352h252zM639 1169l-203 -653h406zM340 1507v127h631v-127h-631z" />
    <glyph glyph-name="amacron" unicode="&#x101;" horiz-adv-x="1046" 
d="M804 921q103 -99 103 -278v-643h-178v168q-29 -93 -106 -142q-80 -51 -195 -51q-143 0 -232 84q-90 85 -90 217q0 137 98 226q97 88 249 88q107 0 177 -48t99 -139v228q0 117 -55 182q-56 66 -156 66q-95 0 -152 -63t-57 -171l-184 62q16 145 122 229q105 84 271 84
q182 0 286 -99zM669 163q60 47 60 122q0 73 -60 118q-61 46 -159 46t-160 -47q-61 -46 -61 -117q0 -76 61 -122t160 -46q100 0 159 46zM229 1178v127h570v-127h-570z" />
    <glyph glyph-name="Abreve" unicode="&#x102;" horiz-adv-x="1275" 
d="M1196 0h-192l-115 365h-500l-115 -365h-194l432 1352h252zM639 1169l-203 -653h406zM997 1714q-33 -239 -342 -239q-310 0 -340 239l146 23q12 -144 194 -144q185 0 197 144z" />
    <glyph glyph-name="abreve" unicode="&#x103;" horiz-adv-x="1046" 
d="M804 921q103 -99 103 -278v-643h-178v168q-29 -93 -106 -142q-80 -51 -195 -51q-143 0 -232 84q-90 85 -90 217q0 137 98 226q97 88 249 88q107 0 177 -48t99 -139v228q0 117 -55 182q-56 66 -156 66q-95 0 -152 -63t-57 -171l-184 62q16 145 122 229q105 84 271 84
q182 0 286 -99zM669 163q60 47 60 122q0 73 -60 118q-61 46 -159 46t-160 -47q-61 -46 -61 -117q0 -76 61 -122t160 -46q100 0 159 46zM821 1413q-8 -136 -87 -209q-80 -74 -220 -74q-141 0 -221 74q-81 74 -88 209l139 19q-2 -87 43 -136t127 -49t127 49t43 138z" />
    <glyph glyph-name="Aogonek" unicode="&#x104;" horiz-adv-x="1275" 
d="M1174 -199l22 -133q-56 -33 -137 -33q-92 0 -150 46q-57 45 -57 118q0 76 61 131t158 70h-67l-115 365h-500l-115 -365h-194l432 1352h252l432 -1352q-98 -21 -149 -61q-54 -42 -54 -95q0 -38 25 -61t69 -23q54 0 87 41zM639 1169l-203 -653h406z" />
    <glyph glyph-name="aogonek" unicode="&#x105;" horiz-adv-x="1046" 
d="M804 921q103 -99 103 -278v-643h-2q-98 -21 -149 -61q-54 -42 -54 -95q0 -38 25 -61t70 -23q53 0 86 41l22 -133q-55 -33 -137 -33q-92 0 -150 46q-57 45 -57 118q0 75 62 131q61 55 157 70h-51v168q-29 -93 -106 -142q-80 -51 -195 -51q-143 0 -232 84q-90 85 -90 217
q0 137 98 226q97 88 249 88q107 0 177 -48t99 -139v228q0 117 -55 182q-56 66 -156 66q-95 0 -152 -63t-57 -171l-184 62q16 145 122 229q105 84 271 84q182 0 286 -99zM669 163q60 47 60 122q0 73 -60 118q-61 46 -159 46t-160 -47q-61 -46 -61 -117q0 -76 61 -122t160 -46
q100 0 159 46z" />
    <glyph glyph-name="Cacute" unicode="&#x106;" horiz-adv-x="1347" 
d="M1225 459q-33 -230 -172 -357t-357 -127q-170 0 -300 87q-128 85 -201 247q-72 159 -72 369q0 208 72 366q73 160 201 245q130 87 300 87q221 0 357 -127q138 -129 172 -356l-197 -66q-7 179 -97 285q-88 105 -235 105q-111 0 -200 -68t-137 -191t-48 -282
q0 -160 48 -283q48 -122 137 -190t200 -68q146 0 235 106q90 106 97 283zM705 1470l-175 27l295 250l185 -29z" />
    <glyph glyph-name="cacute" unicode="&#x107;" horiz-adv-x="1058" 
d="M961 319q-21 -151 -135 -247q-115 -97 -277 -97q-135 0 -238 65q-102 64 -157 182q-56 120 -56 276t56 276t157 182q104 64 238 64q166 0 278 -94q113 -95 134 -246l-179 -59q-2 115 -67 186q-66 72 -166 72q-121 0 -195 -105q-73 -104 -73 -276q0 -171 73 -275t195 -104
q103 0 167 72t66 188zM549 1124l-158 23l266 291l166 -27z" />
    <glyph glyph-name="Ccircumflex" unicode="&#x108;" horiz-adv-x="1347" 
d="M1225 459q-33 -230 -172 -357t-357 -127q-170 0 -300 87q-128 85 -201 247q-72 159 -72 369q0 208 72 366q73 160 201 245q130 87 300 87q221 0 357 -127q138 -129 172 -356l-197 -66q-7 179 -97 285q-88 105 -235 105q-111 0 -200 -68t-137 -191t-48 -282
q0 -160 48 -283q48 -122 137 -190t200 -68q146 0 235 106q90 106 97 283zM778 1731l283 -240l-174 -25l-187 158l-190 -158l-174 25l289 240h153z" />
    <glyph glyph-name="ccircumflex" unicode="&#x109;" horiz-adv-x="1058" 
d="M961 319q-21 -151 -135 -247q-115 -97 -277 -97q-135 0 -238 65q-102 64 -157 182q-56 120 -56 276t56 276t157 182q104 64 238 64q166 0 278 -94q113 -95 134 -246l-179 -59q-2 115 -67 186q-66 72 -166 72q-121 0 -195 -105q-73 -104 -73 -276q0 -171 73 -275t195 -104
q103 0 167 72t66 188zM627 1425l260 -282l-154 -23l-180 189l-184 -189l-156 23l268 282h146z" />
    <glyph glyph-name="Cdotaccent" unicode="&#x10a;" horiz-adv-x="1347" 
d="M1225 459q-33 -230 -172 -357t-357 -127q-170 0 -300 87q-128 85 -201 247q-72 159 -72 369q0 208 72 366q73 160 201 245q130 87 300 87q221 0 357 -127q138 -129 172 -356l-197 -66q-7 179 -97 285q-88 105 -235 105q-111 0 -200 -68t-137 -191t-48 -282
q0 -160 48 -283q48 -122 137 -190t200 -68q146 0 235 106q90 106 97 283zM604 1702h187v-205h-187v205z" />
    <glyph glyph-name="cdotaccent" unicode="&#x10b;" horiz-adv-x="1058" 
d="M961 319q-21 -151 -135 -247q-115 -97 -277 -97q-135 0 -238 65q-102 64 -157 182q-56 120 -56 276t56 276t157 182q104 64 238 64q166 0 278 -94q113 -95 134 -246l-179 -59q-2 115 -67 186q-66 72 -166 72q-121 0 -195 -105q-73 -104 -73 -276q0 -171 73 -275t195 -104
q103 0 167 72t66 188zM455 1384h186v-217h-186v217z" />
    <glyph glyph-name="Ccaron" unicode="&#x10c;" horiz-adv-x="1347" 
d="M1225 459q-33 -230 -172 -357t-357 -127q-170 0 -300 87q-128 85 -201 247q-72 159 -72 369q0 208 72 366q73 160 201 245q130 87 300 87q221 0 357 -127q138 -129 172 -356l-197 -66q-7 179 -97 285q-88 105 -235 105q-111 0 -200 -68t-137 -191t-48 -282
q0 -160 48 -283q48 -122 137 -190t200 -68q146 0 235 106q90 106 97 283zM700 1571l187 158l174 -25l-283 -240h-153l-289 240l174 25z" />
    <glyph glyph-name="ccaron" unicode="&#x10d;" horiz-adv-x="1058" 
d="M961 319q-21 -151 -135 -247q-115 -97 -277 -97q-135 0 -238 65q-102 64 -157 182q-56 120 -56 276t56 276t157 182q104 64 238 64q166 0 278 -94q113 -95 134 -246l-179 -59q-2 115 -67 186q-66 72 -166 72q-121 0 -195 -105q-73 -104 -73 -276q0 -171 73 -275t195 -104
q103 0 167 72t66 188zM553 1235l180 188l154 -22l-260 -283h-146l-268 283l156 22z" />
    <glyph glyph-name="Dcaron" unicode="&#x10e;" horiz-adv-x="1325" 
d="M1048 1180q154 -172 154 -504t-154 -504t-454 -172h-404v1352h404q300 0 454 -172zM594 160q213 0 316 127q104 128 104 389t-104 389q-103 127 -316 127h-221v-1032h221zM631 1571l186 158l174 -25l-282 -240h-154l-289 240l174 25z" />
    <glyph glyph-name="dcaron" unicode="&#x10f;" horiz-adv-x="1423" 
d="M811 1434h178v-1434h-178v279q-34 -144 -118 -225q-82 -79 -208 -79q-113 0 -202 65t-137 183q-48 119 -48 275t48 274t137 183t202 65q126 0 208 -79q84 -81 118 -224v717zM737 220q74 104 74 278q0 173 -74 277t-192 104q-117 0 -191 -106q-73 -104 -73 -275
q0 -172 73 -276q74 -105 191 -105q119 0 192 103zM1171 1083q95 95 95 199q0 78 -54 152h158q43 -67 43 -144q0 -119 -100 -225z" />
    <glyph glyph-name="Dcroat" unicode="&#x110;" horiz-adv-x="1353" 
d="M1076 1180q155 -173 155 -504t-155 -504q-154 -172 -453 -172h-404v633h-174v127h174v592h404q299 0 453 -172zM623 160q213 0 316 127t103 389t-103 389t-316 127h-222v-432h289v-127h-289v-473h222z" />
    <glyph glyph-name="dcroat" unicode="&#x111;" horiz-adv-x="1142" 
d="M1171 1264v-127h-182v-1137h-178v279q-34 -144 -118 -225q-82 -79 -208 -79q-113 0 -202 65t-137 183q-48 119 -48 275t48 274t137 183t202 65q126 0 208 -79q84 -81 118 -224v420h-283v127h283v170h178v-170h182zM737 220q74 104 74 278q0 173 -74 277t-192 104
q-117 0 -191 -106q-73 -104 -73 -275q0 -172 73 -276q74 -105 191 -105q119 0 192 103z" />
    <glyph glyph-name="Emacron" unicode="&#x112;" horiz-adv-x="1171" 
d="M1040 1352v-160h-667v-426h588v-152h-588v-454h667v-160h-850v1352h850zM301 1507v127h631v-127h-631z" />
    <glyph glyph-name="emacron" unicode="&#x113;" horiz-adv-x="1069" 
d="M281 463q8 -158 79 -252q72 -94 187 -94q98 0 164 70q64 69 69 184l176 -58q-21 -149 -134 -243q-115 -95 -275 -95q-133 0 -237 64q-100 61 -156 182q-56 120 -56 277q0 156 56 276q56 121 156 182q104 64 237 64q195 0 309 -123q115 -124 115 -326q0 -54 -8 -108h-682z
M784 590q-6 137 -68 212q-63 77 -169 77q-104 0 -173 -78t-87 -211h497zM262 1178v127h569v-127h-569z" />
    <glyph glyph-name="Ebreve" unicode="&#x114;" horiz-adv-x="1171" 
d="M1040 1352v-160h-667v-426h588v-152h-588v-454h667v-160h-850v1352h850zM958 1714q-33 -239 -342 -239q-310 0 -340 239l146 23q12 -144 194 -144q185 0 197 144z" />
    <glyph glyph-name="ebreve" unicode="&#x115;" horiz-adv-x="1069" 
d="M281 463q8 -158 79 -252q72 -94 187 -94q98 0 164 70q64 69 69 184l176 -58q-21 -149 -134 -243q-115 -95 -275 -95q-133 0 -237 64q-100 61 -156 182q-56 120 -56 277q0 156 56 276q56 121 156 182q104 64 237 64q195 0 309 -123q115 -124 115 -326q0 -54 -8 -108h-682z
M784 590q-6 137 -68 212q-63 77 -169 77q-104 0 -173 -78t-87 -211h497zM854 1413q-8 -136 -87 -209q-80 -74 -220 -74q-141 0 -221 74q-81 74 -88 209l139 19q-2 -87 43 -136t127 -49t127 49t43 138z" />
    <glyph glyph-name="Edotaccent" unicode="&#x116;" horiz-adv-x="1171" 
d="M1040 1352v-160h-667v-426h588v-152h-588v-454h667v-160h-850v1352h850zM524 1702h187v-205h-187v205z" />
    <glyph glyph-name="edotaccent" unicode="&#x117;" horiz-adv-x="1069" 
d="M281 463q8 -158 79 -252q72 -94 187 -94q98 0 164 70q64 69 69 184l176 -58q-21 -149 -134 -243q-115 -95 -275 -95q-133 0 -237 64q-100 61 -156 182q-56 120 -56 277q0 156 56 276q56 121 156 182q104 64 237 64q195 0 309 -123q115 -124 115 -326q0 -54 -8 -108h-682z
M784 590q-6 137 -68 212q-63 77 -169 77q-104 0 -173 -78t-87 -211h497zM453 1384h186v-217h-186v217z" />
    <glyph glyph-name="Eogonek" unicode="&#x118;" horiz-adv-x="1171" 
d="M1040 1192h-667v-426h588v-152h-588v-454h667v-160q-98 -21 -149 -61q-53 -41 -53 -95q0 -38 24 -61q25 -23 70 -23q53 0 86 41l22 -133q-56 -33 -137 -33q-91 0 -149 46t-58 118q0 75 62 131q61 55 157 70h-725v1352h850v-160z" />
    <glyph glyph-name="eogonek" unicode="&#x119;" horiz-adv-x="1069" 
d="M281 463q8 -158 79 -252q72 -94 187 -94q98 0 164 70q64 69 69 184l176 -58q-12 -92 -63 -167q-49 -72 -131 -117q-59 -39 -89 -83q-32 -47 -32 -91q0 -45 25 -70t69 -25q53 0 90 43l23 -135q-56 -33 -139 -33q-94 0 -153 47q-58 46 -58 121q0 111 114 177q-45 -5 -65 -5
q-133 0 -237 64q-100 61 -156 182q-56 120 -56 277q0 156 56 276q56 121 156 182q104 64 237 64q195 0 309 -123q115 -124 115 -326q0 -54 -8 -108h-682zM784 590q-6 137 -68 212q-63 77 -169 77q-104 0 -173 -78t-87 -211h497z" />
    <glyph glyph-name="Ecaron" unicode="&#x11a;" horiz-adv-x="1171" 
d="M1040 1352v-160h-667v-426h588v-152h-588v-454h667v-160h-850v1352h850zM621 1571l186 158l174 -25l-283 -240h-153l-289 240l174 25z" />
    <glyph glyph-name="ecaron" unicode="&#x11b;" horiz-adv-x="1069" 
d="M281 463q8 -158 79 -252q72 -94 187 -94q98 0 164 70q64 69 69 184l176 -58q-21 -149 -134 -243q-115 -95 -275 -95q-133 0 -237 64q-100 61 -156 182q-56 120 -56 277q0 156 56 276q56 121 156 182q104 64 237 64q195 0 309 -123q115 -124 115 -326q0 -54 -8 -108h-682z
M784 590q-6 137 -68 212q-63 77 -169 77q-104 0 -173 -78t-87 -211h497zM551 1235l180 188l154 -22l-260 -283h-146l-268 283l156 22z" />
    <glyph glyph-name="Gcircumflex" unicode="&#x11c;" horiz-adv-x="1382" 
d="M698 735h510v-735h-182v326q-57 -351 -367 -351q-158 0 -279 88q-123 90 -190 247q-67 158 -67 364q0 210 72 369t202 246t305 87q188 0 316 -97q129 -98 180 -275l-197 -66q-16 127 -97 203q-80 76 -208 76q-111 0 -200 -68t-137 -191t-48 -282t49 -281
q49 -121 137 -191q87 -69 199 -69q144 0 235 105q90 104 95 274v70h-328v151zM778 1731l283 -240l-174 -25l-187 158l-190 -158l-174 25l289 240h153z" />
    <glyph glyph-name="gcircumflex" unicode="&#x11d;" horiz-adv-x="1003" 
d="M600 141q170 0 264 -75q97 -77 97 -209q0 -141 -116 -216q-115 -75 -333 -75q-207 0 -317 67q-111 67 -111 191q0 16 4 45l191 63q-9 -36 -9 -63q0 -81 63 -122q62 -40 191 -40q254 0 254 143q0 64 -47 99t-131 35h-156q-148 0 -234 47q-85 46 -85 129q0 121 215 151
q-113 34 -177 124q-63 89 -63 220q0 181 116 273t341 92q139 0 227 9q85 9 174 32l-26 -156q-153 -21 -283 -26q126 -21 180 -80q56 -61 56 -170q0 -157 -105 -249q-104 -91 -286 -91q-108 0 -158 -18q-49 -18 -49 -56q0 -74 157 -74h156zM340 818q-57 -60 -57 -163t56 -163
q57 -62 155 -62q95 0 152 60q56 59 56 165q0 102 -55 161q-57 62 -153 63q-96 0 -154 -61zM571 1425l260 -282l-153 -23l-180 189l-185 -189l-155 23l268 282h145z" />
    <glyph glyph-name="Gbreve" unicode="&#x11e;" horiz-adv-x="1382" 
d="M698 735h510v-735h-182v326q-57 -351 -367 -351q-158 0 -279 88q-123 90 -190 247q-67 158 -67 364q0 210 72 369t202 246t305 87q188 0 316 -97q129 -98 180 -275l-197 -66q-16 127 -97 203q-80 76 -208 76q-111 0 -200 -68t-137 -191t-48 -282t49 -281
q49 -121 137 -191q87 -69 199 -69q144 0 235 105q90 104 95 274v70h-328v151zM1038 1714q-33 -239 -342 -239q-310 0 -340 239l146 23q12 -144 194 -144q185 0 197 144z" />
    <glyph glyph-name="gbreve" unicode="&#x11f;" horiz-adv-x="1003" 
d="M600 141q170 0 264 -75q97 -77 97 -209q0 -141 -116 -216q-115 -75 -333 -75q-207 0 -317 67q-111 67 -111 191q0 16 4 45l191 63q-9 -36 -9 -63q0 -81 63 -122q62 -40 191 -40q254 0 254 143q0 64 -47 99t-131 35h-156q-148 0 -234 47q-85 46 -85 129q0 121 215 151
q-113 34 -177 124q-63 89 -63 220q0 181 116 273t341 92q139 0 227 9q85 9 174 32l-26 -156q-153 -21 -283 -26q126 -21 180 -80q56 -61 56 -170q0 -157 -105 -249q-104 -91 -286 -91q-108 0 -158 -18q-49 -18 -49 -56q0 -74 157 -74h156zM340 818q-57 -60 -57 -163t56 -163
q57 -62 155 -62q95 0 152 60q56 59 56 165q0 102 -55 161q-57 62 -153 63q-96 0 -154 -61zM801 1413q-8 -136 -87 -209q-80 -74 -220 -74q-142 0 -222 74q-81 74 -88 209l140 19q-2 -87 43 -136t127 -49t127 49t43 138z" />
    <glyph glyph-name="Gdotaccent" unicode="&#x120;" horiz-adv-x="1382" 
d="M698 735h510v-735h-182v326q-57 -351 -367 -351q-158 0 -279 88q-123 90 -190 247q-67 158 -67 364q0 210 72 369t202 246t305 87q188 0 316 -97q129 -98 180 -275l-197 -66q-16 127 -97 203q-80 76 -208 76q-111 0 -200 -68t-137 -191t-48 -282t49 -281
q49 -121 137 -191q87 -69 199 -69q144 0 235 105q90 104 95 274v70h-328v151zM604 1702h187v-205h-187v205z" />
    <glyph glyph-name="gdotaccent" unicode="&#x121;" horiz-adv-x="1003" 
d="M600 141q170 0 264 -75q97 -77 97 -209q0 -141 -116 -216q-115 -75 -333 -75q-207 0 -317 67q-111 67 -111 191q0 16 4 45l191 63q-9 -36 -9 -63q0 -81 63 -122q62 -40 191 -40q254 0 254 143q0 64 -47 99t-131 35h-156q-148 0 -234 47q-85 46 -85 129q0 121 215 151
q-113 34 -177 124q-63 89 -63 220q0 181 116 273t341 92q139 0 227 9q85 9 174 32l-26 -156q-153 -21 -283 -26q126 -21 180 -80q56 -61 56 -170q0 -157 -105 -249q-104 -91 -286 -91q-108 0 -158 -18q-49 -18 -49 -56q0 -74 157 -74h156zM340 818q-57 -60 -57 -163t56 -163
q57 -62 155 -62q95 0 152 60q56 59 56 165q0 102 -55 161q-57 62 -153 63q-96 0 -154 -61zM399 1384h187v-217h-187v217z" />
    <glyph glyph-name="uni0122" unicode="&#x122;" horiz-adv-x="1382" 
d="M698 735h510v-735h-182v326q-57 -351 -367 -351q-158 0 -279 88q-123 90 -190 247q-67 158 -67 364q0 210 72 369t202 246t305 87q188 0 316 -97q129 -98 180 -275l-197 -66q-16 127 -97 203q-80 76 -208 76q-111 0 -200 -68t-137 -191t-48 -282t49 -281
q49 -121 137 -191q87 -69 199 -69q144 0 235 105q90 104 95 274v70h-328v151zM610 -408q58 78 58 152q0 69 -52 133h164q35 -53 35 -123q0 -89 -65 -188z" />
    <glyph glyph-name="uni0123" unicode="&#x123;" horiz-adv-x="1003" 
d="M600 141q170 0 264 -75q97 -77 97 -209q0 -141 -116 -216q-115 -75 -333 -75q-207 0 -317 67q-111 67 -111 191q0 16 4 45l191 63q-9 -36 -9 -63q0 -81 63 -122q62 -40 191 -40q254 0 254 143q0 64 -47 99t-131 35h-156q-148 0 -234 47q-85 46 -85 129q0 121 215 151
q-113 34 -177 124q-63 89 -63 220q0 181 116 273t341 92q139 0 227 9q85 9 174 32l-26 -156q-153 -21 -283 -26q126 -21 180 -80q56 -61 56 -170q0 -157 -105 -249q-104 -91 -286 -91q-108 0 -158 -18q-49 -18 -49 -56q0 -74 157 -74h156zM340 818q-57 -60 -57 -163t56 -163
q57 -62 155 -62q95 0 152 60q56 59 56 165q0 102 -55 161q-57 62 -153 63q-96 0 -154 -61zM416 1128q-35 53 -35 123q0 109 88 215l141 -22q-82 -94 -82 -182q0 -65 52 -134h-164z" />
    <glyph glyph-name="Hcircumflex" unicode="&#x124;" horiz-adv-x="1376" 
d="M1004 764v588h182v-1352h-182v590h-631v-590h-183v1352h183v-588h631zM770 1731l283 -240l-174 -25l-187 158l-190 -158l-174 25l288 240h154z" />
    <glyph glyph-name="hcircumflex" unicode="&#x125;" horiz-adv-x="1105" 
d="M881 910q86 -110 86 -302v-608h-179v588q0 139 -58 210q-58 72 -167 72q-107 0 -165 -73t-58 -209v-588h-178v1434h178v-658q33 117 111 180q79 64 192 64q152 0 238 -110zM334 1812l282 -239l-174 -25l-186 158l-190 -158l-175 25l289 239h154z" />
    <glyph glyph-name="Hbar" unicode="&#x126;" horiz-adv-x="1431" 
d="M1202 1106h184v-127h-184v-979h-182v590h-631v-590h-182v979h-162v127h162v246h182v-246h631v246h182v-246zM389 764h631v215h-631v-215z" />
    <glyph glyph-name="hbar" unicode="&#x127;" horiz-adv-x="1097" 
d="M872 910q86 -110 86 -302v-608h-178v588q0 139 -58 210q-58 72 -167 72q-107 0 -165 -73t-58 -209v-588h-178v1137h-183v127h183v170h178v-170h284v-127h-284v-361q33 118 110 180q79 64 193 64q151 0 237 -110z" />
    <glyph glyph-name="Itilde" unicode="&#x128;" horiz-adv-x="563" 
d="M373 0h-183v1352h183v-1352zM-100 1499q7 112 61 167q53 54 156 54q47 0 92 -18q43 -17 113 -64q50 -32 70 -41q23 -10 50 -10q48 0 69 30q23 32 24 99l131 -24q-7 -113 -62 -169q-53 -55 -158 -55q-47 0 -92 18q-47 19 -112 62q-45 30 -70 41q-23 10 -51 10
q-46 0 -67 -28q-22 -29 -23 -96z" />
    <glyph glyph-name="itilde" unicode="&#x129;" horiz-adv-x="518" 
d="M170 995h178v-995h-178v995zM-80 1157q5 124 56 186q53 64 149 64q51 0 88 -19q35 -18 88 -71q34 -38 53 -52q22 -16 43 -16q74 0 74 154l131 -23q-5 -123 -55 -187q-51 -65 -146 -65q-50 0 -90 19q-36 17 -90 76q-30 32 -54 51q-18 14 -44 14q-36 0 -54 -37t-18 -116z
" />
    <glyph glyph-name="Imacron" unicode="&#x12a;" horiz-adv-x="563" 
d="M373 0h-183v1352h183v-1352zM-33 1507v127h631v-127h-631z" />
    <glyph glyph-name="imacron" unicode="&#x12b;" horiz-adv-x="518" 
d="M170 995h178v-995h-178v995zM-25 1192v119h570v-119h-570z" />
    <glyph glyph-name="Ibreve" unicode="&#x12c;" horiz-adv-x="563" 
d="M373 0h-183v1352h183v-1352zM625 1714q-33 -239 -342 -239q-310 0 -340 239l145 23q12 -144 195 -144q184 0 196 144z" />
    <glyph glyph-name="ibreve" unicode="&#x12d;" horiz-adv-x="518" 
d="M170 995h178v-995h-178v995zM567 1413q-8 -136 -87 -209q-80 -74 -220 -74q-141 0 -221 74q-81 74 -88 209l139 19q-2 -87 43 -136t127 -49t127 49t43 138z" />
    <glyph glyph-name="Iogonek" unicode="&#x12e;" horiz-adv-x="563" 
d="M373 0q-99 -22 -150 -61q-53 -41 -53 -95q0 -38 25 -61t69 -23q53 0 86 41l23 -133q-56 -33 -137 -33q-92 0 -150 46q-57 45 -57 118q0 76 61 131t158 70h-58v1352h183v-1352z" />
    <glyph glyph-name="iogonek" unicode="&#x12f;" horiz-adv-x="518" 
d="M166 1167v217h186v-217h-186zM170 0v995h178v-995h-2q-98 -21 -149 -61q-54 -42 -54 -95q0 -38 25 -61t70 -23q53 0 86 41l22 -133q-55 -33 -137 -33q-92 0 -150 46q-57 45 -57 118q0 76 61 131t158 70h-51z" />
    <glyph glyph-name="Idotaccent" unicode="&#x130;" horiz-adv-x="563" 
d="M373 0h-183v1352h183v-1352zM190 1702h187v-205h-187v205z" />
    <glyph glyph-name="dotlessi" unicode="&#x131;" horiz-adv-x="518" 
d="M170 995h178v-995h-178v995z" />
    <glyph glyph-name="IJ" unicode="&#x132;" horiz-adv-x="1216" 
d="M182 451l197 63q-29 -67 -29 -129q0 -115 69 -182q70 -68 183 -68q125 0 197 83q71 81 71 228v906h183v-906q0 -218 -119 -345q-118 -126 -328 -126q-123 0 -227 48q-100 46 -158 130q-57 82 -57 187q0 68 18 111zM352 682h-182v670h182v-670z" />
    <glyph glyph-name="ij" unicode="&#x133;" horiz-adv-x="1003" 
d="M154 1393h194v-226h-194v226zM162 995h178v-995h-178v995zM657 1393h193v-226h-193v226zM381 -233q44 -7 72 -7q101 0 156 67t55 193v975h178v-1015q0 -190 -104 -292q-103 -101 -304 -106z" />
    <glyph glyph-name="Jcircumflex" unicode="&#x134;" horiz-adv-x="1122" 
d="M88 451l197 63q-29 -67 -29 -129q0 -115 69 -182q70 -68 183 -68q125 0 197 83q71 81 71 228v906h182v-906q0 -220 -118 -345q-118 -126 -328 -126q-123 0 -227 48q-100 46 -158 130q-57 82 -57 187q0 68 18 111zM948 1731l283 -240l-174 -25l-187 158l-190 -158l-174 25
l289 240h153z" />
    <glyph glyph-name="jcircumflex" unicode="&#x135;" horiz-adv-x="501" 
d="M-121 -233q44 -7 72 -7q102 0 157 67q54 66 54 193v975h178v-1015q0 -190 -103 -292q-103 -101 -305 -106zM330 1425l260 -282l-154 -23l-180 189l-184 -189l-156 23l268 282h146z" />
    <glyph glyph-name="uni0136" unicode="&#x136;" horiz-adv-x="1216" 
d="M1182 0h-217l-445 621l-147 -168v-453h-183v1352h183v-643l551 643h233l-518 -594zM582 -408q57 76 57 152q0 70 -51 133h164q34 -52 34 -123q0 -89 -65 -188z" />
    <glyph glyph-name="uni0137" unicode="&#x137;" horiz-adv-x="1046" 
d="M1026 0h-215l-332 451l-139 -146v-305h-178v1434h178v-895l430 456h231l-403 -422zM489 -408q58 78 58 152q0 70 -51 133h163q35 -53 35 -123q0 -89 -65 -188z" />
    <glyph glyph-name="kgreenlandic" unicode="&#x138;" horiz-adv-x="1046" 
d="M1026 0h-215l-332 451l-139 -146v-305h-178v995h178v-456l430 456h231l-403 -422z" />
    <glyph glyph-name="Lacute" unicode="&#x139;" horiz-adv-x="1060" 
d="M373 1352v-1192h655v-160h-838v1352h183zM289 1470l-174 27l295 250l184 -29z" />
    <glyph glyph-name="lacute" unicode="&#x13a;" horiz-adv-x="501" 
d="M340 0h-178v1434h178v-1434zM260 1552l-174 27l295 250l184 -29z" />
    <glyph glyph-name="uni013B" unicode="&#x13b;" horiz-adv-x="1060" 
d="M373 1352v-1192h655v-160h-838v1352h183zM494 -408q57 76 57 152q0 70 -51 133h164q34 -52 34 -123q0 -89 -65 -188z" />
    <glyph glyph-name="uni013C" unicode="&#x13c;" horiz-adv-x="501" 
d="M340 0h-178v1434h178v-1434zM164 -408q57 76 57 152q0 70 -51 133h164q35 -53 35 -123q0 -87 -66 -188z" />
    <glyph glyph-name="Lcaron" unicode="&#x13d;" horiz-adv-x="1060" 
d="M373 1352v-1192h655v-160h-838v1352h183zM688 1001q94 94 94 199q0 79 -53 152h158q43 -67 43 -144q0 -118 -101 -225z" />
    <glyph glyph-name="lcaron" unicode="&#x13e;" horiz-adv-x="770" 
d="M340 0h-178v1434h178v-1434zM518 1083q94 94 94 199q0 79 -53 152h158q43 -67 43 -144q0 -118 -101 -225z" />
    <glyph glyph-name="Ldot" unicode="&#x13f;" horiz-adv-x="1060" 
d="M373 1352v-1192h655v-160h-838v1352h183zM739 842h181v-238h-181v238z" />
    <glyph glyph-name="ldot" unicode="&#x140;" horiz-adv-x="657" 
d="M340 0h-178v1434h178v-1434zM485 795h181v-238h-181v238z" />
    <glyph glyph-name="Lslash" unicode="&#x141;" horiz-adv-x="1136" 
d="M449 662v-502h655v-160h-838v588l-221 -101v140l221 100v625h183v-551l374 168v-140z" />
    <glyph glyph-name="lslash" unicode="&#x142;" horiz-adv-x="647" 
d="M412 827l221 101v-140l-221 -100v-688h-179v614l-219 -98v139l219 99v680h179v-607z" />
    <glyph glyph-name="Nacute" unicode="&#x143;" horiz-adv-x="1386" 
d="M1016 221v1131h180v-1352h-252l-573 1130v-1130h-181v1352h252zM702 1470l-174 27l295 250l185 -29z" />
    <glyph glyph-name="nacute" unicode="&#x144;" horiz-adv-x="1105" 
d="M881 910q86 -110 86 -302v-608h-179v588q0 139 -58 210q-58 72 -167 72q-107 0 -165 -73t-58 -209v-588h-178v995h178v-219q33 117 111 180q79 64 192 64q152 0 238 -110zM563 1124l-157 23l266 291l166 -27z" />
    <glyph glyph-name="uni0145" unicode="&#x145;" horiz-adv-x="1386" 
d="M1016 221v1131h180v-1352h-252l-573 1130v-1130h-181v1352h252zM608 -408q58 78 58 152q0 69 -52 133h164q35 -53 35 -123q0 -89 -65 -188z" />
    <glyph glyph-name="uni0146" unicode="&#x146;" horiz-adv-x="1105" 
d="M881 910q86 -110 86 -302v-608h-179v588q0 139 -58 210q-58 72 -167 72q-107 0 -165 -73t-58 -209v-588h-178v995h178v-219q33 117 111 180q79 64 192 64q152 0 238 -110zM477 -408q58 78 58 152q0 69 -52 133h164q35 -53 35 -123q0 -87 -66 -188z" />
    <glyph glyph-name="Ncaron" unicode="&#x147;" horiz-adv-x="1386" 
d="M1016 221v1131h180v-1352h-252l-573 1130v-1130h-181v1352h252zM698 1571l187 158l174 -25l-283 -240h-153l-289 240l174 25z" />
    <glyph glyph-name="ncaron" unicode="&#x148;" horiz-adv-x="1105" 
d="M881 910q86 -110 86 -302v-608h-179v588q0 139 -58 210q-58 72 -167 72q-107 0 -165 -73t-58 -209v-588h-178v995h178v-219q33 117 111 180q79 64 192 64q152 0 238 -110zM567 1235l181 188l153 -22l-260 -283h-145l-269 283l156 22z" />
    <glyph glyph-name="Eng" unicode="&#x14a;" horiz-adv-x="1382" 
d="M1014 1352h178v-1372q0 -190 -103 -292q-103 -101 -305 -106l-53 185q44 -7 70 -7q100 0 154 62q55 62 59 178h-70l-575 1104v-1104h-179v1352h250l574 -1100v1100z" />
    <glyph glyph-name="eng" unicode="&#x14b;" horiz-adv-x="1105" 
d="M881 910q86 -110 86 -302v-628q0 -190 -104 -292q-103 -101 -304 -106l-53 185q44 -7 72 -7q101 0 156 67q54 66 54 193v568q0 139 -58 210q-58 72 -167 72q-107 0 -165 -73t-58 -209v-588h-178v995h178v-219q33 117 111 180q79 64 192 64q152 0 238 -110z" />
    <glyph glyph-name="Omacron" unicode="&#x14c;" horiz-adv-x="1394" 
d="M392 65q-130 88 -199 247q-70 161 -70 364q0 202 70 363q70 160 199 248q131 89 304 89q175 0 306 -89t200 -248q70 -161 70 -363q0 -203 -70 -364q-68 -158 -200 -247q-133 -90 -306 -90q-171 0 -304 90zM899 205q88 68 136 192q48 123 48 279q0 155 -48 278
q-49 125 -136 193q-90 70 -203 70t-201 -70t-136 -193t-48 -278q0 -156 48 -279q48 -122 136 -192t201 -70t203 70zM381 1507v127h631v-127h-631z" />
    <glyph glyph-name="omacron" unicode="&#x14d;" horiz-adv-x="1097" 
d="M310 39q-100 61 -156 182q-56 120 -56 277q0 156 56 276q56 121 156 182q104 64 239 64q134 0 238 -64q101 -62 157 -182q55 -117 55 -276q0 -160 -55 -277q-56 -120 -157 -182q-104 -64 -238 -64q-135 0 -239 64zM743 223q74 106 74 275t-74 275t-194 106
q-121 0 -195 -106q-73 -104 -73 -275t73 -275t195 -104q121 0 194 104zM264 1178v127h570v-127h-570z" />
    <glyph glyph-name="Obreve" unicode="&#x14e;" horiz-adv-x="1394" 
d="M392 65q-130 88 -199 247q-70 161 -70 364q0 202 70 363q70 160 199 248q131 89 304 89q175 0 306 -89t200 -248q70 -161 70 -363q0 -203 -70 -364q-68 -158 -200 -247q-133 -90 -306 -90q-171 0 -304 90zM899 205q88 68 136 192q48 123 48 279q0 155 -48 278
q-49 125 -136 193q-90 70 -203 70t-201 -70t-136 -193t-48 -278q0 -156 48 -279q48 -122 136 -192t201 -70t203 70zM1038 1714q-33 -239 -342 -239q-310 0 -340 239l146 23q12 -144 194 -144q185 0 197 144z" />
    <glyph glyph-name="obreve" unicode="&#x14f;" horiz-adv-x="1097" 
d="M310 39q-100 61 -156 182q-56 120 -56 277q0 156 56 276q56 121 156 182q104 64 239 64q134 0 238 -64q101 -62 157 -182q55 -117 55 -276q0 -160 -55 -277q-56 -120 -157 -182q-104 -64 -238 -64q-135 0 -239 64zM743 223q74 106 74 275t-74 275t-194 106
q-121 0 -195 -106q-73 -104 -73 -275t73 -275t195 -104q121 0 194 104zM856 1413q-8 -136 -87 -209q-80 -74 -220 -74q-141 0 -221 74q-81 74 -88 209l139 19q-2 -87 43 -136t127 -49t127 49t43 138z" />
    <glyph glyph-name="Ohungarumlaut" unicode="&#x150;" horiz-adv-x="1394" 
d="M392 65q-130 88 -199 247q-70 161 -70 364q0 202 70 363q70 160 199 248q131 89 304 89q175 0 306 -89t200 -248q70 -161 70 -363q0 -203 -70 -364q-68 -158 -200 -247q-133 -90 -306 -90q-171 0 -304 90zM899 205q88 68 136 192q48 123 48 279q0 155 -48 278
q-49 125 -136 193q-90 70 -203 70t-201 -70t-136 -193t-48 -278q0 -156 48 -279q48 -122 136 -192t201 -70t203 70zM539 1470l-174 27l294 250l185 -29zM928 1470l-174 27l295 250l184 -29z" />
    <glyph glyph-name="ohungarumlaut" unicode="&#x151;" horiz-adv-x="1097" 
d="M310 39q-100 61 -156 182q-56 120 -56 277q0 156 56 276q56 121 156 182q104 64 239 64q134 0 238 -64q101 -62 157 -182q55 -117 55 -276q0 -160 -55 -277q-56 -120 -157 -182q-104 -64 -238 -64q-135 0 -239 64zM743 223q74 106 74 275t-74 275t-194 106
q-121 0 -195 -106q-73 -104 -73 -275t73 -275t195 -104q121 0 194 104zM399 1124l-157 23l266 291l166 -27zM754 1124l-158 23l264 291l168 -27z" />
    <glyph glyph-name="OE" unicode="&#x152;" horiz-adv-x="1996" 
d="M1866 1192h-758q138 -165 160 -426h518v-152h-516q-7 -134 -49 -254q-40 -114 -113 -200h758v-160h-1000q-80 -25 -170 -25q-171 0 -304 90q-130 88 -199 247q-70 161 -70 364q0 202 70 363q70 160 199 248q131 89 304 89q94 0 170 -24h1000v-160zM359 397
q48 -122 136 -192t201 -70t203 70q88 68 136 192q48 123 48 279q0 155 -48 278q-49 125 -136 193q-90 70 -203 70t-201 -70t-136 -193t-48 -278q0 -156 48 -279z" />
    <glyph glyph-name="oe" unicode="&#x153;" horiz-adv-x="1787" 
d="M999 463q7 -157 80 -252q72 -94 187 -94q101 0 165 70q63 69 68 184l176 -58q-21 -148 -135 -243q-115 -95 -278 -95q-124 0 -215 61q-92 61 -138 175q-50 -115 -141 -175q-93 -61 -219 -61q-135 0 -239 64q-100 61 -156 182q-56 120 -56 277q0 156 56 276
q56 121 156 182q104 64 239 64q127 0 220 -61q91 -60 138 -175q50 115 141 175q93 61 218 61q195 0 309 -123q115 -124 115 -326q0 -47 -9 -108h-682zM743 223q74 106 74 275t-74 275t-194 106q-121 0 -195 -106q-73 -104 -73 -275t73 -275t195 -104q121 0 194 104z
M1503 590q-6 137 -68 212q-63 77 -169 77q-104 0 -173 -77q-69 -76 -87 -212h497z" />
    <glyph glyph-name="Racute" unicode="&#x154;" horiz-adv-x="1294" 
d="M1155 0h-203q-10 36 -24 109q-8 45 -25 172q-12 94 -41 145q-28 49 -77 67q-45 17 -134 17h-278v-510h-183v1352h465q461 0 461 -361q0 -157 -81 -241q-82 -85 -244 -95q134 -21 203 -100q68 -79 91 -240q28 -222 70 -315zM373 1192v-531h260q156 0 225 63q70 64 70 204
t-69 202q-70 62 -226 62h-260zM629 1470l-174 27l295 250l184 -29z" />
    <glyph glyph-name="racute" unicode="&#x155;" horiz-adv-x="915" 
d="M816 937q69 -83 69 -220q0 -47 -13 -119l-190 -63q20 73 20 143q0 91 -38 141q-39 51 -111 51q-103 0 -157 -93q-55 -94 -56 -269v-508h-178v995h178v-247q30 132 104 202q75 70 185 70q118 0 187 -83zM553 1124l-158 23l267 291l165 -27z" />
    <glyph glyph-name="uni0156" unicode="&#x156;" horiz-adv-x="1294" 
d="M1155 0h-203q-10 36 -24 109q-8 45 -25 172q-12 94 -41 145q-28 49 -77 67q-45 17 -134 17h-278v-510h-183v1352h465q461 0 461 -361q0 -157 -81 -241q-82 -85 -244 -95q134 -21 203 -100q68 -79 91 -240q28 -222 70 -315zM373 1192v-531h260q156 0 225 63q70 64 70 204
t-69 202q-70 62 -226 62h-260zM584 -408q57 76 57 152q0 70 -51 133h164q34 -52 34 -123q0 -89 -65 -188z" />
    <glyph glyph-name="uni0157" unicode="&#x157;" horiz-adv-x="915" 
d="M816 937q69 -83 69 -220q0 -47 -13 -119l-190 -63q20 73 20 143q0 91 -38 141q-39 51 -111 51q-103 0 -157 -93q-55 -94 -56 -269v-508h-178v995h178v-247q30 132 104 202q75 70 185 70q118 0 187 -83zM166 -408q57 76 57 152q0 70 -51 133h164q35 -53 35 -123
q0 -87 -66 -188z" />
    <glyph glyph-name="Rcaron" unicode="&#x158;" horiz-adv-x="1294" 
d="M1155 0h-203q-10 36 -24 109q-8 45 -25 172q-12 94 -41 145q-28 49 -77 67q-45 17 -134 17h-278v-510h-183v1352h465q461 0 461 -361q0 -157 -81 -241q-82 -85 -244 -95q134 -21 203 -100q68 -79 91 -240q28 -222 70 -315zM373 1192v-531h260q156 0 225 63q70 64 70 204
t-69 202q-70 62 -226 62h-260zM625 1571l186 158l174 -25l-283 -240h-153l-289 240l174 25z" />
    <glyph glyph-name="rcaron" unicode="&#x159;" horiz-adv-x="915" 
d="M816 937q69 -83 69 -220q0 -47 -13 -119l-190 -63q20 73 20 143q0 91 -38 141q-39 51 -111 51q-103 0 -157 -93q-55 -94 -56 -269v-508h-178v995h178v-247q30 132 104 202q75 70 185 70q118 0 187 -83zM557 1235l180 188l154 -22l-260 -283h-146l-268 283l156 22z" />
    <glyph glyph-name="Sacute" unicode="&#x15a;" horiz-adv-x="1167" 
d="M283 420q6 -142 84 -214q79 -73 221 -73q131 0 209 54q77 53 77 145q0 59 -30 101q-28 40 -108 85q-73 41 -224 100q-200 79 -288 178q-87 98 -87 242q0 98 56 175t153 120q98 43 225 43q194 0 316 -100t143 -272l-196 -66q5 131 -65 205q-69 74 -198 74q-110 0 -178 -50
q-67 -49 -67 -129q0 -58 29 -99t102 -82t202 -93q155 -61 241 -120q88 -61 125 -135q38 -76 38 -177q0 -108 -59 -189q-60 -83 -167 -126q-109 -44 -249 -44q-214 0 -348 102q-133 102 -154 279zM580 1470l-174 27l294 250l185 -29z" />
    <glyph glyph-name="sacute" unicode="&#x15b;" horiz-adv-x="950" 
d="M248 356q-2 -16 -2 -34q0 -101 59 -153t172 -52q95 0 148 35t53 94q0 53 -55 93q-52 38 -203 95q-182 70 -250 141q-70 73 -70 187q0 113 100 186q99 72 259 72q161 0 262 -80t113 -215l-172 -55q6 97 -47 153t-156 56q-79 0 -128 -32q-48 -31 -48 -85q0 -53 53 -92
q51 -38 190 -90q122 -44 201 -95q72 -47 102 -103q31 -59 31 -136q0 -121 -105 -196t-280 -75q-182 0 -287 84q-103 83 -114 238zM467 1124l-158 23l266 291l166 -27z" />
    <glyph glyph-name="Scircumflex" unicode="&#x15c;" horiz-adv-x="1167" 
d="M283 420q6 -142 84 -214q79 -73 221 -73q131 0 209 54q77 53 77 145q0 59 -30 101q-28 40 -108 85q-73 41 -224 100q-200 79 -288 178q-87 98 -87 242q0 98 56 175t153 120q98 43 225 43q194 0 316 -100t143 -272l-196 -66q5 131 -65 205q-69 74 -198 74q-110 0 -178 -50
q-67 -49 -67 -129q0 -58 29 -99t102 -82t202 -93q155 -61 241 -120q88 -61 125 -135q38 -76 38 -177q0 -108 -59 -189q-60 -83 -167 -126q-109 -44 -249 -44q-214 0 -348 102q-133 102 -154 279zM653 1731l283 -240l-174 -25l-187 158l-190 -158l-174 25l289 240h153z" />
    <glyph glyph-name="scircumflex" unicode="&#x15d;" horiz-adv-x="950" 
d="M248 356q-2 -16 -2 -34q0 -101 59 -153t172 -52q95 0 148 35t53 94q0 53 -55 93q-52 38 -203 95q-182 70 -250 141q-70 73 -70 187q0 113 100 186q99 72 259 72q161 0 262 -80t113 -215l-172 -55q6 97 -47 153t-156 56q-79 0 -128 -32q-48 -31 -48 -85q0 -53 53 -92
q51 -38 190 -90q122 -44 201 -95q72 -47 102 -103q31 -59 31 -136q0 -121 -105 -196t-280 -75q-182 0 -287 84q-103 83 -114 238zM545 1425l260 -282l-154 -23l-180 189l-184 -189l-156 23l268 282h146z" />
    <glyph glyph-name="Scedilla" unicode="&#x15e;" horiz-adv-x="1167" 
d="M951 87q-112 -96 -300 -112l-14 -84q62 0 98 -33q37 -34 37 -85q0 -63 -54 -101q-53 -37 -145 -37q-90 0 -143 35l21 129q28 -25 51 -35t57 -10q39 0 62 15q22 15 22 41q0 32 -36 53q-35 20 -103 28h-2l16 84q-186 17 -300 117q-114 101 -132 262l197 66q6 -142 84 -214
q79 -73 221 -73q131 0 209 54q77 53 77 145q0 59 -30 101q-28 40 -108 85q-73 41 -224 100q-200 79 -288 178q-87 98 -87 242q0 98 56 175t153 120q98 43 225 43q194 0 316 -100t143 -272l-196 -66q5 131 -65 205q-69 74 -198 74q-110 0 -178 -50q-67 -49 -67 -129
q0 -58 29 -99t102 -82t202 -93q155 -61 241 -120q88 -61 125 -135q38 -76 38 -177q0 -150 -112 -245z" />
    <glyph glyph-name="scedilla" unicode="&#x15f;" horiz-adv-x="950" 
d="M771 62q-90 -73 -241 -85l-14 -86q62 0 98 -33q37 -34 37 -85q0 -63 -54 -101q-53 -37 -144 -37t-144 35l21 129q28 -25 51 -35t57 -10q40 0 62 15t22 41q0 32 -36 53q-35 20 -103 28h-2l16 89q-148 17 -230 99t-93 218l174 59q-2 -16 -2 -34q0 -101 59 -153t172 -52
q95 0 148 35t53 94q0 53 -55 93q-52 38 -203 95q-182 70 -250 141q-70 73 -70 187q0 113 100 186q99 72 259 72q161 0 262 -80t113 -215l-172 -55q6 97 -47 153t-156 56q-79 0 -128 -32q-48 -31 -48 -85q0 -53 53 -92q51 -38 190 -90q122 -44 201 -95q72 -47 102 -103
q31 -59 31 -136q0 -112 -89 -184z" />
    <glyph glyph-name="Scaron" unicode="&#x160;" horiz-adv-x="1167" 
d="M283 420q6 -142 84 -214q79 -73 221 -73q131 0 209 54q77 53 77 145q0 59 -30 101q-28 40 -108 85q-73 41 -224 100q-200 79 -288 178q-87 98 -87 242q0 98 56 175t153 120q98 43 225 43q194 0 316 -100t143 -272l-196 -66q5 131 -65 205q-69 74 -198 74q-110 0 -178 -50
q-67 -49 -67 -129q0 -58 29 -99t102 -82t202 -93q155 -61 241 -120q88 -61 125 -135q38 -76 38 -177q0 -108 -59 -189q-60 -83 -167 -126q-109 -44 -249 -44q-214 0 -348 102q-133 102 -154 279zM575 1571l187 158l174 -25l-283 -240h-153l-289 240l174 25z" />
    <glyph glyph-name="scaron" unicode="&#x161;" horiz-adv-x="950" 
d="M248 356q-2 -16 -2 -34q0 -101 59 -153t172 -52q95 0 148 35t53 94q0 53 -55 93q-52 38 -203 95q-182 70 -250 141q-70 73 -70 187q0 113 100 186q99 72 259 72q161 0 262 -80t113 -215l-172 -55q6 97 -47 153t-156 56q-79 0 -128 -32q-48 -31 -48 -85q0 -53 53 -92
q51 -38 190 -90q122 -44 201 -95q72 -47 102 -103q31 -59 31 -136q0 -121 -105 -196t-280 -75q-182 0 -287 84q-103 83 -114 238zM471 1235l180 188l154 -22l-260 -283h-146l-268 283l156 22z" />
    <glyph glyph-name="uni0162" unicode="&#x162;" horiz-adv-x="1091" 
d="M55 1352h981v-160h-399v-1192h-182v1192h-400v160zM594 -109q62 0 98 -33q37 -34 37 -85q0 -63 -54 -101q-53 -37 -145 -37q-91 0 -143 35l21 129q28 -25 51 -35t57 -10q40 0 62 15t22 41q0 32 -36 53q-35 20 -103 28h-2l20 109h133z" />
    <glyph glyph-name="uni0163" unicode="&#x163;" horiz-adv-x="776" 
d="M510 -109q62 0 98 -33q37 -34 37 -85q0 -63 -54 -101q-53 -37 -145 -37q-90 0 -143 35l21 129q28 -25 51 -35t57 -10q40 0 62 15t22 41q0 32 -36 53q-35 20 -103 28h-2l18 103q-153 53 -153 260v614h-226v127h54q114 0 160 42t46 147v114h164v-114q0 -95 -37 -136
q-38 -43 -131 -53h428v-127h-280v-585q0 -158 125 -158q91 0 155 70l29 -170q-84 -46 -203 -50z" />
    <glyph glyph-name="Tcaron" unicode="&#x164;" horiz-adv-x="1091" 
d="M55 1352h981v-160h-399v-1192h-182v1192h-400v160zM551 1571l186 158l174 -25l-282 -240h-154l-289 240l174 25z" />
    <glyph glyph-name="tcaron" unicode="&#x165;" horiz-adv-x="761" 
d="M727 25q-86 -50 -211 -50q-276 0 -276 279v614h-226v127h54q114 0 160 42t46 147v114h164v-114q0 -95 -37 -136q-38 -43 -131 -53h428v-127h-280v-585q0 -158 125 -158q91 0 155 70zM526 1145q95 95 95 198q0 78 -54 152h158q43 -67 43 -143q0 -120 -100 -226z" />
    <glyph glyph-name="Tbar" unicode="&#x166;" horiz-adv-x="1091" 
d="M1036 1352v-160h-399v-457h266v-127h-266v-608h-182v608h-262v127h262v457h-400v160h981z" />
    <glyph glyph-name="tbar" unicode="&#x167;" horiz-adv-x="776" 
d="M727 25q-86 -50 -211 -50q-276 0 -276 279v240h-226v127h226v247h-226v127h54q114 0 160 42t46 147v114h164v-114q0 -95 -37 -136q-38 -43 -131 -53h428v-127h-280v-247h278v-127h-278v-211q0 -158 125 -158q91 0 155 70z" />
    <glyph glyph-name="Utilde" unicode="&#x168;" horiz-adv-x="1310" 
d="M164 1352h182v-867q0 -163 83 -257q82 -93 226 -93q143 0 226 93q81 92 86 257v867h180v-867q0 -152 -61 -269q-59 -114 -172 -178q-111 -63 -259 -63t-259 63q-113 64 -172 178q-60 116 -60 269v867zM272 1499q7 111 62 167q52 54 155 54q48 0 93 -18q40 -16 112 -64
q48 -31 71 -41t50 -10q48 0 69 30q22 31 23 99l131 -24q-7 -114 -61 -169q-53 -55 -158 -55q-47 0 -92 18q-50 20 -113 62q-47 31 -69 41q-23 10 -51 10q-46 0 -67 -28q-23 -31 -24 -96z" />
    <glyph glyph-name="utilde" unicode="&#x169;" horiz-adv-x="1085" 
d="M745 995h179v-995h-179v211q-33 -114 -108 -174q-77 -62 -184 -62q-146 0 -230 111t-84 303v606h178v-587q0 -138 57 -210q58 -73 158 -73q102 0 158 73q55 71 55 210v587zM193 1157q5 124 56 186q53 64 148 64q51 0 88 -19q35 -18 88 -71q32 -36 54 -52t43 -16
q73 0 73 154l131 -23q-5 -123 -55 -187q-51 -65 -145 -65q-50 0 -90 19q-36 17 -90 76q-27 30 -55 51q-18 14 -44 14q-36 0 -54 -37q-17 -35 -17 -116z" />
    <glyph glyph-name="Umacron" unicode="&#x16a;" horiz-adv-x="1310" 
d="M164 1352h182v-867q0 -163 83 -257q82 -93 226 -93q143 0 226 93q81 92 86 257v867h180v-867q0 -152 -61 -269q-59 -114 -172 -178q-111 -63 -259 -63t-259 63q-113 64 -172 178q-60 116 -60 269v867zM340 1507v127h631v-127h-631z" />
    <glyph glyph-name="umacron" unicode="&#x16b;" horiz-adv-x="1085" 
d="M745 995h179v-995h-179v211q-33 -114 -108 -174q-77 -62 -184 -62q-146 0 -230 111t-84 303v606h178v-587q0 -138 57 -210q58 -73 158 -73q102 0 158 73q55 71 55 210v587zM248 1178v127h569v-127h-569z" />
    <glyph glyph-name="Ubreve" unicode="&#x16c;" horiz-adv-x="1310" 
d="M164 1352h182v-867q0 -163 83 -257q82 -93 226 -93q143 0 226 93q81 92 86 257v867h180v-867q0 -152 -61 -269q-59 -114 -172 -178q-111 -63 -259 -63t-259 63q-113 64 -172 178q-60 116 -60 269v867zM997 1714q-33 -239 -342 -239q-310 0 -340 239l146 23
q12 -144 194 -144q185 0 197 144z" />
    <glyph glyph-name="ubreve" unicode="&#x16d;" horiz-adv-x="1085" 
d="M745 995h179v-995h-179v211q-33 -114 -108 -174q-77 -62 -184 -62q-146 0 -230 111t-84 303v606h178v-587q0 -138 57 -210q58 -73 158 -73q102 0 158 73q55 71 55 210v587zM840 1413q-8 -136 -87 -209q-80 -74 -221 -74t-221 74q-81 74 -88 209l139 19q-2 -86 44 -136
q45 -49 126 -49q82 0 127 49t43 138z" />
    <glyph glyph-name="Uring" unicode="&#x16e;" horiz-adv-x="1310" 
d="M164 1352h182v-867q0 -163 83 -257q82 -93 226 -93q143 0 226 93q81 92 86 257v867h180v-867q0 -152 -61 -269q-59 -114 -172 -178q-111 -63 -259 -63t-259 63q-113 64 -172 178q-60 116 -60 269v867zM492 1498q-62 57 -62 144t63 144t162 57q100 0 163 -57t63 -144
q0 -86 -63 -143t-163 -57q-103 0 -163 56zM731 1568q31 31 31 74q0 45 -31 74t-76 29t-76 -29q-30 -28 -30 -74q0 -43 31 -74q30 -30 75 -30q46 0 76 30z" />
    <glyph glyph-name="uring" unicode="&#x16f;" horiz-adv-x="1085" 
d="M745 995h179v-995h-179v211q-33 -114 -108 -174q-77 -62 -184 -62q-146 0 -230 111t-84 303v606h178v-587q0 -138 57 -210q58 -73 158 -73q102 0 158 73q55 71 55 210v587zM365 1162q-62 57 -62 145q0 86 63 143t162 57q100 0 163 -57t63 -143q0 -87 -63 -144t-163 -57
q-103 0 -163 56zM604 1232q31 31 31 75t-31 73t-76 29t-76 -29q-30 -28 -30 -73q0 -44 31 -75q30 -30 75 -30q46 0 76 30z" />
    <glyph glyph-name="Uhungarumlaut" unicode="&#x170;" horiz-adv-x="1310" 
d="M164 1352h182v-867q0 -163 83 -257q82 -93 226 -93q143 0 226 93q81 92 86 257v867h180v-867q0 -152 -61 -269q-59 -114 -172 -178q-111 -63 -259 -63t-259 63q-113 64 -172 178q-60 116 -60 269v867zM498 1470l-174 27l294 250l185 -29zM887 1470l-174 27l295 250
l184 -29z" />
    <glyph glyph-name="uhungarumlaut" unicode="&#x171;" horiz-adv-x="1085" 
d="M745 995h179v-995h-179v211q-33 -114 -108 -174q-77 -62 -184 -62q-146 0 -230 111t-84 303v606h178v-587q0 -138 57 -210q58 -73 158 -73q102 0 158 73q55 71 55 210v587zM383 1124l-158 23l267 291l165 -27zM737 1124l-157 23l264 291l168 -27z" />
    <glyph glyph-name="Uogonek" unicode="&#x172;" horiz-adv-x="1310" 
d="M1147 485q0 -149 -56 -261q-57 -115 -161 -177q-57 -36 -93 -84q-34 -46 -34 -94q0 -46 24 -70t70 -24q53 0 90 43l23 -135q-56 -33 -140 -33q-94 0 -152 46q-59 47 -59 122q0 98 99 166q-52 -9 -103 -9q-148 0 -259 63q-113 64 -172 178q-60 116 -60 269v867h182v-867
q0 -163 83 -257q82 -93 226 -93q143 0 226 93q81 92 86 257v867h180v-867z" />
    <glyph glyph-name="uogonek" unicode="&#x173;" horiz-adv-x="1085" 
d="M924 0l-76 4q-20 0 -49 -4h-54v211q-33 -114 -108 -174q-77 -62 -184 -62q-146 0 -230 111t-84 303v606h178v-587q0 -138 57 -210q58 -73 158 -73q102 0 158 73q55 71 55 210v587h179v-995zM924 0q-99 -22 -150 -61q-53 -41 -53 -95q0 -38 24 -61q25 -23 70 -23
q53 0 86 41l23 -133q-56 -33 -138 -33q-91 0 -149 46q-57 45 -57 118q0 76 61 131t158 70h125z" />
    <glyph glyph-name="Wcircumflex" unicode="&#x174;" horiz-adv-x="1974" 
d="M1378 197l287 1155h186l-346 -1352h-250l-268 1165l-268 -1165h-250l-346 1352h186l287 -1159l266 1159h250zM1061 1731l282 -240l-174 -25l-186 158l-190 -158l-175 25l289 240h154z" />
    <glyph glyph-name="wcircumflex" unicode="&#x175;" horiz-adv-x="1622" 
d="M1137 174l213 821h178l-268 -995h-242l-207 819l-207 -819h-242l-268 995h178l213 -821l205 821h242zM856 1425l260 -282l-153 -23l-181 189l-184 -189l-156 23l269 282h145z" />
    <glyph glyph-name="Ycircumflex" unicode="&#x176;" horiz-adv-x="1228" 
d="M614 715l344 637h207l-458 -838v-514h-183v514l-461 838h207zM698 1731l283 -240l-174 -25l-186 158l-191 -158l-174 25l289 240h153z" />
    <glyph glyph-name="ycircumflex" unicode="&#x177;" horiz-adv-x="1013" 
d="M778 995h189l-349 -964q-63 -170 -124 -257q-67 -94 -158 -139q-93 -46 -232 -53l-53 185q44 -7 72 -7q110 0 191 67q79 65 126 204l17 47h-76l-334 917h189l272 -772zM602 1425l260 -282l-153 -23l-181 189l-184 -189l-156 23l269 282h145z" />
    <glyph glyph-name="Ydieresis" unicode="&#x178;" horiz-adv-x="1228" 
d="M614 715l344 637h207l-458 -838v-514h-183v514l-461 838h207zM336 1702h190l2 -205h-190zM707 1702h190l2 -205h-190z" />
    <glyph glyph-name="Zacute" unicode="&#x179;" horiz-adv-x="1253" 
d="M1073 1104l-743 -944h762v-160h-930v248l743 944h-725v160h893v-248zM635 1470l-174 27l295 250l184 -29z" />
    <glyph glyph-name="zacute" unicode="&#x17a;" horiz-adv-x="923" 
d="M815 770l-551 -616h565v-154h-735v225l551 617h-539v153h709v-225zM461 1124l-158 23l266 291l166 -27z" />
    <glyph glyph-name="Zdotaccent" unicode="&#x17b;" horiz-adv-x="1253" 
d="M1073 1104l-743 -944h762v-160h-930v248l743 944h-725v160h893v-248zM535 1702h186v-205h-186v205z" />
    <glyph glyph-name="zdotaccent" unicode="&#x17c;" horiz-adv-x="923" 
d="M815 770l-551 -616h565v-154h-735v225l551 617h-539v153h709v-225zM367 1384h186v-217h-186v217z" />
    <glyph glyph-name="Zcaron" unicode="&#x17d;" horiz-adv-x="1253" 
d="M1073 1104l-743 -944h762v-160h-930v248l743 944h-725v160h893v-248zM631 1571l186 158l174 -25l-282 -240h-154l-289 240l174 25z" />
    <glyph glyph-name="zcaron" unicode="&#x17e;" horiz-adv-x="923" 
d="M815 770l-551 -616h565v-154h-735v225l551 617h-539v153h709v-225zM465 1235l180 188l154 -22l-260 -283h-146l-268 283l156 22z" />
    <glyph glyph-name="uni018F" unicode="&#x18f;" horiz-adv-x="1355" 
d="M958 1290q132 -86 203 -244q72 -159 72 -370q0 -208 -71 -368q-71 -159 -199 -246q-129 -87 -299 -87q-166 0 -288 77t-188 221q-65 142 -65 341q0 38 4 99h917q-6 149 -56 264q-50 114 -135 177t-196 63q-122 0 -202 -74t-101 -205l-196 66q52 177 182 275
q128 97 313 97q174 0 305 -86zM913 251q101 116 125 310h-708q6 -201 94 -313q89 -113 242 -113q146 0 247 116z" />
    <glyph glyph-name="florin" unicode="&#x192;" horiz-adv-x="1081" 
d="M1057 1329l-33 -180q-60 68 -162 68q-84 0 -125 -59t-63 -214l-27 -168h309v-127h-327l-41 -268q-30 -200 -122 -303t-239 -103q-114 0 -202 48l32 180q57 -68 156 -68q85 0 129 61q43 60 66 214l36 239h-305v127h324l31 197q30 200 120 302q89 101 238 101q93 0 205 -47
z" />
    <glyph glyph-name="uni01CD" unicode="&#x1cd;" horiz-adv-x="1275" 
d="M1196 0h-192l-115 365h-500l-115 -365h-194l432 1352h252zM639 1169l-203 -653h406zM659 1571l187 158l174 -25l-283 -240h-153l-289 240l174 25z" />
    <glyph glyph-name="uni01CE" unicode="&#x1ce;" horiz-adv-x="1046" 
d="M804 921q103 -99 103 -278v-643h-178v168q-29 -93 -106 -142q-80 -51 -195 -51q-143 0 -232 84q-90 85 -90 217q0 137 98 226q97 88 249 88q107 0 177 -48t99 -139v228q0 117 -55 182q-56 66 -156 66q-95 0 -152 -63t-57 -171l-184 62q16 145 122 229q105 84 271 84
q182 0 286 -99zM669 163q60 47 60 122q0 73 -60 118q-61 46 -159 46t-160 -47q-61 -46 -61 -117q0 -76 61 -122t160 -46q100 0 159 46zM518 1235l180 188l154 -22l-260 -283h-146l-268 283l156 22z" />
    <glyph glyph-name="Gcaron" unicode="&#x1e6;" horiz-adv-x="1382" 
d="M698 735h510v-735h-182v326q-57 -351 -367 -351q-158 0 -279 88q-123 90 -190 247q-67 158 -67 364q0 210 72 369t202 246t305 87q188 0 316 -97q129 -98 180 -275l-197 -66q-16 127 -97 203q-80 76 -208 76q-111 0 -200 -68t-137 -191t-48 -282t49 -281
q49 -121 137 -191q87 -69 199 -69q144 0 235 105q90 104 95 274v70h-328v151zM700 1571l187 158l174 -25l-283 -240h-153l-289 240l174 25z" />
    <glyph glyph-name="gcaron" unicode="&#x1e7;" horiz-adv-x="1003" 
d="M600 141q170 0 264 -75q97 -77 97 -209q0 -141 -116 -216q-115 -75 -333 -75q-207 0 -317 67q-111 67 -111 191q0 16 4 45l191 63q-9 -36 -9 -63q0 -81 63 -122q62 -40 191 -40q254 0 254 143q0 64 -47 99t-131 35h-156q-148 0 -234 47q-85 46 -85 129q0 121 215 151
q-113 34 -177 124q-63 89 -63 220q0 181 116 273t341 92q139 0 227 9q85 9 174 32l-26 -156q-153 -21 -283 -26q126 -21 180 -80q56 -61 56 -170q0 -157 -105 -249q-104 -91 -286 -91q-108 0 -158 -18q-49 -18 -49 -56q0 -74 157 -74h156zM340 818q-57 -60 -57 -163t56 -163
q57 -62 155 -62q95 0 152 60q56 59 56 165q0 102 -55 161q-57 62 -153 63q-96 0 -154 -61zM498 1235l180 188l153 -22l-260 -283h-145l-268 283l155 22z" />
    <glyph glyph-name="uni01F4" unicode="&#x1f4;" horiz-adv-x="1382" 
d="M698 735h510v-735h-182v326q-57 -351 -367 -351q-158 0 -279 88q-123 90 -190 247q-67 158 -67 364q0 210 72 369t202 246t305 87q188 0 316 -97q129 -98 180 -275l-197 -66q-16 127 -97 203q-80 76 -208 76q-111 0 -200 -68t-137 -191t-48 -282t49 -281
q49 -121 137 -191q87 -69 199 -69q144 0 235 105q90 104 95 274v70h-328v151zM705 1470l-175 27l295 250l185 -29z" />
    <glyph glyph-name="uni01F5" unicode="&#x1f5;" horiz-adv-x="1003" 
d="M600 141q170 0 264 -75q97 -77 97 -209q0 -141 -116 -216q-115 -75 -333 -75q-207 0 -317 67q-111 67 -111 191q0 16 4 45l191 63q-9 -36 -9 -63q0 -81 63 -122q62 -40 191 -40q254 0 254 143q0 64 -47 99t-131 35h-156q-148 0 -234 47q-85 46 -85 129q0 121 215 151
q-113 34 -177 124q-63 89 -63 220q0 181 116 273t341 92q139 0 227 9q85 9 174 32l-26 -156q-153 -21 -283 -26q126 -21 180 -80q56 -61 56 -170q0 -157 -105 -249q-104 -91 -286 -91q-108 0 -158 -18q-49 -18 -49 -56q0 -74 157 -74h156zM340 818q-57 -60 -57 -163t56 -163
q57 -62 155 -62q95 0 152 60q56 59 56 165q0 102 -55 161q-57 62 -153 63q-96 0 -154 -61zM494 1124l-158 23l266 291l166 -27z" />
    <glyph glyph-name="Aringacute" unicode="&#x1fa;" horiz-adv-x="1275" 
d="M1196 0h-192l-115 365h-500l-115 -365h-194l432 1352h252zM639 1169l-203 -653h406zM492 1498q-62 57 -62 144t63 144t162 57q100 0 163 -57t63 -144q0 -86 -63 -143t-163 -57q-103 0 -163 56zM731 1568q31 31 31 74q0 45 -31 74t-76 29t-76 -29q-30 -28 -30 -74
q0 -43 31 -74q30 -30 75 -30q46 0 76 30zM664 1942l-175 26l295 250l185 -29z" />
    <glyph glyph-name="aringacute" unicode="&#x1fb;" horiz-adv-x="1046" 
d="M804 921q103 -99 103 -278v-643h-178v168q-29 -93 -106 -142q-80 -51 -195 -51q-143 0 -232 84q-90 85 -90 217q0 137 98 226q97 88 249 88q107 0 177 -48t99 -139v228q0 117 -55 182q-56 66 -156 66q-95 0 -152 -63t-57 -171l-184 62q16 145 122 229q105 84 271 84
q182 0 286 -99zM669 163q60 47 60 122q0 73 -60 118q-61 46 -159 46t-160 -47q-61 -46 -61 -117q0 -76 61 -122t160 -46q100 0 159 46zM346 1162q-61 57 -61 145q0 87 62 143q63 57 163 57t163 -57q62 -56 62 -143q0 -88 -62 -144q-63 -57 -163 -57q-104 0 -164 56z
M586 1232q30 30 30 75t-30 73q-31 29 -76 29q-46 0 -77 -29q-30 -28 -30 -73q0 -44 31 -75q30 -30 76 -30t76 30zM514 1595l-158 23l267 291l165 -27z" />
    <glyph glyph-name="AEacute" unicode="&#x1fc;" horiz-adv-x="1720" 
d="M1589 1352v-160h-721l76 -426h565v-152h-538l82 -454h536v-160h-692l-68 373h-458l-144 -373h-194l528 1352h1028zM684 1192l-256 -668h375zM1057 1470l-174 27l295 250l184 -29z" />
    <glyph glyph-name="aeacute" unicode="&#x1fd;" horiz-adv-x="1699" 
d="M911 463q7 -157 80 -252q72 -94 187 -94q100 0 164 70t69 184l176 -58q-21 -151 -135 -244q-115 -94 -281 -94q-142 0 -247 75t-156 208q-7 -133 -101 -208q-93 -75 -239 -75q-143 0 -232 84q-90 85 -90 217q0 137 98 226q97 88 249 88q107 0 178 -49q70 -48 98 -142v232
q0 117 -55 182q-56 66 -156 66q-95 0 -152 -63t-57 -171l-184 62q16 145 122 229q105 84 271 84t266 -82q101 -83 119 -229q33 153 115 232t211 79q111 0 195 -56q85 -56 131 -158q47 -103 47 -235q0 -49 -9 -108h-682zM1415 590q-6 137 -68 212q-63 77 -169 77
q-104 0 -173 -77q-69 -76 -87 -212h497zM669 163q60 47 60 122q0 73 -60 118q-61 46 -159 46t-160 -47q-61 -46 -61 -117q0 -76 61 -122t160 -46q100 0 159 46zM844 1124l-158 23l266 291l166 -27z" />
    <glyph glyph-name="Oslashacute" unicode="&#x1fe;" horiz-adv-x="1394" 
d="M1096 1204q87 -96 131 -229q45 -135 45 -299q0 -203 -70 -364q-68 -158 -200 -247q-133 -90 -306 -90q-164 0 -297 84l-86 -141h-149l137 225q-85 95 -132 231q-46 135 -46 302q0 202 70 363q70 160 199 248q131 89 304 89q170 0 301 -86l88 144h150zM401 311l506 830
q-91 76 -211 76q-113 0 -201 -70t-136 -193t-48 -278q0 -220 90 -365zM899 205q88 68 136 192q48 123 48 279q0 215 -90 362l-504 -829q91 -74 207 -74q113 0 203 70zM717 1470l-174 27l295 250l184 -29z" />
    <glyph glyph-name="oslashacute" unicode="&#x1ff;" horiz-adv-x="1097" 
d="M866 891q65 -68 100 -170q33 -96 33 -223q0 -160 -55 -277q-56 -120 -157 -182q-104 -64 -238 -64q-113 0 -211 48l-64 -105h-151l113 182q-138 146 -138 398q0 156 56 276q56 121 156 182q104 64 239 64q118 0 217 -51l65 108h150zM332 260l352 576q-62 43 -135 43
q-121 0 -195 -106q-73 -104 -73 -275q0 -139 51 -238zM743 223q74 106 74 275q0 140 -49 231l-348 -571q60 -39 129 -39q121 0 194 104zM553 1124l-158 23l267 291l165 -27z" />
    <glyph glyph-name="uni0218" unicode="&#x218;" horiz-adv-x="1167" 
d="M283 420q6 -142 84 -214q79 -73 221 -73q131 0 209 54q77 53 77 145q0 59 -30 101q-28 40 -108 85q-73 41 -224 100q-200 79 -288 178q-87 98 -87 242q0 98 56 175t153 120q98 43 225 43q194 0 316 -100t143 -272l-196 -66q5 131 -65 205q-69 74 -198 74q-110 0 -178 -50
q-67 -49 -67 -129q0 -58 29 -99t102 -82t202 -93q155 -61 241 -120q88 -61 125 -135q38 -76 38 -177q0 -108 -59 -189q-60 -83 -167 -126q-109 -44 -249 -44q-214 0 -348 102q-133 102 -154 279zM502 -408q57 76 57 152q0 70 -51 133h164q35 -53 35 -123q0 -87 -66 -188z
" />
    <glyph glyph-name="uni0219" unicode="&#x219;" horiz-adv-x="950" 
d="M248 356q-2 -16 -2 -34q0 -101 59 -153t172 -52q95 0 148 35t53 94q0 53 -55 93q-52 38 -203 95q-182 70 -250 141q-70 73 -70 187q0 113 100 186q99 72 259 72q161 0 262 -80t113 -215l-172 -55q6 97 -47 153t-156 56q-79 0 -128 -32q-48 -31 -48 -85q0 -53 53 -92
q51 -38 190 -90q122 -44 201 -95q72 -47 102 -103q31 -59 31 -136q0 -121 -105 -196t-280 -75q-182 0 -287 84q-103 83 -114 238zM381 -408q57 76 57 152q0 70 -51 133h164q35 -53 35 -123q0 -87 -66 -188z" />
    <glyph glyph-name="uni021A" unicode="&#x21a;" horiz-adv-x="1091" 
d="M55 1352h981v-160h-399v-1192h-182v1192h-400v160zM459 -408q57 76 57 152q0 70 -51 133h164q35 -53 35 -123q0 -87 -66 -188z" />
    <glyph glyph-name="uni021B" unicode="&#x21b;" horiz-adv-x="776" 
d="M727 25q-86 -50 -211 -50q-276 0 -276 279v614h-226v127h54q114 0 160 42t46 147v114h164v-114q0 -95 -37 -136q-38 -43 -131 -53h428v-127h-280v-585q0 -158 125 -158q91 0 155 70zM375 -408q57 76 57 152q0 70 -51 133h164q35 -53 35 -123q0 -87 -66 -188z" />
    <glyph glyph-name="uni0232" unicode="&#x232;" horiz-adv-x="1228" 
d="M614 715l344 637h207l-458 -838v-514h-183v514l-461 838h207zM301 1507v127h631v-127h-631z" />
    <glyph glyph-name="uni0233" unicode="&#x233;" horiz-adv-x="1013" 
d="M778 995h189l-349 -964q-63 -170 -124 -257q-67 -94 -158 -139q-93 -46 -232 -53l-53 185q44 -7 72 -7q110 0 191 67q79 65 126 204l17 47h-76l-334 917h189l272 -772zM240 1178v127h569v-127h-569z" />
    <glyph glyph-name="uni0237" unicode="&#x237;" horiz-adv-x="501" 
d="M-121 -233q44 -7 72 -7q102 0 157 67q54 66 54 193v975h178v-1015q0 -190 -103 -292q-103 -101 -305 -106z" />
    <glyph glyph-name="uni0259" unicode="&#x259;" horiz-adv-x="1069" 
d="M759 956q100 -61 156 -182q56 -120 56 -276q0 -157 -56 -277q-56 -121 -156 -182q-104 -64 -237 -64q-195 0 -309 123q-115 124 -115 326q0 54 8 108h682q-8 158 -79 252q-72 95 -187 95q-98 0 -164 -71q-64 -69 -69 -183l-176 57q21 150 134 244t275 94q133 0 237 -64z
M695 195q69 78 87 211h-497q6 -137 68 -212q63 -77 169 -77q104 0 173 78z" />
    <glyph glyph-name="circumflex" unicode="&#x2c6;" horiz-adv-x="1277" 
d="M715 1425l260 -282l-154 -23l-180 189l-184 -189l-156 23l268 282h146z" />
    <glyph glyph-name="caron" unicode="&#x2c7;" horiz-adv-x="1277" 
d="M641 1235l180 188l154 -22l-260 -283h-146l-268 283l156 22z" />
    <glyph glyph-name="breve" unicode="&#x2d8;" horiz-adv-x="1277" 
d="M946 1413q-8 -136 -87 -209q-80 -74 -220 -74q-141 0 -221 74q-81 74 -88 209l139 19q-2 -87 43 -136t127 -49t127 49t43 138z" />
    <glyph glyph-name="dotaccent" unicode="&#x2d9;" horiz-adv-x="1277" 
d="M545 1384h186v-217h-186v217z" />
    <glyph glyph-name="ring" unicode="&#x2da;" horiz-adv-x="1277" 
d="M475 1162q-61 57 -61 145q0 87 62 143q63 57 163 57t163 -57q62 -56 62 -143q0 -88 -62 -144q-63 -57 -163 -57q-104 0 -164 56zM715 1232q30 30 30 75t-30 73q-31 29 -76 29q-46 0 -77 -29q-30 -28 -30 -73q0 -44 31 -75q30 -30 76 -30t76 30z" />
    <glyph glyph-name="ogonek" unicode="&#x2db;" horiz-adv-x="1277" 
d="M524 -319q-57 45 -57 118q0 84 76 144t192 61l76 -4q-98 -21 -149 -61q-54 -42 -54 -95q0 -38 25 -61t69 -23q53 0 86 41l23 -133q-55 -33 -137 -33q-92 0 -150 46z" />
    <glyph glyph-name="tilde" unicode="&#x2dc;" horiz-adv-x="1277" 
d="M297 1157q5 124 56 186q53 64 149 64q51 0 88 -19q35 -18 88 -71q34 -38 53 -52q22 -16 43 -16q74 0 74 154l131 -23q-5 -123 -55 -187q-51 -65 -146 -65q-50 0 -90 19q-36 17 -90 76q-30 32 -54 51q-18 14 -44 14q-37 0 -55 -37q-17 -35 -17 -116z" />
    <glyph glyph-name="hungarumlaut" unicode="&#x2dd;" horiz-adv-x="1277" 
d="M403 1124l-157 23l266 291l166 -27zM758 1124l-158 23l264 291l168 -27z" />
    <glyph glyph-name="gravecomb" unicode="&#x300;" horiz-adv-x="0" 
d="M-106 1438l264 -291l-158 -23l-274 287z" />
    <glyph glyph-name="acutecomb" unicode="&#x301;" horiz-adv-x="0" 
d="M0 1124l-158 23l267 291l165 -27z" />
    <glyph glyph-name="uni0302" unicode="&#x302;" horiz-adv-x="0" 
d="M78 1425l260 -282l-154 -23l-180 189l-184 -189l-156 23l268 282h146z" />
    <glyph glyph-name="tildecomb" unicode="&#x303;" horiz-adv-x="0" 
d="M-340 1157q5 124 56 186q53 64 149 64q51 0 88 -19q35 -18 88 -71q34 -38 53 -52q22 -16 43 -16q74 0 74 154l131 -23q-5 -123 -55 -187q-51 -65 -146 -65q-50 0 -90 19q-36 17 -90 76q-30 32 -54 51q-18 14 -44 14q-36 0 -54 -37t-18 -116z" />
    <glyph glyph-name="uni0304" unicode="&#x304;" horiz-adv-x="0" 
d="M-285 1178v127h570v-127h-570z" />
    <glyph glyph-name="uni0306" unicode="&#x306;" horiz-adv-x="0" 
d="M307 1413q-8 -136 -87 -209q-80 -74 -220 -74q-141 0 -221 74q-81 74 -88 209l139 19q-2 -87 43 -136t127 -49t127 49t43 138z" />
    <glyph glyph-name="uni0307" unicode="&#x307;" horiz-adv-x="0" 
d="M-94 1384h186v-217h-186v217z" />
    <glyph glyph-name="uni0308" unicode="&#x308;" horiz-adv-x="0" 
d="M-268 1384h188l2 -217h-188zM76 1384h188l2 -217h-188z" />
    <glyph glyph-name="uni030A" unicode="&#x30a;" horiz-adv-x="0" 
d="M-164 1162q-61 57 -61 145q0 87 62 143q63 57 163 57t163 -57q62 -56 62 -143q0 -88 -62 -144q-63 -57 -163 -57q-104 0 -164 56zM76 1232q30 30 30 75t-30 73q-31 29 -76 29q-46 0 -77 -29q-29 -28 -29 -73t30 -75t76 -30t76 30z" />
    <glyph glyph-name="uni030B" unicode="&#x30b;" horiz-adv-x="0" 
d="M-150 1124l-157 23l266 291l166 -27zM205 1124l-158 23l264 291l168 -27z" />
    <glyph glyph-name="uni030C" unicode="&#x30c;" horiz-adv-x="0" 
d="M4 1235l180 188l154 -22l-260 -283h-146l-268 283l156 22z" />
    <glyph glyph-name="uni0312" unicode="&#x312;" horiz-adv-x="0" 
d="M-76 1128q-35 53 -35 123q0 109 88 215l142 -22q-82 -94 -82 -182q0 -66 51 -134h-164z" />
    <glyph glyph-name="uni0326" unicode="&#x326;" horiz-adv-x="0" 
d="M-88 -408q57 76 57 152q0 70 -51 133h164q35 -53 35 -123q0 -87 -66 -188z" />
    <glyph glyph-name="uni0327" unicode="&#x327;" horiz-adv-x="0" 
d="M53 -109q63 0 99 -33t36 -85q0 -63 -54 -101q-53 -37 -144 -37q-92 0 -144 35l21 129q28 -25 51 -35t57 -10q39 0 62 15q22 15 22 41q0 33 -35 53t-104 28h-2l21 109h133z" />
    <glyph glyph-name="uni0328" unicode="&#x328;" horiz-adv-x="0" 
d="M-283 -319q-57 45 -57 118q0 84 76 144t192 61l76 -4q-98 -21 -149 -61q-54 -42 -54 -95q0 -38 25 -61t70 -23q53 0 86 41l22 -133q-55 -33 -137 -33q-92 0 -150 46z" />
    <glyph glyph-name="uni0394" unicode="&#x394;" horiz-adv-x="1157" 
d="M453 1352h249l375 -1192v-160h-997v160zM899 160l-321 1020l-318 -1020h639z" />
    <glyph glyph-name="uni03A9" unicode="&#x3a9;" horiz-adv-x="1398" 
d="M1189 366q-87 -149 -245 -206h305v-160h-473v139q139 30 225 179t86 362q0 158 -48 279q-49 123 -136 190q-89 68 -203 68q-113 0 -202 -68q-88 -67 -138 -190q-49 -120 -49 -279q0 -213 86 -362t228 -179v-139h-473v160h305q-157 57 -246 206q-88 148 -88 363
q0 188 73 337q71 144 203 228q130 82 301 82q169 0 299 -82q134 -85 204 -228q73 -149 73 -337q0 -215 -87 -363z" />
    <glyph glyph-name="uni03BC" unicode="&#x3bc;" horiz-adv-x="1105" 
d="M766 995h178v-995h-178v213q-32 -111 -106 -175q-72 -63 -173 -63q-102 0 -168 66v-451h-157v1405h176v-587q0 -137 56 -209q57 -74 159 -74t158 74q55 73 55 209v587z" />
    <glyph glyph-name="pi" unicode="&#x3c0;" horiz-adv-x="1263" 
d="M1214 25q-95 -50 -198 -50q-128 0 -188 68q-60 67 -60 211v588h-332v-842h-178v842h-238v153h1164v-153h-240v-568q0 -78 25 -114q24 -35 78 -35q75 0 137 70z" />
    <glyph glyph-name="Wgrave" unicode="&#x1e80;" horiz-adv-x="1974" 
d="M1378 197l287 1155h186l-346 -1352h-250l-268 1165l-268 -1165h-250l-346 1352h186l287 -1159l266 1159h250zM858 1747l295 -250l-174 -27l-305 248z" />
    <glyph glyph-name="wgrave" unicode="&#x1e81;" horiz-adv-x="1622" 
d="M1137 174l213 821h178l-268 -995h-242l-207 819l-207 -819h-242l-268 995h178l213 -821l205 821h242zM672 1438l264 -291l-158 -23l-274 287z" />
    <glyph glyph-name="Wacute" unicode="&#x1e82;" horiz-adv-x="1974" 
d="M1378 197l287 1155h186l-346 -1352h-250l-268 1165l-268 -1165h-250l-346 1352h186l287 -1159l266 1159h250zM987 1470l-174 27l295 250l184 -29z" />
    <glyph glyph-name="wacute" unicode="&#x1e83;" horiz-adv-x="1622" 
d="M1137 174l213 821h178l-268 -995h-242l-207 819l-207 -819h-242l-268 995h178l213 -821l205 821h242zM778 1124l-157 23l266 291l166 -27z" />
    <glyph glyph-name="Wdieresis" unicode="&#x1e84;" horiz-adv-x="1974" 
d="M1378 197l287 1155h186l-346 -1352h-250l-268 1165l-268 -1165h-250l-346 1352h186l287 -1159l266 1159h250zM698 1702h191l2 -205h-191zM1069 1702h191l2 -205h-191z" />
    <glyph glyph-name="wdieresis" unicode="&#x1e85;" horiz-adv-x="1622" 
d="M1137 174l213 821h178l-268 -995h-242l-207 819l-207 -819h-242l-268 995h178l213 -821l205 821h242zM510 1384h188l2 -217h-188zM854 1384h188l2 -217h-188z" />
    <glyph glyph-name="uni1E9E" unicode="&#x1e9e;" horiz-adv-x="1363" 
d="M1213 463q47 -79 47 -168q0 -151 -106 -236q-105 -84 -292 -84q-172 0 -321 88l37 191q61 -62 128 -90q70 -29 152 -29q104 0 159 41q54 40 54 121q0 52 -34 101q-40 57 -132 145q-123 117 -169 191t-46 159q0 114 85 192q86 78 241 105h-449q-94 0 -143 -49t-49 -142
v-999h-185v999q0 172 96 263q94 90 279 90h582v-150q-144 -39 -211 -103q-68 -65 -68 -167q0 -68 36 -123q35 -54 147 -160q114 -105 162 -186z" />
    <glyph glyph-name="uni1EBC" unicode="&#x1ebc;" horiz-adv-x="1171" 
d="M1040 1352v-160h-667v-426h588v-152h-588v-454h667v-160h-850v1352h850zM233 1499q7 111 62 167q52 54 156 54q47 0 92 -18q40 -16 112 -64q48 -31 71 -41t50 -10q48 0 69 30q22 31 23 99l131 -24q-7 -114 -61 -169q-53 -55 -158 -55q-47 0 -92 18q-50 20 -113 62
q-47 31 -69 41q-23 10 -51 10q-46 0 -67 -28q-22 -29 -23 -96z" />
    <glyph glyph-name="uni1EBD" unicode="&#x1ebd;" horiz-adv-x="1069" 
d="M281 463q8 -158 79 -252q72 -94 187 -94q98 0 164 70q64 69 69 184l176 -58q-21 -149 -134 -243q-115 -95 -275 -95q-133 0 -237 64q-100 61 -156 182q-56 120 -56 277q0 156 56 276q56 121 156 182q104 64 237 64q195 0 309 -123q115 -124 115 -326q0 -54 -8 -108h-682z
M784 590q-6 137 -68 212q-63 77 -169 77q-104 0 -173 -78t-87 -211h497zM207 1157q5 124 56 186q53 64 149 64q51 0 88 -19q35 -18 88 -71q34 -38 53 -52q22 -16 43 -16q74 0 74 154l131 -23q-5 -123 -55 -187q-51 -65 -146 -65q-50 0 -90 19q-36 17 -90 76q-30 32 -54 51
q-18 14 -44 14q-37 0 -55 -37q-17 -35 -17 -116z" />
    <glyph glyph-name="Ygrave" unicode="&#x1ef2;" horiz-adv-x="1228" 
d="M614 715l344 637h207l-458 -838v-514h-183v514l-461 838h207zM496 1747l295 -250l-175 -27l-305 248z" />
    <glyph glyph-name="ygrave" unicode="&#x1ef3;" horiz-adv-x="1013" 
d="M778 995h189l-349 -964q-63 -170 -124 -257q-67 -94 -158 -139q-93 -46 -232 -53l-53 185q44 -7 72 -7q110 0 191 67q79 65 126 204l17 47h-76l-334 917h189l272 -772zM418 1438l264 -291l-158 -23l-274 287z" />
    <glyph glyph-name="uni1EF8" unicode="&#x1ef8;" horiz-adv-x="1228" 
d="M614 715l344 637h207l-458 -838v-514h-183v514l-461 838h207zM233 1499q7 111 62 167q52 54 156 54q47 0 92 -18q40 -16 112 -64q48 -31 71 -41t50 -10q48 0 69 30q22 31 23 99l131 -24q-7 -114 -61 -169q-53 -55 -158 -55q-47 0 -92 18q-50 20 -113 62q-47 31 -69 41
q-23 10 -51 10q-46 0 -67 -28q-22 -29 -23 -96z" />
    <glyph glyph-name="uni1EF9" unicode="&#x1ef9;" horiz-adv-x="1013" 
d="M778 995h189l-349 -964q-63 -170 -124 -257q-67 -94 -158 -139q-93 -46 -232 -53l-53 185q44 -7 72 -7q110 0 191 67q79 65 126 204l17 47h-76l-334 917h189l272 -772zM184 1157q4 123 57 186q53 64 148 64q51 0 88 -19q35 -18 88 -71q34 -38 53 -52q22 -16 44 -16
q73 0 73 154l131 -23q-5 -123 -55 -187q-51 -65 -145 -65q-51 0 -91 19q-36 17 -90 76q-30 32 -54 51q-18 14 -44 14q-36 0 -54 -37t-18 -116z" />
    <glyph glyph-name="uni2009" unicode="&#x2009;" horiz-adv-x="251" 
 />
    <glyph glyph-name="uni2011" unicode="&#x2011;" horiz-adv-x="755" 
d="M80 453v159h596v-159h-596z" />
    <glyph glyph-name="endash" unicode="&#x2013;" horiz-adv-x="1103" 
d="M80 453v159h944v-159h-944z" />
    <glyph glyph-name="emdash" unicode="&#x2014;" horiz-adv-x="1480" 
d="M80 453v159h1321v-159h-1321z" />
    <glyph glyph-name="quoteleft" unicode="&#x2018;" horiz-adv-x="462" 
d="M162 909q-56 91 -56 176q0 163 152 310l143 -43q-65 -63 -94 -123q-31 -64 -31 -133q0 -97 70 -187h-184z" />
    <glyph glyph-name="quoteright" unicode="&#x2019;" horiz-adv-x="462" 
d="M301 1352q55 -88 55 -176q0 -163 -151 -310l-144 43q67 65 95 123q30 62 30 133q0 99 -69 187h184z" />
    <glyph glyph-name="quotesinglbase" unicode="&#x201a;" horiz-adv-x="462" 
d="M301 238q55 -88 55 -177q0 -162 -151 -309l-144 43q67 65 95 123q30 62 30 133q0 99 -69 187h184z" />
    <glyph glyph-name="quotedblleft" unicode="&#x201c;" horiz-adv-x="813" 
d="M162 909q-56 91 -56 176q0 163 152 310l143 -43q-65 -63 -94 -123q-31 -64 -31 -133q0 -97 70 -187h-184zM512 909q-55 89 -55 176q0 163 151 310l144 -43q-67 -65 -95 -123q-30 -61 -30 -133q0 -98 69 -187h-184z" />
    <glyph glyph-name="quotedblright" unicode="&#x201d;" horiz-adv-x="798" 
d="M301 1352q55 -88 55 -176q0 -163 -151 -310l-144 43q67 65 95 123q30 62 30 133q0 99 -69 187h184zM637 1352q55 -88 55 -176q0 -163 -151 -310l-144 43q67 65 95 123q30 62 30 133q0 99 -69 187h184z" />
    <glyph glyph-name="quotedblbase" unicode="&#x201e;" horiz-adv-x="798" 
d="M301 238q55 -88 55 -177q0 -162 -151 -309l-144 43q67 65 95 123q30 62 30 133q0 99 -69 187h184zM637 238q55 -88 55 -177q0 -162 -151 -309l-144 43q67 65 95 123q30 62 30 133q0 99 -69 187h184z" />
    <glyph glyph-name="dagger" unicode="&#x2020;" horiz-adv-x="804" 
d="M481 1208h244v-159h-244v-517h-159v517h-242v159h242v226h159v-226z" />
    <glyph glyph-name="daggerdbl" unicode="&#x2021;" horiz-adv-x="804" 
d="M725 1229v-160h-244v-172h244v-160h-244v-205h-159v205h-242v160h242v172h-242v160h242v205h159v-205h244z" />
    <glyph glyph-name="bullet" unicode="&#x2022;" horiz-adv-x="1126" 
d="M387 500v352h352v-352h-352z" />
    <glyph glyph-name="ellipsis" unicode="&#x2026;" horiz-adv-x="1175" 
d="M147 238h181v-238h-181v238zM489 238h181v-238h-181v238zM848 238h180v-238h-180v238z" />
    <glyph glyph-name="perthousand" unicode="&#x2030;" horiz-adv-x="3080" 
d="M218 618q-107 117 -107 316q0 129 49 227q50 100 137 153q89 54 205 54q175 0 283 -119t108 -315q0 -198 -108 -316t-283 -118q-176 0 -284 118zM793 0h-181l758 1352h180zM651 730q56 76 56 204q0 126 -56 202q-55 74 -149 74q-95 0 -150 -74t-55 -202q0 -130 55 -204
q56 -75 150 -75t149 75zM1377 104q-107 117 -107 316q0 129 49 227q50 100 137 153q88 54 205 54q176 0 284 -119q107 -117 107 -315q0 -199 -107 -316q-108 -118 -284 -118t-284 118zM2295 104q-108 118 -108 316q0 129 49 227q50 99 138 153t204 54q176 0 284 -119
t108 -315q0 -198 -108 -316t-284 -118q-175 0 -283 118zM1810 216q56 76 56 204q0 126 -56 202q-55 74 -149 74q-95 0 -150 -74t-55 -202q0 -130 55 -204q55 -75 150 -75q93 0 149 75zM2728 216q55 74 55 204q0 128 -55 202t-150 74q-94 0 -149 -74t-55 -202q0 -130 55 -204
q55 -75 149 -75t150 75z" />
    <glyph glyph-name="minute" unicode="&#x2032;" horiz-adv-x="477" 
d="M180 1352h178l-110 -531h-129z" />
    <glyph glyph-name="second" unicode="&#x2033;" horiz-adv-x="808" 
d="M180 1352h178l-110 -531h-129zM512 1352h178l-110 -531h-129z" />
    <glyph glyph-name="guilsinglleft" unicode="&#x2039;" horiz-adv-x="804" 
d="M500 392q108 -94 151 -238l-176 -54q-41 134 -123 222q-81 87 -198 120v148q118 34 202 123q83 88 121 219l174 -53q-45 -145 -153 -239q-109 -96 -265 -124q158 -29 267 -124z" />
    <glyph glyph-name="guilsinglright" unicode="&#x203a;" horiz-adv-x="804" 
d="M328 932q38 -131 121 -219q84 -89 202 -123v-148q-117 -33 -198 -120q-83 -88 -123 -222l-176 54q43 144 151 238q109 96 266 124q-155 28 -264 124q-108 94 -153 239z" />
    <glyph glyph-name="fraction" unicode="&#x2044;" horiz-adv-x="241" 
d="M-168 0h-180l758 1352h180z" />
    <glyph glyph-name="uni2070" unicode="&#x2070;" horiz-adv-x="841" 
d="M229 759q-83 54 -130 153q-46 98 -46 229q0 128 46 226q47 101 130 154q84 54 193 54q108 0 192 -54q83 -54 130 -153q47 -100 47 -227q0 -129 -47 -229q-47 -99 -130 -153q-84 -54 -192 -54q-109 0 -193 54zM560 936q50 77 50 205q0 126 -51 201t-137 75q-88 0 -138 -75
q-51 -77 -51 -201q0 -126 51 -205q49 -76 138 -76t138 76z" />
    <glyph glyph-name="uni2074" unicode="&#x2074;" horiz-adv-x="841" 
d="M811 1047v-154h-133v-174h-184v174h-461v137q133 72 193 198q61 128 61 331h215q0 -118 -50 -227q-48 -104 -139 -183q-86 -75 -194 -102h375v184h184v-184h133z" />
    <glyph glyph-name="uni2075" unicode="&#x2075;" horiz-adv-x="841" 
d="M705 1212q75 -76 75 -200q0 -136 -97 -221q-98 -86 -249 -86q-150 0 -251 70t-109 188l196 65q0 -75 44 -122q43 -46 120 -46q74 0 118 42t44 110q0 65 -44 107t-116 42q-103 0 -162 -71l-176 65l21 404h624v-154h-450l-17 -270q30 73 94 114t140 41q118 0 195 -78z" />
    <glyph glyph-name="uni2076" unicode="&#x2076;" horiz-adv-x="841" 
d="M705 1196q75 -72 75 -192q0 -86 -45 -155q-46 -70 -124 -107t-179 -37q-178 0 -275 113q-98 115 -98 323q0 197 104 316q103 118 273 118q122 0 213 -54q93 -55 127 -149l-194 -63q-5 48 -46 79t-100 31q-91 0 -141 -74q-51 -75 -51 -208q0 -53 6 -99q7 103 75 168
q67 64 179 64q124 0 201 -74zM552 900q46 40 46 104q0 60 -45 101q-44 40 -119 40q-74 0 -120 -40t-46 -101l-10 4v-2l10 -2q0 -63 46 -103q47 -41 118 -41q74 0 120 40z" />
    <glyph glyph-name="uni2077" unicode="&#x2077;" horiz-adv-x="841" 
d="M23 1559h788v-129q-195 -108 -281 -265t-86 -399v-47h-213v47q0 231 128 395q128 165 368 244h-704v154z" />
    <glyph glyph-name="uni2078" unicode="&#x2078;" horiz-adv-x="841" 
d="M718 1118q73 -62 73 -155q0 -115 -102 -187q-101 -71 -269 -71q-166 0 -267 71q-102 72 -102 187q0 92 73 156q71 62 200 79q-246 22 -246 168q0 95 93 152t249 57t250 -57t94 -152q0 -147 -248 -168q129 -18 202 -80zM304 1233q43 -29 116 -29t117 29q43 28 43 78
t-43 78t-117 28q-72 0 -115 -28t-43 -78q0 -49 42 -78zM556 891q50 30 50 82q0 51 -50 81q-48 29 -136 29q-86 0 -134 -29q-50 -30 -50 -81q0 -52 49 -82q51 -31 135 -31q85 0 136 31z" />
    <glyph glyph-name="uni2079" unicode="&#x2079;" horiz-adv-x="841" 
d="M687 1462q97 -112 97 -321q0 -200 -103 -318t-273 -118q-123 0 -214 55q-92 56 -126 147l194 64q5 -48 45 -79q41 -32 101 -32q90 0 141 75t51 210q0 56 -8 98q-7 -105 -76 -169q-66 -62 -176 -62q-126 0 -202 73q-77 74 -77 193q0 86 45 154q45 67 125 105q81 38 181 38
q177 0 275 -113zM586 1274v2l-11 2q0 61 -46 101t-117 40q-74 0 -120 -39t-46 -102t45 -102t119 -39q75 0 120 39t45 102z" />
    <glyph glyph-name="uni2080" unicode="&#x2080;" horiz-adv-x="841" 
d="M229 -157q-83 53 -130 154q-46 98 -46 228q0 129 46 227q47 99 130 153q84 54 193 54q108 0 192 -54t130 -152q47 -100 47 -228t-47 -228q-47 -101 -130 -154q-84 -54 -192 -54q-109 0 -193 54zM560 20q50 77 50 205q0 127 -51 202t-137 75q-88 0 -138 -75
q-51 -77 -51 -202q0 -126 51 -205q49 -75 138 -75t138 75z" />
    <glyph glyph-name="uni2081" unicode="&#x2081;" horiz-adv-x="841" 
d="M539 -43h249v-154h-737v154h305v584q-12 -184 -87 -272q-75 -89 -218 -89v211q249 0 316 252h172v-686z" />
    <glyph glyph-name="uni2082" unicode="&#x2082;" horiz-adv-x="841" 
d="M637 118q-128 -100 -414 -161h535v-154h-686v136q237 86 373 196q137 111 137 223q0 66 -44 105q-43 39 -116 39q-85 0 -128 -55q-42 -54 -36 -148l-199 66q4 133 104 214q98 80 259 80q157 0 251 -79q95 -80 95 -211q0 -149 -131 -251z" />
    <glyph glyph-name="uni2083" unicode="&#x2083;" horiz-adv-x="841" 
d="M713 202q71 -62 71 -159q0 -116 -98 -184q-100 -70 -260 -70q-158 0 -261 61q-104 62 -122 166l197 66q5 -68 52 -102q49 -35 134 -35q80 0 125 30t45 84q0 52 -49 80q-50 29 -139 29h-97v121h97q72 0 119 30q46 30 46 78q0 47 -42 76q-43 29 -105 29q-75 0 -118 -37
q-45 -38 -46 -105l-196 66q21 108 117 170q97 63 243 63q94 0 169 -28q78 -29 121 -78q44 -50 44 -111q0 -70 -62 -111t-188 -48q131 -18 203 -81z" />
    <glyph glyph-name="uni2084" unicode="&#x2084;" horiz-adv-x="841" 
d="M811 131v-154h-133v-174h-184v174h-461v138q133 72 193 197q61 128 61 331h215q0 -117 -50 -226q-48 -106 -139 -184q-86 -75 -194 -102h375v184h184v-184h133z" />
    <glyph glyph-name="uni2085" unicode="&#x2085;" horiz-adv-x="841" 
d="M705 297q75 -76 75 -201q0 -136 -97 -221q-98 -86 -249 -86q-148 0 -251 71q-102 70 -109 187l196 66q0 -75 44 -122q43 -46 120 -46q74 0 118 42t44 109q0 66 -44 108t-116 42q-102 0 -162 -72l-176 66l21 403h624v-154h-450l-17 -270q30 74 94 115t140 41
q118 0 195 -78z" />
    <glyph glyph-name="uni2086" unicode="&#x2086;" horiz-adv-x="841" 
d="M705 281q75 -72 75 -193q0 -86 -45 -155t-124 -106q-81 -38 -179 -38q-178 0 -275 114q-98 115 -98 322q0 198 104 317q102 117 273 117q122 0 213 -54q93 -55 127 -148l-194 -64q-5 48 -46 79q-43 32 -100 32q-90 0 -141 -75t-51 -208q0 -51 6 -98q7 103 75 168
q66 63 179 63q125 0 201 -73zM552 -15q46 40 46 103q0 60 -45 101q-44 40 -119 40q-74 0 -120 -40t-46 -101l-10 4v-2l10 -2q0 -62 46 -102q47 -41 118 -41q74 0 120 40z" />
    <glyph glyph-name="uni2087" unicode="&#x2087;" horiz-adv-x="841" 
d="M23 643h788v-129q-196 -108 -281 -264q-86 -157 -86 -400v-47h-213v47q0 232 128 396q127 163 368 243h-704v154z" />
    <glyph glyph-name="uni2088" unicode="&#x2088;" horiz-adv-x="841" 
d="M718 203q73 -62 73 -156q0 -114 -102 -186t-269 -72q-165 0 -267 72t-102 186q0 93 73 157q71 62 200 79q-246 23 -246 168q0 94 93 151t249 57t250 -57t94 -151q0 -147 -248 -168q129 -18 202 -80zM304 317q41 -28 116 -28q74 0 117 28t43 78t-43 78q-44 29 -117 29
q-71 0 -115 -29q-43 -28 -43 -78q0 -49 42 -78zM556 -25q50 30 50 82q0 51 -50 81q-49 30 -136 30q-84 0 -134 -30t-50 -81q0 -52 49 -82t135 -30q87 0 136 30z" />
    <glyph glyph-name="uni2089" unicode="&#x2089;" horiz-adv-x="841" 
d="M687 547q97 -112 97 -322q0 -199 -103 -317q-104 -119 -273 -119q-123 0 -214 55t-126 148l194 63q5 -48 45 -79t101 -31q91 0 141 74q51 75 51 210q0 57 -8 99q-7 -105 -76 -169q-68 -63 -176 -63q-125 0 -202 74t-77 192q0 86 45 154q46 69 125 106q78 37 181 37
q178 0 275 -112zM586 358v2l-11 2q0 62 -46 102t-117 40q-74 0 -120 -39t-46 -103q0 -63 45 -102t119 -39q75 0 120 39t45 102z" />
    <glyph glyph-name="Euro" unicode="&#x20ac;" horiz-adv-x="1363" 
d="M948 241q79 106 80 283l201 -65q-30 -228 -158 -356t-326 -128q-206 0 -346 142q-138 140 -176 387h-166v127h154v45q0 31 2 55h-156v127h168q39 242 177 380t343 138q199 0 325 -127q126 -128 159 -356l-201 -66q-2 180 -78 285t-207 105q-121 0 -209 -96t-118 -263h391
v-127h-406q-2 -24 -2 -55v-45h408v-127h-393q30 -171 117 -270t208 -99q130 0 209 106z" />
    <glyph glyph-name="uni20BA" unicode="&#x20ba;" horiz-adv-x="1222" 
d="M1157 401q-49 -189 -193 -295q-143 -106 -352 -106h-338v537l-217 -97v140l217 96v96l-217 -96v139l217 96v441h183v-359l442 199v-139l-442 -199v-96l442 198v-139l-442 -199v-458h155q153 0 248 79q97 80 119 222z" />
    <glyph glyph-name="uni20BD" unicode="&#x20bd;" horiz-adv-x="1286" 
d="M426 500v-103h469v-127h-469v-270h-180v270h-189v127h189v103h-189v127h189v725h440q231 2 353 -108t122 -316q0 -212 -122 -320q-121 -108 -353 -108h-260zM426 1192v-565h238q156 0 232 69q77 69 77 213q0 283 -309 283h-238z" />
    <glyph glyph-name="uni20BF" unicode="&#x20bf;" horiz-adv-x="1349" 
d="M1108 116q-105 -99 -293 -114v-213h-127v211h-108v-211h-127v211h-220v1352h220v211h127v-211h108v211h127v-215q171 -15 263 -96q91 -81 91 -220q0 -126 -78 -195q-79 -70 -227 -81q166 -21 257 -119t91 -258q0 -165 -104 -263zM416 1192v-432h299q136 0 203 53
q65 52 65 162q0 112 -65 164q-67 53 -203 53h-299zM752 160q131 0 201 58q71 59 71 167q0 109 -69 166t-203 57h-336v-448h336z" />
    <glyph glyph-name="uni2113" unicode="&#x2113;" horiz-adv-x="1060" 
d="M761 156q51 22 83 57l33 -180q-45 -27 -105 -42q-64 -16 -121 -16q-171 0 -284 104t-156 298l-141 -70l-56 117l179 88q-5 77 -5 106q0 220 62 394q61 172 171 268q109 96 251 96q134 0 216 -79q83 -80 83 -207q0 -164 -138 -322t-399 -289l-47 -24q23 -156 91 -238
q69 -82 179 -82q56 0 104 21zM519 1136q-67 -82 -104 -222q-38 -143 -38 -308v-8l4 2q186 100 294 225q107 123 107 244q0 68 -31 108t-87 40q-79 0 -145 -81z" />
    <glyph glyph-name="uni2116" unicode="&#x2116;" horiz-adv-x="2129" 
d="M1420 706q-95 104 -95 281q0 179 96 284t258 105q164 0 258 -103q95 -104 95 -282q0 -181 -95 -285t-258 -104q-164 0 -259 104zM440 1352l574 -1100v1100h178v-1352h-248l-575 1104v-1104h-179v1352h250zM1555 1158q-44 -61 -44 -167t45 -169q44 -62 121 -62
q79 0 123 62q45 63 45 169q0 107 -45 167q-46 61 -123 61q-78 0 -122 -61zM2005 393h-653v127h653v-127z" />
    <glyph glyph-name="trademark" unicode="&#x2122;" horiz-adv-x="1054" 
d="M10 1272v80h383v-80h-143v-346h-94v346h-146zM719 1014l137 338h125v-426h-90v286l-117 -286h-110l-115 282v-282h-92v426h125z" />
    <glyph glyph-name="uni2126" unicode="&#x2126;" horiz-adv-x="1398" 
d="M1189 366q-87 -149 -245 -206h305v-160h-473v139q139 30 225 179t86 362q0 158 -48 279q-49 123 -136 190q-89 68 -203 68q-113 0 -202 -68q-88 -67 -138 -190q-49 -120 -49 -279q0 -213 86 -362t228 -179v-139h-473v160h305q-157 57 -246 206q-88 148 -88 363
q0 188 73 337q71 144 203 228q130 82 301 82q169 0 299 -82q134 -85 204 -228q73 -149 73 -337q0 -215 -87 -363z" />
    <glyph glyph-name="estimated" unicode="&#x212e;" 
d="M467 262q84 -90 199 -140t243 -50q171 0 313 87t220 232h106q-83 -187 -255 -301q-174 -115 -384 -115q-189 0 -352 95q-161 94 -256 255q-94 160 -94 351t94 351q95 161 256 255t352 94q192 0 352 -94q161 -94 255 -255q94 -160 94 -351q0 -17 -2 -37h-1141v-377z
M666 1230q-115 -50 -199 -140v-355h883v355q-84 90 -199 140t-242 50q-128 0 -243 -50z" />
    <glyph glyph-name="arrowleft" unicode="&#x2190;" horiz-adv-x="1810" 
d="M1593 748v-144h-1247q234 -39 376 -154q141 -114 224 -337l-184 -41q-76 212 -201 336q-123 123 -342 206v123q221 85 345 210t198 333l184 -43q-77 -215 -219 -329q-143 -115 -381 -160h1247z" />
    <glyph glyph-name="arrowup" unicode="&#x2191;" horiz-adv-x="1810" 
d="M967 1364q83 -218 207 -342q125 -125 335 -201l-41 -184q-222 83 -336 224q-116 143 -155 376v-1247h-143v1247q-45 -236 -161 -381q-114 -142 -329 -219l-43 184q209 73 333 198t210 345h123z" />
    <glyph glyph-name="arrowright" unicode="&#x2192;" horiz-adv-x="1810" 
d="M1049 1280q74 -210 197 -333q124 -125 345 -210v-123q-219 -83 -342 -206t-200 -336l-185 41q83 222 225 337t375 154h-1247v144h1247q-238 45 -381 160q-142 114 -219 329z" />
    <glyph glyph-name="arrowdown" unicode="&#x2193;" horiz-adv-x="1810" 
d="M1509 532q-208 -74 -332 -197q-125 -125 -210 -345h-123q-82 218 -207 342q-123 123 -336 200l41 185q223 -83 337 -224q116 -143 155 -376v1247h143v-1247q45 236 161 381q114 142 328 219z" />
    <glyph glyph-name="arrowboth" unicode="&#x2194;" horiz-adv-x="2637" 
d="M1878 1280q74 -208 198 -333t345 -210v-123q-219 -83 -342 -206q-125 -124 -201 -336l-184 41q83 223 224 337q142 115 376 154h-1950q234 -39 376 -154q141 -114 224 -337l-184 -41q-76 212 -201 336q-123 123 -342 206v123q221 85 345 210t198 333l184 -43
q-77 -215 -219 -329q-143 -115 -381 -160h1950q-238 45 -381 160q-142 114 -219 329z" />
    <glyph glyph-name="arrowupdn" unicode="&#x2195;" horiz-adv-x="1810" 
d="M1138 203q114 142 328 219l43 -184q-207 -73 -332 -198q-125 -124 -210 -345h-123q-82 217 -207 342t-336 201l41 184q223 -83 337 -224q116 -143 155 -376v1708q-39 -233 -155 -376q-114 -141 -337 -224l-41 184q211 76 336 201t207 342h123q85 -221 210 -345
q125 -125 332 -198l-43 -184q-214 77 -328 219q-116 145 -161 381v-1708q45 236 161 381z" />
    <glyph glyph-name="uni2196" unicode="&#x2196;" horiz-adv-x="1810" 
d="M1438 244l-101 -101l-882 881q157 -218 157 -434q0 -162 -82 -336l-157 100q94 200 94 379q0 182 -94 389l86 86q213 -94 393 -94t375 94l100 -159q-174 -82 -328 -82q-211 0 -442 159z" />
    <glyph glyph-name="uni2197" unicode="&#x2197;" horiz-adv-x="1810" 
d="M1438 1122q-95 -210 -95 -389q0 -177 95 -379l-158 -100q-82 174 -82 336q0 214 158 434l-883 -881l-100 101l880 882q-229 -159 -442 -159q-154 0 -328 82l101 159q195 -94 374 -94q182 0 394 94z" />
    <glyph glyph-name="uni2198" unicode="&#x2198;" horiz-adv-x="1810" 
d="M1438 997q-95 -198 -95 -374q0 -178 95 -394l-86 -86q-210 95 -389 95q-177 0 -379 -95l-101 158q174 82 336 82q214 0 434 -158l-880 883l100 100l883 -880q-160 232 -160 442q0 154 82 328z" />
    <glyph glyph-name="uni2199" unicode="&#x2199;" horiz-adv-x="1810" 
d="M557 227q220 158 434 158q162 0 336 -82l-100 -158q-202 95 -379 95q-179 0 -389 -95l-86 86q96 221 96 394q0 171 -96 374l159 101q82 -174 82 -328q0 -211 -159 -442l882 880l101 -100z" />
    <glyph glyph-name="partialdiff" unicode="&#x2202;" horiz-adv-x="1150" 
d="M912 1197q128 -179 128 -523q0 -343 -122 -520q-123 -179 -361 -179q-134 0 -238 58q-100 56 -158 163q-57 105 -57 246q0 130 49 231q48 98 135 154q88 56 199 56q147 0 241 -91q95 -92 116 -249q8 64 8 145q0 267 -82 397q-83 132 -250 132q-152 0 -309 -107l35 197
q136 69 293 69q245 0 373 -179zM829 442l-10 -8q0 138 -70 217q-71 80 -194 80q-124 0 -193 -78t-69 -217q0 -138 71 -220q70 -81 189 -81q121 0 193 82q73 84 73 217z" />
    <glyph glyph-name="uni2206" unicode="&#x2206;" horiz-adv-x="1157" 
d="M453 1352h249l375 -1192v-160h-997v160zM899 160l-321 1020l-318 -1020h639z" />
    <glyph glyph-name="product" unicode="&#x220f;" horiz-adv-x="1409" 
d="M1354 1434v-160h-283v-1540h-182v1540h-365v-1540h-182v1540h-287v160h1299z" />
    <glyph glyph-name="summation" unicode="&#x2211;" horiz-adv-x="1107" 
d="M733 481l-354 -567h567v-160h-784v160l440 680l-440 680v160h780v-160h-563l354 -569v-224z" />
    <glyph glyph-name="minus" unicode="&#x2212;" horiz-adv-x="1157" 
d="M129 596v160h899v-160h-899z" />
    <glyph glyph-name="uni2219" unicode="&#x2219;" horiz-adv-x="1157" 
d="M489 795h181v-238h-181v238z" />
    <glyph glyph-name="radical" unicode="&#x221a;" horiz-adv-x="1466" 
d="M932 1434h479v-160h-346l-500 -1561h-243l-261 787h187l194 -617z" />
    <glyph glyph-name="infinity" unicode="&#x221e;" horiz-adv-x="1497" 
d="M1308 990q91 -118 91 -314q0 -200 -91 -318t-243 -118q-125 0 -209 89q-83 88 -106 242q-22 -154 -107 -243q-84 -88 -211 -88q-151 0 -242 119q-92 121 -92 317q0 195 91 313q92 119 243 119q127 0 211 -88q85 -89 107 -240q22 152 105 240q82 88 210 88q152 0 243 -118
zM621 449q59 66 112 227q-53 158 -111 224q-59 67 -143 67q-98 0 -149 -74q-51 -73 -51 -217q0 -142 51 -219q51 -76 147 -76q84 0 144 68zM1167 457q52 78 52 219q0 142 -52 217q-51 74 -149 74q-83 0 -142 -66q-60 -68 -112 -225q52 -162 112 -229q58 -66 144 -66
q96 0 147 76z" />
    <glyph glyph-name="integral" unicode="&#x222b;" horiz-adv-x="1148" 
d="M53 -207q57 -67 156 -67q85 0 129 60q42 58 65 214l162 1055q30 198 121 302q89 101 238 101q92 0 204 -47l-32 -180q-60 67 -162 67q-85 0 -125 -58q-42 -60 -64 -214l-161 -1055q-28 -197 -121 -302q-91 -103 -240 -103q-117 0 -203 47z" />
    <glyph glyph-name="approxequal" unicode="&#x2248;" horiz-adv-x="1157" 
d="M104 768q18 116 94 186t181 70q66 0 117 -24q60 -28 120 -66q58 -37 94 -54q34 -16 64 -16q54 0 85 37q32 38 38 105l156 -29q-15 -117 -91 -187q-77 -71 -188 -71q-64 0 -117 24q-51 23 -114 68q-53 36 -89 53t-69 17q-53 0 -86 -38q-32 -37 -37 -102zM104 381
q18 116 94 186t181 70q66 0 117 -24q60 -28 120 -66q58 -37 94 -54q34 -16 64 -16q54 0 85 37q32 38 38 104l156 -28q-15 -118 -91 -188t-188 -70q-64 0 -117 24q-51 23 -114 68q-53 36 -89 53t-69 17q-53 0 -86 -38q-32 -37 -37 -102z" />
    <glyph glyph-name="notequal" unicode="&#x2260;" horiz-adv-x="1157" 
d="M1008 934v-160h-299l-111 -196h410v-160h-498l-104 -189h-146l105 189h-213v160h301l108 196h-409v160h497l105 188h147l-104 -188h211z" />
    <glyph glyph-name="lessequal" unicode="&#x2264;" horiz-adv-x="1157" 
d="M180 889l797 207v-166l-551 -139l551 -140v-164l-797 207v195zM977 246h-797v160h797v-160z" />
    <glyph glyph-name="greaterequal" unicode="&#x2265;" horiz-adv-x="1157" 
d="M180 930v166l797 -207v-195l-797 -207v164l551 140zM977 246h-797v160h797v-160z" />
    <glyph glyph-name="uni2460" unicode="&#x2460;" horiz-adv-x="1957" 
d="M1417 1435q202 -119 320 -319t118 -438q0 -243 -117 -441q-119 -201 -320 -320q-200 -118 -437 -118q-241 0 -441 118q-201 119 -320 320q-118 200 -118 441q0 238 118 438t320 319q198 117 441 117q238 0 436 -117zM1354 27q171 101 274 275t103 376q0 200 -103 374
q-102 172 -274 274q-171 101 -373 101q-205 0 -376 -101q-174 -103 -275 -274q-103 -174 -103 -374q0 -202 103 -376q102 -173 275 -275q174 -103 376 -103q199 0 373 103zM645 842q125 0 212 66q86 66 120 186h172v-838h-182v735q-15 -178 -97 -269t-225 -91v211z" />
    <glyph glyph-name="uni2461" unicode="&#x2461;" horiz-adv-x="1957" 
d="M1417 1435q202 -119 320 -319t118 -438q0 -243 -117 -441q-119 -201 -320 -320q-200 -118 -437 -118q-241 0 -441 118q-201 119 -320 320q-118 200 -118 441q0 238 118 438t320 319q198 117 441 117q238 0 436 -117zM1354 27q171 101 274 275t103 376q0 200 -103 374
q-102 172 -274 274q-171 101 -373 101q-205 0 -376 -101q-174 -103 -275 -274q-103 -174 -103 -374q0 -202 103 -376q102 -173 275 -275q174 -103 376 -103q199 0 373 103zM1188 567q-132 -100 -416 -157h539v-154h-690v135q240 83 377 195q137 111 137 223q0 65 -44 104
q-43 39 -118 39q-85 0 -128 -54q-44 -55 -38 -148l-199 65q4 133 104 214q99 81 261 81q158 0 253 -80t95 -211q0 -152 -133 -252z" />
    <glyph glyph-name="uni2462" unicode="&#x2462;" horiz-adv-x="1957" 
d="M1418 -83q201 119 320 320q117 198 117 441q0 238 -118 438t-320 319q-198 117 -436 117q-243 0 -441 -117q-202 -119 -320 -319t-118 -438q0 -241 118 -441q119 -201 320 -320q200 -118 441 -118q237 0 437 118zM605 27q-173 102 -275 275q-103 174 -103 376
q0 200 103 374q101 171 275 274q171 101 376 101q202 0 373 -101q172 -102 274 -274q103 -174 103 -374q0 -202 -103 -376t-274 -275q-174 -103 -373 -103q-202 0 -376 103zM776 532q4 -66 52 -100q49 -35 135 -35q79 0 126 30q46 30 46 83q0 51 -51 80q-49 28 -140 28h-96
v121h96q72 0 120 31q46 30 46 78q0 47 -41 76q-40 28 -106 28q-75 0 -118 -37q-45 -38 -46 -104l-197 66q21 107 118 170q98 63 243 63q93 0 171 -29t120 -77q44 -50 44 -111q0 -142 -249 -160q129 -18 202 -80q72 -61 72 -159q0 -114 -99 -183t-261 -69q-157 0 -261 61
t-122 164z" />
    <glyph glyph-name="uni2463" unicode="&#x2463;" horiz-adv-x="1957" 
d="M1418 -83q201 119 320 320q117 198 117 441q0 238 -118 438t-320 319q-198 117 -436 117q-243 0 -441 -117q-202 -119 -320 -319t-118 -438q0 -241 118 -441q119 -201 320 -320q200 -118 441 -118q237 0 437 118zM605 27q-173 102 -275 275q-103 174 -103 376
q0 200 103 374q101 171 275 274q171 101 376 101q202 0 373 -101q172 -102 274 -274q103 -174 103 -374q0 -202 -103 -376t-274 -275q-174 -103 -373 -103q-202 0 -376 103zM1055 256v172h-461v137q133 72 193 198q61 128 61 331h215q0 -118 -50 -227q-48 -104 -139 -183
q-86 -75 -194 -102h375v184h184v-184h135v-154h-135v-172h-184z" />
    <glyph glyph-name="uni2464" unicode="&#x2464;" horiz-adv-x="1957" 
d="M1418 -83q201 119 320 320q117 198 117 441q0 238 -118 438t-320 319q-198 117 -436 117q-243 0 -441 -117q-202 -119 -320 -319t-118 -438q0 -241 118 -441q119 -201 320 -320q200 -118 441 -118q237 0 437 118zM605 27q-173 102 -275 275q-103 174 -103 376
q0 200 103 374q101 171 275 274q171 101 376 101q202 0 373 -101q172 -102 274 -274q103 -174 103 -374q0 -202 -103 -376t-274 -275q-174 -103 -373 -103q-202 0 -376 103zM716 312q-104 71 -112 186l199 65q0 -74 46 -120t122 -46q75 0 122 41q46 40 46 109q0 67 -45 108
q-46 41 -121 41q-107 0 -166 -71l-178 65l22 404h635v-154h-461l-16 -270q30 73 94 114t146 41q123 0 199 -77q77 -79 77 -201q0 -135 -99 -220q-98 -85 -255 -85q-152 0 -255 70z" />
    <glyph glyph-name="uni2465" unicode="&#x2465;" horiz-adv-x="1957" 
d="M1418 -83q201 119 320 320q117 198 117 441q0 238 -118 438t-320 319q-198 117 -436 117q-243 0 -441 -117q-202 -119 -320 -319t-118 -438q0 -241 118 -441q119 -201 320 -320q200 -118 441 -118q237 0 437 118zM605 27q-173 102 -275 275q-103 174 -103 376
q0 200 103 374q101 171 275 274q171 101 376 101q202 0 373 -101q172 -102 274 -274q103 -174 103 -374q0 -202 -103 -376t-274 -275q-174 -103 -373 -103q-202 0 -376 103zM705 354q-101 113 -101 322q0 196 106 316q105 118 281 118q125 0 219 -54t129 -149l-196 -63
q-5 51 -47 80q-44 30 -105 30q-95 0 -147 -74q-53 -76 -53 -208q0 -52 8 -94q10 106 79 166q70 61 181 61q127 0 208 -73q79 -72 79 -193q0 -86 -47 -154t-128 -105q-84 -38 -184 -38q-182 0 -282 112zM1111 436q48 39 48 103q0 63 -47 102q-46 39 -123 39q-79 0 -125 -39
q-47 -39 -47 -102q0 -61 47 -102q46 -40 123 -40q76 0 124 39z" />
    <glyph glyph-name="uni2466" unicode="&#x2466;" horiz-adv-x="1957" 
d="M1417 1435q202 -119 320 -319t118 -438q0 -243 -117 -441q-119 -201 -320 -320q-200 -118 -437 -118q-241 0 -441 118q-201 119 -320 320q-118 200 -118 441q0 238 118 438t320 319q198 117 441 117q238 0 436 -117zM1354 27q171 101 274 275t103 376q0 200 -103 374
q-102 172 -274 274q-171 101 -373 101q-205 0 -376 -101q-174 -103 -275 -274q-103 -174 -103 -374q0 -202 103 -376q102 -173 275 -275q174 -103 376 -103q199 0 373 103zM594 940v154h735v-129q-175 -108 -254 -264q-78 -154 -78 -398v-47h-217v47q0 228 122 392
q120 162 343 245h-651z" />
    <glyph glyph-name="uni2467" unicode="&#x2467;" horiz-adv-x="1957" 
d="M1418 -83q201 119 320 320q117 198 117 441q0 238 -118 438t-320 319q-198 117 -436 117q-243 0 -441 -117q-202 -119 -320 -319t-118 -438q0 -241 118 -441q119 -201 320 -320q200 -118 441 -118q237 0 437 118zM605 27q-173 102 -275 275q-103 174 -103 376
q0 200 103 374q101 171 275 274q171 101 376 101q202 0 373 -101q172 -102 274 -274q103 -174 103 -374q0 -202 -103 -376t-274 -275q-174 -103 -373 -103q-202 0 -376 103zM659 654q73 62 205 79q-250 22 -250 168q0 94 96 152q94 57 255 57t255 -57q95 -57 95 -152
q0 -146 -250 -168q132 -17 205 -79q73 -63 73 -156q0 -116 -104 -186t-274 -70q-171 0 -275 70t-104 186q0 93 73 156zM845 768q44 -29 120 -29q75 0 119 29t44 78t-44 78q-43 28 -119 28q-77 0 -120 -28q-44 -29 -44 -78t44 -78zM824 427q52 -30 141 -30q87 0 140 30
q52 30 52 81t-52 81q-51 29 -140 29q-90 0 -141 -29q-52 -30 -52 -81t52 -81z" />
    <glyph glyph-name="uni2468" unicode="&#x2468;" horiz-adv-x="1957" 
d="M1418 -83q201 119 320 320q117 198 117 441q0 238 -118 438t-320 319q-198 117 -436 117q-243 0 -441 -117q-202 -119 -320 -319t-118 -438q0 -241 118 -441q119 -201 320 -320q200 -118 441 -118q237 0 437 118zM605 27q-173 102 -275 275q-103 174 -103 376
q0 200 103 374q101 171 275 274q171 101 376 101q202 0 373 -101q172 -102 274 -274q103 -174 103 -374q0 -202 -103 -376t-274 -275q-174 -103 -373 -103q-202 0 -376 103zM1241 997q100 -112 100 -321q0 -198 -105 -317q-104 -117 -282 -117q-124 0 -219 54t-129 148
l197 64q5 -51 47 -80q45 -31 104 -31q96 0 148 75q53 76 53 208q0 52 -8 94q-11 -108 -79 -167q-69 -60 -181 -60q-128 0 -208 74q-79 73 -79 192q0 87 46 154q47 68 128 105q84 38 184 38q182 0 283 -113zM835 915q-49 -40 -49 -102t48 -102q46 -39 122 -39q78 0 125 39
t47 102q0 60 -47 101q-46 40 -123 40q-75 0 -123 -39z" />
    <glyph glyph-name="uni24EA" unicode="&#x24ea;" horiz-adv-x="1957" 
d="M1418 -83q201 119 320 320q117 198 117 441q0 238 -118 438t-320 319q-198 117 -436 117q-243 0 -441 -117q-202 -119 -320 -319t-118 -438q0 -241 118 -441q119 -201 320 -320q200 -118 441 -118q237 0 437 118zM605 27q-173 102 -275 275q-103 174 -103 376
q0 200 103 374q101 171 275 274q171 101 376 101q202 0 373 -101q172 -102 274 -274q103 -174 103 -374q0 -202 -103 -376t-274 -275q-174 -103 -373 -103q-202 0 -376 103zM695 360q-107 117 -107 316q0 129 49 227q50 100 137 153q88 54 205 54q176 0 284 -119
q107 -117 107 -315q0 -199 -107 -316q-108 -118 -284 -118t-284 118zM1128 472q56 76 56 204q0 126 -56 202q-55 74 -149 74q-95 0 -150 -74t-55 -202q0 -130 55 -204q55 -75 150 -75q93 0 149 75z" />
    <glyph glyph-name="uni24FF" unicode="&#x24ff;" horiz-adv-x="1957" 
d="M1418 -83q201 119 320 320q117 198 117 441q0 238 -118 438t-320 319q-198 117 -436 117q-243 0 -441 -117q-202 -119 -320 -319t-118 -438q0 -241 118 -441q119 -201 320 -320q200 -118 441 -118q237 0 437 118zM695 360q-107 117 -107 316q0 129 49 227q50 100 137 153
q88 54 205 54q176 0 284 -119q107 -117 107 -315q0 -199 -107 -316q-108 -118 -284 -118t-284 118zM1128 472q56 76 56 204q0 126 -56 202q-55 74 -149 74q-95 0 -150 -74t-55 -202q0 -130 55 -204q55 -75 150 -75q93 0 149 75z" />
    <glyph glyph-name="triagup" unicode="&#x25b2;" 
d="M909 1370l836 -1370h-1671z" />
    <glyph glyph-name="uni25B3" unicode="&#x25b3;" 
d="M909 1372l836 -1372h-1671zM293 125h1233l-617 1012z" />
    <glyph glyph-name="uni25B6" unicode="&#x25b6;" 
d="M285 -160v1671l1370 -835z" />
    <glyph glyph-name="uni25B7" unicode="&#x25b7;" 
d="M285 -160v1671l1372 -835zM1421 676l-1011 616v-1233z" />
    <glyph glyph-name="triagdn" unicode="&#x25bc;" 
d="M74 1352h1671l-836 -1370z" />
    <glyph glyph-name="uni25BD" unicode="&#x25bd;" 
d="M74 1352h1671l-836 -1372zM909 215l617 1012h-1233z" />
    <glyph glyph-name="uni25C0" unicode="&#x25c0;" 
d="M1532 1513v-1671l-1370 836z" />
    <glyph glyph-name="uni25C1" unicode="&#x25c1;" 
d="M1534 1513v-1671l-1372 836zM397 678l1012 -617v1233z" />
    <glyph glyph-name="lozenge" unicode="&#x25ca;" 
d="M907 -160l-833 836l835 835l834 -835zM909 1337l-663 -661l661 -662l664 662z" />
    <glyph glyph-name="uni25E7" unicode="&#x25e7;" 
d="M174 -57v1466h1468v-1466h-1468zM909 66h611v1220h-611v-1220z" />
    <glyph glyph-name="uni25E8" unicode="&#x25e8;" 
d="M174 -57v1466h1468v-1466h-1468zM907 1286h-610v-1220h610v1220z" />
    <glyph glyph-name="uni25E9" unicode="&#x25e9;" 
d="M1642 -57h-1468v1466h1468v-1466zM1520 1286l-1223 -1220h1223v1220z" />
    <glyph glyph-name="uni25EA" unicode="&#x25ea;" 
d="M174 1409h1468v-1466h-1468v1466zM297 66l1223 1220h-1223v-1220z" />
    <glyph glyph-name="uni2600" unicode="&#x2600;" 
d="M489 643q35 -2 56 -26q20 -23 20 -52q0 -45 -37 -69l-364 -248l399 190q18 8 37 8q33 0 56 -23q24 -24 24 -56q0 -19 -8 -37l-193 -398l250 365q28 37 68 37q27 0 52 -22q23 -21 25 -56l35 -440l35 438q2 35 26 56q25 22 52 22q44 0 68 -37l249 -365l-192 400
q-8 18 -8 39q0 31 22 53t56 22q18 0 36 -8l402 -190l-367 250q-37 24 -37 67q0 28 21 52q21 25 55 26l442 35l-442 33q-34 1 -55 25t-21 52q0 43 37 70l367 250l-400 -191q-19 -8 -38 -8q-33 0 -55 22q-21 21 -21 54q0 21 8 39l190 399l-249 -364q-24 -37 -68 -37
q-28 0 -52 21t-26 57l-35 438l-35 -438q-2 -36 -24 -57t-53 -21q-41 0 -68 39l-248 364l191 -401q8 -18 8 -35q0 -31 -23 -56q-23 -24 -57 -24q-19 0 -37 8l-397 193l362 -252q37 -24 37 -68q0 -29 -20 -52q-21 -23 -56 -25l-440 -33z" />
    <glyph glyph-name="sun" unicode="&#x263c;" 
d="M489 643q36 -2 57 -26t21 -54q0 -40 -39 -67l-364 -248l401 190q18 8 37 8q33 0 55 -22q23 -23 23 -55q0 -21 -8 -39l-193 -398l250 365q24 37 68 37q29 0 54 -22q24 -21 26 -56l32 -440l35 438q1 34 26 57t52 23q41 0 68 -39l249 -365l-192 400q-10 23 -10 39
q0 33 22 55t55 22q16 0 39 -10l402 -190l-367 250q-39 27 -39 67q0 27 22 52q21 24 56 26l442 35l-440 33q-35 2 -56 25q-22 25 -22 54q0 44 37 68l367 250l-400 -191q-23 -10 -38 -10q-33 0 -56 23q-22 22 -22 55q0 16 10 39l190 399l-249 -364q-27 -39 -68 -39
q-29 0 -52 22q-24 23 -26 58l-35 438l-32 -438q-2 -35 -25 -57q-22 -21 -53 -21q-43 0 -70 39l-248 364l191 -401q8 -18 8 -37q0 -32 -23 -55t-55 -23q-21 0 -39 8l-397 193l362 -252q37 -24 37 -68q0 -32 -20 -53q-21 -22 -56 -24l-440 -33zM731 498q-74 74 -74 178
q0 68 34 126t92 92t126 34t126 -34t92 -92t34 -126t-34 -126t-92 -92t-126 -34q-104 0 -178 74z" />
    <glyph glyph-name="uni263D" unicode="&#x263d;" 
d="M394 187q127 -64 276 -64q177 0 328 89q149 88 239 240q88 149 88 328q0 158 -73 299q-72 140 -199 231q-126 91 -281 115q49 9 96 9q203 0 379 -103q175 -103 277 -275t102 -378q0 -205 -102 -380t-277 -278q-174 -102 -379 -102q-225 0 -411 123q-187 124 -277 321
q84 -109 214 -175z" />
    <glyph glyph-name="uni2661" unicode="&#x2661;" 
d="M1544 1376q97 -57 149 -162q52 -104 52 -241q0 -157 -78 -300q-77 -141 -257 -307q-178 -165 -501 -391q-319 223 -500 391q-180 166 -257 307q-78 143 -78 300q0 137 52 241q53 105 148 162q98 58 222 58q191 0 302 -126t111 -341q0 214 112 341q111 126 302 126
q123 0 221 -58zM1338 466q153 141 217 259q65 119 65 248q0 156 -80 248t-217 92q-169 0 -257 -136q-89 -137 -89 -393v-30h-135v30q0 256 -89 393q-88 136 -257 136q-137 0 -217 -92t-80 -248q0 -130 64 -248t217 -259t429 -339q276 198 429 339z" />
    <glyph glyph-name="heart" unicode="&#x2665;" 
d="M126 1214q53 105 148 162q98 58 222 58q191 0 302 -126t111 -341q0 214 112 341q111 126 302 126q123 0 221 -58q97 -57 149 -162q52 -104 52 -241q0 -157 -78 -300q-77 -141 -257 -307q-178 -165 -501 -391q-319 223 -500 391q-180 166 -257 307q-78 143 -78 300
q0 137 52 241z" />
    <glyph glyph-name="uni267B" unicode="&#x267b;" 
d="M915 1214l-241 -409l-111 61l285 486h135l322 -557q-39 95 -39 155q0 83 59 154l96 -82q-98 -98 -98 -221q0 -22 8 -78l-92 -53q-95 86 -207 86q-40 0 -94 -13l-25 125q33 4 52 4q74 0 127 -36q55 -37 110 -119zM276 127h482v-127h-563l-72 119l334 565
q-54 -74 -110 -110q-52 -33 -122 -33q-20 0 -49 4l23 123q54 -13 92 -13q111 0 211 88l94 -55q-8 -37 -8 -78q0 -120 94 -221l-96 -82q-60 73 -60 156q0 68 47 170zM1694 119l-72 -119h-657q114 -11 176 -49q63 -39 96 -123l-117 -43q-27 89 -78 141q-53 55 -139 84v107
q86 29 137 83q52 55 80 140l119 -41q-33 -87 -97 -125q-65 -40 -181 -47h583l-241 416l110 65z" />
    <glyph glyph-name="uni2713" unicode="&#x2713;" 
d="M795 221l790 1131l133 -90l-880 -1262l-738 512l93 131z" />
    <glyph glyph-name="uni2726" unicode="&#x2726;" 
d="M1669 676l-678 -78l-84 -680l-80 680l-673 78l675 84l78 674l84 -674z" />
    <glyph glyph-name="uni2728" unicode="&#x2728;" 
d="M127 1178q65 0 111 -44q45 -44 45 -110v-137h24v137q0 67 43 110q44 44 111 44h137v24h-137q-67 0 -111 44q-43 43 -43 110v137h-24v-137q0 -66 -44 -110t-112 -44h-135v-24h135zM874 868q89 0 163 -43q77 -45 119 -117q44 -76 44 -163v-275h25v275q0 89 43 163t116 117
t162 43h279v25h-279q-89 0 -162 43q-72 43 -116 118q-43 74 -43 163v276h-25v-276q0 -87 -44 -163q-43 -74 -119 -118q-74 -43 -163 -43h-274v-25h274zM369 248q87 0 149 -60t62 -147v-182h24v182q0 87 60 147t147 60h184v24h-184q-86 0 -147 61q-60 60 -60 150v183h-24
v-183q0 -86 -61 -149q-60 -62 -150 -62h-181v-24h181z" />
    <glyph glyph-name="uni2734" unicode="&#x2734;" 
d="M1669 676l-592 -70l367 -469l-463 367l-74 -586l-67 590l-465 -369l364 469l-585 68l583 72l-364 460l467 -362l67 588l72 -584l469 362l-369 -462z" />
    <glyph glyph-name="uni2736" unicode="&#x2736;" 
d="M1569 1057l-508 -379l508 -379l-584 246l-78 -627l-73 629l-578 -248l502 379l-502 379l580 -248l71 625l78 -625z" />
    <glyph glyph-name="uni2747" unicode="&#x2747;" 
d="M537 662q96 0 180 -49q82 -48 130 -130q48 -83 48 -180v-303h25v303q0 97 48 180q48 82 130 130q84 49 180 49h307v24h-307q-98 0 -180 48t-130 130q-48 83 -48 180v308h-25v-308q0 -97 -48 -180q-48 -82 -130 -130q-83 -48 -180 -48h-304v-24h304z" />
    <glyph glyph-name="uni274C" unicode="&#x274c;" 
d="M1468 1350l115 -113l-561 -561l561 -563l-110 -113l-564 563l-559 -559l-117 111l562 561l-564 561l113 115l563 -564z" />
    <glyph glyph-name="uni2776" unicode="&#x2776;" horiz-adv-x="1957" 
d="M1417 1435q202 -119 320 -319t118 -438q0 -243 -117 -441q-119 -201 -320 -320q-200 -118 -437 -118q-241 0 -441 118q-201 119 -320 320q-118 200 -118 441q0 238 118 438t320 319q198 117 441 117q238 0 436 -117zM1149 256v838h-172q-34 -120 -120 -186
q-87 -66 -212 -66v-211q143 0 225 91t97 269v-735h182z" />
    <glyph glyph-name="uni2777" unicode="&#x2777;" horiz-adv-x="1957" 
d="M1417 1435q202 -119 320 -319t118 -438q0 -243 -117 -441q-119 -201 -320 -320q-200 -118 -437 -118q-241 0 -441 118q-201 119 -320 320q-118 200 -118 441q0 238 118 438t320 319q198 117 441 117q238 0 436 -117zM1311 410h-539q284 57 416 157q133 100 133 252
q0 131 -95 211t-253 80q-162 0 -261 -81q-100 -81 -104 -214l199 -65q-6 93 38 148q43 54 128 54q75 0 118 -39q44 -39 44 -104q0 -112 -137 -223q-137 -112 -377 -195v-135h690v154z" />
    <glyph glyph-name="uni2778" unicode="&#x2778;" horiz-adv-x="1957" 
d="M1418 -83q201 119 320 320q117 198 117 441q0 238 -118 438t-320 319q-198 117 -436 117q-243 0 -441 -117q-202 -119 -320 -319t-118 -438q0 -241 118 -441q119 -201 320 -320q200 -118 441 -118q237 0 437 118zM776 532q4 -66 52 -100q49 -35 135 -35q79 0 126 30
q46 30 46 83q0 51 -51 80q-49 28 -140 28h-96v121h96q72 0 120 31q46 30 46 78q0 47 -41 76q-40 28 -106 28q-75 0 -118 -37q-45 -38 -46 -104l-197 66q21 107 118 170q98 63 243 63q93 0 171 -29t120 -77q44 -50 44 -111q0 -142 -249 -160q129 -18 202 -80q72 -61 72 -159
q0 -114 -99 -183t-261 -69q-157 0 -261 61t-122 164z" />
    <glyph glyph-name="uni2779" unicode="&#x2779;" horiz-adv-x="1957" 
d="M1418 -83q201 119 320 320q117 198 117 441q0 238 -118 438t-320 319q-198 117 -436 117q-243 0 -441 -117q-202 -119 -320 -319t-118 -438q0 -241 118 -441q119 -201 320 -320q200 -118 441 -118q237 0 437 118zM1055 256v172h-461v137q133 72 193 198q61 128 61 331
h215q0 -118 -50 -227q-48 -104 -139 -183q-86 -75 -194 -102h375v184h184v-184h135v-154h-135v-172h-184z" />
    <glyph glyph-name="uni277A" unicode="&#x277a;" horiz-adv-x="1957" 
d="M1418 -83q201 119 320 320q117 198 117 441q0 238 -118 438t-320 319q-198 117 -436 117q-243 0 -441 -117q-202 -119 -320 -319t-118 -438q0 -241 118 -441q119 -201 320 -320q200 -118 441 -118q237 0 437 118zM716 312q-104 71 -112 186l199 65q0 -74 46 -120t122 -46
q75 0 122 41q46 40 46 109q0 67 -45 108q-46 41 -121 41q-107 0 -166 -71l-178 65l22 404h635v-154h-461l-16 -270q30 73 94 114t146 41q123 0 199 -77q77 -79 77 -201q0 -135 -99 -220q-98 -85 -255 -85q-152 0 -255 70z" />
    <glyph glyph-name="uni277B" unicode="&#x277b;" horiz-adv-x="1957" 
d="M1418 -83q201 119 320 320q117 198 117 441q0 238 -118 438t-320 319q-198 117 -436 117q-243 0 -441 -117q-202 -119 -320 -319t-118 -438q0 -241 118 -441q119 -201 320 -320q200 -118 441 -118q237 0 437 118zM705 354q-101 113 -101 322q0 196 106 316
q105 118 281 118q125 0 219 -54t129 -149l-196 -63q-5 51 -47 80q-44 30 -105 30q-95 0 -147 -74q-53 -76 -53 -208q0 -52 8 -94q10 106 79 166q70 61 181 61q127 0 208 -73q79 -72 79 -193q0 -86 -47 -154t-128 -105q-84 -38 -184 -38q-182 0 -282 112zM1111 436
q48 39 48 103q0 63 -47 102q-46 39 -123 39q-79 0 -125 -39q-47 -39 -47 -102q0 -61 47 -102q46 -40 123 -40q76 0 124 39z" />
    <glyph glyph-name="uni277C" unicode="&#x277c;" horiz-adv-x="1957" 
d="M1417 1435q202 -119 320 -319t118 -438q0 -243 -117 -441q-119 -201 -320 -320q-200 -118 -437 -118q-241 0 -441 118q-201 119 -320 320q-118 200 -118 441q0 238 118 438t320 319q198 117 441 117q238 0 436 -117zM1329 1094h-735v-154h651q-223 -83 -343 -245
q-122 -164 -122 -392v-47h217v47q0 243 78 398q79 156 254 264v129z" />
    <glyph glyph-name="uni277D" unicode="&#x277d;" horiz-adv-x="1957" 
d="M1418 -83q201 119 320 320q117 198 117 441q0 238 -118 438t-320 319q-198 117 -436 117q-243 0 -441 -117q-202 -119 -320 -319t-118 -438q0 -241 118 -441q119 -201 320 -320q200 -118 441 -118q237 0 437 118zM659 654q73 62 205 79q-250 22 -250 168q0 94 96 152
q94 57 255 57t255 -57q95 -57 95 -152q0 -146 -250 -168q132 -17 205 -79q73 -63 73 -156q0 -116 -104 -186t-274 -70q-171 0 -275 70t-104 186q0 93 73 156zM845 768q44 -29 120 -29q75 0 119 29t44 78t-44 78q-43 28 -119 28q-77 0 -120 -28q-44 -29 -44 -78t44 -78z
M824 427q52 -30 141 -30q87 0 140 30q52 30 52 81t-52 81q-51 29 -140 29q-90 0 -141 -29q-52 -30 -52 -81t52 -81z" />
    <glyph glyph-name="uni277E" unicode="&#x277e;" horiz-adv-x="1957" 
d="M1418 -83q201 119 320 320q117 198 117 441q0 238 -118 438t-320 319q-198 117 -436 117q-243 0 -441 -117q-202 -119 -320 -319t-118 -438q0 -241 118 -441q119 -201 320 -320q200 -118 441 -118q237 0 437 118zM1241 997q100 -112 100 -321q0 -198 -105 -317
q-104 -117 -282 -117q-124 0 -219 54t-129 148l197 64q5 -51 47 -80q45 -31 104 -31q96 0 148 75q53 76 53 208q0 52 -8 94q-11 -108 -79 -167q-69 -60 -181 -60q-128 0 -208 74q-79 73 -79 192q0 87 46 154q47 68 128 105q84 38 184 38q182 0 283 -113zM835 915
q-49 -40 -49 -102t48 -102q46 -39 122 -39q78 0 125 39t47 102q0 60 -47 101q-46 40 -123 40q-75 0 -123 -39z" />
    <glyph glyph-name="uni27F5" unicode="&#x27f5;" horiz-adv-x="2816" 
d="M2599 604h-2255q234 -39 376 -154q141 -114 224 -337l-184 -41q-76 212 -201 336q-123 123 -342 206v123q221 85 345 210t198 333l184 -43q-77 -215 -219 -329q-143 -115 -381 -160h2255v-144z" />
    <glyph glyph-name="uni27F6" unicode="&#x27f6;" horiz-adv-x="2816" 
d="M2056 1280q74 -208 198 -333t345 -210v-123q-219 -83 -342 -206q-125 -124 -201 -336l-184 41q83 223 224 337q142 115 376 154h-2255v144h2255q-238 45 -381 160q-142 114 -219 329z" />
    <glyph glyph-name="uni27F7" unicode="&#x27f7;" horiz-adv-x="3364" 
d="M2605 1280q73 -208 198 -333t345 -210v-123q-219 -83 -342 -206q-124 -124 -201 -336l-184 41q83 223 224 337q142 115 376 154h-2677q234 -39 376 -154q141 -114 224 -337l-184 -41q-76 212 -201 336q-123 123 -342 206v123q221 85 345 210t198 333l184 -43
q-77 -215 -219 -329q-143 -115 -381 -160h2677q-238 45 -381 160q-142 114 -219 329z" />
    <glyph glyph-name="uni2B12" unicode="&#x2b12;" 
d="M176 -49v1468h1466v-1468h-1466zM299 684v-610h1221v610h-1221z" />
    <glyph glyph-name="uni2B13" unicode="&#x2b13;" 
d="M176 -68v1469h1466v-1469h-1466zM1520 668v610h-1221v-610h1221z" />
    <glyph glyph-name="uni2B14" unicode="&#x2b14;" 
d="M1636 1409v-1466h-1468v1466h1468zM291 66h1222l-1222 1220v-1220z" />
    <glyph glyph-name="uni2B15" unicode="&#x2b15;" 
d="M174 -57v1466h1468v-1466h-1468zM1520 1286h-1223l1223 -1220v1220z" />
    <glyph glyph-name="uni2B1B" unicode="&#x2b1b;" 
d="M174 -57v1466h1468v-1466h-1468z" />
    <glyph glyph-name="uni2B1C" unicode="&#x2b1c;" 
d="M174 -57v1466h1468v-1466h-1468zM1520 1286h-1223v-1220h1223v1220z" />
    <glyph glyph-name="uniF8FF" unicode="&#xf8ff;" horiz-adv-x="1492" 
d="M473 0h-301v1352h485l50 -588l14 -293h41l14 293l49 588h498v-1352h-324v735h-41l-12 -221l-78 -514h-264l-76 514l-16 221h-39v-735zM1329 -346h-1165v266h1165v-266z" />
    <glyph glyph-name="u1F310" unicode="&#x1f310;" 
d="M1288 1331q175 -103 277 -275t102 -378q0 -207 -102 -381q-102 -175 -277 -277q-174 -102 -377 -102q-207 0 -381 102q-173 101 -276 277q-102 174 -102 381q0 206 102 378q102 173 276 275q176 103 381 103q201 0 377 -103zM864 1307q-47 -4 -69 -9q-48 -50 -88 -143
t-62 -211h219v363zM958 944h216q-21 118 -60 210t-88 144q-22 4 -68 9v-363zM461 1122q-79 -79 -125 -178h190q38 181 113 303q-99 -46 -178 -125zM1483 944q-46 99 -125 178q-80 80 -176 125q77 -125 110 -303h191zM293 530h217q-8 67 -8 148q0 76 8 143h-217
q-17 -79 -17 -143q0 -69 17 -148zM629 530h235v291h-235q-6 -69 -6 -143q0 -76 6 -148zM958 530h232q6 72 6 148q0 74 -6 143h-232v-291zM1311 821q8 -67 8 -143q0 -81 -8 -148h215q16 74 16 148q0 69 -16 143h-215zM338 408q45 -101 123 -179q79 -79 178 -125
q-76 128 -111 304h-190zM864 408h-217q21 -118 60 -210q40 -94 88 -145q14 -3 69 -8v363zM958 45q56 6 68 8q48 51 88 145q39 92 60 210h-216v-363zM1358 229q78 78 123 179h-189q-34 -178 -110 -304q96 45 176 125z" />
    <glyph glyph-name="u1F311" unicode="&#x1f311;" 
d="M529 19q-174 101 -276 277q-101 174 -101 382q0 207 101 379q102 174 276 275q175 102 382 102q203 0 377 -102q176 -103 277 -275q102 -174 102 -379q0 -207 -102 -381t-276 -277q-173 -102 -378 -102q-208 0 -382 101zM1225 129q146 86 231 232q86 148 86 317
q0 167 -86 313q-86 147 -231 232q-146 86 -314 86q-171 0 -317 -86t-232 -231t-86 -314q0 -172 86 -318q85 -145 232 -231q146 -86 317 -86q168 0 314 86z" />
    <glyph glyph-name="u1F312" unicode="&#x1f312;" 
d="M1289 1331q174 -103 276 -275t102 -378v-27q-6 -201 -109 -368q-103 -168 -275 -267q-169 -98 -372 -98h-2q-205 0 -379 102q-173 101 -276 277q-102 174 -102 381q0 206 102 378q102 173 276 275q176 103 379 103h2q204 0 378 -103zM361 358q85 -144 231 -230
q145 -85 317 -85q32 0 76 4q104 61 173 237q69 175 69 394q0 216 -69 392t-173 235q-44 4 -76 4q-172 0 -317 -85q-146 -86 -231 -231t-85 -317q0 -173 85 -318z" />
    <glyph glyph-name="u1F313" unicode="&#x1f313;" 
d="M1288 1331q175 -103 277 -275t102 -378q0 -207 -102 -381q-102 -175 -277 -277q-174 -102 -377 -102q-207 0 -381 102q-173 101 -276 277q-102 174 -102 381q0 206 102 378q102 173 276 275q176 103 381 103q201 0 377 -103zM361 359q84 -145 232 -231q146 -85 318 -85
v1266q-172 0 -317 -85q-147 -86 -232 -231q-86 -146 -86 -315q0 -173 85 -319z" />
    <glyph glyph-name="u1F314" unicode="&#x1f314;" 
d="M1288 1331q175 -103 277 -275t102 -378q0 -207 -102 -381q-102 -175 -277 -277q-174 -102 -381 -102q-205 0 -378 102t-275 278q-102 175 -102 380q0 206 102 378q102 173 275 275q174 103 378 103q205 0 381 -103zM350 381q74 -137 202 -226q130 -90 284 -108
q-104 61 -173 237q-69 175 -69 394q0 216 68 391t174 236q-154 -18 -282 -107t-203 -225q-75 -137 -75 -295q0 -160 74 -297z" />
    <glyph glyph-name="u1F315" unicode="&#x1f315;" 
d="M529 19q-174 101 -276 277q-101 174 -101 382q0 207 101 379q102 174 276 275q175 102 382 102q203 0 377 -102q176 -103 277 -275q102 -174 102 -379q0 -207 -102 -381t-276 -277q-173 -102 -378 -102q-208 0 -382 101z" />
    <glyph glyph-name="u1F316" unicode="&#x1f316;" 
d="M1289 1331q174 -103 276 -275t102 -378q0 -205 -102 -380t-276 -278q-173 -102 -378 -102q-207 0 -381 102q-173 101 -276 277q-102 174 -102 381q0 206 102 378q102 173 276 275q176 103 381 103q204 0 378 -103zM1267 155q127 88 201 226q74 137 74 297q0 158 -75 295
t-202 225q-128 89 -282 107q106 -61 174 -236t68 -391q0 -218 -69 -394t-173 -237q154 18 284 108z" />
    <glyph glyph-name="u1F317" unicode="&#x1f317;" 
d="M1288 1331q175 -103 277 -275t102 -378q0 -207 -102 -381q-102 -175 -277 -277q-174 -102 -381 -102q-203 0 -377 102q-173 101 -276 277q-102 174 -102 381q0 206 102 378q102 173 276 275q176 103 377 103q205 0 381 -103zM907 43q173 0 319 85t231 231t85 319
q0 169 -86 315q-86 145 -231 231q-145 85 -318 85v-1266z" />
    <glyph glyph-name="u1F318" unicode="&#x1f318;" 
d="M1288 1331q175 -103 277 -275t102 -378q0 -207 -102 -381q-102 -175 -277 -277q-174 -102 -379 -102h-2q-200 0 -371 99t-275 269q-103 169 -109 369v7v4v4v6v2q0 206 102 378q102 173 275 275q174 103 378 103h2q203 0 379 -103zM1227 128q145 85 230 230t85 318
q0 172 -85 317q-86 146 -230 231q-145 85 -318 85q-31 0 -75 -4q-105 -60 -174 -235q-68 -173 -68 -392q0 -221 68 -394q69 -176 174 -237q44 -4 75 -4q173 0 318 85z" />
    <glyph glyph-name="Iacute_J.loclNLD" horiz-adv-x="1216" 
d="M182 451l197 63q-29 -67 -29 -129q0 -115 69 -182q70 -68 183 -68q125 0 197 83q71 81 71 228v906h183v-906q0 -218 -119 -345q-118 -126 -328 -126q-123 0 -227 48q-100 46 -158 130q-57 82 -57 187q0 68 18 111zM352 682h-182v670h182v-670zM270 1470l-174 27l295 250
l184 -29zM961 1470l-175 27l295 250l185 -29z" />
    <glyph glyph-name="i.loclTRK" horiz-adv-x="518" 
d="M170 995h178v-995h-178v995zM166 1384h186v-217h-186v217z" />
    <glyph glyph-name="e.gender" horiz-adv-x="1150" 
d="M362 463q7 -157 80 -252q72 -94 187 -94q98 0 164 70q64 69 69 184l176 -58q-21 -149 -134 -243q-115 -95 -275 -95q-133 0 -237 64q-100 61 -156 182q-56 120 -56 277q0 156 56 276q56 121 156 182q104 64 237 64q195 0 309 -123q115 -124 115 -326q0 -47 -9 -108h-682z
M866 590q-6 137 -68 212q-63 77 -169 77q-104 0 -173 -78t-87 -211h497zM676 1286q44 -27 84 -58q32 -25 72 -73l-111 -82q-30 41 -47 83q-12 29 -29 95l-16 58l-13 -47q-14 -61 -28 -98q-17 -46 -51 -91l-111 82q34 44 67 69q33 24 85 58l47 31q-19 0 -52 -4q-40 -4 -73 -4
q-63 0 -127 20l41 131q54 -19 88 -42q47 -33 82 -62q34 -29 43 -35l-21 47q-24 55 -35 94q-12 44 -12 103h139q0 -60 -11 -97q-11 -39 -36 -100l-20 -47q4 4 37 31q39 34 83 63q41 27 93 45l41 -131q-64 -20 -127 -20q-34 0 -74 4q-33 4 -51 4q17 -12 43 -27z" />
    <glyph glyph-name="i.gender" horiz-adv-x="587" 
d="M248 995h178v-995h-178v995zM383 1286q44 -27 84 -58q32 -25 72 -73l-111 -82q-30 41 -47 83q-12 29 -29 95l-16 58l-12 -47q-12 -54 -29 -98q-17 -46 -51 -91l-111 82q34 44 67 69q33 24 85 58l47 31q-18 0 -51 -4q-40 -4 -74 -4q-63 0 -127 20l41 131q54 -19 88 -42
q47 -33 82 -62q34 -29 43 -35l-21 47q-22 49 -34 94q-13 47 -13 103h140q0 -57 -12 -97q-11 -39 -36 -100l-20 -47q4 4 37 31q39 34 83 63q40 27 93 45l41 -131q-64 -20 -127 -20q-34 0 -74 4q-33 4 -51 4q17 -12 43 -27z" />
    <glyph glyph-name="n.gender" horiz-adv-x="1191" 
d="M967 910q86 -110 86 -302v-608h-179v588q0 139 -58 210q-58 72 -167 72q-107 0 -165 -73t-58 -209v-588h-178v995h178v-219q33 117 111 180q79 64 192 64q152 0 238 -110zM383 1286q44 -27 84 -58q32 -25 72 -73l-111 -82q-30 41 -47 83q-12 29 -29 95l-16 58l-12 -47
q-12 -54 -29 -98q-17 -46 -51 -91l-111 82q34 44 67 69q33 24 85 58l47 31q-18 0 -51 -4q-40 -4 -74 -4q-63 0 -127 20l41 131q54 -19 88 -42q47 -33 82 -62q34 -29 43 -35l-21 47q-22 49 -34 94q-13 47 -13 103h140q0 -57 -12 -97q-11 -39 -36 -100l-20 -47q4 4 37 31
q39 34 83 63q40 27 93 45l41 -131q-64 -20 -127 -20q-34 0 -74 4q-33 4 -51 4q17 -12 43 -27z" />
    <glyph glyph-name="r.gender" horiz-adv-x="999" 
d="M900 937q69 -83 69 -220q0 -47 -13 -119l-190 -63q20 73 20 143q0 91 -38 141q-39 51 -111 51q-103 0 -157 -93q-55 -94 -56 -269v-508h-178v995h178v-247q30 132 104 202q75 70 185 70q118 0 187 -83zM383 1286q44 -27 84 -58q32 -25 72 -73l-111 -82q-30 41 -47 83
q-12 29 -29 95l-16 58l-12 -47q-12 -54 -29 -98q-17 -46 -51 -91l-111 82q34 44 67 69q33 24 85 58l47 31q-18 0 -51 -4q-40 -4 -74 -4q-63 0 -127 20l41 131q54 -19 88 -42q47 -33 82 -62q34 -29 43 -35l-21 47q-22 49 -34 94q-13 47 -13 103h140q0 -57 -12 -97
q-11 -39 -36 -100l-20 -47q4 4 37 31q39 34 83 63q40 27 93 45l41 -131q-64 -20 -127 -20q-34 0 -74 4q-33 4 -51 4q17 -12 43 -27z" />
    <glyph glyph-name="r.ss04.gender" horiz-adv-x="860" 
d="M860 987l-39 -217q-57 68 -168 68q-113 0 -170 -85t-57 -253v-500h-178v995h178v-262q30 140 106 213q77 74 193 74q78 0 135 -33zM383 1286q44 -27 84 -58q32 -25 72 -73l-111 -82q-30 41 -47 83q-12 29 -29 95l-16 58l-12 -47q-12 -54 -29 -98q-17 -46 -51 -91l-111 82
q34 44 67 69q33 24 85 58l47 31q-18 0 -51 -4q-40 -4 -74 -4q-63 0 -127 20l41 131q54 -19 88 -42q47 -33 82 -62q34 -29 43 -35l-21 47q-22 49 -34 94q-13 47 -13 103h140q0 -57 -12 -97q-11 -39 -36 -100l-20 -47q4 4 37 31q39 34 83 63q40 27 93 45l41 -131
q-64 -20 -127 -20q-34 0 -74 4q-33 4 -51 4q17 -12 43 -27z" />
    <glyph glyph-name="iacute_j.loclNLD" horiz-adv-x="1019" 
d="M170 995h178v-995h-178v995zM260 1124l-158 23l267 291l166 -27zM397 -233q44 -7 72 -7q102 0 157 67q54 66 54 193v975h178v-1015q0 -190 -103 -292q-103 -101 -304 -106zM770 1124l-158 23l267 291l165 -27z" />
    <glyph glyph-name="a.ss02" horiz-adv-x="1150" 
d="M811 995h178v-995h-178v279q-34 -144 -118 -225q-82 -79 -208 -79q-113 0 -202 65t-137 183q-48 119 -48 275t48 274t137 183t202 65q126 0 208 -79q84 -81 118 -224v278zM737 220q74 104 74 278q0 173 -74 277t-192 104q-117 0 -191 -106q-73 -104 -73 -275
q0 -172 73 -276q74 -105 191 -105q119 0 192 103z" />
    <glyph glyph-name="aacute.ss02" horiz-adv-x="1150" 
d="M811 995h178v-995h-178v279q-34 -144 -118 -225q-82 -79 -208 -79q-113 0 -202 65t-137 183q-48 119 -48 275t48 274t137 183t202 65q126 0 208 -79q84 -81 118 -224v278zM737 220q74 104 74 278q0 173 -74 277t-192 104q-117 0 -191 -106q-73 -104 -73 -275
q0 -172 73 -276q74 -105 191 -105q119 0 192 103zM545 1124l-158 23l266 291l166 -27z" />
    <glyph glyph-name="abreve.ss02" horiz-adv-x="1150" 
d="M811 995h178v-995h-178v279q-34 -144 -118 -225q-82 -79 -208 -79q-113 0 -202 65t-137 183q-48 119 -48 275t48 274t137 183t202 65q126 0 208 -79q84 -81 118 -224v278zM737 220q74 104 74 278q0 173 -74 277t-192 104q-117 0 -191 -106q-73 -104 -73 -275
q0 -172 73 -276q74 -105 191 -105q119 0 192 103zM852 1413q-8 -136 -87 -209q-80 -74 -220 -74q-141 0 -221 74q-81 74 -88 209l139 19q-2 -87 43 -136t127 -49t127 49t43 138z" />
    <glyph glyph-name="uni01CE.ss02" horiz-adv-x="1150" 
d="M811 995h178v-995h-178v279q-34 -144 -118 -225q-82 -79 -208 -79q-113 0 -202 65t-137 183q-48 119 -48 275t48 274t137 183t202 65q126 0 208 -79q84 -81 118 -224v278zM737 220q74 104 74 278q0 173 -74 277t-192 104q-117 0 -191 -106q-73 -104 -73 -275
q0 -172 73 -276q74 -105 191 -105q119 0 192 103zM549 1235l180 188l154 -22l-260 -283h-146l-268 283l156 22z" />
    <glyph glyph-name="acircumflex.ss02" horiz-adv-x="1150" 
d="M811 995h178v-995h-178v279q-34 -144 -118 -225q-82 -79 -208 -79q-113 0 -202 65t-137 183q-48 119 -48 275t48 274t137 183t202 65q126 0 208 -79q84 -81 118 -224v278zM737 220q74 104 74 278q0 173 -74 277t-192 104q-117 0 -191 -106q-73 -104 -73 -275
q0 -172 73 -276q74 -105 191 -105q119 0 192 103zM623 1425l260 -282l-154 -23l-180 189l-184 -189l-156 23l268 282h146z" />
    <glyph glyph-name="adieresis.ss02" horiz-adv-x="1150" 
d="M811 995h178v-995h-178v279q-34 -144 -118 -225q-82 -79 -208 -79q-113 0 -202 65t-137 183q-48 119 -48 275t48 274t137 183t202 65q126 0 208 -79q84 -81 118 -224v278zM737 220q74 104 74 278q0 173 -74 277t-192 104q-117 0 -191 -106q-73 -104 -73 -275
q0 -172 73 -276q74 -105 191 -105q119 0 192 103zM276 1384h189l2 -217h-188zM621 1384h188l2 -217h-188z" />
    <glyph glyph-name="agrave.ss02" horiz-adv-x="1150" 
d="M811 995h178v-995h-178v279q-34 -144 -118 -225q-82 -79 -208 -79q-113 0 -202 65t-137 183q-48 119 -48 275t48 274t137 183t202 65q126 0 208 -79q84 -81 118 -224v278zM737 220q74 104 74 278q0 173 -74 277t-192 104q-117 0 -191 -106q-73 -104 -73 -275
q0 -172 73 -276q74 -105 191 -105q119 0 192 103zM438 1438l264 -291l-157 -23l-275 287z" />
    <glyph glyph-name="amacron.ss02" horiz-adv-x="1150" 
d="M811 995h178v-995h-178v279q-34 -144 -118 -225q-82 -79 -208 -79q-113 0 -202 65t-137 183q-48 119 -48 275t48 274t137 183t202 65q126 0 208 -79q84 -81 118 -224v278zM737 220q74 104 74 278q0 173 -74 277t-192 104q-117 0 -191 -106q-73 -104 -73 -275
q0 -172 73 -276q74 -105 191 -105q119 0 192 103zM260 1178v127h569v-127h-569z" />
    <glyph glyph-name="aogonek.ss02" horiz-adv-x="1150" 
d="M811 995h178v-995h-2q-98 -21 -149 -61q-54 -42 -54 -95q0 -38 25 -61t70 -23q53 0 86 41l22 -133q-55 -33 -137 -33q-92 0 -150 46q-57 45 -57 118q0 75 62 131q61 55 157 70h-51v279q-34 -144 -118 -225q-82 -79 -208 -79q-113 0 -202 65t-137 183q-48 119 -48 275
t48 274t137 183t202 65q126 0 208 -79q84 -81 118 -224v278zM737 220q74 104 74 278q0 173 -74 277t-192 104q-117 0 -191 -106q-73 -104 -73 -275q0 -172 73 -276q74 -105 191 -105q119 0 192 103z" />
    <glyph glyph-name="aring.ss02" horiz-adv-x="1150" 
d="M811 995h178v-995h-178v279q-34 -144 -118 -225q-82 -79 -208 -79q-113 0 -202 65t-137 183q-48 119 -48 275t48 274t137 183t202 65q126 0 208 -79q84 -81 118 -224v278zM737 220q74 104 74 278q0 173 -74 277t-192 104q-117 0 -191 -106q-73 -104 -73 -275
q0 -172 73 -276q74 -105 191 -105q119 0 192 103zM377 1162q-62 57 -62 145q0 86 63 143t163 57q99 0 162 -57t63 -143q0 -87 -63 -144t-162 -57q-104 0 -164 56zM616 1232q31 31 31 75t-31 73t-75 29q-46 0 -77 -29q-30 -28 -30 -73q0 -44 31 -75q30 -30 76 -30q45 0 75 30
z" />
    <glyph glyph-name="aringacute.ss02" horiz-adv-x="1150" 
d="M811 995h178v-995h-178v279q-34 -144 -118 -225q-82 -79 -208 -79q-113 0 -202 65t-137 183q-48 119 -48 275t48 274t137 183t202 65q126 0 208 -79q84 -81 118 -224v278zM737 220q74 104 74 278q0 173 -74 277t-192 104q-117 0 -191 -106q-73 -104 -73 -275
q0 -172 73 -276q74 -105 191 -105q119 0 192 103zM377 1162q-62 57 -62 145q0 86 63 143t163 57q99 0 162 -57t63 -143q0 -87 -63 -144t-162 -57q-104 0 -164 56zM616 1232q31 31 31 75t-31 73t-75 29q-46 0 -77 -29q-30 -28 -30 -73q0 -44 31 -75q30 -30 76 -30q45 0 75 30
zM545 1595l-158 23l266 291l166 -27z" />
    <glyph glyph-name="atilde.ss02" horiz-adv-x="1150" 
d="M811 995h178v-995h-178v279q-34 -144 -118 -225q-82 -79 -208 -79q-113 0 -202 65t-137 183q-48 119 -48 275t48 274t137 183t202 65q126 0 208 -79q84 -81 118 -224v278zM737 220q74 104 74 278q0 173 -74 277t-192 104q-117 0 -191 -106q-73 -104 -73 -275
q0 -172 73 -276q74 -105 191 -105q119 0 192 103zM205 1157q5 124 56 186q53 64 149 64q51 0 88 -19q35 -18 88 -71q34 -38 53 -52q22 -16 43 -16q74 0 74 154l131 -23q-4 -122 -56 -187q-51 -65 -145 -65q-50 0 -90 19q-36 17 -90 76q-30 32 -54 51q-18 14 -44 14
q-37 0 -55 -37q-17 -35 -17 -116z" />
    <glyph glyph-name="g.ss03" horiz-adv-x="1148" 
d="M811 995h176v-1018q0 -192 -113 -302q-112 -109 -307 -109q-175 0 -291 88t-137 229l185 62q0 -103 68 -170q70 -68 175 -68q111 0 177 77q67 78 67 206v289q-34 -144 -118 -225q-82 -79 -208 -79q-113 0 -202 65t-137 183q-48 119 -48 275t48 274t137 183t202 65
q126 0 208 -79q84 -81 118 -224v278zM737 220q74 104 74 278q0 173 -74 277t-192 104q-117 0 -191 -106q-73 -104 -73 -275q0 -172 73 -276q74 -105 191 -105q119 0 192 103z" />
    <glyph glyph-name="uni01F5.ss03" horiz-adv-x="1148" 
d="M811 995h176v-1018q0 -192 -113 -302q-112 -109 -307 -109q-175 0 -291 88t-137 229l185 62q0 -103 68 -170q70 -68 175 -68q111 0 177 77q67 78 67 206v289q-34 -144 -118 -225q-82 -79 -208 -79q-113 0 -202 65t-137 183q-48 119 -48 275t48 274t137 183t202 65
q126 0 208 -79q84 -81 118 -224v278zM737 220q74 104 74 278q0 173 -74 277t-192 104q-117 0 -191 -106q-73 -104 -73 -275q0 -172 73 -276q74 -105 191 -105q119 0 192 103zM545 1124l-158 23l266 291l166 -27z" />
    <glyph glyph-name="gbreve.ss03" horiz-adv-x="1148" 
d="M811 995h176v-1018q0 -192 -113 -302q-112 -109 -307 -109q-175 0 -291 88t-137 229l185 62q0 -103 68 -170q70 -68 175 -68q111 0 177 77q67 78 67 206v289q-34 -144 -118 -225q-82 -79 -208 -79q-113 0 -202 65t-137 183q-48 119 -48 275t48 274t137 183t202 65
q126 0 208 -79q84 -81 118 -224v278zM737 220q74 104 74 278q0 173 -74 277t-192 104q-117 0 -191 -106q-73 -104 -73 -275q0 -172 73 -276q74 -105 191 -105q119 0 192 103zM852 1413q-8 -136 -87 -209q-80 -74 -220 -74q-141 0 -221 74q-81 74 -88 209l139 19
q-2 -87 43 -136t127 -49t127 49t43 138z" />
    <glyph glyph-name="gcaron.ss03" horiz-adv-x="1148" 
d="M811 995h176v-1018q0 -192 -113 -302q-112 -109 -307 -109q-175 0 -291 88t-137 229l185 62q0 -103 68 -170q70 -68 175 -68q111 0 177 77q67 78 67 206v289q-34 -144 -118 -225q-82 -79 -208 -79q-113 0 -202 65t-137 183q-48 119 -48 275t48 274t137 183t202 65
q126 0 208 -79q84 -81 118 -224v278zM737 220q74 104 74 278q0 173 -74 277t-192 104q-117 0 -191 -106q-73 -104 -73 -275q0 -172 73 -276q74 -105 191 -105q119 0 192 103zM549 1235l180 188l154 -22l-260 -283h-146l-268 283l156 22z" />
    <glyph glyph-name="gcircumflex.ss03" horiz-adv-x="1148" 
d="M811 995h176v-1018q0 -192 -113 -302q-112 -109 -307 -109q-175 0 -291 88t-137 229l185 62q0 -103 68 -170q70 -68 175 -68q111 0 177 77q67 78 67 206v289q-34 -144 -118 -225q-82 -79 -208 -79q-113 0 -202 65t-137 183q-48 119 -48 275t48 274t137 183t202 65
q126 0 208 -79q84 -81 118 -224v278zM737 220q74 104 74 278q0 173 -74 277t-192 104q-117 0 -191 -106q-73 -104 -73 -275q0 -172 73 -276q74 -105 191 -105q119 0 192 103zM623 1425l260 -282l-154 -23l-180 189l-184 -189l-156 23l268 282h146z" />
    <glyph glyph-name="uni0123.ss03" horiz-adv-x="1148" 
d="M811 995h176v-1018q0 -192 -113 -302q-112 -109 -307 -109q-175 0 -291 88t-137 229l185 62q0 -103 68 -170q70 -68 175 -68q111 0 177 77q67 78 67 206v289q-34 -144 -118 -225q-82 -79 -208 -79q-113 0 -202 65t-137 183q-48 119 -48 275t48 274t137 183t202 65
q126 0 208 -79q84 -81 118 -224v278zM737 220q74 104 74 278q0 173 -74 277t-192 104q-117 0 -191 -106q-73 -104 -73 -275q0 -172 73 -276q74 -105 191 -105q119 0 192 103zM467 1128q-35 53 -35 123q0 109 88 215l142 -22q-82 -94 -82 -182q0 -66 51 -134h-164z" />
    <glyph glyph-name="gdotaccent.ss03" horiz-adv-x="1148" 
d="M811 995h176v-1018q0 -192 -113 -302q-112 -109 -307 -109q-175 0 -291 88t-137 229l185 62q0 -103 68 -170q70 -68 175 -68q111 0 177 77q67 78 67 206v289q-34 -144 -118 -225q-82 -79 -208 -79q-113 0 -202 65t-137 183q-48 119 -48 275t48 274t137 183t202 65
q126 0 208 -79q84 -81 118 -224v278zM737 220q74 104 74 278q0 173 -74 277t-192 104q-117 0 -191 -106q-73 -104 -73 -275q0 -172 73 -276q74 -105 191 -105q119 0 192 103zM451 1384h186v-217h-186v217z" />
    <glyph glyph-name="r.ss04" horiz-adv-x="774" 
d="M774 987l-39 -217q-57 68 -168 68q-113 0 -170 -85t-57 -253v-500h-178v995h178v-262q30 140 106 213q77 74 193 74q78 0 135 -33z" />
    <glyph glyph-name="racute.ss04" horiz-adv-x="774" 
d="M774 987l-39 -217q-57 68 -168 68q-113 0 -170 -85t-57 -253v-500h-178v995h178v-262q30 140 106 213q77 74 193 74q78 0 135 -33zM481 1124l-157 23l266 291l166 -27z" />
    <glyph glyph-name="rcaron.ss04" horiz-adv-x="774" 
d="M774 987l-39 -217q-57 68 -168 68q-113 0 -170 -85t-57 -253v-500h-178v995h178v-262q30 140 106 213q77 74 193 74q78 0 135 -33zM485 1235l181 188l153 -22l-260 -283h-145l-269 283l156 22z" />
    <glyph glyph-name="uni0157.ss04" horiz-adv-x="774" 
d="M774 987l-39 -217q-57 68 -168 68q-113 0 -170 -85t-57 -253v-500h-178v995h178v-262q30 140 106 213q77 74 193 74q78 0 135 -33zM166 -408q57 76 57 152q0 70 -51 133h164q35 -53 35 -123q0 -87 -66 -188z" />
    <glyph glyph-name="y.ss05" horiz-adv-x="1085" 
d="M745 995h179v-1050q0 -178 -107 -279q-106 -100 -295 -100q-171 0 -279 84t-126 231l186 62q-2 -112 57 -173q60 -63 162 -63q104 0 164 66q59 65 59 182v256q-33 -114 -108 -174q-77 -62 -184 -62q-146 0 -230 111t-84 303v606h178v-587q0 -138 57 -210q58 -73 158 -73
q102 0 158 73q55 71 55 210v587z" />
    <glyph glyph-name="yacute.ss05" horiz-adv-x="1085" 
d="M745 995h179v-1050q0 -178 -107 -279q-106 -100 -295 -100q-171 0 -279 84t-126 231l186 62q-2 -112 57 -173q60 -63 162 -63q104 0 164 66q59 65 59 182v256q-33 -114 -108 -174q-77 -62 -184 -62q-146 0 -230 111t-84 303v606h178v-587q0 -138 57 -210q58 -73 158 -73
q102 0 158 73q55 71 55 210v587zM532 1124l-157 23l266 291l166 -27z" />
    <glyph glyph-name="ycircumflex.ss05" horiz-adv-x="1085" 
d="M745 995h179v-1050q0 -178 -107 -279q-106 -100 -295 -100q-171 0 -279 84t-126 231l186 62q-2 -112 57 -173q60 -63 162 -63q104 0 164 66q59 65 59 182v256q-33 -114 -108 -174q-77 -62 -184 -62q-146 0 -230 111t-84 303v606h178v-587q0 -138 57 -210q58 -73 158 -73
q102 0 158 73q55 71 55 210v587zM610 1425l260 -282l-153 -23l-180 189l-185 -189l-155 23l268 282h145z" />
    <glyph glyph-name="ydieresis.ss05" horiz-adv-x="1085" 
d="M745 995h179v-1050q0 -178 -107 -279q-106 -100 -295 -100q-171 0 -279 84t-126 231l186 62q-2 -112 57 -173q60 -63 162 -63q104 0 164 66q59 65 59 182v256q-33 -114 -108 -174q-77 -62 -184 -62q-146 0 -230 111t-84 303v606h178v-587q0 -138 57 -210q58 -73 158 -73
q102 0 158 73q55 71 55 210v587zM264 1384h189l2 -217h-189zM608 1384h189l2 -217h-189z" />
    <glyph glyph-name="ygrave.ss05" horiz-adv-x="1085" 
d="M745 995h179v-1050q0 -178 -107 -279q-106 -100 -295 -100q-171 0 -279 84t-126 231l186 62q-2 -112 57 -173q60 -63 162 -63q104 0 164 66q59 65 59 182v256q-33 -114 -108 -174q-77 -62 -184 -62q-146 0 -230 111t-84 303v606h178v-587q0 -138 57 -210q58 -73 158 -73
q102 0 158 73q55 71 55 210v587zM426 1438l264 -291l-158 -23l-274 287z" />
    <glyph glyph-name="uni0233.ss05" horiz-adv-x="1085" 
d="M745 995h179v-1050q0 -178 -107 -279q-106 -100 -295 -100q-171 0 -279 84t-126 231l186 62q-2 -112 57 -173q60 -63 162 -63q104 0 164 66q59 65 59 182v256q-33 -114 -108 -174q-77 -62 -184 -62q-146 0 -230 111t-84 303v606h178v-587q0 -138 57 -210q58 -73 158 -73
q102 0 158 73q55 71 55 210v587zM248 1178v127h569v-127h-569z" />
    <glyph glyph-name="uni1EF9.ss05" horiz-adv-x="1085" 
d="M745 995h179v-1050q0 -178 -107 -279q-106 -100 -295 -100q-171 0 -279 84t-126 231l186 62q-2 -112 57 -173q60 -63 162 -63q104 0 164 66q59 65 59 182v256q-33 -114 -108 -174q-77 -62 -184 -62q-146 0 -230 111t-84 303v606h178v-587q0 -138 57 -210q58 -73 158 -73
q102 0 158 73q55 71 55 210v587zM193 1157q5 124 56 186q53 64 148 64q51 0 88 -19q35 -18 88 -71q32 -36 54 -52t43 -16q73 0 73 154l132 -23q-4 -122 -56 -187q-51 -65 -145 -65q-50 0 -90 19q-36 17 -90 76q-27 30 -55 51q-18 14 -44 14q-36 0 -54 -37q-17 -35 -17 -116z
" />
    <glyph glyph-name="iacute_j.loclNLD.ss13" horiz-adv-x="1019" 
d="M170 995h178v-995h-178v995zM260 1124l-158 23l267 291l166 -27zM528 -369q82 39 117 123q35 85 35 238v1003h178v-1042q0 -144 -28 -239q-26 -90 -91 -148zM768 1124l-158 23l267 291l165 -27z" />
    <glyph glyph-name="ij.ss13" horiz-adv-x="1003" 
d="M154 1393h194v-226h-194v226zM162 995h178v-995h-178v995zM655 1393h195v-226h-195v226zM512 -369q82 39 117 123q35 85 35 238v1003h178v-1042q0 -144 -28 -239q-26 -90 -91 -148z" />
    <glyph glyph-name="j.ss13" horiz-adv-x="501" 
d="M154 1393h194v-226h-194v226zM10 -369q82 39 117 123q35 85 35 238v1003h178v-1042q0 -144 -28 -239q-26 -90 -91 -148z" />
    <glyph glyph-name="uni0237.ss13" horiz-adv-x="501" 
d="M10 -369q82 39 117 123q35 85 35 238v1003h178v-1042q0 -144 -28 -239q-26 -90 -91 -148z" />
    <glyph glyph-name="jcircumflex.ss13" horiz-adv-x="501" 
d="M10 -369q82 39 117 123q35 85 35 238v1003h178v-1042q0 -144 -28 -239q-26 -90 -91 -148zM328 1425l260 -282l-154 -23l-180 189l-184 -189l-156 23l268 282h146z" />
    <glyph glyph-name="eng.ss13" horiz-adv-x="1105" 
d="M881 910q86 -110 86 -302v-655q0 -144 -28 -239q-26 -90 -91 -148l-211 65q83 39 117 123q34 83 34 238v596q0 139 -58 210q-58 72 -167 72q-107 0 -165 -73t-58 -209v-588h-178v995h178v-219q33 117 111 180q79 64 192 64q152 0 238 -110z" />
    <glyph glyph-name="c_t" horiz-adv-x="1835" 
d="M1786 25q-86 -50 -211 -50q-277 0 -277 279v614h-225v127h57q94 0 150 49q57 50 57 127q0 94 -74 150q-75 57 -196 57q-132 0 -212 -70q-81 -70 -81 -184q0 -62 27 -123q27 -62 82 -133q66 -85 78 -188l-179 -59q-2 115 -67 186q-66 72 -166 72q-121 0 -195 -105
q-73 -104 -73 -276q0 -171 73 -275t195 -104q103 0 167 72t66 188l179 -60q-21 -151 -135 -247q-115 -97 -277 -97q-135 0 -238 65q-102 64 -157 182q-56 120 -56 276t56 276t157 182q104 64 238 64q125 0 231 -62q-54 51 -81 107q-25 51 -25 113q0 90 53 163t147 113
q96 41 213 41t210 -39q94 -40 146 -109q52 -70 52 -159q0 -165 -188 -193h450v-127h-280v-585q0 -158 125 -158q91 0 155 70z" />
    <glyph glyph-name="r_t" horiz-adv-x="1693" 
d="M1645 25q-89 -50 -213 -50q-277 0 -277 279v614h-223v127h57q94 0 150 47q55 46 55 127q0 90 -69 150q-68 59 -171 59q-108 0 -180 -66t-72 -167q0 -48 21 -92t65 -92l13 -13q76 -82 76 -231q0 -49 -13 -121l-184 -59q20 70 20 143q0 89 -37 139q-37 51 -110 51
q-105 0 -159 -97t-54 -286v-487h-178v995h178v-250q33 136 105 205q73 70 184 70q45 0 82 -12q-109 91 -109 202q0 80 48 146q47 64 133 102q84 37 190 37q110 0 194 -40q88 -42 136 -110q49 -70 49 -159q0 -163 -178 -191h440v-127h-281v-585q0 -158 125 -158q89 0 156 70z
" />
    <glyph glyph-name="s_t" horiz-adv-x="1726" 
d="M1677 25q-86 -50 -211 -50q-276 0 -276 279v614h-225v127h79q82 0 131 48q50 48 50 126q0 92 -73 151q-71 58 -187 58q-128 0 -205 -70q-78 -70 -78 -190q0 -54 21 -107q18 -46 75 -130q45 -64 56 -156l-172 -55q6 97 -47 153t-156 56q-79 0 -128 -32q-48 -31 -48 -85
q0 -46 54 -87q53 -39 189 -91q129 -50 201 -96q72 -47 102 -103q31 -59 31 -139q0 -121 -105 -196t-280 -75q-182 0 -287 84q-103 83 -114 238l174 59q-2 -16 -2 -34q0 -101 59 -153t172 -52q95 0 148 35t53 94q0 49 -56 89q-55 39 -202 95q-182 70 -250 141q-70 73 -70 191
q0 113 100 186q99 72 259 72q129 0 221 -51q-51 51 -75 102q-23 49 -23 109q0 90 52 161q53 73 145 113q94 41 208 41q116 0 205 -40q92 -41 140 -110q50 -71 50 -159q0 -78 -42 -126q-43 -49 -121 -65h430v-127h-281v-585q0 -158 125 -158q92 0 156 70z" />
    <glyph glyph-name="w_w_w" horiz-adv-x="4243" 
d="M3758 174l213 821h178l-268 -995h-242l-207 819l-206 -819h-242l-207 819l-207 -819h-241l-207 819l-207 -819h-242l-207 819l-206 -819h-242l-207 819l-207 -819h-242l-268 995h178l213 -821l205 821h242l207 -819l207 819h241l207 -819l207 819h242l206 -819l207 819
h242l207 -819l207 819h241z" />
    <glyph glyph-name="f_j.ss13" horiz-adv-x="1204" 
d="M1042 -47q0 -147 -27 -239q-26 -90 -91 -148l-211 65q81 38 116 123t35 238v876h-415v-868h-177v868h-252v127h306q-75 22 -120 76q-44 53 -44 123q0 111 95 180q96 70 247 70q136 0 221 -53l-27 -160q-32 32 -83 52t-99 20q-84 0 -134 -42t-50 -112q0 -54 29 -95
q30 -43 81 -59h600v-1042zM856 1167v226h195v-226h-195z" />
    <glyph glyph-name="ordfeminine.case" horiz-adv-x="970" 
d="M924 514h-187l-71 193h-361l-69 -193h-189l318 838h241zM485 1198l-133 -362h266z" />
    <glyph glyph-name="ordfeminine.ss02" horiz-adv-x="1026" 
d="M715 1352h178v-838h-178v248q-33 -126 -112 -194q-78 -68 -193 -68q-151 0 -239 118q-89 119 -89 316q0 196 89 315t239 119q113 0 193 -68q79 -67 112 -192v244zM652 722q63 81 63 212q0 130 -63 213q-63 82 -165 82q-98 0 -161 -83q-64 -84 -64 -212q0 -127 64 -211
q63 -82 161 -82q102 0 165 81z" />
    <glyph glyph-name="zero.zero" horiz-adv-x="1218" 
d="M876 1293q112 -84 172 -240q60 -157 60 -377t-60 -377q-60 -158 -172 -241t-268 -83q-153 0 -266 83q-111 82 -172 241q-59 155 -59 377t59 377q60 158 172 240q113 83 266 83q156 0 268 -83zM380 1075q-81 -141 -81 -399q0 -200 51 -336l420 819q-70 58 -162 58
q-146 0 -228 -142zM839 276q81 141 81 400q0 200 -50 330l-417 -818q67 -53 155 -53q150 0 231 141z" />
    <glyph glyph-name="zero.tf" horiz-adv-x="1157" 
d="M322 59q-109 85 -166 242q-58 160 -58 375q0 218 59 377q58 157 166 241t255 84q148 0 256 -84t166 -241q59 -159 59 -377q0 -216 -59 -375q-59 -160 -165 -242q-108 -84 -257 -84q-148 0 -256 84zM794 276q76 140 76 400q0 261 -76 401q-77 142 -216 142t-216 -142
q-75 -138 -75 -401q0 -262 75 -400q76 -141 216 -141t216 141z" />
    <glyph glyph-name="one.tf" horiz-adv-x="1157" 
d="M709 160h368v-160h-995v160h444v1032q-27 -214 -145 -333q-119 -120 -299 -120v211q168 0 290 108t165 294h172v-1192z" />
    <glyph glyph-name="two.tf" horiz-adv-x="1157" 
d="M826 505q-205 -206 -584 -345h782v-160h-909v147q346 184 538 395q191 211 191 408q0 123 -73 196t-193 73q-123 0 -194 -80t-71 -215q0 -26 4 -66l-200 66q-6 130 48 234t162 162q107 58 251 58q136 0 237 -52q102 -53 159 -148q56 -94 56 -222q0 -245 -204 -451z" />
    <glyph glyph-name="three.tf" horiz-adv-x="1157" 
d="M953 618q91 -100 91 -256q0 -113 -57 -202q-56 -87 -163 -136t-240 -49q-209 0 -341 102q-133 103 -149 273l199 66q5 -137 80 -208q78 -73 211 -73q124 0 198 65t74 173q0 109 -82 172q-83 63 -221 63h-131v154h131q117 0 191 64q75 64 75 167q0 101 -65 163
q-66 63 -170 63q-116 0 -185 -76q-68 -76 -73 -207l-199 65q18 170 143 274q124 103 314 103q123 0 219 -45t150 -126q55 -83 55 -181q0 -237 -312 -276q164 -29 257 -132z" />
    <glyph glyph-name="four.tf" horiz-adv-x="1157" 
d="M1098 471v-160h-201v-311h-182v311h-649v148q190 169 273 376t83 517h209q0 -288 -126 -518q-126 -229 -347 -363h557v352h182v-352h201z" />
    <glyph glyph-name="five.tf" horiz-adv-x="1157" 
d="M871 835q88 -58 136 -159q48 -102 48 -236q0 -140 -57 -245q-57 -106 -158 -162q-104 -58 -240 -58q-127 0 -235 51q-104 49 -166 140q-61 90 -66 205l201 65q-4 -136 68 -219q72 -82 198 -82t196 81q70 80 70 224q0 142 -68 220q-69 79 -192 79q-86 0 -156 -38
q-68 -37 -106 -101l-178 66l37 686h801v-160h-625l-31 -518q46 103 129 160q84 57 193 57q116 0 201 -56z" />
    <glyph glyph-name="six.tf" horiz-adv-x="1157" 
d="M946 762q107 -124 107 -330q0 -133 -58 -238t-160 -161q-105 -58 -239 -58q-236 0 -360 180q-123 179 -123 523q0 338 125 517t358 179q158 0 270 -78q113 -78 156 -217l-191 -63q-17 91 -80 144q-65 54 -155 54q-142 0 -219 -135q-76 -134 -76 -395q0 -77 6 -143
q23 158 117 251t238 93q178 0 284 -123zM792 216q72 81 72 218q0 140 -70 219q-71 80 -194 80q-125 0 -194 -80q-70 -81 -70 -219l-10 8l10 -8q0 -132 73 -216q72 -83 187 -83q124 0 196 81z" />
    <glyph glyph-name="seven.tf" horiz-adv-x="1157" 
d="M55 1352h1035v-146q-205 -152 -317 -320q-113 -170 -160 -371q-46 -197 -46 -458v-57h-205v57q0 406 153 679t478 456h-938v160z" />
    <glyph glyph-name="eight.tf" horiz-adv-x="1157" 
d="M959 629q98 -101 98 -250q0 -116 -61 -209q-60 -92 -170 -143q-112 -52 -248 -52q-138 0 -248 52q-108 51 -170 143t-62 209q0 148 97 250q96 101 264 129q-157 21 -237 94q-81 74 -81 195q0 95 56 172q54 75 154 117q99 42 227 42q127 0 226 -42q100 -42 154 -117
q56 -77 56 -172q0 -122 -82 -195t-238 -94q167 -28 265 -129zM398 830q68 -62 180 -62q110 0 178 62q69 63 69 163q0 101 -68 163q-69 63 -179 63q-111 0 -180 -63q-68 -62 -68 -163t68 -163zM787 203q81 67 81 174q0 108 -80 174q-78 65 -210 65q-133 0 -211 -65
q-80 -66 -80 -174q0 -107 81 -174q82 -68 210 -68q127 0 209 68z" />
    <glyph glyph-name="nine.tf" horiz-adv-x="1157" 
d="M921 1205q123 -176 123 -525q0 -340 -126 -521q-128 -184 -359 -184q-154 0 -267 82t-157 224l191 63q15 -95 78 -151q66 -58 155 -58q144 0 220 139q77 140 77 402q0 75 -6 143q-22 -157 -118 -251q-94 -93 -238 -93q-177 0 -283 124q-107 125 -107 329q0 134 57 238
q58 105 160 161q104 57 238 57q237 0 362 -179zM831 918l-10 8q0 134 -72 216q-72 83 -190 83q-122 0 -194 -81t-72 -218q0 -140 69 -219q69 -80 193 -80q125 0 196 80q70 79 70 219z" />
    <glyph glyph-name="zero.tf.zero" horiz-adv-x="1157" 
d="M834 1294q108 -84 166 -241q59 -159 59 -377q0 -216 -59 -375q-59 -160 -165 -242q-108 -84 -257 -84q-148 0 -256 84q-109 85 -166 242q-58 160 -58 375q0 218 59 377q58 157 166 241t255 84q148 0 256 -84zM362 1077q-75 -138 -75 -401q0 -187 41 -318l409 797
q-70 64 -159 64q-139 0 -216 -142zM794 276q76 140 76 400q0 178 -39 311l-407 -792q66 -60 154 -60q140 0 216 141z" />
    <glyph glyph-name="zero.tf.zero.numr" horiz-adv-x="841" 
d="M614 1316q83 -54 130 -153q47 -100 47 -227q0 -128 -47 -228q-47 -101 -130 -154q-84 -54 -192 -54q-109 0 -193 54q-83 53 -130 154q-46 98 -46 228q0 128 46 226q47 101 130 154q84 54 193 54q108 0 192 -54zM284 1138q-51 -77 -51 -202q0 -96 29 -166l221 430
q-27 12 -61 12q-89 0 -138 -74zM560 731q50 77 50 205q0 101 -30 164l-222 -432q33 -13 64 -13q89 0 138 76z" />
    <glyph glyph-name="zero.tf.zero.numr.ulined" horiz-adv-x="841" 
d="M229 554q-83 53 -130 154q-46 98 -46 228q0 128 46 226q47 101 130 154q84 54 193 54q108 0 192 -54q83 -54 130 -153q47 -100 47 -227q0 -128 -47 -228q-47 -101 -130 -154q-84 -54 -192 -54q-109 0 -193 54zM284 1138q-51 -77 -51 -202q0 -96 29 -166l221 430
q-27 12 -61 12q-89 0 -138 -74zM560 731q50 77 50 205q0 101 -30 164l-222 -432q33 -13 64 -13q89 0 138 76zM-10 285v127h862v-127h-862z" />
    <glyph glyph-name="zero.dnom" horiz-adv-x="917" 
d="M175 104q-107 117 -107 316q0 129 49 227q50 100 137 153q89 54 205 54q175 0 283 -119t108 -315q0 -198 -108 -316t-283 -118q-176 0 -284 118zM608 216q56 76 56 204q0 126 -56 202q-55 74 -149 74q-95 0 -150 -74t-55 -202q0 -130 55 -204q55 -75 150 -75q93 0 149 75
z" />
    <glyph glyph-name="one.dnom" horiz-adv-x="645" 
d="M532 838v-838h-182v735q-15 -179 -96 -269q-82 -91 -225 -91v211q125 0 212 66q85 65 119 186h172z" />
    <glyph glyph-name="two.dnom" horiz-adv-x="849" 
d="M641 311q-132 -100 -416 -157h539v-154h-690v135q242 84 378 195t136 223q0 65 -44 104t-118 39q-84 0 -128 -54q-44 -55 -38 -148l-199 65q4 133 104 214q99 81 261 81q158 0 253 -80t95 -211q0 -152 -133 -252z" />
    <glyph glyph-name="three.dnom" horiz-adv-x="843" 
d="M240 276q4 -66 52 -100q49 -35 134 -35q80 0 126 30t46 83q0 51 -50 80q-49 28 -140 28h-97v121h97q71 0 119 31q46 30 46 78q0 47 -41 76q-40 28 -106 28q-75 0 -118 -37q-45 -38 -46 -104l-196 66q21 108 117 170q97 63 243 63q93 0 171 -29q79 -30 121 -77
q44 -50 44 -111q0 -142 -250 -160q130 -18 203 -80q71 -61 71 -159q0 -114 -99 -183t-261 -69q-156 0 -260 61q-105 61 -123 164z" />
    <glyph glyph-name="four.dnom" horiz-adv-x="843" 
d="M494 0v172h-461v137q133 72 193 198q61 128 61 331h215q0 -118 -50 -227q-48 -104 -139 -183q-86 -75 -194 -102h375v184h184v-184h135v-154h-135v-172h-184z" />
    <glyph glyph-name="five.dnom" horiz-adv-x="864" 
d="M189 56q-103 70 -111 186l198 65q0 -73 47 -120q46 -46 121 -46t122 41q46 40 46 109q0 67 -45 108q-46 41 -121 41q-106 0 -165 -71l-179 65l23 404h635v-154h-461l-16 -270q30 73 94 114t145 41q124 0 200 -77q77 -79 77 -201q0 -134 -100 -220q-98 -85 -255 -85
q-152 0 -255 70z" />
    <glyph glyph-name="six.dnom" horiz-adv-x="876" 
d="M168 98q-100 112 -100 322q0 198 105 316t282 118q125 0 219 -54t129 -149l-197 -63q-5 51 -47 80q-44 30 -104 30q-96 0 -148 -74q-53 -76 -53 -208q0 -52 8 -94q10 106 79 166q70 61 181 61q128 0 208 -74q79 -73 79 -192q0 -87 -46 -154q-47 -68 -128 -105
q-84 -38 -184 -38q-183 0 -283 112zM574 180q49 40 49 103q0 62 -48 102q-47 39 -122 39q-79 0 -125 -39q-47 -39 -47 -102q0 -61 47 -102q46 -40 123 -40q75 0 123 39z" />
    <glyph glyph-name="seven.dnom" horiz-adv-x="751" 
d="M6 838h735v-129q-175 -108 -254 -264q-77 -153 -77 -398v-47h-217v47q0 229 121 392q120 162 343 245h-651v154z" />
    <glyph glyph-name="eight.dnom" horiz-adv-x="872" 
d="M131 398q73 62 205 79q-250 22 -250 168q0 95 95 152q94 57 255 57q160 0 255 -57t95 -152q0 -146 -249 -168q131 -17 204 -79q74 -63 74 -156q0 -116 -104 -186t-275 -70q-170 0 -274 70q-105 71 -105 186q0 93 74 156zM316 512q44 -29 120 -29t120 29t44 78t-44 78
q-43 28 -120 28t-120 -28q-44 -29 -44 -78t44 -78zM296 171q52 -30 140 -30t141 30q52 30 52 81t-52 81q-51 29 -141 29q-89 0 -140 -29q-52 -30 -52 -81t52 -81z" />
    <glyph glyph-name="nine.dnom" horiz-adv-x="876" 
d="M709 741q100 -112 100 -321q0 -197 -106 -317q-104 -117 -281 -117q-124 0 -219 54t-129 148l196 64q5 -51 47 -80q45 -31 105 -31q94 0 147 75q54 77 54 208q0 47 -9 94q-11 -108 -78 -167q-69 -60 -182 -60q-128 0 -208 74q-78 72 -78 192q0 87 46 154q47 68 128 105
q84 38 184 38q182 0 283 -113zM302 659q-48 -39 -48 -102t47 -102t123 -39q79 0 125 39q47 39 47 102q0 60 -47 101q-46 40 -123 40q-76 0 -124 -39z" />
    <glyph glyph-name="zero.numr" horiz-adv-x="917" 
d="M175 618q-107 117 -107 316q0 129 49 227q50 100 137 153q89 54 205 54q175 0 283 -119t108 -315q0 -198 -108 -316t-283 -118q-176 0 -284 118zM608 730q56 76 56 204q0 126 -56 202q-55 74 -149 74q-95 0 -150 -74t-55 -202q0 -130 55 -204q55 -75 150 -75q93 0 149 75
z" />
    </font>
</defs>
</svg>
