<svg viewBox="0 0 173 173" fill="none" xmlns="http://www.w3.org/2000/svg">
<g clip-path="url(#clip0_25_972)">
<path d="M75.3269 161.002C116.659 167.257 155.236 138.821 161.491 97.4894C167.746 56.1573 139.31 17.5805 97.9779 11.3255C56.6459 5.07062 18.069 33.5062 11.8141 74.8383C5.55918 116.17 33.9948 154.747 75.3269 161.002Z" fill="#FF8256"/>
<path d="M120.799 27.3814L122.043 28.2225L120.807 31.7356C120.578 32.328 120.181 33.2233 120.181 33.2233L120.198 33.2346C120.198 33.2346 120.855 32.5888 121.339 32.1444L124.035 29.5695L125.212 30.3653L123.833 33.8183C123.601 34.4331 123.241 35.2921 123.241 35.2921L123.258 35.3035C123.258 35.3035 123.974 34.6242 124.445 34.1825L127.213 31.718L128.415 32.5308L122.637 37.3822L121.502 36.615L122.947 32.9006C123.142 32.3952 123.459 31.6909 123.459 31.6909L123.442 31.6795C123.442 31.6795 122.923 32.2475 122.527 32.6164L119.61 35.3361L118.484 34.5745L120.799 27.3814L120.799 27.3814Z" fill="black"/>
<path d="M125.572 36.34C126.571 35.1649 128.143 34.9296 129.303 35.9156C130.578 37.0002 130.431 38.5527 129.228 39.9676L126.352 37.5224C125.91 38.1988 125.928 38.8669 126.523 39.373C126.933 39.7214 127.33 39.7396 127.703 39.5367L128.739 40.4175C127.994 40.9962 126.861 41.0591 125.841 40.1914C124.526 39.074 124.566 37.5229 125.572 36.34L125.572 36.34ZM126.985 36.8088L128.748 38.3075C129.144 37.7786 129.107 37.148 128.628 36.7405C128.071 36.2672 127.518 36.3696 126.985 36.8088L126.985 36.8088Z" fill="black"/>
<path d="M133.204 36.8482L134.197 37.8064L129.159 43.0275L128.166 42.0693L133.204 36.8482Z" fill="black"/>
<path d="M131.5 41.6307C132.644 40.5817 134.213 40.5207 135.282 41.6875C136.194 42.6824 136.18 43.8238 135.474 44.7194L134.562 43.7245C134.837 43.3487 134.851 42.8537 134.508 42.4798C133.946 41.8664 133.187 41.9842 132.446 42.663C131.721 43.328 131.502 44.0654 132.071 44.6863C132.448 45.0977 132.932 45.1906 133.428 44.8602L134.326 45.8402C133.449 46.5201 132.215 46.4808 131.276 45.456C130.165 44.2443 130.356 42.6798 131.5 41.6307Z" fill="black"/>
<path d="M135.165 45.644C136.399 44.7011 138.022 44.8526 139.002 46.1344C139.982 47.4163 139.702 49.0223 138.469 49.9653C137.235 50.9083 135.612 50.7568 134.632 49.4749C133.652 48.1931 133.932 46.5871 135.165 45.644ZM137.618 48.8528C138.424 48.2364 138.683 47.4384 138.171 46.7693C137.654 46.092 136.822 46.1402 136.016 46.7566C135.21 47.3729 134.953 48.1567 135.471 48.8339C135.982 49.5032 136.812 49.4691 137.618 48.8528Z" fill="black"/>
<path d="M141.177 49.2106L141.859 50.3517L141.258 50.7109L141.273 50.737C141.828 50.7363 142.402 50.9844 142.772 51.6029C143.11 52.169 143.067 52.8094 142.727 53.3083L142.738 53.3257C143.408 53.339 143.985 53.6324 144.323 54.1986C144.886 55.1393 144.593 56.0351 143.618 56.6182L140.613 58.4143L139.905 57.2297L142.709 55.5533C143.215 55.2514 143.325 54.8425 143.065 54.407C142.768 53.9105 142.202 53.8347 141.61 54.1887L139.014 55.7402L138.306 54.5556L141.111 52.8791C141.616 52.5771 141.727 52.1684 141.466 51.7328C141.18 51.2538 140.604 51.1605 140.012 51.5146L137.416 53.0661L136.708 51.8813L141.177 49.2106L141.177 49.2106Z" fill="black"/>
<path d="M143.115 57.7313C144.519 57.0928 146.041 57.5486 146.672 58.9342C147.365 60.4584 146.57 61.8004 144.88 62.5691L143.317 59.1329C142.63 59.5571 142.362 60.1693 142.685 60.8806C142.908 61.3702 143.26 61.5557 143.683 61.5305L144.246 62.7683C143.325 62.975 142.274 62.5502 141.72 61.3309C141.006 59.7606 141.701 58.374 143.115 57.7313ZM144.194 58.7565L145.152 60.8627C145.735 60.5526 145.97 59.9665 145.71 59.3938C145.408 58.7287 144.863 58.586 144.194 58.7565Z" fill="black"/>
<path d="M148.435 63.5628L148.667 64.2449L150.204 63.7217L150.639 64.9994L149.102 65.5224L149.39 66.3677L148.525 66.662L148.238 65.8167L145.625 66.7059C145.26 66.8301 145.203 67.0743 145.302 67.3626C145.357 67.5258 145.442 67.7434 145.442 67.7434L144.481 68.0704C144.481 68.0704 144.361 67.7792 144.184 67.2604C143.968 66.6265 143.98 65.8402 144.911 65.5231L147.803 64.539L147.571 63.857L148.435 63.5628Z" fill="black"/>
<path d="M147.103 67.6457C148.605 67.2545 150.043 68.0234 150.449 69.5849C150.856 71.1464 149.975 72.5187 148.473 72.9097C146.97 73.3008 145.533 72.5319 145.126 70.9705C144.72 69.4089 145.6 68.0367 147.103 67.6457ZM148.12 71.5545C149.102 71.2988 149.65 70.6634 149.438 69.8483C149.223 69.0233 148.437 68.7453 147.455 69.0009C146.473 69.2566 145.933 69.8796 146.148 70.7046C146.36 71.5197 147.138 71.8101 148.12 71.5545Z" fill="black"/>
<path d="M148.896 75.0686C150.435 74.8628 151.768 75.8003 151.982 77.3995C152.196 78.9985 151.156 80.2536 149.617 80.4594C148.078 80.6652 146.745 79.7276 146.531 78.1285C146.317 76.5294 147.357 75.2744 148.896 75.0686ZM149.432 79.0715C150.437 78.937 151.058 78.3727 150.946 77.538C150.833 76.6932 150.088 76.322 149.082 76.4565C148.076 76.5911 147.464 77.1438 147.577 77.9887C147.689 78.8234 148.426 79.2059 149.432 79.0715Z" fill="black"/>
<path d="M147.202 84.5711L147.81 84.546L147.809 84.5156C147.318 84.1804 147.027 83.7862 146.997 83.0562C146.949 81.9004 147.662 81.2209 148.798 81.1739L152.265 81.0303L152.322 82.3991L149.088 82.5329C148.479 82.5581 148.156 82.8457 148.18 83.4338C148.207 84.0827 148.71 84.4579 149.4 84.4293L152.401 84.3051L152.458 85.684L147.257 85.8993L147.202 84.5711Z" fill="black"/>
<path d="M151.554 88.1337L151.554 88.1642C152.132 88.4971 152.425 88.8618 152.406 89.4703C152.401 89.6225 152.388 89.7134 152.355 89.7936L151.148 89.7555L151.149 89.7251C151.269 88.8253 150.812 88.161 149.717 88.1265L147.181 88.0464L147.225 86.6669L152.428 86.8312L152.386 88.16L151.554 88.1337Z" fill="black"/>
<path d="M147.461 93.1794L147.463 93.1592L146.82 93.0732L146.996 91.7556L154.188 92.7162L154.005 94.0841L151.349 93.7295L151.345 93.7596C151.74 94.0991 152.013 94.5859 151.918 95.3001C151.744 96.5977 150.504 97.374 148.895 97.159C147.225 96.936 146.287 95.9097 146.46 94.6121C146.557 93.8879 146.938 93.4166 147.461 93.1794ZM149.08 95.7709C150.036 95.8985 150.751 95.605 150.853 94.8405C150.968 93.9754 150.317 93.5609 149.362 93.4333C148.416 93.307 147.75 93.6991 147.647 94.4636C147.553 95.1677 148.084 95.6379 149.08 95.7709Z" fill="black"/>
<path d="M150.194 99.5103L150.187 99.54C150.699 99.9685 150.924 100.379 150.8 100.974C150.768 101.123 150.74 101.211 150.693 101.284L149.511 101.037L149.518 101.007C149.792 100.142 149.458 99.4082 148.385 99.1837L145.902 98.6641L146.185 97.3132L151.28 98.3795L151.008 99.6807L150.194 99.5103Z" fill="black"/>
<path d="M145.231 103.692L145.236 103.672C144.927 103.311 144.736 102.867 144.978 102.008C145.267 100.982 146.008 100.411 147.004 100.691C148.108 101.002 148.206 102 148.049 103.157C147.932 104.021 147.893 104.421 148.274 104.528C148.635 104.63 148.949 104.413 149.106 103.856C149.282 103.231 149.143 102.865 148.676 102.691L149.008 101.509C149.876 101.796 150.464 102.668 150.051 104.133C149.627 105.637 148.783 106.053 147.611 105.722L145.061 105.004C144.681 104.897 144.439 104.892 144.318 104.985L144.27 104.971L144.63 103.691C144.75 103.641 144.998 103.658 145.231 103.692ZM146.439 104.043L147.191 104.255C147.121 103.982 147.144 103.598 147.16 103.244C147.199 102.507 147.139 102.121 146.67 101.989C146.201 101.857 145.947 102.123 145.815 102.591C145.6 103.353 145.951 103.905 146.439 104.043Z" fill="black"/>
<path d="M147.825 108.336L147.814 108.364C148.211 108.894 148.317 109.444 148.065 110.109C147.684 111.115 146.67 111.501 145.607 111.098L142.428 109.895L142.917 108.604L145.906 109.736C146.428 109.934 146.913 109.77 147.118 109.229C147.334 108.66 147.036 108.07 146.372 107.818L143.61 106.772L144.099 105.482L148.967 107.325L148.489 108.587L147.825 108.336Z" fill="black"/>
<path d="M144.6 111.445C146.06 112.156 146.668 113.48 146.098 114.647C145.778 115.304 145.277 115.568 144.76 115.632L144.747 115.659L147.155 116.833L146.551 118.074L140.029 114.895L140.611 113.7L141.222 113.998L141.231 113.98C140.917 113.488 140.843 112.876 141.163 112.219C141.737 111.043 143.086 110.707 144.6 111.445ZM142.928 114.807C143.822 115.242 144.566 115.244 144.953 114.45C145.286 113.766 144.853 113.126 143.987 112.704C143.083 112.263 142.381 112.361 142.07 113C141.71 113.739 142.07 114.389 142.928 114.807Z" fill="black"/>
<path d="M138.801 116.777L138.057 117.927C137.724 117.845 137.351 117.955 137.005 118.492C136.581 119.148 136.692 119.667 137.289 120.052L137.766 120.361L137.783 120.335C137.658 119.892 137.651 119.417 138.009 118.863C138.637 117.891 140.02 117.432 141.342 118.285C142.646 119.127 142.975 120.451 142.259 121.559C141.907 122.104 141.435 122.367 140.898 122.395L140.887 122.412L141.347 122.709L140.626 123.826L136.586 121.217C135.972 120.82 135.681 120.355 135.592 119.838C135.487 119.251 135.697 118.59 136.116 117.942C136.886 116.748 137.871 116.346 138.801 116.777L138.801 116.777ZM139.33 121.455C139.97 121.868 140.735 121.879 141.187 121.18C141.567 120.592 141.36 119.903 140.627 119.429C139.885 118.951 139.197 119.062 138.812 119.659C138.338 120.392 138.683 121.037 139.33 121.455Z" fill="black"/>
<path d="M133.796 124.193L134.276 124.568L134.294 124.544C134.137 123.97 134.172 123.482 134.622 122.906C135.334 121.994 136.318 121.939 137.213 122.639L139.948 124.777L139.104 125.856L136.553 123.862C136.074 123.487 135.641 123.497 135.279 123.96C134.878 124.472 135.018 125.084 135.562 125.509L137.929 127.359L137.078 128.447L132.977 125.24L133.796 124.193L133.796 124.193Z" fill="black"/>
<path d="M136.328 129.267L135.412 130.299L131.519 126.843L132.435 125.811L136.328 129.267ZM137.861 130.628L136.945 131.66L136.019 130.838L136.935 129.806L137.861 130.628Z" fill="black"/>
<path d="M133.028 129.119C134.17 130.272 134.306 131.722 133.384 132.636C132.864 133.15 132.304 133.234 131.796 133.123L131.774 133.145L133.659 135.048L132.678 136.019L127.573 130.864L128.518 129.929L128.996 130.412L129.011 130.398C128.877 129.83 129.009 129.228 129.528 128.714C130.458 127.793 131.842 127.922 133.028 129.119ZM130.339 131.739C131.038 132.445 131.74 132.693 132.367 132.072C132.908 131.536 132.711 130.789 132.033 130.104C131.326 129.39 130.631 129.25 130.126 129.75C129.542 130.328 129.667 131.061 130.339 131.739Z" fill="black"/>
<path d="M128.882 133.202C129.864 134.391 129.821 135.98 128.648 136.95C127.357 138.016 125.854 137.599 124.672 136.168L127.581 133.763C126.993 133.21 126.332 133.111 125.729 133.609C125.315 133.951 125.227 134.34 125.362 134.742L124.314 135.608C123.874 134.773 124.01 133.647 125.043 132.794C126.373 131.695 127.893 132.006 128.882 133.202ZM128.173 134.512L126.39 135.985C126.841 136.468 127.469 136.542 127.954 136.141C128.517 135.676 128.513 135.113 128.173 134.512Z" fill="black"/>
<path d="M121.028 144.795L119.684 145.466L117.23 142.665C116.826 142.175 116.241 141.39 116.241 141.39L116.223 141.399C116.223 141.399 116.463 142.289 116.612 142.929L117.533 146.541L116.262 147.176L113.93 144.28C113.508 143.776 112.936 143.041 112.936 143.041L112.918 143.05C112.918 143.05 113.158 144.008 113.313 144.634L114.101 148.256L112.803 148.905L111.412 141.488L112.637 140.876L115.164 143.958C115.509 144.376 115.967 144.998 115.967 144.998L115.986 144.989C115.986 144.989 115.745 144.258 115.618 143.732L114.68 139.855L115.896 139.248L121.028 144.795Z" fill="black"/>
<path d="M110.879 144.559C111.413 146.006 110.847 147.492 109.419 148.019C107.848 148.598 106.568 147.708 105.925 145.966L109.466 144.659C109.093 143.942 108.502 143.63 107.769 143.901C107.265 144.087 107.054 144.424 107.048 144.848L105.772 145.319C105.634 144.386 106.134 143.368 107.391 142.904C109.009 142.307 110.341 143.103 110.879 144.559ZM109.777 145.561L107.607 146.362C107.873 146.967 108.441 147.244 109.031 147.026C109.716 146.773 109.898 146.241 109.777 145.561Z" fill="black"/>
<path d="M106.694 150.961L105.372 151.356L103.294 144.404L104.617 144.009L106.694 150.961Z" fill="black"/>
<path d="M103.363 147.13C103.715 148.642 102.998 150.038 101.456 150.397C100.142 150.702 99.1543 150.13 98.7212 149.074L100.036 148.768C100.228 149.192 100.652 149.448 101.146 149.333C101.957 149.145 102.227 148.425 102 147.447C101.777 146.488 101.242 145.935 100.421 146.126C99.8776 146.253 99.5588 146.629 99.6032 147.223L98.3084 147.524C98.1468 146.426 98.7868 145.371 100.141 145.056C101.742 144.683 103.012 145.617 103.363 147.13Z" fill="black"/>
<path d="M98.0649 148.351C98.2786 149.889 97.348 151.227 95.75 151.449C94.152 151.671 92.8916 150.637 92.6778 149.1C92.4641 147.562 93.3948 146.224 94.9929 146.001C96.5909 145.779 97.8512 146.813 98.0649 148.351ZM94.0648 148.907C94.2045 149.912 94.7719 150.53 95.6061 150.414C96.4504 150.296 96.8177 149.549 96.6779 148.544C96.5383 147.539 95.9824 146.929 95.1381 147.047C94.3039 147.163 93.9252 147.902 94.0648 148.907Z" fill="black"/>
<path d="M91.9969 151.828L90.668 151.858L90.6521 151.158L90.6216 151.158C90.3484 151.642 89.8494 152.018 89.1292 152.035C88.4699 152.05 87.934 151.696 87.6679 151.154L87.6477 151.155C87.3055 151.731 86.7655 152.088 86.1062 152.103C85.0106 152.128 84.3756 151.432 84.3498 150.296L84.2704 146.796L85.6501 146.765L85.7242 150.031C85.7375 150.62 86.0386 150.917 86.5458 150.906C87.1241 150.893 87.469 150.438 87.4534 149.748L87.3847 146.725L88.7644 146.694L88.8386 149.961C88.8519 150.549 89.153 150.847 89.6602 150.835C90.2182 150.823 90.5833 150.368 90.5677 149.678L90.499 146.655L91.8787 146.623L91.9969 151.828L91.9969 151.828Z" fill="black"/>
<path d="M83.6294 149.308C83.4919 150.845 82.344 151.944 80.828 151.808C79.1603 151.659 78.3849 150.306 78.5505 148.456L82.3104 148.793C82.2807 147.985 81.8804 147.45 81.1021 147.381C80.5665 147.333 80.2314 147.547 80.0445 147.928L78.6902 147.806C78.9646 146.904 79.853 146.199 81.187 146.318C82.9053 146.472 83.7678 147.762 83.6294 149.308ZM82.205 149.741L79.9006 149.535C79.8823 150.195 80.2761 150.689 80.9028 150.745C81.6305 150.81 82.0231 150.407 82.205 149.741Z" fill="black"/>
<path d="M75.9358 151.061L75.2277 150.928L74.9268 152.523L73.6004 152.273L73.9015 150.678L73.0238 150.512L73.1931 149.615L74.0708 149.78L74.5825 147.068C74.6539 146.689 74.469 146.52 74.1698 146.463C74.0003 146.431 73.769 146.398 73.769 146.398L73.9572 145.401C73.9572 145.401 74.2701 145.439 74.8086 145.541C75.4668 145.665 76.1458 146.061 75.9633 147.029L75.3971 150.03L76.1051 150.164L75.9358 151.061Z" fill="black"/>
<path d="M73.0404 147.892C72.643 149.393 71.2672 150.267 69.7074 149.854C68.1476 149.441 67.3849 148 67.7823 146.499C68.1797 144.999 69.5556 144.124 71.1153 144.537C72.6751 144.95 73.4378 146.391 73.0404 147.892ZM69.1361 146.858C68.8763 147.839 69.1607 148.628 69.975 148.844C70.799 149.062 71.4269 148.514 71.6867 147.533C71.9465 146.552 71.6692 145.776 70.8452 145.557C70.0309 145.342 69.3959 145.877 69.1361 146.858Z" fill="black"/>
<path d="M65.6894 145.807C65.1134 147.249 63.6419 147.951 62.1436 147.352C60.6453 146.753 60.0625 145.231 60.6385 143.789C61.2147 142.347 62.6861 141.646 64.1844 142.245C65.6827 142.843 66.2656 144.366 65.6894 145.807ZM61.939 144.309C61.5624 145.251 61.7493 146.069 62.5314 146.381C63.3229 146.698 64.0125 146.23 64.3891 145.288C64.7655 144.345 64.5844 143.541 63.7928 143.225C63.0107 142.912 62.3154 143.366 61.939 144.309Z" fill="black"/>
<path d="M58.2462 139.667L57.9695 140.21L57.9966 140.224C58.5297 139.96 59.0158 139.901 59.6667 140.233C60.6972 140.759 60.939 141.714 60.4225 142.726L58.8452 145.817L57.6248 145.195L59.0961 142.311C59.3728 141.769 59.281 141.346 58.7567 141.079C58.1781 140.783 57.6042 141.037 57.2906 141.652L55.9253 144.328L54.696 143.701L57.0621 139.063L58.2462 139.667Z" fill="black"/>
<path d="M53.0014 141.707L52.9754 141.692C52.4012 142.032 51.9396 142.108 51.4189 141.792C51.2888 141.713 51.216 141.657 51.1623 141.589L51.7886 140.557L51.8145 140.572C52.5395 141.119 53.3421 141.048 53.9104 140.11L55.2261 137.941L56.4061 138.657L53.7066 143.108L52.5699 142.419L53.0014 141.707Z" fill="black"/>
<path d="M50.6224 135.663L50.6385 135.675L51.0303 135.158L52.0905 135.96L47.7126 141.746L46.612 140.913L48.2285 138.777L48.2042 138.759C47.7143 138.935 47.1562 138.933 46.5816 138.498C45.5376 137.708 45.4727 136.247 46.4523 134.952C47.4687 133.608 48.8239 133.297 49.8679 134.087C50.4505 134.528 50.6734 135.091 50.6224 135.663ZM47.5692 135.797C46.9874 136.565 46.8909 137.332 47.506 137.798C48.2019 138.324 48.8834 137.962 49.4651 137.193C50.0406 136.432 50.0276 135.659 49.4126 135.193C48.846 134.765 48.1753 134.995 47.5692 135.797Z" fill="black"/>
<path d="M43.7671 134.921L43.7442 134.901C43.119 135.135 42.6512 135.128 42.1944 134.726C42.0802 134.625 42.0184 134.557 41.9776 134.48L42.776 133.574L42.7989 133.594C43.4162 134.26 44.2188 134.332 44.9434 133.509L46.6208 131.606L47.6563 132.518L44.2143 136.424L43.2169 135.545L43.7671 134.921Z" fill="black"/>
<path d="M42.5806 128.542L42.5949 128.556C43.0618 128.465 43.5423 128.518 44.1702 129.153C44.9194 129.91 45.0508 130.837 44.3149 131.565C43.4997 132.371 42.5835 131.964 41.6546 131.256C40.9614 130.728 40.6327 130.497 40.3513 130.775C40.0844 131.039 40.1182 131.42 40.5249 131.831C40.9816 132.293 41.3688 132.352 41.7508 132.031L42.6143 132.904C41.9365 133.518 40.8884 133.598 39.818 132.516C38.7191 131.405 38.7744 130.465 39.6402 129.609L41.5231 127.746C41.8044 127.468 41.9275 127.261 41.9068 127.11L41.9429 127.074L42.8777 128.019C42.8626 128.148 42.7252 128.356 42.5806 128.542ZM41.679 129.419L41.1235 129.969C41.3957 130.042 41.7175 130.252 42.0178 130.44C42.6399 130.838 43.005 130.976 43.3513 130.634C43.6976 130.291 43.5919 129.939 43.2494 129.593C42.6928 129.03 42.0396 129.062 41.679 129.419Z" fill="black"/>
<path d="M37.2607 128.505L37.2412 128.482C36.585 128.565 36.0539 128.386 35.6 127.84C34.9126 127.013 35.0767 125.94 35.9509 125.213L38.5659 123.041L39.4477 124.103L36.9889 126.145C36.5596 126.502 36.4627 127.005 36.8323 127.45C37.2213 127.918 37.8813 127.95 38.4277 127.496L40.6992 125.609L41.581 126.671L37.5767 129.997L36.7143 128.959L37.2607 128.505Z" fill="black"/>
<path d="M36.1471 124.168C34.8096 125.089 33.3581 124.967 32.6215 123.897C32.2071 123.295 32.224 122.729 32.4224 122.247L32.4051 122.222L30.1983 123.742L29.4157 122.605L35.3925 118.49L36.1464 119.585L35.5863 119.971L35.5977 119.988C36.18 119.956 36.7493 120.193 37.1637 120.795C37.906 121.873 37.5347 123.213 36.1471 124.168L36.1471 124.168ZM34.043 121.058C33.2238 121.622 32.8562 122.269 33.3568 122.996C33.7884 123.623 34.5588 123.561 35.353 123.015C36.1805 122.445 36.4409 121.785 36.0381 121.2C35.5719 120.523 34.8287 120.517 34.043 121.058Z" fill="black"/>
<path d="M34.3545 116.492L33.7167 115.28C33.9521 115.03 34.0396 114.651 33.742 114.086C33.3783 113.394 32.8711 113.237 32.2426 113.567L31.7397 113.832L31.7538 113.859C32.2009 113.968 32.6187 114.195 32.9257 114.779C33.4643 115.803 33.1852 117.234 31.7933 117.966C30.4192 118.689 29.1045 118.326 28.4904 117.158C28.188 116.583 28.1904 116.043 28.4301 115.562L28.4207 115.544L27.9357 115.799L27.3168 114.622L31.5736 112.383C32.2201 112.043 32.7689 112.018 33.2627 112.194C33.825 112.391 34.2985 112.899 34.6575 113.581C35.319 114.838 35.1865 115.894 34.3545 116.492L34.3545 116.492ZM30.0183 114.657C29.3448 115.012 28.959 115.673 29.3464 116.41C29.6724 117.029 30.3746 117.187 31.1469 116.781C31.9282 116.37 32.1689 115.716 31.8382 115.087C31.4319 114.315 30.7007 114.298 30.0183 114.657Z" fill="black"/>
<path d="M30.348 108.493L29.786 108.727L29.7976 108.755C30.3744 108.9 30.7834 109.169 31.0644 109.844C31.5092 110.911 31.0751 111.796 30.026 112.233L26.8224 113.567L26.2956 112.303L29.2838 111.058C29.8458 110.824 30.0496 110.442 29.8233 109.899C29.5736 109.299 28.9718 109.121 28.3347 109.387L25.562 110.542L25.0313 109.268L29.8368 107.266L30.348 108.493Z" fill="black"/>
<path d="M22.7452 108.879L22.2953 107.574L23.4657 107.17L23.9157 108.475L22.7452 108.879ZM24.6832 108.21L24.2332 106.906L29.155 105.208L29.6048 106.513L24.6832 108.21Z" fill="black"/>
<path d="M26.4314 105.408C24.8655 105.837 23.5351 105.244 23.1919 103.991C22.9988 103.287 23.2012 102.758 23.547 102.368L23.5389 102.339L20.9551 103.047L20.5905 101.716L27.5885 99.7989L27.9397 101.081L27.2839 101.261L27.2893 101.28C27.8493 101.442 28.309 101.853 28.5021 102.558C28.8479 103.82 28.0562 104.963 26.4314 105.408ZM25.4688 101.779C24.5097 102.042 23.9495 102.532 24.1828 103.383C24.3838 104.117 25.1316 104.312 26.0615 104.058C27.0304 103.792 27.4936 103.255 27.3059 102.57C27.0887 101.777 26.3889 101.527 25.4688 101.779Z" fill="black"/>
<path d="M24.9084 99.7898C23.3898 100.061 22.0274 99.2417 21.7602 97.7432C21.4662 96.0946 22.5684 94.991 24.3966 94.6651L25.0593 98.3816C25.8307 98.141 26.2419 97.6141 26.1048 96.8448C26.0103 96.3152 25.7153 96.0483 25.299 95.968L25.0603 94.6292C26.0033 94.6569 26.9168 95.329 27.152 96.6477C27.4548 98.3462 26.4369 99.5172 24.9084 99.7898L24.9084 99.7898ZM24.1167 98.529L23.7105 96.2512C23.0682 96.407 22.6952 96.9167 22.8057 97.5361C22.9339 98.2555 23.4259 98.5285 24.1167 98.529Z" fill="black"/>
<path d="M18.688 87.2386L18.7674 85.7389L22.4146 84.9871C23.0403 84.8779 24.012 84.7567 24.012 84.7567L24.0131 84.7364C24.0131 84.7364 23.1209 84.5062 22.4906 84.3204L18.8946 83.3374L18.9697 81.9186L22.6394 81.3204C23.2858 81.2022 24.2074 81.0682 24.2074 81.0682L24.2085 81.0479C24.2085 81.0479 23.2572 80.7841 22.6363 80.609L19.0975 79.507L19.1743 78.0579L26.3101 80.5089L26.2376 81.8769L22.3099 82.5528C21.7764 82.6466 21.0095 82.7381 21.0095 82.7381L21.0084 82.7583C21.0084 82.7583 21.7625 82.91 22.283 83.0595L26.1168 84.1569L26.0448 85.5148L18.688 87.2387L18.688 87.2386Z" fill="black"/>
<path d="M23.8915 78.5209C22.3703 78.2655 21.3624 77.0364 21.6144 75.5352C21.8916 73.8839 23.3005 73.2149 25.1319 73.5224L24.5069 77.2453C25.3143 77.278 25.8787 76.92 26.008 76.1493C26.0971 75.6189 25.9089 75.2684 25.5438 75.0527L25.769 73.7117C26.6478 74.0547 27.2823 74.9947 27.0605 76.3158C26.7749 78.0171 25.4226 78.7779 23.8915 78.5209ZM23.5695 77.0673L23.9526 74.7856C23.2954 74.7164 22.7727 75.0712 22.6687 75.6916C22.5477 76.4122 22.9192 76.8347 23.5695 77.0673Z" fill="black"/>
<path d="M20.3902 71.7402L20.6962 70.3944L27.7713 72.0031L27.4654 73.3489L20.3902 71.7402Z" fill="black"/>
<path d="M25.364 70.7224C23.8739 70.2861 23.01 68.9757 23.455 67.4564C23.8343 66.1612 24.8181 65.5823 25.9505 65.7235L25.5711 67.0188C25.1071 66.9781 24.6763 67.2219 24.5336 67.7089C24.2997 68.5074 24.7934 69.0961 25.7575 69.3785C26.7022 69.6553 27.4464 69.4608 27.6832 68.6525C27.8401 68.1169 27.6689 67.6544 27.1297 67.4013L27.5034 66.1256C28.5392 66.5241 29.144 67.6001 28.7533 68.9342C28.2912 70.5119 26.8539 71.1589 25.364 70.7224Z" fill="black"/>
<path d="M26.9023 65.5081C25.4576 64.9393 24.7487 63.4715 25.3398 61.9701C25.9308 60.4688 27.4502 59.8783 28.8949 60.4471C30.3395 61.0159 31.0485 62.4837 30.4574 63.985C29.8663 65.4863 28.3469 66.0768 26.9023 65.5081ZM28.3819 61.7501C27.4376 61.3784 26.6208 61.5693 26.3123 62.353C26.0001 63.1462 26.4712 63.8333 27.4154 64.205C28.3595 64.5768 29.1632 64.3915 29.4754 63.5983C29.784 62.8146 29.3261 62.1218 28.3819 61.7501Z" fill="black"/>
<path d="M26.8511 58.5139L27.4774 57.3412L28.095 57.6712L28.1094 57.6443C27.8225 57.1689 27.7393 56.5492 28.0786 55.9137C28.3894 55.3319 28.9603 55.0384 29.5632 55.0728L29.5727 55.0549C29.2388 54.4739 29.1926 53.8279 29.5034 53.2461C30.0197 52.2793 30.9379 52.0679 31.9406 52.6033L35.0289 54.2528L34.3787 55.4701L31.4962 53.9307C30.9771 53.6535 30.5698 53.7697 30.3308 54.2173C30.0583 54.7275 30.2849 55.2512 30.8935 55.5762L33.5612 57.0009L32.9109 58.2183L30.0285 56.6789C29.5093 56.4016 29.1022 56.5178 28.8631 56.9654C28.6002 57.4577 28.8171 57.9993 29.4258 58.3244L32.0934 59.7491L31.4432 60.9665L26.8511 58.5139L26.8511 58.5139Z" fill="black"/>
<path d="M33.1556 52.4613C31.8857 51.5859 31.4931 50.0458 32.3569 48.7926C33.3073 47.4141 34.8667 47.4046 36.3956 48.4586L34.2532 51.5664C34.9707 51.9379 35.6335 51.8525 36.0769 51.2092C36.3822 50.7664 36.3603 50.3692 36.1208 50.0193L36.8926 48.8998C37.5434 49.5826 37.7202 50.7027 36.96 51.8055C35.9809 53.2258 34.4339 53.3425 33.1556 52.4613ZM33.4793 51.0083L34.7925 49.1035C34.2264 48.7625 33.6028 48.8627 33.2458 49.3807C32.8311 49.9821 32.9888 50.5222 33.4793 51.0083Z" fill="black"/>
<path d="M35.4198 44.8962L35.8852 44.3462L34.6459 43.2973L35.5179 42.2671L36.7572 43.316L37.334 42.6344L38.0311 43.2245L37.4542 43.906L39.561 45.6892C39.8553 45.9383 40.0937 45.8608 40.2903 45.6285C40.4017 45.4968 40.5448 45.3121 40.5448 45.3121L41.3193 45.9677C41.3193 45.9677 41.1316 46.2209 40.7776 46.6391C40.345 47.1504 39.665 47.5453 38.9137 46.9095L36.5824 44.9362L36.1168 45.4861L35.4198 44.8962L35.4198 44.8962Z" fill="black"/>
<path d="M39.607 43.9389C38.4981 42.8521 38.4171 41.2239 39.5466 40.0714C40.676 38.9191 42.3055 38.9673 43.4144 40.054C44.5233 41.1408 44.6042 42.7691 43.4749 43.9215C42.3454 45.0738 40.7159 45.0256 39.607 43.9389ZM42.4341 41.0542C41.7093 40.3439 40.8826 40.2015 40.2931 40.8031C39.6964 41.412 39.8624 42.2284 40.5872 42.9387C41.312 43.649 42.1245 43.7915 42.7211 43.1827C43.3106 42.5812 43.1589 41.7645 42.4341 41.0542L42.4341 41.0542Z" fill="black"/>
<path d="M45.0426 38.5815C44.0719 37.3697 44.1867 35.7436 45.446 34.7349C46.7054 33.7263 48.3174 33.9694 49.288 35.1813C50.2585 36.3931 50.1438 38.0192 48.8844 39.0279C47.625 40.0365 46.0132 39.7934 45.0426 38.5815ZM48.1949 36.0567C47.5605 35.2646 46.7569 35.0242 46.0995 35.5508C45.4341 36.0837 45.5012 36.914 46.1356 37.7061C46.7699 38.4982 47.5594 38.737 48.2246 38.2041C48.8821 37.6776 48.8293 36.8487 48.1949 36.0567Z" fill="black"/>
<path d="M54.0568 35.1231L53.7206 34.6154L53.6953 34.6323C53.6625 35.2259 53.4752 35.6784 52.8661 36.0818C51.9016 36.7203 50.9512 36.4611 50.3238 35.5136L48.4082 32.6201L49.5503 31.8639L51.3372 34.5628C51.6733 35.0704 52.0866 35.1984 52.5772 34.8735C53.1187 34.515 53.1799 33.8905 52.7989 33.3152L51.141 30.8108L52.2916 30.0489L55.1651 34.3893L54.0568 35.1231Z" fill="black"/>
<path d="M54.854 29.5548L54.8805 29.5398C54.8661 28.8727 55.0264 28.4332 55.5571 28.1348C55.6898 28.0601 55.7744 28.0242 55.86 28.011L56.452 29.0635L56.4255 29.0783C55.5936 29.4414 55.2613 30.1755 55.7986 31.1308L57.0421 33.3418L55.8394 34.0183L53.2874 29.4812L54.4461 28.8296L54.854 29.5548L54.854 29.5548Z" fill="black"/>
<path d="M61.2867 30.4479L61.2681 30.456L61.5274 31.0515L60.3084 31.5821L57.4121 24.9294L58.6776 24.3785L59.747 26.8349L59.7748 26.8228C59.8613 26.3092 60.137 25.8239 60.7976 25.5363C61.9978 25.0138 63.3036 25.674 63.9517 27.1627C64.6241 28.7073 64.2306 30.0407 63.0303 30.5632C62.3604 30.8548 61.7602 30.7731 61.2867 30.4479L61.2867 30.4479ZM62.6676 27.7217C62.2828 26.8377 61.6619 26.3775 60.9547 26.6854C60.1545 27.0337 60.1362 27.8055 60.521 28.6894C60.9018 29.564 61.5822 29.9319 62.2894 29.624C62.9407 29.3405 63.0686 28.6429 62.6676 27.7217Z" fill="black"/>
<path d="M65.2986 24.8369L65.3274 24.8269C65.4304 24.1676 65.6654 23.7631 66.2403 23.5626C66.3841 23.5124 66.4736 23.4919 66.5603 23.4939L66.9582 24.634L66.9294 24.644C66.0466 24.8554 65.5905 25.5197 65.9516 26.5545L66.7875 28.9498L65.4844 29.4044L63.7692 24.4894L65.0244 24.0513L65.2986 24.8369L65.2986 24.8369Z" fill="black"/>
<path d="M71.4396 26.9331L71.42 26.9384C71.2698 27.3898 70.988 27.7825 70.1266 28.018C69.0988 28.2989 68.2272 27.9586 67.9544 26.9602C67.6519 25.8541 68.4562 25.2555 69.5292 24.7938C70.3291 24.449 70.6921 24.276 70.5878 23.8943C70.4888 23.5321 70.1407 23.3749 69.5827 23.5273C68.9563 23.6986 68.7144 24.0067 68.8064 24.4971L67.622 24.8208C67.4202 23.9291 67.8647 22.9766 69.333 22.5752C70.8403 22.1631 71.6318 22.6725 71.9529 23.8472L72.6514 26.4019C72.7558 26.7837 72.8761 26.9927 73.0176 27.0488L73.031 27.0977L71.7487 27.4483C71.6436 27.3718 71.5305 27.1502 71.4396 26.9331ZM71.1175 25.7167L70.9115 24.9629C70.714 25.1643 70.3733 25.3416 70.0619 25.5109C69.4097 25.8574 69.11 26.1077 69.2384 26.5776C69.3669 27.0474 69.7255 27.1282 70.1953 26.9998C70.9588 26.791 71.2513 26.2061 71.1175 25.7167Z" fill="black"/>
<path d="M74.0893 22.316L74.1193 22.3106C74.3695 21.698 74.7864 21.3235 75.4855 21.1972C76.5441 21.0056 77.3976 21.6762 77.6 22.7947L78.2052 26.1401L76.8471 26.3859L76.278 23.2402C76.1785 22.6909 75.7886 22.3592 75.2194 22.4622C74.6202 22.5706 74.2674 23.1295 74.3939 23.8285L74.9197 26.7345L73.5615 26.9802L72.6347 21.8573L73.9629 21.617L74.0893 22.316L74.0893 22.316Z" fill="black"/>
<path d="M78.4149 23.4798C78.2731 21.8623 79.0946 20.6595 80.3886 20.546C81.1165 20.4822 81.6007 20.7759 81.9219 21.1858L81.9522 21.1831L81.7182 18.5143L83.093 18.3938L83.7269 25.6218L82.4026 25.7381L82.3431 25.0606L82.3229 25.0624C82.063 25.5844 81.5768 25.9632 80.8489 26.0271C79.5448 26.1414 78.5621 25.1579 78.4149 23.4798ZM82.158 23.1821C82.0711 22.1914 81.6892 21.5526 80.8097 21.6297C80.0514 21.6962 79.7258 22.397 79.81 23.3575C79.8977 24.3583 80.3434 24.91 81.0511 24.848C81.87 24.7762 82.2413 24.1324 82.158 23.1821Z" fill="black"/>
<path d="M85.9695 25.7052L87.3387 25.7489C87.4399 26.077 87.726 26.3399 88.365 26.3604C89.146 26.3853 89.5333 26.0219 89.5559 25.3119L89.574 24.744L89.5436 24.743C89.2283 25.0781 88.8244 25.3292 88.165 25.3082C87.0088 25.2713 85.902 24.3223 85.9521 22.7502C86.0016 21.1984 86.9664 20.2341 88.285 20.2761C88.9341 20.2968 89.4027 20.5656 89.7032 21.0118L89.7235 21.0124L89.741 20.4648L91.0696 20.5071L90.9163 25.3148C90.893 26.045 90.6439 26.5345 90.2471 26.8773C89.7981 27.269 89.1228 27.4303 88.352 27.4057C86.932 27.3604 86.0792 26.724 85.9695 25.7052ZM89.7058 22.8394C89.7301 22.0787 89.345 21.4167 88.5134 21.3901C87.8135 21.3678 87.3295 21.9006 87.3017 22.7729C87.2736 23.6553 87.7236 24.1874 88.4336 24.2101C89.3058 24.2379 89.6813 23.6103 89.7058 22.8394L89.7058 22.8394Z" fill="black"/>
<path d="M94.9067 26.1689L94.9804 25.5645L94.9502 25.5608C94.5399 25.9914 94.1039 26.2144 93.3786 26.126C92.2303 25.9862 91.6751 25.1724 91.8124 24.0443L92.2317 20.5992L93.5916 20.7647L93.2005 23.9781C93.127 24.5825 93.3585 24.948 93.9427 25.0191C94.5874 25.0976 95.0391 24.6619 95.1224 23.9768L95.4854 20.9952L96.8553 21.1619L96.2264 26.3295L94.9067 26.1689Z" fill="black"/>
<path d="M97.9401 21.3783L99.2971 21.6287L98.3526 26.7476L96.9956 26.4972L97.9401 21.3783L97.9401 21.3783ZM98.312 19.3627L99.6691 19.613L99.4444 20.8304L98.0873 20.58L98.312 19.3627Z" fill="black"/>
<path d="M99.5206 24.2795C99.9166 22.7048 101.087 21.8376 102.347 22.1544C103.055 22.3325 103.416 22.7686 103.586 23.2611L103.615 23.2685L104.268 20.6703L105.607 21.0069L103.838 28.0436L102.548 27.7195L102.714 27.0601L102.694 27.0551C102.278 27.4632 101.694 27.6617 100.986 27.4835C99.716 27.1644 99.1098 25.9132 99.5206 24.2795ZM103.155 25.2246C103.397 24.2602 103.246 23.5313 102.389 23.316C101.651 23.1305 101.114 23.686 100.879 24.621C100.634 25.5953 100.874 26.2626 101.563 26.4358C102.36 26.6363 102.922 26.1498 103.155 25.2246Z" fill="black"/>
<path d="M105.164 25.7143C105.673 24.2584 107.056 23.4736 108.492 23.9765C110.073 24.5297 110.493 26.0315 109.879 27.7842L106.317 26.5371C106.147 27.3272 106.405 27.944 107.142 28.2022C107.65 28.3798 108.027 28.2539 108.301 27.9307L109.585 28.3799C109.098 29.1878 108.064 29.6537 106.8 29.2111C105.171 28.6412 104.651 27.1796 105.164 25.7143ZM106.651 25.6434L108.835 26.4078C109.014 25.7718 108.753 25.1967 108.159 24.9888C107.47 24.7475 106.99 25.0419 106.651 25.6434L106.651 25.6434Z" fill="black"/>
<path d="M88.9535 70.7767L79.2921 57.6974L55.0011 75.5653L82.5788 112.9L120.022 85.4052L102.106 61.1498L88.9535 70.7767ZM84.0474 103.196L64.7249 77.0369L77.8237 67.4019L87.485 80.4812L100.522 70.8912L110.237 83.9795L84.0474 103.196Z" fill="black"/>
</g>
<defs>
<clipPath id="clip0_25_972">
<rect width="151.381" height="151.381" fill="white" transform="translate(23.1396) rotate(8.60548)"/>
</clipPath>
</defs>
</svg>
